<svg xmlns="http://www.w3.org/2000/svg" width="54" height="54" viewBox="0 0 54 54">
  <g id="Group_1342" data-name="Group 1342" transform="translate(-766 -617)">
    <g id="Rectangle_5263" data-name="Rectangle 5263" transform="translate(766 617)" fill="none" stroke="#ececec" stroke-width="1">
      <rect width="54" height="54" rx="6" stroke="none"/>
      <rect x="0.5" y="0.5" width="53" height="53" rx="5.5" fill="none"/>
    </g>
    <path id="Path_2571" data-name="Path 2571" d="M16.6,25.85l.1.75-.25.15-.1-.55-.55-.25-.1,1-.1.3a.574.574,0,0,1,.55.4l.65.3,1.4.15.65.15.2-1v-.7l.1-.35-2.35-.6Z" transform="translate(762.725 608.262)" fill="none" stroke="#0d78bf" stroke-miterlimit="10" stroke-width="0.5"/>
    <path id="Path_2572" data-name="Path 2572" d="M14.8,28.7l-.2.1-.45,1.15-.35.85-.2.3v.5l2.5.65,1.1.25.35-1.45-.1-.3.35-.25.15-.4v-.15l-.05-.1" transform="translate(763.725 606.712)" fill="none" stroke="#0d78bf" stroke-miterlimit="10" stroke-width="0.5"/>
    <path id="Path_2573" data-name="Path 2573" d="M21.8,26.8l.5.05-.1.7.1.45.1.25.1.35.2.15-.25.55.1.25.25-.25.3,1H24l-.25,1.95-2.95-.7" transform="translate(760.125 607.662)" fill="none" stroke="#0d78bf" stroke-miterlimit="10" stroke-width="0.5"/>
    <path id="Path_2574" data-name="Path 2574" d="M24,27.1l2.5.45,1.2.15,1.3.2h.35l-.25,2.8-3.35-.45-.15.2" transform="translate(758.525 607.512)" fill="none" stroke="#0d78bf" stroke-miterlimit="10" stroke-width="0.5"/>
    <path id="Path_2575" data-name="Path 2575" d="M34.65,28.8l1.9.15h1.2v.7l.1.1.1,1.25-3.55-.1" transform="translate(753.325 606.662)" fill="none" stroke="#0d78bf" stroke-miterlimit="10" stroke-width="0.5"/>
    <path id="Path_2576" data-name="Path 2576" d="M34.05,34l-.15,1.3h2.8l.15.25h.6l.35.4-.1-.8.1-.75-.1-1" transform="translate(753.575 604.362)" fill="none" stroke="#0d78bf" stroke-miterlimit="10" stroke-width="0.5"/>
    <path id="Path_2577" data-name="Path 2577" d="M41.5,32.5h2.65l-.2-.4-.2-.15-.25-.2-.35-.1.1-.6-.05-.2.35-.25-.1-.3s.85-.9,1.1-.95a1.117,1.117,0,0,0-.7-.15H43.6l-.6-.25-.6-.05-.2-.1-.05-.5-.25.1.05.2-.75.15" transform="translate(749.925 606.912)" fill="none" stroke="#0d78bf" stroke-miterlimit="10" stroke-width="0.5"/>
    <path id="Path_2578" data-name="Path 2578" d="M46,32.05l.4-.15.4.3.15.1.6.15.35.1.25.4L48,33.4l.5-.5-.25.9-.05,1-.05.15H46.8l-.25-.35-.05-.3" transform="translate(747.525 605.112)" fill="none" stroke="#0d78bf" stroke-miterlimit="10" stroke-width="0.5"/>
    <path id="Path_2579" data-name="Path 2579" d="M47.7,31.45l.55-.35.35-.4v.4l.55.35.35-.15.65-.1.15.15.2-.15.25.4h-.9l-.5.35-.35.4" transform="translate(746.675 605.712)" fill="none" stroke="#0d78bf" stroke-miterlimit="10" stroke-width="0.5"/>
    <path id="Path_2580" data-name="Path 2580" d="M41.9,38.4l.2.35v.35l.05.25v.1l.35-.05.35.15.9-.1.3-.1h.2l.2.1.2-.35-.1-.15v-.2l.1-.05.15-.05.25-.25L45,38.25,44.9,38" transform="translate(749.575 602.062)" fill="none" stroke="#0d78bf" stroke-miterlimit="10" stroke-width="0.5"/>
    <path id="Path_2581" data-name="Path 2581" d="M47.1,39.65v.4l.2.25.35.35v.15l.25.35.3.25.1.35h.45v-.2l.2-.1v-.2l.25-.15h.45l.2-.2.05.2.25-.2.15-.4h.3l-.05-.15V39.8c0-.05-.1-1.4-.1-1.4h-.4l-.7.15L49,38.6l-.2-.4" transform="translate(746.975 601.962)" fill="none" stroke="#0d78bf" stroke-miterlimit="10" stroke-width="0.5"/>
    <path id="Path_2582" data-name="Path 2582" d="M30.15,37.7v1.1l-2.6-.2-1.15-.25.2-.5" transform="translate(757.325 602.212)" fill="none" stroke="#0d78bf" stroke-miterlimit="10" stroke-width="0.5"/>
    <path id="Path_2583" data-name="Path 2583" d="M28.25,39.9,28,42.4l3.65.4V41.55l.15-.7V40.5l-.05-.6H31.2" transform="translate(756.525 601.112)" fill="none" stroke="#0d78bf" stroke-miterlimit="10" stroke-width="0.5"/>
    <path id="Path_2584" data-name="Path 2584" d="M20.2,36.6l-.5,2.75-.15,1.25-.45-.2-.1.9-2.2-3.4.6-2" transform="translate(762.125 603.112)" fill="none" stroke="#0d78bf" stroke-miterlimit="10" stroke-width="0.5"/>
    <path id="Path_2585" data-name="Path 2585" d="M13.2,35l-.4.9a3.965,3.965,0,0,1,.2.45,2.327,2.327,0,0,0,.2,1.4,4.06,4.06,0,0,0,.1.85s-.05.7.2.95a2.008,2.008,0,0,1,.2.8,3.4,3.4,0,0,1,.8.65,2.4,2.4,0,0,1,.65,1.05l.25.2,1.4.15-.1-.45.35-.55v-.35" transform="translate(764.125 603.562)" fill="none" stroke="#0d78bf" stroke-miterlimit="10" stroke-width="0.5"/>
    <path id="Path_2586" data-name="Path 2586" d="M21.8,44l2.4.5-.45,3.8-.15.1-.6-.1-.7-.15-1.45-.95-.05-.15" transform="translate(760.125 599.062)" fill="none" stroke="#0d78bf" stroke-miterlimit="10" stroke-width="0.5"/>
    <path id="Path_2587" data-name="Path 2587" d="M27,49.4l.3.1.1-.35h.8l.25.25.1-.25,1.8.15.1-2.1.25-.6V46" transform="translate(757.025 598.062)" fill="none" stroke="#0d78bf" stroke-miterlimit="10" stroke-width="0.5"/>
    <path id="Path_2588" data-name="Path 2588" d="M30.1,49.7s.45.15.65,1c0,0,.05.3.65.65,0,0,.2.4.6-.3a1.136,1.136,0,0,1,1.2.55,2.127,2.127,0,0,0,.6,1.1,2.309,2.309,0,0,1,.3.85s.8.85,1.3.45a1.319,1.319,0,0,1,.15-1.5,1.819,1.819,0,0,1,.65-.45s.05.05.5-.4a1.915,1.915,0,0,1,.8-.4l.15-.95-.15-.25-.05-.35-.15-.55.05-.45-.15-.3-.25-.1a2.868,2.868,0,0,1-.35-.2c-.05-.05-.4,0-.4,0l-.15.15-.3.05H35.4l-.35-.2h-.8v-.25h-.3l-.1-1.6L32.3,46.2" transform="translate(755.475 597.962)" fill="none" stroke="#0d78bf" stroke-miterlimit="10" stroke-width="0.5"/>
    <path id="Path_2589" data-name="Path 2589" d="M34.7,45.85V45.7s4.65.35,4.55.25,0,.55,0,.55l-.05.85.1.6" transform="translate(753.175 598.212)" fill="none" stroke="#0d78bf" stroke-miterlimit="10" stroke-width="0.5"/>
    <path id="Path_2590" data-name="Path 2590" d="M36,41.6l3.45.1s-.1.2.25.45l.1,1.45" transform="translate(752.525 600.262)" fill="none" stroke="#0d78bf" stroke-miterlimit="10" stroke-width="0.5"/>
    <path id="Path_2591" data-name="Path 2591" d="M47.35,46l-.25.35-.2.45-.05.4-.4.55-.25.45.15.4.1.15H45" transform="translate(748.025 598.062)" fill="none" stroke="#0d78bf" stroke-miterlimit="10" stroke-width="0.5"/>
    <path id="Path_2592" data-name="Path 2592" d="M47.1,48.4a6.667,6.667,0,0,0,1,0v2.85l.1.5-.35.15H47.4v.25s.3.2.25.25l-.15.15s-.1.1-.8,0a2.777,2.777,0,0,0-1.05-.15l-.55-.05" transform="translate(747.975 596.862)" fill="none" stroke="#0d78bf" stroke-miterlimit="10" stroke-width="0.5"/>
    <path id="Path_2593" data-name="Path 2593" d="M51.5,48.3l1.2-.1.3,1,.3.65-.15.3.15.75.15.25.7-.1.65.1.4.1.05-.25s.1-.4.3-.15a2.26,2.26,0,0,0,.7,1.4,3.759,3.759,0,0,1,.6,1.85s0,.85-.8.35a9.2,9.2,0,0,1-.95-1.1l-.15-.55a1.059,1.059,0,0,0-.8-1.1,1.286,1.286,0,0,0-.8.2,1.6,1.6,0,0,0-1.1-.4c-.8-.05-.15,0-.15,0l-.55.15" transform="translate(744.775 596.962)" fill="#124ca3" stroke="#0d78bf" stroke-miterlimit="10" stroke-width="0.5"/>
    <path id="Path_2594" data-name="Path 2594" d="M54.5,47.955a1.35,1.35,0,0,1,.95.1,7.634,7.634,0,0,1,1.45,1.4l.3.45-.15.25v.35" transform="translate(743.275 597.106)" fill="none" stroke="#0d78bf" stroke-miterlimit="10" stroke-width="0.5"/>
    <path id="Path_2595" data-name="Path 2595" d="M49.8,43.7l.75-.75s.35-.5.25-.85" transform="translate(745.625 600.012)" fill="none" stroke="#0d78bf" stroke-miterlimit="10" stroke-width="0.5"/>
    <path id="Path_2596" data-name="Path 2596" d="M58.65,47.486a.845.845,0,0,1-.25-.1.8.8,0,0,0-.45.05s-.45-.4-1.45.05a.687.687,0,0,1-.3.1" transform="translate(742.425 597.425)" fill="none" stroke="#0d78bf" stroke-miterlimit="10" stroke-width="0.5"/>
    <path id="Path_2597" data-name="Path 2597" d="M49.9,46l2.95-.3,1.1-.1a6.53,6.53,0,0,1-1.35,1" transform="translate(745.575 598.262)" fill="none" stroke="#0d78bf" stroke-miterlimit="10" stroke-width="0.5"/>
    <path id="Path_2598" data-name="Path 2598" d="M48.3,38.55,51.15,38s.65.55-.1,1.25c-.7.7-.05,0-.05,0a3.807,3.807,0,0,0-.65.9s-.15.1-.25,0" transform="translate(746.375 602.062)" fill="none" stroke="#0d78bf" stroke-miterlimit="10" stroke-width="0.5"/>
    <path id="Path_2599" data-name="Path 2599" d="M60.15,42.154s-.45-.75-.85-.9l-.1-.15v-.25l-.05-.15s-.25-.55-.95-.15c0,0-.2.3-.35.1,0,0-.45-.4-.9.2l-.25.35-.15.35-.1.15.1.2.15.2v.15l-.15.25-.2.3-.15.15" transform="translate(742.425 600.857)" fill="none" stroke="#0d78bf" stroke-miterlimit="10" stroke-width="0.5"/>
    <path id="Path_2600" data-name="Path 2600" d="M55.3,42.536s-.1-.1-.4,0c0,0-.35-.05-.45-.2a.552.552,0,0,0-.35-.05" transform="translate(743.475 599.926)" fill="none" stroke="#0d78bf" stroke-miterlimit="10" stroke-width="0.5"/>
    <path id="Path_2601" data-name="Path 2601" d="M54.1,38.181a1.2,1.2,0,0,1,.65,0s.4.2.95-.35c0,0,.2-.3.35-.1,0,0,.3.95.05,1.35" transform="translate(743.475 602.23)" fill="none" stroke="#0d78bf" stroke-miterlimit="10" stroke-width="0.5"/>
    <path id="Path_2602" data-name="Path 2602" d="M48,30.852a.433.433,0,0,1,.4-.2,4.355,4.355,0,0,0,1.65-.25s.5-.3.7.15a.585.585,0,0,1,.15.55s-.1.25.1.3c0,0,.2.25-.35.5,0,0-.95.25-1.95.5" transform="translate(746.525 605.909)" fill="none" stroke="#0d78bf" stroke-miterlimit="10" stroke-width="0.5"/>
    <path id="Path_2604" data-name="Path 2604" d="M51.8,29.948a1.132,1.132,0,0,1,.5-.15s.3-.05.2.3a2.909,2.909,0,0,0-.15,1.05s-.1.15-.2.05" transform="translate(744.625 606.164)" fill="none" stroke="#0d78bf" stroke-miterlimit="10" stroke-width="0.5"/>
    <path id="Path_2605" data-name="Path 2605" d="M52.6,33.59a.523.523,0,0,1,.45-.1.251.251,0,0,1,.25.35" transform="translate(744.225 604.322)" fill="none" stroke="#0d78bf" stroke-miterlimit="10" stroke-width="0.5"/>
    <path id="Path_2606" data-name="Path 2606" d="M52.9,32.268a.505.505,0,0,0,.6-.2s.15-.15.2.2c0,0,.1.35.4.3,0,0,.2-.3.2-.1,0,0,0,.65-.7.2,0,0-.15-.1-.2.05" transform="translate(744.075 605.044)" fill="none" stroke="#0d78bf" stroke-miterlimit="10" stroke-width="0.5"/>
    <path id="Path_2608" data-name="Path 2608" d="M53.545,35.553s-.2-.15.2-.6c0,0,.3-1.3-.6-.65,0,0-.25-.15,0-.55,0,0,0-1.4-.95-.6,0,0,.15.1-.15.35a1.279,1.279,0,0,0-.1,1.4.556.556,0,0,1-.15.85" transform="translate(744.63 604.608)" fill="none" stroke="#0d78bf" stroke-miterlimit="10" stroke-width="0.5"/>
    <ellipse id="Ellipse_781" data-name="Ellipse 781" cx="6.05" cy="6.05" rx="6.05" ry="6.05" transform="translate(784.375 629.361)" fill="#fff" stroke="#0d78bf" stroke-miterlimit="10" stroke-width="0.5"/>
    <path id="Path_2609" data-name="Path 2609" d="M39.2,24.15h0a2.51,2.51,0,0,0,.1-.6,2.15,2.15,0,0,0-4.3,0,2.188,2.188,0,0,0,.4,1.25l1.85,3.9,1.8-4.1a2.324,2.324,0,0,0,.15-.45Z" transform="translate(753.025 610.362)" fill="#0d78bf" stroke="#0d78bf" stroke-width="0.25"/>
    <ellipse id="Ellipse_782" data-name="Ellipse 782" cx="0.95" cy="0.95" rx="0.95" ry="0.95" transform="translate(789.225 632.812)" fill="#fff" stroke="#0d78bf" stroke-miterlimit="10" stroke-width="0.25"/>
    <rect id="Rectangle_4901" data-name="Rectangle 4901" width="6.75" height="6.9" transform="translate(796.025 644.162)" fill="#fff" stroke="#0d78bf" stroke-miterlimit="10" stroke-width="0.5"/>
    <rect id="Rectangle_4902" data-name="Rectangle 4902" width="6.75" height="5.45" transform="translate(796.025 651.962)" fill="#fff" stroke="#0d78bf" stroke-miterlimit="10" stroke-width="0.5"/>
    <rect id="Rectangle_4903" data-name="Rectangle 4903" width="5.25" height="3.85" transform="translate(803.725 644.162)" fill="#fff" stroke="#0d78bf" stroke-miterlimit="10" stroke-width="0.5"/>
    <rect id="Rectangle_4904" data-name="Rectangle 4904" width="5.25" height="3.05" transform="translate(803.725 648.711)" fill="#fff" stroke="#0d78bf" stroke-miterlimit="10" stroke-width="0.5"/>
    <rect id="Rectangle_4905" data-name="Rectangle 4905" width="2.25" height="1.95" transform="translate(803.675 652.512)" fill="#fff" stroke="#0d78bf" stroke-miterlimit="10" stroke-width="0.5"/>
    <rect id="Rectangle_4906" data-name="Rectangle 4906" width="2.35" height="1.9" transform="translate(806.725 652.512)" fill="#fff" stroke="#0d78bf" stroke-miterlimit="10" stroke-width="0.5"/>
    <rect id="Rectangle_4907" data-name="Rectangle 4907" width="2.3" height="2" transform="translate(803.675 655.412)" fill="#fff" stroke="#0d78bf" stroke-miterlimit="10" stroke-width="0.5"/>
    <rect id="Rectangle_4908" data-name="Rectangle 4908" width="2.35" height="2" transform="translate(806.725 655.412)" fill="#fff" stroke="#0d78bf" stroke-miterlimit="10" stroke-width="0.5"/>
  </g>
</svg>
