<?xml version="1.0" encoding="utf-8"?>
<!-- Generator: Adobe Illustrator 23.0.3, SVG Export Plug-In . SVG Version: 6.00 Build 0)  -->
<svg version="1.1" xmlns="http://www.w3.org/2000/svg" xmlns:xlink="http://www.w3.org/1999/xlink" x="0px" y="0px"
	 viewBox="0 0 86.3 86.4" style="enable-background:new 0 0 86.3 86.4;" xml:space="preserve">
<style type="text/css">
	.st0{fill:#FFFFFF;stroke:#D2D3D4;stroke-miterlimit:10;}
	.st1{fill:#FFFFFF;stroke:#F69320;stroke-width:0.75;stroke-miterlimit:10;}
	.st2{fill:#FFFFFF;}
	.st3{font-family:'ArialMT';}
	.st4{font-size:15.2746px;}
	.st5{enable-background:new    ;}
	.st6{fill:none;stroke:#F69320;stroke-width:0.75;stroke-miterlimit:10;}
</style>
<g id="Layer_1">
	<title>highly_interactive</title>
	<g>
		<path class="st0" d="M74.4,85.9H11.9c-6.3,0-11.4-5.1-11.4-11.4c0,0,0,0,0,0V11.9c0-6.3,5.1-11.4,11.4-11.4c0,0,0,0,0,0h62.5
			c6.3,0,11.4,5.1,11.4,11.4c0,0,0,0,0,0v62.5c0.1,6.3-4.9,11.4-11.2,11.5C74.5,85.9,74.5,85.9,74.4,85.9z"/>
	</g>
</g>
<g id="Layer_2">
	<circle class="st1" cx="27.7" cy="33.5" r="12"/>
	<circle class="st1" cx="50.1" cy="25.4" r="12"/>
	<circle class="st1" cx="65.3" cy="39.2" r="12"/>
	<circle class="st1" cx="63.7" cy="56.3" r="12"/>
	<circle class="st1" cx="46.4" cy="65.6" r="12"/>
	<circle class="st1" cx="24.7" cy="55.4" r="12"/>
	<circle class="st1" cx="45.6" cy="46.5" r="16"/>
	<text transform="matrix(1 0 0 1 34.5151 51.3047)" class="st2 st3 st4">65+</text>
	<g class="st5">
		<path class="st6" d="M42.1,43l-1.3,0.1c-0.1-0.5-0.3-0.9-0.5-1.1c-0.4-0.4-0.8-0.6-1.3-0.6c-0.4,0-0.8,0.1-1.1,0.4
			c-0.4,0.3-0.8,0.8-1,1.3s-0.4,1.4-0.4,2.5c0.3-0.5,0.7-0.9,1.2-1.1c0.5-0.2,1-0.4,1.5-0.4c0.9,0,1.7,0.3,2.3,1
			c0.6,0.7,0.9,1.5,0.9,2.6c0,0.7-0.1,1.3-0.4,1.9c-0.3,0.6-0.7,1-1.2,1.4s-1.1,0.5-1.8,0.5c-1.1,0-2-0.4-2.7-1.2s-1.1-2.2-1.1-4.1
			c0-2.1,0.4-3.6,1.2-4.6c0.7-0.8,1.6-1.3,2.8-1.3c0.9,0,1.6,0.2,2.1,0.7S42,42.2,42.1,43z M36.6,47.8c0,0.5,0.1,0.9,0.3,1.3
			s0.5,0.7,0.8,1c0.4,0.2,0.7,0.3,1.1,0.3c0.6,0,1.1-0.2,1.5-0.7s0.6-1.1,0.6-1.9c0-0.8-0.2-1.4-0.6-1.8c-0.4-0.4-0.9-0.7-1.5-0.7
			c-0.6,0-1.1,0.2-1.5,0.7C36.8,46.5,36.6,47.1,36.6,47.8z"/>
		<path class="st6" d="M43.6,48.4l1.4-0.1c0.1,0.7,0.3,1.2,0.7,1.5c0.4,0.3,0.8,0.5,1.4,0.5c0.6,0,1.2-0.2,1.6-0.7s0.7-1.1,0.7-1.9
			c0-0.8-0.2-1.4-0.6-1.8c-0.4-0.4-1-0.7-1.7-0.7c-0.4,0-0.8,0.1-1.2,0.3c-0.3,0.2-0.6,0.5-0.8,0.8l-1.3-0.2l1.1-5.6h5.4v1.3H46
			l-0.6,2.9c0.7-0.5,1.3-0.7,2.1-0.7c1,0,1.8,0.3,2.4,1c0.7,0.7,1,1.5,1,2.6c0,1-0.3,1.8-0.9,2.6c-0.7,0.9-1.7,1.3-2.9,1.3
			c-1,0-1.8-0.3-2.4-0.8C44.1,50.1,43.7,49.4,43.6,48.4z"/>
		<path class="st6" d="M55.3,49.5v-3h-3v-1.3h3v-3h1.3v3h3v1.3h-3v3H55.3z"/>
	</g>
	<rect x="64.8" y="50.9" class="st1" width="3" height="11"/>
	<rect x="60.5" y="55.7" class="st1" width="3" height="6.2"/>
	<rect x="68.8" y="55.7" class="st1" width="3" height="6.2"/>
	<polygon class="st1" points="20.7,27.2 32.1,27.2 30.3,30.9 22.5,30.9 	"/>
	<path class="st1" d="M22.7,31.8"/>
	<polygon class="st1" points="22.6,32.1 24.1,35.3 28.8,35.3 30.2,32.1 	"/>
	<polygon class="st1" points="24.2,36.6 28.6,36.6 26.3,40.4 	"/>
	<path class="st1" d="M65.4,35.9l-3.2-1.8c0,0-1.8,2.9,0,6.5l3.1-1.9C65.3,38.7,64.6,37,65.4,35.9z"/>
	<path class="st1" d="M67.8,30.7l0.1,3.6l0,0c0,0-1.8,0.2-2.5,1.5L62.2,34C62.2,34.1,63.8,31,67.8,30.7z"/>
	<path class="st1" d="M68,34.4"/>
	<path class="st1" d="M70.4,35.8c0,0-0.6-1.3-2.5-1.5l-0.1-3.6c0,0,4,0.2,5.7,3.4L70.4,35.8z"/>
	<path class="st1" d="M73.6,34.3c0,0,1.5,2.5-0.1,6.1l-3.2-1.7c0,0,0.9-1.6,0-2.8l3.1-1.7L73.6,34.3z"/>
	<line class="st6" x1="68.9" y1="37" x2="72.5" y2="35.7"/>
	<path class="st1" d="M53.4,24.6c-0.4,0.8-1,1.4-1.8,1.7l1.2,1.8c1.2-0.6,2.1-1.6,2.6-2.8L53.4,24.6z M46.2,22.9
		c0-0.3,0-0.6,0.1-0.9c0.2-0.8,0.7-1.5,1.3-2l-1.2-1.8c-1,0.8-1.8,1.8-2.2,3.1C44,21.8,44,22.4,44,23c0,1.9,0.9,3.6,2.3,4.7l1.3-1.7
		C46.8,25.2,46.2,24.1,46.2,22.9z"/>
	<path class="st1" d="M52.8,28.2C52,28.6,51,28.9,50,28.9c-1.4,0-2.7-0.5-3.7-1.3l1.3-1.7c0.6,0.5,1.5,0.8,2.4,0.8
		c0.6,0,1.1-0.1,1.6-0.4L52.8,28.2z"/>
	<path class="st1" d="M53.6,18.1c-1-0.7-2.2-1.2-3.5-1.2s-2.6,0.4-3.5,1.2l1.2,1.8c0.7-0.5,1.5-0.8,2.4-0.8c0.8,0,1.6,0.3,2.2,0.7
		c0.9,0.7,1.6,1.8,1.6,3.1c0,0.6-0.1,1.2-0.4,1.7l2,0.7c0.3-0.7,0.5-1.6,0.5-2.4C56,21,55,19.2,53.6,18.1z"/>
	<polyline class="st1" points="17.3,60.1 20.7,53.4 23.3,59.4 26.9,55.3 	"/>
	<path class="st1" d="M17.7,60.7L17.7,60.7c-0.9,0-1.5-0.7-1.5-1.5l0,0c0-0.9,0.7-1.5,1.5-1.5l0,0c0.9,0,1.5,0.7,1.5,1.5l0,0
		C19.3,60,18.6,60.7,17.7,60.7z"/>
	<path class="st1" d="M20.7,55.9L20.7,55.9c-0.9,0-1.5-0.7-1.5-1.5l0,0c0-0.9,0.7-1.5,1.5-1.5l0,0c0.9,0,1.5,0.7,1.5,1.5l0,0
		C22.3,55.2,21.6,55.9,20.7,55.9z"/>
	<path class="st1" d="M27.7,56.3L27.7,56.3c-0.9,0-1.5-0.7-1.5-1.5l0,0c0-0.9,0.7-1.5,1.5-1.5l0,0c0.9,0,1.5,0.7,1.5,1.5l0,0
		C29.2,55.6,28.5,56.3,27.7,56.3z"/>
	<path class="st1" d="M24,60.5L24,60.5c-0.9,0-1.5-0.7-1.5-1.5l0,0c0-0.9,0.7-1.5,1.5-1.5l0,0c0.9,0,1.5,0.7,1.5,1.5l0,0
		C25.5,59.8,24.8,60.5,24,60.5z"/>
	<rect x="40.9" y="65.3" class="st1" width="3.5" height="2.9"/>
	<rect x="44.7" y="65.3" class="st1" width="3.5" height="2.9"/>
	<rect x="48.2" y="65.3" class="st1" width="3.5" height="2.9"/>
	<rect x="40.9" y="68.4" class="st1" width="3.5" height="2.9"/>
	<rect x="44.7" y="68.4" class="st1" width="3.5" height="2.9"/>
	<rect x="48.4" y="68.4" class="st1" width="3.3" height="2.9"/>
	<rect x="48.4" y="71.3" class="st1" width="3.4" height="2.9"/>
	<rect x="44.5" y="71.3" class="st1" width="3.5" height="2.9"/>
	<rect x="40.9" y="71.3" class="st1" width="3.3" height="2.9"/>
</g>
</svg>
