<?xml version="1.0" encoding="utf-8"?>
<!-- Generator: Adobe Illustrator 23.0.3, SVG Export Plug-In . SVG Version: 6.00 Build 0)  -->
<svg version="1.1" xmlns="http://www.w3.org/2000/svg" xmlns:xlink="http://www.w3.org/1999/xlink" x="0px" y="0px"
	 viewBox="0 0 90 90" style="enable-background:new 0 0 90 90;" xml:space="preserve">
<style type="text/css">
	.st0{fill:#FFFFFF;stroke:#D2D3D4;stroke-miterlimit:10;}
	.st1{fill:#FFFFFF;stroke:#F7931E;stroke-width:0.5;stroke-miterlimit:10;}
	.st2{fill:#F7931E;}
	.st3{fill:#FFFFFF;}
</style>
<g id="Layer_1">
</g>
<g id="Layer_2">
	<g>
		<g>
			<path class="st0" d="M77,87.8H14.5c-6.3,0-11.4-5.1-11.4-11.4V13.8c0-6.3,5.1-11.4,11.4-11.4H77c6.3,0,11.4,5.1,11.4,11.4v62.5
				C88.5,82.7,83.3,87.8,77,87.8z"/>
		</g>
	</g>
</g>
<g id="Layer_3">
	<rect x="13.2" y="15.8" class="st1" width="20.6" height="18.4"/>
	<rect x="35.5" y="15.8" class="st1" width="20.6" height="18.4"/>
	<rect x="57.8" y="15.8" class="st1" width="20.6" height="18.4"/>
	<rect x="13.2" y="35.8" class="st1" width="20.6" height="18.4"/>
	<rect x="35.5" y="35.8" class="st1" width="20.6" height="18.4"/>
	<rect x="57.8" y="35.8" class="st1" width="20.6" height="18.4"/>
	<rect x="13.2" y="55.8" class="st1" width="20.6" height="18.4"/>
	<rect x="35.5" y="55.8" class="st1" width="20.6" height="18.4"/>
	<rect x="57.8" y="55.8" class="st1" width="20.6" height="18.4"/>
	<g id="Layer_4_2_">
		<rect x="61.6" y="58.9" class="st2" width="12.3" height="12.3"/>
	</g>
	<polygon class="st3" points="62.9,60.9 62.9,68.6 68.6,69.6 68.6,59.9 	"/>
	<polygon class="st2" points="65.4,63 64.7,63.1 65.4,64.7 64.6,66.3 65.3,66.4 65.8,65.2 66.3,66.5 67,66.5 66.2,64.7 67,62.9 
		66.3,63 65.8,64.2 	"/>
	<polygon class="st3" points="68.9,61 73,61 73,68.6 68.9,68.6 68.9,67.9 72.3,67.9 72.3,61.6 68.9,61.6 	"/>
	<rect x="70.1" y="61.9" class="st3" width="0.3" height="6"/>
	<rect x="68.7" y="62.8" class="st3" width="3.3" height="0.3"/>
	<rect x="68.7" y="64.1" class="st3" width="3.3" height="0.3"/>
	<rect x="68.7" y="65.4" class="st3" width="3.3" height="0.3"/>
	<rect x="68.7" y="66.7" class="st3" width="3.3" height="0.3"/>
	<path class="st2" d="M15.5,29.1h0.6v-2.3l0.9,2c0.1,0.2,0.3,0.4,0.5,0.3c0.2,0,0.5-0.1,0.5-0.3l0.9-2v2.3h0.6v-2.3
		c0-0.2-0.1-0.3-0.3-0.4c-0.4-0.1-0.7,0-0.9,0.3l-0.9,2l-0.9-2c-0.1-0.3-0.4-0.4-0.9-0.3c-0.2,0-0.3,0.2-0.3,0.4L15.5,29.1z"/>
	<path class="st2" d="M20,27.2h0.6v1.3c0,0.1,0,0.2,0.3,0.2c0.2,0,1.3,0,1.3,0v-1.5h0.6c0,0,0,2.1,0,2.1c0,0.5-0.6,0.6-0.9,0.6H20
		v-0.4h1.8c0.4,0,0.3-0.2,0.3-0.3v-0.2h-1.2c-0.6,0-0.9-0.3-0.9-0.5C20,28.5,20,27.3,20,27.2z"/>
	<path class="st2" d="M23.2,29.1h1.7c0.2,0,0.4,0,0.5-0.1c0.2-0.1,0.4-0.3,0.4-0.5v-0.4c0-0.2-0.1-0.3-0.4-0.4
		c-0.2-0.1-0.3-0.1-0.5-0.1h-0.7c-0.2,0-0.3-0.1-0.4-0.2c0,0,0,0,0-0.1V27c0,0,0,0,0,0c0-0.1,0.1-0.2,0.3-0.2h1.7v-0.4h-1.6
		c-0.2,0-0.3,0-0.5,0c-0.3,0.1-0.5,0.3-0.5,0.6v0.3c0,0.3,0.3,0.5,0.8,0.5h0.2h0.6c0,0,0,0,0.1,0c0.2,0,0.3,0,0.3,0.1
		c0,0,0,0.1,0,0.1v0.3c0,0.1,0,0.1-0.1,0.1c-0.1,0.1-0.2,0.1-0.3,0.1h-1.7V29.1z"/>
	<path class="st2" d="M29.4,28.4c0,0.4,0.3,0.6,0.9,0.7h0.2H32v-0.4h-1.5c-0.3,0-0.5-0.1-0.5-0.3v-2h-0.6V28.4z"/>
	<path class="st2" d="M26.1,28.5v-1.4c0-0.4,0.3-0.6,0.7-0.6c0.1,0,0.1,0,0.2,0h1.1c0.1,0,0.1,0,0.2,0c0.5,0.1,0.7,0.3,0.7,0.6v1.4
		c0,0.2-0.1,0.5-0.3,0.5l0.6,0.5h-0.7l-0.5-0.4l-0.5,0H27c-0.1,0-0.2,0-0.3,0C26.3,29,26.1,28.8,26.1,28.5z M26.8,28.4
		C26.8,28.4,26.8,28.5,26.8,28.4c0,0.2,0.2,0.3,0.4,0.3h0.5l-0.5-0.4h0.7l0.4,0.4c0.1,0,0.1-0.1,0.1-0.2c0,0,0,0,0-0.1v-1.3
		c0,0,0,0,0-0.1c0-0.1-0.2-0.2-0.4-0.2h-0.9c-0.3,0-0.4,0.1-0.4,0.3L26.8,28.4z"/>
	<path class="st2" d="M26,24.7c-0.3,0-0.6,0-0.9,0.1c-0.1,0-0.2,0-0.2,0.1c0,0,0,0.1,0.1,0.1c0.1,0.1,0.1,0.2,0.2,0.3
		c0.1,0.1,0.2,0.1,0.3,0.2c0.2,0.1,0.4,0.2,0.5,0.3c0.1,0.1,0.2,0.1,0.3,0.2c0,0,0.1,0.1,0.1,0.1l0,0c0,0,0-0.1-0.1-0.1l-0.1-0.1
		c-0.1-0.2-0.3-0.3-0.5-0.4c-0.1-0.1-0.4-0.2-0.5-0.4l0,0c0.1,0,0.2,0,0.3-0.1c0.2,0,0.3,0,0.4-0.1l0.2-0.1v0
		c-0.1-0.1-0.1-0.2-0.2-0.3c-0.2-0.2-0.5-0.4-0.7-0.5c-0.1-0.1-0.3-0.1-0.5-0.2c-0.1,0-0.1,0-0.2-0.1c-0.1-0.1-0.1-0.2-0.2-0.3
		c-0.1-0.3-0.3-0.5-0.4-0.8c-0.1-0.2-0.1-0.3-0.2-0.5c-0.4-0.7-1-1.3-1.7-1.7c-0.2-0.1-0.4-0.1-0.6-0.2l-0.3,0
		c-0.1,0-0.1-0.1-0.2-0.2c-0.3-0.2-0.9-0.5-1.1-0.1c-0.1,0.3,0.2,0.6,0.3,0.7c0.1,0.1,0.2,0.2,0.2,0.3c0,0.1,0,0.2,0.1,0.2
		c0.1,0.2,0.1,0.4,0.2,0.6c0,0.1,0.1,0.2,0.2,0.3c0,0.1,0.1,0.1,0.1,0.2c0,0.1-0.1,0.2-0.1,0.3c-0.2,0.5-0.1,1,0.1,1.5
		c0.1,0.1,0.2,0.4,0.5,0.3s0.2-0.3,0.2-0.6c0-0.1,0-0.1,0-0.1l0,0l0.2,0.4c0.2,0.2,0.4,0.4,0.6,0.6c0.1,0.1,0.2,0.2,0.3,0.3l0,0l0,0
		c0,0-0.1-0.1-0.1-0.1c-0.1-0.1-0.2-0.2-0.2-0.3c-0.2-0.3-0.4-0.5-0.5-0.8c-0.1-0.1-0.1-0.3-0.2-0.4c0-0.1,0-0.1-0.1-0.2
		c-0.1,0.1-0.2,0.2-0.2,0.3c-0.1,0.2-0.1,0.4-0.1,0.7c0,0,0,0,0,0c-0.1,0-0.2-0.2-0.3-0.3C21,23.4,21,23,21.1,22.6
		c0-0.1,0.2-0.4,0.1-0.5c-0.1-0.1-0.1-0.1-0.2-0.2c-0.1-0.1-0.1-0.2-0.2-0.3c-0.1-0.3-0.2-0.5-0.3-0.8c-0.1-0.1-0.1-0.2-0.2-0.3
		c-0.1-0.1-0.2-0.2-0.3-0.3c0-0.1-0.1-0.1,0-0.2c0,0,0-0.1,0.1-0.1c0.1,0,0.2,0,0.3,0c0.2,0.1,0.3,0.1,0.4,0.2
		c0.1,0,0.1,0.1,0.2,0.2h0.1c0.1,0,0.3,0,0.4,0.1c0.2,0.1,0.4,0.2,0.6,0.3c0.6,0.4,1.1,0.9,1.4,1.5c0.1,0.1,0.1,0.2,0.1,0.3
		c0.1,0.2,0.2,0.4,0.3,0.6c0.1,0.2,0.2,0.4,0.3,0.6c0.1,0.1,0.3,0.1,0.5,0.2c0.1,0,0.2,0.1,0.3,0.1c0.2,0.1,0.3,0.2,0.4,0.3
		C25.7,24.5,25.9,24.6,26,24.7z"/>
	<path class="st2" d="M21.4,20.8c-0.1,0-0.1,0-0.2,0l0,0l0,0c0,0.1,0.1,0.1,0.1,0.2l0.1,0.2l0,0c0.1-0.1,0.1-0.1,0.1-0.2
		c0,0,0-0.1-0.1-0.1C21.5,20.9,21.5,20.9,21.4,20.8z"/>
	<g id="layer1-2">
		<path id="path3639" class="st2" d="M47.6,24.7l-2.4,0.8l-2.1,0.9l-0.6,0.2c-0.2,0.1-0.3,0.3-0.5,0.4c-0.2,0.2-0.4,0.3-0.5,0.4
			c-0.2,0.1-0.3,0.3-0.5,0.5c-0.1,0.2-0.3,0.4-0.3,0.6c-0.1,0.3-0.1,0.7,0.1,0.9c0.3,0.4,0.8,0.8,1.3,1c0.4,0.2,0.8,0.3,1.2,0.4
			c0.8,0.2,1.7,0.3,2.5,0.4c0.1,0,0.2,0,0.3,0c0.1-0.1,0.2-0.3,0.2-0.5c0.4-0.7,0.7-1.5,0.9-2.3c0.1-0.5,0.2-1,0.2-1.6
			c0-0.2,0-0.8,0-1c0-0.3,0-0.6-0.1-0.9c0,0,0-0.1,0-0.1c0.1,0,0.2-0.1,0.3-0.1L47.6,24.7L47.6,24.7z M47.1,25
			c0.1,0.3,0.1,0.6,0.1,0.9c0,0,0,0.1,0,0.1c0,0-0.3-0.2-0.5-0.3s-0.5-0.3-0.6-0.4c0,0,0,0,0.1-0.1C46.4,25.2,47,25,47.1,25L47.1,25
			z M45.8,25.4c0.1,0,0.1,0.1,0.2,0.1c0.4,0.2,0.7,0.4,1.1,0.6c0.1,0,0.1,0-0.1,0.1c-0.4,0.3-0.8,0.5-1.3,0.7L45.6,27
			c0,0,0-0.1,0-0.1c0.1-0.4,0.2-0.9,0.2-1.3C45.8,25.4,45.8,25.4,45.8,25.4L45.8,25.4L45.8,25.4z M45.6,25.5c0,0.2,0,0.4,0,0.5
			c0,0.3-0.1,0.5-0.2,0.8c0,0.1,0,0.1,0,0.1c-0.1-0.1-0.2-0.2-0.3-0.3c-0.1-0.1-0.2-0.3-0.3-0.5c0-0.1-0.1-0.2-0.1-0.2
			C44.6,25.9,45.6,25.5,45.6,25.5L45.6,25.5z M44.4,26L44.4,26C44.4,26,44.4,26,44.4,26c0.1,0.3,0.2,0.4,0.3,0.6
			c0.1,0.2,0.3,0.3,0.4,0.5l0.1,0.1c0,0,0,0-0.3,0.1c-0.3,0.1-0.7,0.3-1.2,0.4l-0.3,0.1c0,0,0,0,0-0.1c0.3-0.5,0.5-1,0.7-1.5
			C44.3,26.2,44.3,26.1,44.4,26C44.3,26,44.3,26,44.4,26C44.4,26,44.4,26,44.4,26L44.4,26z M44,26.2c-0.1,0.1-0.1,0.3-0.2,0.4
			c-0.2,0.3-0.4,0.7-0.6,1.1l-0.1,0.1c0,0,0,0,0,0c-0.1-0.1-0.1-0.3-0.1-0.4c0-0.2,0-0.4,0-0.5c0-0.1,0-0.1,0.1-0.1
			C43.2,26.5,44,26.1,44,26.2L44,26.2z M47.2,26.3L47.2,26.3c0,0.5,0,1-0.1,1.5c0,0.1,0,0.1,0,0.1l-0.1,0c-0.3-0.1-0.6-0.2-0.8-0.4
			c-0.1-0.1-0.3-0.2-0.4-0.3l0.2-0.1c0.3-0.2,0.7-0.4,1-0.6C46.9,26.5,47.1,26.3,47.2,26.3L47.2,26.3z M42.6,26.8
			C42.6,26.8,42.6,26.8,42.6,26.8c0,0.1,0,0.2,0,0.3c0,0.3,0,0.5,0.2,0.7c0,0.1,0.1,0.1,0.1,0.1c0,0-1.2,0.4-1.6,0.5L41,28.5
			c0,0,0,0,0,0c0.1-0.4,0.3-0.7,0.5-0.9c0.2-0.2,0.4-0.3,0.6-0.5C42.3,27,42.6,26.8,42.6,26.8L42.6,26.8L42.6,26.8z M45.5,27.3
			L45.5,27.3c0.5,0.3,1,0.5,1.5,0.6h0L47,28c-0.2,0.1-1,0.5-1.9,0.8l-0.3,0.1l0,0l0.1-0.1C45.1,28.3,45.3,27.9,45.5,27.3L45.5,27.3
			L45.5,27.3z M45.2,27.4C45.2,27.5,45.2,27.5,45.2,27.4c-0.2,0.5-0.4,1-0.7,1.4c-0.1,0.1-0.1,0.2-0.1,0.2L44.3,29
			c-0.4-0.2-0.7-0.5-1-0.8l0,0l0.2,0c0.5-0.1,1.1-0.3,1.6-0.6L45.2,27.4L45.2,27.4z M47,28.1L47,28.1c0,0-0.1,0.4-0.2,0.7
			c-0.1,0.2-0.1,0.4-0.2,0.7c0,0.1-0.1,0.3-0.1,0.3h0c-0.5-0.1-1-0.2-1.5-0.4c-0.1-0.1-0.3-0.1-0.3-0.1c0.1,0,0.2-0.1,0.2-0.1
			C45.8,28.7,46.6,28.3,47,28.1C46.9,28.1,47,28.1,47,28.1L47,28.1z M42.8,28.2c0,0-0.2,0.3-0.6,0.8L42,29.4c0,0.1-0.1,0.2-0.2,0.2
			l-0.1,0.1l-0.1-0.1c-0.1-0.1-0.2-0.2-0.3-0.3C41.1,29.2,41,29,41,28.8c0-0.1,0-0.1,0-0.1l1-0.2l0.7-0.2L42.8,28.2L42.8,28.2z
			 M43,28.3L43,28.3c0.3,0.3,0.6,0.6,0.9,0.8c0,0,0.1,0,0.1,0.1c0,0-1.1,0.4-1.7,0.6l-0.5,0.2l0,0l0,0l0.1-0.1
			c0.2-0.2,0.4-0.5,0.9-1.1L43,28.3L43,28.3z M44.5,29.3l0.2,0.1c0.2,0.1,0.5,0.2,0.7,0.2c0.3,0.1,0.7,0.1,1,0.2c0,0,0.1,0,0.1,0
			c0,0-0.3,0.1-0.5,0.2c-0.3,0.1-1.3,0.4-2.1,0.6l-0.3,0.1c0,0-0.1,0-0.1,0c0,0,0.1-0.1,0.1-0.1c0.3-0.3,0.5-0.7,0.7-1L44.5,29.3
			L44.5,29.3z M44.2,29.3c0,0-0.1,0.2-0.4,0.6l-0.2,0.4c0,0.1-0.1,0.1-0.1,0.2l-0.1,0.1h0c-0.1,0-0.5-0.2-0.7-0.2
			c-0.1-0.1-0.3-0.1-0.4-0.2c-0.1-0.1-0.2-0.1-0.3-0.2l0.6-0.2C43.3,29.6,43.8,29.5,44.2,29.3L44.2,29.3L44.2,29.3z M46.5,29.9
			L46.5,29.9c0,0-0.3,0.8-0.4,1.1c0,0.1,0,0.1,0,0.1c0,0-0.5-0.1-0.7-0.1c-0.5-0.1-1.2-0.2-1.4-0.2h0l0.3-0.1
			c0.6-0.1,0.9-0.2,1.2-0.3c0.4-0.1,0.7-0.3,1.1-0.4C46.4,29.9,46.4,29.9,46.5,29.9L46.5,29.9z"/>
		<path id="path3667" class="st2" d="M45.1,19c0,0-0.7,0.2-1.1,0.4c-0.4,0.2-0.9,0.4-1.3,0.6c-0.1,0.1-0.2,0.2-0.2,0.2
			c0,0,0,0,0,0.1l0.2,0.2l0.6,0.2l1.4,0.3l1.6,0.3l0-0.1h0l-0.2,0l0-0.1c-0.2-0.4-0.5-0.9-0.6-1.2c-0.1-0.2-0.2-0.5-0.3-0.7
			C45.1,19,45.1,19,45.1,19L45.1,19z M45.1,19.1L45.1,19.1c0,0,0,0.1,0,0.1c0,0.3,0.1,0.5,0.2,0.8c0.1,0.2,0.1,0.2,0,0.2
			c-0.2-0.1-1-0.2-1.6-0.3l-0.2,0c0,0,0.4-0.2,0.6-0.3C44.3,19.4,45,19.1,45.1,19.1L45.1,19.1z M43.3,19.9L43.3,19.9
			c0.7,0.2,1.3,0.3,2,0.4l0.1,0l-0.1,0.1c-0.3,0.1-0.5,0.3-0.7,0.4c0,0-0.1,0-0.1,0.1l-0.1,0l-0.1,0l-0.2-0.2
			C43.8,20.4,43.5,20.1,43.3,19.9L43.3,19.9z M43.2,20l0.3,0.3l0.3,0.4c0,0,0,0,0.1,0.1c0,0-0.4-0.1-0.6-0.1c-0.2,0-0.3-0.1-0.4-0.1
			l-0.1,0v0C42.8,20.4,43,20.2,43.2,20L43.2,20L43.2,20z M45.4,20.5C45.4,20.5,45.5,20.5,45.4,20.5c0.1,0.2,0.3,0.6,0.3,0.6
			c0,0,0,0-0.2,0c-0.6-0.1-0.8-0.1-0.8-0.1c0,0,0,0,0,0c0.2-0.1,0.4-0.2,0.6-0.4L45.4,20.5L45.4,20.5L45.4,20.5z"/>
		<path id="path2851" class="st2" d="M42.5,20.3c0,0.1,0,0.1,0,0.2c0,0.1,0.1,0.1,0.2,0.2c0,0,0.8,0.8,0.9,0.9
			c0.4,0.5,0.7,1.1,0.7,1.7c0,0.5-0.1,0.9-0.3,1.3c-0.4,0.8-1.2,1.8-2.4,2.8l0.2-0.1c0.2-0.1,0.4-0.3,0.7-0.4c1-0.5,2-1,3-1.4
			c2-0.7,4.1-1.3,6.2-1.7l0.2,0l0,0c-0.1-0.2-0.2-0.4-0.4-0.5c-0.4-0.4-0.8-0.8-1.3-1.1c-0.9-0.5-1.8-0.8-2.8-1
			c-0.2,0-0.7-0.1-1.1-0.2c-0.8-0.1-1.4-0.2-2-0.3c-0.2,0-0.5-0.1-0.8-0.1c-0.2,0-0.3-0.1-0.5-0.1C42.7,20.5,42.5,20.5,42.5,20.3
			L42.5,20.3z M43,20.8L43,20.8c0.1,0,0.2,0.1,0.3,0.1l0.2,0.1l0.2,0.1c0,0,0.2,0.6,0.3,0.8c0,0.1,0,0.2,0,0.2c0,0,0,0,0-0.1
			C43.7,21.5,43.4,21.1,43,20.8L43,20.8z M43.9,21C43.9,21,43.9,21,43.9,21c0.4,0.1,1,0.2,1.3,0.2c0,0,0.1,0,0.1,0c0,0,0,0-0.1,0
			c-0.1,0-0.3,0.2-0.4,0.2c-0.2,0.1-0.4,0.3-0.5,0.4l-0.1,0.1c0,0,0,0,0-0.1C44.1,21.7,44,21.4,43.9,21C43.9,21.1,43.9,21,43.9,21
			L43.9,21L43.9,21z M45.5,21.3c0,0.1,0.1,0.1,0.1,0.2c0.1,0.3,0.1,0.6,0.1,0.8c0,0.1,0,0.1,0,0.2v0l-0.1,0
			c-0.2-0.1-0.5-0.2-0.8-0.2c-0.2,0-0.3-0.1-0.3-0.1c0.1-0.1,0.2-0.2,0.3-0.3C45,21.7,45.2,21.5,45.5,21.3L45.5,21.3z M45.6,21.3
			c0,0,0.8,0.1,1.1,0.2c0.3,0,0.6,0.1,0.6,0.1c0,0,0,0-0.1,0.1c-0.4,0.2-0.8,0.4-1.2,0.7l-0.2,0.1c0,0,0-0.1,0-0.1
			C45.8,22,45.7,21.7,45.6,21.3C45.6,21.4,45.6,21.4,45.6,21.3L45.6,21.3z M47.5,21.7c0,0.1,0,0.2,0,0.2c-0.1,0.4-0.3,0.7-0.5,1.1
			c0,0,0,0.1-0.1,0.1c0,0-0.1,0-0.1-0.1c-0.2-0.1-0.5-0.3-0.7-0.4L46,22.7c0,0,0.6-0.4,0.9-0.6C47.1,21.9,47.5,21.7,47.5,21.7
			L47.5,21.7z M47.7,21.7c0,0,0.4,0.1,0.5,0.1c0.4,0.1,0.8,0.3,1.3,0.5l0.1,0.1l-0.1,0c-0.7,0.2-1.4,0.4-2.1,0.7l-0.1,0
			c0,0,0-0.1,0-0.1C47.5,22.6,47.6,22.2,47.7,21.7C47.7,21.8,47.7,21.8,47.7,21.7L47.7,21.7z M44.3,22.5c0,0,0.3,0.1,0.4,0.1
			c0.2,0.1,0.7,0.2,0.7,0.2l-0.1,0.1c-0.2,0.2-0.5,0.4-0.8,0.7c-0.1,0.1-0.2,0.1-0.2,0.1c0,0,0,0,0,0c0-0.4,0-0.7,0-1.1
			C44.4,22.6,44.4,22.6,44.3,22.5L44.3,22.5z M49.7,22.5c0,0-0.1,0.2-0.2,0.3c-0.1,0.2-0.3,0.4-0.6,0.8l-0.5,0.6l-0.1,0.2
			c0,0,0,0-0.1-0.1c-0.2-0.3-0.5-0.6-0.7-0.8l-0.1-0.1l0,0c0,0,0.3-0.1,0.6-0.2c0.4-0.2,1-0.4,1.4-0.5
			C49.5,22.6,49.7,22.5,49.7,22.5L49.7,22.5z M49.8,22.5c0,0,0.1,0,0.1,0.1c0.4,0.3,0.9,0.6,1.2,0.9c0.1,0.1,0.3,0.3,0.3,0.3l-0.2,0
			c-0.9,0.1-1.8,0.2-2.7,0.5l-0.1,0c0,0,0.1-0.1,0.2-0.2c0.5-0.4,0.8-0.9,1.1-1.5L49.8,22.5L49.8,22.5L49.8,22.5z M45.8,23
			c0,0,0.3,0.1,0.4,0.2c0.2,0.1,0.4,0.2,0.4,0.2s-0.1,0-0.2,0.1c-0.3,0.2-0.6,0.3-1,0.5l-0.2,0.1c0,0,0,0,0-0.1
			C45.5,23.7,45.7,23.4,45.8,23C45.7,23,45.8,23,45.8,23L45.8,23z M45.5,23c0,0.1-0.1,0.2-0.1,0.4c-0.1,0.3-0.2,0.5-0.3,0.7L45,24.3
			l0,0.1l-0.1-0.1c-0.1-0.1-0.2-0.2-0.3-0.3c0,0-0.1,0-0.1-0.1c0.2-0.2,0.4-0.3,0.5-0.5C45.2,23.3,45.5,23,45.5,23L45.5,23z
			 M47,23.6L47,23.6c0.3,0.2,0.5,0.4,0.7,0.5c0.1,0.1,0.3,0.3,0.3,0.3l0,0l-0.1,0c-0.8,0.2-1.5,0.4-2.3,0.7l-0.2,0.1
			c0,0,0,0,0.2-0.2C46.2,24.7,46.6,24.2,47,23.6L47,23.6z M46.6,23.7c0,0-0.2,0.4-0.4,0.6c-0.2,0.2-0.5,0.6-0.7,0.9
			c-0.1,0.1-0.2,0.2-0.2,0.2c0,0,0,0,0-0.1c0-0.2-0.1-0.5-0.2-0.7c0-0.1,0-0.1,0-0.1c0,0,0.6-0.3,0.9-0.5
			C46.3,23.9,46.6,23.7,46.6,23.7L46.6,23.7z M44.3,24.3C44.3,24.3,44.3,24.3,44.3,24.3c0.2,0.1,0.3,0.2,0.4,0.3
			c0,0-0.1,0.1-0.1,0.1c-0.2,0.1-0.4,0.3-0.6,0.4c-0.2,0.1-0.2,0.1-0.1,0.1c0.1-0.1,0.2-0.3,0.2-0.4C44.1,24.6,44.2,24.5,44.3,24.3
			C44.2,24.3,44.3,24.3,44.3,24.3L44.3,24.3z M44.9,24.8C44.9,24.8,44.9,24.8,44.9,24.8c0.2,0.3,0.2,0.4,0.3,0.6v0l-0.2,0.1
			c-0.5,0.2-0.9,0.3-1.2,0.5l-0.3,0.1l-0.2,0.1l0.1-0.1C43.9,25.8,44.4,25.3,44.9,24.8C44.9,24.8,44.9,24.8,44.9,24.8L44.9,24.8
			L44.9,24.8z M44.6,24.8c-0.1,0.1-0.2,0.3-0.3,0.4c-0.3,0.4-0.7,0.7-1.2,0.9L43,26.2c0,0,0,0,0.2-0.2c0.1-0.1,0.2-0.2,0.3-0.4
			c0-0.1,0.1-0.1,0.2-0.2C44,25.2,44.6,24.8,44.6,24.8z"/>
	</g>
	<g id="Layer_4_1_">
		<path class="st2" d="M67.9,20.5c-3.2,0-5.8,1.9-5.8,4.2c0,1.9,1.7,3.4,4,4v-1.4c-1-0.5-1.6-1.4-1.6-2.3c0-1.6,1.9-2.9,4.2-2.9
			s4.2,1.3,4.2,2.9c0,0.6-0.3,1.2-0.7,1.6v0.9c0.9-0.7,1.5-1.7,1.5-2.8C73.7,22.4,71.1,20.5,67.9,20.5z"/>
		<path class="st2" d="M71.8,27.8c-0.3-0.3-0.6-0.5-1-0.6c0,0,1.4-0.5,1.6-1.6c0.3-1-0.2-2-1.1-2.4c-0.1,0-0.1,0-0.2,0h-4.2v7.1h2
			v-2.9c0.3,0,0.6,0.2,0.8,0.6l1.2,2.3h2.3L71.8,27.8z M70.3,25.9h-1.5v-1.4h1.5c0.4,0.3,0.4,0.9,0.1,1.3
			C70.4,25.9,70.4,25.9,70.3,25.9L70.3,25.9z"/>
	</g>
	<path class="st2" d="M23.9,39.8h-1.8c-0.8,0-1.5,0.7-1.5,1.5l0,0l0,0v0.8h2.6v0.4h-3.9c-0.8,0-1.5,0.6-1.5,1.4v2
		c0,0.9,0.7,1.6,1.6,1.6l0,0h0.8v-1.2c0-0.8,0.7-1.5,1.5-1.5h0h2.8c0.5,0,1-0.4,1-1c0,0,0,0,0,0l0,0v-2.5
		C25.5,40.4,24.8,39.8,23.9,39.8C23.9,39.8,23.9,39.8,23.9,39.8z M21.7,41.3c-0.2,0-0.4-0.2-0.4-0.4c0-0.2,0.2-0.4,0.4-0.4
		s0.4,0.2,0.4,0.4C22.2,41.1,22,41.3,21.7,41.3L21.7,41.3z"/>
	<path class="st2" d="M22.2,50.2H24c0.8,0,1.5-0.7,1.5-1.5l0,0v-0.8h-2.6v-0.4h3.9c0.8,0,1.5-0.7,1.5-1.5v-1.9
		c0-0.9-0.7-1.6-1.6-1.6l0,0h-0.8v1.2c0,0.8-0.7,1.5-1.5,1.5c0,0,0,0,0,0h-2.8c-0.5,0-1,0.4-1,1c0,0,0,0,0,0l0,0v2.5
		C20.6,49.5,21.3,50.2,22.2,50.2L22.2,50.2L22.2,50.2z M24.4,48.7c0.2,0,0.4,0.2,0.4,0.4c0,0.2-0.2,0.4-0.4,0.4s-0.4-0.2-0.4-0.4
		C23.9,48.9,24.1,48.7,24.4,48.7L24.4,48.7z"/>
	
		<ellipse transform="matrix(0.9952 -9.827768e-02 9.827768e-02 0.9952 -3.9525 4.7423)" class="st2" cx="46.2" cy="42.5" rx="3.4" ry="0.9"/>
	
		<ellipse transform="matrix(0.9952 -9.827768e-02 9.827768e-02 0.9952 -4.3294 4.7578)" class="st2" cx="46.1" cy="46.3" rx="3.4" ry="0.9"/>
	<path class="st2" d="M49.6,38.8c0,0-0.4,1.2-6.9,1.7v2.7c0,0,6-0.2,6.9-1.8L49.6,38.8z"/>
	<path class="st2" d="M49.6,42c0,0-0.5,1.5-7,2v2.7c0,0,6-0.2,6.9-1.8L49.6,42z"/>
	<path class="st2" d="M49.6,45.9c0,0-0.4,1.2-6.9,1.6v2.7c0,0,6-0.2,6.9-1.8L49.6,45.9z"/>
	<g id="Layer_3_1_">
		<path class="st2" d="M29.3,71.5H18c-0.3,0-0.5-0.2-0.5-0.5V59.7c0-0.3,0.2-0.5,0.5-0.5h11.2c0.3,0,0.5,0.2,0.5,0.5V71
			C29.8,71.3,29.6,71.5,29.3,71.5z"/>
	</g>
	<g id="Layer_2_1_">
		<polygon class="st3" points="22.1,61.5 21.2,61.5 21,61.6 21,68.7 21.2,68.9 22.1,68.9 22.3,68.7 22.3,61.7 		"/>
		<polygon class="st3" points="25.7,61.5 22.5,64.7 22.5,65.9 26.9,61.8 26.7,61.6 		"/>
		<polygon class="st3" points="23.9,64.9 27,68.6 26.9,68.9 25.8,68.9 23,65.6 		"/>
	</g>
	<path class="st2" d="M73.7,44.5l1.1,0.4c0,0,0.6,0.1,0.6-0.5l-0.8-1.5l1.2-1.3c0,0,0-0.1,0.1-0.1c0-0.2,0.1-0.5-0.4-0.5
		c0,0,0,0,0,0l-1.7,0.4l-0.6-1.1c0,0,0,0-0.1-0.1c-0.1-0.1-0.5-0.4-0.8,0.1c0,0,0,0.1,0,0.1L72,41.9l-1.5,0.5c0,0-0.7,0.3-0.1,0.8
		l1.1,0.6l0.7-0.4c0,0-1.1-0.5-1-0.5c0,0,1.5-0.4,1.5-0.4s0.3-1.4,0.3-1.4l0.7,1.1l1.5-0.4l-1,1.2l0.6,1.3l-1.1-0.3L73.7,44.5z"/>
	<path class="st2" d="M63.1,44c0,0-0.4-0.8-1.4-0.6c0,0-1,0.2-0.9,1c0,0,0,0.6,0.5,1l0.5,0.6c0,0,0.3,0.3,0,0.6c0,0-0.4,0.4-0.8,0
		l-0.2-0.3l-0.7,0.4c0,0,0.1,0.6,1,0.8c0,0,0.8,0.1,1.3-0.5c0,0,0.5-0.6,0.3-1.1c0,0-0.2-0.5-0.8-1c0,0-0.6-0.5-0.2-0.8
		c0,0,0.4-0.4,0.8,0.3L63.1,44z"/>
	<path class="st2" d="M67.9,44.4c0,0-0.9,0-1.4,1c0,0-0.5,0.7,0,1.6c0,0,0.6,0.8,1.7,0.4l0.1-0.8c0,0-0.6,0.6-1.2,0.1
		c0,0-0.5-0.3-0.1-1c0,0,0.4-0.6,1.1-0.5c0,0,0.5,0,0.6,0.6l-0.2,1.6l0.6,0l0.2-1.7C69.4,45.7,69.5,44.5,67.9,44.4z"/>
	<path class="st2" d="M71.2,44.5l-0.6,0c0,0-0.6,0-0.8,0.7c0,0-0.3,2.2-0.3,2.2c0,0,0.7,0,0.7,0l0.3-2.1c0,0,0-0.2,0.3-0.2l0.3,0
		L71.2,44.5z"/>
	<path class="st2" d="M72.4,43.5L71.6,44l-0.4,3.4l0.7,0l0.2-1.6c0,0,1,1.6,1.1,1.6s0.9,0,0.9,0l-1.4-1.9l0.8-0.9l-0.1-0.7l-1.2,1.1
		L72.4,43.5z"/>
	<path class="st2" d="M64.9,44.4c0,0-1.2-0.2-1.8,1.1c0,0-0.1,0.2-0.1,0.3l-0.3,2.5l0.6,0l0.2-1.1c0,0,0.7,0.5,1.6,0.1
		c0,0,0.9-0.5,1-1.4C66,45.9,66.2,44.7,64.9,44.4z M65.4,46.2c-0.1,0.5-0.7,0.8-1.1,0.7c-0.5-0.1-0.7-0.7-0.6-1.2
		c0.1-0.5,0.7-0.8,1.1-0.7C65.3,45.2,65.5,45.7,65.4,46.2z"/>
	<polygon class="st2" points="38.9,59.9 44.8,59.9 47.6,62.9 47.1,63.4 48.2,64.6 48.2,66.7 45.8,64.6 45.2,65.2 47.5,67.6 
		45.3,67.6 44,66.3 43.5,67 40.5,64.1 40.5,62.5 42.1,62.5 42.1,63.3 43.5,64.7 45.3,62.8 44.1,61.6 40.5,61.6 	"/>
	<polygon class="st2" points="48.9,61.7 47.8,62.8 49.1,64.2 49.1,67.6 50.8,67.6 50.8,63.6 	"/>
	<path class="st2" d="M50.8,68.5c0,0,1.7,1.6,1.6,1.6c-0.1,0-8.2,0-8.2,0l-1.9-1.9l1.2-1.2l1.3,1.4L50.8,68.5z"/>
</g>
</svg>
