<?xml version="1.0" encoding="utf-8"?>
<!-- Generator: Adobe Illustrator 23.0.3, SVG Export Plug-In . SVG Version: 6.00 Build 0)  -->
<svg version="1.1" xmlns="http://www.w3.org/2000/svg" xmlns:xlink="http://www.w3.org/1999/xlink" x="0px" y="0px"
	 viewBox="0 0 90 90" style="enable-background:new 0 0 90 90;" xml:space="preserve">
<style type="text/css">
	.st0{fill:#FFFFFF;stroke:#D2D3D4;stroke-miterlimit:10;}
	.st1{fill:#FFFFFF;stroke:#F79421;stroke-width:0.75;stroke-miterlimit:10;}
	.st2{fill:#F79421;}
	.st3{fill:#FFFFFF;stroke:#F79421;stroke-width:0.5;stroke-miterlimit:10;}
</style>
<g id="Layer_1">
	<g>
		<path class="st0" d="M77,87.8H14.5c-6.3,0-11.4-5.1-11.4-11.4V13.8c0-6.3,5.1-11.4,11.4-11.4H77c6.3,0,11.4,5.1,11.4,11.4v62.5
			C88.5,82.7,83.3,87.8,77,87.8z"/>
	</g>
</g>
<g id="Layer_2">
	<path class="st1" d="M65.1,75.4h-33c-1.7,0-3-1.4-3-3V53.4c0-1.7,1.4-3,3-3h33c1.7,0,3,1.4,3,3v18.9C68.2,74,66.8,75.4,65.1,75.4z"
		/>
	<path class="st1" d="M54.3,50.2H42.2V47c0-0.6,0.5-1.1,1.1-1.1h10c0.6,0,1.1,0.5,1.1,1.1V50.2z"/>
	<polyline class="st1" points="33,56.7 33,69.8 50.6,69.8 	"/>
	<polyline class="st1" points="36.6,67.2 40.3,62.7 43.1,65 47.7,60.2 	"/>
	<path class="st2" d="M45.9,58.8c0.1,0.1,3.2,3,3.2,3l0.3-3.3L45.9,58.8z"/>
	
		<rect x="74.8" y="25" transform="matrix(-1 -4.460844e-11 4.460844e-11 -1 157.0413 57.3664)" class="st3" width="7.4" height="7.4"/>
	
		<rect x="57.5" y="17.6" transform="matrix(-1 -4.459378e-11 4.459378e-11 -1 129.4112 49.6031)" class="st3" width="14.5" height="14.5"/>
	
		<rect x="65.3" y="34.9" transform="matrix(-1 -4.499968e-11 4.499968e-11 -1 140.9652 80.1759)" class="st3" width="10.4" height="10.4"/>
	<path class="st1" d="M57.2,55.7c0,0-1.5,0.8-1,3.5c0,0-0.8,0-0.5,1.2c0,0,0.2,1.2,0.9,1.3c0,0,0.4,2.3,2.5,2.6c0,0,2.9,0.4,3.1-2.6
		c0,0,0.4,0,0.7-0.8c0,0,0.5-1.6-0.3-1.5c0,0,0.8-3-1-3.2c0,0-0.7-1.4-2.3-1c0,0-1.9,0.1-2.5-0.4C56.7,54.8,56.7,55.3,57.2,55.7z"/>
	<path class="st1" d="M61.8,65l-1.4,4.5l-0.7-1.7c0.4-0.1,0.7-0.5,0.7-1c0-0.6-0.5-1.1-1.1-1.1c-0.6,0-1.1,0.5-1.1,1.1
		c0,0.5,0.3,0.8,0.7,1l-0.6,1.5L57,65l-4,1.8l-0.1,3.1c0,0,6,4,13,0v-3.1L61.8,65z"/>
	<polygon class="st3" points="59.1,21.5 60.5,22.9 59.1,24.3 60.4,24.3 61.9,22.9 60.6,21.5 	"/>
	<polygon class="st3" points="61.3,21.5 63.1,21.5 64.3,22.9 62.9,24.3 61.3,24.3 62.5,23 	"/>
	<polygon class="st3" points="63.8,21.6 69.2,21.6 70.6,22.8 69.3,24.2 63.7,24.2 65.1,22.9 	"/>
	<polygon class="st3" points="59,25.3 60.4,26.7 59,28.1 60.2,28.1 61.8,26.7 60.5,25.3 	"/>
	<polygon class="st3" points="61.2,25.3 62.9,25.3 64.1,26.7 62.7,28.1 61.2,28.1 62.3,26.9 	"/>
	<polygon class="st3" points="63.7,25.3 69.1,25.3 70.5,26.6 69.1,28 63.5,28 64.9,26.7 	"/>
	<circle class="st3" cx="68.1" cy="38.8" r="0.9"/>
	<circle class="st3" cx="71.6" cy="38.2" r="1.1"/>
	<circle class="st3" cx="71" cy="41.3" r="0.5"/>
	<circle class="st3" cx="68.1" cy="42.7" r="0.9"/>
	<circle class="st3" cx="73.8" cy="41" r="0.5"/>
	<g>
		<rect x="9.3" y="24.6" class="st3" width="8.6" height="8.6"/>
		<rect x="21.2" y="16" class="st3" width="16.9" height="16.9"/>
		<rect x="16.9" y="36.2" class="st3" width="12.1" height="12.1"/>
		<rect x="26.5" y="19.7" class="st3" width="3.8" height="7.2"/>
		<rect x="26.5" y="27" class="st3" width="3.8" height="2.8"/>
		<line class="st3" x1="32.8" y1="22.5" x2="32.8" y2="20.6"/>
		<line class="st3" x1="28.3" y1="19.7" x2="28.3" y2="17.8"/>
		<line class="st3" x1="32.8" y1="27.5" x2="32.8" y2="25.6"/>
		<rect x="30.4" y="22.5" class="st3" width="4.6" height="2.4"/>
		<rect x="30.4" y="24.9" class="st3" width="4.6" height="1.5"/>
		<line class="st3" x1="28.3" y1="30.8" x2="28.3" y2="29.9"/>
		<rect x="10.7" y="27.4" class="st3" width="3" height="0.7"/>
		<rect x="10.6" y="29" class="st3" width="4" height="0.7"/>
		<rect x="10.6" y="30.7" class="st3" width="5.4" height="0.7"/>
		<path class="st3" d="M22.4,42.6l-0.1-2.6C21,40.1,20,41.2,20,42.6c0,1.5,1.2,2.7,2.7,2.7c0.6,0,1.1-0.2,1.6-0.5
			C23.6,44,22.4,42.6,22.4,42.6z"/>
		<path class="st3" d="M23.1,39.3v2.6h2.5C25.6,41.8,25.6,39.4,23.1,39.3z"/>
		<path class="st3" d="M23.4,42.7l1.7,1.7c0,0,0.7-0.6,0.7-1.7H23.4z"/>
	</g>
	<polygon class="st3" points="76.7,27.3 80.6,27.3 78.7,30.6 	"/>
</g>
</svg>
