<svg xmlns="http://www.w3.org/2000/svg" width="21.132" height="20.727" viewBox="0 0 21.132 20.727">
  <g id="Group_1344" data-name="Group 1344" transform="translate(-538.317 -11.136)">
    <path id="Path_1984" data-name="Path 1984" d="M27.678,36.55H21.361L19.3,39.911h5.656a6.623,6.623,0,0,1,3.961-1.491Z" transform="translate(521.625 -19.891)" fill="#434344"/>
    <path id="Path_1985" data-name="Path 1985" d="M5.541,61.89,3.43,65.327H9.3a6.624,6.624,0,0,1,1.565-3.437Z" transform="translate(534.887 -41.065)" fill="#434344"/>
    <path id="Path_1986" data-name="Path 1986" d="M38.061,5.517,35.316,1.39,32.78,5.517Z" transform="translate(510.705 10.333)" fill="none"/>
    <g id="Group_785" data-name="Group 785" transform="translate(544.932 16.659)">
      <ellipse id="Ellipse_771" data-name="Ellipse 771" cx="6.266" cy="6.266" rx="6.266" ry="6.266" transform="translate(0 2.673)" fill="#434344"/>
      <path id="Path_1987" data-name="Path 1987" d="M92.38,49.849l1.814-8.939s5.745.472,6.383,5.887Z" transform="translate(-86.06 -40.91)" fill="#fff"/>
      <path id="Path_1989" data-name="Path 1989" d="M92.38,47.818l1.4-6.908s4.44.364,4.933,4.549Z" transform="translate(-85.129 -39.895)" fill="#434344"/>
    </g>
    <path id="Path_1990" data-name="Path 1990" d="M2712.746-552.822l-2.933,4.719h5.944Z" transform="translate(-2166.659 563.958)" fill="#434344"/>
  </g>
</svg>
