<svg id="Group_1441" data-name="Group 1441" xmlns="http://www.w3.org/2000/svg" xmlns:xlink="http://www.w3.org/1999/xlink" width="152.751" height="175.548" viewBox="0 0 152.751 175.548">
  <defs>
    <clipPath id="clip-path">
      <rect id="Rectangle_5352" data-name="Rectangle 5352" width="152.751" height="175.548" fill="none"/>
    </clipPath>
  </defs>
  <g id="Group_1420" data-name="Group 1420">
    <g id="Group_1419" data-name="Group 1419" clip-path="url(#clip-path)">
      <path id="Path_2906" data-name="Path 2906" d="M399.572,375.367l7.513.777a.668.668,0,0,1,.548.921l-2.8,6.729a.668.668,0,0,1-.617.411h-7.4a.668.668,0,0,1-.629-.893l2.685-7.506a.668.668,0,0,1,.7-.44" transform="translate(-255.615 -242.202)" fill="#dd6530"/>
      <path id="Path_2907" data-name="Path 2907" d="M401.494,375.507l7.513.777a.668.668,0,0,1,.548.921l-2.8,6.729a.668.668,0,0,1-.617.411h-7.4a.668.668,0,0,1-.629-.893l2.685-7.506a.668.668,0,0,1,.7-.44" transform="translate(-256.855 -242.293)" fill="#f88149"/>
      <path id="Path_2908" data-name="Path 2908" d="M414.347,387.478a.562.562,0,1,1-.408-.683.562.562,0,0,1,.408.683" transform="translate(-266.641 -249.568)" fill="#eaf3f8"/>
      <path id="Path_2909" data-name="Path 2909" d="M219.137,250.486H163.791a7.257,7.257,0,0,1-7.236-7.236V127.975a7.257,7.257,0,0,1,7.236-7.236h55.346a7.257,7.257,0,0,1,7.236,7.236V243.251a7.257,7.257,0,0,1-7.236,7.236" transform="translate(-101.017 -77.907)" fill="#1f98db"/>
      <path id="Path_2910" data-name="Path 2910" d="M217.846,249.906H162.5a7.954,7.954,0,0,1-7.945-7.945V126.685a7.954,7.954,0,0,1,7.945-7.945h55.346a7.954,7.954,0,0,1,7.945,7.945V241.961a7.954,7.954,0,0,1-7.945,7.945M162.5,120.159a6.533,6.533,0,0,0-6.526,6.526V241.961a6.533,6.533,0,0,0,6.526,6.526h55.346a6.533,6.533,0,0,0,6.526-6.526V126.685a6.533,6.533,0,0,0-6.526-6.526Z" transform="translate(-99.726 -76.617)" fill="#244089"/>
      <path id="Path_2911" data-name="Path 2911" d="M188.124,181.419l10.066-29.357,9.784,15.575,9.955,4.489,9.844-4.888,9.75,12.414v1.793Z" transform="translate(-121.386 -98.118)" fill="#3c4aaa"/>
      <path id="Path_2912" data-name="Path 2912" d="M188.124,192.683l9.962-23.2,9.842,14,9.679,4.62,10.013-6.93,9.8,9.679v1.833Z" transform="translate(-121.386 -109.356)" fill="#ff912b"/>
      <path id="Path_2913" data-name="Path 2913" d="M188.124,219.891l9.849-8.245,20.316,5.955,9.453-1.44,9.565,2.663v1.067Z" transform="translate(-121.386 -136.564)" fill="#5aecf9"/>
      <path id="Path_2914" data-name="Path 2914" d="M251.5,134.087H241.369a.877.877,0,0,1,0-1.754H251.5a.877.877,0,0,1,0,1.754" transform="translate(-155.177 -85.388)" fill="#10294c"/>
      <path id="Path_2915" data-name="Path 2915" d="M247.119,471.421h-1.561a.931.931,0,0,1-.928-.928v-1.561a.931.931,0,0,1,.928-.929h1.561a.931.931,0,0,1,.928.929v1.561a.931.931,0,0,1-.928.928" transform="translate(-157.846 -301.978)" fill="#edeef2"/>
      <path id="Rectangle_5302" data-name="Rectangle 5302" d="M1.709,0h0A1.709,1.709,0,0,1,3.418,1.709v0A1.709,1.709,0,0,1,1.709,3.418h0A1.709,1.709,0,0,1,0,1.71v0A1.709,1.709,0,0,1,1.709,0Z" transform="translate(86.783 166.025)" fill="none" stroke="#244089" stroke-miterlimit="10" stroke-width="1"/>
      <rect id="Rectangle_5303" data-name="Rectangle 5303" width="54.21" height="0.107" transform="translate(64.331 121.877)" fill="#eff0f0"/>
      <rect id="Rectangle_5304" data-name="Rectangle 5304" width="4.248" height="13.911" transform="translate(65.712 107.717)" fill="#124ca3"/>
      <rect id="Rectangle_5305" data-name="Rectangle 5305" width="4.248" height="13.911" transform="translate(65.712 107.717)" fill="#124ca3"/>
      <rect id="Rectangle_5306" data-name="Rectangle 5306" width="4.248" height="5.841" transform="translate(65.712 102.514)" fill="#00a0f0"/>
      <rect id="Rectangle_5307" data-name="Rectangle 5307" width="4.248" height="5.841" transform="translate(65.712 102.514)" fill="#ff912b"/>
      <rect id="Rectangle_5308" data-name="Rectangle 5308" width="4.248" height="1.911" transform="translate(65.712 100.602)" fill="#00bcd4"/>
      <rect id="Rectangle_5309" data-name="Rectangle 5309" width="4.248" height="1.911" transform="translate(65.712 100.602)" fill="#5aecf9"/>
      <rect id="Rectangle_5310" data-name="Rectangle 5310" width="4.248" height="7.858" transform="translate(72.402 113.77)" fill="#124ca3"/>
      <rect id="Rectangle_5311" data-name="Rectangle 5311" width="4.248" height="7.858" transform="translate(72.402 113.77)" fill="#124ca3"/>
      <rect id="Rectangle_5312" data-name="Rectangle 5312" width="4.248" height="5.841" transform="translate(72.402 108.673)" fill="#00a0f0"/>
      <rect id="Rectangle_5313" data-name="Rectangle 5313" width="4.248" height="5.841" transform="translate(72.402 108.673)" fill="#ff912b"/>
      <rect id="Rectangle_5314" data-name="Rectangle 5314" width="4.248" height="1.911" transform="translate(72.402 107.08)" fill="#00bcd4"/>
      <rect id="Rectangle_5315" data-name="Rectangle 5315" width="4.248" height="1.911" transform="translate(72.402 107.08)" fill="#5aecf9"/>
      <rect id="Rectangle_5316" data-name="Rectangle 5316" width="4.248" height="2.761" transform="translate(79.092 118.867)" fill="#124ca3"/>
      <rect id="Rectangle_5317" data-name="Rectangle 5317" width="4.248" height="2.761" transform="translate(79.092 118.867)" fill="#124ca3"/>
      <rect id="Rectangle_5318" data-name="Rectangle 5318" width="4.248" height="3.823" transform="translate(79.092 115.894)" fill="#00a0f0"/>
      <rect id="Rectangle_5319" data-name="Rectangle 5319" width="4.248" height="3.823" transform="translate(79.092 115.894)" fill="#ff912b"/>
      <rect id="Rectangle_5320" data-name="Rectangle 5320" width="4.248" height="1.911" transform="translate(79.092 114.938)" fill="#00bcd4"/>
      <rect id="Rectangle_5321" data-name="Rectangle 5321" width="4.248" height="1.911" transform="translate(79.092 114.938)" fill="#5aecf9"/>
      <rect id="Rectangle_5322" data-name="Rectangle 5322" width="4.248" height="7.858" transform="translate(85.888 113.77)" fill="#124ca3"/>
      <rect id="Rectangle_5323" data-name="Rectangle 5323" width="4.248" height="7.858" transform="translate(85.888 113.77)" fill="#124ca3"/>
      <rect id="Rectangle_5324" data-name="Rectangle 5324" width="4.248" height="2.973" transform="translate(85.888 111.115)" fill="#00a0f0"/>
      <rect id="Rectangle_5325" data-name="Rectangle 5325" width="4.248" height="2.973" transform="translate(85.888 111.115)" fill="#ff912b"/>
      <rect id="Rectangle_5326" data-name="Rectangle 5326" width="4.248" height="5.31" transform="translate(85.888 106.337)" fill="#00bcd4"/>
      <rect id="Rectangle_5327" data-name="Rectangle 5327" width="4.248" height="5.31" transform="translate(85.888 106.337)" fill="#5aecf9"/>
      <rect id="Rectangle_5328" data-name="Rectangle 5328" width="4.248" height="5.416" transform="translate(92.578 116.213)" fill="#124ca3"/>
      <rect id="Rectangle_5329" data-name="Rectangle 5329" width="4.248" height="5.416" transform="translate(92.578 116.213)" fill="#124ca3"/>
      <rect id="Rectangle_5330" data-name="Rectangle 5330" width="4.248" height="9.132" transform="translate(92.578 107.717)" fill="#00a0f0"/>
      <rect id="Rectangle_5331" data-name="Rectangle 5331" width="4.248" height="9.132" transform="translate(92.578 107.717)" fill="#ff912b"/>
      <rect id="Rectangle_5332" data-name="Rectangle 5332" width="4.248" height="7.646" transform="translate(92.578 100.602)" fill="#00bcd4"/>
      <rect id="Rectangle_5333" data-name="Rectangle 5333" width="4.248" height="7.646" transform="translate(92.578 100.602)" fill="#5aecf9"/>
      <rect id="Rectangle_5334" data-name="Rectangle 5334" width="4.248" height="3.823" transform="translate(99.375 117.805)" fill="#124ca3"/>
      <rect id="Rectangle_5335" data-name="Rectangle 5335" width="4.248" height="3.823" transform="translate(99.375 117.805)" fill="#124ca3"/>
      <rect id="Rectangle_5336" data-name="Rectangle 5336" width="4.248" height="7.646" transform="translate(99.375 112.071)" fill="#00a0f0"/>
      <rect id="Rectangle_5337" data-name="Rectangle 5337" width="4.248" height="7.646" transform="translate(99.375 112.071)" fill="#ff912b"/>
      <rect id="Rectangle_5338" data-name="Rectangle 5338" width="4.248" height="3.08" transform="translate(99.375 109.204)" fill="#00bcd4"/>
      <rect id="Rectangle_5339" data-name="Rectangle 5339" width="4.248" height="3.08" transform="translate(99.375 109.204)" fill="#5aecf9"/>
      <rect id="Rectangle_5340" data-name="Rectangle 5340" width="4.248" height="5.31" transform="translate(106.064 116.319)" fill="#124ca3"/>
      <rect id="Rectangle_5341" data-name="Rectangle 5341" width="4.248" height="5.31" transform="translate(106.064 116.319)" fill="#124ca3"/>
      <rect id="Rectangle_5342" data-name="Rectangle 5342" width="4.248" height="7.115" transform="translate(106.064 109.204)" fill="#00a0f0"/>
      <rect id="Rectangle_5343" data-name="Rectangle 5343" width="4.248" height="7.115" transform="translate(106.064 109.204)" fill="#ff912b"/>
      <rect id="Rectangle_5344" data-name="Rectangle 5344" width="4.248" height="4.248" transform="translate(106.064 105.806)" fill="#00bcd4"/>
      <rect id="Rectangle_5345" data-name="Rectangle 5345" width="4.248" height="4.248" transform="translate(106.064 105.806)" fill="#5aecf9"/>
      <rect id="Rectangle_5346" data-name="Rectangle 5346" width="4.248" height="2.655" transform="translate(112.967 118.973)" fill="#124ca3"/>
      <rect id="Rectangle_5347" data-name="Rectangle 5347" width="4.248" height="2.655" transform="translate(112.967 118.973)" fill="#124ca3"/>
      <rect id="Rectangle_5348" data-name="Rectangle 5348" width="4.248" height="12.637" transform="translate(112.967 106.337)" fill="#00a0f0"/>
      <rect id="Rectangle_5349" data-name="Rectangle 5349" width="4.248" height="12.637" transform="translate(112.967 106.337)" fill="#ff912b"/>
      <rect id="Rectangle_5350" data-name="Rectangle 5350" width="4.248" height="5.947" transform="translate(112.967 100.602)" fill="#00bcd4"/>
      <rect id="Rectangle_5351" data-name="Rectangle 5351" width="4.248" height="5.947" transform="translate(112.967 100.602)" fill="#5aecf9"/>
      <path id="Path_2916" data-name="Path 2916" d="M252.138,419.1h-.022V408.889h.022v.04l9.523,2.91a9.817,9.817,0,0,1-1.331,2.9,9.85,9.85,0,0,1-8.192,4.362" transform="translate(-162.677 -263.835)" fill="#5aecf9"/>
      <path id="Path_2917" data-name="Path 2917" d="M252.117,391.6v-9.569a9.88,9.88,0,0,1,9.523,12.479Z" transform="translate(-162.678 -246.502)" fill="#124ca3"/>
      <path id="Path_2918" data-name="Path 2918" d="M227.791,399.383h0c-.187-.161-.37-.331-.544-.5a9.866,9.866,0,0,1,6.957-16.85v9.552Z" transform="translate(-144.765 -246.503)" fill="#ff912b"/>
      <path id="Path_2919" data-name="Path 2919" d="M240.451,419.143a9.953,9.953,0,0,1-1.967-.2,9.821,9.821,0,0,1-3.53-1.485,9.966,9.966,0,0,1-.917-.7l6.413-7.8Z" transform="translate(-151.013 -263.876)" fill="#00bcd4"/>
    </g>
  </g>
  <g id="Group_1422" data-name="Group 1422">
    <g id="Group_1421" data-name="Group 1421" clip-path="url(#clip-path)">
      <path id="Path_2920" data-name="Path 2920" d="M224.723,170.849a.833.833,0,0,0-.149.89.008.008,0,0,0,0,0,5.535,5.535,0,0,0,1.749,1.919c.105.085.2.162.281.234l.063.056.048.044c.769.708.48.871,1.86,2.308,1.574,1.638,2.659,1.668,2.967,1.519.261-.127-.269-1-.856-1.973l-.085-.142c-.078-.13-.156-.262-.234-.392-.688-1.175-.512-1.727-.348-3.476.133-1.421,2.212-7.941,2.212-7.941l-3.018-.52s-.909,5.191-1.91,5.991c-.536.426-1.135.432-1.649.747-.037.022-.072.045-.107.068a3.955,3.955,0,0,0-.826.663" transform="translate(-144.864 -105.421)" fill="#ffae73"/>
      <path id="Path_2921" data-name="Path 2921" d="M224.723,183.228a.833.833,0,0,0-.149.89.008.008,0,0,0,0,0,6.405,6.405,0,0,0,1.751,1.912c.1.086.2.166.278.24l.063.056.048.044c.769.708.48.871,1.86,2.308,1.574,1.638,2.659,1.668,2.967,1.519.261-.127-.269-1-.856-1.973a6.713,6.713,0,0,1-2.807-2.068c-.914-1.166-1.534-2.651-2.155-3.564l-.177-.033a3.955,3.955,0,0,0-.826.663" transform="translate(-144.864 -117.8)" fill="#1e3865"/>
      <path id="Path_2922" data-name="Path 2922" d="M289.306,167.294c.186.932,1.514.776,3,.414s1.131.068,3.241-.165,2.751-1.021,2.815-1.335c.058-.279-.986-.377-2.1-.506-.141-.016-.282-.033-.424-.05-1.263-.159-2.188-.974-3.336-1.643-1.087-.634-2.709-3.218-2.709-3.218l-2.9.23s1.519,2.307,2.107,3.311a3.5,3.5,0,0,1,.284,1.973,3.723,3.723,0,0,0,.022.99" transform="translate(-185.117 -103.75)" fill="#ffae73"/>
      <path id="Path_2923" data-name="Path 2923" d="M296.613,176.641c1.483-.363,1.131.068,3.242-.165s2.75-1.021,2.815-1.335c.057-.278-.986-.377-2.1-.506l-.01.021a5.949,5.949,0,0,1-3.023.94c-1.432.035-2.949-.375-3.938-.359a3.717,3.717,0,0,0,.022.99c.186.932,1.514.776,3,.414" transform="translate(-189.426 -112.684)" fill="#1e3865"/>
      <path id="Path_2924" data-name="Path 2924" d="M244.357,118.5l-2.706,7.282-3.533,9.509a5.72,5.72,0,0,1-1.877-.172,8.145,8.145,0,0,1-1.815-.883s.981-10.21,2.811-16.071a10.432,10.432,0,0,1,1.575-3.406c2.837-3.353,5.546,3.741,5.546,3.741" transform="translate(-151.262 -73.468)" fill="#0476af"/>
      <path id="Path_2925" data-name="Path 2925" d="M207.053,91.694c-1.54-.5-5.56-.008-9.92.782a2.957,2.957,0,0,1-3.053-1.379l-10.972-.857s-3.621,8.029-1.638,13.145a1.924,1.924,0,0,0,1.917,1.237h0s6.63.009,8.751.009c5.456,0,11.548-3.751,12.336-3.908,1.29-.258,1.806,2.321,3.1,5.03s12.124,12,12.124,12a9.536,9.536,0,0,0,2.353-.241,2.317,2.317,0,0,0,1.01-.638s-12.005-23.885-16-25.175" transform="translate(-116.71 -58.227)" fill="#0079c4"/>
      <path id="Path_2926" data-name="Path 2926" d="M182.316.65A3.894,3.894,0,0,0,180.22.1a5.849,5.849,0,0,1-1.012-.061c-4.188-.614-6.71,5.469-6.857,7.306-.271,3.374-2.056,3.889-4.569,6-5.038,4.237-3.561,9.161-.806,10.99,1.653,1.1,4.566,0,4.566,0,.041.029,7.967-4.431,11.875-6.582,5.858-.833,1.252-15.709-1.1-17.11" transform="translate(-106.112 0)" fill="#10294c"/>
      <path id="Path_2927" data-name="Path 2927" d="M198.958,33.726a5.166,5.166,0,0,1-3.219.1,5.742,5.742,0,0,1-2.126-2.548c.555-.026,1.164-.511,1.634-3.695l.237.085,3.974,1.43s-.288,1.275-.474,2.489c-.157,1.019-.241,2-.024,2.14" transform="translate(-124.928 -17.797)" fill="#ffae73"/>
      <path id="Path_2928" data-name="Path 2928" d="M202.859,29.251s-.159.688-.39,1.973a4.487,4.487,0,0,1-3.584-3.4Z" transform="translate(-128.33 -17.951)" fill="#f9924f"/>
      <path id="Path_2929" data-name="Path 2929" d="M202.727,18.024s-5.437-.73-4.93-4.108.146-5.749,3.639-5.426,3.973,1.713,4.078,2.882-1.359,6.755-2.786,6.652" transform="translate(-127.606 -5.459)" fill="#ffae73"/>
      <path id="Path_2930" data-name="Path 2930" d="M202.476,8.978s-3.48,3-5.848,3.241-3.264-.518-3.264-.518A9.246,9.246,0,0,0,195.6,8.673a1.665,1.665,0,0,1,1.373-.981c1.69-.146,4.895-.213,5.5,1.286" transform="translate(-124.768 -4.917)" fill="#10294c"/>
      <path id="Path_2931" data-name="Path 2931" d="M212.917,9.507a8.571,8.571,0,0,1,1.531,1.961,6.585,6.585,0,0,1,.178,3.5s1.814-3.527.787-5.241a1.45,1.45,0,0,0-2.5-.218" transform="translate(-137.384 -5.715)" fill="#10294c"/>
      <path id="Path_2932" data-name="Path 2932" d="M195.05,48.223c-.164,11.005-.045,8.706-1.249,9.75a4.622,4.622,0,0,1-2.179.472c-3.374.224-9.307-.332-9.533-.956-.778-2.158-.229-2.828-.878-6.132-.067-.352-.151-.732-.25-1.146-.541-2.269-1.069-3.041.853-6.686,1.742-3.3,3.552-5.983,3.715-5.886,4.6,2.728,4.967.435,4.967.435s4.635,4.78,4.554,10.148" transform="translate(-116.442 -24.285)" fill="#8ee3ff"/>
      <path id="Path_2933" data-name="Path 2933" d="M241.651,133.616l-3.533,9.509a5.72,5.72,0,0,1-1.877-.172,8.139,8.139,0,0,1-1.815-.884s.981-10.209,2.811-16.07Z" transform="translate(-151.262 -81.301)" fill="#0079c4"/>
      <path id="Path_2934" data-name="Path 2934" d="M208.75,38.868s4.73.8,5.285,2.838,2.384,14.4,2.384,14.4-1.334,1.3-2.444.192-3.5-11.564-3.5-11.564Z" transform="translate(-134.695 -25.079)" fill="#8ee3ff"/>
      <path id="Path_2935" data-name="Path 2935" d="M192.989,75.064c-3.375.224-9.307-.332-9.533-.956-.778-2.158-.229-2.828-.878-6.132l1.628-4.583s-.269,5.1,1.236,6.446,6.163,2.591,6.894,3.713a4.106,4.106,0,0,1,.653,1.512" transform="translate(-117.808 -40.904)" fill="#99d4ea"/>
      <path id="Path_2936" data-name="Path 2936" d="M201.026,89.3s3.329-.741,3.866-.446a7.819,7.819,0,0,1,2.015,1.746c.164.374-1.2-.285-1.639-.4a3.934,3.934,0,0,0-1.414.31,4.7,4.7,0,0,1-2.534.254Z" transform="translate(-129.712 -57.29)" fill="#ffae73"/>
      <path id="Path_2937" data-name="Path 2937" d="M175.124,37.637s-4.471.275-6.018,2.434c-2.179,3.038-6.5,15.987-4.023,17.714,2.789,1.945,12.694.509,12.694.509a4.025,4.025,0,0,0-.129-2.286c-.459-.745-7.911-1.949-8.255-2.293s4.3-6.707,4.3-7.739,1.432-8.338,1.432-8.338" transform="translate(-106.039 -24.285)" fill="#8ee3ff"/>
      <path id="Path_2938" data-name="Path 2938" d="M212.379,91.6a6.435,6.435,0,0,0,.926,1.007.681.681,0,0,0,.376.081l-.47-.846Z" transform="translate(-137.037 -59.102)" fill="#ffae73"/>
      <path id="Path_2939" data-name="Path 2939" d="M211.925,88.984l2.028.985a.361.361,0,0,1-.336.13,4.837,4.837,0,0,1-.88-.242Z" transform="translate(-136.744 -57.417)" fill="#ffae73"/>
      <path id="Path_2940" data-name="Path 2940" d="M222.211,95.511H201.026v.468h21Z" transform="translate(-129.711 -61.628)" fill="#10294c"/>
      <path id="Path_2941" data-name="Path 2941" d="M214.99,75h16.044l4.826-12H219.841Z" transform="translate(-138.722 -40.65)" fill="#10294c"/>
      <path id="Path_2942" data-name="Path 2942" d="M245.964,78.524a.556.556,0,0,0-.545-.764,1.1,1.1,0,0,0-.983.764.556.556,0,0,0,.545.764,1.1,1.1,0,0,0,.983-.764" transform="translate(-157.702 -50.174)" fill="#e8f2fa"/>
    </g>
  </g>
  <g id="Group_1424" data-name="Group 1424">
    <g id="Group_1423" data-name="Group 1423" clip-path="url(#clip-path)">
      <path id="Path_2943" data-name="Path 2943" d="M19.205,473.468a5,5,0,0,0,2.33,1.186c.02,0,0,.065,0,.065a22.748,22.748,0,0,0-.118,3.678s.917,1.8,2.211,1.941c0,0,.345.4-1.683.313a2.85,2.85,0,0,1-2.049-1.23l-.992-2.157-1.258-1.7a.657.657,0,0,1-.09-.617,2.363,2.363,0,0,1,1.65-1.48" transform="translate(-11.302 -305.504)" fill="#1c3a6c"/>
      <path id="Path_2944" data-name="Path 2944" d="M71.935,483.094v2.4s.108.878,1.494.97l6.277.286s.108-.779-.952-.953c0,0-2.879-.714-3.4-1.364s-.151-.151-.151-.151l-.325-1.6" transform="translate(-46.416 -311.45)" fill="#1c3a6c"/>
      <path id="Path_2945" data-name="Path 2945" d="M22.807,469.262l-.236,1.84,1.964.845.077-.375.42-1.241Z" transform="translate(-14.564 -302.79)" fill="#f7b480"/>
      <path id="Path_2946" data-name="Path 2946" d="M87.557,281.874l4.223,5.1s.109.619,1.565-.4l7.39-6.043s1.42.473,1.384,1.092c0,0-3.822,7.244-7.427,10.63,0,0-2.293,2.439-6.735-.182Z" transform="translate(-56.496 -181.009)" fill="#8ee3ff"/>
      <path id="Path_2947" data-name="Path 2947" d="M125.322,274s-.44-.055-.55,1.87l-.067,1.155,1.383,1.092,1.3-1.092s.785-3.08-1.34-1.98c0,0-.558.55-.558-1.045" transform="translate(-80.466 -176.798)" fill="#fdb382"/>
      <path id="Path_2948" data-name="Path 2948" d="M129.646,267.1l-3.822,4.505,1.911,1.681,3.7-4.537Z" transform="translate(-81.188 -172.348)" fill="#25418b"/>
      <path id="Path_2949" data-name="Path 2949" d="M31.284,341.548s-1.66,14.85-3.659,18.466a9.737,9.737,0,0,1-1.829,3.4,27.708,27.708,0,0,0-3.234,12.339L20.712,386.7l3.307,1.743,4.117-7.8s5.446-9.7,7.829-16.849c0,0,7.413-16.769,7.919-19.787Z" transform="translate(-13.364 -220.383)" fill="#0079c4"/>
      <path id="Path_2950" data-name="Path 2950" d="M59.51,369.829,61.382,385.4l2.17,10.041s2.936.851,3.489-.3c0,0,.3-2.6.894-3.064l1.447-23.232,1.261-20.746-6.24-1.039Z" transform="translate(-38.399 -223.944)" fill="#0079c4"/>
      <path id="Path_2951" data-name="Path 2951" d="M70.155,362.638l-9.616,16.594-.511-6.382,8.85-21.96h1.915Z" transform="translate(-38.733 -226.411)" fill="#0476af"/>
      <path id="Path_2952" data-name="Path 2952" d="M62.172,246.047l-1.722,4.1s1.746,2.071,5.8,1.629l-.558-1.21.023-3.282Z" transform="translate(-39.005 -158.761)" fill="#f7b480"/>
      <path id="Path_2953" data-name="Path 2953" d="M65.216,246.047c.243.681,1.025,2.056,3.509,3.181l.014-1.953Z" transform="translate(-42.08 -158.761)" fill="#f59652"/>
      <path id="Path_2954" data-name="Path 2954" d="M68.556,229.962s.559,7.587-2.3,7.076c0,0-2.746.6-3.631-1.792l-.349-1.712-.116-2.059s3.887-4.049,6.4-1.513" transform="translate(-40.106 -147.844)" fill="#f7b480"/>
      <path id="Path_2955" data-name="Path 2955" d="M61.338,225s.465-1.932,3.538-1.513c0,0,2.164.931,1.908-3.165,0,0-.256-2.188-3.864-1.536,0,0-4.049-.442-4.468,3.631,0,0-.28,3.5,1.443,4.566l.023-1.215s-.023-2.071,1.42-.768" transform="translate(-37.705 -141.095)" fill="#294984"/>
      <path id="Path_2956" data-name="Path 2956" d="M54.194,265.818l-5.206,6.808-.255,13.142c.983,1.274,4.987,2.257,4.987,2.257,7.281.874,10.266-.291,10.266-.291l-.51-20.969c-.473-7.79-5.242-11.04-5.242-11.04a9.074,9.074,0,0,1-5.57-1.848l-2.292,4.285a.4.4,0,0,0,.2.562c1.131.474,4.125,2.2,3.621,7.093" transform="translate(-31.445 -163.814)" fill="#8ee3ff"/>
      <path id="Path_2957" data-name="Path 2957" d="M36.355,266.2l-6,11.7a23.85,23.85,0,0,0-2.367,7.039l-.91,6.649a2.412,2.412,0,0,0,3.276,1.238l2.876-10.375,8.264-9.32s-.81-8.274-5.142-6.927" transform="translate(-17.474 -171.67)" fill="#8ee3ff"/>
      <path id="Path_2958" data-name="Path 2958" d="M53.711,288.665s1.2,12.742-4.259,17.183V295.072Z" transform="translate(-31.909 -186.26)" fill="#99d4ea"/>
      <path id="Path_2959" data-name="Path 2959" d="M6.933,352.762l12.3,2.021a2.419,2.419,0,0,1,1.651,2.789l-.74,5.978s-.2,1.793-2.619,1.822L6.193,363.55a2.874,2.874,0,0,1-2.334-2.306l.37-5.921s.712-2.5,2.7-2.562" transform="translate(-2.49 -227.619)" fill="#202f50"/>
      <path id="Path_2960" data-name="Path 2960" d="M3.074,352.762l12.3,2.021a2.419,2.419,0,0,1,1.651,2.789l-.74,5.978s-.2,1.793-2.619,1.822L2.334,363.55A2.874,2.874,0,0,1,0,361.245l.37-5.921s.712-2.5,2.7-2.562" transform="translate(0 -227.619)" fill="#314687"/>
      <path id="Path_2961" data-name="Path 2961" d="M27.178,351.945v-1.831a.272.272,0,0,0-.249-.271l-3.92-.331a.3.3,0,0,0-.324.279l-.1,1.542.377.057.087-1.208a.3.3,0,0,1,.327-.276l3.2.308a.272.272,0,0,1,.246.274l-.017,1.457Z" transform="translate(-14.574 -225.521)" fill="#314687"/>
      <path id="Path_2962" data-name="Path 2962" d="M27.694,340.9s.541,2.3-.192,3.2c0,0-.926,1.624-2.375,1.135a1.138,1.138,0,0,1,.471-1.624s-.262-1.868.559-2.252l.1-.89Z" transform="translate(-16.102 -219.686)" fill="#fcb281"/>
    </g>
  </g>
  <g id="Group_1426" data-name="Group 1426">
    <g id="Group_1425" data-name="Group 1425" clip-path="url(#clip-path)">
      <path id="Path_2963" data-name="Path 2963" d="M345.705,376.941l-1.012,5s3.305,3.126,5.36,1.549l-.447-.328.119-3.96a3.782,3.782,0,0,1-4.02-2.263" transform="translate(-222.412 -243.22)" fill="#fbb381"/>
    </g>
  </g>
  <g id="Group_1428" data-name="Group 1428">
    <g id="Group_1427" data-name="Group 1427" clip-path="url(#clip-path)">
      <path id="Path_2964" data-name="Path 2964" d="M348.89,379.817s1.169,3.387,3.264,3.03v-1.5s-2.4-.031-3.264-1.528" transform="translate(-225.121 -245.076)" fill="#e99a61"/>
    </g>
  </g>
  <g id="Group_1430" data-name="Group 1430">
    <g id="Group_1429" data-name="Group 1429" clip-path="url(#clip-path)">
      <path id="Path_2965" data-name="Path 2965" d="M351.837,359.986a6.654,6.654,0,0,1,1.251,4.347s-.149,4.943-2.59,4.258c0,0-2.859-.03-3.9-1.965l-.268-.208-.208-2.1v-.94Z" transform="translate(-223.333 -232.28)" fill="#fbb381"/>
    </g>
  </g>
  <g id="Group_1432" data-name="Group 1432">
    <g id="Group_1431" data-name="Group 1431" clip-path="url(#clip-path)">
      <path id="Path_2966" data-name="Path 2966" d="M337.168,353.2s-.54,2.9-4.947,3.328c0,0,.63,5.891-1.124,6.791,0,0-4.543-.63-4.992,2.654l-.337,4.79a8.072,8.072,0,0,1-.579-8.592,7.306,7.306,0,0,1,1.965-2.352,14.429,14.429,0,0,0,1.608-5.538s.03-5.449,5.33-5.627c0,0,5.509.119,6.372,6.372,0,0-.476,3.543.714,5.568,0,0,2.412,4.139.387,5.836,0,0-3.216-2.055-5.33-1.519l.03-3.454s1.936.268,2.144-2.055c0,0,1.906-4.347-.685-6.223Z" transform="translate(-209.221 -224.969)" fill="#183c5c"/>
    </g>
  </g>
  <g id="Group_1434" data-name="Group 1434">
    <g id="Group_1433" data-name="Group 1433" clip-path="url(#clip-path)">
      <path id="Path_2967" data-name="Path 2967" d="M331.31,389.359s2.1,3.7,5.7,2.036a5.945,5.945,0,0,1,4.348,1.548,1.84,1.84,0,0,1-1.608,1.906l-5.568-1.757s-1.429,3.427-3.811,3.857l6.223,1.771s-11.024,13.69-12.344,21.117c0,0,.914-6.4,2.061-8.574,0,0,1.389-2.339.423-6.664,0,0-2.254-12.711.292-14.194a5.146,5.146,0,0,1,4.285-1.045" transform="translate(-209.221 -251.153)" fill="#8ee3ff"/>
      <path id="Path_2968" data-name="Path 2968" d="M336.244,409.721s4.512,5,6.435,4.354l1.654-2.137-6.223-1.771Z" transform="translate(-216.961 -264.372)" fill="#99d4ea"/>
    </g>
  </g>
  <g id="Group_1436" data-name="Group 1436">
    <g id="Group_1435" data-name="Group 1435" clip-path="url(#clip-path)">
      <path id="Path_2969" data-name="Path 2969" d="M403.414,480.333s1.1,2.423,2.535,2.9c0,0,2.62.551,2.986,1.909h-7.493s-.9.26-.507-1.824l.338-1.352Z" transform="translate(-258.638 -309.934)" fill="#0d2645"/>
      <path id="Path_2970" data-name="Path 2970" d="M352.266,413s-20.054,22.856-9.744,26.852h7.367l3.607-13.24s5.213,9.847,8.341,10.542a3.52,3.52,0,0,0,2.665-2.606,41.9,41.9,0,0,1-3.591-14.829s.595-13.793-7.154-8.5a4.1,4.1,0,0,0-1.262,1.376Z" transform="translate(-219.11 -264.556)" fill="#0476af"/>
      <path id="Path_2971" data-name="Path 2971" d="M386.993,480.256s1.1,2.423,2.535,2.9c0,0,2.619.551,2.986,1.909h-7.493s-.9.26-.507-1.825l.338-1.352Z" transform="translate(-248.043 -309.884)" fill="#12385f"/>
      <path id="Path_2972" data-name="Path 2972" d="M335.787,413.48s-19.681,22.938-9.37,26.935l6.782-.063,3.818-13.259s5.213,9.847,8.341,10.542a3.52,3.52,0,0,0,2.665-2.606,41.9,41.9,0,0,1-3.591-14.829s.595-13.793-7.154-8.5a4.1,4.1,0,0,0-1.262,1.376Z" transform="translate(-208.692 -264.867)" fill="#0079c4"/>
      <line id="Line_390" data-name="Line 390" x2="140.389" transform="translate(10.264 175.302)" fill="none" stroke="#141414" stroke-miterlimit="10" stroke-width="1"/>
    </g>
  </g>
  <g id="Group_1438" data-name="Group 1438">
    <g id="Group_1437" data-name="Group 1437" clip-path="url(#clip-path)">
      <path id="Path_2973" data-name="Path 2973" d="M369.643,399.975l5.425,2.951,3.962-.976,6.86-.029-5.825,2.957s-2.07,1.065-3.519.532-.207,0-.207,0l-8.25-3.785Z" transform="translate(-237.509 -258.083)" fill="#ffab7e"/>
      <path id="Path_2974" data-name="Path 2974" d="M424.529,391.039s-1.123-1.124-1.094.562l.547,2.779s.932-.325.991-2.543Z" transform="translate(-273.22 -252.08)" fill="#ffab7e"/>
    </g>
  </g>
  <g id="Group_1440" data-name="Group 1440">
    <g id="Group_1439" data-name="Group 1439" clip-path="url(#clip-path)">
      <path id="Path_2975" data-name="Path 2975" d="M341.079,397.7l6.642,1.8s4.182,1.28,7.494-.672l7.925-4.82s6.151.207,3.815-1.8l-2.247-.651s.739-1.567-.414-.946l-2.809,1.715-9.266,3.371-7.2-1.746Z" transform="translate(-220.081 -251.945)" fill="#fbb381"/>
    </g>
  </g>
</svg>
