<svg id="Group_1418" data-name="Group 1418" xmlns="http://www.w3.org/2000/svg" xmlns:xlink="http://www.w3.org/1999/xlink" width="386.624" height="235.871" viewBox="0 0 386.624 235.871">
  <defs>
    <clipPath id="clip-path">
      <rect id="Rectangle_5301" data-name="Rectangle 5301" width="386.624" height="235.871" fill="none"/>
    </clipPath>
    <clipPath id="clip-path-2">
      <rect id="Rectangle_5264" data-name="Rectangle 5264" width="386.624" height="235.872" fill="none"/>
    </clipPath>
    <clipPath id="clip-path-4">
      <rect id="Rectangle_5267" data-name="Rectangle 5267" width="32.126" height="39.415" fill="none"/>
    </clipPath>
    <clipPath id="clip-path-5">
      <rect id="Rectangle_5265" data-name="Rectangle 5265" width="16.982" height="33.543" fill="none"/>
    </clipPath>
    <clipPath id="clip-path-6">
      <rect id="Rectangle_5266" data-name="Rectangle 5266" width="32.126" height="37.357" fill="none"/>
    </clipPath>
    <clipPath id="clip-path-7">
      <rect id="Rectangle_5270" data-name="Rectangle 5270" width="39.469" height="10.946" fill="none"/>
    </clipPath>
    <clipPath id="clip-path-18">
      <rect id="Rectangle_5284" data-name="Rectangle 5284" width="0.001" height="0.005" fill="none"/>
    </clipPath>
    <clipPath id="clip-path-19">
      <rect id="Rectangle_5285" data-name="Rectangle 5285" width="1.332" height="3.341" fill="none"/>
    </clipPath>
    <clipPath id="clip-path-20">
      <rect id="Rectangle_5286" data-name="Rectangle 5286" width="1.663" height="0.451" fill="none"/>
    </clipPath>
    <clipPath id="clip-path-21">
      <rect id="Rectangle_5287" data-name="Rectangle 5287" width="3.849" height="1.894" fill="none"/>
    </clipPath>
    <clipPath id="clip-path-22">
      <rect id="Rectangle_5288" data-name="Rectangle 5288" width="1.095" height="0.996" fill="none"/>
    </clipPath>
    <clipPath id="clip-path-23">
      <rect id="Rectangle_5289" data-name="Rectangle 5289" width="2.505" height="1.028" fill="none"/>
    </clipPath>
    <clipPath id="clip-path-24">
      <rect id="Rectangle_5290" data-name="Rectangle 5290" width="0.523" height="0.37" fill="none"/>
    </clipPath>
    <clipPath id="clip-path-25">
      <rect id="Rectangle_5291" data-name="Rectangle 5291" width="0.191" height="0.614" fill="none"/>
    </clipPath>
    <clipPath id="clip-path-26">
      <rect id="Rectangle_5292" data-name="Rectangle 5292" width="1.394" height="2.383" fill="none"/>
    </clipPath>
    <clipPath id="clip-path-27">
      <rect id="Rectangle_5293" data-name="Rectangle 5293" width="2.317" height="3.279" fill="none"/>
    </clipPath>
  </defs>
  <g id="Group_1417" data-name="Group 1417" clip-path="url(#clip-path)">
    <g id="Group_1346" data-name="Group 1346" transform="translate(0 0)">
      <g id="Group_1345" data-name="Group 1345" clip-path="url(#clip-path-2)">
        <path id="Path_2675" data-name="Path 2675" d="M496.1,235.521c-21.582,0-335.973.077-336.155-.486l-.031-.071a.381.381,0,0,1-.031-.1c-.12-.281-48.441-79.321,26.68-134.344,29.392-21.529-1.839-35.741,21.533-59.709,26.861-27.542,56.175,2.926,86.044-9.563a48,48,0,0,0,15.874-11.2C322.307,7.43,339.175,1.594,356.592.284c33.374-2.494,70.933,11.536,90.315,32.042,3.9,4.129,21.647,25.5,7.659,54.863-8.832,18.542,28.166,36.251,41.313,57.424,33.426,53.832.521,90.205.217,90.907" transform="translate(-124.236 0.003)" fill="#ebf3fa"/>
      </g>
    </g>
    <g id="Group_1360" data-name="Group 1360" transform="translate(0 0)">
      <g id="Group_1359" data-name="Group 1359" clip-path="url(#clip-path-2)">
        <g id="Group_1355" data-name="Group 1355" transform="translate(90.975 53.754)" opacity="0.5">
          <g id="Group_1354" data-name="Group 1354">
            <g id="Group_1353" data-name="Group 1353" clip-path="url(#clip-path-4)">
              <g id="Group_1349" data-name="Group 1349" transform="translate(13.867)" opacity="0.5">
                <g id="Group_1348" data-name="Group 1348">
                  <g id="Group_1347" data-name="Group 1347" clip-path="url(#clip-path-5)">
                    <path id="Path_2676" data-name="Path 2676" d="M765.443,417.283s-2.448-20.508-12.957-32.746a2.294,2.294,0,0,0-4.025,1.552q0,.054,0,.108c.136,3.658,11.9,19.09,16.978,31.086" transform="translate(-748.461 -383.74)" fill="#aec3ff"/>
                  </g>
                </g>
              </g>
              <g id="Group_1352" data-name="Group 1352" transform="translate(0 2.058)" opacity="0.5">
                <g id="Group_1351" data-name="Group 1351">
                  <g id="Group_1350" data-name="Group 1350" clip-path="url(#clip-path-6)">
                    <path id="Path_2677" data-name="Path 2677" d="M681.594,435.787s-10.472-25.633-28.358-36.97a2.433,2.433,0,0,0-3.3.624,3.86,3.86,0,0,0-.156,3.467c1.425,4.509,21.373,19.685,31.812,32.879" transform="translate(-649.468 -398.431)" fill="#aec3ff"/>
                  </g>
                </g>
              </g>
            </g>
          </g>
        </g>
        <path id="Path_2678" data-name="Path 2678" d="M1773.432,472.526s-9.377-5.773-4.6-12.882c0,0,3.769-4.331,7.656-5.324,0,0-2.5,10.794-.461,11.135s1.916-12.228,1.916-12.228,10.312-4.445,14.264-3.9c0,0-6.711,10.363-4.653,10.192s9.542-10.631,9.542-10.631,10.447-1.491,11.856,4.721-1.405,9.173-2.957,9.493-11.4-.215-11.2,1.075,6.774,3.614,10.533,2.615c0,0-4.514,9.941-9.868,9.207s-6.88-4.131-10.2-4.525-5.786.4-4.159,1.366,7.283.6,9.876,2.992,4.711,3.894-.323,4.711-13.966-.193-15.6-4.107Z" transform="translate(-1519.896 -385.876)" fill="#82b378"/>
        <path id="Path_2679" data-name="Path 2679" d="M1822.117,495.864s-27.237,7.591-30.711,17.191a20.44,20.44,0,0,1-2.946,9.237l-.08,1.92s3.086-6.411,4.659-7.243c0,0-5.666-8.7,29.078-21.1" transform="translate(-1537.869 -426.404)" fill="#82b378"/>
        <path id="Path_2680" data-name="Path 2680" d="M1771.136,677.5a17.741,17.741,0,0,0-2.359,13.882l1.078-.242s-.686-8.482,1.658-12.636-.377-1-.377-1" transform="translate(-1520.546 -581.617)" fill="#82b378"/>
        <path id="Path_2681" data-name="Path 2681" d="M1438.84,285.189s-15.746,1.393-16.337-10.893c0,0,.626-8.219,4.25-12.695,0,0,6.379,14.57,9.017,13.216s-8.279-15.723-8.279-15.723,8.062-13.96,13.082-16.717c0,0,1.159,17.687,3.382,15.725s1.872-20.423,1.872-20.423,10.75-10.673,17.7-4.729,6.247,11.766,4.735,13.466-13.312,9.528-11.972,10.84,10.9-1.647,14.37-6.02c0,0,3.327,15.317-3.468,19.062s-11.464,1.143-15.621,3.534-6.318,5.423-3.617,5.139,8.9-5.559,13.937-5.024,8.763.445,3.667,5.7-16.247,11.753-21.483,8.646Z" transform="translate(-1223.243 -198.77)" fill="#a8d29f"/>
        <path id="Path_2682" data-name="Path 2682" d="M1556.776,287.649s-24.853,32.094-20.622,46.127a29.336,29.336,0,0,1,4.528,13.162l1.555,2.279s-1.944-10.027-.846-12.334c0,0-13.98-5.155,15.386-49.233" transform="translate(-1320.557 -247.356)" fill="#a8d29f"/>
        <path id="Path_2683" data-name="Path 2683" d="M1571.452,696.054a25.471,25.471,0,0,0,9.186,18.007l1.034-1.2s-8.062-9.178-8.926-15.972-1.295-.832-1.295-.832" transform="translate(-1351.328 -596.472)" fill="#a8d29f"/>
        <path id="Path_2684" data-name="Path 2684" d="M470.29,1415.6s-4.411-5.145-.272-8.413c0,0,3.023-1.83,5.488-1.682,0,0-3.493,5.857-2.363,6.439s3.421-6.806,3.421-6.806,6.879-.667,9.092.4c0,0-5.881,4.812-4.642,5.1s7.59-4.437,7.59-4.437,6.4,1.089,6.061,4.995-2.547,5.112-3.517,5.008-6.641-2.269-6.765-1.474,3.291,3.391,5.681,3.512c0,0-4.514,4.978-7.514,3.541s-3.256-3.714-5.126-4.568-3.466-.852-2.694.019,4.156,1.718,5.226,3.609,2.029,3.168-1.075,2.7-8.149-2.738-8.37-5.339Z" transform="translate(-402.656 -1208.13)" fill="#bbd0ff"/>
        <path id="Path_2685" data-name="Path 2685" d="M480.306,1450.188s-17.389-.67-21.23,4.3a12.577,12.577,0,0,1-3.463,4.86l-.407,1.11s3.013-3.177,4.092-3.37c0,0-1.686-6.161,21.008-6.9" transform="translate(-391.442 -1247.024)" fill="#bbd0ff"/>
        <path id="Path_2686" data-name="Path 2686" d="M433.609,1513.1a10.92,10.92,0,0,0-3.992,7.693l.677.061s1.192-5.1,3.347-7.094-.032-.659-.032-.659" transform="translate(-369.438 -1300.773)" fill="#bbd0ff"/>
        <path id="Path_2687" data-name="Path 2687" d="M214.77,1323.365s7.016-3.929,3.742-9.261c0,0-2.619-3.274-5.426-4.116,0,0,1.5,7.951,0,8.138s-1.029-8.98-1.029-8.98-7.39-3.554-10.29-3.274c0,0,4.584,7.764,3.087,7.577s-6.642-8.045-6.642-8.045-7.577-1.4-8.793,3.087.748,6.735,1.871,7.016,8.325.187,8.138,1.123-5.051,2.432-7.764,1.59c0,0,2.993,7.39,6.922,7.016s5.145-2.806,7.577-2.993,4.209.468,2.993,1.123-5.332.214-7.3,1.885-3.555,2.7.094,3.447,10.2.281,11.506-2.526Z" transform="translate(-162.556 -1122.369)" fill="#aec3ff"/>
        <path id="Path_2688" data-name="Path 2688" d="M216.484,1338.734s19.644,6.361,21.889,13.47a14.922,14.922,0,0,0,1.871,6.829v1.4s-2.058-4.771-3.181-5.426c0,0,4.4-6.174-20.58-16.276" transform="translate(-186.16 -1151.208)" fill="#aec3ff"/>
        <path id="Path_2689" data-name="Path 2689" d="M380.344,1478.286a12.956,12.956,0,0,1,1.3,10.2l-.779-.209s.757-6.168-.828-9.27.306-.721.306-.721" transform="translate(-326.259 -1270.461)" fill="#aec3ff"/>
        <path id="Path_2690" data-name="Path 2690" d="M415.108,1249.2s-9.248-5.179-4.932-12.208c0,0,3.453-4.316,7.152-5.426,0,0-1.973,10.481,0,10.728s1.356-11.838,1.356-11.838,9.741-4.686,13.564-4.316c0,0-6.042,10.234-4.069,9.988s8.755-10.6,8.755-10.6,9.988-1.85,11.591,4.069-.986,8.878-2.466,9.248-10.974.247-10.728,1.48,6.659,3.206,10.235,2.1c0,0-3.946,9.741-9.125,9.248s-6.782-3.7-9.988-3.946-5.549.617-3.946,1.48,7.029.283,9.618,2.484,4.686,3.558-.123,4.544-13.441.37-15.167-3.329Z" transform="translate(-351.733 -1053.618)" fill="#d2e0ff"/>
        <path id="Path_2691" data-name="Path 2691" d="M466.146,1269.455s-25.895,8.385-28.854,17.756a19.671,19.671,0,0,1-2.466,9v1.85s2.713-6.289,4.193-7.152c0,0-5.8-8.138,27.128-21.456" transform="translate(-373.917 -1091.633)" fill="#d2e0ff"/>
        <path id="Path_2692" data-name="Path 2692" d="M419.98,1453.41a17.079,17.079,0,0,0-1.717,13.446l1.027-.276s-1-8.13,1.092-12.22-.4-.95-.4-.95" transform="translate(-359.071 -1248.831)" fill="#d2e0ff"/>
        <path id="Path_2693" data-name="Path 2693" d="M339,1559.535a18.115,18.115,0,0,0,18.116-18.115H320.881A18.116,18.116,0,0,0,339,1559.535" transform="translate(-275.933 -1325.502)" fill="#c0d4ff"/>
        <path id="Path_2694" data-name="Path 2694" d="M355.827,1663.606H319.1a2.235,2.235,0,0,1,2.235-2.235h32.262a2.235,2.235,0,0,1,2.235,2.235" transform="translate(-274.397 -1428.651)" fill="#c0d4ff"/>
        <rect id="Rectangle_5268" data-name="Rectangle 5268" width="37.239" height="0.556" transform="translate(44.352 215.918)" fill="#86a2e2"/>
        <path id="Path_2695" data-name="Path 2695" d="M1282.185,940.644l-8.106,96.388s-.849,5.843,3.5,5.853c7.146.017,35.567,0,35.567,0s-5.378-1.216-5.313-3.953c.077-3.226,9.475-99.2,9.475-99.2Z" transform="translate(-1095.552 -808.097)" fill="#798ee8"/>
        <path id="Path_2696" data-name="Path 2696" d="M1330.16,1030.141c-1.405,0-28.921.051-35.88-.038-3.033-.038-3.565-2.7-3.59-4.417a8.6,8.6,0,0,1,.092-1.435l.211-2.505.537-6.385.474-5.642.61-7.249.514-6.119,5.76-68.491,35.12-.911s-3.958,40.165-6.758,69.4c-.313,3.257-.61,6.381-.885,9.3q-.134,1.4-.258,2.727c-.26,2.766-.5,5.306-.7,7.549-.109,1.182-.209,2.28-.3,3.287-.357,3.943-.567,6.461-.569,6.939a4.046,4.046,0,0,0,.068.78c.576,3.072,5.03,3.211,5.557,3.211" transform="translate(-1109.894 -797.104)" fill="#aec3ff"/>
        <path id="Path_2697" data-name="Path 2697" d="M723.484,571.5l19.746,79.316,2.7,10.863,9.2,36.943H925.992L892.094,571.5Z" transform="translate(-622.141 -491.447)" fill="#aec3ff"/>
        <path id="Path_2698" data-name="Path 2698" d="M706.682,571.5l-2.737.912,30.745,128.969,3.639-2.759Z" transform="translate(-605.339 -491.446)" fill="#798ee8"/>
        <path id="Path_2699" data-name="Path 2699" d="M923.433,1481.775h169.809l4.689-2.759H927.072Z" transform="translate(-794.081 -1271.839)" fill="#849def"/>
        <rect id="Rectangle_5269" data-name="Rectangle 5269" width="36.766" height="1.747" transform="translate(188.984 233.037)" fill="#aec3ff"/>
        <path id="Path_2700" data-name="Path 2700" d="M1331.461,1498.707l-.19,1.336-34.577,6.985.474-5.641.226-2.68Z" transform="translate(-1115.058 -1288.772)" fill="#8c9df4"/>
        <g id="Group_1358" data-name="Group 1358" transform="translate(180.797 222.106)" opacity="0.5">
          <g id="Group_1357" data-name="Group 1357">
            <g id="Group_1356" data-name="Group 1356" clip-path="url(#clip-path-7)">
              <path id="Path_2701" data-name="Path 2701" d="M1330.167,1596.531c-1.405,0-28.921.051-35.88-.038-3.033-.038-3.564-2.7-3.59-4.417l34.413-6.475c-.357,3.943-.567,6.461-.569,6.939a4.045,4.045,0,0,0,.068.78c.576,3.072,5.03,3.211,5.557,3.211" transform="translate(-1290.698 -1585.601)" fill="#8c9df4"/>
            </g>
          </g>
        </g>
        <path id="Path_2702" data-name="Path 2702" d="M723.482,571.5h168.61l27.357,102.166H748.916Z" transform="translate(-622.139 -491.446)" fill="#8c9df4"/>
        <path id="Path_2703" data-name="Path 2703" d="M954.366,702.839H796.5l-5.641-22.474-2.183-8.7-.89-3.546-5.8-23.1-.3-1.2-3.066-12.208-1.372-5.463-1.169-4.66-.955-3.8-1.788-7.122h155.6l1.964,7.122,1.047,3.8,1.284,4.66,1.505,5.463,9.921,35.986v0l.84,3.049.391,1.415,6.849,24.844Z" transform="translate(-665.009 -525.046)" fill="#0d78bf"/>
        <path id="Path_2704" data-name="Path 2704" d="M1007.9,766.971H926.668L922.206,745.1l-1.727-6.879-.7-2.8-4.587-18.27-.237-.951-2.425-9.657-1.085-4.321-.925-3.686-.755-3.006-1.414-5.634h79.48Z" transform="translate(-781.108 -593.249)" fill="#1f98db"/>
        <path id="Path_2705" data-name="Path 2705" d="M969.114,1300.854l-57.789,25.254-6.27-25.254Z" transform="translate(-778.278 -1118.634)" fill="#8c9df4"/>
        <path id="Path_2706" data-name="Path 2706" d="M2264.819,886.448c.008-.227.184-2.679,3.918-2.807,0,0-1.836.219-2.153,1.026,0,0,1.25-1,2.268-.677s1.616,2.1,1.622,2.691-.56,2.478-1.206,2.639a1.973,1.973,0,0,1-.782,0,8.84,8.84,0,0,1,.5.9c1.49,3.058-.046,6.047-1.308,5.717-.809-.212-1.038,1.168-1.038,1.168l-7.859-6.362s2.886-5.973,6.036-4.292" transform="translate(-1942.38 -759.863)" fill="#2c3a64"/>
        <path id="Path_2707" data-name="Path 2707" d="M2144.548,1156.976c.657.581,2.4-1.415,2.64-1.68a.162.162,0,0,1,.025-.038l-.531-1.478s-2.287-.089-2.665.291a2.966,2.966,0,0,0,.531,2.906" transform="translate(-1843.526 -992.154)" fill="#ffb27d"/>
        <path id="Path_2708" data-name="Path 2708" d="M2282.342,1228.434l1.669.622s7.25-10.056,8.143-18.9c.16-1.579-.167-4.928-.044-5.643.058-.334.128-.736.209-1.2.236-1.351.56-3.2.93-5.3.853-4.842,1.958-11.032,2.817-15.582l-.45-.144-4.867-1.57-1.006-3.194-3.624-.954s-.809,1.583-1.533,9.064c-.133.981-.254,2.063-.346,3.237a64.045,64.045,0,0,0,.344,13.1,78.773,78.773,0,0,1,.776,7.993c-.365,7.232-3.02,18.472-3.02,18.472" transform="translate(-1962.639 -1011.756)" fill="#0d78bf"/>
        <path id="Path_2709" data-name="Path 2709" d="M2295.9,1188.866l7.869,15.643c.057-.334.128-.736.208-1.2.236-1.351.56-3.2.931-5.3.853-4.842,1.958-11.032,2.817-15.582l-.45-.144-4.866-1.57-1.006-3.194-3.624-.954s-.809,1.583-1.533,9.064c-.134.981-.255,2.063-.346,3.237" transform="translate(-1974.299 -1011.756)" fill="#3075a9"/>
        <path id="Path_2710" data-name="Path 2710" d="M2320.615,1167.4l.182-1.562c3.052.811,11.206-2.265,11.206-2.265s2.956,2.6,2.568,8.828c-.189,3.041-.535,15.961-.9,19.784a21.537,21.537,0,0,0,1.13,5.914c3.548,9.454-.546,21.1-.546,21.1l-1.062-.428s-6.722-24.369-7.415-26.951a149.5,149.5,0,0,1-3.067-16.131c-.1,0-2.1-8.285-2.1-8.285" transform="translate(-1995.55 -1000.585)" fill="#0d78bf"/>
        <path id="Path_2711" data-name="Path 2711" d="M2287.513,986.73c5.247.288,4.094-7.533,3.773-7.494-.642-.335-1.794-1.964-2.461-4.688l-.226.1-3.786,1.78s.4,1.232.7,2.411a4.8,4.8,0,0,1,.259,2.063c-.3.121-.477.2-.477.2a.011.011,0,0,1,0,0c-.038.1.82,5.545,2.22,5.622" transform="translate(-1964.763 -838.036)" fill="#ffb27d"/>
        <path id="Path_2712" data-name="Path 2712" d="M2284.812,977.083s.4,1.231.7,2.411c2.213-.617,2.885-2.943,3.087-4.19Z" transform="translate(-1964.763 -838.685)" fill="#ed985f"/>
        <path id="Path_2713" data-name="Path 2713" d="M2260.82,938.2s5.295-1.225,4.481-4.51-.678-5.656-4.093-5.013-3.758,2.059-3.753,3.222,1.968,6.535,3.366,6.3" transform="translate(-1941.237 -798.5)" fill="#ffb27d"/>
        <path id="Path_2714" data-name="Path 2714" d="M2253.882,926.359c.569-1.191,1.239-1.127,1.658-.916a3.8,3.8,0,0,1,4.928-.421,6.465,6.465,0,0,0,2.974,3.2s-.813.833-3.171.814a3.879,3.879,0,0,1-2.1-.792,12.679,12.679,0,0,0,2.761,2.059c-2.951-.565-4.93-3.981-5.132-4.344a4.258,4.258,0,0,0-.768,1.819c-.054.9.255,2.653-.261,2.719,0,0-1.739-2.348-.886-4.134" transform="translate(-1937.963 -794.825)" fill="#2c3a64"/>
        <path id="Path_2715" data-name="Path 2715" d="M2373.915,1537.763h8.407a4.616,4.616,0,0,0-.238-2.253c-.421-.933-1.08-1.357-.922-2.485a3.027,3.027,0,0,1-2.62,1,9.222,9.222,0,0,1-1.459,1.891c-.549.395-3,.254-3.168,1.845" transform="translate(-2041.384 -1318.282)" fill="#233862"/>
        <path id="Path_2716" data-name="Path 2716" d="M2245.049,1540.078h8.407a3.5,3.5,0,0,0-.238-2.253,1.62,1.62,0,0,1,.061-1.935,3.267,3.267,0,0,1-1.416.267,2.958,2.958,0,0,1-1.25-.44,30.228,30.228,0,0,1-2.4,2.516c-.549.395-3,.254-3.168,1.845" transform="translate(-1930.569 -1320.597)" fill="#233862"/>
        <path id="Path_2717" data-name="Path 2717" d="M2233.461,1019.085c-.452-1.466-.919-2.873-1.393-4.171a56.976,56.976,0,0,0-2.341-5.686c-1.1-2.271-6.04-2.128-6.04-2.128a12.08,12.08,0,0,1-3.563,5.562c-1.393-.818-2.43-3.693-2.43-3.693l-3.048,1.622c-.011.011-.944.562-1.766,2.927-1.224,3.518-3.208,8.514-4.585,10.043a10.486,10.486,0,0,1-2.4,1.467h0c-.024.037-.043.056-.055.056a11.287,11.287,0,0,0,.941,1.766,4.805,4.805,0,0,0,1.682,1.657c.519-.251,1.455-.62,1.852-.863a14.475,14.475,0,0,0,5.243-4.806l.467,6.267.844,11.336c1.3.4,2.531.719,3.7.961a13.819,13.819,0,0,1,.385-2.087,6.031,6.031,0,0,0,1.1,2.358c10.766,1.725,15.813-2.971,15.813-2.971a123.58,123.58,0,0,0-4.4-19.614" transform="translate(-1896.853 -866.026)" fill="#a1e2ff"/>
        <path id="Path_2718" data-name="Path 2718" d="M2310.3,1002.59s.9.06,1.088.633c0,0-1.169,4.7-3.562,5.561Z" transform="translate(-1984.551 -862.15)" fill="#0d78bf"/>
        <path id="Path_2719" data-name="Path 2719" d="M2288.838,1018.054s-2.287-4.127-2.278-4.684c0,0-.869.77-.812,1.342,0,0,1.926,3.085,3.09,3.342" transform="translate(-1965.566 -871.42)" fill="#0d78bf"/>
        <path id="Path_2720" data-name="Path 2720" d="M2294.666,1034.859c-.064.223-4.732,11.376-8.917,15.488-1.832,1.8,4.006,1.28,4.062.946s4.855-16.433,4.855-16.433" transform="translate(-1965.263 -889.899)" fill="#a6d4e8"/>
        <path id="Path_2721" data-name="Path 2721" d="M2279.6,1065.473l.4,6.292c12.765-2.965,11.694-23.3,11.694-23.3l-6.41,13.236-5.626,3.677-.058.09" transform="translate(-1960.278 -901.602)" fill="#a6d4e8"/>
        <path id="Path_2722" data-name="Path 2722" d="M2205.7,1135.242c0,.013.009.02.017.02s-.008-.017-.01-.023-.012-.02-.007,0" transform="translate(-1896.733 -976.205)" fill="#aec3ff"/>
        <path id="Path_2723" data-name="Path 2723" d="M1829.233,1053.448l2.542,11.329c.4,1.8-.961,3.266-3.052,3.266h-61.032a4.682,4.682,0,0,1-4.517-3.266l-2.542-11.329a1.941,1.941,0,0,1-.037-.207c-.262-1.708,1.078-3.059,3.089-3.059h61.032a4.734,4.734,0,0,1,4.462,3.059,2.073,2.073,0,0,1,.056.207" transform="translate(-1513.948 -903.075)" fill="#f99746"/>
        <path id="Path_2724" data-name="Path 2724" d="M2200.854,1164.169a8.159,8.159,0,0,0,2.428-.294s-2.027-.029-1.6-.67a11,11,0,0,1,2.211-.028,3.922,3.922,0,0,1,1.543.662c.815-.108,1.556-.266,1.8-.318a.382.382,0,0,0,.088-.025l.72,2.1s-.151.038-.417.089a28.208,28.208,0,0,0-3.348,1.023,3.349,3.349,0,0,1-3.764-.809,2.1,2.1,0,0,1-.667-1.321c.023-.424.581-.4,1.006-.406" transform="translate(-1891.7 -1000.214)" fill="#ffb27d"/>
        <path id="Path_2725" data-name="Path 2725" d="M2241.95,1140.678l.442,1.617,1.44-.265c.266-.051.417-.089.417-.089.708-.138,1.553-.328,2.475-.53h.013c1.579-.379,3.347-.833,4.838-1.339q.2-.07.393-.14c.881-.325-.822-4.8-1.593-4.242-.2.148-.424.3-.653.458-1.278.868-2.9,1.835-4.349,2.65-.708.4-1.377.771-1.933,1.074-.9.492-1.491.809-1.491.809" transform="translate(-1927.905 -976.563)" fill="#ffb27d"/>
        <path id="Path_2726" data-name="Path 2726" d="M2297.44,1044.211a5.209,5.209,0,0,0,2.767,4.54c3.305-1.193,5.073-6.122,6.438-9.508.189-.467.366-.935.542-1.389a34.587,34.587,0,0,0,1.441-4.8c.189-.859-3.486-5.192-3.954-4.168-.72,1.629-1.477,3.739-2.185,5.836-.392,1.15-.771,2.3-1.15,3.36-.215.644-.43,1.25-.632,1.806a17.461,17.461,0,0,1-1.061,2.464,6.113,6.113,0,0,1-1.554,1.4c-.2.148-.423.3-.653.458" transform="translate(-1975.621 -884.628)" fill="#a1e2ff"/>
        <path id="Path_2727" data-name="Path 2727" d="M930.894,617.7H775.123l-1.788-7.122h155.6Z" transform="translate(-665.008 -525.046)" fill="#3d4ca5"/>
        <path id="Path_2728" data-name="Path 2728" d="M826.539,629.412a.863.863,0,0,1-.9,1.165A1.79,1.79,0,0,1,824,629.429a.863.863,0,0,1,.9-1.165,1.79,1.79,0,0,1,1.637,1.147" transform="translate(-708.531 -540.259)" fill="#ebf3fa"/>
        <path id="Path_2729" data-name="Path 2729" d="M864.04,629.151a.863.863,0,0,1-.9,1.164,1.79,1.79,0,0,1-1.637-1.147.863.863,0,0,1,.9-1.165,1.791,1.791,0,0,1,1.637,1.147" transform="translate(-740.779 -540.034)" fill="#ebf3fa"/>
        <path id="Path_2730" data-name="Path 2730" d="M901.541,628.892a.863.863,0,0,1-.9,1.165A1.79,1.79,0,0,1,899,628.909a.863.863,0,0,1,.9-1.164,1.79,1.79,0,0,1,1.637,1.147" transform="translate(-773.028 -539.812)" fill="#ebf3fa"/>
        <path id="Path_2731" data-name="Path 2731" d="M516.51,732.339h-15.65a4.982,4.982,0,0,1-4.616-3.779L484.471,675.4a2.938,2.938,0,0,1,2.942-3.779h15.65a4.981,4.981,0,0,1,4.616,3.779l11.774,53.162a2.938,2.938,0,0,1-2.942,3.779" transform="translate(-416.528 -577.541)" fill="#0d78bf"/>
        <path id="Path_2732" data-name="Path 2732" d="M2031.12,738.856s.057,3.1-.408,3.038-1.095-2.6-1.1-2.557.21,2.669-.374,2.8-1.177-2.785-1.177-2.785.392,2.5-.019,2.57-1.057-2.361-1.226-2.368.544,2.082.044,2.187-1.617-2.831-1.239-3.205.968.026.968.026.727-.539,1.286-.233c0,0,1.31-.262,1.7.319a1.035,1.035,0,0,1,1.54.208" transform="translate(-1741.813 -634.825)" fill="#ed917e"/>
        <path id="Path_2733" data-name="Path 2733" d="M1646.433,639.807l10.62,38.292a2.24,2.24,0,0,1-2.315,2.967h-71.682a4.318,4.318,0,0,1-3.961-2.967l-10.62-38.292a2.24,2.24,0,0,1,2.315-2.967h71.681a4.318,4.318,0,0,1,3.961,2.967" transform="translate(-1348.677 -547.633)" fill="#d2e0ff"/>
        <path id="Path_2734" data-name="Path 2734" d="M1063.877,650.874a.733.733,0,0,0-.131.783.006.006,0,0,0,0,0,4.87,4.87,0,0,0,1.538,1.688c.093.075.175.143.247.206l.055.05.043.039c.676.623.422.766,1.637,2.031,1.385,1.441,2.339,1.467,2.61,1.336.229-.112-.237-.876-.754-1.736l-.075-.125c-.069-.114-.137-.23-.206-.345-.605-1.034-.45-1.519-.306-3.058.117-1.251,1.946-6.986,1.946-6.986l-2.655-.457s-.8,4.568-1.68,5.271c-.471.375-1,.38-1.451.658l-.094.06a3.482,3.482,0,0,0-.726.584" transform="translate(-914.69 -554.05)" fill="#ffb27d"/>
        <path id="Path_2735" data-name="Path 2735" d="M1063.877,687.634a.733.733,0,0,0-.131.783.006.006,0,0,0,0,0,5.638,5.638,0,0,0,1.541,1.682c.092.076.172.146.244.211l.055.05.043.039c.676.623.422.766,1.637,2.031,1.385,1.441,2.339,1.467,2.61,1.336.229-.112-.237-.876-.754-1.736a5.9,5.9,0,0,1-2.469-1.819c-.8-1.026-1.349-2.333-1.9-3.136l-.156-.029a3.481,3.481,0,0,0-.726.584" transform="translate(-914.69 -590.81)" fill="#233862"/>
        <path id="Path_2736" data-name="Path 2736" d="M1204.816,644.256c.164.819,1.332.683,2.637.364s.995.06,2.852-.145,2.42-.9,2.477-1.174c.051-.245-.867-.331-1.852-.445l-.372-.044a8.038,8.038,0,0,1-2.935-1.446,11.791,11.791,0,0,1-2.383-2.831l-2.547.2s1.337,2.03,1.854,2.913a3.079,3.079,0,0,1,.25,1.736,3.272,3.272,0,0,0,.02.871" transform="translate(-1034.224 -549.09)" fill="#ffb27d"/>
        <path id="Path_2737" data-name="Path 2737" d="M1220.25,671.145c1.3-.319.995.06,2.852-.145s2.42-.9,2.477-1.174c.051-.245-.867-.331-1.851-.445l-.009.019a5.238,5.238,0,0,1-2.66.827c-1.26.031-2.595-.331-3.465-.316a3.266,3.266,0,0,0,.02.871c.164.82,1.332.683,2.637.364" transform="translate(-1047.02 -575.615)" fill="#233862"/>
        <path id="Path_2738" data-name="Path 2738" d="M1094.523,538.044l-2.381,6.407-3.109,8.366a5.032,5.032,0,0,1-1.651-.151,7.159,7.159,0,0,1-1.6-.777s.863-8.983,2.473-14.139a9.184,9.184,0,0,1,1.385-3c2.5-2.95,4.88,3.291,4.88,3.291" transform="translate(-933.691 -459.165)" fill="#3075a9"/>
        <path id="Path_2739" data-name="Path 2739" d="M989.5,482.612c-1.355-.437-4.892-.007-8.728.688a2.6,2.6,0,0,1-2.687-1.213l-9.654-.754s-3.186,7.064-1.442,11.565a1.694,1.694,0,0,0,1.687,1.088h0s5.833.008,7.7.008c4.8,0,10.16-3.3,10.854-3.439,1.135-.227,1.589,2.043,2.723,4.426s10.667,10.554,10.667,10.554a8.387,8.387,0,0,0,2.07-.212,2.041,2.041,0,0,0,.889-.561s-10.562-21.015-14.08-22.15" transform="translate(-831.086 -413.908)" fill="#0d78bf"/>
        <path id="Path_2740" data-name="Path 2740" d="M945.589,280.83a3.425,3.425,0,0,0-1.844-.48,5.114,5.114,0,0,1-.89-.054c-3.684-.54-5.9,4.811-6.033,6.428-.239,2.969-1.809,3.421-4.02,5.281-4.432,3.728-3.132,8.06-.709,9.669,1.454.966,4.017,0,4.017,0,.036.025,7.01-3.9,10.448-5.791,5.153-.732,1.1-13.821-.969-15.053" transform="translate(-799.618 -241)" fill="#152949"/>
        <path id="Path_2741" data-name="Path 2741" d="M999.551,347.123a4.544,4.544,0,0,1-2.833.087,5.05,5.05,0,0,1-1.871-2.241c.488-.023,1.024-.45,1.437-3.251l.208.074,3.5,1.258s-.253,1.122-.417,2.19c-.138.9-.212,1.756-.021,1.883" transform="translate(-855.492 -293.851)" fill="#ffb27d"/>
        <path id="Path_2742" data-name="Path 2742" d="M1010.09,343.508s-.14.605-.343,1.736a3.948,3.948,0,0,1-3.153-2.994Z" transform="translate(-865.593 -294.308)" fill="#ed975d"/>
        <path id="Path_2743" data-name="Path 2743" d="M1008.461,307.526s-4.784-.642-4.338-3.615.128-5.058,3.2-4.773,3.495,1.507,3.588,2.536-1.2,5.943-2.451,5.853" transform="translate(-863.443 -257.213)" fill="#ffb27d"/>
        <path id="Path_2744" data-name="Path 2744" d="M1002.311,298.431s-3.062,2.639-5.145,2.852-2.872-.456-2.872-.456a8.132,8.132,0,0,0,1.967-2.664,1.465,1.465,0,0,1,1.207-.863c1.487-.128,4.307-.187,4.842,1.132" transform="translate(-855.017 -255.6)" fill="#152949"/>
        <path id="Path_2745" data-name="Path 2745" d="M1037.859,300.567a7.539,7.539,0,0,1,1.347,1.725,5.787,5.787,0,0,1,.157,3.078s1.6-3.1.693-4.611a1.276,1.276,0,0,0-2.2-.192" transform="translate(-892.479 -257.972)" fill="#152949"/>
        <path id="Path_2746" data-name="Path 2746" d="M978.378,373.434c-.145,9.683-.04,7.66-1.1,8.578a4.066,4.066,0,0,1-1.917.415c-2.969.2-8.188-.292-8.387-.841-.685-1.9-.2-2.488-.773-5.4-.06-.309-.133-.644-.22-1.008-.476-2-.94-2.676.75-5.883,1.533-2.905,3.125-5.263,3.268-5.178,4.044,2.4,4.37.383,4.37.383s4.078,4.206,4.007,8.929" transform="translate(-830.291 -313.115)" fill="#a1e2ff"/>
        <path id="Path_2747" data-name="Path 2747" d="M1092.141,567.71l-3.109,8.366a5.032,5.032,0,0,1-1.651-.151,7.168,7.168,0,0,1-1.6-.777s.863-8.983,2.473-14.139Z" transform="translate(-933.691 -482.424)" fill="#0d78bf"/>
        <path id="Path_2748" data-name="Path 2748" d="M1028.575,366.865s4.161.705,4.65,2.5,2.1,12.666,2.1,12.666-1.173,1.146-2.15.169-3.075-10.174-3.075-10.174Z" transform="translate(-884.495 -315.475)" fill="#a1e2ff"/>
        <path id="Path_2749" data-name="Path 2749" d="M979.418,431.779c-2.969.2-8.188-.292-8.387-.841-.685-1.9-.2-2.488-.773-5.4l1.432-4.033s-.237,4.49,1.088,5.672,5.422,2.28,6.066,3.267a3.613,3.613,0,0,1,.574,1.33" transform="translate(-834.347 -362.466)" fill="#a6d4e8"/>
        <path id="Path_2750" data-name="Path 2750" d="M1011.364,478.549s2.929-.652,3.4-.392a6.883,6.883,0,0,1,1.772,1.536c.145.329-1.052-.25-1.442-.355a3.464,3.464,0,0,0-1.244.273,4.134,4.134,0,0,1-2.23.224Z" transform="translate(-869.695 -411.125)" fill="#ffb27d"/>
        <path id="Path_2751" data-name="Path 2751" d="M939.107,364.121s-3.933.242-5.295,2.141c-1.917,2.673-5.719,14.066-3.54,15.585,2.454,1.711,11.169.448,11.169.448a3.54,3.54,0,0,0-.113-2.011c-.4-.656-6.961-1.715-7.263-2.017s3.783-5.9,3.783-6.809,1.26-7.336,1.26-7.336" transform="translate(-799.4 -313.116)" fill="#a1e2ff"/>
        <path id="Path_2752" data-name="Path 2752" d="M1036.662,484.353a5.669,5.669,0,0,0,.815.886.6.6,0,0,0,.331.071l-.414-.744Z" transform="translate(-891.45 -416.506)" fill="#ffb27d"/>
        <path id="Path_2753" data-name="Path 2753" d="M1035.649,478.532l1.784.867a.318.318,0,0,1-.3.114,4.248,4.248,0,0,1-.774-.213Z" transform="translate(-890.579 -411.5)" fill="#ffb27d"/>
        <path id="Path_2754" data-name="Path 2754" d="M1030,493.075h-18.639v.411h18.474Z" transform="translate(-869.695 -424.006)" fill="#152949"/>
        <path id="Path_2755" data-name="Path 2755" d="M1042.48,431.191H1056.6l4.246-10.559h-14.094Z" transform="translate(-896.453 -361.711)" fill="#152949"/>
        <path id="Path_2756" data-name="Path 2756" d="M1109.392,454.2a.489.489,0,0,0-.479-.672.963.963,0,0,0-.865.672.489.489,0,0,0,.479.672.964.964,0,0,0,.865-.672" transform="translate(-952.813 -389.995)" fill="#ebf3fa"/>
        <rect id="Rectangle_5271" data-name="Rectangle 5271" width="44.357" height="15.406" transform="translate(303.851 219.481)" fill="#aec3ff"/>
        <path id="Path_2757" data-name="Path 2757" d="M376.924,1677.193H.446a.447.447,0,0,1-.446-.446v-.2a.447.447,0,0,1,.446-.446H376.924a.447.447,0,0,1,.446.446v.2a.447.447,0,0,1-.446.446" transform="translate(0 -1441.321)" fill="#233862"/>
      </g>
    </g>
    <g id="Group_1362" data-name="Group 1362" transform="translate(0 0)">
      <g id="Group_1361" data-name="Group 1361" clip-path="url(#clip-path-2)">
        <path id="Path_2758" data-name="Path 2758" d="M1019.554,780.435a11.512,11.512,0,0,1-1.886-.429,11.928,11.928,0,0,1-4.844-2.949,10.268,10.268,0,0,1-2.094-3.022,8.418,8.418,0,0,1-.755-3.473,7.2,7.2,0,0,1,.2-1.64,6.973,6.973,0,0,1,2.607-3.932,8.285,8.285,0,0,1,3.1-1.436,10.42,10.42,0,0,1,3.816-.157,11.517,11.517,0,0,1,1.886.429,11.928,11.928,0,0,1,4.844,2.95,10.266,10.266,0,0,1,2.094,3.022,8.418,8.418,0,0,1,.755,3.473,7.187,7.187,0,0,1-.2,1.64,6.973,6.973,0,0,1-2.606,3.932,8.281,8.281,0,0,1-3.1,1.436,9.9,9.9,0,0,1-1.87.254,10.878,10.878,0,0,1-1.946-.1m-.993-13.429c-2.978.126-4.914,2.422-4.328,5.133a6.435,6.435,0,0,0,6.462,4.687c2.98-.123,4.918-2.421,4.328-5.133A6.435,6.435,0,0,0,1018.561,767.006Z" transform="translate(-868.501 -656.372)" fill="#52b9d0"/>
        <path id="Path_2759" data-name="Path 2759" d="M1011.166,774.442q-.148-.279-.274-.563a8.89,8.89,0,0,1-.57-1.728,7.957,7.957,0,0,1-.185-1.744,7.19,7.19,0,0,1,.2-1.64,6.887,6.887,0,0,1,1.434-2.822,7.29,7.29,0,0,1,1.173-1.11,7.9,7.9,0,0,1,1.436-.861,8.75,8.75,0,0,1,1.668-.575,9.9,9.9,0,0,1,1.87-.254l.068,0,.8,3.666-.025.042h-.034c-2.978.126-4.914,2.422-4.328,5.132a5.05,5.05,0,0,0,.381,1.105Z" transform="translate(-868.64 -656.243)" fill="#3d4ca5"/>
        <path id="Path_2760" data-name="Path 2760" d="M1026.825,839.611a10.9,10.9,0,0,1-1.946-.1,11.522,11.522,0,0,1-1.886-.429,12.019,12.019,0,0,1-3.41-1.722,11.645,11.645,0,0,1-1.433-1.227,10.8,10.8,0,0,1-1.191-1.427,9.859,9.859,0,0,1-.817-1.408l3.666-1.275a6.575,6.575,0,0,0,6.213,3.879l.068,0,.805,3.706-.068,0" transform="translate(-873.803 -715.478)" fill="#82e8f5"/>
        <path id="Path_2761" data-name="Path 2761" d="M1075,778.508l-2.977-2.958a4.021,4.021,0,0,0,1.36-3.992,6.419,6.419,0,0,0-6.406-4.748l-.805-3.706a10.921,10.921,0,0,1,1.878.1,11.5,11.5,0,0,1,1.886.429,11.926,11.926,0,0,1,4.844,2.949,10.268,10.268,0,0,1,2.094,3.022,8.417,8.417,0,0,1,.755,3.473,7.2,7.2,0,0,1-.2,1.64,6.882,6.882,0,0,1-1.434,2.822,7.274,7.274,0,0,1-.993.97" transform="translate(-916.822 -656.206)" fill="#f99746"/>
      </g>
    </g>
    <g id="Group_1364" data-name="Group 1364" transform="translate(0 0)">
      <g id="Group_1363" data-name="Group 1363" clip-path="url(#clip-path-2)">
        <path id="Path_2762" data-name="Path 2762" d="M1251.524,658.154l4.129,17.063c.177.73-.512,1.322-1.539,1.322h-42.466a2.215,2.215,0,0,1-2.179-1.322l-4.128-17.063c-.177-.73.512-1.322,1.539-1.322h42.466a2.215,2.215,0,0,1,2.179,1.322" transform="translate(-1036.476 -564.825)" fill="#d2e0ff"/>
      </g>
    </g>
    <g id="Group_1366" data-name="Group 1366" transform="translate(0 0)">
      <g id="Group_1365" data-name="Group 1365" clip-path="url(#clip-path-2)">
        <path id="Path_2763" data-name="Path 2763" d="M1918.063,1089.159l.114.646c.1.569-1.235,1.033-2.982,1.033s-3.246-.464-3.346-1.033l-.114-.646c-.1-.569,1.235-1.033,2.982-1.033s3.246.464,3.346,1.033m.256,1.453.256,1.453c.1.569-1.235,1.033-2.982,1.033s-3.245-.464-3.346-1.033l-.256-1.453a6.81,6.81,0,0,0,3.285.686,5.457,5.457,0,0,0,3.043-.686Zm.4,2.26.256,1.453c.1.569-1.235,1.033-2.982,1.033s-3.246-.463-3.346-1.033l-.256-1.452a6.808,6.808,0,0,0,3.285.686,5.451,5.451,0,0,0,3.043-.686Z" transform="translate(-1643.94 -935.704)" fill="#fff"/>
        <path id="Path_2764" data-name="Path 2764" d="M1918.063,1089.159l.114.646c.1.569-1.235,1.033-2.982,1.033s-3.246-.464-3.346-1.033l-.114-.646c-.1-.569,1.235-1.033,2.982-1.033S1917.962,1088.59,1918.063,1089.159Zm.256,1.453.256,1.453c.1.569-1.235,1.033-2.982,1.033s-3.245-.464-3.346-1.033l-.256-1.453a6.81,6.81,0,0,0,3.285.686,5.457,5.457,0,0,0,3.043-.686Zm.4,2.26.256,1.453c.1.569-1.235,1.033-2.982,1.033s-3.246-.463-3.346-1.033l-.256-1.452a6.808,6.808,0,0,0,3.285.686,5.451,5.451,0,0,0,3.043-.686Z" transform="translate(-1643.94 -935.704)" fill="none" stroke="#f99746" stroke-miterlimit="10" stroke-width="1"/>
      </g>
    </g>
    <g id="Group_1368" data-name="Group 1368" transform="translate(0 0)">
      <g id="Group_1367" data-name="Group 1367" clip-path="url(#clip-path-2)">
        <path id="Path_2765" data-name="Path 2765" d="M1998.166,1094.176l-1.356-3.217a2.8,2.8,0,0,0-1.721,4.005,4,4,0,0,0,4.433,2.427,2.626,2.626,0,0,0,2-2.461Z" transform="translate(-1715.376 -938.14)" fill="#fff"/>
        <path id="Path_2766" data-name="Path 2766" d="M1998.166,1094.176l-1.356-3.217a2.8,2.8,0,0,0-1.721,4.005,4,4,0,0,0,4.433,2.427,2.626,2.626,0,0,0,2-2.461Z" transform="translate(-1715.376 -938.14)" fill="none" stroke="#f99746" stroke-miterlimit="10" stroke-width="1"/>
        <path id="Path_2767" data-name="Path 2767" d="M2013.037,1093.135l2.014-1.614a3.975,3.975,0,0,0-2.779-1.214,2.993,2.993,0,0,0-.388.025Z" transform="translate(-1730.066 -937.58)" fill="#fff"/>
        <path id="Path_2768" data-name="Path 2768" d="M2013.037,1093.135l2.014-1.614a3.975,3.975,0,0,0-2.779-1.214,2.993,2.993,0,0,0-.388.025Z" transform="translate(-1730.066 -937.58)" fill="none" stroke="#f99746" stroke-miterlimit="10" stroke-width="1"/>
        <path id="Path_2769" data-name="Path 2769" d="M2023.044,1102.5l2.76.58a3.178,3.178,0,0,0-.044-.346,3.915,3.915,0,0,0-.869-1.823Z" transform="translate(-1739.662 -946.695)" fill="#fff"/>
        <path id="Path_2770" data-name="Path 2770" d="M2023.044,1102.5l2.76.58a3.178,3.178,0,0,0-.044-.346,3.915,3.915,0,0,0-.869-1.823Z" transform="translate(-1739.662 -946.695)" fill="none" stroke="#f99746" stroke-miterlimit="10" stroke-width="1"/>
      </g>
    </g>
    <g id="Group_1370" data-name="Group 1370" transform="translate(0 0)">
      <g id="Group_1369" data-name="Group 1369" clip-path="url(#clip-path-2)">
        <path id="Path_2771" data-name="Path 2771" d="M2080.149,1092.633l-.259-1.47a.522.522,0,0,1,.593-.473c.576.009,3.26,0,3.26,0s.626-.034.732.473.259,1.47.259,1.47h-.887l-.124-.7h-2.787l.123.7Z" transform="translate(-1788.545 -937.907)" fill="#fff"/>
        <path id="Path_2772" data-name="Path 2772" d="M2090.073,1125.44l.259,1.47a.522.522,0,0,1-.594.473c-.575-.009-3.26,0-3.26,0s-.626.034-.732-.473-.259-1.47-.259-1.47h.885l.124.7h2.788l-.123-.7Z" transform="translate(-1793.358 -967.791)" fill="#fff"/>
        <path id="Path_2773" data-name="Path 2773" d="M2083.211,1106.185l.568.51-.78.772,1.072.884-.5.494-1.6-1.314Z" transform="translate(-1790.332 -951.234)" fill="#fff"/>
        <path id="Path_2774" data-name="Path 2774" d="M2103.439,1108.91l-.589-.484.73-.819-1.109-.835.471-.525,1.655,1.242Z" transform="translate(-1807.964 -951.287)" fill="#fff"/>
      </g>
    </g>
    <g id="Group_1372" data-name="Group 1372" transform="translate(0 0)">
      <g id="Group_1371" data-name="Group 1371" clip-path="url(#clip-path-2)">
        <path id="Path_2775" data-name="Path 2775" d="M2166.767,1093.6h-2.478l-.2-1.145-.016-.1-.093-.043a3.243,3.243,0,0,1-1.843-2.313,2.135,2.135,0,0,1,2.175-2.6,3.258,3.258,0,0,1,3.09,2.6,2.153,2.153,0,0,1-.812,2.176l-.063.046.015.084Z" transform="translate(-1859.235 -935.089)" fill="#fff"/>
        <path id="Path_2776" data-name="Path 2776" d="M2165.618,1092.5l-.23-1.3.126-.091a2.024,2.024,0,0,0,.764-2.046,3.065,3.065,0,0,0-2.907-2.442,2.009,2.009,0,0,0-2.047,2.442,3.048,3.048,0,0,0,1.733,2.175l.185.086.208,1.181Zm.365.31H2163.2l-.229-1.3a3.452,3.452,0,0,1-1.953-2.451,2.26,2.26,0,0,1,2.3-2.751,3.446,3.446,0,0,1,3.272,2.751,2.282,2.282,0,0,1-.86,2.306Z" transform="translate(-1858.269 -934.138)" fill="#fff"/>
        <path id="Path_2777" data-name="Path 2777" d="M2175.229,1134.938h3.1l.164.929h-3.1Z" transform="translate(-1870.53 -975.959)" fill="#fff"/>
        <path id="Path_2778" data-name="Path 2778" d="M2176.529,1136.044h2.787l.109.619h-2.787Z" transform="translate(-1871.648 -976.91)" fill="#fff"/>
      </g>
    </g>
    <g id="Group_1374" data-name="Group 1374" transform="translate(0 0)">
      <g id="Group_1373" data-name="Group 1373" clip-path="url(#clip-path-2)">
        <path id="Path_2779" data-name="Path 2779" d="M1836.745,1089.979a.2.2,0,0,0-.2.24.3.3,0,0,0,.282.24h1.817l-3.666,4.451-.32-1.816a.3.3,0,0,0-.282-.24.2.2,0,0,0-.2.24l.414,2.347a.358.358,0,0,0,.338.287h2.347a.2.2,0,0,0,.2-.24.3.3,0,0,0-.282-.24h-1.816l3.666-4.451.32,1.817a.3.3,0,0,0,.282.24.2.2,0,0,0,.2-.24l-.414-2.347a.358.358,0,0,0-.338-.287Z" transform="translate(-1577.251 -937.298)" fill="#fff"/>
        <path id="Path_2780" data-name="Path 2780" d="M1836.745,1089.979a.2.2,0,0,0-.2.24.3.3,0,0,0,.282.24h1.817l-3.666,4.451-.32-1.816a.3.3,0,0,0-.282-.24.2.2,0,0,0-.2.24l.414,2.347a.358.358,0,0,0,.338.287h2.347a.2.2,0,0,0,.2-.24.3.3,0,0,0-.282-.24h-1.816l3.666-4.451.32,1.817a.3.3,0,0,0,.282.24.2.2,0,0,0,.2-.24l-.414-2.347a.358.358,0,0,0-.338-.287Z" transform="translate(-1577.251 -937.298)" fill="none" stroke="#fff" stroke-width="2"/>
      </g>
    </g>
    <path id="Path_2781" data-name="Path 2781" d="M526.953,746.1h1.283l.751,4.918H527.7Z" transform="translate(-453.139 -641.591)" fill="#fff"/>
    <path id="Path_2782" data-name="Path 2782" d="M544.841,757.807h1.232l.481,3.279h-1.232Z" transform="translate(-468.521 -651.655)" fill="#fff"/>
    <path id="Path_2783" data-name="Path 2783" d="M559.925,750h1.1l.57,4.372h-1.1Z" transform="translate(-481.493 -644.946)" fill="#fff"/>
    <g id="Group_1376" data-name="Group 1376" transform="translate(0 0)">
      <g id="Group_1375" data-name="Group 1375" clip-path="url(#clip-path-2)">
        <path id="Path_2784" data-name="Path 2784" d="M599.627,743.5h4.946a.385.385,0,0,1,.361.309l.142.8h-5.561l-.142-.8a.254.254,0,0,1,.254-.309" transform="translate(-515.41 -639.353)" fill="#fff"/>
        <path id="Path_2785" data-name="Path 2785" d="M600.946,754.414l.732,4.119h5.561l-.732-4.119Zm5.869,3.784h-4.833l-.609-3.428h4.833Z" transform="translate(-516.767 -648.737)" fill="#fff"/>
        <path id="Path_2786" data-name="Path 2786" d="M622.595,768.229h.073l-.02.495h-2.26l-.009-.048.72-.719-.985-.77-.01-.058h2.219l.106.4h-.06a.376.376,0,0,0-.354-.3.285.285,0,0,0-.043,0h-1.387l.8.621-.679.652h1.459s.406.013.43-.277" transform="translate(-533.243 -659.672)" fill="#fff"/>
        <path id="Path_2787" data-name="Path 2787" d="M558.657,859.817l.542-.7h.026l1.264,1.042,1.928-2.446.836.711-2.472,3.12" transform="translate(-480.402 -737.57)" fill="#fff"/>
        <path id="Path_2788" data-name="Path 2788" d="M619.729,847.63l0,0a.156.156,0,0,1-.225.018.21.21,0,0,1-.033-.029l-2.256-2.269a.258.258,0,0,1-.057-.3l0,0a.156.156,0,0,1,.225-.017.222.222,0,0,1,.033.029l2.255,2.269a.248.248,0,0,1,.058.3" transform="translate(-530.682 -726.626)" fill="#fff"/>
        <path id="Path_2789" data-name="Path 2789" d="M633.46,851.258l-.009,0a.182.182,0,0,1-.1-.211.117.117,0,0,1,.016-.03l1.471-1.8a.22.22,0,0,1,.286-.009l.009,0a.182.182,0,0,1,.1.211.114.114,0,0,1-.016.03l-1.472,1.8a.224.224,0,0,1-.285.013" transform="translate(-544.627 -730.206)" fill="#fff"/>
        <path id="Path_2790" data-name="Path 2790" d="M643.938,848.789h0a.135.135,0,0,1,.208-.041l1.573,1.638a.211.211,0,0,1,0,.256.135.135,0,0,1-.208.041l-1.575-1.638a.21.21,0,0,1,0-.256" transform="translate(-553.699 -729.828)" fill="#fff"/>
        <path id="Path_2791" data-name="Path 2791" d="M645.392,851.582l-.01-.012a.254.254,0,0,1-.056-.3l1.7-2.453a.152.152,0,0,1,.221-.019.223.223,0,0,1,.034.03l.01.012a.254.254,0,0,1,.056.3l-1.7,2.453a.152.152,0,0,1-.22.019.22.22,0,0,1-.034-.03" transform="translate(-554.906 -729.868)" fill="#fff"/>
        <path id="Path_2792" data-name="Path 2792" d="M632.462,852.6l.009-.012a.154.154,0,0,1,.221-.01.213.213,0,0,1,.031.029l1.815,1.926a.242.242,0,0,1,.043.3l-.009.012a.154.154,0,0,1-.221.01.212.212,0,0,1-.031-.029L632.5,852.9a.242.242,0,0,1-.043-.3" transform="translate(-543.84 -733.117)" fill="#fff"/>
        <path id="Path_2793" data-name="Path 2793" d="M621.08,854.792l0,0a.258.258,0,0,1-.057-.3l1.564-2.26a.155.155,0,0,1,.225-.018.2.2,0,0,1,.033.029l0,0a.258.258,0,0,1,.057.3l-1.564,2.261a.155.155,0,0,1-.225.018.22.22,0,0,1-.033-.029" transform="translate(-534.003 -732.798)" fill="#fff"/>
        <path id="Path_2794" data-name="Path 2794" d="M627.936,876.79h-5.523a.388.388,0,0,1-.358-.3l-.014-.067a.233.233,0,0,1,.232-.3H627.8a.388.388,0,0,1,.358.3l.014.067a.231.231,0,0,1-.232.3Z" transform="translate(-534.902 -753.406)" fill="#fff"/>
        <path id="Path_2795" data-name="Path 2795" d="M646.533,873.361h-.815a.46.46,0,0,1-.429-.351v0l-.268-1.259a.277.277,0,0,1,.276-.355h.818a.46.46,0,0,1,.429.351v0l.268,1.259a.279.279,0,0,1-.279.354" transform="translate(-554.661 -749.331)" fill="#fff"/>
        <path id="Path_2796" data-name="Path 2796" d="M648.227,873.9h-.677a.143.143,0,0,1-.134-.11h0l-.017-.079a.087.087,0,0,1,.086-.111h.678a.143.143,0,0,1,.134.11h0l.017.079a.086.086,0,0,1-.086.11Z" transform="translate(-556.711 -751.23)" fill="#fff"/>
        <path id="Path_2797" data-name="Path 2797" d="M649.027,877.668h-.677a.143.143,0,0,1-.134-.11h0l-.017-.079a.086.086,0,0,1,.086-.111h.678a.144.144,0,0,1,.134.11h0l.017.079a.085.085,0,0,1-.081.11h-.006" transform="translate(-557.399 -754.469)" fill="#fff"/>
        <path id="Path_2798" data-name="Path 2798" d="M649.834,881.463h-.677a.143.143,0,0,1-.134-.11h0l-.017-.079a.087.087,0,0,1,.086-.111h.678a.144.144,0,0,1,.134.11h0l.017.079a.085.085,0,0,1-.081.11h-.006" transform="translate(-558.093 -757.732)" fill="#fff"/>
        <path id="Path_2799" data-name="Path 2799" d="M585.885,970.793h-4.234a.642.642,0,0,1-.6-.494l-.754-3.547a.465.465,0,0,1,.086-.391.444.444,0,0,1,.353-.162v.28a.17.17,0,0,0-.136.058.184.184,0,0,0-.029.157l.754,3.546a.362.362,0,0,0,.328.273h4.233a.17.17,0,0,0,.135-.058.185.185,0,0,0,.029-.157l-.754-3.546a.362.362,0,0,0-.328-.272v-.28a.641.641,0,0,1,.6.494l.754,3.547a.466.466,0,0,1-.086.391.446.446,0,0,1-.353.162" transform="translate(-499 -830.857)" fill="#fff"/>
        <path id="Path_2800" data-name="Path 2800" d="M589.826,966.062h2.422l.067.316h-2.422Z" transform="translate(-507.205 -830.739)" fill="#fff"/>
        <path id="Path_2801" data-name="Path 2801" d="M583.582,961.158h.5l.323,1.518h-.5Z" transform="translate(-501.836 -826.521)" fill="#fff"/>
        <path id="Path_2802" data-name="Path 2802" d="M607.487,961.158h.5l.323,1.518h-.5Z" transform="translate(-522.392 -826.521)" fill="#fff"/>
        <path id="Path_2803" data-name="Path 2803" d="M587.635,977.009h.975l.207.974h-.974Z" transform="translate(-505.321 -840.152)" fill="#fff"/>
        <path id="Path_2804" data-name="Path 2804" d="M589.575,986.134h.974l.207.975h-.975Z" transform="translate(-506.989 -847.999)" fill="#fff"/>
        <path id="Path_2805" data-name="Path 2805" d="M597.217,977.009h.974l.207.974h-.974Z" transform="translate(-513.561 -840.152)" fill="#fff"/>
        <path id="Path_2806" data-name="Path 2806" d="M599.157,986.134h.975l.207.975h-.975Z" transform="translate(-515.229 -847.999)" fill="#fff"/>
        <path id="Path_2807" data-name="Path 2807" d="M606.569,977.009h.974l.207.974h-.975Z" transform="translate(-521.603 -840.152)" fill="#fff"/>
        <path id="Path_2808" data-name="Path 2808" d="M608.508,986.134h.974l.207.975h-.975Z" transform="translate(-523.27 -847.999)" fill="#fff"/>
        <path id="Path_2809" data-name="Path 2809" d="M671.656,967.343h.639l.743,3.495H672.4Z" transform="translate(-577.573 -831.841)" fill="#fff"/>
        <path id="Path_2810" data-name="Path 2810" d="M653.371,969.281h.64l.685,3.223h-.639Z" transform="translate(-561.849 -833.507)" fill="#fff"/>
        <path id="Path_2811" data-name="Path 2811" d="M664.841,980.6h.64l.348,1.638h-.64Z" transform="translate(-571.712 -843.236)" fill="#fff"/>
        <path id="Path_2812" data-name="Path 2812" d="M647.014,982.344h.639l.3,1.393h-.64Z" transform="translate(-556.382 -844.74)" fill="#fff"/>
        <path id="Path_2813" data-name="Path 2813" d="M644.48,952.652l.4.353,1.291-1.56,1.4,1.03,1.464-1.913-.444-.291-1.172,1.487-1.324-1.03Z" transform="translate(-554.203 -817.16)" fill="#fff"/>
        <path id="Path_2814" data-name="Path 2814" d="M673.582,976.307h1.306l.106.5h-1.3l.085.4-.883-.662.6-.657Z" transform="translate(-578.638 -839.189)" fill="#ebf3fa"/>
        <path id="Path_2815" data-name="Path 2815" d="M673.582,976.307h1.306l.106.5h-1.3l.085.4-.883-.662.6-.657Z" transform="translate(-578.638 -839.189)" fill="none" stroke="#7487eb" stroke-miterlimit="10" stroke-width="0.5"/>
        <line id="Line_388" data-name="Line 388" x2="15.327" transform="translate(75.569 114.027)" fill="#8c9df4"/>
        <rect id="Rectangle_5280" data-name="Rectangle 5280" width="15.327" height="0.28" transform="translate(75.569 113.887)" fill="#e0dfd8"/>
        <line id="Line_389" data-name="Line 389" x2="15.327" transform="translate(79.199 128.685)" fill="#8c9df4"/>
        <rect id="Rectangle_5281" data-name="Rectangle 5281" width="15.327" height="0.28" transform="translate(79.199 128.545)" fill="#e0dfd8"/>
      </g>
    </g>
    <path id="Path_2816" data-name="Path 2816" d="M1676.952,695.8h7.093l-1.481-4.069-1.652,2.589-1.463-1.467-.863,1.778-.993-.931" transform="translate(-1442.05 -594.833)" fill="#d3802e"/>
    <path id="Path_2817" data-name="Path 2817" d="M1676.62,673.912l-1.525,2.642-1.572-1.751-.833,1.942-1.161-1.241-.658,2.1-.431-1.223.575-2.522.967.8.554-2.132,2.244,1.857,1.184-2.274" transform="translate(-1436.45 -577.961)" fill="#429ee8"/>
    <path id="Path_2818" data-name="Path 2818" d="M1826.511,672.934h6.333l.646,1.773h-6.333Z" transform="translate(-1570.659 -578.672)" fill="#3c4ea4"/>
    <path id="Path_2819" data-name="Path 2819" d="M1833.093,691.018h4.053l.738,2.026h-4.053Z" transform="translate(-1576.319 -594.222)" fill="#d3802e"/>
    <path id="Path_2820" data-name="Path 2820" d="M1840.333,710.909h2.786l.645,1.773h-2.786Z" transform="translate(-1582.545 -611.327)" fill="#429ee8"/>
    <path id="Path_2821" data-name="Path 2821" d="M1818.62,671.126h.253l2.674,7.346h-.254Z" transform="translate(-1563.873 -577.117)" fill="#dfdede"/>
    <g id="Group_1378" data-name="Group 1378" transform="translate(0 0)">
      <g id="Group_1377" data-name="Group 1377" clip-path="url(#clip-path-2)">
        <path id="Path_2822" data-name="Path 2822" d="M1994.363,691.018a3.206,3.206,0,0,1,2.764,2.027,1.371,1.371,0,0,1-1.289,2.026,3.206,3.206,0,0,1-2.764-2.026,1.371,1.371,0,0,1,1.289-2.027" transform="translate(-1713.778 -594.222)" fill="#4053ae"/>
        <path id="Path_2823" data-name="Path 2823" d="M2019.136,685.593a2.006,2.006,0,0,1,1.808,1.14c.229.63-.209,1.14-.978,1.14a2.007,2.007,0,0,1-1.808-1.14c-.229-.63.209-1.14.978-1.14" transform="translate(-1735.408 -589.557)" fill="#ea9738"/>
        <path id="Path_2824" data-name="Path 2824" d="M1993.289,671.126a1.6,1.6,0,0,1,1.382,1.013.686.686,0,0,1-.645,1.013,1.6,1.6,0,0,1-1.382-1.013.686.686,0,0,1,.644-1.013" transform="translate(-1713.465 -577.116)" fill="#ea9738"/>
        <path id="Path_2825" data-name="Path 2825" d="M2022.4,671.126a.708.708,0,0,1,.645.38c.076.21-.088.38-.368.38a.708.708,0,0,1-.645-.38c-.076-.21.089-.38.368-.38" transform="translate(-1738.772 -577.116)" fill="#99dcf5"/>
        <path id="Path_2826" data-name="Path 2826" d="M2036.952,709.1a1.124,1.124,0,0,1,.91.76c.153.42-.007.76-.357.76a1.123,1.123,0,0,1-.91-.76c-.153-.42.007-.76.357-.76" transform="translate(-1751.265 -609.772)" fill="#2468d4"/>
        <path id="Path_2827" data-name="Path 2827" d="M1975.946,671.126h.253l2.766,7.6h-.253Z" transform="translate(-1699.161 -577.116)" fill="#dfdede"/>
        <path id="Path_2828" data-name="Path 2828" d="M2002.632,723.568l.092.253h-7.6l-.092-.253Z" transform="translate(-1715.575 -622.212)" fill="#dfdede"/>
      </g>
    </g>
    <g id="Group_1410" data-name="Group 1410" transform="translate(0 0)">
      <g id="Group_1409" data-name="Group 1409" clip-path="url(#clip-path-2)">
        <path id="Path_2829" data-name="Path 2829" d="M1702.344,768.677a3.959,3.959,0,0,1,3.413,2.5,1.693,1.693,0,0,1-1.592,2.5,3.959,3.959,0,0,1-3.413-2.5A1.694,1.694,0,0,1,1702.344,768.677Z" transform="translate(-1462.378 -661.003)" fill="none" stroke="#a8d1fa" stroke-miterlimit="10" stroke-width="1"/>
        <path id="Path_2830" data-name="Path 2830" d="M1709.659,776.563A2.275,2.275,0,0,1,1711.62,778a.973.973,0,0,1-.915,1.438,2.275,2.275,0,0,1-1.962-1.438A.973.973,0,0,1,1709.659,776.563Z" transform="translate(-1469.309 -667.784)" fill="none" stroke="#a8d1fa" stroke-miterlimit="10" stroke-width="1"/>
        <path id="Path_2831" data-name="Path 2831" d="M1693.132,759.085a6.1,6.1,0,0,1,5.258,3.855c.775,2.129-.323,3.855-2.452,3.855a6.1,6.1,0,0,1-5.258-3.855C1689.9,760.811,1691,759.085,1693.132,759.085Z" transform="translate(-1453.641 -652.754)" fill="none" stroke="#a8d1fa" stroke-miterlimit="10" stroke-width="1"/>
        <g id="Group_1381" data-name="Group 1381" transform="translate(241.014 110.551)" opacity="0.9" style="isolation: isolate">
          <g id="Group_1380" data-name="Group 1380">
            <g id="Group_1379" data-name="Group 1379" clip-path="url(#clip-path-18)">
              <path id="Path_2832" data-name="Path 2832" d="M1720.579,789.215l0,0Z" transform="translate(-1720.579 -789.215)" fill="#296581"/>
            </g>
          </g>
        </g>
        <g id="Group_1384" data-name="Group 1384" transform="translate(240.83 106.8)" opacity="0.9" style="isolation: isolate">
          <g id="Group_1383" data-name="Group 1383">
            <g id="Group_1382" data-name="Group 1382" clip-path="url(#clip-path-19)">
              <path id="Path_2833" data-name="Path 2833" d="M1720.6,763.061l-1.276,2.714-.057-3.341a4.37,4.37,0,0,1,1.333.627" transform="translate(-1719.266 -762.434)" fill="#d78b39"/>
            </g>
          </g>
        </g>
        <g id="Group_1387" data-name="Group 1387" transform="translate(240.875 109.816)" opacity="0.9" style="isolation: isolate">
          <g id="Group_1386" data-name="Group 1386">
            <g id="Group_1385" data-name="Group 1385" clip-path="url(#clip-path-20)">
              <path id="Path_2834" data-name="Path 2834" d="M1721.255,784.418l-1.663-.108h0l1.471-.343a1.327,1.327,0,0,1,.187.451" transform="translate(-1719.592 -783.967)" fill="#c14842"/>
            </g>
          </g>
        </g>
        <g id="Group_1390" data-name="Group 1390" transform="translate(240.887 110.168)" opacity="0.9" style="isolation: isolate">
          <g id="Group_1389" data-name="Group 1389">
            <g id="Group_1388" data-name="Group 1388" clip-path="url(#clip-path-21)">
              <path id="Path_2835" data-name="Path 2835" d="M1719.681,786.479l3.778,1.894a4.2,4.2,0,0,0,.008-1.5Z" transform="translate(-1719.681 -786.479)" fill="#d3802e"/>
            </g>
          </g>
        </g>
        <g id="Group_1393" data-name="Group 1393" transform="translate(240.864 110.15)" opacity="0.9" style="isolation: isolate">
          <g id="Group_1392" data-name="Group 1392">
            <g id="Group_1391" data-name="Group 1391" clip-path="url(#clip-path-22)">
              <path id="Path_2836" data-name="Path 2836" d="M1719.506,786.351l.868,1a.4.4,0,0,0,.229-.252Z" transform="translate(-1719.507 -786.351)" fill="#c55853"/>
            </g>
          </g>
        </g>
        <g id="Group_1396" data-name="Group 1396" transform="translate(238.349 109.487)" opacity="0.9" style="isolation: isolate">
          <g id="Group_1395" data-name="Group 1395">
            <g id="Group_1394" data-name="Group 1394" clip-path="url(#clip-path-23)">
              <path id="Path_2837" data-name="Path 2837" d="M1704.07,782.3l-2.473-.677s-.161.239.252,1.028Z" transform="translate(-1701.565 -781.619)" fill="#429ee8"/>
            </g>
          </g>
        </g>
        <g id="Group_1399" data-name="Group 1399" transform="translate(240.348 109.789)" opacity="0.9" style="isolation: isolate">
          <g id="Group_1398" data-name="Group 1398">
            <g id="Group_1397" data-name="Group 1397" clip-path="url(#clip-path-24)">
              <path id="Path_2838" data-name="Path 2838" d="M1716.35,784.145l-.446-.37a.22.22,0,0,0-.074.18Z" transform="translate(-1715.827 -783.775)" fill="#c55853"/>
            </g>
          </g>
        </g>
        <g id="Group_1402" data-name="Group 1402" transform="translate(240.68 109.51)" opacity="0.9" style="isolation: isolate">
          <g id="Group_1401" data-name="Group 1401">
            <g id="Group_1400" data-name="Group 1400" clip-path="url(#clip-path-25)">
              <path id="Path_2839" data-name="Path 2839" d="M1718.324,781.8l.066.591-.191-.6a.121.121,0,0,1,.125.008" transform="translate(-1718.199 -781.78)" fill="#6087ba"/>
            </g>
          </g>
        </g>
        <g id="Group_1405" data-name="Group 1405" transform="translate(240.879 110.168)" opacity="0.9" style="isolation: isolate">
          <g id="Group_1404" data-name="Group 1404">
            <g id="Group_1403" data-name="Group 1403" clip-path="url(#clip-path-26)">
              <path id="Path_2840" data-name="Path 2840" d="M1720.134,788.828a1.83,1.83,0,0,0,.878-.041l-1.395-2.308Z" transform="translate(-1719.618 -786.479)" fill="#3c4ea4"/>
            </g>
          </g>
        </g>
        <g id="Group_1408" data-name="Group 1408" transform="translate(238.558 106.88)" opacity="0.9" style="isolation: isolate">
          <g id="Group_1407" data-name="Group 1407">
            <g id="Group_1406" data-name="Group 1406" clip-path="url(#clip-path-27)">
              <path id="Path_2841" data-name="Path 2841" d="M1705.369,766.286l-1.2-3.26a1.312,1.312,0,0,0-1.113.288Z" transform="translate(-1703.052 -763.007)" fill="#3c4ea4"/>
            </g>
          </g>
        </g>
        <path id="Path_2842" data-name="Path 2842" d="M1720.907,773.764l-1.233,1.754,2.108-.9a2.293,2.293,0,0,0-.875-.857" transform="translate(-1478.787 -665.377)" fill="#429ee8"/>
        <path id="Path_2843" data-name="Path 2843" d="M1715.416,786.736l-.673,2.115,1.006.4Z" transform="translate(-1474.547 -676.532)" fill="#d78b39"/>
        <path id="Path_2844" data-name="Path 2844" d="M1702.89,786.479l-2.719,1.51a8.177,8.177,0,0,0,1.272,1.154Z" transform="translate(-1462.016 -676.311)" fill="#429ee8"/>
        <path id="Path_2845" data-name="Path 2845" d="M1889.023,771.094h1.8l1.871,5.14h-1.8Z" transform="translate(-1624.415 -663.081)" fill="#d3802e"/>
        <path id="Path_2846" data-name="Path 2846" d="M1853.325,763.755h2.056l2.245,6.168h-2.056Z" transform="translate(-1593.717 -656.77)" fill="#4053ae"/>
        <path id="Path_2847" data-name="Path 2847" d="M1877.488,784.773h2.056l1.122,3.084h-2.056Z" transform="translate(-1614.495 -674.844)" fill="#429ee8"/>
        <path id="Path_2848" data-name="Path 2848" d="M2022.116,804.956h7.453l.281.771H2022.4Z" transform="translate(-1738.865 -692.2)" fill="#4053ae"/>
        <path id="Path_2849" data-name="Path 2849" d="M2052.8,788.444h2.056l.842,2.313h-2.056Z" transform="translate(-1765.253 -678.001)" fill="#d3802e"/>
        <path id="Path_2850" data-name="Path 2850" d="M2032.614,768.261h1.8l1.871,5.14h-1.8Z" transform="translate(-1747.891 -660.645)" fill="#d3802e"/>
        <path id="Path_2851" data-name="Path 2851" d="M2021.266,757.25h1.028l2.432,6.683H2023.7Z" transform="translate(-1738.133 -651.176)" fill="#d3802e"/>
        <path id="Path_2852" data-name="Path 2852" d="M2017.273,786.607h2.056l.935,2.57h-2.056Z" transform="translate(-1734.7 -676.421)" fill="#d3802e"/>
      </g>
    </g>
    <g id="Group_1412" data-name="Group 1412" transform="translate(0 0)">
      <g id="Group_1411" data-name="Group 1411" clip-path="url(#clip-path-2)">
        <path id="Path_2853" data-name="Path 2853" d="M1733.522,861.329l-2.185-3.587c-1.8.486-2.288,2.486-1.081,4.466s3.648,3.193,5.452,2.707a2.34,2.34,0,0,0,1.717-2.745Z" transform="translate(-1487.316 -737.592)" fill="#4053ae"/>
        <path id="Path_2854" data-name="Path 2854" d="M1746.89,860.166l1.909-1.8a5.36,5.36,0,0,0-3.354-1.354,3.191,3.191,0,0,0-.428.027Z" transform="translate(-1500.581 -736.964)" fill="#d3802e"/>
        <path id="Path_2855" data-name="Path 2855" d="M1762.019,870.6l3.2.647c-.033-.128-.074-.257-.122-.386a5.526,5.526,0,0,0-1.35-2.033Z" transform="translate(-1515.201 -747.125)" fill="#429ee8"/>
      </g>
    </g>
    <path id="Path_2856" data-name="Path 2856" d="M1916.749,852.029l-1.312-1.264-.455,1.336,1.852,5.088h1.793Z" transform="translate(-1646.737 -731.593)" fill="#d3802e"/>
    <path id="Path_2857" data-name="Path 2857" d="M1909.393,844.949l.439-1.258,1.355,1.258-.555-1.526h-1.794Z" transform="translate(-1641.453 -725.279)" fill="#d3802e"/>
    <path id="Path_2858" data-name="Path 2858" d="M1901.249,869.725l-.4,1.18-1.179-.587,1.156,3.176h1.795Z" transform="translate(-1633.571 -747.897)" fill="#3f52ad"/>
    <path id="Path_2859" data-name="Path 2859" d="M1892.021,852.957l.969.43.482-1.375-.686-1.884h-1.795Z" transform="translate(-1626.107 -731.045)" fill="#3f52ad"/>
    <path id="Path_2860" data-name="Path 2860" d="M1940.549,876.238l-1.265-3.476,1.307,1.267.682-.442.965,2.651Z" transform="translate(-1667.635 -750.508)" fill="#429ee8"/>
    <path id="Path_2861" data-name="Path 2861" d="M1939.085,868.771l1.367,1.283.484-.351-.339-.932Z" transform="translate(-1667.464 -747.076)" fill="#429ee8"/>
    <path id="Path_2862" data-name="Path 2862" d="M2050.124,881.029h7.391l-2.191-2.556h-4.82Z" transform="translate(-1762.949 -755.419)" fill="#d3802e"/>
    <path id="Path_2863" data-name="Path 2863" d="M2053.747,866.942l4.687.01-1.788-2.078h-2.62" transform="translate(-1766.065 -743.725)" fill="#429ee8"/>
    <path id="Path_2864" data-name="Path 2864" d="M2056.34,851.209l2.523.015-2.157-2.424Z" transform="translate(-1768.294 -729.902)" fill="#4053ae"/>
    <g id="Group_1414" data-name="Group 1414" transform="translate(0 0)">
      <g id="Group_1413" data-name="Group 1413" clip-path="url(#clip-path-2)">
        <path id="Path_2865" data-name="Path 2865" d="M1243.288,696.865h5.637a1.855,1.855,0,0,1,1.682,1.326l1.51,5.637a.983.983,0,0,1-.971,1.326h-5.637a1.855,1.855,0,0,1-1.682-1.326l-1.51-5.637a.983.983,0,0,1,.971-1.326" transform="translate(-1068.256 -599.25)" fill="#163560"/>
        <path id="Path_2866" data-name="Path 2866" d="M1244.386,698.049h5.637a1.623,1.623,0,0,1,1.471,1.16l1.51,5.637a.86.86,0,0,1-.849,1.161h-5.637a1.624,1.624,0,0,1-1.472-1.161l-1.51-5.637a.86.86,0,0,1,.849-1.16" transform="translate(-1069.311 -600.268)" fill="#163560"/>
        <path id="Path_2867" data-name="Path 2867" d="M1347.276,696.861h5.637a1.855,1.855,0,0,1,1.682,1.326l1.51,5.637a.983.983,0,0,1-.971,1.326H1349.5a1.855,1.855,0,0,1-1.682-1.326l-1.51-5.637a.983.983,0,0,1,.971-1.326" transform="translate(-1157.678 -599.246)" fill="#163560"/>
        <path id="Path_2868" data-name="Path 2868" d="M1348.374,698.044h5.637a1.623,1.623,0,0,1,1.471,1.161l1.51,5.637a.86.86,0,0,1-.85,1.16h-5.637a1.624,1.624,0,0,1-1.472-1.16l-1.51-5.637a.861.861,0,0,1,.85-1.161" transform="translate(-1158.732 -600.264)" fill="#163560"/>
        <path id="Path_2869" data-name="Path 2869" d="M1452.071,697.829h5.637a1.855,1.855,0,0,1,1.682,1.326l1.51,5.637a.983.983,0,0,1-.971,1.326h-5.637a1.856,1.856,0,0,1-1.682-1.326l-1.51-5.637a.984.984,0,0,1,.971-1.326" transform="translate(-1247.794 -600.079)" fill="#163560"/>
        <path id="Path_2870" data-name="Path 2870" d="M1453.169,699.012h5.637a1.623,1.623,0,0,1,1.471,1.161l1.51,5.637a.86.86,0,0,1-.849,1.161H1455.3a1.624,1.624,0,0,1-1.472-1.161l-1.51-5.637a.861.861,0,0,1,.85-1.161" transform="translate(-1248.848 -601.096)" fill="#163560"/>
        <path id="Path_2871" data-name="Path 2871" d="M1372.521,718.179h.56l.866,3.231h-.56Z" transform="translate(-1180.262 -617.579)" fill="#fff"/>
        <path id="Path_2872" data-name="Path 2872" d="M1370.387,710.425l-.341.485.162.605.339-.481.615.481-.159-.593Z" transform="translate(-1178.135 -610.91)" fill="#fff"/>
        <path id="Path_2873" data-name="Path 2873" d="M1371.061,732.653l-.14-.522h3.214l.14.522Z" transform="translate(-1178.887 -629.576)" fill="#fff"/>
        <path id="Path_2874" data-name="Path 2874" d="M1394.518,731.208h0l-.6-.454h-.606l.6.451-.356.468h.594Z" transform="translate(-1198.137 -628.392)" fill="#fff"/>
        <path id="Path_2875" data-name="Path 2875" d="M1475.411,717.015l.013.886a3.72,3.72,0,0,1-.063.909.778.778,0,0,1-.238.417.643.643,0,0,1-.423.135.451.451,0,0,1-.256-.062.261.261,0,0,1-.116-.146.143.143,0,0,1,.026-.137.187.187,0,0,1,.151-.057.229.229,0,0,1,.144.044.2.2,0,0,1,.076.111.112.112,0,0,1,0,.091c-.014.02-.02.033-.018.039l.013.013a.051.051,0,0,0,.029.01.108.108,0,0,0,.088-.037.4.4,0,0,0,.093-.219q.01-.088.008-.466l-.019-1.532h-.265l0-.224a.363.363,0,0,0,.2-.037.31.31,0,0,0,.092-.172,1.141,1.141,0,0,1,.294-.558.688.688,0,0,1,.476-.169.493.493,0,0,1,.287.071.319.319,0,0,1,.132.184.188.188,0,0,1-.013.158.138.138,0,0,1-.122.058.224.224,0,0,1-.14-.048.214.214,0,0,1-.081-.115.174.174,0,0,1,.006-.1.154.154,0,0,0,.014-.073.06.06,0,0,0-.023-.033.066.066,0,0,0-.041-.013.229.229,0,0,0-.195.14,1.367,1.367,0,0,0-.124.71h.274l-.006.224h-.27Z" transform="translate(-1267.803 -615.578)" fill="#fff"/>
        <path id="Path_2876" data-name="Path 2876" d="M1485.064,722.276l.638-.115a2.678,2.678,0,0,1,.426.63,3.3,3.3,0,0,1,.179-.389.585.585,0,0,1,.16-.195.3.3,0,0,1,.166-.045.272.272,0,0,1,.177.057.289.289,0,0,1,.1.155.174.174,0,0,1-.016.151.143.143,0,0,1-.126.058.6.6,0,0,1-.146-.022.581.581,0,0,0-.117-.022.188.188,0,0,0-.138.057.86.86,0,0,0-.156.336,3.711,3.711,0,0,0,.449.7.216.216,0,0,0,.137.075.12.12,0,0,0,.079-.025.7.7,0,0,0,.117-.2l.08.04a.884.884,0,0,1-.227.383.326.326,0,0,1-.219.086.432.432,0,0,1-.219-.055.684.684,0,0,1-.193-.178.279.279,0,1,0-.5.021.564.564,0,0,1-.166.172.345.345,0,0,1-.17.04.275.275,0,0,1-.272-.207.161.161,0,0,1,.148-.224h.016a.335.335,0,0,1,.125.031.479.479,0,0,0,.151.046.175.175,0,0,0,.092-.025.387.387,0,0,0,.113-.125q.038-.059.131-.253a4.353,4.353,0,0,0-.506-.817.268.268,0,0,0-.189-.086.6.6,0,0,0-.123.015l-.006-.073Z" transform="translate(-1277.041 -621.002)" fill="#fff"/>
        <path id="Path_2877" data-name="Path 2877" d="M1267.054,715.621a1.223,1.223,0,0,0-.039-.179c-.017-.063-.041-.117-.057-.179l.306-.3a.08.08,0,0,0-.011-.115l0,0-.534-.619a.109.109,0,0,0-.12-.036l-.41.18a1.856,1.856,0,0,0-.36-.18l-.192-.475a.141.141,0,0,0-.111-.072h-.732a.071.071,0,0,0-.073.072l.054.475a1.082,1.082,0,0,0-.264.18l-.507-.18a.07.07,0,0,0-.1.036l-.2.619a.131.131,0,0,0,.05.117l.474.3c.017.063.022.117.039.179s.041.117.057.179l-.306.3a.08.08,0,0,0,.011.115l0,0,.533.619a.108.108,0,0,0,.12.036l.411-.181a1.877,1.877,0,0,0,.36.179l.2.475a.124.124,0,0,0,.111.072h.733a.071.071,0,0,0,.073-.072l-.054-.475a1.086,1.086,0,0,0,.264-.179l.507.179a.07.07,0,0,0,.1-.036l.2-.619a.13.13,0,0,0-.049-.117Zm-1.247.449a.88.88,0,0,1-.786-.642.465.465,0,0,1,.478-.614.881.881,0,0,1,.782.628.467.467,0,0,1-.464.628h-.01" transform="translate(-1086.683 -613.682)" fill="#fff"/>
      </g>
    </g>
    <path id="Path_2878" data-name="Path 2878" d="M1071.853,967.495l-.865-41.033,21.6,21.769,16.2,6.275,11.272-6.833L1140,965.025l.912,2.507Z" transform="translate(-920.967 -796.686)" fill="#429ee8"/>
    <path id="Path_2879" data-name="Path 2879" d="M1071.853,967.495l-.865-41.033,21.6,21.769,16.2,6.275,11.272-6.833L1140,965.025l.912,2.507Z" transform="translate(-920.967 -796.686)" fill="#3c4ea4"/>
    <path id="Path_2880" data-name="Path 2880" d="M1077.259,1020.546l2.119-32.434,20.881,19.574,15.879,6.458,10.47-9.687,18.619,13.528.932,2.561Z" transform="translate(-926.359 -849.7)" fill="#204d9c"/>
    <path id="Path_2881" data-name="Path 2881" d="M1077.259,1020.546l2.119-32.434,20.881,19.574,15.879,6.458,10.47-9.687,18.619,13.528.932,2.561Z" transform="translate(-926.359 -849.7)" fill="#f99746"/>
    <path id="Path_2882" data-name="Path 2882" d="M1077.258,1148.9l9.572-11.525,31.425,8.323,12.481-2.012,14.724,3.722.543,1.491Z" transform="translate(-926.359 -978.056)" fill="#52b9d0"/>
    <path id="Path_2883" data-name="Path 2883" d="M1077.258,1148.9l9.572-11.525,31.425,8.323,12.481-2.012,14.724,3.722.543,1.491Z" transform="translate(-926.359 -978.056)" fill="#82e8f5"/>
    <path id="Path_2884" data-name="Path 2884" d="M1202.926,863.707h32.961L1232.274,871H1210.4l-2.259-2.2Z" transform="translate(-1034.424 -742.721)" fill="#3d4ca5"/>
    <path id="Path_2885" data-name="Path 2885" d="M1261.808,919.489l5.9,5.765h11.95l2.91-5.765Z" transform="translate(-1085.058 -790.69)" fill="#f99746"/>
    <path id="Path_2886" data-name="Path 2886" d="M1308.377,964.382l3.781,3.693h5.424l1.74-3.693Z" transform="translate(-1125.103 -829.294)" fill="#52b9d0"/>
    <path id="Path_2887" data-name="Path 2887" d="M1339.419,994.668l3.152,3,.726-1.557.675-1.447Z" transform="translate(-1151.797 -855.338)" fill="#83eaf7"/>
    <g id="Group_1416" data-name="Group 1416" transform="translate(0 0)">
      <g id="Group_1415" data-name="Group 1415" clip-path="url(#clip-path-2)">
        <path id="Path_2888" data-name="Path 2888" d="M775.206,1117.4c-.289-.959-.432-1.046-.432-1.046s-8.974,1.119-10.5,1.02c-.9-.059-11.683-3.653-11.683-3.653l-6.544,6.276s16.23,2.674,18.518,2.5c3.78-.29,9.55-3.626,9.55-3.626s1.315-.717,1.088-1.47" transform="translate(-641.545 -957.711)" fill="#a1e2ff"/>
        <path id="Path_2889" data-name="Path 2889" d="M779.078,1643.558s.125,3.041.709,3.781l8.124.047a1.271,1.271,0,0,0-1.214-1.235,5.45,5.45,0,0,1-3.946-3.114c-.9-1.974-3.674.521-3.674.521" transform="translate(-669.947 -1412.231)" fill="#214c7f"/>
        <path id="Path_2890" data-name="Path 2890" d="M664.028,1640.706s-.566,4.04.2,4.111c.1.009,3.274.06,4.647.083,1.615.027,4.269-.03,4.269-.03a.422.422,0,0,0,.383-.635,1.7,1.7,0,0,0-1.221-.783c-1.415-.272-3.772-1.312-4.6-3.2-.87-1.989-3.682.456-3.682.456" transform="translate(-570.84 -1409.818)" fill="#214c7f"/>
        <path id="Path_2891" data-name="Path 2891" d="M685.429,1305.168s-2.259,7.9-8.733,21.632-6.754,20.342-6.754,20.342a5.686,5.686,0,0,1-2.28.208,6.127,6.127,0,0,1-2.4-.778s.419-16.338,3.478-23.266,3.681-25.883,3.681-25.883Z" transform="translate(-572.074 -1115.683)" fill="#0d78bf"/>
        <path id="Path_2892" data-name="Path 2892" d="M744.745,1304.158a197.121,197.121,0,0,1-1.938,27.269c-2.118,15.028-1.127,22.018-1.127,22.018a4.221,4.221,0,0,1-2.288.4,5.132,5.132,0,0,1-3.057-.843s-3.031-15.034-2.162-22.556-4.151-25.812-4.151-25.812Z" transform="translate(-627.763 -1121.475)" fill="#0d78bf"/>
        <path id="Path_2893" data-name="Path 2893" d="M768.832,1060.665a4.96,4.96,0,0,1-.534,2.518l-2.156,1.131-2.39-1.772a10.677,10.677,0,0,0,.661-4.781c-.021-.171-.107-1.259-.107-1.28l1.2.6,3.244,1.622a.681.681,0,0,0,.021.149c.021.32.064,1.024.064,1.814" transform="translate(-656.769 -908.493)" fill="#ffb27d"/>
        <path id="Path_2894" data-name="Path 2894" d="M713.571,1123.4c.782,3.577,17.523,2.007,17.3-.177-.008-.073-.052-1.083-.112-2.446-.127-2.947-.32-7.552-.345-7.912,0-.006,0-.013,0-.019-.3-3.041-.591-6.015-.609-7.958a27.6,27.6,0,0,0-.557-4.971c-.285-1.443-.634-2.754-.938-3.775a4.175,4.175,0,0,0-2.446-2.681,3.576,3.576,0,0,0-.406-.141c-1.969-.572-3.957-1.3-4.7-1.083-2,.588-4.227,4.132-5.28,8.623-1.97,8.4-2.425,20.208-1.914,22.54" transform="translate(-613.449 -939.209)" fill="#a1e2ff"/>
        <path id="Path_2895" data-name="Path 2895" d="M773.809,1064.332c-1.216-.491-3.543-1.6-4.183-2.86-.278-.555.149-.726.854-.726l3.244,1.622a.682.682,0,0,0,.021.149c.021.32.064,1.024.064,1.814" transform="translate(-661.745 -912.16)" fill="#fca56b"/>
        <path id="Path_2896" data-name="Path 2896" d="M760.678,1012.039s-5.826,1.818-6.9-1.828-2.553-5.866,1.122-7.18,4.811-.138,5.466.992,1.8,7.45.314,8.017" transform="translate(-647.138 -862.03)" fill="#ffb27d"/>
        <path id="Path_2897" data-name="Path 2897" d="M744.526,991.452s-.372,4.242-1.249,4.058-1.673-.321-1.544.958.17,2.816-2.534,3.042-5.415-6.807-4.672-8.127c2.143-3.809,13.1-4.578,10,.069" transform="translate(-631.53 -849.811)" fill="#163560"/>
        <path id="Path_2898" data-name="Path 2898" d="M774.641,1211.241c-.127-2.947-.32-7.552-.345-7.912,0-.006,0-.012,0-.019l-9.89-5.913s-.383,13.8,10.237,13.844" transform="translate(-657.327 -1029.669)" fill="#a6d4e8"/>
        <path id="Path_2899" data-name="Path 2899" d="M1023.825,961.643l1.782,1.551s-3.055,3.271-2.771,6.712l-4.561,3.851-3.776-3.288,3.158-5.238a9.046,9.046,0,0,0,6.168-3.588" transform="translate(-872.391 -826.939)" fill="#163560"/>
        <path id="Path_2900" data-name="Path 2900" d="M1046.455,999.44a1.015,1.015,0,1,1,.1,1.431,1.014,1.014,0,0,1-.1-1.431" transform="translate(-899.657 -859.141)" fill="#fff"/>
        <rect id="Rectangle_5297" data-name="Rectangle 5297" width="8.204" height="0.387" transform="translate(146.801 141.544) rotate(-48.949)" fill="#fff"/>
        <rect id="Rectangle_5298" data-name="Rectangle 5298" width="1.258" height="5.008" transform="matrix(0.656, -0.754, 0.754, 0.656, 141.282, 144.48)" fill="#6c7aff"/>
        <path id="Path_2901" data-name="Path 2901" d="M734.408,1078.582l-.183-.159a2.383,2.383,0,0,1-.233-3.362l37.963-43.63,3.778,3.288-37.963,43.63a2.383,2.383,0,0,1-3.362.234" transform="translate(-630.673 -886.95)" fill="#163560"/>
        <path id="Path_2902" data-name="Path 2902" d="M891.4,1185.6a4.188,4.188,0,0,0,.9-1.095,1.515,1.515,0,0,1,1.4-.8c.775.057,2.153-1.594,2.153-1.594.2.436.892,2.074-.1,2.9-.807.677-2.751,1.849-3.93,2.62-1.266.828-.431-2.039-.431-2.039" transform="translate(-766.303 -1016.524)" fill="#ffb27d"/>
        <path id="Path_2903" data-name="Path 2903" d="M777.316,1130.058s-9.81,1.667-10.679,1.245c-1.388-.675.538-10.629.538-10.629a2.863,2.863,0,0,0-2.552-2.788,6.341,6.341,0,0,0-4.5,1.253s-2.009,1.8-1.753,3.792c.569,4.42,1.454,13.409,4.41,14.787,3.813,1.777,14.846-4.929,14.846-4.929a1.929,1.929,0,0,0,.315-1.285,3,3,0,0,0-.628-1.446" transform="translate(-652.122 -961.227)" fill="#a1e2ff"/>
        <path id="Path_2904" data-name="Path 2904" d="M957.118,1125.689s2.476-.9,2.258-2.169-.99-1.106-1.456-.669-.207,2.678-.8,2.838" transform="translate(-823.048 -965.291)" fill="#ffb27d"/>
        <path id="Path_2905" data-name="Path 2905" d="M898.27,1187.805a5.779,5.779,0,0,1,.7-1.418c.36-.426.513-1.146.677-.906s-.131,1.1,0,1.43-1.375.894-1.375.894" transform="translate(-772.443 -1019.381)" fill="#ffb27d"/>
        <rect id="Rectangle_5299" data-name="Rectangle 5299" width="1.919" height="1.919" transform="matrix(0.656, -0.754, 0.754, 0.656, 151.659, 134.798)" fill="#fff"/>
      </g>
    </g>
  </g>
</svg>
