<?xml version="1.0" encoding="utf-8"?>
<!-- Generator: Adobe Illustrator 23.0.3, SVG Export Plug-In . SVG Version: 6.00 Build 0)  -->
<svg version="1.1" xmlns="http://www.w3.org/2000/svg" xmlns:xlink="http://www.w3.org/1999/xlink" x="0px" y="0px"
	 viewBox="0 0 90 90" style="enable-background:new 0 0 90 90;" xml:space="preserve">
<style type="text/css">
	.st0{fill:#FFFFFF;stroke:#D2D3D4;stroke-miterlimit:10;}
	.st1{fill:#FFFFFF;}
	.st2{fill:none;stroke:#F69320;stroke-width:0.75;stroke-miterlimit:10;}
	.st3{fill:none;stroke:#F69320;stroke-width:0.75;stroke-miterlimit:10;stroke-dasharray:1.9585,1.9585,1.9585,1.9585;}
	
		.st4{fill:none;stroke:#F69320;stroke-width:0.75;stroke-miterlimit:10;stroke-dasharray:1.9585,1.9585,1.9585,1.9585,1.9585,1.9585;}
	.st5{fill:#FFFFFF;stroke:#F69320;stroke-width:0.75;stroke-miterlimit:10;}
	.st6{fill:#F69320;stroke:#F69320;stroke-width:0.75;stroke-miterlimit:10;}
</style>
<g id="Layer_1">
	<g>
		<path class="st0" d="M77,87.8H14.5c-6.3,0-11.4-5.1-11.4-11.4V13.8c0-6.3,5.1-11.4,11.4-11.4H77c6.3,0,11.4,5.1,11.4,11.4v62.5
			C88.5,82.7,83.3,87.8,77,87.8z"/>
	</g>
</g>
<g id="Layer_2">
	<g>
		<rect x="18" y="18.9" class="st1" width="23.5" height="23.5"/>
		<g>
			<polyline class="st2" points="41.6,41.5 41.6,42.5 40.6,42.5 			"/>
			<line class="st3" x1="38.6" y1="42.5" x2="31.7" y2="42.5"/>
			<line class="st4" x1="30.8" y1="42.5" x2="20" y2="42.5"/>
			<polyline class="st2" points="19,42.5 18,42.5 18,41.5 			"/>
			<line class="st3" x1="18" y1="39.5" x2="18" y2="32.7"/>
			<line class="st4" x1="18" y1="31.7" x2="18" y2="20.9"/>
			<polyline class="st2" points="18,19.9 18,18.9 19,18.9 			"/>
			<line class="st3" x1="21" y1="18.9" x2="27.8" y2="18.9"/>
			<line class="st4" x1="28.8" y1="18.9" x2="39.6" y2="18.9"/>
			<polyline class="st2" points="40.6,18.9 41.6,18.9 41.6,19.9 			"/>
			<line class="st3" x1="41.6" y1="21.9" x2="41.6" y2="28.8"/>
			<line class="st4" x1="41.6" y1="29.7" x2="41.6" y2="40.5"/>
		</g>
	</g>
	<g>
		<rect x="47.1" y="18.5" class="st1" width="23.5" height="23.5"/>
		<g>
			<polyline class="st2" points="70.6,41 70.6,42 69.6,42 			"/>
			<line class="st3" x1="67.7" y1="42" x2="60.8" y2="42"/>
			<line class="st4" x1="59.8" y1="42" x2="49.1" y2="42"/>
			<polyline class="st2" points="48.1,42 47.1,42 47.1,41 			"/>
			<line class="st3" x1="47.1" y1="39.1" x2="47.1" y2="32.2"/>
			<line class="st4" x1="47.1" y1="31.2" x2="47.1" y2="20.5"/>
			<polyline class="st2" points="47.1,19.5 47.1,18.5 48.1,18.5 			"/>
			<line class="st3" x1="50" y1="18.5" x2="56.9" y2="18.5"/>
			<line class="st4" x1="57.9" y1="18.5" x2="68.6" y2="18.5"/>
			<polyline class="st2" points="69.6,18.5 70.6,18.5 70.6,19.5 			"/>
			<line class="st3" x1="70.6" y1="21.4" x2="70.6" y2="28.3"/>
			<line class="st4" x1="70.6" y1="29.3" x2="70.6" y2="40"/>
		</g>
	</g>
	<g>
		<rect x="48.1" y="48" class="st1" width="23.5" height="23.5"/>
		<g>
			<polyline class="st2" points="71.6,70.5 71.6,71.5 70.6,71.5 			"/>
			<line class="st3" x1="68.7" y1="71.5" x2="61.8" y2="71.5"/>
			<line class="st4" x1="60.8" y1="71.5" x2="50.1" y2="71.5"/>
			<polyline class="st2" points="49.1,71.5 48.1,71.5 48.1,70.5 			"/>
			<line class="st3" x1="48.1" y1="68.6" x2="48.1" y2="61.7"/>
			<line class="st4" x1="48.1" y1="60.7" x2="48.1" y2="50"/>
			<polyline class="st2" points="48.1,49 48.1,48 49.1,48 			"/>
			<line class="st3" x1="51.1" y1="48" x2="57.9" y2="48"/>
			<line class="st4" x1="58.9" y1="48" x2="69.7" y2="48"/>
			<polyline class="st2" points="70.6,48 71.6,48 71.6,49 			"/>
			<line class="st3" x1="71.6" y1="50.9" x2="71.6" y2="57.8"/>
			<line class="st4" x1="71.6" y1="58.8" x2="71.6" y2="69.5"/>
		</g>
	</g>
	<g>
		<rect x="17.2" y="48" class="st1" width="23.5" height="23.5"/>
		<g>
			<polyline class="st2" points="40.8,70.5 40.8,71.5 39.8,71.5 			"/>
			<line class="st3" x1="37.8" y1="71.5" x2="31" y2="71.5"/>
			<line class="st4" x1="30" y1="71.5" x2="19.2" y2="71.5"/>
			<polyline class="st2" points="18.2,71.5 17.2,71.5 17.2,70.5 			"/>
			<line class="st3" x1="17.2" y1="68.6" x2="17.2" y2="61.7"/>
			<line class="st4" x1="17.2" y1="60.7" x2="17.2" y2="50"/>
			<polyline class="st2" points="17.2,49 17.2,48 18.2,48 			"/>
			<line class="st3" x1="20.2" y1="48" x2="27" y2="48"/>
			<line class="st4" x1="28" y1="48" x2="38.8" y2="48"/>
			<polyline class="st2" points="39.8,48 40.8,48 40.8,49 			"/>
			<line class="st3" x1="40.8" y1="50.9" x2="40.8" y2="57.8"/>
			<line class="st4" x1="40.8" y1="58.8" x2="40.8" y2="69.5"/>
		</g>
	</g>
	<rect x="29" y="35.5" class="st5" width="33.3" height="26.6"/>
	<polygon class="st6" points="35.9,56.6 42.2,41 48.6,51.8 52.7,46.9 58.3,56.6 	"/>
</g>
</svg>
