<?xml version="1.0" encoding="utf-8"?>
<!-- Generator: Adobe Illustrator 23.0.3, SVG Export Plug-In . SVG Version: 6.00 Build 0)  -->
<svg version="1.1" xmlns="http://www.w3.org/2000/svg" xmlns:xlink="http://www.w3.org/1999/xlink" x="0px" y="0px"
	 viewBox="0 0 90 90" style="enable-background:new 0 0 90 90;" xml:space="preserve">
<style type="text/css">
	.st0{fill:#FFFFFF;stroke:#D2D3D4;stroke-miterlimit:10;}
	.st1{fill:none;stroke:#F7931E;stroke-miterlimit:10;}
	.st2{fill:#F7931E;}
	.st3{fill:#FFFFFF;stroke:#F7931E;stroke-width:0.75;stroke-miterlimit:10;}
	.st4{fill:#FFFFFF;}
	.st5{fill:#FFFFFF;stroke:#FFFFFF;stroke-miterlimit:10;}
	.st6{font-family:'MyriadPro-Regular';}
	.st7{font-size:9.248px;}
</style>
<g id="Layer_1">
</g>
<g id="Layer_2">
	<g>
		<g>
			<path class="st0" d="M77,87.8H14.5c-6.3,0-11.4-5.1-11.4-11.4V13.8c0-6.3,5.1-11.4,11.4-11.4H77c6.3,0,11.4,5.1,11.4,11.4v62.5
				C88.5,82.7,83.3,87.8,77,87.8z"/>
		</g>
	</g>
	<polyline class="st1" points="34,28.2 34,38.8 48.2,38.8 	"/>
	<polyline class="st1" points="32.3,47.5 32.3,58 46.5,58 	"/>
	<polyline class="st1" points="36.6,36.6 39.7,33 41.9,34.8 45.6,31 	"/>
	<path class="st2" d="M44.4,29.9c0.1,0,2.6,2.4,2.6,2.4l0.2-2.7L44.4,29.9z"/>
	<path class="st3" d="M20.2,34.9l-0.1-5.9c-3,0.4-5.2,2.9-5.2,5.9c0,3.3,2.7,6,6,6c1.3,0,2.6-0.4,3.6-1.2
		C23,38.2,20.2,34.9,20.2,34.9z"/>
	<path class="st3" d="M21.2,28.2V34h5.7C26.9,34,26.7,28.7,21.2,28.2z"/>
	<path class="st3" d="M21.8,35.1l3.9,3.9c0,0,1.7-1.4,1.6-3.9H21.8z"/>
	<circle class="st2" cx="34.6" cy="50.4" r="1.3"/>
	<circle class="st2" cx="36.6" cy="54.3" r="1.4"/>
	<circle class="st2" cx="41.2" cy="54.6" r="1.2"/>
	
		<ellipse transform="matrix(0.9975 -7.093916e-02 7.093916e-02 0.9975 -3.5646 2.9677)" class="st2" cx="40" cy="51.7" rx="0.9" ry="0.9"/>
	
		<ellipse transform="matrix(0.9975 -7.093916e-02 7.093916e-02 0.9975 -3.738 3.3597)" class="st2" cx="45.4" cy="54.3" rx="0.9" ry="0.9"/>
	
		<ellipse transform="matrix(0.9975 -7.093916e-02 7.093916e-02 0.9975 -3.4669 3.2394)" class="st2" cx="43.9" cy="50.4" rx="0.9" ry="0.9"/>
	<path class="st1" d="M48.9,62.5H14.7c-2.3,0-4.1-1.8-4.1-4.1V24.3c0-2.3,1.8-4.1,4.1-4.1h34.1c2.3,0,4.1,1.8,4.1,4.1v34.1
		C53,60.6,51.1,62.5,48.9,62.5z"/>
	<rect x="58.6" y="21" class="st2" width="22.3" height="15"/>
	<circle class="st2" cx="52" cy="46.2" r="5.2"/>
	<rect x="58.6" y="37.5" class="st2" width="22.3" height="15"/>
	<rect x="58.6" y="54" class="st2" width="22.3" height="15"/>
	<polygon class="st2" points="21.3,45 13.6,58.1 28.8,58.1 	"/>
	<rect x="18.5" y="47.4" class="st4" width="5.8" height="0.4"/>
	<rect x="17.1" y="50.5" class="st4" width="8.1" height="0.4"/>
	<rect x="16.2" y="52.7" class="st4" width="10.4" height="0.4"/>
	<rect x="14.9" y="55.4" class="st4" width="13.3" height="0.4"/>
	<path class="st5" d="M48.9,48.7c0,0,0.2-2.5,3-3.8l0-1.2c0,0,2.9,0.9,3.2,1.5c0,0-1.5,2.3-2.2,2.5l-0.4-0.9c0,0-2.4-0.2-3.4,2.2
		C49.1,48.9,49,49.1,48.9,48.7z"/>
	<text transform="matrix(1 0 0 1 62.7558 32.3186)" class="st4 st6 st7">XLX</text>
	<text transform="matrix(1 0 0 1 62.4364 47.9749)" class="st4 st6 st7">PDF</text>
	<text transform="matrix(1 0 0 1 62.7558 64.7288)" class="st4 st6 st7">PPT</text>
</g>
</svg>
