<?xml version="1.0" encoding="utf-8"?>
<!-- Generator: Adobe Illustrator 23.0.3, SVG Export Plug-In . SVG Version: 6.00 Build 0)  -->
<svg version="1.1" xmlns="http://www.w3.org/2000/svg" xmlns:xlink="http://www.w3.org/1999/xlink" x="0px" y="0px"
	 viewBox="0 0 90 90" style="enable-background:new 0 0 90 90;" xml:space="preserve">
<style type="text/css">
	.st0{fill:#FFFFFF;stroke:#D2D3D4;stroke-miterlimit:10;}
	.st1{fill:#FFFFFF;stroke:#F7931E;stroke-miterlimit:10;}
	.st2{fill:#FFFFFF;stroke:#F7931E;stroke-width:0.75;stroke-miterlimit:10;}
</style>
<g id="Layer_1">
</g>
<g id="Layer_2">
	<g>
		<g>
			<path class="st0" d="M77,87.8H14.5c-6.3,0-11.4-5.1-11.4-11.4V13.8c0-6.3,5.1-11.4,11.4-11.4H77c6.3,0,11.4,5.1,11.4,11.4v62.5
				C88.5,82.7,83.3,87.8,77,87.8z"/>
		</g>
	</g>
	<circle class="st1" cx="32.7" cy="31.8" r="5.5"/>
	<circle class="st1" cx="44.7" cy="28.6" r="2.6"/>
	<circle class="st1" cx="51.3" cy="36.3" r="3"/>
	<circle class="st1" cx="57.2" cy="27.7" r="3.6"/>
	<circle class="st1" cx="44.7" cy="17.1" r="5.1"/>
	<circle class="st1" cx="57.2" cy="18.5" r="1.9"/>
	<polygon class="st1" points="64,38 23.9,38 39.3,57.1 39.3,67.1 49.9,67.1 49.9,56.9 	"/>
	<rect x="22.6" y="32.6" class="st1" width="45.5" height="7.3"/>
	<polygon class="st2" points="30.1,74.5 23.9,74.5 23.9,62.1 26.2,62.1 26.2,67.9 33.5,67.9 33.5,62.1 34.2,62.1 35.9,63.7 35.9,66 
		37.3,66 37.3,62.8 34.8,60.3 22.3,60.3 22.3,76.1 31.6,76.1 	"/>
	<polygon class="st2" points="34.4,67.9 34.4,72.3 30.5,72.3 35.5,78 40.9,72.3 37.3,72.3 37.3,67.9 	"/>
	<rect x="30.2" y="61.9" class="st2" width="1.7" height="4.5"/>
	<polygon class="st2" points="59.3,73.9 65.4,73.9 65.4,61.5 63.2,61.5 63.2,67.3 55.8,67.3 55.8,61.5 55.1,61.5 53.5,63.1 
		53.5,65.5 52,65.5 52,62.2 54.5,59.7 67.1,59.7 67.1,75.5 57.8,75.5 	"/>
	<polygon class="st2" points="55,67.3 55,71.7 58.9,71.7 53.8,77.4 48.5,71.7 52,71.7 52,67.3 	"/>
	
		<rect x="57.4" y="61.3" transform="matrix(-1 -4.436863e-11 4.436863e-11 -1 116.5602 127.1955)" class="st2" width="1.7" height="4.5"/>
</g>
</svg>
