<svg xmlns="http://www.w3.org/2000/svg" viewBox="0 0 86.3 86.4"><defs><style>.cls-1,.cls-3{fill:#fff;}.cls-1{stroke:#d2d3d4;}.cls-1,.cls-2,.cls-3,.cls-5{stroke-miterlimit:10;}.cls-2,.cls-5{fill:none;}.cls-2,.cls-3,.cls-5{stroke:#f79421;stroke-width:0.75px;}.cls-4{fill:#f79421;}.cls-5{stroke-linecap:round;}</style></defs><title>highly_interactive</title><g id="Layer_1" data-name="Layer 1"><path class="cls-1" d="M77,87.8H14.5A11.39,11.39,0,0,1,3.1,76.4V13.8A11.39,11.39,0,0,1,14.5,2.4H77A11.39,11.39,0,0,1,88.4,13.8V76.3A11.35,11.35,0,0,1,77,87.8Z" transform="translate(-2.6 -1.9)"/></g><g id="Layer_3" data-name="Layer 3"><rect class="cls-2" x="15.47" y="21.02" width="54.32" height="41.94" rx="4.1"/><rect class="cls-2" x="18.79" y="24.8" width="47.9" height="33.81"/><path class="cls-3" d="M50.8,62.39l-1.33,2.38H40l-1.32-2.38h-26v2.17a2.77,2.77,0,0,0,2.78,2.78H74a2.77,2.77,0,0,0,2.78-2.78V62.39Z" transform="translate(-2.6 -1.9)"/><path class="cls-4" d="M49.24,43.33v8.11a.4.4,0,0,0,.62.34c1.13-.72,3.54-1.9,4.93-.08a.41.41,0,0,1,0,.51l-6.7,7a.31.31,0,0,1-.2.11c-.76.18-5.1,1-7.28-.85l0,0A5.71,5.71,0,0,1,39.1,55.3V49.39a1.1,1.1,0,0,1,1.56-.86.4.4,0,0,0,.51-.22,1.74,1.74,0,0,1,2.34-1.21.39.39,0,0,0,.51-.21,1.39,1.39,0,0,1,1.79-1,.39.39,0,0,0,.54-.35l0-2.42a.41.41,0,0,1,.05-.19,1.64,1.64,0,0,1,1.49-.85H48A1.55,1.55,0,0,1,49.24,43.33Z" transform="translate(-2.6 -1.9)"/><line class="cls-5" x1="38.71" y1="49.27" x2="38.71" y2="46.11"/><line class="cls-5" x1="41.33" y1="48.32" x2="41.33" y2="45.16"/><line class="cls-5" x1="43.7" y1="47.37" x2="43.7" y2="44.21"/><path class="cls-4" d="M41,57.15h2.27a3.57,3.57,0,0,1,3.57,3.57v2.66a0,0,0,0,1,0,0h-9.4a0,0,0,0,1,0,0V60.72A3.57,3.57,0,0,1,41,57.15Z"/><path class="cls-5" d="M43.61,43.71a4.37,4.37,0,1,1,8.73,0" transform="translate(-2.6 -1.9)"/><line class="cls-5" x1="38.36" y1="41.81" x2="34.73" y2="41.81"/><line class="cls-5" x1="40.41" y1="36.55" x2="37.85" y2="34.11"/><line class="cls-5" x1="50.25" y1="36.55" x2="52.74" y2="34.11"/><line class="cls-5" x1="52.56" y1="41.81" x2="56.03" y2="41.81"/><line class="cls-5" x1="45.17" y1="32.22" x2="45.17" y2="35.33"/></g></svg>