<?xml version="1.0" encoding="utf-8"?>
<!-- Generator: Adobe Illustrator 23.0.3, SVG Export Plug-In . SVG Version: 6.00 Build 0)  -->
<svg version="1.1" xmlns="http://www.w3.org/2000/svg" xmlns:xlink="http://www.w3.org/1999/xlink" x="0px" y="0px"
	 viewBox="0 0 90 90" style="enable-background:new 0 0 90 90;" xml:space="preserve">
<style type="text/css">
	.st0{fill:#FFFFFF;stroke:#D2D3D4;stroke-miterlimit:10;}
	.st1{fill:none;stroke:#F79421;stroke-width:0.5;stroke-miterlimit:10;}
	.st2{fill:none;stroke:#F79421;stroke-miterlimit:10;}
	.st3{fill:#FFFFFF;stroke:#F79421;stroke-width:0.5;stroke-miterlimit:10;}
	.st4{fill:#F79421;}
	.st5{fill:#FFFFFF;stroke:#F79421;stroke-miterlimit:10;}
</style>
<g id="Layer_1">
	<g>
		<path class="st0" d="M77,87.8H14.5c-6.3,0-11.4-5.1-11.4-11.4V13.8c0-6.3,5.1-11.4,11.4-11.4H77c6.3,0,11.4,5.1,11.4,11.4v62.5
			C88.5,82.7,83.3,87.8,77,87.8z"/>
	</g>
</g>
<g id="Layer_2">
	<path class="st1" d="M17.6,26.1l0.2,1.5l-0.5,0.3l-0.2-1.1L16,26.3l-0.2,2l-0.2,0.6c0,0,0.9,0,1.1,0.8l1.3,0.6l2.8,0.3l1.3,0.3
		l0.4-2v-1.4l0.2-0.7L18,25.6L17.6,26.1z"/>
	<polyline class="st1" points="16,28.7 15.6,28.9 14.7,31.2 14,32.9 13.6,33.5 13.6,34.5 18.6,35.8 20.8,36.3 21.5,33.4 21.3,32.8 
		22,32.3 22.3,31.5 22.3,31.2 22.2,31 	"/>
	<polyline class="st1" points="22.8,26.8 23.8,26.9 23.6,28.3 23.8,29.2 24,29.7 24.2,30.4 24.6,30.7 24.1,31.8 24.3,32.3 
		24.8,31.8 25.4,33.8 27.2,33.8 26.7,37.7 20.8,36.3 	"/>
	<polyline class="st1" points="24,27.1 29,28 31.4,28.3 34,28.7 34.7,28.7 34.2,34.3 27.5,33.4 27.2,33.8 	"/>
	<polyline class="st1" points="34.9,28.8 38.7,29.1 41.1,29.1 41.1,30.5 41.3,30.7 41.5,33.2 34.4,33 	"/>
	<polyline class="st1" points="34.2,34.6 33.9,37.2 39.5,37.2 39.8,37.7 41,37.7 41.7,38.5 41.5,36.9 41.7,35.4 41.5,33.4 	"/>
	<path class="st1" d="M41.8,36.7h4.3h1l-0.4-0.8l-0.4-0.3l-0.5-0.4L45.1,35l0.2-1.2l-0.1-0.4l0.7-0.5l-0.2-0.6c0,0,1.7-1.8,2.2-1.9
		c0,0-0.6-0.4-1.4-0.3L46,30.1l-1.2-0.5l-1.2-0.1l-0.4-0.2l-0.1-1l-0.5,0.2l0.1,0.4l-1.5,0.3"/>
	<polyline class="st1" points="46,32.2 46.8,31.9 47.6,32.5 47.9,32.7 49.1,33 49.8,33.2 50.3,34 50,34.9 51,33.9 50.5,35.7 
		50.4,37.7 50.3,38 47.6,38 47.1,37.3 47,36.7 	"/>
	<polyline class="st1" points="47.7,32.2 48.8,31.5 49.5,30.7 49.5,31.2 49.5,31.5 50.6,32.2 51.3,31.9 52.6,31.7 52.9,32 
		53.3,31.7 53.8,32.5 52,32.5 51,33.2 50.3,34 	"/>
	<polyline class="st1" points="41.9,38.8 42.3,39.5 42.3,40.2 42.4,40.7 42.4,40.9 43.1,40.8 43.8,41.1 45.6,40.9 46.2,40.7 
		46.6,40.7 47,40.9 47.4,40.2 47.2,39.9 47.2,39.5 47.4,39.4 47.7,39.3 48.2,38.8 48.1,38.5 47.9,38 	"/>
	<path class="st1" d="M47.1,41.1v0.8l0.4,0.5l0.7,0.7v0.3l0.5,0.7l0.6,0.5l0.2,0.7h0.3h0.6v-0.4l0.4-0.2v-0.4l0.5-0.3h0.9l0.4-0.4
		l0.1,0.4l0.5-0.4l0.3-0.8h0.6L54,42.5c0,0,0-1,0-1.1c0-0.1-0.2-2.8-0.2-2.8H53l-1.4,0.3L50.9,39l-0.4-0.8"/>
	<polyline class="st1" points="33.9,37.7 33.9,39.9 28.7,39.5 26.4,39 26.8,38 	"/>
	<polyline class="st1" points="28.5,39.9 28,44.9 35.3,45.7 35.3,43.2 35.6,41.8 35.6,41.1 35.5,39.9 34.4,39.9 	"/>
	<polyline class="st1" points="23.6,37.3 22.6,42.8 22.3,45.3 21.4,44.9 21.2,46.7 16.8,39.9 18,35.9 	"/>
	<path class="st1" d="M13.6,35l-0.8,1.8c0,0,0.4,0.8,0.4,0.9c0,0.2-0.3,1.3,0.4,2.8c0,0,0,0.9,0.2,1.7c0,0-0.1,1.4,0.4,1.9
		c0,0,0.5,1.1,0.4,1.6c0,0,0.9,0.5,1.6,1.3c0,0,1,0.9,1.3,2.1l0.5,0.4l2.8,0.3l-0.2-0.9l0.7-1.1v-0.7"/>
	<polyline class="st1" points="22.8,44 27.6,45 26.7,52.6 26.4,52.8 25.2,52.6 23.8,52.3 20.9,50.4 20.8,50.1 	"/>
	<polyline class="st1" points="27,52.8 27.6,53 27.8,52.3 29.4,52.3 29.9,52.8 30.1,52.3 33.7,52.6 33.9,48.4 34.4,47.2 34.4,46 	
		"/>
	<path class="st1" d="M30.1,53.2c0,0,0.9,0.3,1.3,2c0,0,0.1,0.6,1.3,1.3c0,0,0.4,0.8,1.2-0.6c0,0,1.3-0.4,2.4,1.1
		c0,0,0.3,1.5,1.2,2.2c0,0,0.5,0.8,0.6,1.7c0,0,1.6,1.7,2.6,0.9c0,0-0.9-1.3,0.3-3c0,0,0.4-0.5,1.3-0.9c0,0,0.1,0.1,1-0.8
		c0,0,1-0.8,1.6-0.8l0.3-1.9l-0.3-0.5l-0.1-0.7l-0.3-1.1l0.1-0.9l-0.3-0.6l-0.5-0.2c0,0-0.6-0.3-0.7-0.4S42.3,50,42.3,50l-0.3,0.3
		l-0.6,0.1l-0.7,0L40,50h-0.4h-0.5h-0.7v-0.5h-0.6l-0.2-3.2l-3.1-0.1"/>
	<path class="st1" d="M34.7,46v-0.3c0,0,9.3,0.7,9.1,0.5s0,1.1,0,1.1L43.7,49l0.2,1.2"/>
	<path class="st1" d="M36,41.6l6.9,0.2c0,0-0.2,0.4,0.5,0.9l0.2,2.9"/>
	<polyline class="st1" points="49.7,46 49.2,46.7 48.8,47.6 48.7,48.4 47.9,49.5 47.4,50.4 47.7,51.2 47.9,51.5 45,51.5 	"/>
	<path class="st1" d="M49.1,48.4c0.1,0.1,2,0,2,0v3.4v2.3l0.2,1l-0.7,0.3h-0.4h-0.5v0.5c0,0,0.6,0.4,0.5,0.5
		c-0.2,0.2-0.3,0.3-0.3,0.3s-0.2,0.2-1.6,0c0,0-1.1-0.4-2.1-0.3l-1.1-0.1"/>
	<path class="st1" d="M51.5,48.4l2.4-0.2l0.6,2l0.6,1.3l-0.3,0.6l0.3,1.5l0.3,0.5l1.4-0.2l1.3,0.2l0.8,0.2l0.1-0.5
		c0,0,0.2-0.8,0.6-0.3c0,0,0.2,1.9,1.4,2.8c0,0,1.3,2,1.2,3.7c0,0,0,1.7-1.6,0.7c0,0-1.4-1.4-1.9-2.2l-0.3-1.1c0,0,0.2-1.6-1.6-2.2
		c0,0-0.9-0.1-1.6,0.4c0,0-0.6-0.7-2.2-0.8c-1.6-0.1-0.3,0-0.3,0l-1.1,0.3"/>
	<path class="st1" d="M54.5,48c0,0,1-0.3,1.9,0.2c0,0,1.8,1.3,2.9,2.8l0.6,0.9l-0.3,0.5v0.4v0.3"/>
	<path class="st1" d="M49.8,45.3c0,0,0.7-0.7,1.5-1.5c0,0,0.7-1,0.5-1.7"/>
	<path class="st1" d="M61.1,47.7c0,0-0.4-0.1-0.5-0.2c-0.2,0-0.2-0.1-0.9,0.1c0,0-0.9-0.8-2.9,0.1c0,0-0.1,0.1-0.6,0.2"/>
	<path class="st1" d="M49.9,46.4l5.9-0.6l2.2-0.2c0,0-1.7,1.6-2.7,2"/>
	<path class="st1" d="M48.3,39.1L54,38c0,0,1.3,1.1-0.2,2.5c-1.4,1.4-0.1,0-0.1,0s-1.2,1.3-1.3,1.8c0,0-0.3,0.2-0.5,0"/>
	<path class="st1" d="M64.1,43.9c0,0-0.9-1.5-1.7-1.8l-0.2-0.3v-0.5l-0.1-0.3c0,0-0.5-1.1-1.9-0.3c0,0-0.4,0.6-0.7,0.2
		c0,0-0.9-0.8-1.8,0.4L57.2,42l-0.3,0.7L56.7,43l0.2,0.4c0,0,0.3,0.4,0.3,0.4s0,0.3,0,0.3l-0.3,0.5l-0.4,0.6l-0.3,0.3"/>
	<path class="st1" d="M56.5,42.8c0,0-0.2-0.2-0.8,0c0,0-0.7-0.1-0.9-0.4c0,0-0.4-0.2-0.7-0.1"/>
	<path class="st1" d="M54.1,38.7c0,0,0.6-0.2,1.3,0c0,0,0.8,0.4,1.9-0.7c0,0,0.4-0.6,0.7-0.2c0,0,0.6,1.9,0.1,2.7"/>
	<path class="st1" d="M48,31.4c0,0,0.2-0.4,0.8-0.4c0,0,1.9,0.1,3.3-0.5c0,0,1-0.6,1.4,0.3c0,0,0.5,0.5,0.3,1.1c0,0-0.2,0.5,0.2,0.6
		c0,0,0.4,0.5-0.7,1c0,0-1.9,0.5-3.9,1"/>
	<path class="st1" d="M48.4,30.8c1.2-0.8,0.7-1.2,0.7-1.2c-0.2-0.7,0.7-0.6,0.7-0.6c1.4,0.1,1.4-0.2,1.4-0.2
		c0.9-0.5,0.3-1.2,0.3-1.2c-0.1-0.6,0.5-1,0.5-1c1.1-1,1.9-0.7,2-0.8c0,0,0.5,0.5,0.5,1.6c0,0,0.7,1.6,0.5,3.5c0,0-0.2,0.7,1,0
		c0,0,0.8-0.8,0.9,0c0,0-0.2,0.7-2,0.9c0,0-0.2-1-0.9-0.6"/>
	<path class="st1" d="M51.8,30.1c0,0,0.5-0.3,1-0.3c0,0,0.6-0.1,0.4,0.6c0,0-0.3,0.7-0.3,2.1c0,0-0.2,0.3-0.4,0.1"/>
	<path class="st1" d="M52.6,33.7c0,0,0.3-0.3,0.9-0.2c0,0,0.7,0,0.5,0.7"/>
	<path class="st1" d="M52.9,32.5c0,0,0.6,0.3,1.2-0.4c0,0,0.3-0.3,0.4,0.4c0,0,0.2,0.7,0.8,0.6c0,0,0.4-0.6,0.4-0.2
		c0,0,0,1.3-1.4,0.4c0,0-0.3-0.2-0.4,0.1"/>
	<path class="st2" d="M54.5,32c0,0,0-1.3,0.9-2l1.1-0.9c0,0,0.7-0.7-0.4-1.1c0,0-0.4,0-0.5-1.5c0,0-0.2-0.9-1.2-0.4
		c0,0-0.6-0.1-0.7,1.1c0,0,0.3,1.4-0.4,2l-0.2,0.3l0.6,0.5c0,0,0.3,1.3,0.3,1.4C54.1,31.5,54.5,32,54.5,32z"/>
	<path class="st1" d="M55.3,38.2c0,0-0.4-0.3,0.4-1.2c0,0,0.6-2.6-1.2-1.3c0,0-0.5-0.3,0-1.1c0,0,0-2.8-1.9-1.2c0,0,0.3,0.2-0.3,0.7
		c0,0-1,1.1-0.2,2.8c0,0,0.8,1-0.3,1.7"/>
	<circle class="st3" cx="39.8" cy="28.7" r="12.1"/>
	<path class="st4" d="M43.4,26.9L43.4,26.9c0.1-0.4,0.2-0.8,0.2-1.2c0-2.4-1.9-4.3-4.3-4.3c-2.4,0-4.3,1.9-4.3,4.3
		c0,0.9,0.3,1.8,0.8,2.5l3.7,7.8l3.6-8.2C43.2,27.6,43.3,27.3,43.4,26.9L43.4,26.9z"/>
	<circle class="st3" cx="39.3" cy="25.4" r="2.7"/>
	<g>
		<rect x="51" y="46.2" class="st5" width="13.5" height="13.8"/>
		<rect x="51" y="61.8" class="st5" width="13.5" height="10.9"/>
		<rect x="66.4" y="46.2" class="st5" width="10.5" height="7.7"/>
		<rect x="66.4" y="55.3" class="st5" width="10.5" height="6.1"/>
		<rect x="66.3" y="62.9" class="st5" width="4.5" height="3.9"/>
		<rect x="72.4" y="62.9" class="st5" width="4.7" height="3.8"/>
		<rect x="66.3" y="68.7" class="st5" width="4.6" height="4"/>
		<rect x="72.4" y="68.7" class="st5" width="4.7" height="4"/>
	</g>
</g>
</svg>
