<svg xmlns="http://www.w3.org/2000/svg" width="54" height="54" viewBox="0 0 54 54">
  <g id="Group_1338" data-name="Group 1338" transform="translate(-1144 -865)">
    <g id="Rectangle_4683" data-name="Rectangle 4683" transform="translate(1144 865)" fill="none" stroke="#ececec" stroke-width="1">
      <rect width="54" height="54" rx="6" stroke="none"/>
      <rect x="0.5" y="0.5" width="53" height="53" rx="5.5" fill="none"/>
    </g>
    <rect id="Rectangle_4932" data-name="Rectangle 4932" width="10.545" height="9.419" transform="translate(1154.896 877.052)" fill="none" stroke="#0d78bf" stroke-miterlimit="10" stroke-width="0.5"/>
    <rect id="Rectangle_4933" data-name="Rectangle 4933" width="10.545" height="9.419" transform="translate(1166.312 877.052)" fill="none" stroke="#0d78bf" stroke-miterlimit="10" stroke-width="0.5"/>
    <rect id="Rectangle_4934" data-name="Rectangle 4934" width="10.545" height="9.419" transform="translate(1177.728 877.052)" fill="none" stroke="#0d78bf" stroke-miterlimit="10" stroke-width="0.5"/>
    <rect id="Rectangle_4935" data-name="Rectangle 4935" width="10.545" height="9.419" transform="translate(1154.896 887.29)" fill="none" stroke="#0d78bf" stroke-miterlimit="10" stroke-width="0.5"/>
    <rect id="Rectangle_4936" data-name="Rectangle 4936" width="10.545" height="9.419" transform="translate(1166.312 887.29)" fill="none" stroke="#0d78bf" stroke-miterlimit="10" stroke-width="0.5"/>
    <rect id="Rectangle_4937" data-name="Rectangle 4937" width="10.545" height="9.419" transform="translate(1177.728 887.29)" fill="none" stroke="#0d78bf" stroke-miterlimit="10" stroke-width="0.5"/>
    <rect id="Rectangle_4938" data-name="Rectangle 4938" width="10.545" height="9.419" transform="translate(1154.896 897.529)" fill="none" stroke="#0d78bf" stroke-miterlimit="10" stroke-width="0.5"/>
    <rect id="Rectangle_4939" data-name="Rectangle 4939" width="10.545" height="9.419" transform="translate(1166.312 897.529)" fill="none" stroke="#0d78bf" stroke-miterlimit="10" stroke-width="0.5"/>
    <rect id="Rectangle_4940" data-name="Rectangle 4940" width="10.545" height="9.419" transform="translate(1177.728 897.529)" fill="none" stroke="#0d78bf" stroke-miterlimit="10" stroke-width="0.5"/>
    <path id="Path_2646" data-name="Path 2646" d="M62.9,60.412v3.942l2.918.512V59.9Z" transform="translate(1117.438 839.727)" fill="#0d78bf" stroke="#0d78bf" stroke-width="0.25"/>
    <path id="Path_2647" data-name="Path 2647" d="M65.01,62.951,64.651,63l.358.819-.41.819.358.051.256-.614.256.665h.358l-.41-.921.41-.921-.358.051-.256.614Z" transform="translate(1116.608 838.263)" fill="#fff" stroke="#fff" stroke-width="0.25"/>
    <path id="Path_2648" data-name="Path 2648" d="M68.9,61H71v3.891H68.9v-.358h1.74V61.307H68.9Z" transform="translate(1114.51 839.19)" fill="#fff" stroke="#0d78bf" stroke-width="0.25"/>
    <rect id="Rectangle_4941" data-name="Rectangle 4941" width="0.154" height="3.071" transform="translate(1184.024 900.651)" fill="#124ca3" stroke="#0d78bf" stroke-width="0.25"/>
    <rect id="Rectangle_4942" data-name="Rectangle 4942" width="1.689" height="0.154" transform="translate(1183.308 901.112)" fill="#124ca3" stroke="#0d78bf" stroke-width="0.25"/>
    <rect id="Rectangle_4943" data-name="Rectangle 4943" width="1.689" height="0.154" transform="translate(1183.308 901.777)" fill="#124ca3" stroke="#0d78bf" stroke-width="0.25"/>
    <rect id="Rectangle_4944" data-name="Rectangle 4944" width="1.689" height="0.154" transform="translate(1183.308 902.443)" fill="#124ca3" stroke="#0d78bf" stroke-width="0.25"/>
    <rect id="Rectangle_4945" data-name="Rectangle 4945" width="1.689" height="0.154" transform="translate(1183.308 903.108)" fill="#124ca3" stroke="#0d78bf" stroke-width="0.25"/>
    <path id="Path_2649" data-name="Path 2649" d="M15.4,27.764h.307V26.586l.461,1.024c.051.1.154.2.256.154.1,0,.256-.051.256-.154l.461-1.024v1.177h.307V26.586c0-.1-.051-.154-.154-.2a.389.389,0,0,0-.461.154l-.461,1.024-.461-1.024q-.077-.23-.461-.154c-.1,0-.154.1-.154.2Z" transform="translate(1140.671 856.097)" fill="#0d78bf" stroke="#0d78bf" stroke-width="0.25"/>
    <path id="Path_2650" data-name="Path 2650" d="M20,27.2h.307v.665c0,.051,0,.1.154.1h.665V27.2h.307v1.075c0,.256-.307.307-.461.307H20v-.2h.921c.2,0,.154-.1.154-.154v-.1h-.614c-.307,0-.461-.154-.461-.256Z" transform="translate(1138.378 855.688)" fill="#0d78bf" stroke="#0d78bf" stroke-width="0.25"/>
    <path id="Path_2651" data-name="Path 2651" d="M23.151,27.782h.87a.384.384,0,0,0,.256-.051.34.34,0,0,0,.2-.256v-.2c0-.1-.051-.154-.2-.2a.461.461,0,0,0-.256-.051h-.358a.266.266,0,0,1-.2-.1v-.2h0c0-.051.051-.1.154-.1h.87v-.2H23.407a.324.324,0,0,0-.256.307v.154c0,.154.154.256.41.256h.461c.1,0,.154,0,.154.051v.2c0,.051,0,.051-.051.051a.188.188,0,0,1-.154.051H23.1v.307Z" transform="translate(1136.865 856.078)" fill="#0d78bf" stroke="#0d78bf" stroke-width="0.25"/>
    <path id="Path_2652" data-name="Path 2652" d="M29.4,27.424c0,.2.154.307.461.358h.87v-.2h-.768c-.154,0-.256-.051-.256-.154V26.4H29.4Z" transform="translate(1133.79 856.078)" fill="#0d78bf" stroke="#0d78bf" stroke-width="0.25"/>
    <path id="Path_2653" data-name="Path 2653" d="M26.1,27.524v-.717c0-.2.154-.307.358-.307h.768c.256.051.358.154.358.307v.717c0,.1-.051.256-.154.256l.307.256H27.38l-.256-.2h-.717Q26.1,27.754,26.1,27.524Zm.358-.051h0c0,.1.1.154.2.154h.256l-.256-.2h.358l.2.2c.051,0,.051-.051.051-.1v-.768c0-.051-.1-.1-.2-.1h-.461c-.154,0-.2.051-.2.154Z" transform="translate(1135.4 856.03)" fill="#0d78bf" stroke="#0d78bf" stroke-width="0.25"/>
    <path id="Path_2654" data-name="Path 2654" d="M22.964,22.261a1.417,1.417,0,0,0-.461.051c-.051,0-.1,0-.1.051a.05.05,0,0,0,.051.051c.051.051.051.1.1.154s.1.051.154.1a1.119,1.119,0,0,1,.256.154c.051.051.1.051.154.1l.051.051h0a.05.05,0,0,0-.051-.051l-.051-.051a.511.511,0,0,0-.256-.2c-.051-.051-.2-.1-.256-.2h0a.188.188,0,0,0,.154-.051c.1,0,.154,0,.2-.051l.1-.051h0c-.051-.051-.051-.1-.1-.154a1.556,1.556,0,0,0-.358-.256c-.051-.051-.154-.051-.256-.1-.051,0-.051,0-.1-.051s-.051-.1-.1-.154c-.051-.154-.154-.256-.2-.41-.051-.1-.051-.154-.1-.256a2.365,2.365,0,0,0-.87-.87c-.1-.051-.2-.051-.307-.1h-.154c-.051,0-.051-.051-.1-.1-.154-.1-.461-.256-.563-.051-.051.154.1.307.154.358s.1.1.1.154,0,.1.051.1c.051.1.051.2.1.307,0,.051.051.1.1.154,0,.051.051.051.051.1s-.051.1-.051.154a1,1,0,0,0,.051.768c.051.051.1.2.256.154s.1-.154.1-.307V21.7h0l.1.2.307.307.154.154h0l-.051-.051c-.051-.051-.1-.1-.1-.154a1.8,1.8,0,0,1-.256-.41c-.051-.051-.051-.154-.1-.2,0-.051,0-.051-.051-.1-.051.051-.1.1-.1.154a.759.759,0,0,0-.051.358h0c-.051,0-.1-.1-.154-.154a2.492,2.492,0,0,1,.051-.614c0-.051.1-.2.051-.256l-.1-.1c-.051-.051-.051-.1-.1-.154-.051-.154-.1-.256-.154-.41-.051-.051-.051-.1-.1-.154l-.154-.154c0-.051-.051-.051,0-.1a.05.05,0,0,1,.051-.051H20.1c.1.051.154.051.2.1.051,0,.051.051.1.1h.051a.308.308,0,0,1,.2.051l.307.154a2.052,2.052,0,0,1,.717.768.188.188,0,0,1,.051.154l.154.307.154.307c.051.051.154.051.256.1.051,0,.1.051.154.051a.707.707,0,0,1,.2.154A3.032,3.032,0,0,1,22.964,22.261Z" transform="translate(1138.485 859.347)" fill="none" stroke="#0d78bf" stroke-width="0.25"/>
    <path id="Path_2655" data-name="Path 2655" d="M21.3,20.8h-.1c0,.051.051.051.051.1l.051.1h0c.051-.051.051-.051.051-.1a.05.05,0,0,0-.051-.051C21.354,20.851,21.354,20.851,21.3,20.8Z" transform="translate(1137.792 858.812)" fill="none" stroke="#0d78bf" stroke-width="0.25"/>
    <path id="path3639" d="M44.2,24.7l-1.229.41L41.9,25.57l-.307.1c-.1.051-.154.154-.256.2-.1.1-.2.154-.256.2-.1.051-.154.154-.256.256-.051.1-.154.2-.154.307a.481.481,0,0,0,.051.461,1.663,1.663,0,0,0,.665.512,2.886,2.886,0,0,0,.614.2,11.086,11.086,0,0,0,1.28.2h.154a.391.391,0,0,0,.1-.256A4.7,4.7,0,0,0,44,26.594a3.979,3.979,0,0,0,.1-.819v-.512a1.417,1.417,0,0,0-.051-.461v-.051c.051,0,.1-.051.154-.051Zm-.256.154a1.417,1.417,0,0,1,.051.461v.051s-.154-.1-.256-.154a1.593,1.593,0,0,1-.307-.2l.051-.051c.1,0,.41-.1.461-.1Zm-.665.2c.051,0,.051.051.1.051.2.1.358.2.563.307.051,0,.051,0-.051.051a2.758,2.758,0,0,1-.665.358l-.051.051v-.051a3,3,0,0,0,.1-.665v-.1Zm-.1.051v.256a1.2,1.2,0,0,1-.1.41v.051l-.154-.154a1.119,1.119,0,0,1-.154-.256.179.179,0,0,0-.051-.1,4.059,4.059,0,0,1,.461-.2Zm-.614.256h0a1.7,1.7,0,0,0,.154.307c.051.1.154.154.2.256l.051.051-.154.051a4.268,4.268,0,0,1-.614.2l-.154.051v-.051a5.167,5.167,0,0,0,.358-.768c.1,0,.1-.051.154-.1Zm-.2.1c-.051.051-.051.154-.1.2a5.583,5.583,0,0,0-.307.563l-.051.051h0a.308.308,0,0,1-.051-.2v-.256c0-.051,0-.051.051-.051.051-.154.461-.358.461-.307ZM44,25.519h0a3.875,3.875,0,0,1-.051.768v.051h-.051a1.029,1.029,0,0,1-.41-.2c-.051-.051-.154-.1-.2-.154l.1-.051c.154-.1.358-.2.512-.307-.051,0,.051-.1.1-.1Zm-2.355.256h0v.154a.432.432,0,0,0,.1.358.05.05,0,0,0,.051.051s-.614.2-.819.256l-.154.051h0a.99.99,0,0,1,.256-.461c.1-.1.2-.154.307-.256.1-.051.256-.154.256-.154Zm1.485.256h0a2.413,2.413,0,0,0,.768.307h0v.051a7.741,7.741,0,0,1-.973.41l-.154.051h0l.051-.051c.1-.256.2-.461.307-.768Zm-.154.051h0a3.127,3.127,0,0,1-.358.717.159.159,0,0,0-.051.1h-.051a2,2,0,0,1-.512-.41h.1a2.676,2.676,0,0,0,.819-.307l.051-.1Zm.921.358h0s-.051.2-.1.358a3.264,3.264,0,0,0-.1.358.516.516,0,0,1-.051.154h0a4.265,4.265,0,0,1-.768-.2.253.253,0,0,0-.154-.051.179.179,0,0,0,.1-.051c.461-.256.87-.461,1.075-.563Zm-2.15.051s-.1.154-.307.41l-.1.2a.11.11,0,0,1-.1.1l-.051.051-.051-.051-.154-.154a.282.282,0,0,1-.154-.256v-.051l.512-.1.358-.1.051-.051Zm.1.051h0a3.312,3.312,0,0,0,.461.41.05.05,0,0,1,.051.051s-.563.2-.87.307l-.256.1h0l.051-.051c.1-.1.2-.256.461-.563l.1-.256Zm.768.512.1.051a.949.949,0,0,0,.358.1c.154.051.358.051.512.1h.051a2.41,2.41,0,0,0-.256.1c-.154.051-.665.2-1.075.307l-.154.051H42.1l.051-.051a3.107,3.107,0,0,0,.358-.512l.1-.154Zm-.154,0a2.341,2.341,0,0,1-.2.307l-.1.2c0,.051-.051.051-.051.1l-.051.051h0a3.262,3.262,0,0,0-.358-.1c-.051-.051-.154-.051-.2-.1s-.1-.051-.154-.1l.307-.1a5.279,5.279,0,0,0,.819-.256Zm1.177.307h0s-.154.41-.2.563v.051a2.886,2.886,0,0,0-.358-.051,5.874,5.874,0,0,0-.717-.1h0l.154-.051a3.484,3.484,0,0,0,.614-.154c.2-.051.358-.154.563-.2-.1-.051-.1-.051-.051-.051Z" transform="translate(1128.306 856.908)" fill="none" stroke="#0d78bf" stroke-width="0.15"/>
    <path id="path3667" d="M43.831,19a4.2,4.2,0,0,0-.563.2c-.2.1-.461.2-.665.307l-.1.1v.051l.1.1.307.1.717.154.819.154v-.051h-.1v-.051a6.831,6.831,0,0,1-.307-.614c-.051-.1-.1-.256-.154-.358l-.051-.1Zm0,.051h0V19.1a1.2,1.2,0,0,0,.1.41c.051.1.051.1,0,.1a5.94,5.94,0,0,0-.819-.154h-.1l.307-.154a1.58,1.58,0,0,1,.512-.256Zm-.921.41h0a7.248,7.248,0,0,0,1.024.2h.051l-.051.051a2.226,2.226,0,0,0-.358.2.05.05,0,0,0-.051.051h-.1l-.1-.1-.41-.41Zm-.051.051.154.154.154.2.051.051a1.81,1.81,0,0,0-.307-.051c-.1,0-.154-.051-.2-.051h-.051c0-.1.1-.2.2-.307Zm1.126.256h0l.154.307h-.1a3.046,3.046,0,0,0-.41-.051h0a1.071,1.071,0,0,0,.307-.2l.051-.051Z" transform="translate(1127.396 859.69)" fill="none" stroke="#0d78bf" stroke-width="0.15"/>
    <path id="path2851" d="M42.061,20.3v.1c0,.051.051.051.1.1l.461.461a1.452,1.452,0,0,1,.358.87,1.417,1.417,0,0,1-.154.665A4.819,4.819,0,0,1,41.6,23.935l.1-.051a2.226,2.226,0,0,1,.358-.2c.512-.256,1.024-.512,1.536-.717a22.365,22.365,0,0,1,3.174-.87h.1a.511.511,0,0,0-.2-.256A3.525,3.525,0,0,0,46,21.273a4.8,4.8,0,0,0-1.433-.512,3.342,3.342,0,0,1-.563-.1c-.41-.051-.717-.1-1.024-.154-.1,0-.256-.051-.41-.051-.1,0-.154-.051-.256-.051-.154,0-.256,0-.256-.1Zm.256.256h0c.051,0,.1.051.154.051l.1.051.1.051s.1.307.154.41v.051a2.048,2.048,0,0,0-.512-.614Zm.461.1h0a3.523,3.523,0,0,0,.665.1h0c-.051,0-.154.1-.2.1a1.117,1.117,0,0,0-.256.2l-.051.051v-.051a1.122,1.122,0,0,1-.154-.41Zm.819.154c0,.051.051.051.051.1a1.272,1.272,0,0,1,.051.41v.1h-.051a.964.964,0,0,0-.41-.1.224.224,0,0,1-.154-.051l.154-.154a2.227,2.227,0,0,1,.358-.307Zm.051,0a4.564,4.564,0,0,1,.563.1,1.116,1.116,0,0,1,.307.051l-.051.051a3.818,3.818,0,0,0-.614.358l-.1.051v-.051a2.177,2.177,0,0,0-.1-.563Zm.973.2v.1a2.744,2.744,0,0,1-.256.563.051.051,0,1,1-.1,0c-.1-.051-.256-.154-.358-.2l-.051.051.461-.307a1.473,1.473,0,0,1,.307-.2Zm.1,0a2.217,2.217,0,0,0,.256.051,5.741,5.741,0,0,1,.665.256l.051.051h-.051a8.821,8.821,0,0,0-1.075.358h-.051v-.051a2.535,2.535,0,0,0,.2-.665Zm-1.74.41a1.161,1.161,0,0,0,.2.051,2.087,2.087,0,0,0,.358.1l-.051.051c-.1.1-.256.2-.41.358a.159.159,0,0,1-.1.051h0v-.563c.051,0,.051,0,0-.051Zm2.764,0a.736.736,0,0,1-.1.154,4.082,4.082,0,0,1-.307.41l-.256.307-.051.1-.051-.051a2.926,2.926,0,0,0-.358-.41l-.051-.051h0l.307-.1a4.012,4.012,0,0,1,.717-.256.736.736,0,0,1,.154-.1Zm.051,0a.05.05,0,0,1,.051.051,6.394,6.394,0,0,1,.614.461l.154.154h-.1a6.561,6.561,0,0,0-1.382.256h-.051l.1-.1a2.138,2.138,0,0,0,.563-.768l.051-.051Zm-2.048.256a.729.729,0,0,1,.2.1l.2.1a.159.159,0,0,0-.1.051,4.756,4.756,0,0,1-.512.256l-.1.051v-.051a1.062,1.062,0,0,0,.307-.512Zm-.154,0c0,.051-.051.1-.051.2a2.5,2.5,0,0,1-.154.358l-.051.1V22.4l-.051-.051-.154-.154a.05.05,0,0,1-.051-.051c.1-.1.2-.154.256-.256a1.4,1.4,0,0,0,.256-.2Zm.768.307h0c.154.1.256.2.358.256l.154.154h-.051a10.318,10.318,0,0,0-1.177.358l-.1.051.1-.1a1.925,1.925,0,0,0,.717-.717Zm-.2.051a1.473,1.473,0,0,1-.2.307,3.61,3.61,0,0,0-.358.461l-.1.1V22.86a.949.949,0,0,0-.1-.358V22.45s.307-.154.461-.256a1.512,1.512,0,0,0,.307-.154Zm-1.177.307h0a.707.707,0,0,1,.2.154l-.051.051c-.1.051-.2.154-.307.2s-.1.051-.051.051a.388.388,0,0,0,.1-.2c0-.1.051-.154.1-.256Zm.307.256h0a1.683,1.683,0,0,1,.154.307h0l-.1.051a3.714,3.714,0,0,0-.614.256l-.154.051-.1.051.051-.051a4.452,4.452,0,0,0,.768-.665Zm-.154,0c-.051.051-.1.154-.154.2a1.4,1.4,0,0,1-.614.461l-.051.051.1-.1a.707.707,0,0,0,.154-.2c0-.051.051-.051.1-.1Z" transform="translate(1127.835 859.056)" fill="none" stroke="#0d78bf" stroke-width="0.15"/>
    <path id="Path_2656" data-name="Path 2656" d="M65.069,20.5c-1.638,0-2.969.973-2.969,2.15,0,.973.87,1.74,2.048,2.048v-.717a1.373,1.373,0,0,1-.819-1.177c0-.819.973-1.485,2.15-1.485s2.15.665,2.15,1.485a1.208,1.208,0,0,1-.358.819v.461a1.847,1.847,0,0,0,.768-1.433C68.038,21.473,66.707,20.5,65.069,20.5Z" transform="translate(1117.829 858.958)" fill="none" stroke="#0d78bf" stroke-width="0.25"/>
    <path id="Path_2657" data-name="Path 2657" d="M69.408,25.555a1.062,1.062,0,0,0-.512-.307s.717-.256.819-.819a1.016,1.016,0,0,0-.563-1.229H66.9v3.635h1.024V25.35a.48.48,0,0,1,.41.307l.614,1.177h1.177Zm-.768-.973h-.768v-.717h.768a.479.479,0,0,1,.051.665c0,.051,0,.051-.051.051Z" transform="translate(1115.486 857.64)" fill="none" stroke="#0d78bf" stroke-width="0.25"/>
    <path id="Path_2658" data-name="Path 2658" d="M20.923,39.8H20a.787.787,0,0,0-.768.768h0v.41h1.331v.2h-2a.744.744,0,0,0-.768.717v1.024a.809.809,0,0,0,.819.819h.41v-.614a.787.787,0,0,1,.768-.768H21.23a.513.513,0,0,0,.512-.512h0v-1.28a.767.767,0,0,0-.819-.768Zm-1.126.768a.2.2,0,1,1,.2-.2c.051.1-.051.2-.2.2Z" transform="translate(1139.451 849.538)" fill="#fff" stroke="#0d78bf" stroke-width="0.25"/>
    <path id="Path_2659" data-name="Path 2659" d="M21.419,46.442h.921a.787.787,0,0,0,.768-.768h0v-.41H21.777v-.2h2a.787.787,0,0,0,.768-.768v-.973a.809.809,0,0,0-.819-.819h-.41v.614a.787.787,0,0,1-.768.768H21.112a.513.513,0,0,0-.512.512h0v1.28a.8.8,0,0,0,.819.768Zm1.126-.768a.2.2,0,1,1-.2.2c-.051-.1.051-.2.2-.2Z" transform="translate(1138.085 848.22)" fill="#fff" stroke="#0d78bf" stroke-width="0.25"/>
    <ellipse id="Ellipse_800" data-name="Ellipse 800" cx="1.74" cy="0.461" rx="1.74" ry="0.461" transform="matrix(0.995, -0.098, 0.098, 0.995, 1170.014, 890.432)" fill="none" stroke="#0d78bf" stroke-width="0.25"/>
    <ellipse id="Ellipse_801" data-name="Ellipse 801" cx="1.74" cy="0.461" rx="1.74" ry="0.461" transform="matrix(0.995, -0.098, 0.098, 0.995, 1169.961, 892.38)" fill="none" stroke="#0d78bf" stroke-width="0.25"/>
    <path id="Path_2660" data-name="Path 2660" d="M46.232,38.8s-.2.614-3.532.87v1.382s3.071-.1,3.532-.921Z" transform="translate(1127.298 850.026)" fill="#fff" stroke="#0d78bf" stroke-width="0.25"/>
    <path id="Path_2661" data-name="Path 2661" d="M46.183,42s-.256.768-3.583,1.024v1.382s3.071-.1,3.532-.921Z" transform="translate(1127.347 848.464)" fill="#fff" stroke="#0d78bf" stroke-width="0.25"/>
    <path id="Path_2662" data-name="Path 2662" d="M46.232,45.9s-.2.614-3.532.819V48.1s3.071-.1,3.532-.921Z" transform="translate(1127.298 846.56)" fill="#fff" stroke="#0d78bf" stroke-width="0.25"/>
    <path id="Path_2663" data-name="Path 2663" d="M21.563,61.5H21.1l-.1.051v3.635l.1.1h.461l.1-.1V61.6Z" transform="translate(1137.89 838.946)" fill="#fff" stroke="#0d78bf" stroke-width="0.25"/>
    <path id="Path_2664" data-name="Path 2664" d="M24.138,61.5,22.5,63.138v.614l2.252-2.1-.1-.1Z" transform="translate(1137.157 838.946)" fill="#fff" stroke="#0d78bf" stroke-width="0.25"/>
    <path id="Path_2665" data-name="Path 2665" d="M23.461,64.9l1.587,1.894L25,66.948h-.563L23,65.258Z" transform="translate(1136.914 837.287)" fill="#fff" stroke="#0d78bf" stroke-width="0.25"/>
    <path id="Path_2666" data-name="Path 2666" d="M71.971,42.313l.563.2a.25.25,0,0,0,.307-.256l-.41-.768.614-.665a.05.05,0,0,1,.051-.051c0-.1.051-.256-.2-.256h0l-.87.2-.307-.563-.051-.051a.242.242,0,0,0-.41.051v.051l-.154.768-.768.256a.221.221,0,0,0-.051.41l.563.307.358-.2a4.757,4.757,0,0,1-.512-.256l.768-.2.154-.717.358.563.768-.2-.512.614.307.665-.563-.154Z" transform="translate(1113.896 849.431)" fill="#0d78bf" stroke="#0d78bf" stroke-width="0.15"/>
    <path id="Path_2667" data-name="Path 2667" d="M61.636,43.691a.644.644,0,0,0-.717-.307s-.512.1-.461.512a.709.709,0,0,0,.256.512l.256.307a.213.213,0,0,1,0,.307.284.284,0,0,1-.41,0l-.1-.154-.358.2s.051.307.512.41a.8.8,0,0,0,.665-.256s.256-.307.154-.563a1.454,1.454,0,0,0-.41-.512s-.307-.256-.1-.41c0,0,.2-.2.41.154Z" transform="translate(1118.805 847.796)" fill="#0d78bf" stroke="#0d78bf" stroke-width="0.25"/>
    <path id="Path_2668" data-name="Path 2668" d="M67.108,44.4a.858.858,0,0,0-.717.512.785.785,0,0,0,0,.819.753.753,0,0,0,.87.2l.051-.41a.462.462,0,0,1-.614.051s-.256-.154-.051-.512a.612.612,0,0,1,.563-.256.329.329,0,0,1,.307.307l-.1.819h.307l.1-.87C67.876,45.065,67.927,44.451,67.108,44.4Z" transform="translate(1115.79 847.293)" fill="#0d78bf" stroke="#0d78bf" stroke-width="0.15"/>
    <path id="Path_2669" data-name="Path 2669" d="M70.37,44.5h-.307a.451.451,0,0,0-.41.358L69.5,45.985h.358l.154-1.075s0-.1.154-.1h.154Z" transform="translate(1114.217 847.244)" fill="#0d78bf" stroke="#0d78bf" stroke-width="0.15"/>
    <path id="Path_2670" data-name="Path 2670" d="M71.814,43.5l-.41.256-.2,1.74h.358l.1-.819a7.81,7.81,0,0,0,.563.819h.461l-.717-.973.41-.461-.051-.358-.614.563Z" transform="translate(1113.387 847.732)" fill="#0d78bf" stroke="#0d78bf" stroke-width="0.15"/>
    <path id="Path_2671" data-name="Path 2671" d="M63.826,44.395a.889.889,0,0,0-.921.563.516.516,0,0,0-.051.154l-.154,1.28h.307l.1-.563a.862.862,0,0,0,.819.051,1.061,1.061,0,0,0,.512-.717C64.389,45.162,64.492,44.548,63.826,44.395Zm.256.921a.456.456,0,1,1-.307-.614A.522.522,0,0,1,64.082,45.316Z" transform="translate(1117.536 847.298)" fill="#0d78bf" stroke="#0d78bf" stroke-width="0.15"/>
    <path id="Path_2672" data-name="Path 2672" d="M38.9,59.9h3.02l1.433,1.536-.256.256.563.614v1.075l-1.229-1.075-.307.307L43.3,63.842H42.176l-.665-.665-.256.358L39.719,62.05v-.819h.819v.41l.717.717.921-.973-.614-.614H39.719Z" transform="translate(1129.152 839.727)" fill="#fff" stroke="#0d78bf" stroke-width="0.25"/>
    <path id="Path_2673" data-name="Path 2673" d="M48.363,61.7l-.563.563.665.717v1.74h.87V62.673Z" transform="translate(1124.809 838.849)" fill="#fff" stroke="#0d78bf" stroke-width="0.25"/>
    <path id="Path_2674" data-name="Path 2674" d="M46.651,67.768s.87.819.819.819h-4.2l-.973-.973L42.914,67l.665.717Z" transform="translate(1127.493 836.262)" fill="#fff" stroke="#0d78bf" stroke-width="0.25"/>
  </g>
</svg>
