<svg xmlns="http://www.w3.org/2000/svg" width="54" height="54" viewBox="0 0 54 54">
  <g id="Group_1336" data-name="Group 1336" transform="translate(-1145 -366)">
    <path id="Path_2541" data-name="Path 2541" d="M39.5,41.684H13.36a1.035,1.035,0,0,1-1.06-1.06V22.36a1.035,1.035,0,0,1,1.06-1.06H39.5a1.035,1.035,0,0,1,1.06,1.06V40.624A1.066,1.066,0,0,1,39.5,41.684Z" transform="translate(1143.023 360.573)" fill="none" stroke="#0d78bf" stroke-miterlimit="10" stroke-width="0.5"/>
    <rect id="Rectangle_4867" data-name="Rectangle 4867" width="6.256" height="0.252" transform="translate(1159.663 391.258)" fill="#fff" stroke="#0d78bf" stroke-width="0.25"/>
    <rect id="Rectangle_4868" data-name="Rectangle 4868" width="1.514" height="2.977" transform="translate(1160.975 387.979)" fill="#fff" stroke="#0d78bf" stroke-width="0.5"/>
    <rect id="Rectangle_4869" data-name="Rectangle 4869" width="1.514" height="5.096" transform="translate(1163.599 385.859)" fill="#fff" stroke="#0d78bf" stroke-width="0.5"/>
    <rect id="Rectangle_4870" data-name="Rectangle 4870" width="6.256" height="0.252" transform="translate(1171.923 390.854)" fill="#fff" stroke="#0d78bf" stroke-width="0.25"/>
    <rect id="Rectangle_4871" data-name="Rectangle 4871" width="6.256" height="0.252" transform="translate(1171.96 391.104) rotate(-90)" fill="#fff" stroke="#0d78bf" stroke-width="0.25"/>
    <path id="Path_2542" data-name="Path 2542" d="M46.8,33.444V31.123L48.364,28.6l1.413,3.683,1.312-2.371.858,3.532Z" transform="translate(1125.931 356.957)" fill="#fff" stroke="#0d78bf" stroke-width="0.5"/>
    <rect id="Rectangle_4872" data-name="Rectangle 4872" width="5.146" height="0.252" transform="translate(1171.229 398.122) rotate(-90)" fill="#fff" stroke="#0d78bf" stroke-width="0.5"/>
    <rect id="Rectangle_4873" data-name="Rectangle 4873" width="1.514" height="5.096" transform="translate(1171.798 395.099) rotate(-90)" fill="#fff" stroke="#0d78bf" stroke-width="0.5"/>
    <rect id="Rectangle_4874" data-name="Rectangle 4874" width="1.514" height="3.229" transform="translate(1171.792 397.146) rotate(-90)" fill="#fff" stroke="#0d78bf" stroke-width="0.5"/>
    <path id="Path_2543" data-name="Path 2543" d="M21.4,45.616l1.362,1.766,1.211-2.321,1.766,3.179,2.674-4.44" transform="translate(1138.515 349.426)" fill="none" stroke="#0d78bf" stroke-miterlimit="10" stroke-width="0.5"/>
    <rect id="Rectangle_4875" data-name="Rectangle 4875" width="3.683" height="2.926" transform="translate(1167.332 402.257)" fill="rgba(0,0,0,0)" stroke="#0d78bf" stroke-miterlimit="10" stroke-width="0.5"/>
    <rect id="Rectangle_4876" data-name="Rectangle 4876" width="13.724" height="1.867" transform="translate(1161.934 404.275)" fill="#fff" stroke="#0d78bf" stroke-miterlimit="10" stroke-width="0.5"/>
    <path id="Path_2544" data-name="Path 2544" d="M69.186,55.28H60.255a.56.56,0,0,1-.555-.555V41.455a.56.56,0,0,1,.555-.555h8.931a.56.56,0,0,1,.555.555v13.27A.5.5,0,0,1,69.186,55.28Z" transform="translate(1119.539 350.863)" fill="#fff" stroke="#0d78bf" stroke-miterlimit="10" stroke-width="0.5"/>
    <circle id="Ellipse_772" data-name="Ellipse 772" cx="0.367" cy="0.367" r="0.367" transform="translate(1184.184 404.578)" fill="rgba(0,0,0,0)" stroke="#0d78bf" stroke-miterlimit="10" stroke-width="0.25"/>
    <path id="Path_2545" data-name="Path 2545" d="M56.992,61.786H53.057a.776.776,0,0,1-.757-.757V53.057a.776.776,0,0,1,.757-.757h3.935a.776.776,0,0,1,.757.757v7.972A.743.743,0,0,1,56.992,61.786Z" transform="translate(1123.206 345.214)" fill="#fff" stroke="#0d78bf" stroke-miterlimit="10" stroke-width="0.5"/>
    <rect id="Rectangle_4878" data-name="Rectangle 4878" width="2.422" height="0.101" transform="translate(1181.308 396.909)" fill="#fff" stroke="#0d78bf" stroke-width="0.25"/>
    <rect id="Rectangle_4879" data-name="Rectangle 4879" width="0.605" height="1.16" transform="translate(1181.813 395.648)" fill="#fff" stroke="#0d78bf" stroke-width="0.25"/>
    <rect id="Rectangle_4880" data-name="Rectangle 4880" width="0.605" height="2.018" transform="translate(1182.822 394.84)" fill="#fff" stroke="#0d78bf" stroke-width="0.25"/>
    <rect id="Rectangle_4881" data-name="Rectangle 4881" width="2.422" height="0.101" transform="translate(1176.969 401.551)" fill="#fff" stroke="#0d78bf" stroke-width="0.25"/>
    <rect id="Rectangle_4882" data-name="Rectangle 4882" width="0.605" height="1.16" transform="translate(1177.474 400.289)" fill="#fff" stroke="#0d78bf" stroke-width="0.25"/>
    <rect id="Rectangle_4883" data-name="Rectangle 4883" width="0.605" height="2.018" transform="translate(1178.533 399.432)" fill="#fff" stroke="#0d78bf" stroke-width="0.25"/>
    <rect id="Rectangle_4884" data-name="Rectangle 4884" width="2.422" height="0.101" transform="translate(1185.244 397.25) rotate(-90)" fill="#fff" stroke="#0d78bf" stroke-width="0.25"/>
    <path id="Path_2546" data-name="Path 2546" d="M72.2,49.417v-.908l.605-1.009.555,1.463.5-.959.353,1.413Z" transform="translate(1113.346 347.593)" fill="#fff" stroke="#0d78bf" stroke-width="0.25"/>
    <path id="Path_2547" data-name="Path 2547" d="M55.6,64.417v-.908l.656-1.009.5,1.463L57.315,63l.3,1.413Z" transform="translate(1121.571 340.161)" fill="#fff" stroke="#0d78bf" stroke-width="0.25"/>
    <rect id="Rectangle_4886" data-name="Rectangle 4886" width="2.018" height="0.101" transform="translate(1185.727 402.05) rotate(-90)" fill="#fff" stroke="#0d78bf" stroke-width="0.25"/>
    <rect id="Rectangle_4887" data-name="Rectangle 4887" width="0.605" height="2.018" transform="translate(1185.925 400.824) rotate(-90)" fill="#fff" stroke="#0d78bf" stroke-width="0.25"/>
    <rect id="Rectangle_4888" data-name="Rectangle 4888" width="0.605" height="1.261" transform="translate(1185.951 401.673) rotate(-90)" fill="#fff" stroke="#0d78bf" stroke-width="0.25"/>
    <path id="Path_2548" data-name="Path 2548" d="M64.1,57.806l.555.706.454-.908.706,1.261L66.825,57.1" transform="translate(1117.359 342.836)" fill="rgba(0,0,0,0)" stroke="#0d78bf" stroke-miterlimit="10" stroke-width="0.25"/>
    <circle id="Ellipse_773" data-name="Ellipse 773" cx="0.202" cy="0.202" r="0.202" transform="translate(1177.827 405.739)" fill="rgba(0,0,0,0)" stroke="#0d78bf" stroke-miterlimit="10" stroke-width="0.25"/>
    <g id="Rectangle_5262" data-name="Rectangle 5262" transform="translate(1145 366)" fill="none" stroke="#ececec" stroke-width="1">
      <rect width="54" height="54" rx="6" stroke="none"/>
      <rect x="0.5" y="0.5" width="53" height="53" rx="5.5" fill="none"/>
    </g>
  </g>
</svg>
