<?xml version="1.0" encoding="utf-8"?>
<!-- Generator: Adobe Illustrator 23.0.3, SVG Export Plug-In . SVG Version: 6.00 Build 0)  -->
<svg version="1.1" xmlns="http://www.w3.org/2000/svg" xmlns:xlink="http://www.w3.org/1999/xlink" x="0px" y="0px"
	 viewBox="0 0 90 90" style="enable-background:new 0 0 90 90;" xml:space="preserve">
<style type="text/css">
	.st0{fill:#FFFFFF;stroke:#D2D3D4;stroke-miterlimit:10;}
	.st1{fill:#FFFFFF;stroke:#F69320;stroke-width:0.75;stroke-miterlimit:10;}
	.st2{fill:none;stroke:#F69320;stroke-width:0.75;stroke-miterlimit:10;}
	.st3{fill:#F69320;}
</style>
<g id="Layer_1">
	<g>
		<path class="st0" d="M77,87.8H14.5c-6.3,0-11.4-5.1-11.4-11.4V13.8c0-6.3,5.1-11.4,11.4-11.4H77c6.3,0,11.4,5.1,11.4,11.4v62.5
			C88.5,82.7,83.3,87.8,77,87.8z"/>
	</g>
</g>
<g id="Layer_4">
	<path class="st1" d="M66.2,61.7H14.4c-1.2,0-2.1-0.9-2.1-2.1V23.4c0-1.2,0.9-2.1,2.1-2.1h51.8c1.2,0,2.1,0.9,2.1,2.1v36.2
		C68.3,60.8,67.3,61.7,66.2,61.7z"/>
	<rect x="16" y="24.5" class="st2" width="49.1" height="33.6"/>
	<rect x="20.9" y="39.9" class="st3" width="12.4" height="0.5"/>
	<rect x="23.5" y="33.4" class="st3" width="3" height="5.9"/>
	<rect x="28.7" y="29.2" class="st3" width="3" height="10.1"/>
	<rect x="45.2" y="39.1" class="st3" width="12.4" height="0.5"/>
	
		<rect x="39.3" y="33.2" transform="matrix(4.506535e-11 -1 1 4.506535e-11 12.0737 78.8947)" class="st3" width="12.4" height="0.5"/>
	<polygon class="st3" points="46.8,38.2 46.8,33.6 49.9,28.6 52.7,35.9 55.3,31.2 57,38.2 	"/>
	
		<rect x="39" y="48.2" transform="matrix(-3.990521e-07 -1 1 -3.990521e-07 -4.3771 92.5041)" class="st3" width="10.2" height="0.5"/>
	<rect x="48.5" y="40.9" transform="matrix(4.623774e-11 -1 1 4.623774e-11 4.0523 96.0128)" class="st3" width="3" height="10.1"/>
	
		<rect x="46.7" y="46.9" transform="matrix(-2.054309e-07 -1 1 -2.054309e-07 -1.9594 98.2694)" class="st3" width="3" height="6.4"/>
	<polyline class="st1" points="21.4,47.4 24.1,50.9 26.5,46.3 30,52.6 35.3,43.8 	"/>
	<rect x="36.1" y="61.7" class="st2" width="7.3" height="5.8"/>
	<rect x="25.4" y="65.7" class="st1" width="27.2" height="3.7"/>
	<path class="st1" d="M78.5,69.4H60.8c-0.6,0-1.1-0.5-1.1-1.1V42c0-0.6,0.5-1.1,1.1-1.1h17.7c0.6,0,1.1,0.5,1.1,1.1v26.3
		C79.7,68.9,79.2,69.4,78.5,69.4z"/>
	<circle class="st2" cx="69.2" cy="67.4" r="1"/>
	<rect x="61.6" y="43.5" class="st2" width="16.3" height="21.9"/>
	<path class="st1" d="M61.6,71.1h-7.8c-0.8,0-1.5-0.7-1.5-1.5V53.8c0-0.8,0.7-1.5,1.5-1.5h7.8c0.8,0,1.5,0.7,1.5,1.5v15.8
		C63.1,70.5,62.4,71.1,61.6,71.1z"/>
	<line class="st2" x1="52.2" y1="54.2" x2="63.1" y2="54.2"/>
	<line class="st2" x1="52.2" y1="68.4" x2="63.1" y2="68.4"/>
	<circle class="st1" cx="57.7" cy="69.6" r="0.6"/>
	<rect x="63.8" y="51.1" class="st3" width="4.8" height="0.2"/>
	<rect x="64.8" y="48.6" class="st3" width="1.2" height="2.3"/>
	<rect x="66.8" y="47" class="st3" width="1.2" height="4"/>
	<rect x="55.2" y="60.3" class="st3" width="4.8" height="0.2"/>
	<rect x="56.2" y="57.8" class="st3" width="1.2" height="2.3"/>
	<rect x="58.3" y="56.1" class="st3" width="1.2" height="4"/>
	
		<rect x="69.3" y="49.3" transform="matrix(4.538332e-11 -1 1 4.538332e-11 22.3006 121.0751)" class="st3" width="4.8" height="0.2"/>
	<polygon class="st3" points="72.2,51.3 72.2,49.5 73.4,47.5 74.5,50.4 75.5,48.5 76.2,51.3 	"/>
	
		<rect x="52.7" y="64.3" transform="matrix(4.500762e-11 -1 1 4.500762e-11 -9.2477 119.5184)" class="st3" width="4.8" height="0.2"/>
	<polygon class="st3" points="55.6,66.3 55.6,64.5 56.9,62.5 57.9,65.4 59,63.5 59.6,66.3 	"/>
	
		<rect x="70.6" y="59.2" transform="matrix(-3.990524e-07 -1 1 -3.990524e-07 13.357 131.8889)" class="st3" width="4" height="0.2"/>
	
		<rect x="74.4" y="56.3" transform="matrix(4.826723e-11 -1 1 4.826723e-11 16.6507 133.2598)" class="st3" width="1.2" height="4"/>
	
		<rect x="73.6" y="58.7" transform="matrix(-2.054318e-07 -1 1 -2.054318e-07 14.3017 134.1416)" class="st3" width="1.2" height="2.5"/>
	<polyline class="st2" points="64.1,58.5 65.2,59.9 66.1,58.1 67.5,60.6 69.5,57.1 	"/>
</g>
</svg>
