<svg width="19" height="18" viewBox="0 0 19 18" fill="none" xmlns="http://www.w3.org/2000/svg">
<g id="Group 2852">
<g id="Group 2851">
<path id="Path 6357" d="M17.9208 7.95657L15.236 5.27172V2.16953C15.236 1.9002 15.129 1.64189 14.9385 1.45144C14.7481 1.26099 14.4898 1.154 14.2205 1.154C13.9511 1.154 13.6928 1.26099 13.5024 1.45144C13.3119 1.64189 13.2049 1.9002 13.2049 2.16953V3.24064L11.2054 1.24117C10.7082 0.765491 10.0466 0.5 9.35852 0.5C8.6704 0.5 8.00882 0.765491 7.51159 1.24117L0.797274 7.95657C0.60683 8.14716 0.499898 8.40559 0.5 8.67502C0.500102 8.94445 0.607231 9.20281 0.797819 9.39325C0.988407 9.58369 1.24684 9.69063 1.51627 9.69052C1.7857 9.69042 2.04406 9.58329 2.2345 9.39271L8.94772 2.67839C9.0589 2.57373 9.20583 2.51545 9.35852 2.51545C9.5112 2.51545 9.65813 2.57373 9.76931 2.67839L16.4836 9.3938C16.5779 9.48817 16.6899 9.56304 16.8131 9.61414C16.9363 9.66524 17.0684 9.69156 17.2018 9.69161C17.3353 9.69166 17.4674 9.66544 17.5906 9.61443C17.7139 9.56342 17.8259 9.48864 17.9203 9.39434C18.0147 9.30004 18.0895 9.18808 18.1406 9.06485C18.1917 8.94161 18.2181 8.80952 18.2181 8.67611C18.2182 8.5427 18.1919 8.41059 18.1409 8.28732C18.0899 8.16405 18.0151 8.05094 17.9208 7.95657Z" stroke="#7C4DFF" stroke-width="0.8"/>
<path id="Path 6358" d="M9.71375 4.60666C9.6675 4.5603 9.61256 4.52352 9.55207 4.49843C9.49158 4.47333 9.42674 4.46042 9.36126 4.46042C9.29577 4.46042 9.23093 4.47333 9.17044 4.49843C9.10996 4.52352 9.05501 4.5603 9.00876 4.60666L3.10295 10.5103C3.00948 10.604 2.95698 10.7309 2.95694 10.8633V15.1696C2.95694 15.4098 3.00426 15.6477 3.0962 15.8697C3.18814 16.0916 3.3229 16.2933 3.49279 16.4632C3.66267 16.6331 3.86435 16.7678 4.08632 16.8598C4.30828 16.9517 4.54618 16.999 4.78643 16.999H7.70992V12.4716H11.0115V17.0001H13.9317C14.172 17.0001 14.4099 16.9528 14.6318 16.8609C14.8538 16.7689 15.0555 16.6342 15.2254 16.4643C15.3952 16.2944 15.53 16.0927 15.6219 15.8708C15.7139 15.6488 15.7612 15.4109 15.7612 15.1706V10.8644C15.7613 10.7989 15.7485 10.7339 15.7234 10.6733C15.6984 10.6127 15.6616 10.5577 15.6152 10.5114L9.71375 4.60666Z" stroke="#7C4DFF" stroke-width="0.8"/>
</g>
</g>
</svg>
