<svg xmlns="http://www.w3.org/2000/svg"  xmlns:xlink="http://www.w3.org/1999/xlink" version="1.1">

	<g class="total-area">
<path id="AU" title="Australia" class="area" d="M882.93,588.16l2.71,1.28l1.53,-0.51l2.19,-0.71l1.68,0.25l0.2,4.43l-0.96,1.3l-0.29,3.06l-0.98,-1.05l-1.95,2.67l-0.58,-0.21l-1.72,-0.12l-1.73,-3.28l-0.38,-2.5l-1.62,-3.25l0.07,-1.7L882.93,588.16zM877.78,502.1l1.01,2.25l1.8,-1.08l0.93,1.22l1.35,1.13l-0.29,1.28l0.6,2.48l0.43,1.45l0.71,0.35l0.76,2.5l-0.27,1.52l0.91,1.99l3.04,1.54l1.98,1.41l1.88,1.29l-0.37,0.72l1.6,1.87l1.09,3.25l1.12,-0.66l1.14,1.31l0.69,-0.46l0.48,3.21l1.99,1.87l1.3,1.17l2.19,2.49l0.79,2.49l0.07,1.77l-0.19,1.94l1.34,2.68l-0.16,2.81l-0.49,1.48l-0.76,2.87l0.06,1.86l-0.55,2.34l-1.24,3l-2.08,1.63l-1.02,2.59l-0.94,1.67l-0.83,2.93l-1.08,1.71l-0.71,2.58l-0.36,2.4l0.14,1.11l-1.61,1.22l-3.14,0.13l-2.59,1.45l-1.29,1.38l-1.69,1.54l-2.32,-1.58l-1.72,-0.63l0.44,-1.85l-1.53,0.67l-2.46,2.58l-2.42,-0.97l-1.59,-0.56l-1.6,-0.25l-2.71,-1.03l-1.81,-2.18l-0.52,-2.66l-0.65,-1.75l-1.38,-1.4l-2.7,-0.41l0.92,-1.66l-0.68,-2.52l-1.37,2.35l-2.5,0.63l1.47,-1.88l0.42,-1.95l1.08,-1.65l-0.22,-2.47l-2.28,2.85l-1.75,1.15l-1.07,2.69l-2.19,-1.4l0.09,-1.79l-1.75,-2.43l-1.48,-1.25l0.53,-0.77l-3.6,-2l-1.97,-0.09l-2.7,-1.6l-5.02,0.31l-3.63,1.18l-3.19,1.1l-2.68,-0.22l-2.97,1.7l-2.43,0.77l-0.54,1.75l-1.04,1.36l-2.38,0.08l-1.76,0.3l-2.48,-0.61l-2.02,0.37l-1.92,0.15l-1.67,1.8l-0.82,-0.15l-1.41,0.96l-1.35,1.08l-2.05,-0.13l-1.88,0l-2.97,-2.17l-1.51,-0.64l0.06,-1.93l1.39,-0.46l0.48,-0.76l-0.1,-1.2l0.34,-2.3l-0.31,-1.95l-1.48,-3.29l-0.46,-1.85l0.12,-1.83l-1.12,-2.08l-0.07,-0.93l-1.24,-1.26l-0.35,-2.47l-1.6,-2.48l-0.39,-1.33l1.23,1.35l-0.95,-2.88l1.39,0.9l0.83,1.2l-0.05,-1.59l-1.39,-2.43l-0.27,-0.97l-0.65,-0.92l0.3,-1.77l0.57,-0.75l0.38,-1.52l-0.3,-1.77l1.16,-2.17l0.21,2.29l1.18,-2.07l2.28,-1l1.37,-1.28l2.14,-1.1l1.27,-0.23l0.77,0.37l2.21,-1.11l1.7,-0.33l0.42,-0.65l0.74,-0.27l1.55,0.07l2.95,-0.87l1.52,-1.31l0.72,-1.58l1.64,-1.49l0.13,-1.17l0.07,-1.59l1.96,-2.47l1.18,2.51l1.19,-0.58l-1,-1.38l0.88,-1.41l1.24,0.63l0.34,-2.21l1.53,-1.42l0.68,-1.14l1.41,-0.49l0.04,-0.8l1.23,0.34l0.05,-0.72l1.23,-0.41l1.36,-0.39l2.07,1.32l1.56,1.71l1.75,0.02l1.78,0.27l-0.59,-1.58l1.34,-2.3l1.26,-0.75l-0.44,-0.71l1.22,-1.63l1.7,-1.01l1.43,0.34l2.36,-0.54l-0.05,-1.45l-2.05,-0.94l1.49,-0.41l1.86,0.7l1.49,1.17l2.36,0.73l0.8,-0.29l1.74,0.88l1.64,-0.82l1.05,0.25l0.66,-0.55l1.29,1.41l-0.75,1.53l-1.06,1.16l-0.96,0.1l0.33,1.15l-0.82,1.43l-1,1.41l0.2,0.81l2.23,1.6l2.16,0.93l1.44,1l2.03,1.72l0.79,0l1.47,0.75l0.43,0.9l2.68,0.99l1.85,-1l0.55,-1.57l0.57,-1.29l0.35,-1.59l0.85,-2.3l-0.39,-1.39l0.2,-0.84l-0.32,-1.64l0.37,-2.16l0.54,-0.58l-0.44,-0.95l0.68,-1.51l0.53,-1.56l0.07,-0.81l1.04,-1.06l0.79,1.39l0.19,1.78l0.7,0.34l0.12,1.2l1.02,1.45l0.21,1.62L877.78,502.1z"/>

<path id="BD" title="Bangladesh" class="area" d="M735.09,400.41L735.04,402.56L734.06,402.1L734.24,404.51L733.44,402.95L733.28,401.43L732.74,399.98L731.57,398.22L728.99,398.1L729.25,399.35L728.37,401.02L727.17,400.41L726.76,400.96L725.97,400.63L724.89,400.36L724.45,397.88L723.48,395.6L723.95,393.76L722.23,392.94L722.85,391.82L724.6,390.67L722.58,389.04L723.57,386.93L725.79,388.27L727.13,388.43L727.38,390.58L730.04,391L732.65,390.95L734.26,391.48L732.97,394.07L731.71,394.25L730.85,395.98L732.38,397.56L732.84,395.62L733.62,395.61z"/>

<path id="BT" title="Bhutan" class="area" d="M732.36,382.78L733.5,383.78L733.3,385.71L731.01,385.8L728.65,385.59L726.88,386.08L724.33,384.89L724.28,384.26L726.13,381.92L727.64,381.12L729.65,381.85L731.13,381.93z"/>
<path id="BN" title="Brunei Darussalam" class="area" d="M795.46,450.77L796.57,449.72L798.96,448.19L798.83,449.57L798.67,451.35L797.33,451.26L796.74,452.21z"/>

<path id="MM" title="Myanmar/Burma" class="area" d="M754.36,405.95L752.72,407.23L750.74,407.37L749.46,410.56L748.28,411.09L749.64,413.66L751.42,415.79L752.56,417.71L751.54,420.23L750.57,420.76L751.24,422.21L753.11,424.49L753.43,426.09L753.38,427.42L754.48,430.02L752.94,432.67L751.58,435.58L751.31,433.48L752.17,431.3L751.23,429.62L751.46,426.51L750.32,425.03L749.41,421.59L748.9,417.93L747.69,415.53L745.84,416.99L742.65,419.05L741.08,418.79L739.34,418.12L740.31,414.51L739.73,411.77L737.53,408.38L737.87,407.31L736.23,406.93L734.24,404.51L734.06,402.1L735.04,402.56L735.09,400.41L736.48,399.69L736.18,398.41L736.81,397.38L736.92,394.23L739.11,394.93L740.36,392.41L740.51,390.91L742.05,388.31L741.97,386.53L745.6,384.37L747.6,384.94L747.37,383.01L748.36,382.43L748.14,381.23L749.78,380.99L750.72,382.85L751.94,383.6L752.03,386L751.91,388.57L749.26,391.15L748.92,394.78L751.88,394.28L752.55,397.08L754.33,397.67L753.51,400.17L755.59,401.3L756.81,401.85L758.86,400.98L758.95,402.22L756.56,404.16L755.96,405.26z"/>
<path id="KH" title="Cambodia" class="area" d="M765.44,433.6L764.3,432.12L762.89,429.18L762.22,425.73L764.02,423.35L767.64,422.8L770.27,423.21L772.58,424.34L773.85,422.35L776.34,423.41L776.99,425.33L776.64,428.75L771.93,430.94L773.16,432.67L770.22,432.87L767.79,434.01z"/>

<path id="CA" title="Canada" class="area" d="M198.93,96.23l-0.22,-5.9l3.63,0.58l1.63,0.96l3.35,4.92l-0.76,4.97l-4.15,2.77l-2.28,-3.12L198.93,96.23zM212.14,108.88l0.33,-1.49l-1.97,-2.45l-5.65,-0.19l0.75,3.68l5.25,0.83L212.14,108.88zM248.49,155.83l3.08,5.1l0.81,0.57l3.07,-1.27l3.02,0.2l2.98,0.28l-0.25,-2.64l-4.84,-5.38l-6.42,-1.08l-1.35,0.67L248.49,155.83zM183.06,93.13l-2.71,4.19l6.24,0.52l4.61,4.44l4.58,1.5l-1.09,-5.68l-2.14,-6.73l-7.58,-5.35l-5.5,-2.04l0.2,5.69L183.06,93.13zM208.96,82.89l5.13,-0.12l-2.22,4l-0.04,5.3l3.01,5.76l5.81,1.77l4.96,-0.99l5.18,-10.73l3.85,-4.45l-3.38,-4.97l-2.21,-10.65l-4.6,-3.19l-4.72,-3.68l-3.58,-9.56l-6.52,0.94l1.23,4.15l-2.87,1.25l-1.94,5.32l-1.94,7.46l1.78,7.26L208.96,82.89zM145.21,136.27l3.92,1.95l12.67,-1.3l-5.82,4.77l0.36,3.43l4.26,-0.24l7.07,-4.58l9.5,-1.67l1.71,-5.22l-0.49,-5.57l-2.94,-0.5l-2.5,1.93l-1.1,-4.13l-0.95,-5.7l-2.9,-1.42l-2.57,4.41l4.01,11.05l-4.9,-0.85l-4.98,-6.79l-7.89,-4l-2.64,3.32L145.21,136.27zM167.77,94.21l-3.65,-2.9l-1.5,-0.66l-2.88,4.28l-0.05,2l4.66,0.01L167.77,94.21zM166.31,106.56l0.93,-3.99l-3.95,-2.12l-4.09,1.39l-2.27,4.26l4.16,4.21L166.31,106.56zM195.4,139.8l4.62,-1.11l1.28,-8.25l-0.09,-5.95l-2.14,-5.56l-0.22,1.6l-3.94,-0.7l-4.22,4.09l-3.02,-0.37l0.18,8.92l4.6,-0.87l-0.06,6.47L195.4,139.8zM192.12,185.41l-5.06,-3.93l-4.71,-4.21l-0.87,-6.18l-1.76,-8.92l-3.14,-3.84l-2.79,-1.55l-2.47,1.42l1.99,9.59l-1.41,3.73l-2.29,-8.98l-2.56,-3.11l-3.17,4.81l-3.9,-4.76l-6.24,2.87l1.4,-4.46l-2.87,-1.87l-7.51,5.84l-1.95,3.71l-2.35,6.77l4.9,2.32l4.33,-0.12l-6.5,3.46l1.48,3.13l3.98,0.17l5.99,-0.67l5.42,1.96l-3.66,1.44l-3.95,-0.37l-4.33,1.41l-1.87,0.87l3.45,6.35l2.49,-0.88l3.83,2.15l1.52,3.65l4.99,-0.73l7.1,-1.16l5.26,-2.65l3.26,-0.48l4.82,2.12l5.07,1.22l0.94,-2.86l-1.79,-3.05l4.6,-0.64L192.12,185.41zM199.86,184.43l-1.96,3.54l-2.47,2.49l3.83,3.54l2.28,-0.85l3.78,2.36l1.74,-2.73l-1.71,-3.03l-0.84,-1.53l-1.68,-1.46L199.86,184.43zM182.25,154.98l-2.13,-2.17l-3.76,0.4l-0.95,1.38l4.37,6.75L182.25,154.98zM210.94,168.15l3.01,-6.93l3.34,-1.85l4.19,-8.74l-5.36,-2.47l-5.84,-0.36l-2.78,2.77l-1.47,4.23l-0.04,4.82l1.75,8.19L210.94,168.15zM228.09,145.15l5.76,-0.18l8.04,-1.61l3.59,1.28l4.18,-2.26l1.75,-2.84l-0.63,-4.52l-3,-4.23l-4.56,-0.8l-5.71,0.97l-4.46,2.44l-4.09,-0.94l-3.78,-0.5l-1.78,-2.7l-3.22,-2.61l0.64,-4.43l-2.42,-3.98l-5.52,0.03l-3.11,-3.99l-5.78,-0.8l-1.06,5.1l3.25,3.74l5.8,1.45l2.81,5.09l0.34,5.6l0.97,5.99l7.45,3.42L228.09,145.15zM139.07,126.88l5.21,-5.05l2.62,-0.59l2.16,-4.23l0.38,-9.77l-3.85,1.91l-4.3,-0.18l-5.76,8.19l-4.76,8.98l3.8,2.51L139.07,126.88zM211.25,143.05l1.53,-4.14l-1.02,-3.46l-2.45,-3.92l-4.03,3.02l-1.49,4.92l3.4,2.79L211.25,143.05zM202.94,154.49l-0.73,-2.88l-5,1.26l-3.34,-2.11l-3.32,4.8l3.09,6.28l-5.72,-1.17l-0.06,3.01l6.97,7.05l1.94,3.38l2.7,0.73l4.6,-3.41l0.5,-8.21l-4.24,-4.07L202.94,154.49zM128.95,308.23l-1.16,-2.34l-2.8,-1.77l-1.39,-2.05l-0.95,-1.5l-2.64,-0.46l-1.72,-0.67l-2.94,-0.96l-0.24,1.02l1.08,2.38l2.89,0.78l0.5,1.23l2.51,1.5l0.84,1.51l4.6,1.92L128.95,308.23zM250.65,230.6l-2,-2.11l-2.06,0.5l-0.25,-3.06l-3.21,-2.04l-3.07,-2.27l-1.63,-1.75l-1.43,1.03l-0.52,-2.96l-2.03,-0.55l-0.96,6.13l-0.36,5.11l-2.44,3.14l3.8,-0.6l0.96,3.65l3.99,-3.23l2.78,-3.38l1.57,2.86l4.36,1.51L250.65,230.6zM130.12,178.05l7.38,-4.18V170l3.48,-6.41l6.88,-6.69l3.52,-2.47l-3.01,-4.2l-2.72,-2.95l-7.16,-0.57l-4,-2.16l-9.48,1.63l2.74,6.23l-2.43,6.43l-1.94,6.87l-1.2,3.86l6.47,4.69L130.12,178.05zM264.36,205.36l0.32,-1.01l-0.03,-3.17l-2.19,-2.08l-2.57,1.05l-1.19,4.17l0.7,3.56l3.14,-0.36L264.36,205.36zM288.18,212.9l4.41,6.6l3.45,2.85l4.92,-7.87l0.87,-4.93l-4.41,-0.47l-4.03,-6.7l-4.45,-1.64l-6.6,-4.97l5.15,-3.63l-2.65,-7.54l-2.44,-3.35l-6.77,-3.35l-2.92,-5.55l-5.21,1.99l-0.36,-3.86l-3.86,-4.32l-6.22,-4.71l-2.65,3.71l-5.55,2.66l0.42,-6.06l-4.81,-10.05l-7.11,4.06l-2.59,7.7l-2.21,-5.92l2.06,-6.37l-7.24,2.65l-2.88,3.99l-2.15,8.42l0.89,9.05l3.98,0.04l-2.93,3.92l2.33,2.96l4.55,1.25l5.93,2.42l10.2,1.82l5.08,-1.04l1.5,-2.42l2.21,2.79l2.47,0.46l2.97,4.96l-1.8,1.98l5.68,2.63l4.29,3.68l1.08,2.55l0.77,3.24l-3.63,6.93l-0.98,3.44l0.94,2.42l-5.77,0.86l-5.27,0.12l-1.85,4.87l2.37,2.23l8.11,-1.03l-0.04,-1.89l4.08,3.15l4.18,3.28l-0.98,1.77l3.4,3.02l6.02,3.53l7.6,2.39l-0.46,-2.09l-2.92,-3.67l-3.96,-5.37l7.03,5l3.54,1.66l0.97,-4.44l-1.82,-6.3l-1.16,-1.73l-3.81,-3.03l-2.95,-3.91l0.35,-3.94L288.18,212.9zM222.35,51.34l2.34,7.29l4.96,5.88l9.81,-1.09l6.31,1.97l-4.38,6.05l-2.21,-1.78l-7.66,-0.71l1.19,8.31l3.96,6.04l-0.8,5.2l-4.97,3.46l-2.27,5.47l4.55,2.65l3.82,8.55l-7.5,-5.7l-1.71,0.94l1.38,9.38l-5.18,2.83l0.35,5.85l5.3,0.63l4.17,1.44l8.24,-1.84l7.33,3.27l7.49,-7.19l-0.06,-3.02l-4.79,0.48l-0.39,-2.84l3.92,-3.83l1.33,-5.15l4.33,-3.83l2.66,-4.76l-2.32,-7.1l1.94,-2.65l-3.86,-1.89l8.49,-1.63l1.79,-3.15l5.78,-2.6l4.8,-13.47l4.57,-4.94l6.62,-11.12l-6.1,0.1l2.54,-4.3l6.78,-3.99l6.84,-8.9l0.12,-5.73l-5.13,-6.04l-6.02,-2.93l-7.49,-1.82l-6.07,-1.49l-6.07,-1.5l-8.1,3.98l-1.49,-2.53l-8.57,0.98l-5.03,2.57l-3.7,3.65l-2.13,11.74L239,24.52l-3.48,-1.14l-4.12,7.97l-5.5,3.35l-3.27,0.66l-4.17,3.84l0.61,6.65L222.35,51.34zM296.75,316.34l-0.98,-1.98l-1.06,1.26l0.7,1.36l3.56,1.71l1.04,-0.26l1.38,-1.66l-2.6,0.11L296.75,316.34zM239.75,238.48l0.61,1.63l1.98,0.14l3.28,-3.34l0.06,-1.19l-3.85,-0.06L239.75,238.48zM301.88,304.92l-2.87,-1.8l-3.69,-1.09l-0.97,0.37l2.61,2.04l3.63,1.34l1.36,-0.08L301.88,304.92zM326.76,309.71l-0.36,-2.24l-1.96,0.72l0.87,-3.11l-2.8,-1.32l-1.29,1.05l-2.49,-1.18l0.98,-1.51l-1.88,-0.93l-1.83,1.47l1.86,-3.82l1.5,-2.8l0.54,-1.22l-1.3,-0.2l-2.43,1.55l-1.74,2.53l-2.9,6.92l-2.35,2.56l1.22,1.14l-1.75,1.47l0.43,1.23l5.44,0.13l3.01,-0.25l2.69,1.01l-1.98,1.93l1.67,0.14l3.25,-3.58l0.78,0.53l-0.61,3.37l1.84,0.77l1.27,-0.15l1.18,-3.61L326.76,309.71zM305.57,314.47l-2.81,4.56l-4.63,0.58l-3.64,-2.01l-0.92,-3.07l-0.89,-4.46l2.65,-2.83l-2.48,-2.09l-4.19,0.43l-5.88,3.53l-4.5,5.45l-2.38,0.67l3.23,-3.8l4.04,-5.57l3.57,-1.9l2.35,-3.11l2.9,-0.3l4.21,0.03l6,0.92l4.74,-0.71l3.53,-3.62l4.62,-1.59l2.01,-1.58l2.04,-1.71l-0.2,-5.19l-1.13,-1.77l-2.18,-0.63l-1.11,-4.05l-1.8,-1.55l-4.47,-1.26l-2.52,-2.82l-3.73,-2.83l1.13,-3.2l-3.1,-6.26l-3.65,-6.89l-2.18,-4.98l-1.86,2.61l-2.68,6.05l-4.06,2.97l-2.03,-3.16l-2.56,-0.85l-0.93,-6.99l0.08,-4.8l-5,-0.44l-0.85,-2.27l-3.45,-3.44l-2.61,-2.04l-2.32,1.58l-2.88,-0.58l-4.81,-1.65l-1.95,1.4l0.94,9.18l1.22,5.12l-3.31,5.75l3.41,4.02l1.9,4.44l0.23,3.42l-1.55,3.5l-3.18,3.46l-4.49,2.28l1.98,2.53l1.46,7.4l-1.52,4.68l-2.16,1.46l-4.17,-4.28l-2.03,-5.17l-0.87,-4.76l0.46,-4.19l-3.05,-0.47l-4.63,-0.28l-2.97,-2.08l-3.51,-1.37l-2.01,-2.38l-2.8,-1.94l-5.21,-2.23l-3.92,1.02l-1.31,-3.95l-1.26,-4.99l-4.12,-0.9l0.15,-6.41l1.09,-4.48l3.04,-6.6l3.43,-4.9l3.26,-0.77l0.19,-4.05l2.21,-2.68l4.01,-0.42l3.25,-4.39l0.82,-2.9l2.7,-5.73l0.84,-3.5l2.9,2.11l3.9,-1.08l5.49,-4.96l0.36,-3.54l-1.98,-3.98l2.09,-4.06l-0.17,-3.87l-3.76,-3.95l-4.14,-1.19l-3.98,-0.62l-0.15,8.71l-2.04,6.56l-2.93,5.3l-2.71,-4.95l0.84,-5.61l-3.35,-5.02l-3.75,6.09l0.01,-7.99l-5.21,-1.63l2.49,-4.01l-3.81,-9.59l-2.84,-3.91l-3.7,-1.44l-3.32,6.43l-0.22,9.34l3.27,3.29l3,4.91l-1.27,7.71l-2.26,-0.2l-1.78,5.88l0.02,-7l-4.34,-2.58l-2.49,1.33l0.32,4.67l-4.09,-0.18l-4.35,1.17l-4.95,-3.35l-3.13,0.6l-2.82,-4.11l-2.26,-1.84l-2.24,0.77l-3.41,0.35l-1.81,2.61l2.86,3.19l-3.05,3.72l-2.99,-4.42l-2.39,1.3l-7.57,0.87l-5.07,-1.59l3.94,-3.74l-3.78,-3.9l-2.75,0.5l-3.86,-1.32l-6.56,-2.89l-4.29,-3.37l-3.4,-0.47l-1.06,2.36l-3.44,1.31l-0.38,-6.15l-3.73,5.5l-4.74,-7.32l-1.94,-0.89l-0.63,3.91l-2.09,1.9l-1.93,-3.39l-4.59,2.05l-4.2,3.55l-4.17,-0.98l-3.4,2.5l-2.46,3.28l-2.92,-0.72l-4.41,-3.8l-5.23,-1.94l-0.02,27.65l-0.01,35.43l2.76,0.17l2.73,1.56l1.96,2.44l2.49,3.6l2.73,-3.05l2.81,-1.79l1.49,2.85l1.89,2.23l2.57,2.42l1.75,3.79l2.87,5.88l4.77,3.2l0.08,3.12l-1.56,2.35l0.06,2.48l3.39,3.45l0.49,3.76l3.59,1.96l-0.4,2.79l1.56,3.96l5.08,1.82l2,1.89l5.43,4.23l0.38,0.01h7.96h8.32h2.76h8.55h8.27h8.41l8.42,0l9.53,0l9.59,0l5.8,0l0.01,-1.64l0.95,-0.02l0.5,2.35l0.87,0.72l1.96,0.26l2.86,0.67l2.72,1.3l2.27,-0.55l3.45,1.09l1.14,-1.66l1.59,-0.66l0.62,-1.03l0.63,-0.55l2.61,0.86l1.93,0.1l0.67,0.57l0.94,2.38l3.15,0.63l-0.49,1.18l1.11,1.21l-0.48,1.56l1.18,0.51l-0.59,1.37l0.75,0.13l0.53,-0.6l0.55,0.9l2.1,0.5l2.13,0.04l2.27,0.41l2.51,0.78l0.91,1.26l1.82,3.04l-0.9,1.3l-2.28,-0.54l-1.42,-2.44l0.36,2.49l-1.34,2.17l0.15,1.84l-0.23,1.07l-1.81,1.27l-1.32,2.09l-0.62,1.32l1.54,0.24l2.08,-1.2l1.23,-1.06l0.83,-0.17l1.54,0.38l0.75,-0.59l1.37,-0.48l2.44,-0.47v0l0,0l-0.25,-1.15l-0.13,0.04l-0.86,0.2l-1.12,-0.36l0.84,-1.32l0.85,-0.46l1.98,-0.56l2.37,-0.53l1.24,0.73l0.78,-0.85l0.89,-0.54l0.6,0.29l0.03,0.06l2.87,-2.73l1.27,-0.73l4.26,-0.03l5.17,0l0.28,-0.98l0.9,-0.2l1.19,-0.62l1,-1.82l0.86,-3.15l2.14,-3.1l0.93,1.08l1.88,-0.7l1.25,1.19l0,5.52l1.83,2.25l3.12,-0.48l4.49,-0.13l-4.87,3.26l0.11,3.29l2.13,0.28l3.13,-2.79l2.78,-1.58l6.21,-2.35l3.47,-2.62l-1.81,-1.46L305.57,314.47zM251.91,243.37l1.1,-3.12l-0.71,-1.23l-1.15,-0.13l-1.08,1.8l-0.13,0.41l0.74,1.77L251.91,243.37zM109.25,279.8L109.25,279.8l1.56,-2.35L109.25,279.8zM105.85,283.09l-2.69,0.38l-1.32,-0.62l-0.17,1.52l0.52,2.07l1.42,1.46l1.04,2.13l1.69,2.1l1.12,0.01l-2.44,-3.7L105.85,283.09z"/>

<path id="CN" title="China" class="area" d="M784.63,410.41l-2.42,1.41l-2.3,-0.91l-0.08,-2.53l1.38,-1.34l3.06,-0.83l1.61,0.07l0.63,1.13l-1.23,1.3L784.63,410.41zM833.19,302.89l4.88,1.38l3.32,3.03l1.13,3.95l4.26,0l2.43,-1.65l4.63,-1.24l-1.47,3.76l-1.09,1.51l-0.96,4.46l-1.89,3.89l-3.4,-0.7l-2.41,1.4l0.74,3.36l-0.4,4.55l-1.43,0.1l0.02,1.93l-1.81,-2.24l-1.11,2.13l-4.33,1.62l0.44,1.97l-2.42,-0.14l-1.33,-1.17l-1.93,2.64l-3.09,1.98l-2.28,2.35l-3.92,1.06l-2.06,1.69l-3.02,0.98l1.49,-1.67l-0.59,-1.41l2.22,-2.45l-1.48,-1.93l-2.44,1.3l-3.17,2.54l-1.73,2.34l-2.75,0.17l-1.43,1.68l1.48,2.41l2.29,0.58l0.09,1.58l2.22,1.02l3.14,-2.51l2.49,1.37l1.81,0.09l0.46,1.84l-3.97,0.97l-1.31,1.87l-2.73,1.73l-1.44,2.39l3.02,1.86l1.1,3.31l1.71,3.05l1.9,2.53l-0.05,2.43l-1.76,0.89l0.67,1.73l1.65,1l-0.43,2.61l-0.71,2.52l-1.57,0.28l-2.05,3.41l-2.27,4.09l-2.6,3.68l-3.86,2.82l-3.9,2.55l-3.16,0.35l-1.71,1.34l-0.97,-0.98l-1.59,1.5l-3.92,1.5l-2.97,0.46l-0.96,3.15l-1.55,0.17l-0.74,-2.16l0.66,-1.16l-3.76,-0.96l-1.33,0.49l-2.82,-0.78l-1.33,-1.22l0.44,-1.74l-2.56,-0.55l-1.35,-1.14l-2.39,1.62l-2.73,0.35l-2.24,-0.02l-1.5,0.74l-1.45,0.44l0.42,3.43l-1.5,-0.08l-0.25,-0.7l-0.08,-1.24l-2.06,0.87l-1.21,-0.55l-2.08,-1.13l0.82,-2.51l-1.78,-0.59l-0.67,-2.8l-2.96,0.51l0.34,-3.63l2.66,-2.58l0.11,-2.57l-0.08,-2.4l-1.22,-0.75l-0.94,-1.86l-1.64,0.24l-3.02,-0.47l0.95,-1.33l-1.31,-1.99l-2,1.35L740.4,378l-3.23,2.03l-2.55,2.36l-2.26,0.39l-1.23,-0.85l-1.48,-0.08l-2,-0.73l-1.51,0.8l-1.85,2.34l-0.24,-2.48l-1.71,0.66l-3.27,-0.31l-3.17,-0.73l-2.28,-1.39l-2.18,-0.63l-0.94,-1.53l-1.58,-0.46l-2.83,-2.09l-2.25,-0.99l-1.16,0.77l-3.9,-2.26l-2.75,-2.07l-0.79,-3.63l2.01,0.44l0.09,-1.69l-1.12,-1.71l0.28,-2.74l-3.01,-3.99l-4.61,-1.39l-0.83,-2.66l-2.07,-1.63l-0.5,-1.01l-0.42,-2.01l0.1,-1.38l-1.7,-0.81l-0.92,0.36l-0.71,-3.32l0.8,-0.83l-0.39,-0.85l2.68,-1.73l1.94,-0.72l2.97,0.49l1.06,-2.35l3.6,-0.44l1,-1.48l4.42,-2.03l0.39,-0.85l-0.22,-2.17l1.92,-1l-2.52,-6.75l5.55,-1.58l1.44,-0.89l2.02,-7.26l5.56,1.35l1.56,-1.86l0.13,-4.19l2.33,-0.39l2.13,-2.83l1.1,-0.35l0.74,2.97l2.36,2.23l4,1.57l1.93,3.32l-1.08,4.73l1.01,1.73l3.33,0.68l3.78,0.55l3.39,2.45l1.73,0.43l1.28,3.57l1.65,2.27l3.09,-0.09l5.79,0.85l3.73,-0.53l2.77,0.57l4.15,2.29l3.39,0l1.24,1.16l3.26,-2.01l4.53,-1.31l4.2,-0.14l3.28,-1.34l2.01,-2.05l1.96,-1.3l-0.45,-1.28l-0.9,-1.5l1.47,-2.54l1.58,0.36l2.88,0.8l2.79,-2.1l4.28,-1.55l2.05,-2.66l1.97,-1.16l4.07,-0.54l2.21,0.46l0.31,-1.45l-2.54,-2.89l-2.25,-1.33l-2.16,1.54l-2.77,-0.65l-1.59,0.53l-0.72,-1.71l1.98,-4.23l1.37,-3.25l3.37,1.63l3.95,-2.74l-0.03,-1.93l2.53,-4.73l1.56,-1.45l-0.04,-2.52l-1.54,-1.1l2.32,-2.31l3.48,-0.84l3.72,-0.13l4.2,1.39l2.46,1.71l1.73,4.61l1.05,1.94l0.98,2.73L833.19,302.89z"/>

<path id="CL" title="Chile" class="area" d="M282.81,636.73l0,10.57l3,0l1.69,0.13l-0.93,1.98l-2.4,1.53l-1.38,-0.16l-1.66,-0.4l-2.04,-1.48l-2.94,-0.71l-3.53,-2.71l-2.86,-2.57l-3.86,-5.25l2.31,0.97l3.94,3.13l3.72,1.7l1.45,-2.17l0.91,-3.2l2.58,-1.91L282.81,636.73zM283.97,524.72l1.1,4.15l2.02,-0.41l0.34,0.76l-0.96,3.16l-3.05,1.51l0.09,5.14l-0.59,1l0.84,1.23l-1.98,1.95l-1.84,2.96l-1,2.9l0.27,3.11l-1.73,3.34l1.29,5.69l0.73,0.61l-0.01,3.09l-1.6,3.31l0.06,2.87l-2.12,2.26l0.01,3.22l0.85,3.46l-1.68,1.3l-0.75,3.22l-0.66,3.75l0.47,4.54l-1.13,0.77l0.65,4.4l1.27,1.46l-0.92,1.63l1.3,0.78l0.3,1.48l-1.22,0.75l0.3,2.33l-1.02,5.35l-1.49,3.52l0.33,2.11l-0.89,2.68l-2.15,1.88l0.25,4.6l0.99,1.6l1.87,-0.28l-0.05,3.33l1.16,2.63l6.78,0.61l2.6,0.71l-2.49,-0.03l-1.35,1.13l-2.53,1.67l-0.45,4.38l-1.19,0.11l-3.16,-1.54l-3.21,-3.25l0,0l-3.49,-2.63l-0.88,-2.87l0.79,-2.62l-1.41,-2.94l-0.36,-7.34l1.19,-4.03l2.96,-3.19l-4.26,-1.19l2.67,-3.57l0.95,-6.56l3.12,1.37l1.46,-7.97l-1.88,-1l-0.88,4.75l-1.77,-0.54l0.88,-5.42l0.96,-6.84l1.29,-2.48l-0.81,-3.5l-0.23,-3.98l1.18,-0.11l1.72,-5.6l1.94,-5.43l1.19,-4.97l-0.65,-4.91l0.84,-2.67l-0.34,-3.96l1.64,-3.87l0.51,-6.04l0.9,-6.37l0.88,-6.75l-0.21,-4.87l-0.58,-4.15l1.44,-0.75l0.75,-1.5l1.37,1.99l0.37,2.12l1.47,1.25l-0.88,2.87L283.97,524.72z"/>

<path id="FJ" title="Fiji" class="area" d="M980.53,508.61l-0.35,1.4l-0.23,0.16l-1.78,0.72l-1.79,0.61l-0.36,-1.09l1.4,-0.6l0.89,-0.16l1.64,-0.91L980.53,508.61zM974.69,512.92l-1.27,-0.36l-1.08,1l0.27,1.29l1.55,0.36l1.74,-0.4l0.46,-1.53l-0.96,-0.84L974.69,512.92z"/>

<path id="IN" title="India" class="area" d="M693.5,357.44L696.51,361.43L696.23,364.17L697.34,365.88L697.25,367.57L695.24,367.13L696.03,370.76L698.78,372.82L702.68,375.09L700.9,376.55L699.81,379.54L702.53,380.74L705.17,382.29L708.83,384.06L712.67,384.47L714.29,386.06L716.45,386.35L719.83,387.08L722.16,387.03L722.48,385.79L722.11,383.8L722.33,382.45L724.04,381.78L724.28,384.26L724.33,384.89L726.88,386.08L728.65,385.59L731.01,385.8L733.3,385.71L733.5,383.78L732.36,382.78L734.62,382.38L737.17,380.03L740.4,378L742.75,378.78L744.75,377.44L746.07,379.42L745.12,380.76L748.14,381.23L748.36,382.43L747.37,383.01L747.6,384.94L745.6,384.37L741.97,386.53L742.05,388.31L740.51,390.91L740.36,392.41L739.11,394.93L736.92,394.23L736.81,397.38L736.18,398.41L736.48,399.69L735.09,400.41L733.62,395.61L732.84,395.62L732.38,397.56L730.85,395.98L731.71,394.25L732.97,394.07L734.26,391.48L732.65,390.95L730.04,391L727.38,390.58L727.13,388.43L725.79,388.27L723.57,386.93L722.58,389.04L724.6,390.67L722.85,391.82L722.23,392.94L723.95,393.76L723.48,395.6L724.45,397.88L724.89,400.36L724.48,401.46L722.58,401.42L719.12,402.04L719.28,404.29L717.78,406.05L713.75,408.05L710.61,411.51L708.5,413.36L705.71,415.27L705.71,416.61L704.31,417.33L701.78,418.36L700.47,418.52L699.63,420.72L700.21,424.47L700.36,426.84L699.18,429.55L699.16,434.38L697.71,434.52L696.44,436.67L697.29,437.6L694.73,438.4L693.79,440.32L692.66,441.13L690.01,438.5L688.71,434.54L687.63,431.68L686.65,430.34L685.16,427.6L684.47,424.02L683.98,422.22L681.43,418.25L680.27,412.61L679.43,408.84L679.44,405.26L678.9,402.46L674.82,404.25L672.84,403.89L669.18,400.26L670.53,399.17L669.7,397.99L666.41,395.41L668.28,393.37L674.45,393.38L673.89,390.74L672.32,389.18L672,386.79L670.16,385.39L673.25,382.09L676.51,382.33L679.44,379.01L681.2,375.75L683.92,372.51L683.88,370.18L686.27,368.27L684,366.64L683.03,364.39L682.04,361.44L683.41,359.98L687.67,360.81L690.79,360.3z"/>

<path id="ID" title="Indonesia" class="area" d="M813.72,492.06l-1.18,0.05l-3.72,-1.98l2.61,-0.56l1.47,0.86l0.98,0.86L813.72,492.06zM824.15,491.78l-2.4,0.62l-0.34,-0.34l0.25,-0.96l1.21,-1.72l2.77,-1.12l0.28,0.56l0.05,0.86L824.15,491.78zM805.83,486.01l1.01,0.75l1.73,-0.23l0.7,1.2l-3.24,0.57l-1.94,0.38l-1.51,-0.02l0.96,-1.62l1.54,-0.02L805.83,486.01zM819.86,486l-0.41,1.56l-4.21,0.8l-3.73,-0.35l-0.01,-1.03l2.23,-0.59l1.76,0.84l1.87,-0.21L819.86,486zM779.82,482.31l5.37,0.28l0.62,-1.16l5.2,1.35l1.02,1.82l4.21,0.51l3.44,1.67l-3.2,1.07l-3.08,-1.13l-2.54,0.08l-2.91,-0.21l-2.62,-0.51l-3.25,-1.07l-2.06,-0.28l-1.17,0.35l-5.11,-1.16l-0.49,-1.21l-2.57,-0.21l1.92,-2.68l3.4,0.17l2.26,1.09l1.16,0.21L779.82,482.31zM853,480.73l-1.44,1.91l-0.27,-2.11l0.5,-1.01l0.59,-0.95l0.64,0.82L853,480.73zM832.04,473.02l-1.05,0.93l-1.94,-0.51l-0.55,-1.2l2.84,-0.13L832.04,473.02zM841.08,472.01l1.02,2.13l-2.37,-1.15l-2.34,-0.23l-1.58,0.18l-1.94,-0.1l0.67,-1.53l3.46,-0.12L841.08,472.01zM851.37,466.59l0.78,4.51l2.9,1.67l2.34,-2.96l3.22,-1.68l2.49,0l2.4,0.97l2.08,1l3.01,0.53l0.05,9.1l0.05,9.16l-2.5,-2.31l-2.85,-0.57l-0.69,0.8l-3.55,0.09l1.19,-2.29l1.77,-0.78l-0.73,-3.05l-1.35,-2.35l-5.44,-2.37l-2.31,-0.23l-4.21,-2.58l-0.83,1.36l-1.08,0.25l-0.64,-1.02l-0.01,-1.21l-2.14,-1.37l3.02,-1l2,0.05l-0.24,-0.74l-4.1,-0.01l-1.11,-1.66l-2.5,-0.51l-1.19,-1.38l3.78,-0.67l1.44,-0.91l4.5,1.14L851.37,466.59zM826.41,459.43l-2.25,2.76l-2.11,0.54l-2.7,-0.54l-4.67,0.14l-2.45,0.4l-0.4,2.11l2.51,2.48l1.51,-1.26l5.23,-0.95l-0.23,1.28l-1.22,-0.4l-1.22,1.63l-2.47,1.08l2.65,3.57l-0.51,0.96l2.52,3.22l-0.02,1.84l-1.5,0.82l-1.1,-0.98l1.36,-2.29l-2.75,1.08l-0.7,-0.77l0.36,-1.08l-2.02,-1.64l0.21,-2.72l-1.87,0.85l0.24,3.25l0.11,4l-1.78,0.41l-1.2,-0.82l0.8,-2.57l-0.43,-2.69l-1.18,-0.02l-0.87,-1.91l1.16,-1.83l0.4,-2.21l1.41,-4.2l0.59,-1.15l2.38,-2.07l2.19,0.82l3.54,0.39l3.22,-0.12l2.77,-2.02L826.41,459.43zM836.08,460.23l-0.15,2.43l-1.45,-0.27l-0.43,1.69l1.16,1.47l-0.79,0.33l-1.13,-1.76l-0.83,-3.56l0.56,-2.23l0.93,-1.01l0.2,1.52l1.66,0.24L836.08,460.23zM805.76,458.29l3.14,2.58l-3.32,0.33l-0.94,1.9l0.12,2.52l-2.7,1.91L802,470.3l-1.08,4.27l-0.41,-0.99l-3.19,1.26l-1.11,-1.71l-2,-0.16l-1.4,-0.89l-3.33,1l-1.02,-1.35l-1.84,0.15l-2.31,-0.32l-0.43,-3.74l-1.4,-0.77l-1.35,-2.38l-0.39,-2.44l0.33,-2.58l1.67,-1.85l0.47,1.86l1.92,1.57l1.81,-0.57l1.79,0.2l1.63,-1.41l1.34,-0.24l2.65,0.78l2.29,-0.59l1.44,-3.88l1.08,-0.97l0.97,-3.17l3.22,0l2.43,0.47l-1.59,2.52l2.06,2.64L805.76,458.29zM771.95,479.71l-3.1,0.06l-2.36,-2.34l-3.6,-2.28l-1.2,-1.69l-2.12,-2.27l-1.39,-2.09l-2.13,-3.9l-2.46,-2.32l-0.82,-2.39l-1.03,-2.17l-2.53,-1.75l-1.47,-2.39l-2.11,-1.56l-2.92,-3.08l-0.25,-1.42l1.81,0.11l4.34,0.54l2.48,2.73l2.17,1.89l1.55,1.16l2.66,3l2.85,0.04l2.36,1.91l1.62,2.33l2.13,1.27l-1.12,2.27l1.61,0.97l1.01,0.07l0.48,1.94l0.98,1.56l2.06,0.25l1.36,1.76l-0.7,3.47L771.95,479.71z"/>
<path id="JP" title="Japan" class="area" d="M852.76,362.01l0.36,1.15l-1.58,2.03l-1.15,-1.07l-1.44,0.78l-0.74,1.95l-1.83,-0.95l0.02,-1.58l1.55,-2l1.59,0.39l1.15,-1.42L852.76,362.01zM870.53,351.73l-1.06,2.78l0.49,1.73l-1.46,2.42l-3.58,1.6l-4.93,0.21l-4,3.84l-1.88,-1.29L854,360.5l-4.88,0.75l-3.32,1.59l-3.28,0.06l2.84,2.46l-1.87,5.61l-1.81,1.37l-1.36,-1.27l0.69,-2.96l-1.77,-0.96l-1.14,-2.28l2.65,-1.03l1.47,-2.11l2.82,-1.75l2.06,-2.33l5.58,-1.02l3,0.7l2.93,-6.17l1.87,1.67l4.11,-3.51l1.59,-1.38l1.76,-4.38l-0.48,-4.1l1.18,-2.33l2.98,-0.68l1.53,5.11l-0.08,2.94l-2.59,3.6L870.53,351.73zM878.76,325.8l1.97,0.83l1.98,-1.65l0.62,4.35l-4.16,1.05l-2.46,3.76l-4.41,-2.58l-1.53,4.12l-3.12,0.06l-0.39,-3.74l1.39,-2.94l3,-0.21l0.82,-5.38l0.83,-3.09l3.29,4.12L878.76,325.8z"/>
<path id="MY" title="Malaysia" class="area" d="M758.65,446.07l0.22,1.44l1.85,-0.33l0.92,-1.15l0.64,0.26l1.66,1.69l1.18,1.87l0.16,1.88l-0.3,1.27l0.27,0.96l0.21,1.65l0.99,0.77l1.1,2.46l-0.05,0.94l-1.99,0.19l-2.65,-2.06l-3.32,-2.21l-0.33,-1.42l-1.62,-1.87l-0.39,-2.31l-1.01,-1.52l0.31,-2.04l-0.62,-1.19l0.49,-0.5L758.65,446.07zM807.84,450.9l-2.06,0.95l-2.43,-0.47l-3.22,0l-0.97,3.17l-1.08,0.97l-1.44,3.88l-2.29,0.59l-2.65,-0.78l-1.34,0.24l-1.63,1.41l-1.79,-0.2l-1.81,0.57l-1.92,-1.57l-0.47,-1.86l2.05,0.96l2.17,-0.52l0.56,-2.36l1.2,-0.53l3.36,-0.6l2.01,-2.21l1.38,-1.77l1.28,1.45l0.59,-0.95l1.34,0.09l0.16,-1.78l0.13,-1.38l2.16,-1.95l1.41,-2.19l1.13,-0.01l1.44,1.42l0.13,1.22l1.85,0.78l2.34,0.84l-0.2,1.1l-1.88,0.14L807.84,450.9z"/>
<path id="MN" title="Mongolia" class="area" d="M721.29,304.88L724.25,304.14L729.6,300.4L733.87,298.33L736.3,299.68L739.23,299.74L741.1,301.79L743.9,301.94L747.96,303.03L750.68,300L749.54,297.4L752.45,292.74L755.59,294.61L758.13,295.14L761.43,296.29L761.96,299.61L765.95,301.45L768.6,300.64L772.14,300.07L774.95,300.65L777.7,302.74L779.4,304.94L782,304.9L785.53,305.59L788.11,304.53L791.8,303.82L795.91,300.76L797.59,301.23L799.06,302.69L802.4,302.33L801.04,305.58L799.06,309.8L799.78,311.51L801.37,310.98L804.13,311.63L806.29,310.09L808.54,311.42L811.08,314.31L810.77,315.76L808.56,315.3L804.49,315.84L802.51,317L800.46,319.66L796.18,321.21L793.39,323.31L790.51,322.51L788.93,322.15L787.46,324.69L788.35,326.19L788.81,327.47L786.84,328.77L784.83,330.82L781.56,332.15L777.35,332.3L772.82,333.61L769.56,335.62L768.32,334.46L764.93,334.46L760.78,332.17L758.01,331.6L754.28,332.13L748.49,331.28L745.4,331.37L743.76,329.1L742.48,325.53L740.75,325.1L737.36,322.65L733.58,322.1L730.25,321.42L729.24,319.69L730.32,314.96L728.39,311.65L724.39,310.08L722.03,307.85z"/>
<path id="NP" title="Nepal" class="area" d="M722.33,382.45L722.11,383.8L722.48,385.79L722.16,387.03L719.83,387.08L716.45,386.35L714.29,386.06L712.67,384.47L708.83,384.06L705.17,382.29L702.53,380.74L699.81,379.54L700.9,376.55L702.68,375.09L703.84,374.31L706.09,375.31L708.92,377.4L710.49,377.86L711.43,379.39L713.61,380.02L715.89,381.41L719.06,382.14z"/>

<path id="NZ" title="New Zealand" class="area" d="M960.38,588.63l0.64,1.53l1.99,-1.5l0.81,1.57l0,1.57l-1.04,1.74l-1.83,2.8l-1.43,1.54l1.03,1.86l-2.16,0.05l-2.4,1.46l-0.75,2.57l-1.59,4.03l-2.2,1.8l-1.4,1.16l-2.58,-0.09l-1.82,-1.34l-3.05,-0.28l-0.47,-1.48l1.51,-2.96l3.53,-3.87l1.81,-0.73l2.01,-1.47l2.4,-2.01l1.68,-1.98l1.25,-2.81l1.06,-0.95l0.42,-2.07l1.97,-1.7L960.38,588.63zM964.84,571.61l2.03,3.67l0.06,-2.38l1.27,0.95l0.42,2.65l2.26,1.15l1.89,0.28l1.6,-1.35l1.42,0.41l-0.68,3.15l-0.85,2.09l-2.14,-0.07l-0.75,1.1l0.26,1.56l-0.41,0.68l-1.06,1.97l-1.39,2.53l-2.17,1.49l-0.48,-0.98l-1.17,-0.54l1.62,-3.04l-0.92,-2.01l-3.02,-1.45l0.08,-1.31l2.03,-1.25l0.47,-2.74l-0.13,-2.28l-1.14,-2.34l0.08,-0.61l-1.34,-1.43l-2.21,-3.04l-1.17,-2.41l1.04,-0.27l1.53,1.89l2.18,0.89L964.84,571.61z"/>

<path id="KP" title="North Korea" class="area" d="M841.55,332.62L841.94,333.29L840.88,333.06L839.66,334.33L838.82,335.61L838.93,338.28L837.48,339.09L836.98,339.74L835.92,340.82L834.05,341.42L832.84,342.4L832.75,343.97L832.42,344.37L833.54,344.95L835.13,346.53L834.72,347.39L833.53,347.62L831.55,347.79L830.46,349.39L829.2,349.27L829.03,349.59L827.67,348.92L827.33,349.58L826.51,349.87L826.41,349.21L825.68,348.89L824.93,348.32L825.7,346.75L826.36,346.33L826.11,345.68L826.82,343.74L826.63,343.15L825,342.75L823.68,341.78L825.96,339.43L829.05,337.45L830.98,334.8L832.31,335.97L834.73,336.11L834.29,334.14L838.62,332.51L839.74,330.38z"/>

<path id="PG" title="Papua New Guinea" class="area" d="M912.32,482.42l-0.79,0.28l-1.21,-1.08l-1.23,-1.78l-0.6,-2.13l0.39,-0.27l0.3,0.83l0.85,0.63l1.36,1.77l1.32,0.95L912.32,482.42zM901.39,478.67l-1.47,0.23l-0.44,0.79l-1.53,0.68l-1.44,0.66l-1.49,0l-2.3,-0.81l-1.6,-0.78l0.23,-0.87l2.51,0.41l1.53,-0.22l0.42,-1.34l0.4,-0.07l0.27,1.49l1.6,-0.21l0.79,-0.96l1.57,-1l-0.31,-1.65l1.68,-0.05l0.57,0.46l-0.06,1.55L901.39,478.67zM887.96,484.02l2.5,1.84l1.82,2.99l1.61,-0.09l-0.11,1.25l2.17,0.48l-0.84,0.53l2.98,1.19l-0.31,0.82l-1.86,0.2l-0.69,-0.73l-2.41,-0.32l-2.83,-0.43l-2.18,-1.8l-1.59,-1.55l-1.46,-2.46l-3.66,-1.23l-2.38,0.8l-1.71,0.93l0.36,2.08l-2.2,0.97l-1.57,-0.47l-2.9,-0.12l-0.05,-9.16l-0.05,-9.1l4.87,1.92l5.18,1.6l1.93,1.43l1.56,1.41l0.43,1.65l4.67,1.73l0.68,1.49l-2.58,0.3L887.96,484.02zM904.63,475.93l-0.88,0.74l-0.53,-1.65l-0.65,-1.08l-1.27,-0.91l-1.6,-1.19l-2.02,-0.82l0.78,-0.67l1.51,0.78l0.95,0.61l1.18,0.67l1.12,1.17l1.07,0.89L904.63,475.93z"/>
<path id="PK" title="Pakistan" class="area" d="M685.99,351.76L688.06,353.39L688.89,356.05L693.5,357.44L690.79,360.3L687.67,360.81L683.41,359.98L682.04,361.44L683.03,364.39L684,366.64L686.27,368.27L683.88,370.18L683.92,372.51L681.2,375.75L679.44,379.01L676.51,382.33L673.25,382.09L670.16,385.39L672,386.79L672.32,389.18L673.89,390.74L674.45,393.38L668.28,393.37L666.41,395.41L664.36,394.64L663.52,392.44L661.35,390.1L656.19,390.68L651.63,390.73L647.68,391.17L648.74,387.57L652.78,385.96L652.55,384.52L651.21,384.01L651.13,381.24L648.45,379.84L647.32,377.91L645.94,376.23L650.63,377.87L653.44,377.39L655.11,377.79L655.68,377.09L657.63,377.37L661.28,376.04L661.38,373.29L662.94,371.45L665.03,371.45L665.33,370.54L667.48,370.11L668.51,370.41L669.61,369.49L669.46,367.51L670.65,365.51L672.43,364.66L671.33,362.44L674,362.55L674.77,361.33L674.65,360.03L676.05,358.6L675.72,356.9L675.06,355.44L676.7,353.93L679.71,353.2L682.93,352.8L684.35,352.15z"/>
<path id="PE" title="Peru" class="area" d="M280.13,513.14L279.38,514.65L277.94,515.39L275.13,513.71L274.88,512.51L269.33,509.59L264.3,506.42L262.13,504.64L260.97,502.27L261.43,501.44L259.06,497.69L256.29,492.45L253.65,486.83L252.5,485.54L251.62,483.48L249.44,481.64L247.44,480.51L248.35,479.26L246.99,476.59L247.86,474.64L250.1,472.87L250.43,474.04L249.63,474.7L249.7,475.72L250.86,475.5L252,475.8L253.17,477.21L254.76,476.06L255.29,474.18L257.01,471.75L260.38,470.65L263.44,467.73L264.31,465.92L263.92,463.81L264.67,463.54L266.53,464.86L267.42,466.18L268.72,466.9L270.37,469.82L272.46,470.17L274.01,469.43L275.02,469.91L276.7,469.67L278.85,470.98L277.04,473.82L277.88,473.88L279.28,475.37L276.75,475.24L276.38,475.66L274.08,476.19L270.88,478.1L270.67,479.4L269.96,480.38L270.24,481.89L268.54,482.7L268.54,483.89L267.8,484.4L268.97,486.93L270.53,488.65L269.94,489.86L271.8,490.02L272.86,491.53L275.33,491.6L277.63,489.94L277.44,494.24L278.72,494.57L280.3,494.08L282.73,498.66L282.12,499.62L281.99,501.64L281.93,504.08L280.83,505.52L281.34,506.59L280.69,507.56L281.9,510z"/>

<path id="PH" title="Philippines" class="area" d="M829.59,439.86l0.29,1.87l0.17,1.58l-0.96,2.57l-1.02,-2.86l-1.31,1.42l0.9,2.06l-0.8,1.31l-3.3,-1.63l-0.79,-2.03l0.86,-1.33l-1.78,-1.33l-0.88,1.17l-1.32,-0.11l-2.08,1.57l-0.46,-0.82l1.1,-2.37l1.77,-0.79l1.53,-1.06l0.99,1.27l2.13,-0.77l0.46,-1.26l1.98,-0.08l-0.17,-2.18l2.27,1.34l0.24,1.42L829.59,439.86zM822.88,434.6l-1.01,0.93l-0.88,1.79l-0.88,0.84l-1.73,-1.95l0.58,-0.76l0.7,-0.79l0.31,-1.76l1.55,-0.17l-0.45,1.91l2.08,-2.74L822.88,434.6zM807.52,437.32l-3.73,2.67l1.38,-1.97l2.03,-1.74l1.68,-1.96l1.47,-2.82l0.5,2.31l-1.85,1.56L807.52,437.32zM817,430.02l1.68,0.88l1.78,0l-0.05,1.19l-1.3,1.2l-1.78,0.85l-0.1,-1.32l0.2,-1.45L817,430.02zM827.14,429.25l0.79,3.18l-2.16,-0.75l0.06,0.95l0.69,1.75l-1.33,0.63l-0.12,-1.99l-0.84,-0.15l-0.44,-1.72l1.65,0.23l-0.04,-1.08l-1.71,-2.18l2.69,0.06L827.14,429.25zM816,426.66l-0.74,2.47l-1.2,-1.42l-1.43,-2.18l2.4,0.1L816,426.66zM815.42,410.92l1.73,0.84l0.86,-0.76l0.25,0.75l-0.46,1.22l0.96,2.09l-0.74,2.42l-1.65,0.96l-0.44,2.33l0.63,2.29l1.49,0.32l1.24,-0.34l3.5,1.59l-0.27,1.56l0.92,0.69l-0.29,1.32l-2.18,-1.4l-1.04,-1.5l-0.72,1.05l-1.79,-1.72l-2.55,0.42l-1.4,-0.63l0.14,-1.19l0.88,-0.73l-0.84,-0.67l-0.36,1.04l-1.38,-1.65l-0.42,-1.26l-0.1,-2.77l1.13,0.96l0.29,-4.55l0.91,-2.66L815.42,410.92z"/>

<path id="RU" title="Russia" class="area" d="M1008.27,215.75l-2.78,2.97l-4.6,0.7l-0.07,6.46l-1.12,1.35l-2.63,-0.19l-2.14,-2.26l-3.73,-1.92l-0.63,-2.89l-2.85,-1.1l-3.19,0.87l-1.52,-2.37l0.61,-2.55l-3.36,1.64l1.26,3.19l-1.59,2.83l-0.02,0.04l-3.6,2.89l-3.63,-0.48l2.53,3.44l1.67,5.2l1.29,1.67l0.33,2.53l-0.72,1.6l-5.23,-1.32l-7.84,4.51l-2.49,0.69l-4.29,4.1l-4.07,3.5l-1.03,2.55l-4.01,-3.9l-7.31,4.42l-1.28,-2.08l-2.7,2.39l-3.75,-0.76l-0.9,3.63l-3.36,5.22l0.1,2.14l3.19,1.17l-0.38,7.46l-2.6,0.19l-1.2,4.15l1.17,2.1l-4.9,2.47l-0.97,5.4l-4.18,1.14l-0.84,4.66l-4.04,4.18l-1.04,-3.08l-1.2,-6.69l-1.56,-10.65l1.35,-6.95l2.37,-3.07l0.15,-2.44l4.36,-1.18l5.01,-6.78l4.83,-5.73l5.04,-4.57l2.25,-8.37l-3.41,0.51l-1.68,4.92l-7.11,6.36l-2.3,-7.14l-7.24,2l-7.02,9.56l2.32,3.38l-6.26,1.42l-4.33,0.56l0.2,-3.95l-4.36,-0.84l-3.47,2.7l-8.57,-0.94l-9.22,1.62l-9.08,10.33l-10.75,11.78l4.42,0.61l1.38,3l2.72,1.05l1.79,-2.38l3.08,0.31l4.05,5.19l0.09,3.92l-2.19,4.51l-0.24,5.27l-1.26,6.85l-4.23,6.01l-0.94,2.82l-3.81,4.66l-3.78,4.53l-1.81,2.28l-3.74,2.25l-1.77,0.05l-1.76,-1.86l-3.76,2.79l-0.44,1.26l-0.39,-0.66l-0.02,-1.93l1.43,-0.1l0.4,-4.55l-0.74,-3.36l2.41,-1.4l3.4,0.7l1.89,-3.89l0.96,-4.46l1.09,-1.51l1.47,-3.76l-4.63,1.24l-2.43,1.65l-4.26,0l-1.13,-3.95l-3.32,-3.03l-4.88,-1.38l-1.04,-4.28l-0.98,-2.73l-1.05,-1.94l-1.73,-4.61l-2.46,-1.71l-4.2,-1.39l-3.72,0.13l-3.48,0.84l-2.32,2.31l1.54,1.1l0.04,2.52l-1.56,1.45l-2.53,4.72l0.03,1.93l-3.95,2.74l-3.37,-1.63l-3.35,0.36l-1.47,-1.46l-1.68,-0.47l-4.11,3.06l-3.69,0.71l-2.58,1.06l-3.53,-0.7l-2.6,0.04l-1.7,-2.2l-2.75,-2.09l-2.81,-0.58l-3.55,0.57l-2.65,0.81l-3.98,-1.84l-0.53,-3.32l-3.3,-1.15l-2.54,-0.53l-3.14,-1.87l-2.9,4.66l1.14,2.6l-2.73,3.03l-4.05,-1.09l-2.8,-0.16l-1.87,-2.04l-2.92,-0.06l-2.44,-1.35l-4.26,2.07l-5.35,3.74l-2.96,0.74l-1.1,0.35l-1.49,-2.63l-3.61,0.58l-1.19,-1.84l-1.96,-0.85l-1.35,-2.55l-1.55,-0.8l-4.03,1.14l-3.86,-2.57l-1.49,2.33l-6.27,-11.58l-3.58,-3.66l1.03,-1.5l-7.03,4.49l-2.69,0.27l0.23,-2.58l-3.6,-1.63l-2.93,1.17l-0.88,-5.01l-5.04,-1.06l-2.52,2.03l-7.02,1.79l-1.37,1.19l-10.49,1.66l-1.29,1.62l2.02,3.21l-2.69,1.2l0.53,1.25l-2.69,2.22l4.54,3.1l-0.7,2.11l-3.94,-0.19l-0.81,1.31l-3.59,-2.29l-4.45,0.09l-2.98,1.87l-3.32,-1.79l-6.18,-3.1l-4.38,0.12l-5.79,4.85l-0.35,3.19l-2.88,-2.53l-2.24,4.77l0.82,0.87l-1.62,3.21l2.38,2.84l2.08,-0.12l1.79,2.76l-0.28,2.1l1.42,0.66l-1.28,2.39l-2.72,0.66l-2.79,4.09l2.55,3.7l-0.28,2.59l3.06,4.46l-1.67,1.51l-0.48,0.95l-1.24,-0.25l-1.93,-2.27l-0.79,-0.13l-1.76,-0.87l-0.86,-1.55l-2.62,-0.79l-1.7,0.6l-0.49,-0.71l-3.82,-1.83l-4.13,-0.62l-2.37,-0.66l-0.34,0.45l-3.57,-3.27l-3.2,-1.48l-2.42,-2.32l2.04,-0.64l2.33,-3.35l-1.57,-1.6l4.13,-1.67l-0.07,-0.9l-2.52,0.66l0.09,-1.83l1.45,-1.16l2.71,-0.31l0.44,-1.4l-0.62,-2.33l1.14,-2.23l-0.03,-1.26l-4.13,-1.41l-1.64,0.05l-1.73,-2.04l-2.15,0.69l-3.56,-1.54l0.06,-0.87l-1,-1.93l-2.24,-0.22l-0.23,-1.39l0.7,-0.91l-1.79,-2.58l-2.91,0.44l-0.85,-0.23l-0.71,1.04l-1.05,-0.18l-0.69,-2.94l-0.66,-1.54l0.54,-0.44l2.26,0.16l1.09,-1.02l-0.81,-1.25l-1.89,-0.83l0.17,-0.86l-1.14,-0.87l-1.76,-3.15l0.6,-1.31l-0.27,-2.31l-2.74,-1.18l-1.47,0.59l-0.4,-1.24l-2.95,-1.26l-0.9,-2.99l-0.24,-2.49l-1.35,-1.19l1.2,-1.66l-0.83,-4.96l2,-3.13l-0.42,-0.96l3.19,-3.07l-2.94,-2.68l6,-7.41l2.6,-3.45l1.05,-3.1l-4.15,-4.26l1.15,-4.15l-2.52,-4.85l1.89,-5.76l-3.26,-7.96l2.59,-5.48l-4.29,-4.99l0.41,-5.4l2.26,-0.72l4.77,-3.19l2.89,-2.81l4.61,4.86l7.68,1.88l10.59,8.65l2.15,3.51l0.19,4.8l-3.11,3.69l-4.58,1.85l-12.52,-5.31l-2.06,0.9l4.57,5.1l0.18,3.15l0.18,6.75l3.61,1.97l2.19,1.66l0.36,-3.11l-1.69,-2.8l1.78,-2.51l6.78,4.1l2.36,-1.59l-1.89,-4.88l6.53,-6.74l2.59,0.4l2.62,2.43l1.63,-4.81l-2.34,-4.28l1.37,-4.41l-2.06,-4.69l7.84,2.44l1.6,4.18l-3.55,0.91l0.02,4.04l2.21,2.44l4.33,-1.54l0.69,-4.61l5.86,-3.52l9.79,-6.54l2.11,0.38l-2.76,4.64l3.48,0.78l2.01,-2.58l5.25,-0.21l4.16,-3.19l3.2,4.62l3.19,-5.09l-2.94,-4.58l1.46,-2.66l8.28,2.44l3.88,2.49l10.16,8.8l1.88,-3.97l-2.85,-4.11l-0.08,-1.68l-3.38,-0.78l0.92,-3.83l-1.5,-6.49l-0.08,-2.74l5.17,-7.99l1.84,-8.42l2.08,-1.88l7.42,2.51l0.58,5.18l-2.66,7.28l1.74,2.78l0.9,5.94l-0.64,11.07l3.09,4.73l-1.2,5.01l-5.49,10.2l3.21,1.02l1.12,-2.51l3.08,-1.82l0.74,-3.55l2.43,-3.49l-1.63,-4.26l1.31,-5.08l-3.07,-0.64l-0.67,-4.42l2.24,-8.28l-3.64,-7.03l5.02,-6.04l-0.65,-6.62l1.4,-0.22l1.47,5.19l-1.11,8.67l3,1.59l-1.28,-6.37l4.69,-3.58l5.82,-0.49l5.18,5.18l-2.49,-7.62l-0.28,-10.28l4.88,-2.02l6.74,0.44l6.08,-1.32l-2.28,-5.38l3.25,-7.02l3.22,-0.3l5.45,-5.51l7.4,-1.51l0.94,-3.15l7.36,-1.08l2.29,2.61l6.29,-6.24l5.15,0.2l0.77,-5.24l2.68,-5.33l6.62,-5.31l4.81,4.21l-3.82,3.13l6.35,1.92l0.76,6.03l2.56,-2.94l8.2,0.16l6.32,5.84l2.25,4.35l-0.7,5.85l-3.1,3.24l-7.37,5.92l-2.11,3.08l3.48,1.43l4.15,2.55l2.52,-1.91l1.43,6.39l1.23,-2.56l4.48,-1.57l9,1.65l0.68,4.58l11.72,1.43l0.16,-7.47l5.95,1.74l4.48,-0.05l4.53,5.14l1.29,6.04l-1.66,3.84l3.52,6.98l4.41,3.49l2.71,-9.18l4.5,4l4.78,-2.38l5.43,2.72l2.07,-2.47l4.59,1.24l-2.02,-8.4l3.7,-4.07l25.32,6.06l2.39,5.35l7.34,6.65l11.32,-1.62l5.58,1.41l2.33,3.5l-0.34,6.02l3.45,2.29l3.75,-1.64l4.97,-0.21l5.29,1.57l5.31,-0.89l4.88,6.99l3.47,-2.48l-2.27,-5.07l1.25,-3.62l8.95,2.29l5.83,-0.49l8.06,3.84l3.92,3.44l6.87,5.86l7.35,7.34l-0.24,4.44l1.89,1.74l-0.65,-5.15l7.61,1.07L1008.27,215.75zM880.84,306.25l-2.82,-7.68l-1.16,-4.51l0.07,-4.5l-0.97,-4.5l-0.73,-3.15l-1.25,0.67l1.11,2.21l-2.59,2.17l-0.25,6.3l1.64,4.41l-0.12,5.85l-0.65,3.24l0.32,4.54l-0.31,4.01l0.52,3.4l1.84,-3.13l2.13,2.44l0.08,-2.84l-2.73,-4.23l1.72,-6.11L880.84,306.25zM537.82,278.77l-2.94,-0.86l-3.87,1.58l-0.64,2.13l3.45,0.55l5.16,-0.07l-0.22,-1.23l0.3,-1.33L537.82,278.77zM979.95,178.65l3.66,-0.52l2.89,-2.06l0.24,-1.19l-4.06,-2.51l-2.38,-0.02l-0.36,0.37l-3.57,3.64l0.5,2.73L979.95,178.65zM870.07,151.56l-2.66,3.92l0.49,0.52l5.75,1.08l4.25,-0.07l-0.34,-2.57l-3.98,-3.81L870.07,151.56zM894.64,142.03l3.24,-4.25l-7.04,-2.88l-5.23,-1.68l-0.67,3.59l5.21,4.27L894.64,142.03zM869.51,140.34l10.33,0.3l2.21,-8.14l-10.13,-6.07l-7.4,-0.51l-3.7,2.18l-1.51,7.75l5.55,7.01L869.51,140.34zM622.39,166.28l-2.87,1.96l0.41,4.83l5.08,2.35l0.74,3.82l9.16,1.1l1.66,-0.74l-5.36,-7.11l-0.57,-7.52l4.39,-9.14l4.18,-9.82l8.71,-10.17l8.56,-5.34l9.93,-5.74l1.88,-3.71l-1.95,-4.83l-5.46,1.6l-4.8,4.49l-9.33,2.22l-9.26,7.41l-6.27,5.85l0.76,4.87l-6.71,9.03l2.58,1.22l-5.56,8.27L622.39,166.28zM769.87,98.34l0.83,-5.72l-7.11,-8.34l-2.11,-0.98l-2.3,1.7l-5.12,18.6L769.87,98.34zM605.64,69.03l3.04,3.88l3.28,-2.69l0.39,-2.72l2.52,-1.27l3.76,-2.23l1.08,-2.62l-4.16,-3.85l-2.64,2.9l-1.61,4.12l-0.57,-4.65l-4.26,0.21L601,63.25l6.24,0.52L605.64,69.03zM736.89,82.07l4.65,5.73l7.81,4.2l6.12,-1.8l0.69,-13.62l-6.46,-16.04l-5.45,-9.02l-6.07,4.11l-7.28,11.83l3.83,3.27L736.89,82.07z"/>

<path id="SB" title="Solomon Islands" class="area" d="M929.81,492.75l0.78,0.97l-1.96,-0.02l-1.07,-1.74l1.67,0.69L929.81,492.75zM926.26,491.02l-1.09,0.06l-1.72,-0.29l-0.59,-0.44l0.18,-1.12l1.85,0.44l0.91,0.59L926.26,491.02zM928.58,490.25l-0.42,0.52l-2.08,-2.45l-0.58,-1.68h0.95l1.01,2.25L928.58,490.25zM923.52,486.69l0.12,0.57l-2.2,-1.19l-1.54,-1.01l-1.05,-0.94l0.42,-0.29l1.29,0.67l2.3,1.29L923.52,486.69zM916.97,483.91l-0.56,0.16l-1.23,-0.64l-1.15,-1.15l0.14,-0.47l1.67,1.18L916.97,483.91z"/>

<path id="KR" title="South Korea" class="area" d="M835.13,346.53L837.55,350.71L838.24,352.98L838.26,356.96L837.21,358.84L834.67,359.5L832.43,360.91L829.9,361.2L829.59,359.35L830.11,356.78L828.87,353.18L830.95,352.59L829.03,349.59L829.2,349.27L830.46,349.39L831.55,347.79L833.53,347.62L834.72,347.39z"/>
<path id="LK" title="Sri Lanka" class="area" d="M704.57,442.37L704.15,445.29L702.98,446.09L700.54,446.73L699.2,444.5L698.71,440.47L699.98,435.89L701.91,437.46L703.22,439.44z"/>
		
<path id="TH" title="Thailand" class="area" d="M762.89,429.18L760.37,427.87L757.97,427.93L758.38,425.68L755.91,425.7L755.69,428.84L754.18,432.99L753.27,435.49L753.46,437.54L755.28,437.63L756.42,440.2L756.93,442.63L758.49,444.24L760.19,444.57L761.64,446.02L760.73,447.17L758.87,447.51L758.65,446.07L756.37,444.84L755.88,445.34L754.77,444.27L754.29,442.88L752.8,441.29L751.44,439.96L750.98,441.61L750.45,440.05L750.76,438.29L751.58,435.58L752.94,432.67L754.48,430.02L753.38,427.42L753.43,426.09L753.11,424.49L751.24,422.21L750.57,420.76L751.54,420.23L752.56,417.71L751.42,415.79L749.64,413.66L748.28,411.09L749.46,410.56L750.74,407.37L752.72,407.23L754.36,405.95L755.96,405.26L757.18,406.18L757.34,407.96L759.23,408.09L758.54,411.2L758.61,413.82L761.56,412.08L762.4,412.59L764.05,412.51L764.61,411.49L766.73,411.69L768.86,414.07L769.04,416.94L771.31,419.47L771.18,421.91L770.27,423.21L767.64,422.8L764.02,423.35L762.22,425.73z"/>

<path id="TL" title="Timor-Leste" class="area" d="M825.65,488.25L825.98,487.59L828.39,486.96L830.35,486.86L831.22,486.51L832.28,486.86L831.25,487.62L828.33,488.85L825.98,489.67L825.93,488.81z"/>

<path id="VU" title="Vanuatu" class="area" d="M945.87,509.9l-0.92,0.38l-0.94,-1.27l0.1,-0.78L945.87,509.9zM943.8,505.46l0.46,2.33l-0.75,-0.36l-0.58,0.16l-0.4,-0.8l-0.06,-2.21L943.8,505.46z"/>

<path id="VN" title="Vietnam" class="area" d="M778.21,401.87L774.47,404.43L772.13,407.24L771.51,409.29L773.66,412.38L776.28,416.2L778.82,417.99L780.53,420.32L781.81,425.64L781.43,430.66L779.1,432.53L775.88,434.36L773.6,436.72L770.1,439.34L769.08,437.53L769.87,435.62L767.79,434.01L770.22,432.87L773.16,432.67L771.93,430.94L776.64,428.75L776.99,425.33L776.34,423.41L776.85,420.53L776.14,418.49L774.02,416.47L772.25,413.9L769.92,410.44L766.56,408.68L767.37,407.61L769.16,406.84L768.07,404.25L764.62,404.22L763.36,401.5L761.72,399.13L763.23,398.39L765.46,398.41L768.19,398.06L770.58,396.44L771.93,397.58L774.5,398.13L774.05,399.87L775.39,401.09z"/>

<path id="US" title="United States/Usa/United States of America" class="area" d="M109.25,279.8L109.25,279.8l-1.54,-1.83l-2.47,-1.57l-0.79,-4.36l-3.61,-4.13l-1.51,-4.94l-2.69,-0.34l-4.46,-0.13l-3.29,-1.54l-5.8,-5.64l-2.68,-1.05l-4.9,-1.99l-3.88,0.48l-5.51,-2.59l-3.33,-2.43l-3.11,1.21l0.58,3.93l-1.55,0.36l-3.24,1.16l-2.47,1.86l-3.11,1.16l-0.4,-3.24l1.26,-5.53l2.98,-1.77l-0.77,-1.46l-3.57,3.22l-1.91,3.77l-4.04,3.95l2.05,2.65l-2.65,3.85l-3.01,2.21l-2.81,1.59l-0.69,2.29l-4.38,2.63l-0.89,2.36l-3.28,2.13l-1.92,-0.38l-2.62,1.38l-2.85,1.67l-2.33,1.63l-4.81,1.38l-0.44,-0.81l3.07,-2.27l2.74,-1.51l2.99,-2.71l3.48,-0.56l1.38,-2.06l3.89,-3.05l0.63,-1.03l2.07,-1.83l0.48,-4l1.43,-3.17l-3.23,1.64l-0.9,-0.93l-1.52,1.95l-1.83,-2.73l-0.76,1.94l-1.05,-2.7l-2.8,2.17l-1.72,0l-0.24,-3.23l0.51,-2.02l-1.81,-1.98l-3.65,1.07l-2.37,-2.63l-1.92,-1.36l-0.01,-3.25l-2.16,-2.48l1.08,-3.41l2.29,-3.37l1,-3.15l2.27,-0.45l1.92,0.99l2.26,-3.01l2.04,0.54l2.14,-1.96l-0.52,-2.92l-1.57,-1.16l2.08,-2.52l-1.72,0.07l-2.98,1.43l-0.85,1.43l-2.21,-1.43l-3.97,0.73l-4.11,-1.56l-1.18,-2.65l-3.55,-3.91l3.94,-2.87l6.25,-3.41h2.31l-0.38,3.48l5.92,-0.27l-2.28,-4.34l-3.45,-2.72l-1.99,-3.64l-2.69,-3.17l-3.85,-2.38l1.57,-4.03l4.97,-0.25l3.54,-3.58l0.67,-3.92l2.86,-3.91l2.73,-0.95l5.31,-3.76l2.58,0.57l4.31,-4.61l4.24,1.83l2.03,3.87l1.25,-1.65l4.74,0.51l-0.17,1.95l4.29,1.43l2.86,-0.84l5.91,2.64l5.39,0.78l2.16,1.07l3.73,-1.34l4.25,2.46l3.05,1.13l-0.02,27.65l-0.01,35.43l2.76,0.17l2.73,1.56l1.96,2.44l2.49,3.6l2.73,-3.05l2.81,-1.79l1.49,2.85l1.89,2.23l2.57,2.42l1.75,3.79l2.87,5.88l4.77,3.2l0.08,3.12L109.25,279.8zM285.18,314.23l-1.25,-1.19l-1.88,0.7l-0.93,-1.08l-2.14,3.1l-0.86,3.15l-1,1.82l-1.19,0.62l-0.9,0.2l-0.28,0.98l-5.17,0l-4.26,0.03l-1.27,0.73l-2.87,2.73l0.29,0.54l0.17,1.51l-2.1,1.27l-2.3,-0.32l-2.2,-0.14l-1.33,0.44l0.25,1.15l0,0l0.05,0.37l-2.42,2.27l-2.11,1.09l-1.44,0.51l-1.66,1.03l-2.03,0.5l-1.4,-0.19l-1.73,-0.77l0.96,-1.45l0.62,-1.32l1.32,-2.09l-0.14,-1.57l-0.5,-2.24l-1.04,-0.39l-1.74,1.7l-0.56,-0.03l-0.14,-0.97l1.54,-1.56l0.26,-1.79l-0.23,-1.79l-2.08,-1.55l-2.38,-0.8l-0.39,1.52l-0.62,0.4l-0.5,1.95l-0.26,-1.33l-1.12,0.95l-0.7,1.32l-0.73,1.92l-0.14,1.64l0.93,2.38l-0.08,2.51l-1.14,1.84l-0.57,0.52l-0.76,0.41l-0.95,0.02l-0.26,-0.25l-0.76,-1.98l-0.02,-0.98l0.08,-0.94l-0.35,-1.87l0.53,-2.18l0.63,-2.71l1.46,-3.03l-0.42,0.01l-2.06,2.54l-0.38,-0.46l1.1,-1.42l1.67,-2.57l1.91,-0.36l2.19,-0.8l2.21,0.42l0.09,0.02l2.47,-0.36l-1.4,-1.61l-0.75,-0.13l-0.86,-0.16l-0.59,-1.14l-2.75,0.36l-2.49,0.9l-1.97,-1.55l-1.59,-0.52l0.9,-2.17l-2.48,1.37l-2.25,1.33l-2.16,1.04l-1.72,-1.4l-2.81,0.85l0.01,-0.6l1.9,-1.73l1.99,-1.65l2.86,-1.37l-3.45,-1.09l-2.27,0.55l-2.72,-1.3l-2.86,-0.67l-1.96,-0.26l-0.87,-0.72l-0.5,-2.35l-0.95,0.02l-0.01,1.64l-5.8,0l-9.59,0l-9.53,0l-8.42,0h-8.41h-8.27h-8.55h-2.76h-8.32h-7.96l0.95,3.47l0.45,3.41l-0.69,1.09l-1.49,-3.91l-4.05,-1.42l-0.34,0.82l0.82,1.94l0.89,3.53l0.51,5.42l-0.34,3.59l-0.34,3.54l-1.1,3.61l0.9,2.9l0.1,3.2l-0.61,3.05l1.49,1.99l0.39,2.95l2.17,2.99l1.24,1.17l-0.1,0.82l2.34,4.85l2.72,3.45l0.34,1.87l0.71,0.55l2.6,0.33l1,0.91l1.57,0.17l0.31,0.96l1.31,0.4l1.82,1.92l0.47,1.7l3.19,-0.25l3.56,-0.36l-0.26,0.65l4.23,1.6l6.4,2.31l5.58,-0.02l2.22,0l0.01,-1.35l4.86,0l1.02,1.16l1.43,1.03l1.67,1.43l0.93,1.69l0.7,1.77l1.45,0.97l2.33,0.96l1.77,-2.53l2.29,-0.06l1.98,1.28l1.41,2.18l0.97,1.86l1.65,1.8l0.62,2.19l0.79,1.47l2.19,0.96l1.99,0.68l1.09,-0.09l-0.53,-1.06l-0.14,-1.5l0.03,-2.16l0.65,-1.42l1.53,-1.51l2.79,-1.37l2.55,-2.37l2.36,-0.75l1.74,-0.23l2.04,0.74l2.45,-0.4l2.09,1.69l2.03,0.1l1.05,-0.61l1.04,0.47l0.53,-0.42l-0.6,-0.63l0.05,-1.3l-0.5,-0.86l1.16,-0.5l2.14,-0.22l2.49,0.36l3.17,-0.41l1.76,0.8l1.36,1.5l0.5,0.16l2.83,-1.46l1.09,0.49l2.19,2.68l0.79,1.75l-0.58,2.1l0.42,1.23l1.3,2.4l1.49,2.68l1.07,0.71l0.44,1.35l1.38,0.37l0.84,-0.39l0.7,-1.89l0.12,-1.21l0.09,-2.1l-1.33,-3.65l-0.02,-1.37l-1.25,-2.25l-0.94,-2.75l-0.5,-2.25l0.43,-2.31l1.32,-1.94l1.58,-1.57l3.08,-2.16l0.4,-1.12l1.42,-1.23l1.4,-0.22l1.84,-1.98l2.9,-1.01l1.78,-2.53l-0.39,-3.46l-0.29,-1.21l-0.8,-0.24l-0.12,-3.35l-1.93,-1.14l1.85,0.56l-0.6,-2.26l0.54,-1.55l0.33,2.97l1.43,1.36l-0.87,2.4l0.26,0.14l1.58,-2.81l0.9,-1.38l-0.04,-1.35l-0.7,-0.64l-0.58,-1.94l0.92,0.9l0.62,0.19l0.21,0.92l2.04,-2.78l0.61,-2.62l-0.83,-0.17l0.85,-1.02l-0.08,0.45l1.79,-0.01l3.93,-1.11l-0.83,-0.7l-4.12,0.7l2.34,-1.07l1.63,-0.18l1.22,-0.19l2.07,-0.65l1.35,0.07l1.89,-0.61l0.22,-1.07l-0.84,-0.84l0.29,1.37l-1.16,-0.09l-0.93,-1.99l0.03,-2.01l0.48,-0.86l1.48,-2.28l2.96,-1.15l2.88,-1.34l2.99,-1.9l-0.48,-1.29l-1.83,-2.25L285.18,314.23zM45.62,263.79l-1.5,0.8l-2.55,1.86l0.43,2.42l1.43,1.32l2.8,-1.95l2.43,-2.47l-1.19,-1.63L45.62,263.79zM0,235.22l2.04,-1.26l0.23,-0.68L0,232.61V235.22zM8.5,250.59l-2.77,0.97l1.7,1.52l1.84,1.04l1.72,-0.87l-0.27,-2.15L8.5,250.59zM105.85,283.09l-2.69,0.38l-1.32,-0.62l-0.17,1.52l0.52,2.07l1.42,1.46l1.04,2.13l1.69,2.1l1.12,0.01l-2.44,-3.7L105.85,283.09zM37.13,403.77l-1,-0.28l-0.27,0.26l0.02,0.19l0.32,0.24l0.48,0.63l0.94,-0.21l0.23,-0.36L37.13,403.77zM34.14,403.23l1.5,0.09l0.09,-0.32l-1.38,-0.13L34.14,403.23zM40.03,406.52l-0.5,-0.26l-1.07,-0.5l-0.21,-0.06l-0.16,0.28l0.19,0.58l-0.49,0.48l-0.14,0.33l0.46,1.08l-0.08,0.83l0.7,0.42l0.41,-0.49l0.9,-0.46l1.1,-0.63l0.07,-0.16l-0.71,-1.04L40.03,406.52zM32.17,401.38l-0.75,0.41l0.11,0.12l0.36,0.68l0.98,0.11l0.2,0.04l0.15,-0.17l-0.81,-0.99L32.17,401.38zM27.77,399.82l-0.43,0.3l-0.15,0.22l0.94,0.55l0.33,-0.3l-0.06,-0.7L27.77,399.82z"/>

</g>
</svg>
