<?xml version="1.0" encoding="utf-8"?>
<!-- Generator: Adobe Illustrator 22.1.0, SVG Export Plug-In . SVG Version: 6.00 Build 0)  -->
<svg version="1.1" id="Layer_1" xmlns="http://www.w3.org/2000/svg" xmlns:xlink="http://www.w3.org/1999/xlink" x="0px" y="0px"
	 viewBox="0 0 100 100" style="enable-background:new 0 0 100 100;" xml:space="preserve">
<style type="text/css">
	.st0{fill:#9155A2;}
	.st1{fill:#A076C0;}
	.st2{fill:#9C6AB6;}
	.st3{fill:#9965B0;}
	.st4{fill:#945BA7;}
	.st5{fill:#7D3E89;}
	.st6{fill:#8D509D;}
	.st7{fill:#8A4B98;}
	.st8{fill:#81428E;}
	.st9{fill:#622D6D;}
	.st10{fill:#793A83;}
	.st11{fill:#74367E;}
	.st12{fill:#6F3279;}
	.st13{fill:#683074;}
	.st14{fill:#00638B;}
	.st15{fill:#13A7B7;}
	.st16{fill:#0C94AA;}
	.st17{fill:#077F9B;}
	.st18{fill:#047396;}
	.st19{fill:#FFFFFF;}
	.st20{fill:#34274F;}
	.st21{fill:#532962;}
	.st22{fill:#4B285C;}
	.st23{fill:#3F2756;}
</style>
<g id="Layer_2_1_">
</g>
<path class="st0" d="M6.2,85.1L6.2,85.1c0,4.8,3.9,8.7,8.7,8.7h8.9V76.4h-8.9C10.1,76.4,6.2,80.3,6.2,85.1z"/>
<rect x="76.2" y="76.4" class="st1" width="17.6" height="17.3"/>
<rect x="58.7" y="76.4" class="st2" width="17.6" height="17.3"/>
<rect x="41.2" y="76.4" class="st3" width="17.6" height="17.3"/>
<rect x="23.7" y="76.4" class="st4" width="17.6" height="17.3"/>
<path class="st5" d="M7.2,89.1L7.2,89.1c-2.3-4.2-0.6-9.5,3.6-11.8l7.8-4.2l8.2,15.3L19,92.6C14.7,95,9.5,93.4,7.2,89.1z"/>
<rect x="67.9" y="43.4" transform="matrix(0.8825 -0.4704 0.4704 0.8825 -15.4959 42.2124)" class="st0" width="17.6" height="17.4"/>
<rect x="52.5" y="51.7" transform="matrix(0.8825 -0.4704 0.4704 0.8825 -21.1916 35.9461)" class="st6" width="17.6" height="17.4"/>
<rect x="37.1" y="59.9" transform="matrix(0.8825 -0.4704 0.4704 0.8825 -26.8596 29.6535)" class="st7" width="17.6" height="17.4"/>
<rect x="21.6" y="68.1" transform="matrix(0.8825 -0.4704 0.4704 0.8825 -32.5513 23.334)" class="st8" width="17.6" height="17.4"/>
<path class="st9" d="M10.9,92.6L10.9,92.6c-4.1-2.4-5.6-7.7-3.2-11.9l4.4-7.7l15.1,8.6l-4.4,7.7C20.3,93.5,15,94.9,10.9,92.6z"/>
<rect x="41.3" y="15.5" transform="matrix(0.4973 -0.8676 0.8676 0.4973 4.2081 55.6266)" class="st10" width="17.6" height="17.4"/>
<rect x="32.6" y="30.7" transform="matrix(0.4973 -0.8676 0.8676 0.4973 -13.3565 55.7003)" class="st11" width="17.6" height="17.4"/>
<rect x="23.9" y="45.9" transform="matrix(0.4973 -0.8676 0.8676 0.4973 -30.8992 55.8047)" class="st12" width="17.6" height="17.4"/>
<rect x="15.2" y="61" transform="matrix(0.4973 -0.8676 0.8676 0.4973 -48.3987 55.8087)" class="st13" width="17.6" height="17.4"/>
<path class="st14" d="M14.9,93.8L14.9,93.8c-4.8,0-8.7-3.9-8.7-8.7v-8.9h17.3v8.9C23.6,89.9,19.7,93.8,14.9,93.8z"/>
<rect x="6.2" y="6.2" class="st15" width="17.4" height="17.6"/>
<rect x="6.2" y="23.7" class="st16" width="17.4" height="17.6"/>
<rect x="6.2" y="41.2" class="st17" width="17.4" height="17.6"/>
<rect x="6.2" y="58.7" class="st18" width="17.4" height="17.6"/>
<circle class="st19" cx="15.1" cy="85" r="4.6"/>
<path class="st20" d="M14.9,93.8L14.9,93.8c-4.8,0-8.7-3.9-8.7-8.7v-8.9h17.3v8.9C23.6,89.9,19.7,93.8,14.9,93.8z"/>
<rect x="6.2" y="6.2" class="st21" width="17.4" height="17.6"/>
<rect x="6.2" y="23.7" class="st21" width="17.4" height="17.6"/>
<rect x="6.2" y="41.2" class="st22" width="17.4" height="17.6"/>
<rect x="6.2" y="58.7" class="st23" width="17.4" height="17.6"/>
<circle class="st19" cx="15.1" cy="85" r="4.6"/>
</svg>
