<?xml version="1.0" encoding="utf-8"?>
<!-- Generator: Adobe Illustrator 22.1.0, SVG Export Plug-In . SVG Version: 6.00 Build 0)  -->
<svg version="1.1" xmlns="http://www.w3.org/2000/svg" xmlns:xlink="http://www.w3.org/1999/xlink" x="0px" y="0px"
	 viewBox="0 0 100 100" style="enable-background:new 0 0 100 100;" xml:space="preserve">
<style type="text/css">
	.st0{fill:#DB5937;}
	.st1{fill:#F78A81;}
	.st2{fill:#F47769;}
	.st3{fill:#EF6B59;}
	.st4{fill:#E25E44;}
	.st5{fill:#FF9800;}
	.st6{fill:#FFE0B2;}
	.st7{fill:#FFCC80;}
	.st8{fill:#FFB74D;}
	.st9{fill:#FFA726;}
	.st10{fill:#2282B5;}
	.st11{fill:#7ECEE0;}
	.st12{fill:#63BED6;}
	.st13{fill:#51AECE;}
	.st14{fill:#3496C1;}
	.st15{fill:#8E8E8E;}
	.st16{fill:#CCCCCC;}
	.st17{fill:#C6C6C6;}
	.st18{fill:#B5B5B5;}
	.st19{fill:#A0A0A0;}
	.st20{fill:#FFFFFF;}
</style>
<g id="Layer_1">
</g>
<g id="Layer_4">
</g>
<g id="Layer_2">
</g>
<g id="Layer_3">
</g>
<g id="Layer_5">
	<g>
		<g>
			<path class="st0" d="M6.2,85.1L6.2,85.1c0,4.8,3.9,8.7,8.7,8.7h8.9V76.4h-8.9C10.1,76.4,6.2,80.3,6.2,85.1z"/>
			
				<rect x="76.3" y="76.3" transform="matrix(6.432727e-11 -1 1 6.432727e-11 -8.476989e-02 170.1254)" class="st1" width="17.4" height="17.6"/>
			
				<rect x="58.8" y="76.3" transform="matrix(6.432727e-11 -1 1 6.432727e-11 -17.5848 152.6254)" class="st2" width="17.4" height="17.6"/>
			
				<rect x="41.3" y="76.3" transform="matrix(6.432727e-11 -1 1 6.432727e-11 -35.0848 135.1254)" class="st3" width="17.4" height="17.6"/>
			
				<rect x="23.8" y="76.3" transform="matrix(6.432727e-11 -1 1 6.432727e-11 -52.5848 117.6254)" class="st4" width="17.4" height="17.6"/>
		</g>
		<g>
			<path class="st5" d="M7.2,89.2L7.2,89.2c-2.3-4.2-0.7-9.5,3.6-11.7l7.8-4.2l8.2,15.3L19,92.7C14.7,95,9.5,93.4,7.2,89.2z"/>
			
				<rect x="68.1" y="43.3" transform="matrix(0.4704 0.8825 -0.8825 0.4704 86.6175 -40.1301)" class="st6" width="17.4" height="17.6"/>
			
				<rect x="52.6" y="51.5" transform="matrix(0.4704 0.8825 -0.8825 0.4704 85.7026 -22.1424)" class="st7" width="17.4" height="17.6"/>
			
				<rect x="37.2" y="59.8" transform="matrix(0.4704 0.8825 -0.8825 0.4704 84.7878 -4.1548)" class="st8" width="17.4" height="17.6"/>
			
				<rect x="21.7" y="68" transform="matrix(0.4704 0.8825 -0.8825 0.4704 83.8729 13.8329)" class="st9" width="17.4" height="17.6"/>
		</g>
		<g>
			<path class="st10" d="M10.9,92.6L10.9,92.6c-4.2-2.4-5.6-7.7-3.2-11.8l4.4-7.7l15.1,8.6l-4.4,7.7C20.4,93.5,15.1,94.9,10.9,92.6z
				"/>
			
				<rect x="41.4" y="15.4" transform="matrix(0.8676 0.4973 -0.4973 0.8676 18.6642 -21.6972)" class="st11" width="17.4" height="17.6"/>
			
				<rect x="32.7" y="30.6" transform="matrix(0.8676 0.4973 -0.4973 0.8676 25.0619 -15.3601)" class="st12" width="17.4" height="17.6"/>
			
				<rect x="24" y="45.8" transform="matrix(0.8676 0.4973 -0.4973 0.8676 31.4597 -9.0229)" class="st13" width="17.4" height="17.6"/>
			
				<rect x="15.3" y="61" transform="matrix(0.8676 0.4973 -0.4973 0.8676 37.8574 -2.6858)" class="st14" width="17.4" height="17.6"/>
		</g>
		<g>
			<path class="st15" d="M14.9,93.8L14.9,93.8c-4.8,0-8.7-3.9-8.7-8.7v-8.9h17.4v8.9C23.6,89.9,19.7,93.8,14.9,93.8z"/>
			<rect x="6.2" y="6.2" class="st16" width="17.4" height="17.6"/>
			<rect x="6.2" y="23.7" class="st17" width="17.4" height="17.6"/>
			<rect x="6.2" y="41.2" class="st18" width="17.4" height="17.6"/>
			<rect x="6.2" y="58.7" class="st19" width="17.4" height="17.6"/>
			<circle class="st20" cx="15.2" cy="85" r="4.6"/>
		</g>
	</g>
</g>
</svg>
