<?xml version="1.0" encoding="utf-8"?>
<!-- Generator: Adobe Illustrator 22.1.0, SVG Export Plug-In . SVG Version: 6.00 Build 0)  -->
<svg version="1.1" id="Layer_1" xmlns="http://www.w3.org/2000/svg" xmlns:xlink="http://www.w3.org/1999/xlink" x="0px" y="0px"
	 viewBox="0 0 100 100" style="enable-background:new 0 0 100 100;" xml:space="preserve">
<style type="text/css">
	.st0{fill:#C46084;}
	.st1{fill:#494949;}
	.st2{fill:#686868;}
	.st3{fill:#5E5E5E;}
	.st4{fill:#595959;}
	.st5{fill:#4F4F4F;}
	.st6{fill:#2B2C2D;}
	.st7{fill:#3F3F3F;}
	.st8{fill:#3A3A3A;}
	.st9{fill:#343535;}
	.st10{fill:#141819;}
	.st11{fill:#202223;}
	.st12{fill:#191B1C;}
	.st13{fill:#151819;}
	.st14{fill:#111516;}
	.st15{fill:#0C1011;}
	.st16{fill:#06090A;}
	.st17{fill:#FFFFFF;}
</style>
<g id="Layer_1_1_">
	<g>
		<g>
			<path class="st0" d="M686.9,130.9c1.9,0,1.9-3,0-3C684.9,127.9,684.9,130.9,686.9,130.9L686.9,130.9z"/>
		</g>
	</g>
</g>
<g id="Layer_4">
</g>
<g id="Layer_2_1_">
</g>
<g id="Layer_3">
</g>
<path class="st1" d="M6.2,85.1L6.2,85.1c0,4.8,3.9,8.7,8.7,8.7h8.9V76.4h-8.9C10.1,76.4,6.2,80.3,6.2,85.1z"/>
<rect x="76.2" y="76.4" class="st2" width="17.6" height="17.4"/>
<rect x="58.7" y="76.4" class="st3" width="17.6" height="17.4"/>
<rect x="41.2" y="76.4" class="st4" width="17.6" height="17.4"/>
<rect x="23.7" y="76.4" class="st5" width="17.6" height="17.4"/>
<path class="st6" d="M7.2,89.2L7.2,89.2c-2.3-4.2-0.7-9.5,3.6-11.7l7.8-4.2l8.2,15.3L19,92.7C14.7,95,9.5,93.4,7.2,89.2z"/>
<rect x="68" y="43.3" transform="matrix(0.8825 -0.4704 0.4704 0.8825 -15.4394 42.2495)" class="st1" width="17.6" height="17.4"/>
<rect x="52.5" y="51.6" transform="matrix(0.8825 -0.4704 0.4704 0.8825 -21.1661 35.9219)" class="st7" width="17.6" height="17.4"/>
<rect x="37" y="59.9" transform="matrix(0.8825 -0.4704 0.4704 0.8825 -26.8959 29.608)" class="st8" width="17.6" height="17.4"/>
<rect x="21.6" y="68.1" transform="matrix(0.8825 -0.4704 0.4704 0.8825 -32.5509 23.3301)" class="st9" width="17.6" height="17.4"/>
<path class="st10" d="M10.9,92.6L10.9,92.6c-4.2-2.4-5.6-7.7-3.2-11.8l4.4-7.7l15.1,8.6l-4.4,7.7C20.4,93.5,15.1,94.9,10.9,92.6z"/>
<rect x="41.3" y="15.5" transform="matrix(0.4973 -0.8676 0.8676 0.4973 4.1812 55.6221)" class="st6" width="17.6" height="17.4"/>
<rect x="32.6" y="30.7" transform="matrix(0.4973 -0.8676 0.8676 0.4973 -13.3735 55.7082)" class="st11" width="17.6" height="17.4"/>
<rect x="23.9" y="45.9" transform="matrix(0.4973 -0.8676 0.8676 0.4973 -30.9282 55.7945)" class="st12" width="17.6" height="17.4"/>
<rect x="15.2" y="61.1" transform="matrix(0.4973 -0.8676 0.8676 0.4973 -48.4828 55.8808)" class="st13" width="17.6" height="17.4"/>
<path d="M14.9,93.8L14.9,93.8c-4.8,0-8.7-3.9-8.7-8.7v-8.9h17.4v8.9C23.6,89.9,19.7,93.8,14.9,93.8z"/>
<rect x="6.2" y="6.2" class="st10" width="17.4" height="17.6"/>
<rect x="6.2" y="23.7" class="st14" width="17.4" height="17.6"/>
<rect x="6.2" y="41.2" class="st15" width="17.4" height="17.6"/>
<rect x="6.2" y="58.7" class="st16" width="17.4" height="17.6"/>
<circle class="st17" cx="15.2" cy="85" r="4.6"/>
</svg>
