<!-- Created with Inkscape (http://www.inkscape.org/) -->
<svg id="svg4373" xmlns:inkscape="http://www.inkscape.org/namespaces/inkscape" xmlns:rdf="http://www.w3.org/1999/02/22-rdf-syntax-ns#" xmlns="http://www.w3.org/2000/svg" inkscape:version="0.48.5 r10040" viewBox="0 0 32 32" height="100%" width="100%" version="1.1" xmlns:cc="http://creativecommons.org/ns#" xmlns:dc="http://purl.org/dc/elements/1.1/" sodipodi:docname="checkList.svg" xmlns:sodipodi="http://sodipodi.sourceforge.net/DTD/sodipodi-0.dtd">
 <sodipodi:namedview id="base" bordercolor="#666666" inkscape:pageshadow="2" inkscape:window-y="-8" pagecolor="#ffffff" inkscape:zoom="6.9600518" inkscape:window-width="1366" inkscape:window-maximized="1" inkscape:window-x="-8" showgrid="false" borderopacity="1.0" inkscape:current-layer="layer1" inkscape:cx="9.091515" inkscape:cy="25.318902" inkscape:window-height="706" inkscape:pageopacity="0.0" inkscape:document-units="px"/>
 <metadata id="metadata4378">
  <rdf:RDF>
   <cc:Work rdf:about="">
    <dc:format>image/svg+xml</dc:format>
    <dc:type rdf:resource="http://purl.org/dc/dcmitype/StillImage"/>
    <dc:title/>
   </cc:Work>
  </rdf:RDF>
 </metadata>
 <g id="layer1" inkscape:label="Layer 1" inkscape:groupmode="layer" transform="translate(0,-1020.3622)">
  <rect id="rect7721-1-4" fill-rule="nonzero" rx="0.68568" ry="1.3199" transform="scale(1,-1)" height="29.102" width="20.932" stroke="#000" stroke-dasharray="none" stroke-miterlimit="4" y="-1050.9" x="5.5342" stroke-width="1.1695" fill="#FFF"/>
  <path id="path7723" d="m7.8147,1027,1.2991,0.6077,3.523-2.3455c0.31159-0.2493,0.77514,0.4309,0.65563,0.654l-4.2781,3.7932-1.567-2.0243c-0.23061-0.2976,0.11973-0.7,0.40301-0.6618" sodipodi:nodetypes="ccccccc" inkscape:connector-curvature="0" fill="#00afa8"/>
  <rect id="rect3966" fill-rule="evenodd" rx="0.34349" ry="1.1364" height="2" width="9.9608" y="1026.6" x="14.489" fill="#000"/>
  <rect id="rect3970" fill-rule="evenodd" rx="0.34349" ry="1.1364" height="2" width="9.9608" y="1032.3" x="14.489" fill="#000"/>
  <rect id="rect3974" fill-rule="evenodd" rx="0.34349" ry="1.1364" height="2" width="9.9608" y="1038.4" x="14.489" fill="#000"/>
  <rect id="rect3976" fill-rule="evenodd" rx="0.34349" ry="1.1364" height="2" width="9.9608" y="1044.2" x="14.489" fill="#000"/>
  <path id="path3978" sodipodi:rx="1.5480366" sodipodi:ry="1.4569756" sodipodi:type="arc" d="m11.474,26.627a1.548,1.457,0,1,1,-3.0961,0,1.548,1.457,0,1,1,3.0961,0z" fill-rule="evenodd" transform="matrix(1.1304642,0,0,1.2011183,-1.3135454,1013.3778)" sodipodi:cy="26.627403" sodipodi:cx="9.9256468" fill="#00afa8"/>
  <path id="path3117" d="m7.8147,1033.1,1.2991,0.6077,3.523-2.3455c0.31159-0.2493,0.77514,0.4309,0.65563,0.654l-4.2781,3.7932-1.567-2.0243c-0.23061-0.2976,0.11973-0.7,0.40301-0.6618" sodipodi:nodetypes="ccccccc" inkscape:connector-curvature="0" fill="#00afa8"/>
  <path id="path3119" d="m7.8147,1039.3,1.2991,0.6077,3.523-2.3455c0.31159-0.2493,0.77514,0.4309,0.65563,0.654l-4.2781,3.7932-1.567-2.0243c-0.23061-0.2976,0.11973-0.7,0.40301-0.6618" sodipodi:nodetypes="ccccccc" inkscape:connector-curvature="0" fill="#00afa8"/>
 </g>
</svg>
