<svg id="SvgjsSvg1001" width="288" height="288" xmlns="http://www.w3.org/2000/svg" version="1.1" xmlns:xlink="http://www.w3.org/1999/xlink" xmlns:svgjs="http://svgjs.com/svgjs"><defs id="SvgjsDefs1002"></defs><g id="SvgjsG1008"><svg xmlns="http://www.w3.org/2000/svg" width="288" height="288" viewBox="0 0 17.962 23.047"><g data-name="Group 25" fill="#0d78bf" class="color000 svgShape"><g data-name="Group 78" transform="translate(.733 .502)" fill="#0d78bf" class="color000 svgShape"><path fill="#0d78bf" stroke="#0d78bf" d="M5841.207,362.306v-4.758a2.078,2.078,0,0,1,2.19-1.53c1.858.029,10.554,0,10.554,0s2.047-.111,2.1,1.53,0,4.758,0,4.758h-2.872v-2.268h-9.024v2.268Z" data-name="Path 84" transform="translate(-5840.413 -356.016)" class="colorfff svgShape colorStroke434344 svgStroke"></path><path fill="#0d78bf" stroke="#0d78bf" d="M0,6.29V1.532A2.079,2.079,0,0,1,2.191,0C4.049.03,12.745,0,12.745,0s2.047-.111,2.1,1.53,0,4.758,0,4.758H11.978V4.022H2.953V6.29Z" data-name="Path 85" transform="rotate(180 7.834 11.021)" class="colorfff svgShape colorStroke434344 svgStroke"></path><path fill="#0d78bf" stroke="#0d78bf" d="M5844.339,366.163l1.547,1.652-2.966,2.5,2.966,2.862-1.911,1.6-4.431-4.254Z" data-name="Path 86" transform="translate(-5839.544 -359.142)" class="colorfff svgShape colorStroke434344 svgStroke"></path><path fill="#0d78bf" stroke="#0d78bf" d="M4.795,0,6.342,1.652l-2.966,2.5L6.342,7.015l-1.911,1.6L0,4.358Z" data-name="Path 87" transform="rotate(177 8.03 7.926)" class="colorfff svgShape colorStroke434344 svgStroke"></path></g></g></svg></g></svg>