<svg xmlns="http://www.w3.org/2000/svg" width="10.516" height="13.146" viewBox="0 0 10.516 13.146">
  <g id="Icon_ionic-ios-copy" data-name="Icon ionic-ios-copy" transform="translate(0)">
    <path id="Path_339" data-name="Path 339" d="M23.93,3.841h2.465a.165.165,0,0,0,.164-.164h0a.764.764,0,0,0-.274-.583L24.174,1.335a1.024,1.024,0,0,0-.564-.2h0a.2.2,0,0,0-.2.2V3.32A.524.524,0,0,0,23.93,3.841Z" transform="translate(-16.042 -1.129)" fill="#434344"/>
    <path id="Path_340" data-name="Path 340" d="M14.589,3.316V1.125H11A.879.879,0,0,0,10.125,2v9.2A.879.879,0,0,0,11,12.08h6.573a.879.879,0,0,0,.876-.876V4.548H15.821A1.234,1.234,0,0,1,14.589,3.316Z" transform="translate(-7.934 -1.125)" fill="#434344"/>
    <path id="Path_341" data-name="Path 341" d="M5.924,14.717V5.625H5.376A.879.879,0,0,0,4.5,6.5v9.64a.879.879,0,0,0,.876.876h7.011a.879.879,0,0,0,.876-.876v-.548H6.8A.879.879,0,0,1,5.924,14.717Z" transform="translate(-4.5 -3.872)" fill="#434344"/>
  </g>
</svg>
