<svg xmlns="http://www.w3.org/2000/svg" width="15.424" height="15.424" viewBox="0 0 15.424 15.424">
  <path id="Icon_metro-cross" data-name="Icon metro-cross" d="M17.854,14.32h0L13.175,9.64l4.679-4.679h0a.483.483,0,0,0,0-.682l-2.21-2.21a.483.483,0,0,0-.682,0h0L10.283,6.748,5.6,2.069h0a.483.483,0,0,0-.681,0l-2.21,2.21a.483.483,0,0,0,0,.681h0L7.391,9.64,2.712,14.319h0a.483.483,0,0,0,0,.681l2.21,2.21a.483.483,0,0,0,.682,0h0l4.679-4.679,4.679,4.679h0a.483.483,0,0,0,.681,0L17.854,15a.483.483,0,0,0,0-.682Z" transform="translate(-2.571 -1.928)" fill="#434344"/>
</svg>
