<svg xmlns="http://www.w3.org/2000/svg" width="11.25" height="14.999" viewBox="0 0 11.25 14.999">
  <path id="Icon_awesome-file-csv" data-name="Icon awesome-file-csv" d="M6.562,3.984V0H.7A.7.7,0,0,0,0,.7V14.3a.7.7,0,0,0,.7.7h9.843a.7.7,0,0,0,.7-.7V4.687H7.265A.705.705,0,0,1,6.562,3.984ZM3.75,8.2a.234.234,0,0,1-.234.234H3.281a.469.469,0,0,0-.469.469v.937a.469.469,0,0,0,.469.469h.234a.234.234,0,0,1,.234.234v.469a.234.234,0,0,1-.234.234H3.281A1.406,1.406,0,0,1,1.875,9.843V8.906A1.406,1.406,0,0,1,3.281,7.5h.234a.234.234,0,0,1,.234.234Zm1.3,3.047H4.687a.234.234,0,0,1-.234-.234v-.469a.234.234,0,0,1,.234-.234h.359c.174,0,.3-.1.3-.194a.155.155,0,0,0-.062-.112l-.641-.55a1.087,1.087,0,0,1-.391-.824A1.192,1.192,0,0,1,5.5,7.5h.359a.234.234,0,0,1,.234.234V8.2a.234.234,0,0,1-.234.234H5.5c-.174,0-.3.1-.3.194a.155.155,0,0,0,.062.112l.641.55a1.087,1.087,0,0,1,.391.824A1.191,1.191,0,0,1,5.047,11.25ZM7.5,7.734v.609a3.193,3.193,0,0,0,.469,1.666,3.193,3.193,0,0,0,.469-1.666V7.734A.234.234,0,0,1,8.672,7.5H9.14a.234.234,0,0,1,.234.234v.609A4.029,4.029,0,0,1,8.312,11.1a.469.469,0,0,1-.687,0A4.029,4.029,0,0,1,6.562,8.343V7.734A.234.234,0,0,1,6.8,7.5h.469A.234.234,0,0,1,7.5,7.734Zm3.545-4.658L8.176.205A.7.7,0,0,0,7.678,0H7.5V3.75h3.75V3.571A.7.7,0,0,0,11.045,3.076Z" fill="#434344"/>
</svg>
