<svg id="svg2" xmlns:inkscape="http://www.inkscape.org/namespaces/inkscape" xmlns:rdf="http://www.w3.org/1999/02/22-rdf-syntax-ns#" xmlns="http://www.w3.org/2000/svg" sodipodi:docname="csvConnection.svg" viewBox="0 0 24 24" height="100%" width="100%" version="1.1" xmlns:cc="http://creativecommons.org/ns#" xmlns:dc="http://purl.org/dc/elements/1.1/" inkscape:version="0.48.5 r10040" xmlns:sodipodi="http://sodipodi.sourceforge.net/DTD/sodipodi-0.dtd">
 <metadata id="metadata32059">
  <rdf:RDF>
   <cc:Work rdf:about="">
    <dc:format>image/svg+xml</dc:format>
    <dc:type rdf:resource="http://purl.org/dc/dcmitype/StillImage"/>
    <dc:title/>
   </cc:Work>
  </rdf:RDF>
 </metadata>
 <sodipodi:namedview id="namedview32055" bordercolor="#666666" inkscape:pageshadow="2" guidetolerance="10" pagecolor="#ffffff" gridtolerance="10" inkscape:window-maximized="1" inkscape:zoom="9.8333333" objecttolerance="10" borderopacity="1" inkscape:current-layer="layer1" inkscape:cx="12" inkscape:cy="12" inkscape:window-y="-8" inkscape:window-x="-8" inkscape:window-width="1366" showgrid="false" inkscape:pageopacity="0" inkscape:window-height="706"/>
 <g id="layer1" inkscape:label="csv" inkscape:groupmode="layer" transform="translate(0,-1028.3622)">
  <path id="rect4806-0-2" d="m8.2763,1031.7,0,1.8436,1.7358,0,0.0011-1.8436z" fill-rule="nonzero" sodipodi:nodetypes="ccccc" inkscape:connector-curvature="0" fill="#000"/>
  <path id="path4677" d="m11.016,1031.7,0,1.8436,1.7358,0,0.0011-1.8436z" fill-rule="nonzero" sodipodi:nodetypes="ccccc" inkscape:connector-curvature="0" fill="#000"/>
  <path id="rect4806-1" d="m5.7,1029,0,1.1202,11.387,0-1.4768-1.1202-9.9102,0z" fill-rule="nonzero" inkscape:connector-curvature="0" fill="#000"/>
  <path id="path4679" d="m8.2763,1034.7,0,1.8436,1.7358,0,0.0011-1.8436z" fill-rule="nonzero" sodipodi:nodetypes="ccccc" inkscape:connector-curvature="0" fill="#000"/>
  <rect id="rect4808-7" fill-rule="nonzero" height="1.1201" width="15.38" y="1050.6" x="5.7015" fill="#000"/>
  <path id="path4681" d="m11.016,1034.7,0,1.8436,1.7358,0,0.0011-1.8436z" fill-rule="nonzero" sodipodi:nodetypes="ccccc" inkscape:connector-curvature="0" fill="#000"/>
  <rect id="rect4810-1" fill-rule="nonzero" transform="matrix(0,1,-1,0,0,0)" height="1.0274" width="21.28" y="-6.7206" x="1029.5" fill="#000"/>
  <rect id="rect4689" fill-rule="nonzero" ry="0.016572" height="7.5249" width="13.653" y="1038.1" x="2.5117" fill="#5c9324"/>
  <path id="rect4812-1" d="m20.043,1033.7,0,17.305,1.0274,0,0-15.076-1.0274-2.2298z" fill-rule="nonzero" inkscape:connector-curvature="0" fill="#000"/>
  <text id="text4691" style="letter-spacing:0px;word-spacing:0px;" font-family="Sans" transform="scale(0.95771799,1.0441487)" xml:space="preserve" font-size="28.60654831px" line-height="125%" sodipodi:linespacing="125%" font-style="normal" y="999.84827" x="3.2746713" font-weight="normal" fill="#000000"><tspan id="tspan4693" sodipodi:role="line" style="letter-spacing:0.57213098px;" font-family="Arial" font-size="5.72130966px" font-style="normal" font-stretch="normal" font-variant="normal" y="999.84827" x="3.2746713" font-weight="bold" fill="#ffffff">CSV</tspan></text>
  <path id="rect5612-5" d="m15.518,1029,5.5436,7.7945,0-2.1275-4.1198-5.6978-1.4239,0.031z" fill-rule="nonzero" sodipodi:nodetypes="cccccc" inkscape:connector-curvature="0" fill="#000"/>
  <path id="path5669-4" d="m14.443,1030.9c-0.0011,1.8271-0.0097,3.6543-0.0256,5.4813l6.1523,0.039-0.03177-1.1401-5.0773-0.095-0.0042-5.0487-1.0136-0.071c0.000171,0.278,0.000171,0.5561,0.000001,0.8341" sodipodi:nodetypes="cccccccc" inkscape:connector-curvature="0" fill="#000"/>
  <path id="path5139" d="m15.957,1035.6-0.78698-0.2287-0.02466-2.7295-0.1952-2.5206,0.75616-0.1286,0.63424-0.1341,2.013,2.4675c3.0708,5.6639,3.3796,3.4275-0.12122,3.468-0.96725-0.011-2.0522-0.129-2.2753-0.194z" fill-rule="nonzero" sodipodi:nodetypes="scccccccs" inkscape:connector-curvature="0" fill="#000"/>
 </g>
</svg>
