<svg xmlns="http://www.w3.org/2000/svg" width="15.806" height="14.966" viewBox="0 0 15.806 14.966">
  <g id="Group_229" data-name="Group 229" transform="translate(-11 -181.328)">
    <path id="Icon_awesome-database" data-name="Icon awesome-database" d="M12.838,2.1v1.31c0,1.154-2.875,2.1-6.419,2.1S0,4.56,0,3.406V2.1C0,.942,2.875,0,6.419,0S12.838.942,12.838,2.1Zm0,2.947V7.991c0,1.154-2.875,2.1-6.419,2.1S0,9.145,0,7.991V5.043c1.379.95,3.9,1.392,6.419,1.392S11.459,5.993,12.838,5.043Zm0,4.585v2.947c0,1.154-2.875,2.1-6.419,2.1S0,13.73,0,12.576V9.628c1.379.95,3.9,1.392,6.419,1.392S11.459,10.578,12.838,9.628Z" transform="translate(11 181.328)" fill="#434344"/>
    <circle id="Ellipse_110" data-name="Ellipse 110" cx="1.5" cy="1.5" r="1.5" transform="translate(21 190.487)" fill="#fff"/>
    <path id="Icon_ionic-ios-settings" data-name="Icon ionic-ios-settings" d="M11.861,8.512a1.032,1.032,0,0,1,.662-.963,4.092,4.092,0,0,0-.5-1.193,1.046,1.046,0,0,1-.42.09A1.03,1.03,0,0,1,10.666,5a4.08,4.08,0,0,0-1.191-.5,1.032,1.032,0,0,1-1.926,0A4.092,4.092,0,0,0,6.355,5a1.03,1.03,0,0,1-.942,1.45,1.012,1.012,0,0,1-.42-.09,4.183,4.183,0,0,0-.493,1.2,1.032,1.032,0,0,1,0,1.926A4.092,4.092,0,0,0,5,10.67a1.031,1.031,0,0,1,1.36,1.36,4.116,4.116,0,0,0,1.193.5,1.03,1.03,0,0,1,1.922,0,4.092,4.092,0,0,0,1.193-.5,1.032,1.032,0,0,1,1.36-1.36,4.116,4.116,0,0,0,.5-1.193A1.037,1.037,0,0,1,11.861,8.512ZM8.531,10.181A1.672,1.672,0,1,1,10.2,8.51,1.671,1.671,0,0,1,8.531,10.181Z" transform="translate(13.988 183.474)" fill="#434344" stroke="#fff" stroke-width="0.5"/>
  </g>
</svg>
