<svg xmlns="http://www.w3.org/2000/svg" width="12.273" height="14.027" viewBox="0 0 12.273 14.027">
  <path id="Icon_awesome-database" data-name="Icon awesome-database" d="M12.273,2V3.256c0,1.1-2.749,2-6.137,2S0,4.36,0,3.256V2C0,.9,2.749,0,6.137,0S12.273.9,12.273,2Zm0,2.818V7.64c0,1.1-2.749,2-6.137,2S0,8.743,0,7.64V4.822c1.318.908,3.732,1.331,6.137,1.331S10.955,5.73,12.273,4.822Zm0,4.383v2.818c0,1.1-2.749,2-6.137,2S0,13.127,0,12.023V9.205c1.318.908,3.732,1.331,6.137,1.331S10.955,10.113,12.273,9.205Z" fill="#434344"/>
</svg>
