<svg xmlns="http://www.w3.org/2000/svg" viewBox="0 0 94.39 92.5">
  <defs>
    <style>
      .cls-1, .cls-3 {
        fill: #1b75bc;
      }

      .cls-2 {
        fill: #fff;
        stroke: #1b75bc;
        stroke-miterlimit: 10;
        stroke-width: 2px;
      }

      .cls-3 {
        font-size: 44.26px;
        font-family: MyriadPro-Bold, Myriad Pro;
        font-weight: 700;
      }
    </style>
  </defs>
  <title>default value_6</title>
  <g id="Layer_3" data-name="Layer 3">
    <rect class="cls-1" x="6.98" y="42" width="11.19" height="47" rx="5.08" ry="5.08"/>
    <path class="cls-1" d="M83.31,31,70.68,25V8.28A4.28,4.28,0,0,1,75,4h4.46A4.08,4.08,0,0,1,83.5,8.08" transform="translate(-3.83 -4)"/>
    <path class="cls-1" d="M80,94.25l-12.63,1V73.53a4.28,4.28,0,0,1,4.28-4.28h4.46a4.08,4.08,0,0,1,4.08,4.08" transform="translate(-3.83 -4)"/>
    <path class="cls-1" d="M49.47,25.5l-10.79,7V19.78A4.28,4.28,0,0,1,43,15.5h2.62a4.08,4.08,0,0,1,4.08,4.08v5.72A.19.19,0,0,1,49.47,25.5Z" transform="translate(-3.83 -4)"/>
    <path class="cls-1" d="M46.47,92l-10.79.44V63.18c0-3,1.92-5.51,4.28-5.51h2.62c2.25,0,4.08,2.36,4.08,5.26V85.77C46.66,85.91,46.57,92,46.47,92Z" transform="translate(-3.83 -4)"/>
    <circle class="cls-2" cx="57.73" cy="51.67" r="28.79"/>
    <rect class="cls-1" x="88.94" y="67.53" width="5.33" height="15.06" rx="1.99" ry="1.99" transform="translate(-28.92 91.31) rotate(-49.18)"/>
    <rect class="cls-1" y="87" width="82.67" height="4.5"/>
    <text class="cls-3" transform="translate(37.5 66.25) scale(0.84 1)">01</text>
  </g>
</svg>