<!-- Created with Inkscape (http://www.inkscape.org/) -->
<svg id="svg4086" xmlns:inkscape="http://www.inkscape.org/namespaces/inkscape" xmlns:rdf="http://www.w3.org/1999/02/22-rdf-syntax-ns#" xmlns="http://www.w3.org/2000/svg" inkscape:version="0.48.5 r10040" viewBox="0 0 32 32" height="100%" width="100%" version="1.1" xmlns:cc="http://creativecommons.org/ns#" xmlns:dc="http://purl.org/dc/elements/1.1/" sodipodi:docname="Doughnut.svg" xmlns:sodipodi="http://sodipodi.sourceforge.net/DTD/sodipodi-0.dtd">
 <sodipodi:namedview id="base" bordercolor="#666666" inkscape:pageshadow="2" inkscape:window-y="-8" pagecolor="#ffffff" inkscape:zoom="4.4319067" inkscape:window-width="1366" inkscape:window-maximized="1" inkscape:window-x="-8" showgrid="false" borderopacity="1.0" inkscape:current-layer="layer1" inkscape:cx="16.496569" inkscape:cy="8.6975979" showguides="true" inkscape:guide-bbox="true" inkscape:window-height="698" inkscape:pageopacity="0.0" inkscape:document-units="px"/>
 <metadata id="metadata4091">
  <rdf:RDF>
   <cc:Work rdf:about="">
    <dc:format>image/svg+xml</dc:format>
    <dc:type rdf:resource="http://purl.org/dc/dcmitype/StillImage"/>
    <dc:title/>
   </cc:Work>
  </rdf:RDF>
 </metadata>
 <g id="layer1" fill-rule="evenodd" inkscape:label="Layer 1" inkscape:groupmode="layer" transform="translate(0,-1020.3621)">
  <path id="path11376" d="M14.438,26.062l-0.907,5.063c0.438,0.076,0.894,0.119,1.344,0.156,0.511,0.043,1.023,0.103,1.531,0.094,0.596-0.011,1.173-0.11,1.75-0.187,0.448-0.062,0.905-0.087,1.344-0.188,0.454-0.103,0.875-0.263,1.312-0.406,0.666-0.22,1.307-0.47,1.938-0.782,0.201-0.098,0.398-0.205,0.594-0.312,0.701-0.386,1.393-0.812,2.031-1.312,0.128-0.101,0.25-0.209,0.375-0.313l-3.281-3.906c-1.738,1.455-3.905,2.437-6.344,2.437-0.597,0-1.119-0.243-1.687-0.344z" transform="translate(0,1020.3621)" fill="#1d36b1"/>
  <path id="path11403" d="M6.125,16.375h-4.875c0,1.697,0.2825,3.336,0.8125,4.875s1.3014,2.973,2.2813,4.25c0.765,0.997,1.7541,1.813,2.75,2.594,0.3493,0.268,0.6584,0.575,1.0312,0.812,0.8173,0.531,1.7625,0.851,2.687,1.219,0.531,0.205,1.037,0.449,1.594,0.594l1.313-4.907c-4.3152-1.094-7.594-4.749-7.594-9.406v-0.031z" transform="translate(0,1020.3621)" fill="#06aca4"/>
  <path id="path11413" d="M13.625,7.0312l-1.313-4.9062c-1.206,0.324-2.4009,0.6867-3.4682,1.2812-0.0785,0.0437-0.1725,0.0488-0.25,0.0938-2.8613,1.6613-5.0901,4.2529-6.3438,7.344-0.2243,0.563-0.2817,1.188-0.4375,1.781-0.2108,0.79-0.3593,1.601-0.4375,2.437l4.9062,0.438c0.4026-4.175,3.3764-7.4176,7.3438-8.4688z" transform="translate(0,1020.3621)" fill="#008000"/>
  <path id="path11367" d="M16.312,1.4375c-0.39-0.0042-0.792,0.0356-1.187,0.0625-0.542,0.0366-1.069,0.0949-1.594,0.1875l0.907,5.0625c0.572-0.1018,1.085-0.3438,1.687-0.3438,5.523,0,10,4.4768,10,9.9998,0,2.762-1.097,5.253-2.906,7.063l3.531,3.562c0.801-0.801,1.472-1.717,2.062-2.656,0.138-0.219,0.249-0.461,0.376-0.687,0.431-0.774,0.806-1.574,1.093-2.407,0.088-0.255,0.145-0.52,0.219-0.781,0.227-0.797,0.376-1.61,0.469-2.438,0.04-0.362,0.08-0.723,0.093-1.093,0.034-0.875-0.002-1.744-0.124-2.625-0.03-0.216-0.024-0.444-0.063-0.656-0.128-0.693-0.346-1.35-0.563-2-0.103-0.31-0.158-0.638-0.281-0.938-0.201-0.496-0.5-0.941-0.75-1.4062-0.226-0.4197-0.423-0.8556-0.687-1.25-0.175-0.2608-0.404-0.4699-0.594-0.7188-0.385-0.5037-0.743-1.018-1.188-1.4688-0.663-0.6734-1.376-1.3047-2.156-1.8437-0.443-0.3054-0.932-0.5246-1.406-0.7813-0.372-0.202-0.735-0.4231-1.125-0.5937-0.363-0.1585-0.749-0.2766-1.125-0.4063-0.576-0.1984-1.145-0.4032-1.75-0.5312-0.275-0.0583-0.564-0.0822-0.844-0.125-0.685-0.1049-1.381-0.1785-2.094-0.1875z" transform="translate(0,1020.3621)" fill="#be2c70"/>
 </g>
</svg>
