<svg id="svg2" xmlns:inkscape="http://www.inkscape.org/namespaces/inkscape" xmlns:rdf="http://www.w3.org/1999/02/22-rdf-syntax-ns#" xmlns="http://www.w3.org/2000/svg" sodipodi:docname="excelConnection.svg" viewBox="0 0 24 24" height="100%" width="100%" version="1.1" xmlns:cc="http://creativecommons.org/ns#" xmlns:dc="http://purl.org/dc/elements/1.1/" inkscape:version="0.48.5 r10040" xmlns:sodipodi="http://sodipodi.sourceforge.net/DTD/sodipodi-0.dtd">
 <metadata id="metadata32725">
  <rdf:RDF>
   <cc:Work rdf:about="">
    <dc:format>image/svg+xml</dc:format>
    <dc:type rdf:resource="http://purl.org/dc/dcmitype/StillImage"/>
    <dc:title/>
   </cc:Work>
  </rdf:RDF>
 </metadata>
 <sodipodi:namedview id="namedview32721" bordercolor="#666666" inkscape:pageshadow="2" guidetolerance="10" pagecolor="#ffffff" gridtolerance="10" inkscape:window-maximized="1" inkscape:zoom="9.8333333" objecttolerance="10" borderopacity="1" inkscape:current-layer="layer2" inkscape:cx="12" inkscape:cy="9.8482941" inkscape:window-y="-8" inkscape:window-x="-8" inkscape:window-width="1366" showgrid="false" inkscape:pageopacity="0" inkscape:window-height="706"/>
 <g id="layer2" inkscape:label="excel" inkscape:groupmode="layer" fill-rule="nonzero">
  <rect id="rect4808-2-2" height="1.1384" width="17.726" y="22.385" x="4.2627" fill="#000"/>
  <rect id="rect4810-4-3" transform="matrix(0,1,-1,0,0,0)" height="1.0855" width="20.505" y="-5.3472" x="2.2855" fill="#000"/>
  <rect id="rect4753" transform="matrix(0,1,-1,0,0,0)" height="1.0855" width="21.743" y="-22.019" x="1.7817" fill="#000"/>
  <rect id="rect4755" transform="scale(-1,-1)" height="1.1384" width="15.884" y="-2.8669" x="-21.987" fill="#000"/>
  <path id="path4757" d="m8.4471,0.4754c-3.6834,0-6.6694,3.0943-6.6694,6.9112,0,0.76734,0.12459,1.5061,0.34736,2.1958h8.3367v-8.8194c-0.63541-0.20773-1.3135-0.28748-2.0147-0.28748z" inkscape:connector-curvature="0" fill="#5c9324"/>
  <rect id="rect5665-9" height="1.8973" width="5.4276" y="4.4009" x="3.6452" fill="#FFF"/>
  <rect id="rect5667-2" transform="matrix(0,1,-1,0,0,0)" height="1.8092" width="5.6919" y="-7.2773" x="2.518" fill="#FFF"/>
  <rect id="rect5665-9-7" height="2.163" width="7.4539" y="6.0909" x="11.506" fill="#0da7ae"/>
  <rect id="rect4814" height="2.163" width="10.747" y="10.739" x="7.7061" fill="#0da7ae"/>
  <rect id="rect4816" height="2.163" width="10.747" y="14.504" x="7.7061" fill="#0da7ae"/>
  <rect id="rect4818" height="2.163" width="10.747" y="18.366" x="7.7061" fill="#0da7ae"/>
 </g>
</svg>
