<svg xmlns="http://www.w3.org/2000/svg" width="12.837" height="12.603" viewBox="0 0 12.837 12.603">
  <path id="Icon_simple-microsoftexcel" data-name="Icon simple-microsoftexcel" d="M12.6,1.871H8.3v.8H9.565V3.926H8.3v.4H9.565V5.587H8.3V6H9.565V7.192H8.3V7.67H9.565V8.865H8.3v.478H9.565v1.2H8.3v.877h4.3c.068-.02.125-.1.17-.24a1.173,1.173,0,0,0,.069-.34V2.016c0-.068-.024-.11-.069-.124A.588.588,0,0,0,12.6,1.871Zm-.558,8.673H9.977v-1.2H12.04v1.2Zm0-1.678H9.977v-1.2H12.04Zm0-1.673H9.977V6H12.04V7.193Zm0-1.6H9.977V4.328H12.04v1.26h0Zm0-1.668H9.977V2.667H12.04V3.919ZM0,1.672v9.949l7.574,1.31V.329L0,1.676ZM4.489,9.2q-.043-.117-.405-1c-.24-.586-.385-.927-.427-1.025H3.643L2.831,9.111,1.745,9.037,3.033,6.63,1.853,4.223l1.107-.058.732,1.883h.014L4.533,4.08l1.144-.072-1.362,2.6,1.4,2.657L4.489,9.2Z" transform="translate(0 -0.329)" fill="#434344"/>
</svg>
