<?xml version="1.0" encoding="utf-8"?>
<!-- Generator: Adobe Illustrator 26.3.1, SVG Export Plug-In . SVG Version: 6.00 Build 0)  -->
<svg version="1.1" xmlns="http://www.w3.org/2000/svg" xmlns:xlink="http://www.w3.org/1999/xlink" x="0px" y="0px"
	 viewBox="0 0 14.4 12.3" style="enable-background:new 0 0 14.4 12.3;" xml:space="preserve">
<style type="text/css">
	.st0{display:none;}
	.st1{display:inline;}
	.st2{clip-path:url(#SVGID_00000155840516085714400520000011856317913019056044_);}
	.st3{fill:#030404;}
	.st4{clip-path:url(#SVGID_00000027585433666817271500000007501274912299270059_);}
	.st5{fill:#FFFFFF;}
</style>
<g id="Group_197" class="st0">
	<g id="Group_194" class="st1">
		<g>
			<defs>
				<rect id="SVGID_1_" width="14.4" height="12.3"/>
			</defs>
			<clipPath id="SVGID_00000172429857212800123410000010750207800637447607_">
				<use xlink:href="#SVGID_1_"  style="overflow:visible;"/>
			</clipPath>
			<g id="Group_193" style="clip-path:url(#SVGID_00000172429857212800123410000010750207800637447607_);">
				<path id="Path_342" class="st3" d="M12.8,11.3L1.5,0L0.6,0.9l1.9,1.9C1.5,3.7,0.6,4.7,0,5.9c0,0,2.9,6.8,10,4.4l1.9,1.9
					L12.8,11.3z"/>
				<path id="Path_343" class="st3" d="M4.5,1.5l1.4,1.5C7.6,2.2,9.5,3,10.2,4.7c0.3,0.8,0.3,1.7,0,2.5L12,9
					c1.1-0.8,1.9-1.9,2.4-3.1C14.4,5.9,11.3-0.9,4.5,1.5"/>
			</g>
		</g>
	</g>
	<g id="Group_196" class="st1">
		<g>
			<defs>
				<rect id="SVGID_00000000183553159983149660000005717073974490208182_" width="14.4" height="12.3"/>
			</defs>
			<clipPath id="SVGID_00000083084372511032448330000016708397298856401544_">
				<use xlink:href="#SVGID_00000000183553159983149660000005717073974490208182_"  style="overflow:visible;"/>
			</clipPath>
			<g id="Group_195" style="clip-path:url(#SVGID_00000083084372511032448330000016708397298856401544_);">
				<path id="Path_344" class="st5" d="M7.2,2.6C5.3,2.6,3.9,4.1,3.9,6s1.5,3.3,3.3,3.3s3.3-1.5,3.3-3.3S9,2.6,7.2,2.6L7.2,2.6
					 M9.1,6L7,4C8.1,3.9,9,4.7,9.1,5.8C9.1,5.9,9.1,6,9.1,6"/>
				<path id="Path_345" class="st3" d="M5.3,5.5l2.4,2.3c-0.7,0.2-1.5-0.1-2-0.7C5.2,6.8,5.1,6.1,5.3,5.5"/>
				<path id="Path_346" class="st3" d="M9,6.1L7,4c0.6-0.2,1.3,0.1,1.7,0.6C9.1,5,9.2,5.5,9,6.1"/>
				<path id="Path_347" class="st3" d="M0.6,0.9l11.4,11.4l0.9-0.9L1.5,0L0.6,0.9z"/>
			</g>
		</g>
	</g>
</g>
<g id="Layer_2">
	<path class="st3" d="M14.4,5.9c0,0-2.7-5.7-8.1-4.9c0,0-4.6,0.5-6.3,4.9c0,0,2.1,4.8,6.9,4.9C6.9,10.8,12.3,10.9,14.4,5.9z"/>
</g>
<g id="Layer_4" class="st0">
</g>
<g id="Layer_5">
	<circle class="st5" cx="7.2" cy="5.9" r="3.4"/>
</g>
<g id="Layer_3">
	<circle class="st3" cx="7.2" cy="6" r="2"/>
</g>
</svg>
