<svg id="Group_197" data-name="Group 197" xmlns="http://www.w3.org/2000/svg" xmlns:xlink="http://www.w3.org/1999/xlink" width="14.355" height="12.251" viewBox="0 0 14.355 12.251">
  <defs>
    <clipPath id="clip-path">
      <rect id="Rectangle_442" data-name="Rectangle 442" width="14.355" height="12.251" fill="none"/>
    </clipPath>
  </defs>
  <g id="Group_194" data-name="Group 194">
    <g id="Group_193" data-name="Group 193" clip-path="url(#clip-path)">
      <path id="Path_342" data-name="Path 342" d="M12.82,11.335,1.486,0,.563.87,2.48,2.79A10.014,10.014,0,0,0,0,5.928s2.913,6.781,10,4.4l1.92,1.924Z" fill="#030404"/>
      <path id="Path_343" data-name="Path 343" d="M219.42,47.944l1.4,1.457a3.273,3.273,0,0,1,4.288,4.257l1.788,1.829a7.076,7.076,0,0,0,2.366-3.079s-3.091-6.83-9.837-4.464" transform="translate(-214.902 -46.469)" fill="#030404"/>
    </g>
  </g>
  <g id="Group_196" data-name="Group 196">
    <g id="Group_195" data-name="Group 195" clip-path="url(#clip-path)">
      <path id="Path_344" data-name="Path 344" d="M190.485,128.488a3.307,3.307,0,1,0,3.307,3.307,3.307,3.307,0,0,0-3.307-3.307m1.965,3.4-2.161-2.05a1.994,1.994,0,0,1,2.161,2.05" transform="translate(-183.324 -125.842)" fill="#fff"/>
      <path id="Path_345" data-name="Path 345" d="M252.042,269.511l2.39,2.341a1.99,1.99,0,0,1-2-.652,1.807,1.807,0,0,1-.386-1.689" transform="translate(-246.784 -263.962)" fill="#030404"/>
      <path id="Path_346" data-name="Path 346" d="M342.019,196.041l-2.03-2.012a1.7,1.7,0,0,1,1.709.567,1.544,1.544,0,0,1,.321,1.445" transform="translate(-332.989 -189.988)" fill="#030404"/>
      <path id="Path_347" data-name="Path 347" d="M27.34.869,38.7,12.251l.9-.916L28.263,0Z" transform="translate(-26.778 0)" fill="#030404"/>
    </g>
  </g>
</svg>
