<?xml-stylesheet type="text/css" href="icon.css" ?>
<svg id="svg2985" xmlns:inkscape="http://www.inkscape.org/namespaces/inkscape" xmlns:rdf="http://www.w3.org/1999/02/22-rdf-syntax-ns#" xmlns="http://www.w3.org/2000/svg" fill="#0E8A85" sodipodi:docname="Globe.svg" viewBox="0 0 32 32" height="100%" width="100%" version="1.1" xmlns:cc="http://creativecommons.org/ns#" xmlns:dc="http://purl.org/dc/elements/1.1/" inkscape:version="0.48.5 r10040" xmlns:sodipodi="http://sodipodi.sourceforge.net/DTD/sodipodi-0.dtd">
 <metadata id="metadata14598">
  <rdf:RDF>
   <cc:Work rdf:about="">
    <dc:format>image/svg+xml</dc:format>
    <dc:type rdf:resource="http://purl.org/dc/dcmitype/StillImage"/>
    <dc:title/>
   </cc:Work>
  </rdf:RDF>
 </metadata>
 <sodipodi:namedview id="namedview14594" bordercolor="#666666" inkscape:pageshadow="2" guidetolerance="10" pagecolor="#ffffff" gridtolerance="10" inkscape:window-maximized="0" inkscape:zoom="7.375" objecttolerance="10" borderopacity="1" inkscape:current-layer="svg2985" inkscape:cx="16" inkscape:cy="16" inkscape:window-y="0" inkscape:window-x="0" inkscape:window-width="640" showgrid="false" inkscape:pageopacity="0" inkscape:window-height="480"/>
 <path id="path7574" d="m17.631,7.6548c2.7359,0.50611,5.1942,2.5322,6.2417,5.1442,0.33151,0.82661,0.57208,1.8573,0.59317,2.5414l0.01445,0.46867-0.07952-0.3178c-0.07437-0.29722-0.09803-0.31851-0.36544-0.32879-0.21415-0.0083-0.29484-0.04768-0.32144-0.15724-0.01953-0.08043-0.07762-0.14108-0.12908-0.13477-0.05482,0.0068-0.09477-0.1018-0.09647-0.26199-0.0016-0.15041-0.08111-0.46419-0.17671-0.69729s-0.18365-0.64322-0.19566-0.91139c-0.02193-0.48946-0.22498-1.0872-0.62213-1.8315-0.1695-0.31767-0.25187-0.39173-0.50506-0.45419-0.2569-0.06334-0.3255-0.04991-0.45481,0.08907-0.08376,0.09004-0.15684,0.22976-0.16242,0.31051-0.0056,0.08074-0.04945,0.14408-0.0975,0.14077-0.0549-0.0038-0.07646,0.0785-0.058,0.22148,0.03056,0.23678-0.09996,0.39392-0.3961,0.47688-0.11187,0.03136-0.14499,0.10824-0.14377,0.33377,0.00087,0.16117,0.03709,0.36576,0.0805,0.45464,0.0434,0.08888,0.06309,0.29153,0.04373,0.45033-0.02939,0.24128-0.12009,0.36319-0.55181,0.74173-0.47606,0.41744-0.85388,0.94932-0.87321,1.2293-0.0045,0.06553,0.03912,0.10056,0.10145,0.08144,0.06016-0.01845,0.27278-0.04666,0.4725-0.06266,0.30039-0.02408,0.36166-0.0081,0.35472,0.09253-0.0046,0.0669,0.10571,0.24895,0.24517,0.40455s0.25109,0.3188,0.24806,0.36267c-0.003,0.04387,0.04391,0.12692,0.1043,0.18454,0.0604,0.05762,0.10437,0.18352,0.09773,0.27974-0.0066,0.09623,0.06836,0.34563,0.16668,0.55422,0.11917,0.25284,0.15108,0.40337,0.09574,0.4516-0.05535,0.04821-0.14261-0.05409-0.26178-0.30691-0.09831-0.20859-0.17663-0.41012-0.17402-0.44785,0.0026-0.03771-0.0901-0.22064-0.20602-0.40649-0.11592-0.18584-0.20765-0.38283-0.20386-0.43773,0.0038-0.05489-0.02043-0.19002-0.05383-0.30025l-0.06072-0.20041-0.50252,0.16473c-0.27639,0.0906-0.52183,0.19007-0.54543,0.22103-0.0236,0.03098-0.11439,0.07465-0.20177,0.09708-0.31363,0.08051-0.69618,0.47714-0.71438,0.74064-0.0045,0.06574,0.07681,0.1588,0.18079,0.2068,0.12373,0.05711,0.18572,0.14839,0.17943,0.2642l-0.0096,0.17695,0.15784-0.16478c0.18676-0.19497,0.4866-0.20311,0.47346-0.01287-0.0049,0.07122,0.01546,0.10824,0.04529,0.08225,0.0714-0.06221,0.39337,0.44614,0.33452,0.52818-0.08118,0.11318-0.25783,0.05232-0.29523-0.10172-0.04188-0.17248-0.42558-0.38884-0.59656-0.33638-0.06335,0.01942-0.15348-0.01791-0.2003-0.08301-0.05968-0.08297-0.25223-0.12989-0.64422-0.15696-0.55775-0.03851-0.55971-0.03921-0.79997-0.36977-0.1542-0.21201-0.2953-0.3271-0.39216-0.31986-0.11982,0.0089-0.165-0.06274-0.21724-0.34459-0.07799-0.42087-0.49524-1.5176-0.57957-1.5235-0.12052-0.0083-0.34627,0.3835-0.38684,0.67141-0.03488,0.24751-0.12409,0.36918-0.52601,0.71735-0.26621,0.2306-0.55318,0.42606-0.63772,0.43435-0.08453,0.0083-0.18036,0.05222-0.21293,0.09763-0.03707,0.05169-0.09122,0.01068-0.14476-0.10956-0.04704-0.10567-0.14672-0.24226-0.22152-0.30354-0.07942-0.06507-0.12941-0.20655-0.12019-0.34013,0.01648-0.23876-0.10966-0.30927-0.28303-0.15821-0.07386,0.06436-0.10603,0.04823-0.13527-0.0679-0.02111-0.08378-0.06353-0.24191-0.09427-0.35139-0.03075-0.10948-0.03761-0.30319-0.01526-0.43047,0.02447-0.13935-0.0089-0.29697-0.08392-0.39618-0.0685-0.09061-0.13062-0.2488-0.13802-0.35151-0.0074-0.10272-0.12648-0.28662-0.26463-0.40866-0.23286-0.20571-0.24543-0.20906-0.17239-0.04592,0.04333,0.09678,0.07388,0.24698,0.06789,0.33376-0.006,0.08677,0.05607,0.19982,0.13791,0.2512,0.22421,0.14075,0.37176,0.54508,0.2948,0.80777l-0.064,0.223-0.286-0.235c-0.15752-0.12925-0.29346-0.28061-0.30208-0.33636-0.01002-0.06483-0.11314-0.02366-0.28627,0.11439-0.2239,0.17852-0.26441,0.25366-0.23474,0.43541,0.01971,0.12081,0.13212,0.33698,0.24978,0.48036,0.15344,0.18699,0.19653,0.30474,0.15243,0.41644-0.07725,0.19562-0.36838,0.27694-0.45013,0.12572-0.03272-0.06053-0.06271-0.07515-0.06666-0.03249-0.0077,0.08455-0.37819,0.24716-0.53783,0.23613-0.05456-0.0038-0.16127,0.075-0.23711,0.17504-0.17901,0.23611-0.40811,0.84404-0.34529,0.91623,0.02682,0.03082,0.04758,0.07939,0.04611,0.1079-0.0066,0.12684,0.18031,0.572,0.24188,0.57625,0.11115,0.0077,0.06317,0.2178-0.0778,0.34062-0.11642,0.10144-0.11809,0.11977-0.01528,0.1676,0.06347,0.02954,0.15064,0.03511,0.19373,0.01227,0.04308-0.0227,0.12854,0.01649,0.18993,0.08698,0.10062,0.11561,0.09334,0.14661-0.07395,0.31473l-0.18557,0.18648-0.02525-0.22326c-0.01678-0.14836-0.04803-0.1921-0.09314-0.13036-0.09458,0.12944-0.29339,0.10203-0.28364-0.03912,0.0044-0.06411-0.05702-0.19132-0.13654-0.2827-0.07952-0.09137-0.13983-0.23498-0.13402-0.31911,0.0072-0.10405-0.02768-0.14124-0.10901-0.11629-0.17429,0.05346-0.16034,0.24069,0.04065,0.54588,0.11567,0.17564,0.14628,0.28463,0.08849,0.31508-0.0486,0.02561-0.07567,0.11369-0.06018,0.19576,0.02699,0.14286-0.0783,0.25539-0.23142,0.24736-0.18793-0.01017-0.28091,0.88217-0.11281,1.0826,0.036314,0.0433,0.060715,0.13282,0.054216,0.19893-0.00647,0.06611-0.085173-0.04297-0.17481-0.2424-0.089643-0.19943-0.16867-0.30327-0.17561-0.23075-0.011964,0.12537,0.37354,0.86902,0.45341,0.87454,0.02085,0.0014,0.01539-0.04286-0.01214-0.09843-0.02753-0.05558,0.01564-0.03503,0.09592,0.04567,0.08029,0.08069,0.1894,0.14971,0.24248,0.15338,0.18343,0.01266,0.29416,0.23503,0.26888,0.53993-0.02422,0.29273-0.03506,0.30393-0.24807,0.25747-0.12248-0.02672-0.23966-0.08082-0.26041-0.12026-0.02073-0.03943-0.07487-0.07424-0.1203-0.07738-0.051487-0.0036-0.048679,0.04143,0.0075,0.11952,0.04953,0.06887,0.0707,0.14209,0.04704,0.1627-0.023,0.016-0.1265-0.082-0.2294-0.224-0.103-0.141-0.189-0.23-0.1912-0.198-0.008,0.117-0.3913-0.36-0.8041-1-1.125-1.743-1.5807-3.969-1.2225-5.972,0.17536-0.98091,0.5027-1.9306,0.94095-2.73,0.31758-0.57926,0.98865-1.5001,1.2086-1.6585,0.069725-0.05023-0.00939,0.0838-0.17582,0.29779-0.16642,0.21399-0.30967,0.4641-0.31835,0.5558-0.00874,0.0917-0.035108,0.31439-0.058734,0.49485-0.058849,0.44933,0.027725,0.57377,0.16507,0.23729,0.13256-0.32479,0.23139-0.39252,0.37405-0.2564,0.074934,0.07149,0.080903,0.13878,0.020822,0.23458-0.15655,0.24966,0.13352,0.27048,0.39869,0.02863,0.13195-0.12034,0.2656-0.21295,0.29701-0.20579,0.15534,0.03543,0.23647-0.01009,0.33176-0.1861,0.05729-0.10582,0.13734-0.16858,0.17788-0.13947,0.04053,0.0291,0.11616-0.02549,0.16805-0.12132,0.0525-0.09697,0.24825-0.22584,0.4414-0.29059,0.47195-0.15822,0.58208-0.28676,0.70644-0.82454,0.05865-0.2536,0.1368-0.5205,0.17369-0.5931,0.10127-0.19937-0.04755-0.1751-0.75687,0.12342-0.64949,0.27333-0.87089,0.31711-0.86075,0.17019,0.0031-0.045282-0.0365-0.060077-0.08804-0.032893-0.06421,0.033848-0.07629-0.00246-0.03837-0.11515,0.03045-0.090498,0.03965-0.16563,0.02055-0.16694-0.01918-0.00132-0.21334,0.13459-0.43146,0.30204-0.21811,0.16745-0.11307,0.066329,0.23344-0.22471,2.0192-1.696,4.4732-2.3396,7.081-1.8571zm2.1255,3.8383c-0.08847,0.27163-0.14304,0.55205-0.12124,0.62318,0.03553,0.11599,0.05766,0.11523,0.21464-0.0073,0.09627-0.07517,0.23831-0.15424,0.31566-0.17571,0.09573-0.02656,0.14014-0.10897,0.13908-0.25802-0.000907-0.12044,0.02884-0.26133,0.06597-0.3131,0.03832-0.05342,0.01881-0.18099-0.04505-0.29498-0.17605-0.31413-0.37698-0.16372-0.56907,0.42599zm-9.3521,0.73709c-0.03224,0.04492,0.0372,0.02796,0.15432-0.0378,0.11711-0.06571,0.21394-0.13418,0.21518-0.15214,0.0039-0.0562-0.3079,0.10404-0.3695,0.18992zm1.2371,0.03395c0.01189,0.04592,0.14047,0.09908,0.28575,0.11815,0.14528,0.01905,0.32254,0.04891,0.39394,0.06622,0.07139,0.01737,0.143-0.0027,0.15913-0.0445,0.01612-0.04183-0.09174-0.10259-0.2397-0.13503-0.42606-0.0934-0.62245-0.09501-0.59912-0.0048zm-0.44875-0.067c-0.03026,0.04216,0.00005,0.05735,0.07097,0.03557,0.1381-0.04238,0.16656-0.09637,0.05487-0.10408-0.04019-0.0028-0.09682,0.02802-0.12582,0.0685zm-0.29064,0.03418c0.05451,0.02632,0.12168,0.02817,0.14927,0.0042,0.02758-0.02406-0.017-0.04559-0.09911-0.04785-0.09074-0.0023-0.1104,0.01464-0.05015,0.04368zm1.5477,0.39848c-0.0042,0.06062-0.03282,0.16443-0.06363,0.23072-0.03966,0.08534-0.0213,0.10987,0.06293,0.08402,0.0813-0.02495,0.13998,0.04062,0.1854,0.2071,0.03656,0.13398,0.09487,0.24556,0.12958,0.24796,0.03472,0.0024,0.19413,0.13571,0.35424,0.29623,0.16011,0.16054,0.35628,0.29705,0.43594,0.30337,0.11768,0.0092,0.09488-0.05215-0.1215-0.32781-0.146-0.186-0.306-0.458-0.356-0.604-0.133-0.394-0.606-0.724-0.626-0.437zm-3.3942-0.13c-0.0971,0.111-0.1219,0.113-0.1798,0.01-0.1001-0.179-0.1412-0.083-0.0854,0.199,0.06106,0.30903,0.4275,0.51008,0.59992,0.32914,0.092257-0.09681,0.11245-0.08801,0.15847,0.06896,0.041287,0.14084,0.074576,0.16087,0.15329,0.09228,0.078722-0.0686,0.076502-0.10527-0.010231-0.1689-0.060926-0.0447-0.075704-0.08081-0.032822-0.08022,0.042867,0.000654-0.0172-0.05939-0.1335-0.13325-0.1245-0.079-0.1918-0.177-0.1637-0.238,0.0402-0.086-0.02-0.16-0.1621-0.199-0.0164-0.005-0.081,0.049-0.1434,0.12zm1.751,0.31608c-0.000602-0.05372-0.04005-0.10036-0.08775-0.10365-0.04852-0.0033-0.07353,0.0638-0.05679,0.15242,0.01827,0.09664-0.02246,0.18745-0.10451,0.23291-0.11971,0.06634-0.11851,0.07066,0.01091,0.03961,0.07994-0.01919,0.19116-0.03173,0.24717-0.02786,0.13611,0.0094,0.20872-0.1631,0.16458-0.39101l-0.03595-0.18568-0.06829,0.19048c-0.03756,0.10476-0.06877,0.14653-0.06933,0.09281zm0.35506,0.2937c-0.10078,0.18618-0.16643,0.3934-0.14588,0.46047,0.02054,0.06708,0.001,0.1601-0.0434,0.20671-0.04896,0.05138-0.05617,0.13148-0.01826,0.20347,0.05029,0.09556,0.14052,0.05173,0.46237-0.22444,0.21995-0.18875,0.44239-0.34024,0.49431-0.33666,0.11358,0.0078,0.14234-0.25716,0.05017-0.46231-0.04519-0.1006-0.15415-0.15386-0.34122-0.16678-0.25034-0.01728-0.29115,0.01119-0.45807,0.31954zm-2.668-0.24c-0.030255,0.04216,0.0000499,0.05735,0.070968,0.03557,0.1381-0.04238,0.16656-0.09637,0.054869-0.10408-0.040194-0.0028-0.09682,0.02802-0.12582,0.06849zm2.0584,0.43135c0.0742,0.02495,0.17913,0.03088,0.23317,0.01329,0.05404-0.01763-0.0067-0.03806-0.1349-0.04533-0.12825-0.0072-0.17246,0.0072-0.09826,0.03207zm4.8752,0.90126c-0.06732,0.09387,0.08618,0.48559,0.17248,0.44012,0.08175-0.04309,0.1146-0.36568,0.04534-0.44526-0.06779-0.07789-0.15982-0.07572-0.21782,0.0051zm-5.3506,0.04634c-0.0058,0.07475,0.02436,0.13832,0.06708,0.14127,0.04271,0.0029,0.08007-0.02964,0.08302-0.07234,0.003-0.04274,0.03129-0.07174,0.06297-0.06449,0.14938,0.03428,0.16412-0.01037,0.05289-0.16009-0.1302-0.17528-0.24546-0.10783-0.26596,0.15566zm0.27546,0.29373c0.05037,0.02075,0.0659,0.07352,0.03452,0.11726-0.03291,0.04589-0.019,0.05949,0.0329,0.03215,0.04948-0.02606,0.07386-0.09988,0.05423-0.16403-0.01966-0.06415-0.07567-0.09558-0.12448-0.06987-0.06235,0.03284-0.06151,0.05797,0.0028,0.08448zm-0.06102,0.37518c0.13821,0.1367,0.19202,0.25547,0.15951,0.35209-0.02698,0.08019-0.0088,0.20971,0.04042,0.28783,0.08053,0.12784,0.09671,0.1173,0.16199-0.1055,0.043-0.14678,0.04123-0.29103-0.0043-0.35442-0.04228-0.05881-0.05603-0.12505-0.03056-0.14724,0.02547-0.02221,0.0054-0.06969-0.04446-0.10555-0.058-0.04166-0.07301-0.03139-0.04156,0.02838,0.02913,0.05535-0.000009,0.09014-0.0712,0.08523-0.06622-0.0046-0.15835-0.07961-0.20472-0.16674s-0.1044-0.14086-0.12897-0.11938,0.04918,0.13187,0.1639,0.24533zm1.4111,0.89261c-0.02041,0.0496,0.01822,0.09397,0.08585,0.09864,0.06763,0.0047,0.12678-0.04686,0.13145-0.11454,0.0095-0.13723-0.15935-0.12487-0.2173,0.0159zm-1.1479,0.57951c-0.01292,0.21474-0.0013,0.23242,0.07643,0.11765,0.05033-0.07429,0.07568-0.18672,0.05634-0.24986-0.05887-0.19214-0.11687-0.13436-0.13278,0.1322zm-0.86629,1.2114c-0.0022,0.066-0.0687,0.139-0.1454,0.162-0.3419,0.104-0.4381,0.263-0.3995,0.66,0.020224,0.20766,0.074632,0.39316,0.12092,0.41224,0.053217,0.02191,0.075058-0.04094,0.059386-0.17095-0.027831-0.23106,0.15315-0.57246,0.29816-0.56245,0.052285,0.0036,0.11879-0.04451,0.1478-0.10691,0.029018-0.06241,0.018902-0.11581-0.02247-0.11866-0.041372-0.0029-0.072883-0.03905-0.070024-0.08047,0.00286-0.04138,0.053747-0.05269,0.11309-0.02508,0.07877,0.03668,0.099509,0.0058,0.076813-0.11426-0.03599-0.19056-0.16436-0.23052-0.17648-0.05496zm-0.45095,1.54c-0.1435-0.035-0.1189,0.141,0.0408,0.275,0.1645,0.138,0.166,0.136,0.1531-0.135-0.0071-0.15-0.0373-0.24-0.0671-0.198-0.0298,0.041-0.0858,0.068-0.1245,0.058zm-0.14314,1.5201c0.18091,0.4324,0.47898,0.89642,0.54107,0.84231,0.044699-0.03894-0.58307-1.177-0.65189-1.1818-0.017678-0.0012,0.032188,0.15154,0.11082,0.33948zm15.379-3.954c-0.01918,0.2778-0.04111,0.39047-0.04875,0.25039-0.0076-0.14009,0.0081-0.36738,0.03487-0.50509,0.02681-0.13771,0.03306-0.02311,0.01388,0.2547zm-0.15277,1.0275c-0.09652,0.55904-0.39841,1.4521-0.66822,1.9768-0.13481,0.26216-0.22932,0.35858-0.34372,0.35069-0.15264-0.01054-0.15287-0.01567-0.0072-0.15596,0.08284-0.07979,0.16614-0.24954,0.18509-0.37723,0.01893-0.12769,0.11089-0.28854,0.20432-0.35744,0.22787-0.16808,0.36607-0.6973,0.18534-0.70978-0.07017-0.0048-0.1504,0.05111-0.1783,0.12432-0.11048,0.28995-0.35862,0.66508-0.51445,0.77777-0.1533,0.11086-0.1685,0.1098-0.22794-0.01574-0.03503-0.07398-0.10644-0.18388-0.1587-0.24424-0.12505-0.14442-0.11255-0.25038,0.03486-0.29561,0.12837-0.03936,0.17356-0.1724,0.0612-0.18016-0.03738-0.0026-0.1297,0.10321-0.20515,0.23509-0.12746,0.22276-0.12754,0.25398-0.0011,0.43988,0.07486,0.11005,0.13245,0.25293,0.12799,0.31752-0.0142,0.20559-0.32824-0.26045-0.42122-0.62508-0.07594-0.29781-0.0998-0.32381-0.20945-0.22827-0.09264,0.08073-0.10383,0.13554-0.04449,0.21804,0.06049,0.08411,0.04188,0.13012-0.07864,0.19434-0.12508,0.06663-0.15773,0.06373-0.15708-0.01425,0.0031-0.37176-0.12554-0.57215-0.32924-0.51301-0.05474,0.01588-0.15341,0.0038-0.21927-0.02684-0.09721-0.04522-0.0993-0.06808-0.01113-0.12138,0.08636-0.05221,0.0843-0.06079-0.01007-0.04187-0.06529,0.0131-0.1219,0.0704-0.12584,0.12738-0.0039,0.05698-0.04951,0.11456-0.10129,0.12794-0.11072,0.02865-0.05209-0.36282,0.08773-0.58581,0.11836-0.18877,0.53052-0.2169,0.9025-0.06159,0.33669,0.14057,0.42603,0.12112,0.44102-0.09602,0.01336-0.19355,0.12756-0.18396,0.31032,0.02594,0.07952,0.09137,0.19613,0.16969,0.25913,0.17404,0.08578,0.0059,0.09885,0.06547,0.05204,0.23711-0.06138,0.22508-0.0583,0.22806,0.17099,0.16542,0.43294-0.11828,0.73217-0.43034,0.86431-0.90137,0.06677-0.23798,0.14121-0.43134,0.16544-0.42967,0.02423,0.0017,0.0063,0.2216-0.03977,0.48872zm-1.2044,1.3561c0.02402,0.02762,0.04554-0.01702,0.04782-0.09917,0.0025-0.09079-0.0146-0.11047-0.04367-0.05022-0.0263,0.05453-0.02817,0.12175-0.0042,0.14936zm-3.5724-0.19979c0.10792,0.09101,0.11533,0.14285,0.03806,0.26606-0.07714,0.12301-0.06914,0.18092,0.04076,0.29516,0.22668,0.23566,0.24106,0.54135,0.03237,0.68784-0.19443,0.13647-0.47608,0.1533-0.46742,0.02793,0.0029-0.04274,0.03657-0.07555,0.07472-0.07292,0.12442,0.0086,0.19419-0.2528,0.09155-0.34296-0.10086-0.08859-0.32105-0.73262-0.30919-0.90438,0.0087-0.12623,0.33135-0.09827,0.49917,0.04318zm2.1539,0.51252c0.04352,0.08269-0.20563,0.58399-0.32025,0.64438-0.03552,0.01874-0.1136-0.02227-0.1735-0.09108-0.05989-0.06882-0.16351-0.10836-0.23027-0.08789-0.14407,0.04418-0.57876-0.23594-0.5697-0.36715,0.0096-0.13952,0.21411-0.17332,0.58342-0.09645,0.21054,0.04385,0.35627,0.0388,0.39385-0.01359,0.07382-0.10293,0.25974-0.096,0.31645,0.01182zm-0.6252,0.58687c-0.0043,0.06283-0.26373,0.21146-0.3577,0.20497-0.02283-0.0016-0.01932-0.05058,0.0078-0.10889,0.05521-0.11875,0.35721-0.20167,0.34992-0.09609zm2.235,0.30591c-0.0021,0.06427-0.04127,0.16697-0.08711,0.22822-0.10155,0.13571-0.09308,0.013,0.01341-0.19426,0.05108-0.09943,0.07619-0.111,0.0737-0.03393zm-0.22569,0.22077c0.03622,0.4713-1.6312,2.1792-2.7472,2.814-0.53109,0.30207-1.7973,0.85394-1.9272,0.83996-0.0445-0.0048,0.02775-0.05668,0.16054-0.11531,0.26474-0.11689,0.69385-0.44334,0.70001-0.53254,0.0021-0.03096-0.05789-0.05154-0.13339-0.04571-0.0755,0.0058-0.13284,0.04266-0.12742,0.08189,0.0155,0.11206-0.30685,0.37887-0.56073,0.46412-0.1269,0.04262-0.21584,0.1058-0.19764,0.14039,0.04826,0.0917-1.1154,0.30497-1.7031,0.31215l-0.50403,0.0062,0.39333-0.08364c0.21633-0.046,0.40879-0.1212,0.42769-0.16712,0.01891-0.04591,0.10341-0.07871,0.18779-0.07288,0.08439,0.0058,0.13642-0.02172,0.11565-0.06121-0.03141-0.0597,0.1411-0.13798,0.37025-0.168,0.10291-0.01348,0.17539-0.11551,0.08642-0.12165-0.04983-0.0034-0.08705-0.05762-0.08272-0.12038,0.0043-0.06277-0.03653-0.10648-0.09083-0.09714-0.05429,0.0093-0.07349,0.0046-0.04267-0.01044,0.03081-0.01508,0.04201-0.07318,0.02486-0.12913-0.03943-0.12871,0.18537-0.29588,0.31404-0.23356,0.06092,0.02952,0.04629,0.04574-0.0394,0.04371-0.1738-0.0042-0.18532,0.16467-0.03075,0.45109,0.14842,0.27505,0.2504,0.3082,0.38339,0.12461,0.08156-0.11258,0.07829-0.16679-0.01664-0.27586-0.10932-0.12561-0.10138-0.13321,0.1063-0.10184,0.3436,0.0519,0.51088,0.03709,0.46958-0.0413-0.02058-0.03914,0.07741-0.08998,0.21777-0.11299,0.14037-0.02302,0.27299-0.04502,0.29472-0.04892,0.02173-0.004,0.08182-0.03008,0.13353-0.0582,0.05171-0.02811,0.14004-0.03602,0.19628-0.01756,0.05624,0.01845,0.07563,0.01647,0.04311-0.0044-0.07064-0.04527,0.10534-0.24561,0.20944-0.23842,0.04,0.0028,0.04872,0.0385,0.01938,0.07942s-0.01633,0.07695,0.02888,0.08007c0.0754,0.0052,0.12175-0.0996,0.10887-0.24623-0.0029-0.03241,0.04694-0.05532,0.11065-0.05092,0.0637,0.0044,0.1643-0.05892,0.22355-0.14072,0.05926-0.08179,0.1538-0.14553,0.21012-0.14165,0.05633,0.0039,0.08072-0.03412,0.05424-0.08446-0.0287-0.05457-0.0075-0.07478,0.0525-0.05005,0.14398,0.05934,0.17115,0.23178,0.03504,0.22238-0.0629-0.0043-0.2016,0.05517-0.30824,0.13227-0.18384,0.13291-0.18588,0.14134-0.03938,0.16269,0.17558,0.02557,0.17877,0.02553,0.45644-0.0053,0.37558-0.0417,0.89575-0.4822,1.8075-1.5307,0.03837-0.04412,0.0992-0.23019,0.13519-0.41349,0.04183-0.21312,0.13613-0.3903,0.26156-0.49148l0.19614-0.15822,0.01664,0.21649zm-0.54487,0.39762c-0.04334,0.24497-0.14652,0.32956-0.13119,0.10755,0.0099-0.14381-0.0068-0.15736-0.09677-0.07825-0.12878,0.11324-0.40411,0.57018-0.41666,0.69149-0.0048,0.04675-0.14336,0.21624-0.30782,0.37666-0.23596,0.23015-0.26087,0.24236-0.11811,0.05787,0.20239-0.26154,0.2451-0.43765,0.09401-0.38768-0.38096,0.12599-0.40344,0.1289-0.34289,0.04448,0.03433-0.04787,0.10737-0.08392,0.1623-0.08013,0.05493,0.0038,0.17168-0.06446,0.25946-0.15166,0.10263-0.10195,0.11644-0.1387,0.03871-0.10296-0.06649,0.03057-0.03988-0.01309,0.05912-0.09697,0.099-0.08391,0.20849-0.22471,0.2433-0.31287,0.03482-0.08817,0.08174-0.13913,0.10427-0.11323,0.02252,0.02589,0.09428,0.0087,0.15944-0.03824,0.20735-0.14931,0.32799-0.11472,0.29284,0.08397zm-5.6368,2.9992c-0.003,0.04274-0.02078,0.07665-0.03961,0.07534-0.01883-0.0013-0.05343-0.03881-0.07688-0.08339-0.02344-0.04456-0.0056-0.07847,0.03961-0.07535,0.04522,0.0031,0.07983,0.04065,0.07688,0.08339zm-3.3161,0.12459c0.12888,0.06751,0.53563,0.15191,0.90388,0.18756s0.66776,0.09077,0.66557,0.12249c-0.0022,0.03173,0.05593,0.07984,0.12916,0.10694,0.07324,0.0271-0.1277,0.01306-0.44653-0.03083-0.60141-0.08347-1.575-0.32807-1.8638-0.46829-0.14299-0.06941-0.1283-0.07782,0.10564-0.06044,0.14944,0.01111,0.37716,0.07541,0.50604,0.14292z" sodipodi:nodetypes="csscscccssssscssscssssscsscsssssssssccccsscccssccsccsccssssccscsssssscscscscscssccccssccscccsccssssssccccscscsssssccsssssssscscscscccssccssssccsssccscccsssssssssccsssccsccccccsccsscccsscsscssccsscccsccssscsccccccscsccccscsscscscccsscsccccsccsccscscssscscssccsscscscsssssccscssccscsssssscsscscsscsscsscsscsccccccscsssssscsscccccccscscsssssccccsscccsccccccccsscsscccscscscsssssccccccsccccccssscsssccsccccsscccssccscccscsscccssssssccssccccc" inkscape:connector-curvature="0" fill="#2249cc"/>
 <path id="path7638" d="m31,16-5,0c0,5.2127-4.0333,9.3481-9.125,9.8125l0.4375,5.0625c0.32442-0.02849,0.65059-0.07618,0.96875-0.125,0.38871-0.06002,0.77851-0.0986,1.1562-0.1875,0.59017-0.13864,1.1577-0.3252,1.7188-0.53125,0.36885-0.13554,0.73957-0.27468,1.0938-0.4375,0.47155-0.21711,0.90012-0.48692,1.3438-0.75,0.36158-0.21423,0.72166-0.41353,1.0625-0.65625,0.48254-0.3439,0.93726-0.72773,1.375-1.125,0.2388-0.2168,0.49451-0.42475,0.71875-0.65625,0.46204-0.47719,0.88536-0.9962,1.2812-1.5312,0.1553-0.2101,0.32441-0.4068,0.46875-0.625,0.35365-0.53414,0.62211-1.1084,0.90625-1.6875,0.14674-0.29946,0.34182-0.56494,0.46875-0.875,0.20106-0.49058,0.31979-1.0163,0.46875-1.5312,0.11971-0.41345,0.25953-0.82314,0.34375-1.25,0.184-0.941,0.312-1.915,0.312-2.908z" fill-rule="nonzero" inkscape:connector-curvature="0" fill="#0011b8"/>
 <path id="path7643" d="m6.1875,16.875-5.0625,0.437c0.028491,0.32442,0.076184,0.65059,0.125,0.96875,0.060018,0.38871,0.098596,0.77851,0.1875,1.1562,0.13864,0.59017,0.3252,1.1577,0.53125,1.7188,0.13554,0.36885,0.27468,0.73957,0.4375,1.0938,0.21711,0.47155,0.48693,0.90012,0.75,1.3438,0.21423,0.36158,0.41353,0.72166,0.65625,1.0625,0.3439,0.48254,0.72773,0.93726,1.125,1.375,0.2168,0.2388,0.42475,0.49451,0.65625,0.71875,0.47719,0.46204,0.9962,0.88536,1.5312,1.2812,0.2101,0.1553,0.4068,0.32441,0.625,0.46875,0.53414,0.35365,1.1084,0.62211,1.6875,0.90625,0.29946,0.14674,0.56494,0.34182,0.875,0.46875,0.49058,0.20106,1.0163,0.31979,1.5312,0.46875,0.41345,0.11971,0.82314,0.25953,1.25,0.34375,0.94,0.184,1.914,0.312,2.907,0.312v-5c-5.213,0-9.3481-4.033-9.8125-9.125z" fill-rule="nonzero" inkscape:connector-curvature="0" fill="#497400"/>
 <path id="path7650" d="m15.125,6.188-0.437-5.0625c-0.325,0.0285-0.651,0.0762-0.969,0.125-0.389,0.06-0.779,0.0986-1.157,0.1875-0.59,0.1386-1.157,0.3252-1.718,0.5313-0.369,0.1355-0.74,0.2746-1.094,0.4374-0.4715,0.2172-0.9001,0.487-1.3438,0.75-0.3615,0.2143-0.7216,0.4136-1.0624,0.6563-0.4826,0.3439-0.9373,0.7277-1.375,1.125-0.2389,0.2168-0.4946,0.4248-0.7188,0.6563-0.462,0.4771-0.8854,0.9962-1.2812,1.5312-0.1554,0.2101-0.3245,0.4068-0.4688,0.625-0.3536,0.5341-0.6221,1.1084-0.9062,1.6875-0.1468,0.2995-0.3419,0.5645-0.4688,0.8745-0.2011,0.491-0.3198,1.017-0.4688,1.532-0.1197,0.413-0.2595,0.823-0.3437,1.25-0.1842,0.939-0.3125,1.913-0.3125,2.906h5c0-5.2127,4.0333-9.3481,9.125-9.8125z" fill-rule="nonzero" inkscape:connector-curvature="0" fill="#de6f00"/>
 <path id="path7595" d="m16,1.0005,0,5c5.2127,0,9.3481,4.0333,9.8125,9.125l5.063-0.437c-0.028-0.325-0.076-0.651-0.125-0.969-0.06-0.389-0.099-0.779-0.188-1.157-0.138-0.59-0.325-1.157-0.531-1.718-0.135-0.369-0.274-0.74-0.437-1.094-0.217-0.4715-0.487-0.9001-0.75-1.3438-0.214-0.3615-0.414-0.7216-0.656-1.0624-0.344-0.4826-0.728-0.9373-1.126-1.375-0.216-0.2389-0.424-0.4946-0.656-0.7188-0.476-0.462-0.996-0.8854-1.53-1.2812-0.21-0.1554-0.408-0.3245-0.626-0.4688-0.534-0.3536-1.108-0.6221-1.688-0.9062-0.298-0.1468-0.564-0.3419-0.874-0.4688-0.49-0.2011-1.016-0.3198-1.532-0.4688-0.412-0.1197-0.822-0.2595-1.25-0.3437-0.938-0.1842-1.912-0.3125-2.906-0.3125z" fill-rule="nonzero" inkscape:connector-curvature="0" fill="#00a198"/>
</svg>
