<?xml-stylesheet type="text/css" href="icon.css" ?>
<svg id="svg2985" xmlns:inkscape="http://www.inkscape.org/namespaces/inkscape" xmlns:rdf="http://www.w3.org/1999/02/22-rdf-syntax-ns#" xmlns="http://www.w3.org/2000/svg" sodipodi:docname="GoogleAnalytic.svg" viewBox="0 0 32 32" height="100%" width="100%" version="1.1" xmlns:cc="http://creativecommons.org/ns#" xmlns:dc="http://purl.org/dc/elements/1.1/" inkscape:version="0.48.5 r10040" xmlns:sodipodi="http://sodipodi.sourceforge.net/DTD/sodipodi-0.dtd">
 <metadata id="metadata34329">
  <rdf:RDF>
   <cc:Work rdf:about="">
    <dc:format>image/svg+xml</dc:format>
    <dc:type rdf:resource="http://purl.org/dc/dcmitype/StillImage"/>
    <dc:title/>
   </cc:Work>
  </rdf:RDF>
 </metadata>
 <sodipodi:namedview id="namedview34325" bordercolor="#666666" inkscape:pageshadow="2" guidetolerance="10" pagecolor="#ffffff" gridtolerance="10" inkscape:window-maximized="0" inkscape:zoom="7.375" objecttolerance="10" borderopacity="1" inkscape:current-layer="svg2985" inkscape:cx="16" inkscape:cy="14.713443" inkscape:window-y="0" inkscape:window-x="0" inkscape:window-width="640" showgrid="false" inkscape:pageopacity="0" inkscape:window-height="480"/>
 <rect id="rect5505-1" fill-rule="nonzero" height="20" width="30" y="1.6212" x="1" fill="#0daea7"/>
 <path id="path5647" d="m12.604,19.885c-2.7473-0.492-3.8638-1.356-3.8638-2.988,0-0.64021,0.07399-0.76259,0.82137-1.3587l0.8214-0.655-0.4655-0.305c-0.951-0.623-1.2747-1.732-0.7135-2.445,0.1563-0.198,0.6865-0.575,1.178-0.838l0.895-0.478-0.623-0.427c-0.9207-0.6309-1.5543-1.7909-1.5543-2.8445,0-1.7524,1.1027-3.1951,2.9664-3.8813,0.9106-0.33528,3.3506-0.6432,3.9132-0.49383,0.21933,0.058234,1.8544,0.14625,3.6336,0.19559l3.2348,0.089705v1.0471l-1.2131,0.04423c-0.66718,0.02433-1.2131,0.09939-1.2131,0.16681s0.16347,0.29556,0.36327,0.50698c0.89459,0.94664,1.1407,2.5563,0.55499,3.6298-1.0831,1.9849-3.7428,2.9306-7.3066,2.5979-1.5214-0.14202-2.2234,0.02693-2.61,0.62816-0.16775,0.2609-0.13732,0.37058,0.17484,0.63042,0.34906,0.29054,0.69705,0.32749,4.5558,0.48372,4.8927,0.19809,5.6343,0.35264,6.4761,1.3496,0.66959,0.793,0.80702,1.6558,0.40375,2.5347-0.93989,2.0485-3.2791,2.9252-7.7178,2.8925-1.2938-0.0096-2.5142-0.04633-2.7119-0.08175zm6.0371-1.1733c1.6579-0.47317,2.5796-1.812,1.8088-2.6276-0.50523-0.53462-1.3913-0.70541-3.8923-0.7502-5.0406-0.09028-5.3015-0.02268-5.3015,1.3736,0,1.2195,0.80517,1.9178,2.5746,2.233,1.0443,0.18599,3.8195,0.05397,4.8103-0.22881zm-1.646-8.446c1.0409-0.44202,1.5393-1.3881,1.5393-2.9219,0-2.1816-1.0362-3.2161-3.2216-3.2161-0.56776,0-1.2679,0.11053-1.6428,0.25933-1.6662,0.66135-2.1847,3.5745-0.91732,5.1539,0.80076,0.99794,2.7962,1.3389,4.2424,0.72476z" inkscape:connector-curvature="0" stroke="#FFF" stroke-miterlimit="4" stroke-dasharray="none" stroke-width="1" fill="#4594c9"/>
 <text id="text5669" style="letter-spacing:0px;word-spacing:0px;" line-height="125%" font-family="Sans" sodipodi:linespacing="125%" font-size="40px" y="28.800432" font-style="normal" x="1.0763483" font-weight="normal" xml:space="preserve" fill="#000000"><tspan id="tspan5671" sodipodi:role="line" font-size="7.5px" y="28.800432" x="1.0763483">Analytics</tspan></text>
</svg>
