<?xml-stylesheet type="text/css" href="icon.css" ?>
<svg id="svg2985" xmlns:inkscape="http://www.inkscape.org/namespaces/inkscape" xmlns:rdf="http://www.w3.org/1999/02/22-rdf-syntax-ns#" xmlns="http://www.w3.org/2000/svg" sodipodi:docname="LinkButton.svg" viewBox="0 0 32 32" height="100%" width="100%" version="1.1" xmlns:cc="http://creativecommons.org/ns#" xmlns:dc="http://purl.org/dc/elements/1.1/" inkscape:version="0.48.5 r10040" xmlns:sodipodi="http://sodipodi.sourceforge.net/DTD/sodipodi-0.dtd">
 <metadata id="metadata33903">
  <rdf:RDF>
   <cc:Work rdf:about="">
    <dc:format>image/svg+xml</dc:format>
    <dc:type rdf:resource="http://purl.org/dc/dcmitype/StillImage"/>
    <dc:title/>
   </cc:Work>
  </rdf:RDF>
 </metadata>
 <sodipodi:namedview id="namedview33899" bordercolor="#666666" inkscape:pageshadow="2" guidetolerance="10" pagecolor="#ffffff" gridtolerance="10" inkscape:window-maximized="0" inkscape:zoom="7.375" objecttolerance="10" borderopacity="1" inkscape:current-layer="svg2985" inkscape:cx="16" inkscape:cy="16" inkscape:window-y="0" inkscape:window-x="0" inkscape:window-width="640" showgrid="false" inkscape:pageopacity="0" inkscape:window-height="480"/>
 <path id="rect4703" d="m5.07,6.668c-1.7283,1.387-2.0031,3.8949-0.6162,5.6229l3.1293,3.8996c1.3869,1.7283,3.8949,2.0032,5.6232,0.61624l3.8996-3.1293c1.7283-1.3869,2.0032-3.8949,0.61624-5.6232l-3.129-3.8998c-1.387-1.7283-3.895-2.0031-5.6233-0.6162l-3.8997,3.1293zm1.8611,1.0709,2.681-2.1514c1.1969-0.9602,2.9499-0.768,3.9099,0.4285l2.1514,2.681c0.96018,1.1965,0.76805,2.9497-0.42848,3.9099l-2.681,2.1514c-1.1965,0.96018-2.9497,0.76805-3.9099-0.42848l-2.1515-2.681c-0.9602-1.197-0.768-2.9498,0.4285-3.91z" fill-rule="nonzero" inkscape:connector-curvature="0" fill="#0daea7"/>
 <path id="path4724" d="m14.623,18.594c-1.7283,1.3869-2.0032,3.8949-0.61624,5.6232l3.1293,3.8996c1.3869,1.7283,3.8949,2.0032,5.6232,0.61624l3.8996-3.1293c1.7283-1.3869,2.0032-3.8949,0.61624-5.6232l-3.129-3.9c-1.387-1.728-3.895-2.003-5.624-0.616l-3.8996,3.1293zm1.8611,1.0709,2.681-2.1514c1.1965-0.96018,2.9497-0.76805,3.9099,0.42848l2.1514,2.681c0.96018,1.1965,0.76805,2.9497-0.42848,3.9099l-2.681,2.1514c-1.1965,0.96018-2.9497,0.76805-3.9099-0.42848l-2.1514-2.681c-0.96018-1.1965-0.76805-2.9497,0.42848-3.9099z" fill-rule="nonzero" inkscape:connector-curvature="0" fill="#0daea7"/>
 <rect id="rect4726" transform="matrix(0.79937687,-0.60082994,0.60082994,0.79937687,0,0)" fill-rule="nonzero" rx="2.7692" ry="2.7692" height="15.5" width="3.875" y="15.025" x="1.0181" fill="#000"/>
</svg>
