<svg xmlns="http://www.w3.org/2000/svg" width="9.624" height="12.631" viewBox="0 0 9.624 12.631">
  <path id="Icon_ionic-md-lock" data-name="Icon ionic-md-lock" d="M15.171,7.445h-.6v-1.2a3.007,3.007,0,1,0-6.015,0v1.2h-.6a1.206,1.206,0,0,0-1.2,1.2v6.015a1.206,1.206,0,0,0,1.2,1.2h7.218a1.206,1.206,0,0,0,1.2-1.2V8.648A1.206,1.206,0,0,0,15.171,7.445Zm-3.609,5.474a1.2,1.2,0,1,1,1.2-1.2A1.206,1.206,0,0,1,11.562,12.918Zm1.865-5.474H9.7v-1.2a1.865,1.865,0,1,1,3.729,0Z" transform="translate(-6.75 -3.234)" fill="#434344"/>
</svg>
