<svg xmlns="http://www.w3.org/2000/svg" width="17.281" height="15.791" viewBox="0 0 17.281 15.791">
  <g id="Group_233" data-name="Group 233" transform="translate(-11.979 -369.318)">
    <path id="Icon_awesome-database" data-name="Icon awesome-database" d="M5.734.936v.585c0,.516-1.284.936-2.867.936S0,2.037,0,1.521V.936C0,.421,1.284,0,2.867,0S5.734.421,5.734.936Zm0,1.317V3.569c0,.516-1.284.936-2.867.936S0,4.085,0,3.569V2.253a5.535,5.535,0,0,0,2.867.622A5.535,5.535,0,0,0,5.734,2.253Zm0,2.048V5.617c0,.516-1.284.936-2.867.936S0,6.133,0,5.617V4.3a5.535,5.535,0,0,0,2.867.622A5.535,5.535,0,0,0,5.734,4.3Z" transform="translate(17.367 369.318)" fill="#434344"/>
    <path id="Icon_awesome-database-2" data-name="Icon awesome-database" d="M5.734.936v.585c0,.516-1.284.936-2.867.936S0,2.037,0,1.521V.936C0,.421,1.284,0,2.867,0S5.734.421,5.734.936Zm0,1.317V3.569c0,.516-1.284.936-2.867.936S0,4.085,0,3.569V2.253a5.535,5.535,0,0,0,2.867.622A5.535,5.535,0,0,0,5.734,2.253Zm0,2.048V5.617c0,.516-1.284.936-2.867.936S0,6.133,0,5.617V4.3a5.535,5.535,0,0,0,2.867.622A5.535,5.535,0,0,0,5.734,4.3Z" transform="translate(11.979 378.555)" fill="#434344"/>
    <path id="Icon_awesome-database-3" data-name="Icon awesome-database" d="M5.734.936v.585c0,.516-1.284.936-2.867.936S0,2.037,0,1.521V.936C0,.421,1.284,0,2.867,0S5.734.421,5.734.936Zm0,1.317V3.569c0,.516-1.284.936-2.867.936S0,4.085,0,3.569V2.253a5.535,5.535,0,0,0,2.867.622A5.535,5.535,0,0,0,5.734,2.253Zm0,2.048V5.617c0,.516-1.284.936-2.867.936S0,6.133,0,5.617V4.3a5.535,5.535,0,0,0,2.867.622A5.535,5.535,0,0,0,5.734,4.3Z" transform="translate(23.525 378.17)" fill="#434344"/>
    <path id="Path_1340" data-name="Path 1340" d="M21027.275,304.667v2.54l2.084,1.26" transform="translate(-21006.611 72.092)" fill="none" stroke="#434344" stroke-width="1"/>
    <path id="Path_1341" data-name="Path 1341" d="M21026.578,307.939l-2.332,1.26" transform="translate(-21005.916 71.339)" fill="none" stroke="#434344" stroke-width="1"/>
  </g>
</svg>
