<svg xmlns="http://www.w3.org/2000/svg" width="20" height="20" viewBox="0 0 20 20">
  <g id="Group_2908" data-name="Group 2908" transform="translate(-182.865 -1349.945)">
    <rect id="Rectangle_7101" data-name="Rectangle 7101" width="20" height="20" transform="translate(182.865 1349.945)" fill="#e8e8e8" opacity="0"/>
    <path id="Path_6388" data-name="Path 6388" d="M165.951,1279.351v4.213h4.5" transform="translate(28.644 72.839)" fill="none" stroke="#5925dc" stroke-width="0.5"/>
    <g id="Rectangle_6915" data-name="Rectangle 6915" transform="translate(188.524 1359.537)" fill="none" stroke="#5925dc" stroke-width="0.4">
      <rect width="13" height="6" rx="1" stroke="none"/>
      <rect x="0.2" y="0.2" width="12.6" height="5.6" rx="0.8" fill="none"/>
    </g>
    <path id="Path_6389" data-name="Path 6389" d="M.3-2.82H2.192v.408H.808v.776h1.3v.4H.808v.824H2.192V0H.3ZM4.532,0H3.94L3.42-.652,2.9,0H2.312l.82-1.008-.776-.948h.6l.468.6.468-.6h.6l-.776.948ZM5.6.032a1.094,1.094,0,0,1-.534-.124.839.839,0,0,1-.346-.352A1.126,1.126,0,0,1,4.6-.976a1.117,1.117,0,0,1,.126-.538.883.883,0,0,1,.358-.362A1.091,1.091,0,0,1,5.616-2a1.276,1.276,0,0,1,.406.066.855.855,0,0,1,.318.178L6.2-1.408a.951.951,0,0,0-.262-.152.773.773,0,0,0-.274-.052.512.512,0,0,0-.4.162.679.679,0,0,0-.144.466.673.673,0,0,0,.144.462.512.512,0,0,0,.4.162.773.773,0,0,0,.274-.052A.951.951,0,0,0,6.2-.564l.144.348a.9.9,0,0,1-.328.182A1.319,1.319,0,0,1,5.6.032Zm2.776-.92H7.04a.608.608,0,0,0,.164.4.561.561,0,0,0,.4.132A.943.943,0,0,0,8.2-.56l.144.344A1.05,1.05,0,0,1,8-.036a1.314,1.314,0,0,1-.414.068A1.037,1.037,0,0,1,6.826-.24a.993.993,0,0,1-.278-.744,1.141,1.141,0,0,1,.12-.532.873.873,0,0,1,.338-.36A.957.957,0,0,1,7.5-2a.815.815,0,0,1,.638.26,1.032,1.032,0,0,1,.234.716Zm-.86-.764a.424.424,0,0,0-.322.128.622.622,0,0,0-.15.368h.9a.57.57,0,0,0-.12-.37A.4.4,0,0,0,7.512-1.652ZM8.78-2.82h.5V0h-.5Z" transform="translate(190.024 1364.037)" fill="#5925dc"/>
    <path id="Path_6387" data-name="Path 6387" d="M149.6,1292.893V1295H137.35v-15.458h8.227l4.025,4.114v2.667" transform="translate(49.524 72.7)" fill="none" stroke="#5925dc" stroke-width="0.5"/>
  </g>
</svg>
