<svg id="svg2" xmlns:inkscape="http://www.inkscape.org/namespaces/inkscape" xmlns:rdf="http://www.w3.org/1999/02/22-rdf-syntax-ns#" xmlns="http://www.w3.org/2000/svg" sodipodi:docname="Review.svg" viewBox="0 0 50 50" version="1.1" xmlns:cc="http://creativecommons.org/ns#" xmlns:dc="http://purl.org/dc/elements/1.1/" inkscape:version="0.48.5 r10040" xmlns:sodipodi="http://sodipodi.sourceforge.net/DTD/sodipodi-0.dtd">
  <g id="layer1" inkscape:label="Layer 1" inkscape:groupmode="layer" transform="translate(0,-1002.3622)">
  <path id="path3755" opacity="0.90865383" sodipodi:type="star" d="M23.214,17.679,13.823,17.224,10.552,26.039,6.25,17.679-3.0195,19.253,2.0698,11.347-3.9286,4.1071,5.4627,4.5617,8.7337-4.2532,13.036,4.1071,22.305,2.5325,17.216,10.438z" fill-rule="evenodd" fill="#1664ce" sodipodi:r1="15.173318" inkscape:flatsided="false" transform="matrix(0.38119611,0,0,0.38119611,3.3355958,1041.1635)" sodipodi:arg2="0.98724639" sodipodi:arg1="0.46364761" inkscape:randomized="0" sodipodi:cy="10.892857" sodipodi:cx="9.6428576" inkscape:rounded="0" sodipodi:r2="7.586659" sodipodi:sides="6"/>
  <path id="path2985" sodipodi:rx="7.1428571" sodipodi:ry="7.5" sodipodi:type="arc" d="m26.429,2.1429c0,4.1421-3.198,7.5-7.1429,7.5s-7.1429-3.3579-7.1429-7.5,3.198-7.5,7.1429-7.5,7.1429,3.3579,7.1429,7.5z" fill-rule="evenodd" transform="matrix(0.98000001,0,0,0.93333333,6.6338977,1008.635)" sodipodi:cy="2.1428571" sodipodi:cx="19.285715" fill="#0daea7"/>
  <path id="path2987" d="m25,1018.2c-9.8873,0-17.883,9.0657-18.306,19.941l20.461,0.063c1.1957-1.5123,5.355-11.427,8.0095-16.19-3.2125-3.0584-5.6046-3.8145-10.165-3.8145zm16.224,10.112c-3.1103,5.5421-4.9426,9.1071-5.436,9.7657l7.5813-0.0001c-0.1565-4.0237-0.19241-6.6702-2.1453-9.7657z" fill-rule="evenodd" sodipodi:nodetypes="ccccscccccc" inkscape:connector-curvature="0" fill="#0daea7"/>
  <path id="path3778" opacity="0.90865383" sodipodi:type="star" sodipodi:sides="6" fill-rule="evenodd" fill="#1664ce" sodipodi:r1="15.173318" sodipodi:r2="7.586659" sodipodi:arg1="0.46364761" sodipodi:arg2="0.98724639" transform="matrix(0.38119611,0,0,0.38119611,14.975585,1041.1635)" inkscape:randomized="0" sodipodi:cy="10.892857" sodipodi:cx="9.6428576" inkscape:rounded="0" inkscape:flatsided="false" d="M23.214,17.679,13.823,17.224,10.552,26.039,6.25,17.679-3.0195,19.253,2.0698,11.347-3.9286,4.1071,5.4627,4.5617,8.7337-4.2532,13.036,4.1071,22.305,2.5325,17.216,10.438z"/>
  <path id="path3782" opacity="0.90865383" sodipodi:type="star" d="M23.214,17.679,13.823,17.224,10.552,26.039,6.25,17.679-3.0195,19.253,2.0698,11.347-3.9286,4.1071,5.4627,4.5617,8.7337-4.2532,13.036,4.1071,22.305,2.5325,17.216,10.438z" fill-rule="evenodd" fill="#1664ce" sodipodi:r1="15.173318" inkscape:flatsided="false" transform="matrix(0.38119611,0,0,0.38119611,26.615573,1041.1635)" sodipodi:arg2="0.98724639" sodipodi:arg1="0.46364761" inkscape:randomized="0" sodipodi:cy="10.892857" sodipodi:cx="9.6428576" inkscape:rounded="0" sodipodi:r2="7.586659" sodipodi:sides="6"/>
  <path id="path3784" opacity="0.90865383" sodipodi:type="star" sodipodi:sides="6" fill-rule="evenodd" fill="#1664ce" sodipodi:r1="15.173318" sodipodi:r2="7.586659" sodipodi:arg1="0.46364761" sodipodi:arg2="0.98724639" transform="matrix(0.38119611,0,0,0.38119611,38.255562,1041.1635)" inkscape:randomized="0" sodipodi:cy="10.892857" sodipodi:cx="9.6428576" inkscape:rounded="0" inkscape:flatsided="false" d="M23.214,17.679,13.823,17.224,10.552,26.039,6.25,17.679-3.0195,19.253,2.0698,11.347-3.9286,4.1071,5.4627,4.5617,8.7337-4.2532,13.036,4.1071,22.305,2.5325,17.216,10.438z"/>
  <path id="path5027" d="m30.906,1034.3s10.959-20.444,12.44-21.537c1.4812-1.0927,3.8355,0.226,3.1785,2.0531-0.65694,1.8269-11.922,21.522-11.922,21.522z" sodipodi:nodetypes="czzcc" inkscape:connector-curvature="0" fill="#e71e1e"/>
  <path id="path5029" d="m30.347,1035.2-0.19117,4.063,3.8432-1.987z" sodipodi:nodetypes="cccc" inkscape:connector-curvature="0" fill="#e71e1e"/>
  <text id="text5031" style="letter-spacing:0px;word-spacing:0px;" line-height="125%" font-weight="normal" xml:space="preserve" transform="translate(0,1002.3622)" font-size="11px" font-style="normal" y="16.507078" x="77.512192" font-family="Sans" sodipodi:linespacing="125%" fill="#000000"><tspan id="tspan5033" sodipodi:role="line" x="77.512192" y="16.507078"/></text>
 </g>
</svg>
