<svg id="Group_227" data-name="Group 227" xmlns="http://www.w3.org/2000/svg" width="10.129" height="13.562" viewBox="0 0 10.129 13.562">
  <g id="Group_78" data-name="Group 78" transform="translate(0)">
    <path id="Path_84" data-name="Path 84" d="M5841.207,359.887v-2.928a1.279,1.279,0,0,1,1.348-.941c1.143.018,6.494,0,6.494,0s1.26-.068,1.3.941,0,2.928,0,2.928h-1.768v-1.4h-5.552v1.4Z" transform="translate(-5840.718 -356.016)" fill="#434344"/>
    <path id="Path_85" data-name="Path 85" d="M0,3.87V.942A1.279,1.279,0,0,1,1.348,0C2.491.019,7.842,0,7.842,0S9.1-.067,9.137.942s0,2.928,0,2.928H7.37v-1.4H1.817v1.4Z" transform="translate(9.641 13.562) rotate(180)" fill="#434344"/>
    <path id="Path_86" data-name="Path 86" d="M5842.495,366.163l.952,1.017-1.825,1.539,1.825,1.761-1.176.983-2.726-2.617Z" transform="translate(-5839.544 -361.843)" fill="#434344"/>
    <path id="Path_87" data-name="Path 87" d="M2.95,0,3.9,1.017,2.077,2.555,3.9,4.316,2.726,5.3,0,2.681Z" transform="translate(10.129 9.488) rotate(177)" fill="#434344"/>
  </g>
</svg>
