<svg id="SvgjsSvg1001" width="288" height="288" xmlns="http://www.w3.org/2000/svg" version="1.1" xmlns:xlink="http://www.w3.org/1999/xlink" xmlns:svgjs="http://svgjs.com/svgjs"><defs id="SvgjsDefs1002"></defs><g id="SvgjsG1008"><svg xmlns="http://www.w3.org/2000/svg" width="288" height="288" viewBox="0 0 25 25"><g data-name="Group 314" transform="translate(-1233 -59)" fill="#0d78bf" class="color000 svgShape"><g fill="#434344" stroke="#ececec" data-name="Rectangle 459" transform="translate(1233 59)" class="color434344 svgShape colorStrokeececec svgStroke"><rect width="25" height="25" stroke="none" rx="4" fill="#0d78bf" class="color000 svgShape"></rect><rect width="24" height="24" x=".5" y=".5" fill="none" rx="3.5"></rect></g><g transform="translate(1239.682 66.574)" fill="#0d78bf" class="color000 svgShape"><path fill="#ffffff" d="M4.385,3.543,3.709,6.215a13.1,13.1,0,0,1-.925,2.741,3.389,3.389,0,0,1-1.055,1.258,2.418,2.418,0,0,1-1.385.408,1.139,1.139,0,0,1-.723-.188.557.557,0,0,1-.231-.442A.537.537,0,0,1-.42,9.58a.719.719,0,0,1,.5-.173.554.554,0,0,1,.4.133.445.445,0,0,1,.139.335.382.382,0,0,1-.087.275q-.087.09-.087.119l.029.04a.122.122,0,0,0,.081.029.424.424,0,0,0,.295-.11,1.676,1.676,0,0,0,.457-.659q.1-.266.4-1.405l1.18-4.62h-.8l.191-.677a1.26,1.26,0,0,0,.63-.11,1.344,1.344,0,0,0,.416-.52A4.935,4.935,0,0,1,4.662.554,2.627,2.627,0,0,1,6.235.045a1.236,1.236,0,0,1,.807.214.694.694,0,0,1,.251.555.663.663,0,0,1-.168.477.551.551,0,0,1-.416.176.529.529,0,0,1-.382-.144.464.464,0,0,1-.15-.347.608.608,0,0,1,.1-.307.581.581,0,0,0,.1-.22.135.135,0,0,0-.043-.1.159.159,0,0,0-.113-.04.974.974,0,0,0-.7.422,5.143,5.143,0,0,0-.948,2.14H5.4l-.2.677H4.385Z" class="colorfff svgShape"></path><path fill="#ffffff" d="M27.331,13.868l2.018-.347a5.794,5.794,0,0,1,.775,1.9,14.063,14.063,0,0,1,.856-1.174,2.622,2.622,0,0,1,.639-.587,1.111,1.111,0,0,1,.535-.136.655.655,0,0,1,.489.173.64.64,0,0,1,.171.468.627.627,0,0,1-.171.454.567.567,0,0,1-.425.176,1.61,1.61,0,0,1-.425-.067,1.512,1.512,0,0,0-.333-.067.736.736,0,0,0-.463.173,3.689,3.689,0,0,0-.74,1.012,8.147,8.147,0,0,0,.786,2.116.47.47,0,0,0,.353.226.449.449,0,0,0,.26-.075,3.023,3.023,0,0,0,.515-.607l.208.121a3.864,3.864,0,0,1-.995,1.156,1.266,1.266,0,0,1-.728.26,1.082,1.082,0,0,1-.616-.165,1.39,1.39,0,0,1-.437-.538,8.456,8.456,0,0,1-.451-1.194q-.676.862-1.061,1.258a2.52,2.52,0,0,1-.639.518,1.247,1.247,0,0,1-.544.122.651.651,0,0,1-.477-.173.6.6,0,0,1-.176-.451.653.653,0,0,1,.677-.677.842.842,0,0,1,.353.093,1.147,1.147,0,0,0,.416.139A.639.639,0,0,0,28,17.9a1.747,1.747,0,0,0,.44-.376q.162-.179.6-.763a9.643,9.643,0,0,0-.867-2.463.6.6,0,0,0-.5-.26,1.958,1.958,0,0,0-.382.046l.041-.22Z" transform="translate(-21.563 -10.816)" class="colorfff svgShape"></path></g></g></svg></g></svg>