<svg xmlns="http://www.w3.org/2000/svg" id="Layer_1" data-name="Layer 1" viewBox="0 0 95.01 90">
  <defs>
    <style>
      .cls-1 {
        fill: #337ab7;
      }
    </style>
  </defs>
  <title>script-icon_3</title>
  <path class="cls-1" d="M7.81,21.1a88.37,88.37,0,0,0,.58,9.13c.25,3,.5,6.1.5,9,0,3.61-.66,7.89-6.42,8v7.33c5.76.12,6.42,4.73,6.42,8,0,2.92-.25,5.85-.5,8.9a86.55,86.55,0,0,0-.58,9C7.81,91.93,12.9,96,20.06,96h2.38V88H21c-4.1,0-5.75-3.27-5.75-8.91A54.44,54.44,0,0,1,15.78,72c.16-2.47.49-5.19.49-8.22C16.36,55.85,13.9,52.34,9.7,51v-.23c4.2-1.35,6.66-4.74,6.58-12.63,0-2.93-.33-5.64-.49-8.13a54.12,54.12,0,0,1-.58-7.1c0-5.52,1.48-8.8,5.75-8.8h1.48V6H20.06C12.74,6,7.81,10.5,7.81,21.1Z" transform="translate(-2.46 -6)"/>
  <path class="cls-1" d="M91,39.27c0-2.93.33-6,.58-9s.58-6.2.58-9.13c0-10.6-5-15.11-12.4-15.11H77.33v8.12h1.49c4.25.12,5.74,3.27,5.74,8.8,0,2.26-.25,4.62-.5,7.1a79.13,79.13,0,0,0-.5,8.13C83.49,46,86,49.42,90.14,50.77V51c-4.15,1.35-6.65,4.86-6.57,12.75a78.91,78.91,0,0,0,.5,8.22c.25,2.49.5,4.85.5,7.11,0,5.63-1.58,8.79-5.74,8.9H77.33v8h2.41c7.24,0,12.4-4.06,12.4-15.44,0-2.82-.33-6-.58-9s-.58-6-.58-8.91c0-3.27.75-7.89,6.49-8V47.28C91.73,47.16,91,42.88,91,39.27Z" transform="translate(-2.46 -6)"/>
  <path id="path9883" class="cls-1" d="M43.23,47.25,40,58.48Q37.72,66.43,35.57,70a14.91,14.91,0,0,1-5,5.29A12.74,12.74,0,0,1,23.9,77a6,6,0,0,1-3.46-.79,2.27,2.27,0,0,1-1.11-1.86,2.16,2.16,0,0,1,.91-1.73,3.74,3.74,0,0,1,2.41-.73,2.88,2.88,0,0,1,1.91.56,1.77,1.77,0,0,1,.66,1.41A1.49,1.49,0,0,1,24.81,75q-.41.38-.41.5l.14.17a.64.64,0,0,0,.39.12,2.2,2.2,0,0,0,1.41-.46,7.11,7.11,0,0,0,2.18-2.77q.5-1.12,1.91-5.91l5.64-19.42H32.22l.91-2.84a6.75,6.75,0,0,0,3-.46,5.88,5.88,0,0,0,2-2.19,21.52,21.52,0,0,1,6.42-7.07,13.76,13.76,0,0,1,7.52-2.14,6.52,6.52,0,0,1,3.86.9,2.78,2.78,0,0,1,1.2,2.33,2.6,2.6,0,0,1-.8,2,2.82,2.82,0,0,1-2,.74,2.73,2.73,0,0,1-1.83-.61,1.85,1.85,0,0,1-.72-1.46,2.34,2.34,0,0,1,.46-1.29,2.29,2.29,0,0,0,.46-.92.54.54,0,0,0-.21-.44.83.83,0,0,0-.54-.17,4.82,4.82,0,0,0-3.35,1.77q-2.82,2.84-4.54,9h4l-1,2.84h-3.9Z" transform="translate(-2.46 -6)"/>
  <path id="path9885" class="cls-1" d="M53.45,45.19l9.65-1.46a22.81,22.81,0,0,1,3.71,8,60.2,60.2,0,0,1,4.09-4.93A12.14,12.14,0,0,1,74,44.3a5.9,5.9,0,0,1,2.56-.57,3.4,3.4,0,0,1,2.34.73,2.51,2.51,0,0,1,.82,2,2.46,2.46,0,0,1-.82,1.91,2.91,2.91,0,0,1-2,.74,8.68,8.68,0,0,1-2-.28,8.12,8.12,0,0,0-1.59-.28,3.82,3.82,0,0,0-2.21.73,15.85,15.85,0,0,0-3.54,4.25q2.35,7.29,3.76,8.9a2.31,2.31,0,0,0,1.69.95A2.37,2.37,0,0,0,74.14,63a13.35,13.35,0,0,0,2.46-2.55l1,.51a17.09,17.09,0,0,1-4.76,4.86,6.6,6.6,0,0,1-3.48,1.09,5.72,5.72,0,0,1-2.94-.69A6.08,6.08,0,0,1,64.32,64a33,33,0,0,1-2.16-5q-3.24,3.62-5.07,5.29A11.93,11.93,0,0,1,54,66.43a6.66,6.66,0,0,1-2.6.51,3.37,3.37,0,0,1-2.28-.73,2.39,2.39,0,0,1-.84-1.9,2.6,2.6,0,0,1,.91-2,3.39,3.39,0,0,1,2.32-.8,4.47,4.47,0,0,1,1.69.39,6,6,0,0,0,2,.58,3.4,3.4,0,0,0,1.44-.29,8.19,8.19,0,0,0,2.1-1.58q.77-.75,2.85-3.21Q59,48.71,57.46,47a3,3,0,0,0-2.38-1.09,10.6,10.6,0,0,0-1.83.19l.2-.92Z" transform="translate(-2.46 -6)"/>
</svg>