<svg xmlns="http://www.w3.org/2000/svg" width="11.981" height="11.979" viewBox="0 0 11.981 11.979">
  <path id="Icon_awesome-upload" data-name="Icon awesome-upload" d="M6.926,8.989H5.054a.56.56,0,0,1-.562-.562V4.5H2.441a.467.467,0,0,1-.33-.8L5.67.137a.453.453,0,0,1,.639,0L9.87,3.7a.467.467,0,0,1-.33.8H7.488V8.428A.56.56,0,0,1,6.926,8.989ZM11.981,8.8v2.621a.56.56,0,0,1-.562.562H.562A.56.56,0,0,1,0,11.423V8.8A.56.56,0,0,1,.562,8.24H3.744v.187a1.311,1.311,0,0,0,1.31,1.31H6.926a1.311,1.311,0,0,0,1.31-1.31V8.24h3.182A.56.56,0,0,1,11.981,8.8Zm-2.9,2.059a.468.468,0,1,0-.468.468A.469.469,0,0,0,9.079,10.861Zm1.5,0a.468.468,0,1,0-.468.468A.469.469,0,0,0,10.577,10.861Z" transform="translate(0 -0.005)" fill="#434344"/>
</svg>
