
 <svg id="svg2" 
xmlns:rdf="http://www.w3.org/1999/02/22-rdf-syntax-ns#"
	xmlns:sodipodi="http://sodipodi.sourceforge.net/DTD/sodipodi-0.dtd" 
	xmlns:inkscape="http://www.inkscape.org/namespaces/inkscape"
	xmlns="http://www.w3.org/2000/svg" 
 viewBox="0 0 24 24" version="1.1" inkscape:version="0.48.5 r10040">

  <g id="layer3" inkscape:label="web" inkscape:groupmode="layer">

  <path id="path136948" sodipodi:rx="9.2799902" sodipodi:ry="9.4106941" sodipodi:type="arc" d="m-22.35-9.9831a9.28,9.4107,0,1,1,-18.56,0,9.28,9.4107,0,1,1,18.56,0z" transform="matrix(1.211527,0,0,1.2047724,50.311559,24.129041)" stroke="#000" sodipodi:cy="-9.9830608" sodipodi:cx="-31.630388" stroke-miterlimit="4" stroke-dasharray="none" stroke-width="0.6621722" fill="#FFF"/>

  <path id="path7574-2-7" inkscape:connector-curvature="0" fill="#0da7ae" d="M11.625,1c-2.4422,0.0738-4.7255,0.9466-6.6875,2.5938-0.4489,0.3768-0.5638,0.5293-0.2813,0.3124,0.2826-0.2168,0.5377-0.4079,0.5626-0.4062,0.0247,0.0017,0.0082,0.1016-0.0313,0.2188-0.0491,0.1458-0.0519,0.2,0.0313,0.1562,0.0667-0.0352,0.129-0.0274,0.125,0.0312-0.0132,0.1903,0.2835,0.1352,1.125-0.2187,0.919-0.3866,1.0999-0.4144,0.9687-0.1563-0.0478,0.0941-0.1428,0.4529-0.2187,0.7813-0.1612,0.6964-0.2948,0.8576-0.9063,1.0625-0.2502,0.0838-0.5257,0.2494-0.5937,0.375-0.0673,0.1241-0.1663,0.1939-0.2188,0.1562-0.0525-0.0376-0.1445,0.0505-0.2188,0.1876-0.1234,0.2279-0.2362,0.2646-0.4374,0.2187-0.0407-0.0093-0.2041,0.1254-0.375,0.2813-0.3436,0.3131-0.7341,0.292-0.5313-0.0313,0.0778-0.124,0.0971-0.2199,0-0.3125-0.1848-0.1763-0.3283-0.0768-0.5,0.3438-0.1779,0.4357-0.295,0.2693-0.2187-0.3126,0.0306-0.2336,0.0824-0.5375,0.0937-0.6562,0.0112-0.1187,0.1906-0.4417,0.4063-0.7188,0.2156-0.277,0.309-0.44,0.2187-0.375-0.285,0.2052-1.151,1.4062-1.5625,2.1563-0.5678,1.0355-0.9916,2.2604-1.2188,3.5315-0.39044,2.182-0.0224,4.547,0.9688,6.593-0.0835-0.223-0.1466-0.415-0.125-0.437,0.012032-0.01204,0.11594,0.04635,0.25,0.15625,0.46023,0.37717,0.96591,0.65834,1.4688,0.84375,0.011172,0.0072,0.047036,0.01094,0.0625,0.03125,0.08398,0.02941,0.16581,0.03881,0.25,0.0625-0.0718-0.428,0.0244-1.135,0.2187-1.124,0.1984,0.01,0.3162-0.159,0.2812-0.344-0.02-0.106,0.0308-0.217,0.0938-0.25,0.0749-0.039,0.0249-0.179-0.125-0.406-0.2604-0.395-0.2883-0.619-0.0625-0.688,0.10537-0.0323,0.16558,0.02152,0.15625,0.15625-0.00753,0.10893,0.084473,0.28794,0.1875,0.40625,0.10302,0.11833,0.16197,0.26073,0.15625,0.34375-0.012636,0.18277,0.25247,0.23011,0.375,0.0625,0.058447-0.07995,0.10326-0.03586,0.125,0.15625l0.0312,0.314,0.1562-0.156-0.0625-0.032,0.1563-0.062c0.010251-0.0103-0.00933-0.02172,0-0.03125,0.18795-0.19202,0.21794-0.23238,0.09375-0.375-0.079538-0.09128-0.19419-0.15439-0.25-0.125-0.055829,0.02956-0.16777,0.03824-0.25,0-0.1332-0.06194-0.15083-0.0874,0-0.21875,0.18264-0.15904,0.26901-0.42749,0.125-0.4375-0.0799-0.005-0.3212-0.586-0.3126-0.75,0.0019-0.037-0.0278-0.116-0.0625-0.156-0.0814-0.094,0.2056-0.882,0.4375-1.188,0.0983-0.129,0.2418-0.223,0.3125-0.218,0.2068,0.014,0.6775-0.203,0.6875-0.313,0.0051-0.055,0.0514-0.016,0.0938,0.063,0.1059,0.196,0.4624,0.097,0.5624-0.156,0.0572-0.145,0.0113-0.321-0.1874-0.563-0.1525-0.186-0.287-0.469-0.3126-0.625-0.0384-0.235,0.0225-0.331,0.3126-0.562,0.2243-0.179,0.3307-0.2094,0.3437-0.126,0.0112,0.073,0.2019,0.271,0.4063,0.438l0.375,0.28125,0.0624-0.281c0.0998-0.34-0.0845-0.849-0.375-1.0312-0.106-0.0666-0.164-0.2314-0.1562-0.3438s-0.0376-0.3122-0.0938-0.4375c-0.0946-0.2113-0.0829-0.2039,0.2188,0.0625,0.179,0.158,0.3342,0.3982,0.3438,0.5312,0.0095,0.1331,0.0987,0.3515,0.1874,0.4688,0.097197,0.12847,0.12545,0.31956,0.09375,0.5-0.02896,0.16482-0.00859,0.42073,0.03125,0.5625,0.03982,0.14176,0.097665,0.36026,0.125,0.46875,0.037884,0.15037,0.060557,0.14584,0.15625,0.0625,0.22461-0.1956,0.39635-0.09042,0.375,0.21875-0.011947,0.17297,0.053354,0.35324,0.15625,0.4375,0.09691,0.07935,0.2203,0.26941,0.28125,0.40625,0.069367,0.1557,0.13947,0.19194,0.1875,0.125,0.042197-0.0588,0.17173-0.11422,0.28125-0.125,0.10956-0.01073,0.4676-0.26389,0.8125-0.5625,0.52072-0.45085,0.64231-0.617,0.6875-0.9375,0.05257-0.37283,0.34386-0.85453,0.5-0.84375,0.10925,0.0076,0.64896,1.4238,0.75,1.9688,0.03113,0.16783,0.08745,0.24346,0.125,0.3125,0.0081-0.0031,0.15562-0.06313,0.15625-0.0625,0.000406,0.000407-0.06056,0.17776-0.0625,0.1875,0.02099,0.0047,0.03663,0.0019,0.0625,0,0.12549-0.0094,0.30022,0.13172,0.5,0.40625,0.31128,0.42804,0.33989,0.45014,1.0625,0.5,0.50783,0.03505,0.73518,0.08006,0.8125,0.1875,0.03033,0.04215,0.07797,0.07427,0.125,0.09375v-0.21875c0.0081-0.14996-0.05845-0.26979-0.21875-0.34375-0.13471-0.06216-0.2558-0.16488-0.25-0.25,0.02361-0.34118,0.53116-0.8645,0.9375-0.96875,0.1132-0.02904,0.21943-0.08488,0.25-0.125,0.03057-0.04009,0.36066-0.16394,0.71875-0.28125l0.65625-0.21875,0.0625,0.25c0.04327,0.14273,0.0675,0.33517,0.0625,0.40625-0.0049,0.07109,0.13106,0.32185,0.28125,0.5625,0.15018,0.24065,0.2534,0.48242,0.25,0.53125-0.0034,0.04886,0.12263,0.2924,0.25,0.5625,0.15439,0.32738,0.24079,0.46867,0.3125,0.40625,0.0717-0.06246,0.0294-0.26634-0.125-0.59375-0.12739-0.2701-0.1961-0.59414-0.1875-0.71875,0.0086-0.12459-0.078-0.26914-0.15625-0.34375-0.07824-0.07461-0.1288-0.19318-0.125-0.25,0.0039-0.0568-0.13182-0.26726-0.3125-0.46875s-0.3184-0.44463-0.3125-0.53125c0.009-0.13028-0.07957-0.12493-0.46875-0.09375-0.25875,0.02072-0.54706,0.03861-0.625,0.0625-0.08076,0.02476-0.1308-0.0089-0.125-0.09375,0.027-0.363,0.51-1.0537,1.127-1.5942,0.559-0.4903,0.681-0.6564,0.719-0.9688,0.025-0.2056-0.007-0.4787-0.063-0.5938-0.056-0.115-0.092-0.3537-0.094-0.5624-0.001-0.2921,0.043-0.3969,0.188-0.4376,0.38367-0.10742,0.57084-0.31839,0.53125-0.625-0.02391-0.18514-0.0086-0.28617,0.0625-0.28125,0.06225,0.00429,0.1177-0.082951,0.125-0.1875,0.0072-0.10456,0.11024-0.28966,0.21875-0.40625,0.16753-0.17996,0.26092-0.20702,0.59375-0.125,0.01083,0.00267,0.02095-0.00273,0.03125,0-0.135-0.4032-0.326-0.7557-0.594-1.0312-0.15186-0.15584-0.26106-0.28125-0.25-0.28125,0.04801,0,0.5085,0.24408,0.84375,0.4375-1.554-1.5511-3.558-2.6688-5.688-3.0625v-0.03125c-0.845-0.1563-1.686-0.21219-2.5-0.1876zm5.7188,4.4375c0.092-0.0149,0.195,0.035,0.281,0.1875,0.083,0.1476,0.081,0.3058,0.031,0.375-0.048,0.067-0.063,0.2503-0.062,0.4062,0.001,0.1931-0.064,0.3094-0.188,0.3438-0.1,0.0278-0.281,0.1214-0.406,0.2188-0.203,0.1586-0.235,0.1814-0.281,0.0312-0.028-0.0921,0.041-0.4608,0.156-0.8125,0.156-0.4773,0.315-0.7251,0.469-0.75zm-12.156,1.4375c0.0384-0.011,0.0638-0.0182,0.0625,0-0.0016,0.0233-0.1295,0.1337-0.2812,0.2188-0.1518,0.0851-0.2606,0.0894-0.2188,0.0312,0.0599-0.0834,0.3223-0.2171,0.4375-0.25zm0.75,0.125c0.1447,0.01,0.1164,0.0701-0.0625,0.125-0.0919,0.0282-0.133,0.0233-0.0938-0.0312,0.0376-0.0525,0.1042-0.0974,0.1563-0.0938zm-0.5625,0.0938c0.011305-0.00981,0.034969-0.0015,0.09375,0,0.10639,0.00293,0.16074,0.031349,0.125,0.0625-0.0358,0.031-0.1169,0.0028-0.1876-0.0313-0.039-0.0188-0.0425-0.0214-0.0312-0.0312zm1.1562,0c0.1289,0.001,0.3178,0.0332,0.5938,0.0937,0.1917,0.042,0.3334,0.1333,0.3125,0.1875-0.0209,0.0541-0.095,0.0537-0.1875,0.0312-0.0925-0.0224-0.343-0.0378-0.5312-0.0624-0.1883-0.0247-0.3284-0.0968-0.3438-0.1563-0.0151-0.0584,0.0274-0.0948,0.1562-0.0937zm-3.3438,0.25c0.1841,0.050504,0.27083,0.13864,0.21875,0.25-0.036403,0.078985,0.057452,0.2102,0.21875,0.3125,0.15067,0.095642,0.21179,0.15713,0.15625,0.15625-0.055558-0.00077-0.016436,0.035868,0.0625,0.09375,0.11236,0.082396,0.10199,0.12992,0,0.21875-0.1019,0.0886-0.134,0.0884-0.1875-0.094-0.0596-0.2032-0.0992-0.2191-0.2187-0.0937-0.2234,0.2343-0.7021-0.0373-0.7813-0.4375-0.0722-0.3652-0.0046-0.4818,0.125-0.25,0.0751,0.1334,0.093,0.1125,0.2188-0.0312,0.0808-0.092,0.1663-0.1315,0.1875-0.125zm18.781,0c0.016,0.0744,0.019,0.1418,0.032,0.2187,0.12406,0.73196,0.16076,0.71073-0.3125,1.2188-0.08832,0.094804-0.18692,0.18919-0.28125,0.28125,0.02516,0.085034,0.03517,0.1834,0.0625,0.25,0.12386,0.30186,0.2479,0.71149,0.25,0.90625,0.0022,0.20743,0.05397,0.35255,0.125,0.34375,0.06667-0.0082,0.13095,0.0521,0.15625,0.15625,0.03446,0.14187,0.1288,0.20797,0.40625,0.21875,0.34645,0.01331,0.40365,0.02138,0.5,0.40625l0.093,0.437-0.031-0.625c-0.028-0.886-0.321-2.2106-0.75-3.281-0.074-0.1831-0.166-0.3528-0.25-0.5312zm-14.437,0.1562c0.1914-0.0126,0.5583,0.336,0.6876,0.7188,0.0645,0.1891,0.2795,0.5407,0.4687,0.7812,0.2803,0.357,0.3087,0.4494,0.1563,0.4375-0.1033-0.0082-0.3551-0.1984-0.5626-0.4063-0.2074-0.2078-0.4237-0.3719-0.4687-0.375s-0.1089-0.1702-0.1563-0.3437c-0.0588-0.2156-0.1446-0.2823-0.25-0.25-0.1091,0.0335-0.1451-0.0145-0.0937-0.125,0.0399-0.0858,0.0883-0.2028,0.0937-0.2813,0.0065-0.0928,0.0613-0.152,0.125-0.1562zm-2.0624,0.0312,0.0312,0.25c0.0572,0.2952-0.0424,0.5122-0.2188,0.5-0.0725-0.005-0.2089,0.0064-0.3124,0.0313-0.1677,0.0402-0.1551,0.0234,0-0.0625,0.1063-0.0589,0.1486-0.1561,0.125-0.2812-0.0217-0.1148-0.0004-0.2231,0.0624-0.2188,0.061798,0.00425,0.12419,0.086686,0.125,0.15625,0.000718,0.069563,0.045086,0.010656,0.09375-0.125l0.09375-0.25zm0.6562,0.3126c0.0539-0.0066,0.1377,0.0256,0.2188,0.0312,0.2423,0.0167,0.3789,0.0572,0.4374,0.1875,0.1195,0.2657,0.0847,0.6351-0.0624,0.625-0.0673-0.0046-0.3713,0.1931-0.6563,0.4375-0.417,0.3576-0.5286,0.405-0.5937,0.2812-0.0492-0.0932-0.0322-0.2147,0.0312-0.2812,0.0575-0.0604,0.0891-0.1631,0.0625-0.25-0.0266-0.0868,0.0569-0.3527,0.1875-0.5938,0.1622-0.2994,0.2132-0.4178,0.375-0.4374zm-3.6875,0.0312c0.1447,0.01,0.1164,0.0701-0.0625,0.125-0.0919,0.0282-0.133,0.0233-0.0938-0.0312,0.0376-0.0524,0.1042-0.0974,0.1563-0.0938zm2.625,0.59375c0.1038,0.0058,0.1669,0.0483,0.1875,0.0624-0.07,0.0228-0.2164,0.0324-0.3125,0-0.0961-0.0321-0.0412-0.0718,0.125-0.0624zm-0.5937,0.9687c0.0617-0.0361,0.1344,0.0115,0.2187,0.125,0.1441,0.1939,0.131,0.2319-0.0625,0.1875-0.041-0.0094-0.0899,0.0384-0.0938,0.0938-0.0038,0.0552-0.0696,0.0974-0.125,0.0937-0.0553-0.0038-0.07-0.0907-0.0624-0.1875,0.0132-0.1706,0.0632-0.2764,0.125-0.3125zm6.9375,0.15625c0.05-0.0012,0.113,0.0433,0.156,0.0937,0.09,0.103,0.044,0.5065-0.062,0.5625-0.112,0.059-0.306-0.4409-0.219-0.5625,0.038-0.0523,0.075-0.0926,0.125-0.0937zm-6.7185,0.4372c0.0632-0.033,0.1308,0.011,0.1563,0.094,0.0254,0.083,0.0016,0.154-0.0626,0.187-0.0672,0.036-0.0738,0.029-0.0312-0.031,0.0406-0.056,0.0028-0.129-0.0625-0.156-0.083292-0.03434-0.080777-0.05122,0-0.09375zm-0.2813,0.281c0.031834-0.02782,0.096175,0.01217,0.15625,0.125,0.060075,0.11282,0.19546,0.21285,0.28125,0.21875,0.092235,0.0064,0.13149-0.02208,0.09375-0.09375-0.040751-0.07739-0.043895-0.0852,0.03125-0.03125,0.064564,0.04643,0.0955,0.09624,0.0625,0.125-0.033,0.02874-0.02353,0.11135,0.03125,0.1875,0.058996,0.08209,0.086962,0.27869,0.03125,0.46875-0.0844,0.288-0.1143,0.29-0.2186,0.125-0.0638-0.102-0.0975-0.272-0.0625-0.376,0.0421-0.125-0.0084-0.26-0.1875-0.437-0.1486-0.147-0.2506-0.285-0.2188-0.313zm2.2188,1.313c0.0625-0.005,0.0999,0.036,0.0938,0.125-0.0061,0.088-0.0687,0.162-0.1563,0.156s-0.1514-0.061-0.125-0.125c0.0375-0.091,0.125-0.151,0.1875-0.156zm-1.5938,0.59375c0.030896-0.03075,0.055617,0.000599,0.09375,0.125,0.025051,0.08176,0.00271,0.24756-0.0625,0.34375-0.1007,0.14862-0.11049,0.12182-0.09375-0.15625,0.010307-0.17258,0.031604-0.28175,0.0625-0.3125zm17.969,0.343c-0.004,0.01243-0.02604,0.0045-0.03125,0.03125-0.03473,0.17832-0.04115,0.47485-0.03125,0.65625,0.01004-0.0673,0.05209-0.1618,0.0625-0.3125,0.01243-0.17987,0.0033-0.31522,0-0.375zm-6.9062,0.71875c-0.12523,0.0034-0.28527,0.06127-0.40625,0.1875l-0.15625,0.1875c0.03812,0.01106,0.09217,0.01006,0.125,0,0.22149-0.06794,0.69574,0.21415,0.75,0.4375,0.04846,0.19947,0.30108,0.3028,0.40625,0.15625,0.07625-0.10623-0.345-0.76805-0.4375-0.6875-0.03864,0.03365-0.0689-0.03277-0.0625-0.125,0.0085-0.12317-0.09352-0.15965-0.21875-0.15625zm6.75,0.34375c-0.03139-0.0022-0.13224,0.25434-0.21875,0.5625-0.17123,0.6099-0.56409,1.0031-1.125,1.1562-0.29707,0.08111-0.29827,0.07271-0.21875-0.21875,0.06065-0.22225,0.04864-0.27365-0.0625-0.28125-0.08162-0.0056-0.24072-0.13169-0.34375-0.25-0.23678-0.27179-0.38895-0.28188-0.40625-0.03125-0.01942,0.28118-0.12629,0.30702-0.5625,0.125-0.48191-0.2011-1.0029-0.15069-1.1562,0.09375-0.18114,0.28873-0.26845,0.7871-0.125,0.75,0.06709-0.01733,0.1199-0.08246,0.125-0.15625s0.07165-0.13929,0.15625-0.15625c0.12227-0.02449,0.14314-0.03636,0.03125,0.03125-0.11423,0.06901-0.12594,0.0977,0,0.15625,0.08533,0.03975,0.21033,0.05181,0.28125,0.03125,0.26391-0.07657,0.4416,0.2061,0.4375,0.6875-0.000844,0.10097,0.0567,0.08629,0.21875,0,0.15614-0.08316,0.17213-0.14109,0.09375-0.25-0.07688-0.10683-0.05752-0.17672,0.0625-0.28125,0.14206-0.12371,0.15162-0.07313,0.25,0.3125,0.12046,0.47218,0.5441,1.0787,0.5625,0.8125,0.0058-0.08364-0.09051-0.29499-0.1875-0.4375-0.16384-0.24072-0.13388-0.27405,0.03125-0.5625,0.09775-0.17077,0.20157-0.3159,0.25-0.3125,0.14557,0.01005,0.07256,0.19904-0.09375,0.25-0.19099,0.05857-0.19326,0.18799-0.03125,0.375,0.0677,0.07816,0.17336,0.2167,0.21875,0.3125,0.07701,0.16256,0.08264,0.1748,0.28125,0.03125,0.20189-0.14593,0.51312-0.62454,0.65625-1,0.03615-0.0948,0.15908-0.16255,0.25-0.15625,0.23415,0.01613,0.04523,0.6886-0.25,0.90625-0.12104,0.08922-0.22548,0.3034-0.25,0.46875-0.02455,0.16534-0.14267,0.36543-0.25,0.46875-0.18865,0.18166-0.19776,0.2051,0,0.21875,0.14821,0.01021,0.29409-0.12928,0.46875-0.46875,0.34953-0.67942,0.7187-1.8386,0.84375-2.5625,0.05963-0.34589,0.09389-0.6228,0.0625-0.625zm-18.906,0.313c0.04937,0.01536,0.10169,0.09537,0.125,0.21875,0.0294,0.155,0.0083,0.203-0.0937,0.155-0.0769-0.035-0.1526-0.022-0.1563,0.032-0.0037,0.053,0.0401,0.09,0.0937,0.094,0.0536,0.003,0.0689,0.075,0.0313,0.156s-0.1198,0.161-0.1875,0.156c-0.1879-0.013-0.4423,0.42-0.4062,0.719,0.0203,0.168,0.0064,0.247-0.0626,0.219-0.0599-0.025-0.13-0.263-0.1562-0.532-0.05-0.514,0.0883-0.709,0.5312-0.844,0.0994-0.029,0.1847-0.133,0.1876-0.218,0.0078-0.114,0.0443-0.172,0.0937-0.156zm12.25,1.6562c-0.13309-0.01151-0.24436,0.04327-0.25,0.125-0.01537,0.22242,0.27558,1.0415,0.40625,1.1562,0.13298,0.11675,0.0362,0.44864-0.125,0.4375-0.04943-0.0034-0.09005,0.03841-0.09375,0.09375-0.01122,0.16234,0.3731,0.14547,0.625-0.03125,0.27037-0.1897,0.23118-0.56984-0.0625-0.875-0.14239-0.14792-0.13119-0.24696-0.03125-0.40625,0.1001-0.15955,0.07732-0.2259-0.0625-0.34375-0.10871-0.09158-0.27316-0.14474-0.40625-0.15625zm5.0938,0.1875c0.0098,0.01131,0.0016,0.03497,0,0.09375-0.0029,0.10638-0.03138,0.19201-0.0625,0.15625-0.0311-0.03575-0.03406-0.14814,0-0.21875,0.01883-0.03901,0.05266-0.04256,0.0625-0.03125zm-17.876,0.218c0.0387-0.054,0.0846,0.056,0.0938,0.25,0.0167,0.351,0.0256,0.366-0.1875,0.188-0.2069-0.174-0.2484-0.39-0.0625-0.344,0.0501,0.013,0.1176-0.041,0.1562-0.094zm15.781,0.3125c-0.08136-0.003-0.17093,0.02711-0.21875,0.09375-0.04869,0.06784-0.22723,0.08803-0.5,0.03125-0.47845-0.09954-0.73756-0.05566-0.75,0.125-0.01173,0.16991,0.53209,0.52595,0.71875,0.46875,0.0865-0.0265,0.23491,0.0046,0.3125,0.09375,0.0776,0.0891,0.17274,0.14927,0.21875,0.125,0.1485-0.07817,0.46264-0.70543,0.40625-0.8125-0.03674-0.06981-0.10614-0.12196-0.1875-0.125zm-0.812,0.813c-0.10558,0.02897-0.21424,0.11062-0.25,0.1875-0.03514,0.07551-0.02958,0.1229,0,0.125,0.12174,0.0084,0.46315-0.16863,0.46875-0.25,0.0047-0.06836-0.11317-0.09147-0.21875-0.0625zm3.0938,0.40625c-0.016,0.0074-0.06067,0.02938-0.09375,0.09375-0.13796,0.26839-0.13157,0.42573,0,0.25,0.05939-0.07931,0.09095-0.19802,0.09375-0.28125,0.0016-0.0499,0.016-0.06986,0-0.0625zm-0.3125,0.0625-0.25,0.1875c-0.16251,0.13102-0.28955,0.38028-0.34375,0.65625-0.04663,0.23735-0.10654,0.47412-0.15625,0.53125-1.1813,1.3577-1.8572,1.9148-2.3438,1.9688-0.35975,0.03996-0.36627,0.03311-0.59375,0-0.189-0.028-0.206-0.016,0.032-0.188,0.13816-0.09983,0.32476-0.1931,0.40625-0.1875,0.17634,0.01217,0.15529-0.20441-0.03125-0.28125-0.07771-0.03202-0.09968-0.0082-0.0625,0.0625,0.03431,0.06518-0.02077,0.1301-0.09375,0.125-0.07297-0.005-0.17323,0.05034-0.25,0.15625-0.07676,0.10593-0.22996,0.1932-0.3125,0.1875-0.08253-0.0057-0.1287,0.02054-0.125,0.0625,0.01668,0.18987-0.05856,0.35045-0.15625,0.34375-0.05856-0.004-0.06926-0.07201-0.03125-0.125,0.038-0.052,0.02-0.089-0.032-0.093-0.13488-0.0093-0.37277,0.25388-0.28125,0.3125,0.04213,0.02703,0.04162,0.02389-0.03125,0-0.07287-0.0239-0.183-0.0052-0.25,0.03125-0.06699,0.03641-0.15935,0.0573-0.1875,0.0625-0.02815,0.0051-0.19314,0.03269-0.375,0.0625-0.18185,0.02979-0.30792,0.10557-0.28125,0.15625,0.05351,0.10151-0.17984,0.12971-0.625,0.0625-0.26907-0.04062-0.26663-0.03765-0.125,0.125,0.12299,0.14124,0.13692,0.19797,0.03125,0.34375-0.1723,0.23773-0.30771,0.19991-0.5-0.15625-0.20026-0.37088-0.19392-0.59915,0.03125-0.59375,0.11102,0.0026,0.14142,0.007,0.0625-0.03125-0.1667-0.0807-0.45734,0.11458-0.40625,0.28125,0.02222,0.07246,0.0087,0.16798-0.03125,0.1875-0.03991,0.01942-0.03908,0.01204,0.03125,0,0.07034-0.01209,0.1306,0.04372,0.125,0.125-0.0056,0.08127,0.06044,0.15185,0.125,0.15625,0.11527,0.0079,0.0083,0.13879-0.125,0.15625-0.29688,0.03888-0.50944,0.14144-0.46875,0.21875,0.02691,0.05113-0.04692,0.10125-0.15625,0.09375-0.10933-0.0076-0.2255,0.03429-0.25,0.09375-0.02449,0.05946-0.28222,0.15919-0.5625,0.21875l-0.5,0.09375h0.65625c0.76135-0.0093,2.25-0.28751,2.1875-0.40625-0.02358-0.04479,0.11684-0.13232,0.28125-0.1875,0.32892-0.11039,0.73883-0.44864,0.71875-0.59375-0.007-0.0508,0.05844-0.1175,0.15625-0.125,0.09782-0.0075,0.1903,0.0224,0.1875,0.0625-0.008,0.1155-0.56326,0.53614-0.90625,0.6875-0.17203,0.07593-0.2764,0.14995-0.21875,0.15625,0.1683,0.01811,1.8119-0.7026,2.5-1.0938,1.4459-0.82205,3.6094-3.0147,3.5625-3.625l-0.032-0.281zm-0.781,0.531c-0.02752-0.0028-0.05496,0.01702-0.09375,0.03125-0.05172,0.01897-0.12034,0.07666-0.1875,0.125-0.08442,0.06078-0.15832,0.06478-0.1875,0.03125-0.02919-0.03354-0.11114,0.04208-0.15625,0.15625-0.0451,0.11416-0.18424,0.29759-0.3125,0.40625-0.12826,0.10862-0.14864,0.16459-0.0625,0.125,0.1007-0.04628,0.07047-0.007-0.0625,0.125-0.11373,0.11291-0.27259,0.22375-0.34375,0.21875-0.07116-0.0049-0.14302,0.03177-0.1875,0.09375-0.07845,0.10932-0.05607,0.10064,0.4375-0.0625,0.19575-0.0647,0.13721,0.16133-0.125,0.5-0.18496,0.23889-0.14946,0.23552,0.15625-0.0625,0.21307-0.20773,0.39995-0.43946,0.40625-0.5,0.01626-0.15708,0.36441-0.75962,0.53125-0.90625,0.11657-0.10245,0.13783-0.06122,0.125,0.125-0.01987,0.28748,0.10009,0.16096,0.15625-0.15625,0.02562-0.14472-0.01119-0.2417-0.09375-0.25zm-17.344,0.219c0.40372,0.58179,0.74163,1.0276,0.75,0.90625,0.00279-0.0418,0.11661,0.06594,0.25,0.25,0.13331,0.18388,0.25146,0.30196,0.28125,0.28125,0.030646-0.02669,0.00167-0.12957-0.0625-0.21875-0.072777-0.10112-0.066712-0.1297,0-0.125,0.058858,0.0041,0.1294,0.04269,0.15625,0.09375,0.0269,0.051,0.1851,0.122,0.3438,0.157,0.1766,0.038,0.246,0.004,0.2812-0.094-0.4609-0.142-0.9316-0.352-1.3437-0.656,0.0417,0.093,0.0736,0.209,0.0625,0.218-0.0498,0.044-0.1994-0.198-0.375-0.5-0.1209-0.107-0.235-0.194-0.3438-0.312zm10.031,3.8125c-0.05862-0.004-0.06162,0.03604-0.03125,0.09375,0.03039,0.05772,0.06935,0.1234,0.09375,0.125,0.0244,0.0017,0.0587-0.06966,0.0625-0.125s-0.06641-0.08965-0.125-0.09375zm-5.0932,0.094c-0.019487,0.01114,0.032372,0.01756,0.125,0.0625,0.37422,0.18157,1.6271,0.51691,2.4062,0.625,0.41307,0.05682,0.68864,0.06634,0.59375,0.03125-0.09487-0.0351-0.1904-0.11517-0.1875-0.15625,0.0028-0.04107-0.36666-0.11008-0.84375-0.15625-0.4766-0.046-1.02-0.131-1.187-0.218-0.167-0.088-0.4626-0.174-0.6562-0.188-0.15154-0.01126-0.23051-0.01114-0.25,0z"/>

  <path id="path136249" d="M5.7825,19.864c-1.1993-0.273-2.4164-1.199-3.0674-2.334-0.2174-0.379-0.5808-1.339-0.5277-1.394,0.01303-0.01345,0.1424,0.07583,0.28759,0.19853,0.93301,0.7882,2.0001,1.223,3.002,1.2233,0.7469,0.000188,1.2777-0.169,1.6964-0.5408,0.16585-0.14724,0.33384-0.3877,0.33384-0.47785,0-0.01429-0.32238-0.22383-0.7164-0.46575l-0.7164-0.43984,1.1531-0.58262c0.63423-0.32044,2.4356-1.2371,4.0032-2.037,1.5675-0.79988,2.8598-1.4442,2.8718-1.4317,0.01697,0.01754-1.9095,7.9913-1.9922,8.2461-0.01233,0.03781-0.30262-0.13179-0.77298-0.45147l-0.75333-0.51199-0.48783,0.23673c-0.78467,0.38077-1.6675,0.66557-2.4327,0.78474-0.45562,0.071-1.5284,0.0585-1.8809-0.02184z" sodipodi:nodetypes="cscccssccssccscsccc" inkscape:connector-curvature="0" stroke="#FFF" stroke-miterlimit="4" stroke-dasharray="none" stroke-width="0.5765785" fill="#0da7ae"/>

  <path id="path136249-4" d="M16.751,10.673c1.034-0.918,1.786-2.384,2.006-3.9117,0.165-1.1458-0.193-2.194-0.969-2.836-0.193-0.1598-0.34-0.2906-0.326-0.2906,0.08172,0,1.0744,0.43133,1.4153,0.615,0.48404,0.26075,1.2154,0.84161,1.4965,1.1885,0.48305,0.59623,0.79019,1.2469,0.95205,2.017,0.15776,0.75069,0.16632,0.72622-0.43551,1.2472-0.87424,0.75685-2.0054,1.4437-3.0013,1.8224-0.49175,0.18699-1.2019,0.3977-1.3403,0.3977-0.04412,0,0.04495-0.11008,0.20173-0.24926z" sodipodi:nodetypes="cscssccsssc" inkscape:connector-curvature="0" stroke="#FFF" stroke-miterlimit="4" stroke-dasharray="none" stroke-width="0.6638872" fill="#0da7ae"/>

 </g>
</svg>
