<svg width="12" height="13" viewBox="0 0 12 13" fill="none" xmlns="http://www.w3.org/2000/svg">
<path fill-rule="evenodd" clip-rule="evenodd" d="M2.20711 1.29289C1.81658 0.902369 1.18342 0.902369 0.792893 1.29289C0.402369 1.68342 0.402369 2.31658 0.792893 2.70711L4.58579 6.5L0.792893 10.2929C0.402369 10.6834 0.402369 11.3166 0.792893 11.7071C1.18342 12.0976 1.81658 12.0976 2.20711 11.7071L6 7.91421L9.79289 11.7071C10.1834 12.0976 10.8166 12.0976 11.2071 11.7071C11.5976 11.3166 11.5976 10.6834 11.2071 10.2929L7.41421 6.5L11.2071 2.70711C11.5976 2.31658 11.5976 1.68342 11.2071 1.29289C10.8166 0.902369 10.1834 0.902369 9.79289 1.29289L6 5.08579L2.20711 1.29289Z" fill="#282830"/>
</svg>
