<svg width="22" height="23" viewBox="0 0 22 23" fill="none" xmlns="http://www.w3.org/2000/svg">
<path fill-rule="evenodd" clip-rule="evenodd" d="M4 0.5C4.55228 0.5 5 0.947715 5 1.5V10.5C5 11.0523 4.55228 11.5 4 11.5C3.44772 11.5 3 11.0523 3 10.5V1.5C3 0.947715 3.44772 0.5 4 0.5ZM11 0.5C11.5523 0.5 12 0.947715 12 1.5V6.5H14C14.5523 6.5 15 6.94772 15 7.5C15 8.05228 14.5523 8.5 14 8.5H8C7.44772 8.5 7 8.05228 7 7.5C7 6.94772 7.44772 6.5 8 6.5H10V1.5C10 0.947715 10.4477 0.5 11 0.5ZM18 0.5C18.5523 0.5 19 0.947715 19 1.5V10.5C19 11.0523 18.5523 11.5 18 11.5C17.4477 11.5 17 11.0523 17 10.5V1.5C17 0.947715 17.4477 0.5 18 0.5ZM11 10.5C11.5523 10.5 12 10.9477 12 11.5V21.5C12 22.0523 11.5523 22.5 11 22.5C10.4477 22.5 10 22.0523 10 21.5V11.5C10 10.9477 10.4477 10.5 11 10.5ZM0 14.5C0 13.9477 0.447715 13.5 1 13.5H7C7.55228 13.5 8 13.9477 8 14.5C8 15.0523 7.55228 15.5 7 15.5H5V21.5C5 22.0523 4.55228 22.5 4 22.5C3.44772 22.5 3 22.0523 3 21.5V15.5H1C0.447715 15.5 0 15.0523 0 14.5ZM14 14.5C14 13.9477 14.4477 13.5 15 13.5H21C21.5523 13.5 22 13.9477 22 14.5C22 15.0523 21.5523 15.5 21 15.5H19V21.5C19 22.0523 18.5523 22.5 18 22.5C17.4477 22.5 17 22.0523 17 21.5V15.5H15C14.4477 15.5 14 15.0523 14 14.5Z" fill="#282830"/>
</svg>
