<svg width="20" height="20" viewBox="0 0 16 16" fill="none" xmlns="http://www.w3.org/2000/svg">
<g id="alert icon">
<path id="Vector" d="M7.99968 11.3334C8.18856 11.3334 8.34701 11.2694 8.47501 11.1414C8.60301 11.0134 8.66679 10.8552 8.66634 10.6667C8.6659 10.4783 8.6019 10.32 8.47434 10.192C8.34679 10.064 8.18856 10 7.99968 10C7.81079 10 7.65256 10.064 7.52501 10.192C7.39745 10.32 7.33345 10.4783 7.33301 10.6667C7.33256 10.8552 7.39656 11.0136 7.52501 11.142C7.65345 11.2705 7.81168 11.3343 7.99968 11.3334ZM7.33301 8.66671H8.66634V4.66671H7.33301V8.66671ZM7.99968 14.6667C7.07745 14.6667 6.21079 14.4916 5.39968 14.1414C4.58856 13.7912 3.88301 13.3163 3.28301 12.7167C2.68301 12.1172 2.20812 11.4116 1.85834 10.6C1.50856 9.78849 1.33345 8.92182 1.33301 8.00004C1.33256 7.07826 1.50768 6.2116 1.85834 5.40004C2.20901 4.58849 2.6839 3.88293 3.28301 3.28337C3.88212 2.68382 4.58768 2.20893 5.39968 1.85871C6.21168 1.50849 7.07834 1.33337 7.99968 1.33337C8.92101 1.33337 9.78767 1.50849 10.5997 1.85871C11.4117 2.20893 12.1172 2.68382 12.7163 3.28337C13.3155 3.88293 13.7906 4.58849 14.1417 5.40004C14.4928 6.2116 14.6677 7.07826 14.6663 8.00004C14.665 8.92182 14.4899 9.78849 14.141 10.6C13.7921 11.4116 13.3172 12.1172 12.7163 12.7167C12.1155 13.3163 11.4099 13.7914 10.5997 14.142C9.78945 14.4927 8.92279 14.6676 7.99968 14.6667Z" fill="#e8e8e8"/>
</g>
</svg>
