<svg xmlns="http://www.w3.org/2000/svg" width="20" height="20" viewBox="0 0 20 20">
  <g id="Group_2976" data-name="Group 2976" transform="translate(-321.006 -1180.311)">
    <rect id="Rectangle_7101" data-name="Rectangle 7101" width="20" height="20" transform="translate(321.006 1180.311)" fill="#e8e8e8" opacity="0"/>
    <path id="Icon_awesome-user-alt" data-name="Icon awesome-user-alt" d="M12.99,14.834H1.344A1.846,1.846,0,0,1-.5,12.99v-.448A4.088,4.088,0,0,1,3.583,8.459H5.235l.1.045A4.373,4.373,0,0,0,9,8.5l.1-.046H10.75a4.088,4.088,0,0,1,4.083,4.083v.448A1.846,1.846,0,0,1,12.99,14.834ZM3.583,9.459A3.087,3.087,0,0,0,.5,12.542v.448a.845.845,0,0,0,.844.844H12.99a.845.845,0,0,0,.844-.844v-.448A3.087,3.087,0,0,0,10.75,9.459H9.315a5.371,5.371,0,0,1-4.295,0Zm3.583-.9A4.531,4.531,0,1,1,11.7,4.031,4.537,4.537,0,0,1,7.167,8.563ZM7.167.5A3.531,3.531,0,1,0,10.7,4.031,3.535,3.535,0,0,0,7.167.5Z" transform="translate(325.485 1183.438)" fill="#525252"/>
    <path id="Line_890" data-name="Line 890" d="M0,5.3a.5.5,0,0,1-.5-.5V0A.5.5,0,0,1,0-.5.5.5,0,0,1,.5,0V4.8A.5.5,0,0,1,0,5.3Z" transform="translate(325.153 1187.032)" fill="#525252"/>
    <path id="Line_891" data-name="Line 891" d="M0,5.3a.5.5,0,0,1-.5-.5V0A.5.5,0,0,1,0-.5.5.5,0,0,1,.5,0V4.8A.5.5,0,0,1,0,5.3Z" transform="translate(327.553 1189.432) rotate(90)" fill="#525252"/>
  </g>
</svg>
