<svg width="28" height="28" viewBox="0 0 28 28" fill="none" xmlns="http://www.w3.org/2000/svg">
<g id="BULP" clip-path="url(#clip0_2673_55379)">
<g id="Group 2874">
<path id="Icon ionic-md-bulb" d="M10.1809 24.4887C10.182 24.8185 10.3135 25.1344 10.5467 25.3676C10.7798 25.6008 11.0958 25.7322 11.4255 25.7333H16.9037C17.2335 25.7322 17.5494 25.6008 17.7826 25.3676C18.0157 25.1344 18.1472 24.8185 18.1483 24.4887V23.3687H10.1809V24.4887ZM14.1653 1.82694C11.8711 1.74603 9.63864 2.57931 7.95853 4.14365C6.27841 5.70799 5.28814 7.8754 5.20532 10.1695C5.21649 11.5451 5.57214 12.896 6.23978 14.0987C6.90743 15.3015 7.86579 16.3177 9.02732 17.0547V19.7567C9.04009 20.0849 9.18205 20.3947 9.42226 20.6187C9.66247 20.8426 9.98147 20.9626 10.3097 20.9523H18.0237C18.3523 20.9637 18.6719 20.8441 18.9124 20.6199C19.1528 20.3958 19.2944 20.0853 19.3061 19.7567V17.0547C20.4695 16.3191 21.4296 15.3033 22.0986 14.1004C22.7676 12.8975 23.124 11.5459 23.1351 10.1695C23.0941 9.03273 22.8296 7.91513 22.3566 6.88058C21.8836 5.84604 21.2114 4.91481 20.3784 4.14009C19.5455 3.36537 18.5681 2.76234 17.502 2.36544C16.4359 1.96855 15.3021 1.78556 14.1653 1.82694Z" stroke="#525252"/>
</g>
</g>
<defs>
<clipPath id="clip0_2673_55379">
<rect width="28" height="28" fill="white"/>
</clipPath>
</defs>
</svg>
