<svg width="24" height="24" viewBox="0 0 32 32" fill="none" xmlns="http://www.w3.org/2000/svg">
<g id="CHARTS" clip-path="url(#clip0_2673_55339)">
<g id="Group 2872">
<g id="Group 2867">
<g id="Group 79">
<g id="Layer_2_2_">
<path id="path119" d="M16.1712 15.8336L13.1312 3.40323C10.9205 3.94468 8.89419 5.06578 7.26103 6.65101C5.62787 8.23624 4.44693 10.2283 3.83989 12.4218C3.23285 14.6154 3.22167 16.9311 3.8075 19.1304C4.39334 21.3297 5.555 23.3331 7.17278 24.934C8.79056 26.5349 10.806 27.6755 13.0113 28.2383C15.2166 28.8011 17.5321 28.7656 19.7192 28.1356C21.9062 27.5057 23.8858 26.3039 25.4538 24.6542C27.0219 23.0046 28.1217 20.9666 28.64 18.7504L16.1712 15.8336Z" stroke="#525252"/>
</g>
<path id="path122" d="M17.2031 13.9712L26.0863 7.73123C24.887 6.25931 23.3739 5.07415 21.6575 4.26247C19.9411 3.45079 18.0649 3.03312 16.1663 3.04003C15.6597 3.03938 15.1536 3.07145 14.6511 3.13603L17.2031 13.9712Z" stroke="#525252"/>
<g id="Layer_4_2_">
<path id="path125" d="M18.6208 14.9296L28.8896 17.1696C28.9355 16.7253 28.9568 16.2787 28.9536 15.832C28.9577 13.3287 28.2231 10.8798 26.8416 8.79204L18.6208 14.9296Z" stroke="#525252"/>
</g>
</g>
</g>
</g>
</g>
<defs>
<clipPath id="clip0_2673_55339">
<rect width="32" height="32" fill="white"/>
</clipPath>
</defs>
</svg>
