<svg width="20" height="19" viewBox="0 0 20 19" fill="none" xmlns="http://www.w3.org/2000/svg">
<g id="Group">
<path id="Vector" d="M5 7.167C5 6.45967 5.28099 5.78131 5.78115 5.28115C6.28131 4.78099 6.95967 4.5 7.667 4.5H16.333C16.6832 4.5 17.03 4.56898 17.3536 4.70301C17.6772 4.83704 17.9712 5.03349 18.2189 5.28115C18.4665 5.5288 18.663 5.82281 18.797 6.14638C18.931 6.46996 19 6.81676 19 7.167V15.833C19 16.1832 18.931 16.53 18.797 16.8536C18.663 17.1772 18.4665 17.4712 18.2189 17.7189C17.9712 17.9665 17.6772 18.163 17.3536 18.297C17.03 18.431 16.6832 18.5 16.333 18.5H7.667C7.31676 18.5 6.96996 18.431 6.64638 18.297C6.32281 18.163 6.0288 17.9665 5.78115 17.7189C5.53349 17.4712 5.33704 17.1772 5.20301 16.8536C5.06898 16.53 5 16.1832 5 15.833V7.167Z" stroke="#525252" stroke-linecap="round" stroke-linejoin="round" stroke-width="0.5"/>
<path id="Vector_2" d="M2.012 14.237C1.705 14.0626 1.44965 13.81 1.2719 13.5049C1.09415 13.1998 1.00034 12.8531 1 12.5V2.5C1 1.4 1.9 0.5 3 0.5H13C13.75 0.5 14.158 0.885 14.5 1.5" stroke="#525252" stroke-linecap="round" stroke-linejoin="round" stroke-width="0.5"/>
</g>
</svg>
