<svg xmlns="http://www.w3.org/2000/svg" width="20" height="20" viewBox="0 0 20 20">
  <g id="Group_2919" data-name="Group 2919" transform="translate(-184.341 -1287.945)">
    <rect id="Rectangle_7101" data-name="Rectangle 7101" width="20" height="20" transform="translate(184.341 1287.945)" fill="#e8e8e8" opacity="0"/>
    <path id="Path_6383" data-name="Path 6383" d="M165.951,1279.351v4.213h4.5" transform="translate(30.12 10.839)" fill="none" stroke="#5925dc" />
    <g id="Rectangle_6914" data-name="Rectangle 6914" transform="translate(190 1297.537)" fill="none" stroke="#5925dc" >
      <rect width="13" height="6" rx="1" stroke="none"/>
      <rect x="0.2" y="0.2" width="12.6" height="5.6" rx="0.8" fill="none"/>
    </g>
    <path id="Path_6390" data-name="Path 6390" d="M1.584.036A1.433,1.433,0,0,1,.858-.142,1.188,1.188,0,0,1,.382-.648a1.671,1.671,0,0,1-.166-.764,1.658,1.658,0,0,1,.166-.762,1.19,1.19,0,0,1,.476-.5,1.433,1.433,0,0,1,.726-.178,1.614,1.614,0,0,1,.536.088,1.188,1.188,0,0,1,.424.248l-.172.376a1.413,1.413,0,0,0-.38-.222,1.137,1.137,0,0,0-.4-.07.777.777,0,0,0-.63.264,1.151,1.151,0,0,0-.222.76,1.158,1.158,0,0,0,.222.764.777.777,0,0,0,.63.264,1.137,1.137,0,0,0,.4-.07,1.413,1.413,0,0,0,.38-.222L2.544-.3a1.188,1.188,0,0,1-.424.248A1.614,1.614,0,0,1,1.584.036Zm2.336,0a2.044,2.044,0,0,1-.608-.088A1.409,1.409,0,0,1,2.832-.3L3-.676a1.411,1.411,0,0,0,.43.228,1.606,1.606,0,0,0,.49.072.83.83,0,0,0,.45-.1.322.322,0,0,0,.158-.286.267.267,0,0,0-.146-.244,1.866,1.866,0,0,0-.486-.16,2.879,2.879,0,0,1-.572-.176A.808.808,0,0,1,3-1.6.662.662,0,0,1,2.884-2,.76.76,0,0,1,3.02-2.44.9.9,0,0,1,3.4-2.746a1.4,1.4,0,0,1,.572-.11,1.76,1.76,0,0,1,.564.09,1.226,1.226,0,0,1,.44.246l-.172.376a1.3,1.3,0,0,0-.832-.3.741.741,0,0,0-.43.11.352.352,0,0,0-.158.306.281.281,0,0,0,.14.252A1.641,1.641,0,0,0,4-1.612a3.2,3.2,0,0,1,.578.178.857.857,0,0,1,.34.25A.608.608,0,0,1,5.04-.8a.747.747,0,0,1-.134.442.844.844,0,0,1-.388.292A1.6,1.6,0,0,1,3.92.036ZM8.056-2.82,6.8,0H6.38L5.124-2.82h.532L6.592-.64l.94-2.18Z" transform="translate(192.5 1302.037)" fill="#5925dc"/>
    <path id="Path_6386" data-name="Path 6386" d="M149.6,1292.893V1295H137.35v-15.458h8.227l4.025,4.114v2.667" transform="translate(51 10.7)" fill="none" stroke="#5925dc"/>
  </g>
</svg>
