<svg width="25" height="24" viewBox="0 0 25 24" fill="none" xmlns="http://www.w3.org/2000/svg">
<g id="right diagonal arrow">
<path id="Vector" d="M6.95221 16.95C6.95221 17.2152 7.05757 17.4696 7.2451 17.6571C7.43264 17.8446 7.68699 17.95 7.95221 17.95L15.9522 18C16.2174 18 16.4718 17.8946 16.6593 17.7071C16.8469 17.5196 16.9522 17.2652 16.9522 17C16.9522 16.7348 16.8469 16.4804 16.6593 16.2929C16.4718 16.1054 16.2174 16 15.9522 16H10.3922L18.6622 7.71C18.7559 7.61704 18.8303 7.50644 18.8811 7.38458C18.9319 7.26272 18.958 7.13201 18.958 7C18.958 6.86799 18.9319 6.73728 18.8811 6.61542C18.8303 6.49356 18.7559 6.38296 18.6622 6.29C18.5692 6.19627 18.4586 6.12188 18.3368 6.07111C18.2149 6.02034 18.0842 5.9942 17.9522 5.9942C17.8202 5.9942 17.6895 6.02034 17.5676 6.07111C17.4458 6.12188 17.3352 6.19627 17.2422 6.29L8.95221 14.58V9C8.95221 8.73478 8.84685 8.48043 8.65932 8.29289C8.47178 8.10536 8.21743 8 7.95221 8C7.68699 8 7.43264 8.10536 7.2451 8.29289C7.05757 8.48043 6.95221 8.73478 6.95221 9V16.95Z" fill="#525252"/>
</g>
</svg>
