<svg width="24" height="24" viewBox="0 0 32 32" fill="none" xmlns="http://www.w3.org/2000/svg">
<g id="DATA BASE" clip-path="url(#clip0_2673_55330)">
<g id="Group 2871">
<g id="Icon feather-database">
<path id="Path 6350" d="M26.8649 7.85117C26.8649 10.0912 22.4025 11.9136 16.8985 11.9136C11.3945 11.9136 6.93213 10.0944 6.93213 7.85117C6.93213 5.60797 11.3945 3.78877 16.8985 3.78877C22.4025 3.78877 26.8649 5.60797 26.8649 7.85117Z" stroke="#525252"  stroke-linecap="round" stroke-linejoin="round"/>
<path id="Path 6351" d="M26.8649 15.7648C26.8649 18.0048 22.4361 19.8272 16.8985 19.8272C11.3609 19.8272 6.93213 18.0048 6.93213 15.7648" stroke="#525252"  stroke-linecap="round" stroke-linejoin="round"/>
<path id="Path 6352" d="M6.93213 7.85118V24.6176C6.93213 26.6064 11.3609 28.2112 16.8985 28.2112C22.4361 28.2112 26.8649 26.6112 26.8649 24.6176V7.85118" stroke="#525252" stroke-linecap="round" stroke-linejoin="round"/>
</g>
</g>
</g>
<defs>
<clipPath id="clip0_2673_55330">
<rect width="32" height="32" fill="white" transform="translate(-0.0419922)"/>
</clipPath>
</defs>
</svg>
