<svg xmlns="http://www.w3.org/2000/svg" width="20" height="20" viewBox="0 0 20 20">
  <g id="Group_2906" data-name="Group 2906" transform="translate(-885.324 -1151.5)">
    <g id="Group_2899" data-name="Group 2899">
      <rect id="Rectangle_7101" data-name="Rectangle 7101" width="20" height="20" transform="translate(885.324 1151.5)" fill="#e8e8e8" opacity="0"/>
      <path id="Icon_material-delete-forever" data-name="Icon material-delete-forever" d="M8.37,17.37a1.683,1.683,0,0,0,1.741,1.609h6.962a1.683,1.683,0,0,0,1.741-1.609V7.717H8.37Zm2.141-5.727,1.227-1.134,1.854,1.705,1.845-1.705,1.227,1.134-1.845,1.705,1.845,1.705-1.227,1.134-1.845-1.705-1.845,1.705L10.52,15.053l1.845-1.705ZM16.638,5.3l-.87-.8H11.416l-.87.8H7.5V6.913H19.684V5.3Z" transform="translate(881.732 1149.761)" fill="none" stroke="#5925dc" stroke-width="0.5"/>
    </g>
  </g>
</svg>
