<svg xmlns="http://www.w3.org/2000/svg" width="20" height="20" viewBox="0 0 20 20">
  <g id="Group_2910" data-name="Group 2910" transform="translate(-178.524 -1462.945)">
    <rect id="Rectangle_7101" data-name="Rectangle 7101" width="20" height="20" transform="translate(178.524 1462.945)" fill="#e8e8e8" opacity="0"/>
    <g id="Icon_feather-database" data-name="Icon feather-database" transform="translate(177.377 1461.801)">
      <path id="Path_6350" data-name="Path 6350" d="M17.794,5.71c0,1.5-2.976,2.71-6.647,2.71S4.5,7.206,4.5,5.71,7.476,3,11.147,3,17.794,4.213,17.794,5.71Z" transform="translate(0 0)" fill="none" stroke="#5925dc" stroke-linecap="round" stroke-linejoin="round" />
      <path id="Path_6351" data-name="Path 6351" d="M17.794,18c0,1.69-2.954,3.054-6.647,3.054S4.5,19.69,4.5,18" transform="translate(0 -9.146)" fill="none" stroke="#5925dc" stroke-linecap="round" stroke-linejoin="round" />
      <path id="Path_6391" data-name="Path 6391" d="M17.794,18c0,1.322-2.954,2.389-6.647,2.389S4.5,19.322,4.5,18" transform="translate(0 -4.878)" fill="none" stroke="#5925dc" stroke-linecap="round" stroke-linejoin="round" />
      <path id="Path_6352" data-name="Path 6352" d="M4.5,7.5V18.683c0,1.326,2.954,2.4,6.647,2.4s6.647-1.07,6.647-2.4V7.5" transform="translate(0 -1.79)" fill="none" stroke="#5925dc" stroke-linecap="round" stroke-linejoin="round" />
    </g>
  </g>
</svg>