<svg width="24" height="25" viewBox="0 0 24 25" fill="none" xmlns="http://www.w3.org/2000/svg">
<g id="ph:laptop-thin">
<path id="Vector" d="M21.75 16.625H20.625V7.25C20.625 6.75272 20.4275 6.27581 20.0758 5.92417C19.7242 5.57254 19.2473 5.375 18.75 5.375H5.25C4.75272 5.375 4.27581 5.57254 3.92417 5.92417C3.57254 6.27581 3.375 6.75272 3.375 7.25V16.625H2.25C2.15054 16.625 2.05516 16.6645 1.98484 16.7348C1.91451 16.8052 1.875 16.9005 1.875 17V18.5C1.875 18.9973 2.07254 19.4742 2.42417 19.8258C2.77581 20.1775 3.25272 20.375 3.75 20.375H20.25C20.7473 20.375 21.2242 20.1775 21.5758 19.8258C21.9275 19.4742 22.125 18.9973 22.125 18.5V17C22.125 16.9005 22.0855 16.8052 22.0152 16.7348C21.9448 16.6645 21.8495 16.625 21.75 16.625ZM4.125 7.25C4.125 6.95163 4.24353 6.66548 4.4545 6.4545C4.66548 6.24353 4.95163 6.125 5.25 6.125H18.75C19.0484 6.125 19.3345 6.24353 19.5455 6.4545C19.7565 6.66548 19.875 6.95163 19.875 7.25V16.625H4.125V7.25ZM21.375 18.5C21.375 18.7984 21.2565 19.0845 21.0455 19.2955C20.8345 19.5065 20.5484 19.625 20.25 19.625H3.75C3.45163 19.625 3.16548 19.5065 2.9545 19.2955C2.74353 19.0845 2.625 18.7984 2.625 18.5V17.375H21.375V18.5ZM13.875 8.75C13.875 8.84946 13.8355 8.94484 13.7652 9.01517C13.6948 9.08549 13.5995 9.125 13.5 9.125H10.5C10.4005 9.125 10.3052 9.08549 10.2348 9.01517C10.1645 8.94484 10.125 8.84946 10.125 8.75C10.125 8.65054 10.1645 8.55516 10.2348 8.48483C10.3052 8.41451 10.4005 8.375 10.5 8.375H13.5C13.5995 8.375 13.6948 8.41451 13.7652 8.48483C13.8355 8.55516 13.875 8.65054 13.875 8.75Z" fill="#525252"/>
</g>
</svg>
