<svg xmlns="http://www.w3.org/2000/svg" width="20" height="20" viewBox="0 0 20 20">
  <g id="Group_2909" data-name="Group 2909" transform="translate(-180.328 -1406.945)">
    <rect id="Rectangle_7101" data-name="Rectangle 7101" width="20" height="20" transform="translate(180.328 1406.945)" fill="#e8e8e8" opacity="0"/>
    <path id="Icon_ionic-ios-settings" d="M35.541,21.925a.914.914,0,0,1,.555-.833,3.929,3.929,0,0,0-.417-1.018.872.872,0,0,1-.37.093.851.851,0,0,1-.879-.879,1.09,1.09,0,0,1,.093-.37A3.929,3.929,0,0,0,33.5,18.5a.888.888,0,0,1-1.157.509.917.917,0,0,1-.509-.509,3.929,3.929,0,0,0-1.018.417.926.926,0,0,1-.833,1.25,1.089,1.089,0,0,1-.37-.093,3.929,3.929,0,0,0-.417,1.018.888.888,0,0,1,.509,1.157.917.917,0,0,1-.509.509,3.929,3.929,0,0,0,.417,1.018.867.867,0,0,1,1.157.463.9.9,0,0,1,0,.694,3.929,3.929,0,0,0,1.018.417.888.888,0,0,1,1.157-.509.917.917,0,0,1,.509.509,3.929,3.929,0,0,0,1.018-.417.867.867,0,0,1,.463-1.157.9.9,0,0,1,.694,0,3.929,3.929,0,0,0,.417-1.018A.954.954,0,0,1,35.541,21.925Zm-2.87,1.435a1.435,1.435,0,1,1,1.435-1.435h0a1.442,1.442,0,0,1-1.435,1.435Z" transform="translate(158.126 1397.522)" fill="none" stroke="#5925dc" stroke-width="0.4"/>
    <path id="Subtraction_248" data-name="Subtraction 248" d="M60.214,29.871a15.907,15.907,0,0,1-5.014-.718c-1.418-.491-2.2-1.181-2.2-1.94V15.973c0-.838.781-1.6,2.2-2.158a15.831,15.831,0,0,1,10.031,0c1.418.555,2.2,1.321,2.2,2.158V27.212c0,.76-.781,1.449-2.2,1.94A15.911,15.911,0,0,1,60.214,29.871ZM53.5,24.544v2.668c0,.523.679,1.058,1.863,1.468a17.368,17.368,0,0,0,9.7,0c1.184-.409,1.863-.944,1.863-1.468V24.545a4.628,4.628,0,0,1-1.689,1.038,9.791,9.791,0,0,1-1.085.349,4.509,4.509,0,0,0,.28-.6c1.539-.474,2.494-1.205,2.494-1.91V21.2a4.794,4.794,0,0,1-1.7.9c-.227.076-.471.148-.724.213a4.5,4.5,0,0,0-.184-.469c.259-.065.511-.138.749-.218,1.165-.392,1.86-.922,1.86-1.417V17.09a4.666,4.666,0,0,1-1.7,1.041,15.831,15.831,0,0,1-10.031,0,4.657,4.657,0,0,1-1.7-1.041v3.116c0,.495.7,1.024,1.861,1.417.233.078.485.152.749.218a4.5,4.5,0,0,0-.184.469c-.258-.066-.5-.138-.724-.213a4.8,4.8,0,0,1-1.7-.9v2.226c0,.7.956,1.437,2.5,1.91a4.507,4.507,0,0,0,.28.6,9.8,9.8,0,0,1-1.085-.349A4.623,4.623,0,0,1,53.5,24.544ZM60.214,13.5c-4.016,0-6.714,1.279-6.714,2.473s2.7,2.473,6.714,2.473,6.714-1.279,6.714-2.473S64.23,13.5,60.214,13.5Z" transform="translate(130.561 1395.574)" fill="#5925dc"/>
  </g>
</svg>
