<svg width="12" height="14" viewBox="0 0 19 22" fill="none" xmlns="http://www.w3.org/2000/svg">
<g id="Group">
<path id="Vector" d="M13.035 1.015C13.5735 0.476401 14.2966 0.16276 15.0578 0.13769C15.819 0.11262 16.5612 0.377999 17.134 0.880004L17.278 1.015L17.985 1.722C18.5233 2.26043 18.8368 2.98338 18.8618 3.74434C18.8869 4.5053 18.6217 5.24732 18.12 5.82L17.985 5.964L6.77299 17.177C6.61446 17.3355 6.42242 17.4565 6.21099 17.531L6.04899 17.578L1.59499 18.606C1.43893 18.6423 1.27643 18.6406 1.12118 18.6009C0.965929 18.5613 0.822473 18.485 0.702891 18.3783C0.58331 18.2717 0.491105 18.1379 0.43404 17.9881C0.376976 17.8384 0.356723 17.6772 0.374988 17.518L0.394988 17.405L1.42199 12.95C1.47272 12.7315 1.57182 12.5271 1.71199 12.352L1.82299 12.227L13.035 1.015ZM12.328 4.55L3.33799 13.54L2.70199 16.298L5.45999 15.661L14.45 6.671L12.328 4.55ZM15.864 2.429C15.6918 2.25683 15.4627 2.1534 15.2197 2.13811C14.9766 2.12283 14.7364 2.19675 14.544 2.346L14.45 2.429L13.742 3.136L15.864 5.257L16.571 4.55C16.7432 4.37781 16.8466 4.14871 16.8619 3.90568C16.8772 3.66266 16.8032 3.42241 16.654 3.23L16.571 3.136L15.864 2.429Z" fill="#525252"/>
</g>
</svg>
