<svg xmlns="http://www.w3.org/2000/svg" width="24" height="24" viewBox="0 0 26.247 25.099">
  <g id="Group_2942" data-name="Group 2942" transform="translate(-23.308 -61.067)">
    <rect id="Rectangle_6923" data-name="Rectangle 6923" width="24" height="24" transform="translate(23.308 62.167)" fill="#dbdbdb" opacity="0"/>
    <rect id="Rectangle_5687" data-name="Rectangle 5687" width="24.831" height="24.199" transform="translate(24.724 61.067)" fill="none"/>
    <path id="Icon_metro-suitcase" data-name="Icon metro-suitcase" d="M23.883,25.918H6.049a2.3,2.3,0,0,1-2.3-2.3V10.436a2.3,2.3,0,0,1,2.3-2.3h3.9v-.8a2.3,2.3,0,0,1,2.3-2.3H17.68a2.3,2.3,0,0,1,2.3,2.3v.8h3.9a2.3,2.3,0,0,1,2.3,2.3V23.617A2.3,2.3,0,0,1,23.883,25.918ZM5.249,15.51v8.107a.8.8,0,0,0,.8.8H23.883a.8.8,0,0,0,.8-.8v-8.1c-.534.25-1.209.554-1.9.829a36.24,36.24,0,0,1-4.353,1.493v.355A1.527,1.527,0,0,1,16.9,19.715H13.028A1.527,1.527,0,0,1,11.5,18.19v-.354A38.914,38.914,0,0,1,5.249,15.51Zm8.554,1.1a.025.025,0,0,0-.025.025v.775a.025.025,0,0,0,.025.025h2.326a.025.025,0,0,0,.025-.025v-.775a.025.025,0,0,0-.025-.025ZM5.249,13.078a39.735,39.735,0,0,0,6.278,2.515,1.528,1.528,0,0,1,1.5-1.255H16.9a1.528,1.528,0,0,1,1.5,1.255,39.756,39.756,0,0,0,6.278-2.515V10.436a.8.8,0,0,0-.8-.8h-5.4v-2.3a.8.8,0,0,0-.8-.8H12.252a.8.8,0,0,0-.8.8v2.3h-5.4a.8.8,0,0,0-.8.8ZM18.43,8.11Z" transform="translate(20.342 58.69)" fill="#525252"/>
  </g>
</svg>
