<svg xmlns="http://www.w3.org/2000/svg" width="10.826" height="10.826" viewBox="0 0 10.826 10.826">
  <path id="Icon_awesome-layer-group" data-name="Icon awesome-layer-group" d="M.262,3.13,5.188,5.364a.541.541,0,0,0,.45,0L10.563,3.13a.472.472,0,0,0,0-.846L5.638.048a.541.541,0,0,0-.45,0L.262,2.283a.473.473,0,0,0,0,.847ZM10.564,5,9.335,4.439,5.918,5.989a1.219,1.219,0,0,1-1.009,0L1.491,4.439.262,5a.472.472,0,0,0,0,.846L5.188,8.075a.543.543,0,0,0,.45,0l4.926-2.233a.472.472,0,0,0,0-.846Zm0,2.7L9.34,7.144,5.918,8.7a1.219,1.219,0,0,1-1.009,0L1.486,7.144.262,7.7a.472.472,0,0,0,0,.846l4.926,2.233a.543.543,0,0,0,.45,0l4.926-2.233A.472.472,0,0,0,10.564,7.7Z" transform="translate(0 0.001)" fill="#434344"/>
</svg>
