<svg xmlns="http://www.w3.org/2000/svg" width="20" height="20" viewBox="0 0 20 20">
  <g id="Group_2913" data-name="Group 2913" transform="translate(-182.171 -1644.11)">
    <g id="Group_2907" data-name="Group 2907">
      <rect id="Rectangle_7101" data-name="Rectangle 7101" width="20" height="20" transform="translate(182.171 1644.11)" fill="#e8e8e8" opacity="0"/>
      <g id="Icon_feather-database" data-name="Icon feather-database" transform="translate(189.455 1646.831)">
        <path id="Path_6350" data-name="Path 6350" d="M9.932,4.107c0,.611-1.216,1.107-2.716,1.107S4.5,4.719,4.5,4.107,5.716,3,7.216,3,9.932,3.5,9.932,4.107Z" transform="translate(-4.5 -3)" fill="none" stroke="#5925dc" stroke-linecap="round" stroke-linejoin="round" />
        <path id="Path_6351" data-name="Path 6351" d="M9.932,18c0,.69-1.207,1.248-2.716,1.248S4.5,18.69,4.5,18" transform="translate(-4.5 -15.608)" fill="none" stroke="#5925dc" stroke-linecap="round" stroke-linejoin="round" />
        <path id="Path_6391" data-name="Path 6391" d="M9.932,18c0,.54-1.207.976-2.716.976S4.5,18.54,4.5,18" transform="translate(-4.5 -13.864)" fill="none" stroke="#5925dc" stroke-linecap="round" stroke-linejoin="round" />
        <path id="Path_6352" data-name="Path 6352" d="M4.5,7.5v4.57c0,.542,1.207.979,2.716.979s2.716-.437,2.716-.979V7.5" transform="translate(-4.5 -6.393)" fill="none" stroke="#5925dc" stroke-linecap="round" stroke-linejoin="round" />
      </g>
      <g id="Icon_feather-database-2" data-name="Icon feather-database" transform="translate(183.768 1654.733)">
        <path id="Path_6350-2" data-name="Path 6350" d="M9.932,4.107c0,.611-1.216,1.107-2.716,1.107S4.5,4.719,4.5,4.107,5.716,3,7.216,3,9.932,3.5,9.932,4.107Z" transform="translate(-4.5 -3)" fill="none" stroke="#5925dc" stroke-linecap="round" stroke-linejoin="round" />
        <path id="Path_6351-2" data-name="Path 6351" d="M9.932,18c0,.69-1.207,1.248-2.716,1.248S4.5,18.69,4.5,18" transform="translate(-4.5 -15.608)" fill="none" stroke="#5925dc" stroke-linecap="round" stroke-linejoin="round" />
        <path id="Path_6391-2" data-name="Path 6391" d="M9.932,18c0,.54-1.207.976-2.716.976S4.5,18.54,4.5,18" transform="translate(-4.5 -13.864)" fill="none" stroke="#5925dc" stroke-linecap="round" stroke-linejoin="round" />
        <path id="Path_6352-2" data-name="Path 6352" d="M4.5,7.5v4.57c0,.542,1.207.979,2.716.979s2.716-.437,2.716-.979V7.5" transform="translate(-4.5 -6.393)" fill="none" stroke="#5925dc" stroke-linecap="round" stroke-linejoin="round" />
      </g>
      <g id="Icon_feather-database-3" data-name="Icon feather-database" transform="translate(195.142 1654.733)">
        <path id="Path_6350-3" data-name="Path 6350" d="M9.932,4.107c0,.611-1.216,1.107-2.716,1.107S4.5,4.719,4.5,4.107,5.716,3,7.216,3,9.932,3.5,9.932,4.107Z" transform="translate(-4.5 -3)" fill="none" stroke="#5925dc" stroke-linecap="round" stroke-linejoin="round" />
        <path id="Path_6351-3" data-name="Path 6351" d="M9.932,18c0,.69-1.207,1.248-2.716,1.248S4.5,18.69,4.5,18" transform="translate(-4.5 -15.608)" fill="none" stroke="#5925dc" stroke-linecap="round" stroke-linejoin="round" />
        <path id="Path_6391-3" data-name="Path 6391" d="M9.932,18c0,.54-1.207.976-2.716.976S4.5,18.54,4.5,18" transform="translate(-4.5 -13.864)" fill="none" stroke="#5925dc" stroke-linecap="round" stroke-linejoin="round" />
        <path id="Path_6352-3" data-name="Path 6352" d="M4.5,7.5v4.57c0,.542,1.207.979,2.716.979s2.716-.437,2.716-.979V7.5" transform="translate(-4.5 -6.393)" fill="none" stroke="#5925dc" stroke-linecap="round" stroke-linejoin="round" />
      </g>
      <path id="Path_6396" data-name="Path 6396" d="M139.171,1641.11v2.763l-2.474,1.364" transform="translate(53 13)" fill="none" stroke="#5925dc" />
      <path id="Path_6397" data-name="Path 6397" d="M139.184,1643.863l2.275,1.475" transform="translate(53 13)" fill="none" stroke="#5925dc" />
    </g>
  </g>
</svg>
