<svg width="20" height="20" viewBox="0 0 20 20" fill="none" xmlns="http://www.w3.org/2000/svg">
<g id="menu icon">
<path id="Vector" d="M8.75 5C8.75 4.82625 8.75 4.73875 8.76 4.66625C8.792 4.43755 8.89765 4.22549 9.06095 4.0622C9.22424 3.8989 9.43629 3.79326 9.665 3.76125C9.73875 3.75125 9.825 3.75125 9.99875 3.75125C10.1725 3.75125 10.2612 3.75125 10.3325 3.76125C10.5612 3.79326 10.7733 3.8989 10.9366 4.0622C11.0998 4.22549 11.2055 4.43755 11.2375 4.66625C11.2475 4.73875 11.2475 4.82625 11.2475 5C11.2475 5.17375 11.2475 5.26125 11.2375 5.33375C11.2055 5.56246 11.0998 5.77451 10.9366 5.9378C10.7733 6.1011 10.5612 6.20675 10.3325 6.23875C10.26 6.24875 10.1725 6.24875 9.99875 6.24875C9.825 6.24875 9.7375 6.24875 9.665 6.23875C9.43629 6.20675 9.22424 6.1011 9.06095 5.9378C8.89765 5.77451 8.792 5.56246 8.76 5.33375C8.75 5.26125 8.75 5.17375 8.75 5ZM8.75 10C8.75 9.82625 8.75 9.73875 8.76 9.66625C8.792 9.43754 8.89765 9.22549 9.06095 9.0622C9.22424 8.8989 9.43629 8.79325 9.665 8.76125C9.73875 8.75125 9.825 8.75125 9.99875 8.75125C10.1725 8.75125 10.2612 8.75125 10.3325 8.76125C10.5612 8.79325 10.7733 8.8989 10.9366 9.0622C11.0998 9.22549 11.2055 9.43754 11.2375 9.66625C11.2475 9.73875 11.2475 9.82625 11.2475 10C11.2475 10.1738 11.2475 10.2613 11.2375 10.3338C11.2055 10.5625 11.0998 10.7745 10.9366 10.9378C10.7733 11.1011 10.5612 11.2067 10.3325 11.2388C10.26 11.2488 10.1725 11.2488 9.99875 11.2488C9.825 11.2488 9.7375 11.2488 9.665 11.2388C9.43629 11.2067 9.22424 11.1011 9.06095 10.9378C8.89765 10.7745 8.792 10.5625 8.76 10.3338C8.75 10.2613 8.75 10.1738 8.75 10ZM8.75 15C8.75 14.8263 8.75 14.7388 8.76 14.6663C8.792 14.4375 8.89765 14.2255 9.06095 14.0622C9.22424 13.8989 9.43629 13.7933 9.665 13.7612C9.73875 13.7512 9.825 13.7513 9.99875 13.7513C10.1725 13.7513 10.2612 13.7512 10.3325 13.7612C10.5612 13.7933 10.7733 13.8989 10.9366 14.0622C11.0998 14.2255 11.2055 14.4375 11.2375 14.6663C11.2475 14.7388 11.2475 14.8263 11.2475 15C11.2475 15.1738 11.2475 15.2613 11.2375 15.335C11.2055 15.5637 11.0998 15.7758 10.9366 15.9391C10.7733 16.1023 10.5612 16.208 10.3325 16.24C10.26 16.25 10.1725 16.25 10 16.25C9.8275 16.25 9.73875 16.25 9.66625 16.24C9.43754 16.208 9.22549 16.1023 9.0622 15.9391C8.8989 15.7758 8.79325 15.5637 8.76125 15.335C8.75 15.2625 8.75 15.175 8.75 15Z" fill="#525252"/>
</g>
</svg>
