<svg width="4" height="15" viewBox="0 0 4 15" fill="none" xmlns="http://www.w3.org/2000/svg">
<g id="Group">
<path id="Vector" d="M3.8147e-05 2.52475C-2.76566e-05 2.72915 0.0401673 2.93157 0.118328 3.12043C0.196489 3.3093 0.311085 3.48093 0.455573 3.62551C0.600061 3.77009 0.771611 3.88479 0.960429 3.96308C1.14925 4.04136 1.35163 4.08168 1.55604 4.08175C1.76044 4.08181 1.96285 4.04162 2.15172 3.96346C2.34059 3.8853 2.51221 3.7707 2.6568 3.62621C2.80138 3.48173 2.91608 3.31018 2.99436 3.12136C3.07265 2.93254 3.11297 2.73015 3.11304 2.52575C3.11317 2.11294 2.94931 1.71699 2.6575 1.42499C2.3657 1.133 1.96985 0.968883 1.55704 0.96875C1.14423 0.968617 0.748274 1.13248 0.45628 1.42428C0.164285 1.71609 0.000170708 2.11194 3.8147e-05 2.52475Z" fill="#7C4DFF"/>
<path id="Vector_2" d="M1.55606 9.42255C0.696707 9.42255 6.19888e-05 8.7259 6.19888e-05 7.86655C6.19888e-05 7.00719 0.696707 6.31055 1.55606 6.31055C2.41542 6.31055 3.11206 7.00719 3.11206 7.86655C3.11206 8.7259 2.41542 9.42255 1.55606 9.42255Z" fill="#7C4DFF"/>
<path id="Vector_3" d="M1.55606 14.7658C0.696707 14.7658 6.19888e-05 14.0692 6.19888e-05 13.2098C6.19888e-05 12.3505 0.696707 11.6538 1.55606 11.6538C2.41542 11.6538 3.11206 12.3505 3.11206 13.2098C3.11206 14.0692 2.41542 14.7658 1.55606 14.7658Z" fill="#7C4DFF"/>
</g>
</svg>
