<svg width="20" height="21" viewBox="0 0 20 21" fill="none" xmlns="http://www.w3.org/2000/svg">
<g id="MOBILE" clip-path="url(#clip0_2673_55387)">
<g id="Group 2877">
<path id="Icon ionic-ios-phone-portrait" d="M13.0469 1.84402H6.98692C6.82118 1.84296 6.65686 1.8747 6.50343 1.9374C6.35 2.00009 6.21049 2.09252 6.09291 2.20935C5.97534 2.32617 5.88204 2.4651 5.81837 2.61813C5.7547 2.77116 5.72192 2.93527 5.72192 3.10102V17.66C5.7218 17.9988 5.85395 18.3243 6.09023 18.5671C6.32651 18.8099 6.64824 18.9509 6.98692 18.96H13.0439C13.3798 18.9509 13.6984 18.8088 13.9297 18.5651C14.161 18.3214 14.2863 17.9959 14.2779 17.66V3.10102C14.2821 2.93701 14.2533 2.77383 14.1932 2.62116C14.1331 2.46848 14.043 2.32942 13.9282 2.2122C13.8134 2.09498 13.6763 2.002 13.5249 1.93876C13.3735 1.87551 13.211 1.8433 13.0469 1.84402ZM9.42792 2.72302H10.5739C10.6145 2.72302 10.6534 2.73914 10.6821 2.76783C10.7108 2.79653 10.7269 2.83544 10.7269 2.87602C10.7269 2.9166 10.7108 2.95551 10.6821 2.98421C10.6534 3.0129 10.6145 3.02902 10.5739 3.02902H9.42892C9.38835 3.02902 9.34943 3.0129 9.32074 2.98421C9.29204 2.95551 9.27592 2.9166 9.27592 2.87602C9.27592 2.83544 9.29204 2.79653 9.32074 2.76783C9.34943 2.73914 9.38735 2.72302 9.42792 2.72302ZM10.0209 18.394C9.8894 18.394 9.76083 18.355 9.65147 18.2819C9.54211 18.2089 9.45688 18.105 9.40654 17.9835C9.35621 17.862 9.34304 17.7283 9.3687 17.5993C9.39436 17.4703 9.4577 17.3518 9.5507 17.2588C9.6437 17.1658 9.76219 17.1025 9.89119 17.0768C10.0202 17.0511 10.1539 17.0643 10.2754 17.1146C10.3969 17.165 10.5008 17.2502 10.5739 17.3596C10.6469 17.4689 10.6859 17.5975 10.6859 17.729C10.6859 17.9054 10.6159 18.0745 10.4911 18.1992C10.3664 18.324 10.1973 18.394 10.0209 18.394ZM13.5969 16.518H6.40992C6.38985 16.5178 6.37067 16.5097 6.35647 16.4955C6.34227 16.4813 6.33418 16.4621 6.33392 16.442V3.86902C6.33418 3.84894 6.34227 3.82976 6.35647 3.81557C6.37067 3.80137 6.38985 3.79328 6.40992 3.79302H13.5969C13.617 3.79328 13.6362 3.80137 13.6504 3.81557C13.6646 3.82976 13.6727 3.84894 13.6729 3.86902V16.441C13.6729 16.4613 13.665 16.4807 13.6507 16.4951C13.6365 16.5095 13.6172 16.5178 13.5969 16.518Z" stroke="#525252" stroke-width="0.5"/>
</g>
</g>
<defs>
<clipPath id="clip0_2673_55387">
<rect width="20" height="20" fill="white" transform="translate(0 0.5)"/>
</clipPath>
</defs>
</svg>
