<svg xmlns="http://www.w3.org/2000/svg" width="23.285" height="20.979" viewBox="0 0 23.285 20.979">
  <path id="Icon_awesome-folder-open" data-name="Icon awesome-folder-open" d="M21.744,13.16l-2.75,4.714a2.43,2.43,0,0,1-2.1,1.206H1.709a.911.911,0,0,1-.787-1.37L3.672,13a2.43,2.43,0,0,1,2.1-1.206H20.957a.911.911,0,0,1,.787,1.37ZM5.771,10.575H18.224V8.752A1.822,1.822,0,0,0,16.4,6.93H10.327L7.9,4.5H1.822A1.822,1.822,0,0,0,0,6.322V16.691H.11l2.513-4.308A3.657,3.657,0,0,1,5.771,10.575Z" transform="translate(0.7 -3.8)" fill="none" stroke="#525252" stroke-linecap="round" stroke-width="1.4" opacity="0.9"/>
</svg>
