<svg width="17" height="16" viewBox="0 0 17 16" fill="none" xmlns="http://www.w3.org/2000/svg">
<g id="upload file" clip-path="url(#clip0_2649_13249)">
<g id="Group 89">
<path id="Subtraction 5" d="M5.07575 15.6846H1.63095C1.27969 15.6841 0.94296 15.5444 0.69458 15.296C0.446199 15.0476 0.306451 14.7109 0.30603 14.3596V1.64037C0.306451 1.28911 0.446199 0.95235 0.69458 0.70397C0.94296 0.45559 1.27969 0.315866 1.63095 0.315445H15.6751C16.0264 0.315796 16.3632 0.455502 16.6116 0.703897C16.86 0.952292 16.9997 1.28908 17.0001 1.64037V14.3596C16.9997 14.7109 16.86 15.0477 16.6116 15.2961C16.3632 15.5445 16.0264 15.6842 15.6751 15.6846H12.2303V13.8917H15.6751V3.13329H1.63095V13.8917H5.07575V15.6846Z" fill="#434344"/>
<path id="Union 3" d="M7.7258 15.4196V9.32491H5.34094L8.65325 5.08516L11.9656 9.32491H9.5807V15.4196H7.7258Z" fill="#434344"/>
</g>
</g>
<defs>
<clipPath id="clip0_2649_13249">
<rect width="16.694" height="15.3691" fill="white" transform="translate(0.30603 0.315445)"/>
</clipPath>
</defs>
</svg>
