<svg width="26" height="18" viewBox="0 0 26 18" fill="none" xmlns="http://www.w3.org/2000/svg">
<path id="Icon awesome-cloud-upload-alt" d="M21.4144 7.88036C21.627 7.32677 21.7018 6.72979 21.6324 6.14085C21.5629 5.55192 21.3513 4.98869 21.0158 4.49973C20.6803 4.01076 20.2309 3.61072 19.7064 3.33407C19.1818 3.05743 18.5979 2.91248 18.0049 2.91172C17.2826 2.91115 16.5765 3.1258 15.9767 3.5283C15.3077 2.36662 14.2741 1.45819 13.0361 0.943951C11.7981 0.429714 10.425 0.338412 9.12978 0.684211C7.8346 1.03001 6.68974 1.79358 5.87282 2.85646C5.0559 3.91933 4.61258 5.2221 4.61164 6.56265C4.61164 6.66551 4.61542 6.76808 4.6192 6.87094C3.39906 7.3004 2.37013 8.14756 1.71442 9.26256C1.05871 10.3776 0.818487 11.6885 1.03624 12.9636C1.25399 14.2386 1.91568 15.3956 2.90426 16.2298C3.89285 17.064 5.14461 17.5217 6.43812 17.5218H20.4415C21.6476 17.5204 22.8102 17.0715 23.7042 16.262C24.5983 15.4526 25.1603 14.3403 25.2814 13.1404C25.4024 11.9404 25.074 10.7382 24.3596 9.76653C23.6453 8.79483 22.5958 8.12274 21.4144 7.88036ZM15.9285 10.2168H13.4398V14.4788C13.4398 14.6406 13.3755 14.7958 13.2611 14.9102C13.1467 15.0247 12.9915 15.089 12.8297 15.089H11.0046C10.8428 15.089 10.6876 15.0247 10.5732 14.9102C10.4587 14.7958 10.3944 14.6406 10.3944 14.4788V10.2168H7.90692C7.78646 10.217 7.66863 10.1815 7.5684 10.1147C7.46818 10.0478 7.39007 9.95274 7.34399 9.84143C7.29791 9.73013 7.28594 9.60764 7.3096 9.48952C7.33327 9.37141 7.39149 9.26298 7.47689 9.17802L11.4867 5.16824C11.601 5.05468 11.7556 4.99095 11.9167 4.99095C12.0778 4.99095 12.2324 5.05468 12.3467 5.16824L16.3585 9.17773C16.4437 9.2628 16.5016 9.37121 16.5251 9.48923C16.5486 9.60725 16.5366 9.72959 16.4906 9.84078C16.4445 9.95197 16.3666 10.047 16.2665 10.1139C16.1665 10.1808 16.0489 10.2168 15.9285 10.2168Z" fill="#434344"/>
</svg>
