<svg width="24" height="25" viewBox="0 0 24 25" fill="none" xmlns="http://www.w3.org/2000/svg">
<g id="material-symbols-light:preview-outline">
<path id="Vector" d="M4.02 22.5C3.46417 22.5 2.98875 22.3021 2.59375 21.9062C2.19875 21.5104 2.00083 21.0358 2 20.4825V4.51875C2 3.96375 2.19792 3.48875 2.59375 3.09375C2.98958 2.69875 3.46458 2.50083 4.01875 2.5H19.9813C20.5363 2.5 21.0112 2.69792 21.4062 3.09375C21.8013 3.48958 21.9992 3.96458 22 4.51875V20.4813C22 21.0363 21.8021 21.5112 21.4062 21.9062C21.0104 22.3013 20.5354 22.4992 19.9813 22.5H4.02ZM4.02 21.25H19.9813C20.2054 21.25 20.3896 21.1779 20.5337 21.0337C20.6779 20.8896 20.75 20.7054 20.75 20.4813V6.25H3.25V20.4813C3.25 20.7054 3.32208 20.8896 3.46625 21.0337C3.61042 21.1779 3.795 21.25 4.02 21.25ZM12 17.5C10.6442 17.5 9.4225 17.1525 8.335 16.4575C7.2475 15.7633 6.42583 14.8608 5.87 13.75C6.42583 12.6392 7.2475 11.7367 8.335 11.0425C9.4225 10.3475 10.6442 10 12 10C13.3558 10 14.5775 10.3475 15.665 11.0425C16.7525 11.7375 17.5742 12.64 18.13 13.75C17.5742 14.8608 16.7525 15.7633 15.665 16.4575C14.5775 17.1525 13.3558 17.5 12 17.5ZM12 16.3937C12.9908 16.3937 13.9133 16.1621 14.7675 15.6987C15.6217 15.2354 16.3433 14.5858 16.9325 13.75C16.3433 12.915 15.6217 12.2654 14.7675 11.8013C13.9133 11.3371 12.9908 11.1054 12 11.1063C11.0092 11.1071 10.0867 11.3387 9.2325 11.8013C8.37833 12.2638 7.65708 12.9133 7.06875 13.75C7.65792 14.585 8.37958 15.2346 9.23375 15.6987C10.0879 16.1629 11.0104 16.395 12.0013 16.395M12.0075 15.145C12.3958 15.145 12.7242 15.0087 12.9925 14.7362C13.2617 14.4637 13.3962 14.1333 13.3962 13.745C13.3962 13.3558 13.26 13.0267 12.9875 12.7575C12.715 12.49 12.3846 12.3563 11.9963 12.3563C11.6071 12.3563 11.2779 12.4921 11.0087 12.7638C10.7413 13.0363 10.6075 13.3667 10.6075 13.755C10.6075 14.1442 10.7433 14.4733 11.015 14.7425C11.2875 15.0108 11.6192 15.145 12.0075 15.145Z" fill="#525252"/>
</g>
</svg>
