<svg xmlns="http://www.w3.org/2000/svg" width="24" height="24" viewBox="0 0 24 24">
  <g id="Group_2943" data-name="Group 2943" transform="translate(-23.308 -139.006)">
    <rect id="Rectangle_6927" data-name="Rectangle 6927" width="24" height="24" transform="translate(23.308 139.006)" fill="#dbdbdb" opacity="0"/>
    <path id="Icon_ionic-ios-star" data-name="Icon ionic-ios-star" d="M12,2.675a1.391,1.391,0,0,1,1.325.937l1.787,5.332h5.9a1.438,1.438,0,0,1,1.44,1.4,1.377,1.377,0,0,1-.413.942l-.026.028-.179.155-4.822,3.459,1.851,5.381a1.389,1.389,0,0,1-.474,1.566,1.3,1.3,0,0,1-.815.315,1.519,1.519,0,0,1-.842-.287L12,18.528,7.258,21.909a1.565,1.565,0,0,1-.828.278,1.34,1.34,0,0,1-.8-.3l-.014-.011A1.392,1.392,0,0,1,5.137,20.3L6.986,14.93,2.119,11.5a1.37,1.37,0,0,1-.55-.939,1.248,1.248,0,0,1-.019-.218,1.4,1.4,0,0,1,1.4-1.4H8.891l1.786-5.33A1.392,1.392,0,0,1,12,2.675Zm0,1.4H12L9.9,10.345H2.956l0,.008v.023l.019.017,5.673,4-2.19,6.367.006,0L12,16.809l5.536,3.945L15.351,14.4l5.618-4.03.024-.021H14.107Z" transform="translate(23.306 138.575)" fill="#525252" opacity="0.9"/>
  </g>
</svg>
