<svg width="24" height="25" viewBox="0 0 24 25" fill="none" xmlns="http://www.w3.org/2000/svg">
<g id="reload icon">
<path id="Vector" d="M12 19.5C10.0458 19.5 8.39062 18.8219 7.03437 17.4656C5.67812 16.1094 5 14.4542 5 12.5C5 10.5458 5.67812 8.89062 7.03437 7.53437C8.39062 6.17812 10.0458 5.5 12 5.5C13.0063 5.5 13.9688 5.70767 14.8875 6.123C15.8063 6.53833 16.5938 7.13275 17.25 7.90625V5.5H19V11.625H12.875V9.875H16.55C16.0833 9.05833 15.4455 8.41667 14.6364 7.95C13.8273 7.48333 12.9485 7.25 12 7.25C10.5417 7.25 9.30208 7.76042 8.28125 8.78125C7.26042 9.80208 6.75 11.0417 6.75 12.5C6.75 13.9583 7.26042 15.1979 8.28125 16.2188C9.30208 17.2396 10.5417 17.75 12 17.75C13.1229 17.75 14.1365 17.4292 15.0406 16.7875C15.9448 16.1458 16.5792 15.3 16.9437 14.25H18.7812C18.3729 15.7958 17.5417 17.0573 16.2875 18.0344C15.0333 19.0115 13.6042 19.5 12 19.5Z" fill="#616161"/>
</g>
</svg>
