<svg xmlns="http://www.w3.org/2000/svg" width="21px" height="21px" viewBox="0 0 20 21" fill="none">
  <g clip-path="url(#clip0_180_8069)">
    <path d="M17.7648 10.4066C17.765 9.93862 17.907 9.48165 18.1721 9.09596C18.4372 8.71027 18.813 8.41398 19.25 8.24615C19.0237 7.30153 18.6488 6.39883 18.1393 5.57173C17.8426 5.70319 17.5218 5.77168 17.1973 5.77289C16.8112 5.77366 16.4311 5.67771 16.0917 5.49382C15.7523 5.30992 15.4643 5.04393 15.2542 4.72015C15.044 4.39637 14.9184 4.0251 14.8886 3.64026C14.8589 3.25543 14.9261 2.86928 15.0841 2.51708C14.257 2.00731 13.3541 1.63246 12.4091 1.40662C12.2413 1.84327 11.945 2.2188 11.5593 2.48367C11.1736 2.74855 10.7167 2.89034 10.2488 2.89034C9.78095 2.89034 9.32404 2.74855 8.93838 2.48367C8.55272 2.2188 8.25641 1.84327 8.08853 1.40662C7.14373 1.63291 6.24085 2.00773 5.4136 2.51708C5.57156 2.86928 5.63875 3.25543 5.60904 3.64026C5.57932 4.0251 5.45365 4.39637 5.2435 4.72015C5.03334 5.04393 4.74541 5.30992 4.40598 5.49382C4.06655 5.67771 3.68646 5.77366 3.3004 5.77289C2.97561 5.77399 2.65436 5.70539 2.35835 5.57173C1.85216 6.40229 1.47824 7.30651 1.25 8.25197C1.68626 8.42028 2.06132 8.7167 2.32584 9.10223C2.59036 9.48776 2.73194 9.94433 2.73194 10.4118C2.73194 10.8794 2.59036 11.3359 2.32584 11.7215C2.06132 12.107 1.68626 12.4034 1.25 12.5717C1.47634 13.5164 1.85123 14.4191 2.36068 15.2462C2.78756 15.057 3.26173 15.0015 3.72076 15.087C4.1798 15.1724 4.6022 15.3949 4.93237 15.725C5.26254 16.0551 5.485 16.4774 5.57049 16.9363C5.65597 17.3953 5.60046 17.8693 5.41127 18.2962C6.23894 18.8047 7.14169 19.1795 8.08621 19.4066C8.25386 18.971 8.54958 18.5965 8.93439 18.3323C9.31921 18.0681 9.77505 17.9267 10.2419 17.9267C10.7087 17.9267 11.1645 18.0681 11.5493 18.3323C11.9341 18.5965 12.2299 18.971 12.3975 19.4066C13.3423 19.1803 14.2452 18.8055 15.0724 18.2962C14.8835 17.8686 14.8285 17.3938 14.9147 16.9344C15.0009 16.4749 15.2243 16.0524 15.5554 15.7223C15.8865 15.3923 16.3098 15.1703 16.7696 15.0855C17.2294 15.0007 17.7041 15.0571 18.1312 15.2473C18.6398 14.4198 19.0147 13.5172 19.2419 12.5729C18.8063 12.4022 18.4324 12.1041 18.1689 11.7177C17.9054 11.3312 17.7646 10.8743 17.7648 10.4066ZM10.2936 14.1508C9.55202 14.1508 8.82708 13.9309 8.21047 13.519C7.59385 13.1071 7.11326 12.5216 6.82947 11.8366C6.54567 11.1516 6.47142 10.3978 6.6161 9.6706C6.76077 8.9434 7.11789 8.27542 7.64227 7.75114C8.16666 7.22685 8.83477 6.86981 9.56211 6.72516C10.2895 6.58051 11.0434 6.65475 11.7285 6.93849C12.4137 7.22223 12.9993 7.70273 13.4113 8.31922C13.8233 8.93572 14.0432 9.66052 14.0432 10.402C14.0433 10.8945 13.9464 11.3823 13.7578 11.8373C13.5693 12.2924 13.2929 12.7058 12.9445 13.054C12.596 13.4021 12.1823 13.6782 11.7271 13.8664C11.2718 14.0546 10.7839 14.1513 10.2913 14.1508H10.2936Z" stroke="#d5d5d5" stroke-width="0.8"></path>
  </g>
  <defs>
    <clipPath id="clip0_180_8069">
      <rect width="20" height="20" fill="transparent" transform="translate(0 0.156616)"></rect>
    </clipPath>
  </defs>
</svg>