<svg xmlns="http://www.w3.org/2000/svg" width="24" height="24" viewBox="0 0 24 24">
  <g id="Group_2944" data-name="Group 2944" transform="translate(-22.526 -180.006)">
    <rect id="Rectangle_6928" data-name="Rectangle 6928" width="24" height="24" transform="translate(22.526 180.006)" fill="#dbdbdb" opacity="0"/>
    <g id="Icon_feather-save" data-name="Icon feather-save" transform="translate(20.716 178.196)">
      <path id="Path_6346" data-name="Path 6346" d="M21.05,23.819H6.569A2.772,2.772,0,0,1,3.8,21.05V6.569A2.772,2.772,0,0,1,6.569,3.8H17.947a.7.7,0,0,1,.495.205l5.172,5.172a.7.7,0,0,1,.205.495V21.05A2.772,2.772,0,0,1,21.05,23.819ZM6.569,5.2A1.37,1.37,0,0,0,5.2,6.569V21.05a1.37,1.37,0,0,0,1.369,1.369H21.05a1.37,1.37,0,0,0,1.369-1.369V9.962L17.657,5.2Z" transform="translate(0 0)" fill="#545455"/>
      <path id="Path_6347" data-name="Path 6347" d="M20.844,28.475a.7.7,0,0,1-.7-.7V20.2H11.2v7.575a.7.7,0,0,1-1.4,0V19.5a.7.7,0,0,1,.7-.7H20.844a.7.7,0,0,1,.7.7v8.275A.7.7,0,0,1,20.844,28.475Z" transform="translate(-1.862 -4.656)" fill="#545455"/>
      <path id="Path_6348" data-name="Path 6348" d="M18.775,10.372H10.5a.7.7,0,0,1-.7-.7V4.5a.7.7,0,0,1,1.4,0V8.972h7.575a.7.7,0,1,1,0,1.4Z" transform="translate(-1.862 0)" fill="#545455"/>
    </g>
  </g>
</svg>
