<svg width="24" height="25" viewBox="0 0 24 25" fill="none" xmlns="http://www.w3.org/2000/svg">
<g id="search_icon" clip-path="url(#clip0_2649_13035)">
<path id="Vector" d="M16.5057 14.305H15.8734L15.6492 14.0889C16.4337 13.1764 16.9059 11.9917 16.9059 10.703C16.9059 7.82933 14.5766 5.5 11.703 5.5C8.82933 5.5 6.5 7.82933 6.5 10.703C6.5 13.5766 8.82933 15.9059 11.703 15.9059C12.9917 15.9059 14.1764 15.4337 15.0889 14.6492L15.305 14.8734V15.5057L19.3073 19.5L20.5 18.3073L16.5057 14.305ZM11.703 14.305C9.70983 14.305 8.10091 12.6961 8.10091 10.703C8.10091 8.70983 9.70983 7.10091 11.703 7.10091C13.6961 7.10091 15.305 8.70983 15.305 10.703C15.305 12.6961 13.6961 14.305 11.703 14.305Z" fill="#525252"/>
</g>
<defs>
<clipPath id="clip0_2649_13035">
<rect width="24" height="24" fill="white" transform="translate(0 0.5)"/>
</clipPath>
</defs>
</svg>
