<svg xmlns="http://www.w3.org/2000/svg" width="20" height="20" viewBox="0 0 20 20">
  <g id="Group_2900" data-name="Group 2900" transform="translate(-1163.538 -1001.139)">
    <rect id="Rectangle_7101" data-name="Rectangle 7101" width="20" height="20" transform="translate(1163.538 1001.139)" fill="#f3c4c4" opacity="0"/>
    <g id="Ellipse_1324" data-name="Ellipse 1324" transform="translate(1165 1003)" fill="none" stroke="#5925dc" stroke-width="0.9">
      <circle cx="8.5" cy="8.5" r="8.5" stroke="none"/>
      <circle cx="8.5" cy="8.5" r="8.25" fill="none"/>
    </g>
    <path id="Path_6380" data-name="Path 6380" d="M4.167-1.214a5.815,5.815,0,0,1-1.933-.3,4.2,4.2,0,0,1-1.5-.914l.342-.644a4.419,4.419,0,0,0,1.4.874,4.948,4.948,0,0,0,1.69.256,3.019,3.019,0,0,0,1.821-.48,1.578,1.578,0,0,0,.651-1.348A1.143,1.143,0,0,0,6.323-4.6a2.119,2.119,0,0,0-.8-.5,11.034,11.034,0,0,0-1.3-.362,13.046,13.046,0,0,1-1.742-.487A2.852,2.852,0,0,1,1.353-6.7a1.946,1.946,0,0,1-.46-1.361A2.374,2.374,0,0,1,1.3-9.446a2.666,2.666,0,0,1,1.151-.92A4.276,4.276,0,0,1,4.193-10.7a4.878,4.878,0,0,1,1.755.309,3.947,3.947,0,0,1,1.4.9l-.342.644A4.538,4.538,0,0,0,5.679-9.7a3.95,3.95,0,0,0-1.486-.27,2.96,2.96,0,0,0-1.828.5,1.651,1.651,0,0,0-.657,1.394A1.28,1.28,0,0,0,2.28-6.928a5.424,5.424,0,0,0,1.677.638l.342.079q1.065.263,1.683.487a2.585,2.585,0,0,1,1.045.69,1.788,1.788,0,0,1,.427,1.256,2.27,2.27,0,0,1-.408,1.341,2.661,2.661,0,0,1-1.151.9A4.316,4.316,0,0,1,4.167-1.214Z" transform="translate(1169.473 1017.667)" fill="#5925dc"/>
  </g>
</svg>
