<svg width="24" height="24" viewBox="0 0 24 24" fill="none" xmlns="http://www.w3.org/2000/svg">
<g id="CODE 2" clip-path="url(#clip0_2673_55350)">
<g id="Group 2873">
<g id="Group 2868">
<g id="Group 78">
<path id="Path 84" d="M5.52246 7.71845V3.38163C5.63855 2.95172 5.90208 2.57641 6.26719 2.32145C6.63229 2.0665 7.07574 1.94818 7.51934 1.98725C9.21374 2.01365 17.141 1.98725 17.141 1.98725C17.141 1.98725 19.0053 1.88643 19.0605 3.38163C19.1157 4.87683 19.0605 7.71966 19.0605 7.71966H16.435V5.65203H8.20898V7.71966L5.52246 7.71845Z" stroke="#525252" />
<path id="Path 85" d="M19.0825 16.3428V20.6808C18.9669 21.1111 18.7033 21.4869 18.3381 21.7421C17.973 21.9973 17.5295 22.1157 17.0857 22.0764C15.3925 22.0488 7.46532 22.0764 7.46532 22.0764C7.46532 22.0764 5.59932 22.1772 5.54532 20.682C5.49132 19.1868 5.54532 16.344 5.54532 16.344H8.16252V18.4104H16.3909V16.3428H19.0825Z" stroke="#525252" />
<path id="Path 86" d="M9.17178 8.38445L10.5815 9.89046L7.87803 12.1705L10.5815 14.7793L8.83955 16.2348L4.80127 12.3577L9.17178 8.38445Z" stroke="#525252"/>
<path id="Path 87" d="M15.4405 16.2692L13.9536 14.839L16.5342 12.4207L13.6978 9.95814L15.3605 8.41341L19.5971 12.0739L15.4405 16.2692Z" stroke="#525252"/>
</g>
</g>
</g>
</g>
<defs>
<clipPath id="clip0_2673_55350">
<rect width="24" height="24" fill="white"/>
</clipPath>
</defs>
</svg>
