<svg width="20" height="20" viewBox="0 0 20 20" fill="none" xmlns="http://www.w3.org/2000/svg">
<g id="Group">
<g id="Group_2">
<path id="Vector" fill-rule="evenodd" clip-rule="evenodd" d="M3 2C2.73478 2 2.48043 2.10536 2.29289 2.29289C2.10536 2.48043 2 2.73478 2 3V17C2 17.2652 2.10536 17.5196 2.29289 17.7071C2.48043 17.8946 2.73478 18 3 18H17C17.2652 18 17.5196 17.8946 17.7071 17.7071C17.8946 17.5196 18 17.2652 18 17V11.737C18 11.4718 18.1054 11.2174 18.2929 11.0299C18.4804 10.8424 18.7348 10.737 19 10.737C19.2652 10.737 19.5196 10.8424 19.7071 11.0299C19.8946 11.2174 20 11.4718 20 11.737V17C20 17.7956 19.6839 18.5587 19.1213 19.1213C18.5587 19.6839 17.7956 20 17 20H3C2.20435 20 1.44129 19.6839 0.87868 19.1213C0.316071 18.5587 0 17.7956 0 17V3C0 2.20435 0.316071 1.44129 0.87868 0.87868C1.44129 0.316071 2.20435 0 3 0H8.017C8.28222 0 8.53657 0.105357 8.72411 0.292893C8.91164 0.48043 9.017 0.734784 9.017 1C9.017 1.26522 8.91164 1.51957 8.72411 1.70711C8.53657 1.89464 8.28222 2 8.017 2H3Z" fill="#5925dc" stroke-width="0.5"/>
<path id="Vector_2" fill-rule="evenodd" clip-rule="evenodd" d="M19.411 0.571871C19.591 0.752391 19.6921 0.99693 19.6921 1.25187C19.6921 1.50681 19.591 1.75135 19.411 1.93187L10.639 10.7179C10.5498 10.8071 10.444 10.8778 10.3275 10.9261C10.211 10.9744 10.0861 10.9992 9.95999 10.9992C9.83388 10.9992 9.709 10.9744 9.5925 10.9261C9.47599 10.8778 9.37014 10.8071 9.28099 10.7179C9.10097 10.5374 8.99988 10.2928 8.99988 10.0379C8.99988 9.78293 9.10097 9.53839 9.28099 9.35787L18.054 0.571871C18.234 0.392033 18.478 0.291016 18.7325 0.291016C18.9869 0.291016 19.231 0.392033 19.411 0.571871Z" fill="#5925dc" stroke-width="0.5"/>
<path id="Vector_3" fill-rule="evenodd" clip-rule="evenodd" d="M19.04 0C19.57 0 20 0.43 20 0.962V6C20 6.531 19.53 7 19 7C18.47 7 18 6.531 18 6V2H14C13.47 2 13 1.531 13 1C13 0.469 13.43 0 13.96 0H19.04Z" fill="#5925dc" stroke-width="0.5"/>
</g>
</g>
</svg>
