<svg width="20" height="21" viewBox="0 0 20 21" fill="none" xmlns="http://www.w3.org/2000/svg">
<g id="IPAD" clip-path="url(#clip0_2673_55391)">
<g id="Group 2878">
<path id="Icon awesome-tablet-alt" d="M15.503 1.82501H4.49702C4.08264 1.84269 3.69216 2.02382 3.41103 2.32875C3.1299 2.63368 2.98103 3.03757 2.99702 3.45201V17.552C2.98211 17.9658 3.13147 18.3686 3.41248 18.6727C3.6935 18.9768 4.08336 19.1573 4.49702 19.175H15.497C15.9114 19.1573 16.3019 18.9762 16.583 18.6713C16.8641 18.3663 17.013 17.9625 16.997 17.548V3.45201C17.013 3.03857 16.865 2.63555 16.5851 2.33079C16.3053 2.02603 15.9163 1.84423 15.503 1.82501ZM9.99702 18.09C9.72874 18.0629 9.48008 17.9372 9.29924 17.7372C9.1184 17.5372 9.01828 17.2772 9.01828 17.0075C9.01828 16.7379 9.1184 16.4778 9.29924 16.2778C9.48008 16.0778 9.72874 15.9521 9.99702 15.925C10.2696 15.9469 10.5239 16.0707 10.7094 16.2717C10.8948 16.4726 10.9978 16.7361 10.9978 17.0095C10.9978 17.283 10.8948 17.5464 10.7094 17.7474C10.5239 17.9483 10.2696 18.0721 9.99702 18.094V18.09ZM15.497 14.43C15.5008 14.5336 15.4635 14.6345 15.3933 14.7107C15.3231 14.7869 15.2256 14.8323 15.122 14.837H4.87302C4.76947 14.8323 4.67196 14.7869 4.60173 14.7107C4.53149 14.6345 4.49422 14.5336 4.49802 14.43V3.85801C4.49422 3.75443 4.53149 3.65354 4.60173 3.57731C4.67196 3.50109 4.76947 3.45569 4.87302 3.45101H15.127C15.2306 3.45569 15.3281 3.50109 15.3983 3.57731C15.4685 3.65354 15.5058 3.75443 15.502 3.85801L15.497 14.43Z" stroke="#525252" stroke-width="0.5"/>
</g>
</g>
<defs>
<clipPath id="clip0_2673_55391">
<rect width="20" height="20" fill="white" transform="translate(0 0.5)"/>
</clipPath>
</defs>
</svg>
