<svg width="60" height="60" viewBox="0 0 60 60" fill="none" xmlns="http://www.w3.org/2000/svg">
<g id="folder icon">
<path id="Vector" d="M11.54 47.5C10.3883 47.5 9.4275 47.115 8.6575 46.345C7.8875 45.575 7.50167 44.6133 7.5 43.46V16.54C7.5 15.3883 7.88583 14.4275 8.6575 13.6575C9.42917 12.8875 10.3892 12.5017 11.5375 12.5H23.99L28.99 17.5H48.4625C49.6125 17.5 50.5733 17.8858 51.345 18.6575C52.1167 19.4292 52.5017 20.39 52.5 21.54V43.4625C52.5 44.6125 52.115 45.5733 51.345 46.345C50.575 47.1167 49.6142 47.5017 48.4625 47.5H11.54ZM11.54 45H48.4625C48.9108 45 49.2792 44.8558 49.5675 44.5675C49.8558 44.2792 50 43.9108 50 43.4625V21.5375C50 21.0892 49.8558 20.7208 49.5675 20.4325C49.2792 20.1442 48.9108 20 48.4625 20H27.9875L22.9875 15H11.5375C11.0892 15 10.7208 15.1442 10.4325 15.4325C10.1442 15.7208 10 16.09 10 16.54V43.4625C10 43.9108 10.1442 44.2792 10.4325 44.5675C10.7208 44.8558 11.09 45 11.54 45Z" fill="#525252"/>
</g>
</svg>
