<svg width="25" height="24" viewBox="0 0 25 24" fill="none" xmlns="http://www.w3.org/2000/svg">
<g id="right diagonal arrow">
<path id="Vector" d="M18.9638 7.05C18.9638 6.78478 18.8584 6.53043 18.6709 6.34289C18.4834 6.15536 18.229 6.05 17.9638 6.05L9.96381 6C9.69859 6 9.44424 6.10536 9.2567 6.29289C9.06916 6.48043 8.96381 6.73478 8.96381 7C8.96381 7.26522 9.06916 7.51957 9.2567 7.70711C9.44424 7.89464 9.69859 8 9.96381 8H15.5238L7.25381 16.29C7.16008 16.383 7.08568 16.4936 7.03491 16.6154C6.98415 16.7373 6.95801 16.868 6.95801 17C6.95801 17.132 6.98415 17.2627 7.03491 17.3846C7.08568 17.5064 7.16008 17.617 7.25381 17.71C7.34677 17.8037 7.45737 17.8781 7.57923 17.9289C7.70109 17.9797 7.83179 18.0058 7.96381 18.0058C8.09582 18.0058 8.22652 17.9797 8.34838 17.9289C8.47024 17.8781 8.58084 17.8037 8.67381 17.71L16.9638 9.42V15C16.9638 15.2652 17.0692 15.5196 17.2567 15.7071C17.4442 15.8946 17.6986 16 17.9638 16C18.229 16 18.4834 15.8946 18.6709 15.7071C18.8584 15.5196 18.9638 15.2652 18.9638 15V7.05Z" fill="#525252"/>
</g>
</svg>
