<svg xmlns="http://www.w3.org/2000/svg" width="20" height="20" viewBox="0 0 20 20">
  <g id="Group_2912" data-name="Group 2912" transform="translate(-180.071 -1582.7)">
    <rect id="Rectangle_7101" data-name="Rectangle 7101" width="20" height="20" transform="translate(180.071 1582.7)" fill="#e8e8e8" opacity="0"/>
    <g id="websocket-svgrepo-com" transform="translate(182.349 1586.905)">
      <path id="Path_6398" data-name="Path 6398" d="M11.609,8.726h1.917v-4.6l-2.16-2.16L10.011,3.318l1.6,1.6V8.726Zm1.922.961H6.844l-1.6-1.6.678-.678,1.32,1.32H9.96L7.284,6.05l.683-.683,2.676,2.676V5.327L9.328,4.011,10,3.339,6.677,0H0L1.912,1.912v.005H5.878l1.4,1.4L5.23,5.367l-1.4-1.4V2.878H1.912V4.76L5.23,8.078,3.88,9.429l2.16,2.16h9.4l-1.912-1.9Z" fill="none" stroke="#5925dc"/>
    </g>
  </g>
</svg>
