<svg width="24" height="24" viewBox="0 0 24 24" fill="none" xmlns="http://www.w3.org/2000/svg">
<g id="monitor icon">
<path id="Vector" d="M21.6756 3.11816H2.32416C2.14626 3.11816 1.9701 3.15321 1.80574 3.2213C1.64138 3.28938 1.49205 3.38918 1.36626 3.51499C1.24048 3.6408 1.1407 3.79015 1.07265 3.95452C1.00459 4.11889 0.969573 4.29506 0.969605 4.47296V16.279C0.969573 16.4569 1.00459 16.6331 1.07265 16.7975C1.1407 16.9619 1.24048 17.1112 1.36626 17.237C1.49205 17.3628 1.64138 17.4626 1.80574 17.5307C1.9701 17.5988 2.14626 17.6338 2.32416 17.6338H9.61032V19.6873H7.35384C7.13976 19.6873 6.96672 19.8603 6.96672 20.0742V20.4944C6.96672 20.7085 7.13976 20.8815 7.35384 20.8815H16.4501C16.6639 20.8815 16.8372 20.7085 16.8372 20.4944V20.0742C16.8372 19.8601 16.6639 19.6873 16.4501 19.6873H14.3894V17.6338H21.6756C21.8535 17.6339 22.0297 17.5989 22.1941 17.5308C22.3585 17.4628 22.5079 17.363 22.6337 17.2372C22.7596 17.1114 22.8593 16.962 22.9274 16.7976C22.9955 16.6332 23.0305 16.457 23.0304 16.279V4.47296C23.0304 4.11365 22.8877 3.76905 22.6336 3.51498C22.3795 3.2609 22.0349 3.11816 21.6756 3.11816ZM3.38184 15.2418V5.5076H20.6182V15.2418H3.38184Z" fill="#525252"/>
</g>
</svg>
