<?xml version="1.0" encoding="utf-8"?>
<!-- Generator: Adobe Illustrator 18.0.0, SVG Export Plug-In . SVG Version: 6.00 Build 0)  -->
<!DOCTYPE svg PUBLIC "-//W3C//DTD SVG 1.1//EN" "http://www.w3.org/Graphics/SVG/1.1/DTD/svg11.dtd">
<svg version="1.1" xmlns="http://www.w3.org/2000/svg" xmlns:xlink="http://www.w3.org/1999/xlink" x="0px" y="0px"
	 viewBox="0 0 200 200" enable-background="new 0 0 200 200" xml:space="preserve">
<g id="Layer_1" display="none">
	
		<ellipse display="inline" fill="#FFFFFF" stroke="#C95D14" stroke-width="2" stroke-miterlimit="10" cx="116.6" cy="91.8" rx="58.8" ry="52.6"/>
	<line display="inline" fill="none" x1="117" y1="121" x2="117" y2="113"/>
	<line display="inline" fill="none" x1="101.9" y1="120.7" x2="102.2" y2="113.2"/>
	<path display="inline" fill="none" stroke="#CCCCCC" stroke-width="1.5341" stroke-miterlimit="10" d="M144.5,112.6"/>
	<path display="inline" fill="none" stroke="#CCCCCC" stroke-width="1.5341" stroke-miterlimit="10" d="M87.1,113.2"/>
	<path display="inline" fill="#FFFFFF" d="M106.8,83.2c0,0,6.7-16.1-4.8-17.3c0,0-13-1.4-22.4,13.2c0,0-6.2,13.5,10.3,10.8
		C89.9,89.9,100.1,87.3,106.8,83.2z"/>
	<path display="inline" fill="#C95D14" d="M160.9,111.5c0,0-7-8-38.7,4.8c0,0-27.8,10.1-47.1-3.6c0,0,25.5,9.7,48.6-0.5
		C123.6,112.2,151.2,97.2,160.9,111.5z"/>
	<path display="inline" fill="#C95D14" d="M99.1,127.6c0,0,9.9,4.3,21.3-1.3s-6.7,14.3-21.3,2.9C84.5,117.8,99.1,127.6,99.1,127.6z"
		/>
	<path display="inline" fill="#FF7F29" d="M154.5,100.5c0,0,0.5,0.3,1.2,0.9c2.9,2.3,9.7,9.1,6.8,18.5c0,0,11.2-11.2-7.5-19.1"/>
	<path display="inline" fill="#C95D14" d="M83.1,103.1c0,0-0.5,0.3-1.2,0.9c-2.9,2.3-9.7,9.1-6.8,18.5c0,0-11.2-11.2,7.5-19.1"/>
	<path display="inline" fill="#02443E" d="M152.8,93.2c0,0,4,4.4,3.7,4.2"/>
	<path display="inline" fill="#02443E" d="M124.9,92"/>
	<path display="inline" fill="#0DAEA7" d="M151.7,96.8"/>
	<path display="inline" fill="#FFFFFF" d="M122.4,75.7c0,0-0.8,19.2,6.4,22.6c0,0,24-3.5,27.8-0.6c0,0,0.4-17.9-28.6-23.9
		L122.4,75.7z"/>
	<path display="inline" fill="#FFFFFF" d="M135.6,74.8c0.3,0,15,6.9,21.3,19.6s3.4-4.2,3.4-4.8S159,78.8,158.4,78
		c-0.5-0.8-11.2-7.7-11.3-8.2c-0.1-0.5-8.7-0.4-9.2,0c-0.5,0.4-2.8,1.6-2.9,1.9C135,72,135.6,74.8,135.6,74.8z"/>
	<path display="inline" fill="#C95D14" d="M136.8,52.7l-7,3c0,0,5.1,9.9,16.1,12.4c0,0,11.5,2.9,15.4,13.1c0,0-2.7-14.9-16.2-17.6
		C145.2,63.7,136.8,62.3,136.8,52.7z"/>
	<path display="inline" fill="#C95D14" d="M119.4,78l1.4-4.1c0,0,23.7-7,36.2,20.5C156.9,94.3,141.5,67.4,119.4,78z"/>
	<path display="inline" fill="#C95D14" d="M155.8,96.8c0.5,0.1,0,1.5,0,1.5s-25.4-3.9-35.7,5.3C120,103.6,129.6,91.3,155.8,96.8z"/>
	<ellipse display="inline" fill="#C95D14" cx="91.5" cy="81.4" rx="7.2" ry="8.3"/>
	<ellipse display="inline" fill="#FCFEFD" cx="92.5" cy="80.3" rx="3.8" ry="4.3"/>
	<ellipse display="inline" fill="#C95D14" cx="140.5" cy="86.4" rx="7.2" ry="8.3"/>
	<ellipse display="inline" fill="#FCFEFD" cx="141.5" cy="85.3" rx="3.8" ry="4.3"/>
	<path display="inline" fill="#C95D14" d="M70.7,92.4c-0.5,0.1,0,1.5,0,1.5s25.4-3.9,35.7,5.3C106.4,99.1,96.8,86.8,70.7,92.4z"/>
	<path display="inline" fill="#FFFFFF" stroke="#C95D14" stroke-width="2" stroke-miterlimit="10" d="M171.3,83.2
		c0,0-6.1-3.3-8.2,8.7c-2.1,11.9-2.8,16.7-6.5,19.5c-3.7,2.8-9.7,20.3,4,20.6c13.7,0.2,21.6-17.7,22.8-30.5
		c1.2-12.8-3.3-26.8-11.3-20.2L171.3,83.2z"/>
	<path display="inline" fill="#FFFFFF" stroke="#C95D14" stroke-width="2" stroke-miterlimit="10" d="M171.8,82.9l-0.5,0.5
		c0,0,2.8,2.3,5.1,11.2C176.8,91,171.7,80.7,171.8,82.9z"/>
	<path display="inline" fill="#FFFFFF" stroke="#C95D14" stroke-width="2" stroke-miterlimit="10" d="M64.3,135.8
		c-0.3-0.3-8.7-11-29.5-1.8s-12.2,13.5-11.6,13.9l0.9,0.6c0,0-2.7,8.5,10.9,6c0,0,6,7.1,16.2-0.1c0,0,4.5-3.9,5.9-7.4
		c0,0,3.7-2.7,5.1,0.7c0,0,8.9,12.4,17.8,2.8c0,0,2.3-6.6-7.3-8.9C72.9,141.6,68.2,139.4,64.3,135.8z"/>
	<path display="inline" fill="#C95D14" d="M24.6,148.7c0,0,0.9-6.7,11.1-11.1c0,0-8.7,1.9-12.6,10L24.6,148.7z"/>
	<path display="inline" fill="#C95D14" d="M35.1,154.8c0,0-0.5-7.1,9.1-12.3c0,0-8.6,3.4-11.5,11.9L35.1,154.8z"/>
	<path display="inline" fill="#FFFFFF" d="M94.9,69c-0.3,0-15,6.9-21.3,19.6c-6.3,12.7-3.4-4.2-3.4-4.8s1.4-10.7,1.9-11.5
		c0.5-0.8,11.2-7.7,11.3-8.2c0.1-0.5,8.7-0.4,9.2,0c0.5,0.4,2.8,1.6,2.9,1.9C95.5,66.2,94.9,69,94.9,69z"/>
	<path display="inline" fill="#C95D14" d="M107.8,74.4l-1.2-3.7c0,0-21.3-6.3-32.6,18.5C74,89.2,87.9,64.9,107.8,74.4z"/>
	<path display="inline" fill="#C95D14" d="M95.7,50.5l7,3c0,0-5.1,9.9-16.1,12.4c0,0-11.5,2.9-15.4,13.1c0,0,2.7-14.9,16.2-17.6
		C87.4,61.5,95.7,60.1,95.7,50.5z"/>
</g>
<g id="Layer_2" display="none">
	<circle display="inline" fill="#FFFFFF" stroke="#0BAA30" stroke-width="2" stroke-miterlimit="10" cx="98.6" cy="99.8" r="53"/>
	<path display="inline" fill="#0BAA30" d="M93.5,65.1l-2.9,3.7c0,0-9.7-11.3-28.9,1.1C61.7,69.9,73.7,54.1,93.5,65.1z"/>
	<path display="inline" fill="#0BAA30" d="M104.7,64.1l2.9,3.7c0,0,9.7-11.3,28.9,1.1C136.4,68.9,124.4,53.1,104.7,64.1z"/>
	<line display="inline" fill="none" x1="98" y1="143" x2="98" y2="134"/>
	<line display="inline" fill="none" x1="113" y1="142.5" x2="112.7" y2="133.3"/>
	<path display="inline" fill="none" stroke="#CCCCCC" stroke-width="1.0484" stroke-miterlimit="10" d="M62.8,132.5"/>
	<path display="inline" fill="none" stroke="#CCCCCC" stroke-width="1.0484" stroke-miterlimit="10" d="M130.5,133.3"/>
	
		<ellipse display="inline" opacity="0.5" fill="none" stroke="#0BAA30" stroke-width="2" stroke-miterlimit="10" cx="116" cy="88.9" rx="10.5" ry="15.3"/>
	<path display="inline" opacity="0.5" fill="none" stroke="#0BAA30" stroke-width="2" stroke-miterlimit="10" d="M83,72
		c5.8,0,10.5,6.8,10.5,15.3s-4.7,15.3-10.5,15.3s-10.5-6.8-10.5-15.3S77.2,72,83,72z"/>
	<ellipse display="inline" fill="#0BAA30" cx="83.1" cy="89" rx="5.9" ry="9.1"/>
	<ellipse display="inline" fill="#FFFFFF" cx="84.4" cy="84.9" rx="2.8" ry="4.3"/>
	<ellipse display="inline" fill="#0BAA30" cx="116.1" cy="89" rx="5.9" ry="9.1"/>
	<ellipse display="inline" fill="#FFFFFF" cx="117.4" cy="84.9" rx="2.8" ry="4.3"/>
	<path display="inline" fill="#0BAA30" d="M52.8,100.9c0,0,15.1,38.8,49.1,42.7c0,0,34.1,3.2,41.6-40.3
		C143.5,103.3,97.4,138.3,52.8,100.9z"/>
	<path display="inline" fill="#FFFFFF" d="M76.8,115.7c0,0,5.5,15.9,26.6,16.3c0,0,17.8-0.2,22.8-16.5
		C126.2,115.5,102.4,128.5,76.8,115.7z"/>
	<path display="inline" fill="#FFFFFF" d="M82.8,133.8c0,0,22,17.2,41.1-0.5C124,133.3,97.6,128.4,82.8,133.8z"/>
	<path display="inline" fill="#0BAA30" d="M53.9,101.5c0,0,40.3,48.3,90.3,0.9C144.2,102.4,97.8,140.1,53.9,101.5"/>
	<path display="inline" fill="#0BAA30" d="M144.2,110.3c0,0,1.5-10-6.7-9.7C137.5,100.6,147.7,95.8,144.2,110.3z"/>
	<path display="inline" fill="#0BAA30" d="M54.7,109.4c0,0-4.2-9.2,3.7-11.2C58.4,98.2,47.3,96.4,54.7,109.4z"/>
	<path display="inline" fill="none" stroke="#0BAA30" stroke-width="1.0484" stroke-miterlimit="10" d="M101.7,122.8
		c0,0,26.7-2.2,41.3-19.8"/>
</g>
<g id="Layer_3" display="none">
	<circle display="inline" fill="#FFFFFF" stroke="#BF2E2E" stroke-width="2" stroke-miterlimit="10" cx="98.6" cy="99.8" r="53"/>
	<path display="inline" fill="#BF2E2E" d="M132.8,140.8c0,0-24-37.4-63.4-19C69.4,121.8,110.4,85.7,132.8,140.8z"/>
	<path display="inline" fill="#BF2E2E" d="M64.8,74.1c0,0-25.7,10.7-4.6,27.7c0,0,19.5,12.4,28.8-10.1c0,0-1.2,0.5-13.3-9.4
		C75.7,82.3,71.7,73.5,64.8,74.1z"/>
	<path display="inline" fill="#BF2E2E" d="M92.2,93.7c0.3,0.2,0.1,0.5-0.2,0.5c-4.5-0.5-14.8-5.3-23.5-16.8c0,0-5.4-7.8-18.9-1.7
		c0,0,7.7-16.9,20.9-1.7C74.9,79,86.2,89.9,92.2,93.7z"/>
	
		<ellipse transform="matrix(0.9745 0.2242 -0.2242 0.9745 22.6086 -13.8954)" display="inline" fill="#FFFFFF" cx="72.5" cy="92.6" rx="8.2" ry="8.4"/>
	
		<ellipse transform="matrix(-0.9745 -0.2242 0.2242 -0.9745 117.8423 189.629)" display="inline" fill="#BF2E2E" cx="69.7" cy="88.1" rx="3.9" ry="3.9"/>
	<path display="inline" fill="#BF2E2E" d="M134.5,76.5c0,0,25.7,9.5,4.6,26.6c0,0-18.3,12.4-27.6-10.1c0,0,3.6-0.7,15.7-10.6
		C127.2,82.3,131.3,75,134.5,76.5z"/>
	<path display="inline" fill="#BF2E2E" d="M92.4,86.5C92.4,86.5,92.4,86.4,92.4,86.5C92.3,86.4,92.3,86.4,92.4,86.5
		c0,0.1,0.2,0.3,0.3,0.5c1,1.3,1.5,4.4,0.8,5.7s-4.3-0.9-4.3-0.9c-2.4,1.1,3.4,2.9,4.6,2.6C99,92.9,92.4,86.5,92.4,86.5z"/>
	<path display="inline" fill="#BF2E2E" d="M108,94.7c-0.3,0.2-0.1,0.5,0.2,0.5c4.5-0.5,12.5-4.1,21.1-15.6c0,0,5.4-7.8,18.9-1.7
		c0,0-7.7-16.9-20.9-1.7C123,81.2,114,90.8,108,94.7z"/>
	<path display="inline" fill="#BF2E2E" d="M108.6,87C108.6,87,108.6,86.9,108.6,87C108.7,86.9,108.7,86.9,108.6,87
		c0,0.1-0.2,0.3-0.3,0.5c-1,1.3-1.5,4.4-0.8,5.7s4.3-0.9,4.3-0.9c2.4,1.1-3.4,2.9-4.6,2.6C102,93.4,108.6,87,108.6,87z"/>
	
		<ellipse transform="matrix(0.9745 0.2242 -0.2242 0.9745 23.8096 -26.4747)" display="inline" fill="#FFFFFF" cx="128.5" cy="91.6" rx="8.2" ry="8.4"/>
	
		<ellipse transform="matrix(-0.9745 -0.2242 0.2242 -0.9745 240.2643 203.5279)" display="inline" fill="#BF2E2E" cx="131.7" cy="88.1" rx="3.9" ry="3.9"/>
</g>
<g id="Layer_4" display="none">
	<circle display="inline" fill="#FFFFFF" stroke="#2A98DB" stroke-width="2" stroke-miterlimit="10" cx="98.6" cy="99.8" r="53"/>
	<path display="inline" fill="#2A98DB" d="M107.4,68.6l3,3.9c0,0,10.3-12.1,30.8,1.2C141.3,73.7,128.5,56.9,107.4,68.6z"/>
	<path display="inline" fill="#2A98DB" d="M91.2,68.6l-3,3.9c0,0-10.3-12.1-30.8,1.2C57.3,73.7,70.1,56.9,91.2,68.6z"/>
	<line display="inline" fill="none" x1="98" y1="142" x2="98" y2="136"/>
	<line display="inline" fill="none" x1="85.4" y1="141.3" x2="85.6" y2="134.9"/>
	<path display="inline" fill="none" stroke="#CCCCCC" stroke-width="0.7637" stroke-miterlimit="10" d="M123.7,134.3"/>
	<path display="inline" fill="none" stroke="#CCCCCC" stroke-width="0.7637" stroke-miterlimit="10" d="M72,134.9"/>
	<ellipse display="inline" fill="#FFFFFF" cx="113.9" cy="87.9" rx="2.4" ry="2.9"/>
	<path display="inline" fill="#2A98DB" d="M58,105.6c0,0,42.3,33.5,84.7,2.8C142.7,108.5,102.3,169.5,58,105.6z"/>
	<path display="inline" fill="#2A98DB" d="M140.5,115.9c0,0,3.8-8.5-3.3-10.4C137.2,105.6,147.2,103.9,140.5,115.9z"/>
	<path display="inline" fill="#2A98DB" d="M65.2,104.4c0,0-8.4-1-7.3,7.2C57.9,111.7,52.9,101.7,65.2,104.4z"/>
	<path display="inline" fill="#2A98DB" d="M60,86.4c0,0,10.4,11.4,33.7,1.3C93.7,87.6,75.6,114,60,86.4z"/>
	<path display="inline" fill="#2A98DB" d="M106.8,84.4c0,0,10.4,11.4,33.7,1.3C140.5,85.6,122.4,112,106.8,84.4z"/>
</g>
<g id="Layer_5" display="none">
	
		<image display="inline" overflow="visible" width="239" height="239" xlink:href="48B69583.jpg"  transform="matrix(0.48 0 0 0.48 45 43)">
	</image>
</g>
<g id="Layer_7" display="none">
	<path display="inline" fill="#FFFFFF" d="M68.3,77.7c0,0-3.1,17.1,12.8,19.6c0,0,16.2,0.2,13.8-19.1C94.9,78.2,80.9,86.7,68.3,77.7
		z"/>
	<path display="inline" fill="#FFFFFF" d="M107.3,77.7c0,0-3.1,17.1,12.8,19.6c0,0,16.2,0.2,13.8-19.1
		C133.9,78.2,119.9,86.7,107.3,77.7z"/>
	<polygon display="inline" fill="#FFFFFF" points="78.8,138.3 75.4,128.3 125.9,108.7 130.2,117.7 	"/>
</g>
<g id="Layer_8" display="none">
	
		<image display="inline" overflow="visible" width="239" height="239" xlink:href="48B69581.jpg"  transform="matrix(0.48 0 0 0.48 45 42.9823)">
	</image>
</g>
<g id="Layer_9" display="none">
	<path display="inline" fill="#FFFFFF" d="M68.6,90.2c0,0,12.5-14.1,26.9-0.5c0,0,2.5-18-13.9-18.4C81.7,71.2,64.8,73,68.6,90.2z"/>
	<path display="inline" fill="#FFFFFF" d="M106.6,90.2c0,0,12.5-14.1,26.9-0.5c0,0,3.8-16.3-13.9-18.4
		C119.7,71.2,102.8,73,106.6,90.2z"/>
	<path display="inline" fill="#FFFFFF" d="M63.1,105.5c0,0,17.4,33.2,38.4,34.1c0,0,22.1,4.5,39.3-36
		C140.7,103.6,108.3,119.2,63.1,105.5z"/>
</g>
<g id="Layer_6">
	<circle fill="#2A98DB" cx="102.5" cy="100.5" r="57.5"/>
</g>
<g id="Layer_10" display="none">
	<path display="inline" fill="#FFFFFF" d="M79.7,70.7c0,0,2.7,11.6,18,19.7c0,0-10.5,15.5-23.8,1.5C74,92,65.8,78.4,79.7,70.7z"/>
	<path display="inline" fill="#FFFFFF" d="M124.6,70.7c0,0-2.7,11.6-18,19.7c0,0,10.5,15.4,23.7,1.7c0,0,0.1-0.1,0.1-0.1
		C130.4,92,138.6,78.4,124.6,70.7z"/>
	<path display="inline" fill="#FFFFFF" d="M76.9,130.3c0,0,24-16.2,52,3.2C128.9,133.5,106.3,92.3,76.9,130.3z"/>
</g>
<g id="Layer_12">
	<circle fill="#FFFFFF" cx="122.3" cy="82" r="14.2"/>
	<circle fill="#FFFFFF" cx="83.3" cy="83" r="14.2"/>
	<path fill="#FFFFFF" d="M71.2,116.2c0,0,30.2,12.6,63.8-0.4C135,115.8,104.8,148,71.2,116.2z"/>
</g>
</svg>
