<?xml version="1.0" encoding="UTF-8"?>
<svg xmlns="http://www.w3.org/2000/svg" version="1.1" viewBox="0 0 50 50">
  <defs>
    <style>
      .cls-1, .cls-2 {
        fill: none;
      }

      .cls-3 {
        fill: #ffaf6d;
      }

      .cls-4 {
        fill: #7c4dff;
      }

      .cls-5 {
        fill: #fae872;
      }

      .cls-2 {
        stroke: #d3d3d3;
      }
    </style>
  </defs>
  <!-- Generator: Adobe Illustrator 28.7.6, SVG Export Plug-In . SVG Version: 1.2.0 Build 188)  -->
  <g>
    <g id="Layer_1">
      <g id="Layer_1-2" data-name="Layer_1">
        <g id="Group_3049">
          <g id="Rectangle_206">
            <rect class="cls-1" width="50" height="50" rx="6" ry="6"/>
            <rect class="cls-2" x=".5" y=".5" width="49" height="49" rx="5.5" ry="5.5"/>
          </g>
          <g id="Layer_3">
            <path id="Path_280" class="cls-4" d="M38.5,33.1l-6.2,6.5c-.7.7-1.7.7-2.4,0l-16.6-15.8c-.7-.7-.7-1.7,0-2.4l6.2-6.5c.7-.7,1.7-.7,2.4,0l16.6,15.8c.7.7.7,1.7,0,2.4h0Z"/>
          </g>
          <g id="Layer_4">
            <path id="Path_281" class="cls-4" d="M21.3,14.5l-8.3,8.7-.8-9s9.1.3,9.1.3Z"/>
          </g>
          <g id="Layer_6">
            <circle id="Ellipse_48" class="cls-5" cx="16.4" cy="18.2" r="2.2"/>
          </g>
          <g id="Layer_7">
            <path id="Path_282" class="cls-5" d="M36.3,32.6l-4.6,4.8c-.3.4-.9.4-1.3,0h0l-11.4-10.9c-.4-.3-.4-.9,0-1.3h0l4.6-4.8c.3-.4.9-.4,1.3,0h0l11.4,10.9c.4.3.4.9,0,1.3h0Z"/>
          </g>
          <g id="Layer_8">
            <rect id="Rectangle_365" class="cls-3" x="20.8" y="23.2" width="5.8" height="3.9" transform="translate(-10.8 24.9) rotate(-46.4)"/>
          </g>
          <g id="Layer_8_copy">
            <rect id="Rectangle_366" class="cls-3" x="24.8" y="26.9" width="5.8" height="3.9" transform="translate(-12.3 29) rotate(-46.4)"/>
          </g>
          <g id="Layer_8_copy_2">
            <rect id="Rectangle_367" class="cls-3" x="28.8" y="30.7" width="5.8" height="3.9" transform="translate(-13.8 33.1) rotate(-46.4)"/>
          </g>
        </g>
      </g>
    </g>
  </g>
</svg>