<?xml version="1.0" encoding="UTF-8"?>
<svg xmlns="http://www.w3.org/2000/svg" version="1.1" viewBox="0 0 25 25">
  <defs>
    <style>
      .cls-1 {
        fill: #fff;
      }

      .cls-2 {
        fill: none;
        stroke: #ececec;
      }

      .cls-3 {
        fill: #7c4dff;
      }
    </style>
  </defs>
  <!-- Generator: Adobe Illustrator 28.7.6, SVG Export Plug-In . SVG Version: 1.2.0 Build 188)  -->
  <g>
    <g id="Layer_1">
      <g id="Group_3052">
        <g id="Group_265">
          <g id="Rectangle_169">
            <rect class="cls-3" width="25" height="25" rx="4" ry="4"/>
            <rect class="cls-2" x=".5" y=".5" width="24" height="24" rx="3.5" ry="3.5"/>
          </g>
          <g id="Group_22">
            <g id="Layer_3_copy_5">
              <path id="Path_71" class="cls-1" d="M10.7,12h0c-.1.2-.4.2-.6,0,0,0,0,0,0,0l-4.4-5.6c-.2-.2-.2-.5,0-.7h0c.1-.2.4-.2.6,0,0,0,0,0,0,0l4.4,5.6c.2.2.2.5,0,.7Z"/>
            </g>
            <g id="Layer_3_copy_6">
              <path id="Path_72" class="cls-1" d="M10.1,12.1h0c-.2-.1-.2-.3-.1-.5,0,0,0,0,0,0l4.6-4.4c.2-.2.5-.2.7,0h0c.2.1.2.3.1.5,0,0,0,0,0,0l-4.6,4.4c-.2.2-.5.2-.7,0Z"/>
            </g>
            <g id="Layer_3_copy_4">
              <path id="Path_73" class="cls-1" d="M14.7,7h0c.2-.2.4-.2.5,0l3,4c0,.2,0,.5-.1.6h0c-.2.2-.4.2-.5,0l-3-4c0-.2,0-.5.1-.6Z"/>
            </g>
            <g id="Layer_3_copy_7">
              <path id="Path_74" class="cls-1" d="M13.8,13.8h0c-.2-.3-.2-.6,0-.8l5.5-6c.1-.2.4-.2.6,0,0,0,0,0,0,0h0c.2.3.2.6,0,.8l-5.5,6c-.1.2-.4.2-.6,0,0,0,0,0,0,0Z"/>
            </g>
            <g id="Layer_3_copy">
              <path id="Path_75" class="cls-1" d="M10.4,8.3h0c.1-.2.4-.2.5,0,0,0,0,0,0,0l3.5,4.7c.2.2.1.5,0,.7h0c-.1.2-.4.2-.5,0,0,0,0,0,0,0l-3.5-4.7c-.2-.2-.1-.5,0-.7Z"/>
            </g>
            <g id="Layer_3">
              <path id="Path_76" class="cls-1" d="M5.3,14.5h0c-.2-.2-.2-.5,0-.8l5-5.6c.1-.2.4-.2.6,0,0,0,0,0,0,0h0c.2.2.2.5,0,.8l-5,5.6c-.1.2-.4.2-.6,0,0,0,0,0,0,0Z"/>
            </g>
            <g id="Layer_10">
              <path id="Path_77" class="cls-1" d="M19.2,17.9H5.6c-.4,0-.7-.3-.7-.7v-.2c0-.4.3-.7.7-.7h13.6c.4,0,.7.3.7.7v.2c0,.4-.3.7-.7.7h0Z"/>
            </g>
            <g id="Layer_11_copy">
              <path id="Path_79" class="cls-1" d="M16,19.5h-2c-.5,0-.9-.4-.9-.9,0,0,0,0,0,0v-3.1c0-.5.4-.9.9-.9,0,0,0,0,0,0h2c.5,0,.9.4.9.9,0,0,0,0,0,0v3.1c0,.5-.4.9-.9.9Z"/>
            </g>
            <g id="Layer_13">
              <path id="Path_80" class="cls-1" d="M15.9,16.1h-1.7c-.1,0-.3-.1-.3-.3h0v-.2c0-.1.1-.3.3-.3h1.7c.1,0,.3.1.3.3h0v.2c0,.1-.1.3-.3.3h0Z"/>
            </g>
            <g id="Layer_13_copy">
              <path id="Path_81" class="cls-1" d="M15.9,17.4h-1.7c-.1,0-.3-.1-.3-.3h0v-.2c0-.1.1-.3.3-.3h1.7c.1,0,.3.1.3.3h0v.2c0,.1-.1.3-.3.3,0,0,0,0,0,0Z"/>
            </g>
            <g id="Layer_13_copy_2">
              <path id="Path_82" class="cls-1" d="M15.9,18.7h-1.7c-.1,0-.3-.1-.3-.3h0v-.2c0-.1.1-.3.3-.3h1.7c.1,0,.3.1.3.3h0v.2c0,.1-.1.3-.3.3,0,0,0,0,0,0Z"/>
            </g>
          </g>
        </g>
      </g>
    </g>
  </g>
</svg>