<?xml version="1.0" encoding="UTF-8" standalone="no"?>
<!-- Generator: Adobe Illustrator 21.1.0, SVG Export Plug-In . SVG Version: 6.00 Build 0)  -->

<svg
   xmlns:dc="http://purl.org/dc/elements/1.1/"
   xmlns:cc="http://creativecommons.org/ns#"
   xmlns:rdf="http://www.w3.org/1999/02/22-rdf-syntax-ns#"
   xmlns:svg="http://www.w3.org/2000/svg"
   xmlns="http://www.w3.org/2000/svg"
   xmlns:sodipodi="http://sodipodi.sourceforge.net/DTD/sodipodi-0.dtd"
   xmlns:inkscape="http://www.inkscape.org/namespaces/inkscape"
   version="1.1"
   x="0px"
   y="0px"
   viewBox="0 0 200 200"
   style="enable-background:new 0 0 200 200;"
   xml:space="preserve"
   id="svg2"
   inkscape:version="0.91 r13725"
   sodipodi:docname="BoxPlotChart.svg"><metadata
     id="metadata123"><rdf:RDF><cc:Work
         rdf:about=""><dc:format>image/svg+xml</dc:format><dc:type
           rdf:resource="http://purl.org/dc/dcmitype/StillImage" /></cc:Work></rdf:RDF></metadata><defs
     id="defs121" /><sodipodi:namedview
     pagecolor="#ffffff"
     bordercolor="#666666"
     borderopacity="1"
     objecttolerance="10"
     gridtolerance="10"
     guidetolerance="10"
     inkscape:pageopacity="0"
     inkscape:pageshadow="2"
     inkscape:window-width="1366"
     inkscape:window-height="705"
     id="namedview119"
     showgrid="false"
     inkscape:zoom="1.668772"
     inkscape:cx="-64.875332"
     inkscape:cy="100.08532"
     inkscape:window-x="-8"
     inkscape:window-y="-8"
     inkscape:window-maximized="1"
     inkscape:current-layer="Layer_4" /><style
     type="text/css"
     id="style4">
	.st0{fill:none;stroke:#B3B3B3;stroke-width:2;stroke-miterlimit:10;}
	.st1{fill:#848484;}
	.st2{fill:#006785;}
	.st3{fill:#8ED7F1;}
	.st4{fill:#F7941D;}
	.st5{fill:#FFFFFF;}
	.st6{fill:#41B654;}
	.st7{fill:#D3593C;}
	.st8{display:none;}
	.st9{display:inline;}
	.st10{fill:#AEADAE;}
	.st11{fill:#319E6B;}
	.st12{fill:#7D7C7D;}
	.st13{fill:#026685;}
	.st14{fill:#7D7D7D;}
</style><g
     id="Layer_1"><g
       id="Layer_9"><rect
         class="st0"
         width="200"
         height="200"
         id="rect8" /></g></g><g
     id="Layer_4"><g
       id="Layer_9_copy"><rect
         class="st0"
         width="200"
         height="200"
         id="rect12" /></g><g
       id="Layer_6"
       transform="matrix(1,0,0,0.99179209,-2.5,-0.48905728)"><rect
         x="40"
         y="25.700001"
         class="st1"
         width="5"
         height="146.2"
         id="rect15"
         style="fill:#848484" /></g><g
       id="Layer_6_copy"
       transform="matrix(1,0,0,0.90622536,0,15.97321)"><rect
         x="97.5"
         y="54.099998"
         class="st1"
         width="5"
         height="126.9"
         id="rect18"
         style="fill:#848484" /></g><g
       id="Layer_6_copy_2"
       transform="matrix(1,0,0,1.0334996,2.6000061,-0.63079036)"><rect
         x="154.89999"
         y="24.799999"
         class="st1"
         width="5"
         height="140.3"
         id="rect21"
         style="fill:#848484" /></g><g
       id="Layer_2"
       transform="matrix(0.93896717,0,0,1,0.18779235,0)"><rect
         x="21.1"
         y="42.700001"
         class="st2"
         width="42.599998"
         height="106"
         id="rect24"
         style="fill:#006785" /></g><g
       id="Layer_2_copy"
       transform="matrix(0.93896717,0,0,1,12.206562,0)"><rect
         x="136.10001"
         y="46.299999"
         class="st3"
         width="42.599998"
         height="97.300003"
         id="rect27"
         style="fill:#8ed7f1" /></g><g
       id="Layer_2_copy_2"
       transform="matrix(0.93896717,0,0,0.87119648,6.3849724,21.278341)"><g
         id="g30"><rect
           x="78.400002"
           y="67.5"
           class="st4"
           width="42.599998"
           height="97.699997"
           id="rect32"
           style="fill:#f7941d" /></g></g><g
       id="Layer_6_copy_4"
       transform="matrix(0.93896717,0,0,1,0.07821375,3.0833)"><rect
         x="40"
         y="3.0999999"
         transform="matrix(0,1,-1,0,66.9167,-18.0833)"
         class="st1"
         width="5"
         height="42.599998"
         id="rect35"
         style="fill:#848484" /></g><g
       id="Layer_6_copy_9"
       transform="matrix(0.93896717,0,0,1,6.0798074,15.875)"><rect
         x="97.5"
         y="30.299999"
         transform="matrix(0,1,-1,0,151.625,-48.375)"
         class="st1"
         width="5"
         height="42.599998"
         id="rect38"
         style="fill:#848484" /></g><g
       id="Layer_6_copy_11"
       transform="matrix(0.93896717,0,0,1,12.206379,4.5669061)"><rect
         x="154.89999"
         y="1.6"
         transform="matrix(0,1,-1,0,180.3002,-134.4669)"
         class="st1"
         width="5"
         height="42.599998"
         id="rect41"
         style="fill:#848484" /></g><g
       id="Layer_6_copy_12"
       transform="matrix(0.93896717,0,0,1,12.253317,4.8169061)"><rect
         x="154.89999"
         y="141.39999"
         transform="matrix(0,1,-1,0,320.0502,5.2831)"
         class="st1"
         width="5"
         height="42.599998"
         id="rect44"
         style="fill:#848484" /></g><g
       id="Layer_6_copy_10"
       transform="matrix(0.93896717,0,0,1,6.1032794,-1)"><rect
         x="97.5"
         y="157.2"
         transform="matrix(0,1,-1,0,278.5,78.5)"
         class="st1"
         width="5"
         height="42.599998"
         id="rect47"
         style="fill:#848484" /></g><g
       id="Layer_6_copy_8"
       transform="matrix(0.93896717,0,0,1,-0.34432711,-2.1667)"><rect
         x="40.5"
         y="148.39999"
         transform="matrix(0,1,-1,0,212.6667,126.6667)"
         class="st1"
         width="5"
         height="42.599998"
         id="rect50"
         style="fill:#848484" /></g><g
       id="Layer_6_copy_5"
       transform="matrix(0.93896717,0,0,1,6.4317316,43.183603)"><rect
         x="97.199997"
         y="73.099998"
         transform="matrix(0,1,-1,0,194.0502,-5.3836)"
         class="st5"
         width="5"
         height="42.599998"
         id="rect53"
         style="fill:#ffffff" /></g><g
       id="Layer_6_copy_7"
       transform="matrix(0.93896717,0,0,1,0.23455328,-6.1831015)"><rect
         x="39.900002"
         y="102.4"
         transform="matrix(0,1,-1,0,166.0502,81.2831)"
         class="st5"
         width="5"
         height="42.599998"
         id="rect56"
         style="fill:#ffffff" /></g><g
       id="Layer_6_copy_6"
       transform="matrix(0.93896717,0,0,1,12.253329,-17.183094)"><rect
         x="154.89999"
         y="93.400002"
         transform="matrix(0,1,-1,0,272.0502,-42.7169)"
         class="st5"
         width="5"
         height="42.599998"
         id="rect59"
         style="fill:#ffffff" /></g><g
       id="Layer_30" /><g
       id="Layer_30_copy" /><g
       id="Layer_26" /><g
       id="Layer_38"
       transform="translate(15.299997,-0.49999952)"><circle
         class="st6"
         cx="84.800003"
         cy="22.9"
         r="7.5999999"
         id="circle65"
         style="fill:#41b654" /></g><g
       id="Layer_38_copy_2"
       transform="translate(2.7000041,1.4000001)"><circle
         class="st7"
         cx="157.39999"
         cy="181"
         r="7.5999999"
         id="circle68"
         style="fill:#d3593c" /></g><g
       id="Layer_38_copy_3"
       transform="translate(-21.200003,11.300002)"><circle
         class="st7"
         cx="121.3"
         cy="36.099998"
         r="7.5999999"
         id="circle71"
         style="fill:#d3593c" /></g><g
       id="Layer_38_copy"
       transform="translate(-24.200004,-1.200006)"><circle
         class="st6"
         cx="64.300003"
         cy="183.60001"
         r="7.5999999"
         id="circle74"
         style="fill:#41b654" /></g></g><g
     id="Layer_4_copy"
     class="st8"><g
       id="Layer_6_copy_3_2_"
       class="st9"><rect
         x="40"
         y="51.1"
         class="st10"
         width="5"
         height="123"
         id="rect78" /></g><g
       id="Layer_6_copy_3_1_"
       class="st9"><rect
         x="97.5"
         y="15.1"
         class="st10"
         width="5"
         height="126.9"
         id="rect81" /></g><g
       id="Layer_6_copy_3"
       class="st9"><rect
         x="154.9"
         y="34.8"
         class="st10"
         width="5"
         height="140.3"
         id="rect84" /></g><g
       id="Layer_2_copy_3_2_"
       class="st9"><rect
         x="78.7"
         y="24.8"
         class="st2"
         width="42.6"
         height="106"
         id="rect87" /></g><g
       id="Layer_2_copy_3_1_"
       class="st9"><rect
         x="21.2"
         y="65"
         class="st11"
         width="42.6"
         height="97.3"
         id="rect90" /></g><g
       id="Layer_2_copy_3"
       class="st9"><g
         id="g93"><rect
           x="136.1"
           y="53.3"
           class="st4"
           width="42.6"
           height="97.7"
           id="rect95" /></g></g><g
       id="Layer_25"
       class="st9"><rect
         x="21.2"
         y="181"
         class="st12"
         width="157.4"
         height="5"
         id="rect98" /></g></g><g
     id="Layer_17"
     class="st8"><g
       id="Layer_11"
       class="st9"><rect
         x="21.1"
         y="22.7"
         class="st13"
         width="111.6"
         height="37"
         id="rect102" /></g><g
       id="Layer_11_copy"
       class="st9"><rect
         x="21.1"
         y="82"
         class="st3"
         width="157.6"
         height="37"
         id="rect105" /></g><g
       id="Layer_11_copy_2"
       class="st9"><rect
         x="21.1"
         y="139.7"
         class="st4"
         width="76.9"
         height="37"
         id="rect108" /></g><g
       id="Layer_14"
       class="st9"><rect
         x="147.3"
         y="13"
         class="st14"
         width="7.7"
         height="54"
         id="rect111" /></g><g
       id="Layer_14_copy"
       class="st9"><rect
         x="161.3"
         y="73.7"
         class="st14"
         width="7.7"
         height="54"
         id="rect114" /></g><g
       id="Layer_14_copy_2"
       class="st9"><rect
         x="120.3"
         y="131.2"
         class="st14"
         width="7.7"
         height="54"
         id="rect117" /></g></g></svg>