<svg xmlns="http://www.w3.org/2000/svg" width="25" height="25" viewBox="0 0 25 25">
  <g id="Group_3276" data-name="Group 3276" transform="translate(-1079 -266)">
    <g id="Path_7029" data-name="Path 7029" transform="translate(1079 266)" fill="#7c4dff">
      <path d="M 21 24.5 L 4 24.5 C 2.070090055465698 24.5 0.5 22.92991065979004 0.5 21 L 0.5 4 C 0.5 2.070090055465698 2.070090055465698 0.5 4 0.5 L 21 0.5 C 22.92991065979004 0.5 24.5 2.070090055465698 24.5 4 L 24.5 21 C 24.5 22.92991065979004 22.92991065979004 24.5 21 24.5 Z" stroke="none"/>
      <path d="M 4 1 C 2.345790863037109 1 1 2.345790863037109 1 4 L 1 21 C 1 22.65420913696289 2.345790863037109 24 4 24 L 21 24 C 22.65420913696289 24 24 22.65420913696289 24 21 L 24 4 C 24 2.345790863037109 22.65420913696289 1 21 1 L 4 1 M 4 0 L 21 0 C 23.20914077758789 0 25 1.790859222412109 25 4 L 25 21 C 25 23.20914077758789 23.20914077758789 25 21 25 L 4 25 C 1.790859222412109 25 0 23.20914077758789 0 21 L 0 4 C 0 1.790859222412109 1.790859222412109 0 4 0 Z" stroke="none" fill="#ececec"/>
    </g>
    <g id="Group_88" data-name="Group 88" transform="translate(535 392)">
      <rect id="Rectangle_22" data-name="Rectangle 22" width="3" height="9" transform="translate(551 -118)" fill="#fff"/>
      <rect id="Rectangle_23" data-name="Rectangle 23" width="3" height="6" transform="translate(555 -115)" fill="#fff"/>
      <rect id="Rectangle_24" data-name="Rectangle 24" width="3" height="8" transform="translate(559 -117)" fill="#fff"/>
    </g>
  </g>
</svg>
