<?xml version="1.0" encoding="utf-8"?><!-- Generator: Adobe Illustrator 21.1.0, SVG Export Plug-In . SVG Version: 6.00 Build 0)  --><svg version="1.1" xmlns="http://www.w3.org/2000/svg" xmlns:xlink="http://www.w3.org/1999/xlink" x="0px" y="0px"	 viewBox="0 0 200 200" style="enable-background:new 0 0 200 200;" xml:space="preserve"><style type="text/css">	.st0{display:none;}	.st1{fill:none;stroke:#B3B3B3;stroke-width:2;stroke-miterlimit:10;}	.st2{fill:#AEADAE;}	.st3{fill:#006785;}	.st4{fill:#8ED7F1;}	.st5{fill:#F7941D;}	.st6{fill:#FFFFFF;}	.st7{fill:none;stroke:#808285;stroke-width:6;stroke-miterlimit:10;}	.st8{display:inline;fill:#026886;}	.st9{fill:#066886;}</style><g id="Layer_1" class="st0"></g><g id="Layer_9">	<rect class="st1" width="200" height="200"/></g><g id="Layer_4">	<g id="Layer_6">		<rect x="40" y="20.7" class="st2" width="5" height="123"/>	</g>	<g id="Layer_6_copy">		<rect x="97.5" y="54.1" class="st2" width="5" height="126.9"/>	</g>	<g id="Layer_6_copy_2">		<rect x="154.9" y="24.8" class="st2" width="5" height="140.3"/>	</g>	<g id="Layer_2">		<rect x="21.1" y="28.7" class="st3" width="42.6" height="106"/>	</g>	<g id="Layer_2_copy">		<rect x="136.1" y="46.3" class="st4" width="42.6" height="97.3"/>	</g>	<g id="Layer_2_copy_2">		<rect x="78.4" y="67.5" class="st5" width="42.6" height="97.7"/>	</g></g><g id="Layer_13">	<rect x="25.6" y="24.5" class="st6" width="151" height="151"/></g><g id="Layer_12">	<rect x="23" y="22.5" class="st7" width="155.9" height="155.9"/></g><g id="Layer_11" class="st0">	<polyline class="st8" points="37.3,107.3 49.7,94.8 76.9,122.7 153.4,46.7 164.9,58.6 77.1,146.2 	"/></g><g id="Layer_14">	<polyline class="st9" points="36.2,104.5 54.9,85.6 55.6,85.6 83.9,113.9 150.4,47.5 169,66.8 83.9,151.5 	"/></g></svg>