<?xml version="1.0" encoding="UTF-8"?>
<svg xmlns="http://www.w3.org/2000/svg" version="1.1" viewBox="0 0 50 50">
  <defs>
    <style>
      .cls-1, .cls-2 {
        fill: none;
      }

      .cls-3 {
        fill: #7c4dff;
      }

      .cls-2 {
        stroke: #d3d3d3;
      }
    </style>
  </defs>
  <!-- Generator: Adobe Illustrator 28.7.6, SVG Export Plug-In . SVG Version: 1.2.0 Build 188)  -->
  <g>
    <g id="Layer_1">
      <g id="Group_3062">
        <g id="Rectangle_208">
          <rect class="cls-1" width="50" height="50" rx="6" ry="6"/>
          <rect class="cls-2" x=".5" y=".5" width="49" height="49" rx="5.5" ry="5.5"/>
        </g>
        <g id="Group_155">
          <path id="Subtraction_10" class="cls-3" d="M27.2,29.3h-15.5l3.4-3.4-3.5-3.4h0c0,0,15.6,0,15.6,0l3.5,3.5-3.4,3.4h0Z"/>
          <path id="Subtraction_9" class="cls-3" d="M22,39.7h-10.4l3.5-3.5-3.5-3.4h0s10.4,0,10.4,0l3.4,3.5-3.4,3.4Z"/>
          <path id="Subtraction_11" class="cls-3" d="M35,18.9H11.6c0,0,3.4-3.4,3.4-3.4l-3.4-3.4h0c0,0,23.3,0,23.3,0l3.5,3.3v.3l-3.4,3.3h0Z"/>
        </g>
      </g>
    </g>
  </g>
</svg>