<?xml version="1.0" encoding="UTF-8" standalone="no"?>
<!-- Generator: Adobe Illustrator 21.1.0, SVG Export Plug-In . SVG Version: 6.00 Build 0)  -->

<svg
   xmlns:dc="http://purl.org/dc/elements/1.1/"
   xmlns:cc="http://creativecommons.org/ns#"
   xmlns:rdf="http://www.w3.org/1999/02/22-rdf-syntax-ns#"
   xmlns:svg="http://www.w3.org/2000/svg"
   xmlns="http://www.w3.org/2000/svg"
   xmlns:sodipodi="http://sodipodi.sourceforge.net/DTD/sodipodi-0.dtd"
   xmlns:inkscape="http://www.inkscape.org/namespaces/inkscape"
   version="1.1"
   x="0px"
   y="0px"
   viewBox="0 0 200 200"
   style="enable-background:new 0 0 200 200;"
   xml:space="preserve"
   id="svg2"
   inkscape:version="0.91 r13725"
   sodipodi:docname="CirumplexChart8.svg"><metadata
     id="metadata39"><rdf:RDF><cc:Work
         rdf:about=""><dc:format>image/svg+xml</dc:format><dc:type
           rdf:resource="http://purl.org/dc/dcmitype/StillImage" /><dc:title></dc:title></cc:Work></rdf:RDF></metadata><defs
     id="defs37" /><sodipodi:namedview
     pagecolor="#ffffff"
     bordercolor="#666666"
     borderopacity="1"
     objecttolerance="10"
     gridtolerance="10"
     guidetolerance="10"
     inkscape:pageopacity="0"
     inkscape:pageshadow="2"
     inkscape:window-width="640"
     inkscape:window-height="480"
     id="namedview35"
     showgrid="false"
     inkscape:zoom="1.18"
     inkscape:cx="85.169492"
     inkscape:cy="100"
     inkscape:window-x="0"
     inkscape:window-y="0"
     inkscape:window-maximized="0"
     inkscape:current-layer="svg2" /><style
     type="text/css"
     id="style4">
	.st0{fill:none;stroke:#848484;stroke-miterlimit:10;}
	.st1{fill:none;stroke:#B3B4B4;stroke-width:2;stroke-miterlimit:10;}
	.st2{opacity:0.9;fill:#026685;enable-background:new    ;}
	.st3{opacity:0.9;fill:#D13C3B;enable-background:new    ;}
	.st4{opacity:0.9;fill:#F7941D;enable-background:new    ;}
	.st5{opacity:0.9;fill:#C5D4E8;enable-background:new    ;}
	.st6{opacity:0.9;fill:#BABA33;enable-background:new    ;}
	.st7{opacity:0.9;fill:#6BC289;enable-background:new    ;}
	.st8{opacity:0.9;fill:#5688C0;enable-background:new    ;}
	.st9{opacity:0.9;fill:#7997A3;enable-background:new    ;}
	.st10{opacity:0.9;fill:#747065;enable-background:new    ;}
	.st11{fill:#BA7878;}
	.st12{fill:#60BB68;}
	.st13{fill:#74CEEB;}
</style><g
     id="Layer_1" /><g
     id="Layer_3_copy"><circle
       class="st0"
       cx="99.4"
       cy="100"
       r="55.5"
       id="circle8" /></g><g
     id="Layer_3_copy_2"><circle
       class="st0"
       cx="99"
       cy="100.9"
       r="31.9"
       id="circle11" /></g><g
     id="Layer_3_copy_3"><circle
       class="st0"
       cx="99.7"
       cy="100.2"
       r="85.5"
       id="circle14" /></g><g
     id="Layer_5"><rect
       class="st1"
       width="200"
       height="200"
       id="rect17" /><polygon
       class="st2"
       points="99.4,108.3 99.4,108.4 99.4,108.4  "
       id="polygon19" /><path
       class="st2"
       d="M150.1,39L99.9,99.2l0,0l25.7-74.1C125.6,25.1,138.7,28.4,150.1,39z"
       id="path21" /><path
       class="st3"
       d="M135.5,102l-36-2.4l0.1,0l0,0L135,92C135,92,136.6,97.8,135.5,102z"
       id="path23" /><path
       id="path51_2_"
       inkscape:connector-curvature="0"
       class="st4"
       d="M99.7,99.8l68.5,42c0,0,10.8-19.3,12.3-33.3L99.7,99.8z" /><path
       id="path53_2_"
       inkscape:connector-curvature="0"
       class="st5"
       d="M99.3,99.4l11.2,22.1c0,0,5.3-2,7.1-5.6   C117.6,115.9,99.3,99.4,99.3,99.4z" /><path
       id="path57_2_"
       inkscape:connector-curvature="0"
       class="st6"
       d="M99,99.7l-49.4-15c0,0-5.5,5.3-2.7,22.8L99,99.7z" /><path
       id="path59_2_"
       inkscape:connector-curvature="0"
       class="st7"
       d="M99.4,99.6l-6.9-8.2c0,0-2.8,1.9-3.1,4   C89.4,95.4,99.4,99.6,99.4,99.6z" /><path
       id="path61_2_"
       inkscape:connector-curvature="0"
       class="st8"
       d="M103,85.7l-3.3,13.1l0.6-13.3   C100.3,85.5,101.6,84.7,103,85.7z" /><path
       id="path63_2_"
       inkscape:connector-curvature="0"
       class="st9"
       d="M92,151.9c0,0,6.2,2,19.8-0.9L99.5,99.8L92,151.9z" /><path
       id="path65_2_"
       inkscape:connector-curvature="0"
       class="st10"
       d="M99.5,99.6l-0.4-72.3c0,0-15.2-2.8-27,6.4L99.5,99.6z" /><path
       id="path69_2_"
       inkscape:connector-curvature="0"
       class="st11"
       d="M141.4,60.3L99.9,99.2l54-19.9   C153.8,79.3,151.9,66.8,141.4,60.3z" /><polygon
       id="polygon71_2_"
       class="st12"
       points="99,100.6 67,147.5 86.1,156.3  " /><path
       id="path73_2_"
       inkscape:connector-curvature="0"
       class="st13"
       d="M99.4,99.8l-72.5,33.5c0,0,8.8,16.8,18.9,25.6L99.4,99.8z" /></g></svg>