<?xml version="1.0" encoding="UTF-8"?>
<svg xmlns="http://www.w3.org/2000/svg" version="1.1" viewBox="0 0 50 50">
  <defs>
    <style>
      .cls-1 {
        stroke: #7c4dff;
      }

      .cls-1, .cls-2, .cls-3, .cls-4 {
        fill: none;
      }

      .cls-3 {
        stroke: #ffaf6d;
        stroke-linecap: round;
        stroke-width: 2px;
      }

      .cls-5 {
        fill: #7c4dff;
      }

      .cls-4 {
        stroke: #d3d3d3;
      }
    </style>
  </defs>
  <!-- Generator: Adobe Illustrator 28.7.6, SVG Export Plug-In . SVG Version: 1.2.0 Build 188)  -->
  <g>
    <g id="Layer_1">
      <g id="Group_3065">
        <g id="Rectangle_206">
          <rect class="cls-2" width="50" height="50" rx="6" ry="6"/>
          <rect class="cls-4" x=".5" y=".5" width="49" height="49" rx="5.5" ry="5.5"/>
        </g>
        <rect class="cls-2" x="7.7" y="22" width="34" height="19" rx="2" ry="2"/>
        <rect class="cls-1" x="8.2" y="22.5" width="33" height="18" rx="1.5" ry="1.5"/>
        <rect class="cls-2" x="7.7" y="11" width="34" height="10" rx="2" ry="2"/>
        <rect class="cls-1" x="8.2" y="11.5" width="33" height="9" rx="1.5" ry="1.5"/>
        <path id="Polygon_1" class="cls-5" d="M36.6,18.2c-.2.5-.8.7-1.3.4-.2,0-.4-.3-.4-.4l-1.4-2.8c-.2-.5,0-1.1.4-1.3.1,0,.3-.1.4-.1h2.8c.6,0,1,.4,1,1,0,.2,0,.3-.1.4l-1.4,2.8Z"/>
        <line id="Line_26" class="cls-3" x1="11.4" y1="27.5" x2="32.7" y2="27.5"/>
        <line id="Line_26-2" class="cls-3" x1="11.4" y1="32" x2="32.7" y2="32"/>
        <line id="Line_26-3" class="cls-3" x1="11.4" y1="36.5" x2="32.7" y2="36.5"/>
      </g>
    </g>
  </g>
</svg>