<?xml version="1.0" encoding="utf-8"?><!-- Generator: Adobe Illustrator 21.1.0, SVG Export Plug-In . SVG Version: 6.00 Build 0)  --><svg version="1.1" xmlns="http://www.w3.org/2000/svg" xmlns:xlink="http://www.w3.org/1999/xlink" x="0px" y="0px"	 viewBox="0 0 200 200" style="enable-background:new 0 0 200 200;" xml:space="preserve"><style type="text/css">	.st0{fill:none;stroke:#B3B4B4;stroke-width:2;stroke-miterlimit:10;}	.st1{fill:none;stroke:#9B9A9A;stroke-width:10;stroke-miterlimit:10;}	.st2{fill:#FFFFFF;}	.st3{fill:#026685;}	.st4{fill:#F7941D;}</style><g id="Layer_1"></g><g id="Layer_5">	<rect class="st0" width="200" height="200"/></g><g id="Layer_4">	<path class="st1" d="M171.5,177H69.2c-3.2,0-5.8-2.6-5.8-5.8V43.5c0-3.2,2.6-5.8,5.8-5.8h102.3c3.2,0,5.8,2.6,5.8,5.8v127.7		C177.3,174.4,174.7,177,171.5,177z"/></g><g id="Layer_7">	<rect x="58.3" y="49.3" class="st2" width="10.1" height="7.5"/></g><g id="Layer_7_copy">	<rect x="172.3" y="49.2" class="st2" width="10.1" height="7.5"/>	<polygon class="st2" points="177.5,49.8 182.3,49.8 182.3,45.6 	"/></g><g id="Layer_3">	<path class="st3" d="M179.5,49.3h-160c-1.6,0-2.8-1.3-2.8-2.8V20.2c0-1.6,1.3-2.8,2.8-2.8h160c1.6,0,2.8,1.3,2.8,2.8v26.3		C182.3,48.1,181.1,49.3,179.5,49.3z"/></g><g id="Layer_6">	<polygon class="st2" points="158.4,28.9 171.9,28.9 165.2,39.1 	"/></g><g id="Layer_8">	<rect x="81.7" y="76" class="st4" width="76.8" height="8.7"/></g><g id="Layer_8_copy">	<rect x="81.7" y="91" class="st4" width="76.8" height="8.7"/></g><g id="Layer_8_copy_2">	<rect x="81.9" y="106" class="st4" width="76.8" height="8.7"/></g><g id="Layer_8_copy_3">	<rect x="81.9" y="121" class="st4" width="76.8" height="8.7"/></g><g id="Layer_8_copy_4">	<rect x="81.9" y="136" class="st4" width="76.8" height="8.7"/></g><g id="Layer_8_copy_5">	<rect x="81.9" y="151" class="st4" width="76.8" height="8.7"/></g></svg>