<?xml version="1.0" encoding="UTF-8"?>
<svg xmlns="http://www.w3.org/2000/svg" version="1.1" viewBox="0 0 50 50">
  <defs>
    <style>
      .cls-1, .cls-2 {
        fill: none;
      }

      .cls-3 {
        fill: #ffaf6d;
      }

      .cls-4 {
        fill: #7c4dff;
      }

      .cls-5 {
        fill: #fef8b7;
      }

      .cls-6 {
        fill: #fae872;
      }

      .cls-2 {
        stroke: #d3d3d3;
      }
    </style>
  </defs>
  <!-- Generator: Adobe Illustrator 28.7.6, SVG Export Plug-In . SVG Version: 1.2.0 Build 188)  -->
  <g>
    <g id="Layer_1">
      <g id="Layer_1-2" data-name="Layer_1">
        <g id="Group_3075">
          <g id="Rectangle_206">
            <rect class="cls-1" width="50" height="50" rx="6" ry="6"/>
            <rect class="cls-2" x=".5" y=".5" width="49" height="49" rx="5.5" ry="5.5"/>
          </g>
          <path id="Path_6605" class="cls-4" d="M10.8,42.4c-.6.7-1.5,1.1-2.5,1.1s-1.1,0-1.6-.3-.9-.6-1.3-1c-.4-.4-.7-.9-.9-1.4-.2-.6-.3-1.2-.3-1.8s0-1.2.3-1.7c.2-.5.5-1,.9-1.4s.8-.7,1.4-1c.5-.2,1.1-.4,1.7-.4s1.5.2,2.1.5c.6.3,1,.8,1.3,1.4l-1.3.9c-.2-.4-.5-.8-.9-1s-.8-.4-1.3-.4-.7,0-1,.2-.6.4-.8.6c-.2.3-.4.6-.5.9,0,.4-.2.7-.2,1.1s0,.8.2,1.2c0,.3.3.7.5.9.2.3.5.5.8.6.3.2.7.2,1,.2.9,0,1.8-.5,2.3-1.2v-.6h-1.8v-1.3h3.2v4.5h-1.4v-1,.4ZM17.4,38.3c-.5,0-.9,0-1.4.3-.4.2-.7.5-.9.8v3.9h-1.7v-6.5h1.5v1.4c.1-.2.2-.4.4-.6.2-.2.3-.3.5-.5.2,0,.4-.2.6-.3.2,0,.4,0,.5,0h.3v1.5h.2ZM20,43.5c-.3,0-.6,0-.9-.2-.3,0-.5-.2-.7-.4s-.4-.4-.5-.7-.2-.5-.2-.8,0-.6.2-.8c.1-.3.3-.5.6-.7.3-.2.6-.3.9-.4.4,0,.7-.2,1.1-.2h.8c.3,0,.5,0,.7.2v-.4c0-.4-.1-.7-.4-1s-.7-.4-1.1-.3c-.3,0-.7,0-1,.2-.4,0-.7.3-1,.5l-.5-1.1c.8-.5,1.7-.8,2.7-.8s1.6.2,2.2.7c.5.5.8,1.2.8,2v2.4s.2,0,.3,0v1.4h-.7c-.3,0-.5,0-.7-.2-.2,0-.3-.3-.3-.6v-.4c-.3.4-.7.7-1.1.9s-.9.3-1.3.3v.3ZM20.5,42.3c.3,0,.5,0,.8,0,.2,0,.4-.2.6-.4.2,0,.3-.3.3-.5v-.7c-.2,0-.4,0-.6-.2h-.7c-.4,0-.7,0-1.1.3-.3.2-.4.4-.4.7s.1.5.3.7c.2.2.5.3.8.3h0ZM29.3,43.5c-.5,0-.9,0-1.3-.3s-.7-.5-.9-.9v3.8h-1.7v-9.1h1.4v1.1c.2-.4.5-.7.9-.9s.9-.3,1.3-.3.8,0,1.2.3c.4.2.7.4,1,.7s.5.7.6,1.1c.2.4.2.9.2,1.3s0,.9-.2,1.3c-.1.4-.3.8-.6,1.1-.2.3-.6.5-.9.7-.4.2-.7.3-1.1.3v-.2ZM28.7,42.1c.2,0,.5,0,.7-.2.2,0,.4-.3.5-.4.2-.2.3-.4.3-.6s.1-.5.1-.7c0-.3,0-.5-.1-.8,0-.2-.2-.4-.4-.6-.2-.2-.4-.3-.6-.4-.2,0-.5-.2-.7,0h-.5c-.2,0-.3,0-.5.2-.1,0-.3.2-.4.3s-.2.3-.3.4v1.5c.1.4.4.7.7.9.3.2.6.4,1,.4h.2ZM39.3,43.4h-1.7v-3.6c0-.4,0-.8-.3-1.1s-.5-.4-.8-.4-.3,0-.5,0c-.2,0-.3.2-.5.3s-.3.3-.4.4c0,.2-.2.3-.3.5v3.8h-1.7v-9h1.7v3.8c.2-.4.6-.7,1-1,.4-.2.9-.3,1.4-.3s.7,0,1,.2c.3,0,.5.3.6.6.2.3.3.5.3.8v4.9h.2ZM43.2,43.5c-.5,0-1.1,0-1.6-.3-.5-.2-.9-.4-1.3-.7l.6-1c.4.3.7.5,1.2.6.4,0,.7.2,1.1.2s.5,0,.8-.2c.2,0,.3-.3.3-.5s0-.4-.3-.5c-.4-.2-.7-.3-1.1-.4-.4,0-.8-.2-1.1-.3-.3,0-.5-.2-.7-.4-.2,0-.3-.3-.4-.5,0-.2,0-.4,0-.6,0-.3,0-.6.2-.9,0-.3.3-.5.5-.7s.5-.3.8-.4c.3,0,.7-.2,1,0,.5,0,.9,0,1.4.2.4,0,.8.4,1.2.7l-.7,1c-.3-.2-.6-.4-1-.5-.3,0-.6-.2-.9-.2s-.5,0-.7.2c-.2,0-.3.3-.3.6v.3s0,.2.2.2.3,0,.4.2c.2,0,.4,0,.6.2.4,0,.8.2,1.1.3.3,0,.5.2.8.4.2,0,.3.3.4.5,0,.2,0,.5,0,.7,0,.6-.2,1.1-.7,1.5-.6.4-1.2.6-1.9.6v-.2Z"/>
          <path id="Path_6609" class="cls-3" d="M12.7,9.2h-.5c-.1,0-.2,0-.3.2v1.6h-1v-2.6h.9v.5c0-.2.2-.3.3-.4.1,0,.3-.1.4-.1h.1v.9h.1ZM14.3,11.1c-.2,0-.4,0-.6-.1-.2,0-.3-.2-.5-.3-.1-.1-.2-.3-.3-.4v-1c0-.2.2-.3.3-.4.1-.1.3-.2.5-.3.2,0,.4-.1.6-.1s.4,0,.6.1c.2,0,.3.2.5.3.1.1.2.3.3.4v.7h0c0,.1-1.8.1-1.8.1,0,.1,0,.2.2.3h.6s.2-.1.2-.2l.8.2c-.1.2-.3.4-.5.5s-.5.2-.8.2h-.1ZM14.7,9.4c0-.1,0-.2-.1-.3,0,0-.2-.1-.3-.1s-.2,0-.3.1c0,0-.1.2-.1.3h.9,0ZM16.6,11l-.9-2.6h1l.5,1.9.5-1.9h.9l-.9,2.6h-1.1ZM20,11.1c-.2,0-.4,0-.6-.1-.2,0-.3-.2-.4-.3s-.2-.3-.3-.4v-1c0-.2.2-.3.3-.4.1-.1.3-.2.4-.3.2,0,.4-.1.6-.1s.4,0,.6.1c.2,0,.3.2.5.3.1.1.2.3.3.4v1c0,.2-.2.3-.3.4-.1.1-.3.2-.5.3-.2,0-.4.1-.6.1ZM19.5,9.7c0,.1,0,.3.1.4,0,0,.2.2.3.2s.3,0,.3-.1.1-.3.1-.4,0-.3-.1-.4c0,0-.2-.2-.3-.2s-.3,0-.3.1-.1.3-.1.4ZM21.7,7.4h.9v2.6c0,.2,0,.3.2.3h.2v.7s-.1,0-.3.1h-.4c-.2,0-.4,0-.6-.2-.1-.2-.2-.4-.2-.6v-2.9h.2ZM24.3,11.1c-.2,0-.5,0-.6-.2-.2-.2-.2-.5-.2-.7v-1.7h.9v1.8s.1.1.2.1h.2s.2-.1.2-.2v-1.6h.9v1.8h.1v.8h-.4c-.3,0-.5-.1-.6-.4h0c-.1,0-.3.2-.4.3-.2,0-.4.1-.6.1h.3ZM28.5,10.9c-.1,0-.3.1-.4.2h-.7s-.2,0-.3-.1c0,0-.1-.1-.2-.2v-1.6h-.3v-.7h.3v-.8h1v.8h.5v.7h-.5v1.1h.5l.2.7h-.1ZM28.8,11v-2.6h1v2.6h-1ZM28.8,8.2v-.8h1v.8h-1ZM31.5,11.1c-.2,0-.4,0-.6-.1-.2,0-.3-.2-.5-.3-.1-.1-.2-.3-.3-.4v-1c0-.2.2-.3.3-.4.1-.1.3-.2.5-.3.2,0,.4-.1.6-.1s.4,0,.6.1c.2,0,.3.2.5.3,0,.1.2.3.3.4v1c0,.2-.2.3-.3.4,0,.1-.3.2-.5.3-.2,0-.4.1-.6.1ZM31.1,9.7c0,.1,0,.3.1.4,0,0,.2.2.3.1.1,0,.3,0,.3-.1s.1-.3.1-.4,0-.3-.1-.4c0,0-.2-.2-.3-.1-.1,0-.3,0-.3.1s-.1.3-.1.4ZM36,11h-1v-1.8h-.2s-.2,0-.3.1c0,0-.2.2-.2.3v1.5h-1v-2.6h.9v.4c0-.1.2-.3.4-.3s.4-.1.6-.1h.4s.2.1.2.2c0,0,0,.2,0,.3v2h0ZM37.2,11.1h-.4c0,0-.2-.1-.3-.2,0,0,0-.2-.2-.3v-.7c0-.1,0-.2.2-.3,0,0,.2-.1.4-.2h.5c.2,0,.4,0,.5.1h0c0-.2,0-.3,0-.4,0,0-.2-.1-.3,0h-.4c0,0-.3.1-.4.2l-.3-.6c.4-.2.8-.3,1.2-.3s.7,0,1,.3c.2.2.4.5.3.8v.7h0v.8h-.8s-.2-.2-.2-.3h0c0,0-.2.2-.4.2s-.3.1-.5.1h.1ZM37.5,10.4h.4v-.3h-.7s0,.1,0,.2v.2h.4ZM41.2,9.2h-.5c0,0-.2,0-.3.2v1.6h-1v-2.6h.9v.5c0-.2.2-.3.3-.4,0,0,.3-.1.4-.1h0v.9h0ZM41.5,11.3h.4c.2,0,.3-.1.3-.3l-1-2.6h1l.5,1.8.4-1.8h.9l-.9,2.9c0,.1,0,.2-.2.4,0,.1-.2.2-.3.3,0,0-.2.1-.3.2h-.4c-.2,0-.3,0-.5-.1v-.8h0Z"/>
          <path id="Path_6613" class="cls-5" d="M11.5,15h-.4c-.1,0-.2-.1-.3-.2,0-.1-.2-.2-.2-.3v-.8c0-.1.1-.2.2-.3,0,0,.2-.2.3-.2h.8c.1,0,.2.1.3.3v-1.1h.8v2.3h.1v.6h-.3c-.3,0-.4,0-.4-.3h0s-.2.1-.3.2h-.4l-.2-.2ZM11.8,14.4c.1,0,.3,0,.4-.2v-.4s0-.2-.2-.2h-.5v.4c0,.1,0,.2.1.3,0,0,.2.1.3.1h-.1ZM13.9,15v-2.1h.8v2.1h-.8ZM13.9,12.7v-.6h.8v.6h-.8ZM16.5,15h-.5c-.2,0-.3-.1-.4-.3l.3-.5c0,0,.2.1.4.2h.5c0-.1-.2-.1-.2-.1-.1,0-.2,0-.4-.1,0,0-.2,0-.2-.1,0,0-.1,0-.1-.2v-.5s.1-.2.2-.2c0,0,.2-.1.3-.2h.7c.2,0,.3.1.4.2l-.3.5c-.1,0-.2-.1-.3-.2h-.3c0,.1.2.1.3.1s.3,0,.4.1c0,0,.2,0,.2.1,0,0,.1.1.1.2v.5s0,.2-.2.2c0,0-.2.1-.3.1h-.4l-.2.2ZM19.7,14.9c-.1,0-.2,0-.3.1h-.8s-.1-.1-.1-.2v-1.3h-.3v-.6h.3v-.7h.8v.7h.4v.6h-.4v.7h0q0,.1.1.1h.2v.6h.1ZM20.5,15v-2.1h.8v2.1h-.8ZM20.5,12.7v-.6h.8v.6h-.8ZM24.4,15h-.8v-1.4h-.4s-.1.1-.2.2v1.2h-.8v-2.1h.7v.3c0-.1.2-.2.3-.3h.8s.1.1.2.2v1.8h.2ZM25.3,14v-.4c0-.1.1-.2.2-.3s.2-.2.4-.2h.5c.2,0,.4,0,.6.2.2,0,.3.2.4.4l-.7.2s-.2-.2-.3-.2-.2,0-.3.1c0,0-.1.2-.1.3s0,.2.1.3c0,0,.2.1.3.1s.2,0,.3-.2l.7.2c0,.2-.2.3-.4.4s-.4.2-.6.2h-.5c-.1,0-.3-.1-.4-.2,0,0-.2-.2-.2-.3v-.6ZM29.8,14.9c-.1,0-.2,0-.3.1h-.6s-.1,0-.2-.1c0,0-.1-.1-.1-.2v-1.3h-.3v-.6h.3v-.7h.8v.7h.4v.6h-.4v.7h0q0,.1.1.1h.2v.6h.1ZM30.6,15v-2.1h.8v2.1h-.8ZM30.6,12.7v-.6h.8v.6h-.8ZM33.4,15h-.5c0,0-.3-.1-.4-.2,0,0-.2-.2-.2-.3v-.8c0-.1,0-.2.2-.3,0-.1.2-.2.4-.2h1c0,0,.3.1.4.2,0,0,.2.2.2.3v.8c0,.1,0,.2-.2.3,0,.1-.2.2-.4.2h-.5ZM33,14c0,.1,0,.2,0,.3,0,0,.2.1.3.1s.2,0,.3-.1c0,0,0-.2,0-.3s0-.2,0-.3c0,0-.2-.1-.3-.1s-.2,0-.3.1c0,0,0,.2,0,.3ZM37.5,15h-.8v-1.4h-.4s0,.1-.2.2v1.2h-.8v-2.1h.7v.3c0-.1.2-.2.3-.3h.8s0,.1.2.2v1.8h.2ZM39.3,15h-.5c-.2,0-.3-.1-.4-.3l.3-.5c0,0,.2.1.4.2h.5c0-.1-.2-.1-.2-.1,0,0-.3,0-.4-.1,0,0-.2,0-.2-.1,0,0,0,0,0-.2v-.5s0-.2.2-.2c0,0,.2-.1.3-.2h.7c.2,0,.3.1.4.2l-.3.5c0,0-.2-.1-.3-.2h-.3c0,.1.2.1.3.1s.3,0,.4.1c0,0,.2,0,.2.1,0,0,0,.1,0,.2v.5s0,.2-.2.2c0,0-.2.1-.3.1h-.4l-.2.2Z"/>
          <path id="Path_6610" class="cls-4" d="M43.7,34.7v.4c0,0,0,.2-.2.3,0,0-.2.2-.3.2h-.8c0,0-.2,0-.3-.2,0,0-.2-.2-.2-.3v-.8c0,0,0-.2.3-.3h-1.1v-.8h2.3c0,0,.6,0,.6,0v.3c0,.3,0,.4-.3.4h0c0,0,.2.2.3.3v.4l-.3.2ZM43,34.5c0,0,0-.3-.2-.4h-.4s-.2,0-.2.2v.4h0q0,0,0,0h.2c0,0,.2,0,.3,0,0,0,0-.2,0-.3h0ZM43.6,33h-2.1v-.8h2.1v.8ZM41.3,33h-.6v-.8h.6v.8ZM43.7,30.9v.5c0,.2,0,.3-.3.4l-.5-.3c0-.1,0-.2.2-.4v-.5h0v.2c0,.1,0,.2,0,.4,0,0,0,.2,0,.2,0,0,0,.1-.2.1h-.5s-.2-.1-.2-.2c0,0,0-.2-.2-.3v-.7c0-.2,0-.3.2-.4l.5.3c0,.1,0,.2-.2.3v.2h0q0,.1,0,.1v-.3c0-.1,0-.3,0-.4,0,0,0-.2,0-.2,0,0,0-.1.2-.1h.5s.2,0,.2.2c0,0,0,.2,0,.3v.4l.2.2ZM43.5,28.4c0,.1,0,.2,0,.3v.8s0,.1-.2.1h-1.3v.3h-.6v-.3h-.7v-.8h.7v-.4h.6v.4h.8v-.2h0c0-.1.6-.1.6-.1h0ZM43.6,28.1h-2.1v-.8h2.1v.8ZM41.3,28.1h-.6v-.8h.6v.8ZM43.6,24.9v.8h-1.4v.4s0,.1.2.2h1.2v.8h-2.1v-.7h.3c0,0-.2-.2-.3-.3v-.8s0-.1.2-.2h1.8v-.2ZM42.6,24.6h-.4c0,0-.2-.1-.3-.2s-.2-.2-.2-.4v-.5c0-.2,0-.4.2-.6,0-.2.2-.3.4-.4l.2.7s-.2.2-.2.3,0,.2,0,.3c0,0,.2.1.3.1s.2,0,.3-.1c0,0,0-.2,0-.3s0-.2-.2-.3l.2-.7c.2,0,.3.2.4.4,0,.2.2.4.2.6v.5c0,.1,0,.3-.2.4,0,0-.2.2-.3.2h-.6ZM43.5,20.7c0,.1,0,.2,0,.3v.6s0,.1,0,.2c0,0,0,.1-.2.1h-1.3v.3h-.6v-.3h-.7v-.8h.7v-.4h.6v.4h.8v-.2h0c0-.1.6-.1.6-.1h.1ZM43.6,20.5h-2.1v-.8h2.1v.8ZM41.3,20.5h-.6v-.8h.6v.8ZM43.7,18.3v.5c0,.1,0,.3-.2.4,0,0-.2.2-.3.2h-.8c0,0-.2-.1-.3-.2s-.2-.2-.2-.4v-1c0-.1,0-.3.2-.4,0,0,.2-.2.3-.2h.8c0,0,.2.1.3.2s.2.2.2.4v.5ZM42.6,18.7c0,0,.2,0,.3-.1,0,0,0-.2,0-.3s0-.2,0-.3c0,0-.2-.1-.3-.1s-.2,0-.3.1c0,0,0,.2,0,.3s0,.2,0,.3c0,0,.2.1.3.1ZM43.6,14.8v.8h-1.4v.4s0,.1.2.2h1.2v.8h-2.1v-.7h.3c0,0-.2-.2-.3-.3v-.8s0-.1.2-.2h1.8v-.2ZM43.7,13.6v.5c0,.2,0,.3-.3.4l-.5-.3c0-.1,0-.2.2-.4v-.5h0v.2c0,.1,0,.3,0,.4,0,0,0,.2,0,.2,0,0,0,.1-.2.1h-.5s-.2-.1-.2-.2c0,0,0-.2-.2-.3v-.7c0-.2,0-.3.2-.4l.5.3c0,.1,0,.2-.2.3v.2h0q0,.1,0,.1v-.3c0-.1,0-.3,0-.4,0,0,0-.2,0-.2,0,0,0-.1.2-.1h.5s.2,0,.2.2c0,0,0,.2,0,.3v.4l.2.2Z"/>
          <path id="Path_6607" class="cls-3" d="M10.4,33.3v-2.6h.9v2.6h-.9ZM10.4,30.4v-.8h.9v.8h-.9ZM16,33.3h-.9v-1.8h-.2s-.2,0-.2.1c0,0-.2.2-.2.3v1.5h-1v-1.8h-.2s-.2,0-.2.1c0,0-.2.2-.2.3v1.5h-.9v-2.6h.9v.4c0-.1.2-.3.4-.3s.4-.1.6-.1h.5s.1,0,.1.1v.2c0-.1.2-.3.4-.3s.4-.1.6-.1h.4s.2.1.2.2v2.3h-.1ZM18.3,33.3c-.2,0-.3,0-.5,0-.1,0-.3-.2-.3-.3v1.5h-1v-3.7h.8v.4c0-.1.2-.2.3-.3.2,0,.3-.1.5-.1h.5c.1,0,.3.2.4.3.1.1.2.3.3.4v1c0,.2-.1.3-.2.4,0,0-.2.2-.4.3-.1,0-.3,0-.4,0h0ZM17.9,32.5h.2s.1,0,.1,0c0,0,0,0,.1-.2v-.2c0-.1,0-.3-.1-.4,0-.1-.2-.2-.4-.1-.2,0-.4.1-.4.3v.5c0,0,.1.2.2.3,0,0,.2,0,.3,0v-.2ZM20.5,33.3h-.4c-.1,0-.2,0-.3-.2,0,0-.1-.2-.2-.3v-.7c0-.1.1-.2.2-.3.1,0,.2-.1.4-.2h.5c.2,0,.4,0,.5.1h0c0-.2,0-.3-.1-.4-.1,0-.2-.1-.3,0h-.4c-.1,0-.3.1-.4.2l-.3-.6c.4-.2.8-.3,1.2-.3s.7,0,1,.3.4.5.3.8v.7h.1v.8h-.8s-.1-.2-.2-.3h0c-.1,0-.2.2-.4.2s-.3,0-.5,0h0ZM20.8,32.7h.4v-.3h-.7s-.1,0-.1.2v.2h.4ZM22.6,32v-.5c0-.2.2-.3.3-.4.1-.1.3-.2.5-.3.2,0,.4-.1.6-.1.3,0,.6,0,.8.2.2.1.4.3.5.5l-.9.3c0-.1-.2-.2-.4-.2s-.2,0-.3.1c0,.1-.1.3-.1.4,0,.2,0,.3.1.4,0,0,.2,0,.3,0s.3,0,.4-.2l.9.3c-.1.2-.3.4-.5.5s-.5.2-.8.2-.4,0-.6,0c-.2,0-.3-.2-.5-.3-.1,0-.2-.3-.3-.4v-.5ZM27.5,33.1c-.1,0-.3,0-.4,0h-.7s-.2,0-.3,0c0,0-.1,0-.2-.2v-1.6h-.3v-.7h.3v-.8h.9v.8h.5v.7h-.5v1.1h.5l.2.8h0Z"/>
          <path id="Path_6611" class="cls-4" d="M30.4,31.4h-.5c-.1,0-.2,0-.3.2v1.6h-1v-2.6h.9v.5c0-.2.2-.3.3-.4.1,0,.3-.1.4-.1h.1v.9h.1ZM32,33.3c-.2,0-.4,0-.6,0-.2,0-.3-.2-.5-.3-.1,0-.2-.3-.3-.4v-1c0-.2.2-.3.3-.4.1-.1.3-.2.5-.3.2,0,.4-.1.6-.1s.4,0,.6.1c.2,0,.3.2.5.3,0,.1.2.3.3.4v.7h0c0,0-1.8,0-1.8,0,0,0,0,.2.2.3h.6s.2,0,.2-.2l.8.2c0,.2-.3.4-.5.5s-.5.2-.8.2h0ZM32.4,31.6c0-.1,0-.2,0-.3,0,0-.2-.1-.3-.1s-.2,0-.3.1c0,0-.1.2-.1.3h.9-.1ZM34.5,33.3h-.4c0,0-.2,0-.3-.2,0,0,0-.2-.2-.3v-.7c0-.1,0-.2.2-.3,0,0,.2-.1.4-.2h.5c.2,0,.4,0,.5.1h0c0-.2,0-.3,0-.4,0,0-.2-.1-.3,0h-.4c0,0-.3.1-.4.2l-.3-.6c.4-.2.8-.3,1.2-.3s.7,0,1,.3.4.5.3.8v.7h0v.8h-.8s-.2-.2-.2-.3h0c0,0-.2.2-.4.2s-.3,0-.5,0h.1ZM34.8,32.6h.4v-.3h-.7s0,0,0,.2v.2h.4ZM37.8,33.3c-.2,0-.3,0-.5,0,0,0-.3-.2-.4-.3,0,0-.2-.3-.3-.4v-1.1c0-.2,0-.3.2-.4,0-.1.2-.2.4-.3,0,0,.3-.1.5,0,.2,0,.3,0,.5.1,0,0,.3.2.3.3v-1.4h.9v2.8h.2v.8h-.4c-.3,0-.5,0-.6-.4h0s-.2.2-.4.2-.3,0-.5,0h0ZM38.1,32.5c.2,0,.4,0,.4-.3v-.5c0-.1,0-.2-.2-.3,0,0-.2-.1-.3-.1h-.2s0,0,0,.1c0,0,0,.1,0,.2v.2c0,.1,0,.3,0,.4,0,0,.2.2.4,0v.2Z"/>
          <path id="Path_6606" class="cls-3" d="M6.4,32.2c-.3,0-.5,0-.8-.2-.3-.1-.5-.3-.7-.5s-.4-.5-.4-.8c0-.3-.2-.7-.2-1.1s0-1,.3-1.4c.2-.3.4-.6.8-.8l.4,1.6c-.2.2-.3.4-.3.6s0,.4.2.6.4.2.6.2.5,0,.6-.2.2-.4.2-.6,0-.5-.3-.6l.4-1.6c.3.2.6.5.8.8.2.4.3.9.3,1.4s0,.7-.2,1.1c0,.3-.3.6-.4.8-.2.2-.4.4-.7.5-.2,0-.5.2-.8.2h.2ZM8.5,24.8c0,.4,0,.7-.2,1.1,0,.3-.3.6-.4.8-.2.2-.4.4-.7.5-.2.1-.5.2-.8.2s-.5,0-.8-.2c-.2-.1-.5-.3-.6-.5-.2-.2-.4-.5-.4-.8,0-.3-.2-.7-.2-1.1s0-.7.2-1.1c0-.3.3-.6.4-.8.2-.2.4-.4.7-.5.2-.1.5-.2.8-.2s.5,0,.8.2c.3.1.5.3.7.5s.4.5.4.8c.1.3.2.7.2,1.1h0ZM6.4,25.6c.2,0,.5,0,.6-.2.2-.2.2-.4.2-.6s0-.4-.2-.6-.4-.2-.6-.2-.5,0-.6.2c-.2.2-.2.4-.2.6s0,.4.2.6.4.2.6.2ZM8.4,14.3v1.7h-2.2c-.2,0-.3,0-.4.1,0,0,0,.2,0,.3,0,.2,0,.3.2.4,0,.1.2.3.4.3h2.2v1.7h-2.2c-.2,0-.3,0-.4.1,0,0,0,.2,0,.3,0,.2,0,.3.2.4,0,.1.2.3.4.3h2.2v1.7h-3.9v-1.5h.6c-.2-.2-.4-.4-.5-.7,0-.3-.2-.7-.2-1v-.5c0-.1,0-.2.2-.4,0,0,0-.2.2-.2,0,0,.2-.1.3-.1-.2-.2-.4-.4-.5-.7,0-.3-.2-.6-.2-1s0-.5,0-.7c0-.2.2-.3.4-.4,0,0,.3-.2.5-.2h3-.2ZM8.5,11.2c0,.4,0,.7-.2,1.1,0,.3-.2.6-.4.8-.2.2-.4.4-.6.5s-.5.2-.8.2-.6,0-.8-.2c-.3-.1-.5-.3-.7-.5s-.4-.5-.5-.8-.2-.7-.2-1.1,0-.7.2-1.1c0-.3.3-.6.4-.8.2-.2.4-.4.7-.5.2-.1.5-.2.8-.2h.4v3.2c.2,0,.4-.1.5-.3,0-.2,0-.3,0-.5v-.5c0-.1-.2-.3-.3-.3l.3-1.4c.3.2.6.5.8.9.2.4.3.9.3,1.4h0ZM6,10.5c-.2,0-.3.1-.5.2,0,.1-.2.3-.2.5s0,.4.2.5c0,.1.3.2.4.2v-1.5h0Z"/>
          <path id="Path_6612" class="cls-4" d="M10.5,19.7c0-.2,0-.5.1-.7,0-.2.2-.4.4-.6s.4-.3.6-.4c.3-.1.6-.2.9-.2s.8,0,1.1.3c.3.2.5.4.7.7l-1.3.4c-.1-.2-.3-.3-.5-.3s-.3,0-.5.2c-.1.2-.2.4-.2.6s0,.4.2.6c.1.1.3.2.5.2s.4,0,.5-.3l1.3.4c-.2.3-.4.5-.7.7s-.7.3-1.1.3-.6,0-.9-.2c-.2,0-.5-.2-.6-.4-.2-.2-.3-.4-.4-.6,0-.2-.1-.5-.1-.7ZM16.6,21.6h-.5c-.2,0-.3-.1-.4-.2-.1-.1-.2-.2-.3-.4,0-.1-.1-.3,0-.5,0-.2,0-.4.1-.5,0-.2.2-.3.3-.4s.3-.2.5-.3h.6c.3,0,.5,0,.7.1h0c0-.3,0-.4-.2-.5-.1,0-.3-.1-.5-.1h-.6c-.2,0-.4.2-.6.3l-.4-.8c.5-.3,1.1-.5,1.7-.5s1,.1,1.4.4c.3.3.5.7.5,1.2v1h.2v1.1h-.6c-.2,0-.4,0-.5-.1-.1,0-.2-.2-.2-.4h0c-.2,0-.3.2-.6.3-.2.1-.4.2-.7.2h0ZM17,20.6h.2s.2,0,.2-.1h.1v-.5h-.6c-.1,0-.3,0-.4.1-.1,0-.2.2-.2.3,0,0,0,.2.1.3,0,0,.2.1.3,0h.3ZM23.1,21.6c-.2,0-.5,0-.7-.2-.2-.1-.4-.3-.5-.5v2h-1.3v-5.2h1.2v.6c.1-.2.3-.3.5-.5.2-.1.5-.2.7-.2s.5,0,.7.1c.2,0,.4.2.5.4.2.2.3.4.4.6,0,.2.1.5.1.8s0,.5-.1.8c0,.2-.2.4-.3.6-.1.2-.3.3-.5.4-.2,0-.4.1-.6.1v.2ZM22.6,20.5h.3s.2-.1.2-.2c0,0,.1-.2.1-.3v-.3c0-.2,0-.4-.2-.6s-.3-.2-.5-.2c-.3,0-.5.2-.6.4v.6c0,.2.2.3.3.4.1.1.3.2.4.2ZM26,21.5v-3.7h1.3v3.7h-1.3ZM26,17.5v-1.1h1.3v1.1h-1.3ZM31.4,21.3c-.2,0-.4.1-.6.2h-1c-.1,0-.3,0-.4-.2-.1,0-.2-.2-.2-.3v-2.2h-.5v-1h.5v-1.2h1.3v1.2h.7v1h-.7v1.5h.7l.2,1.1h0ZM33.7,21.6h-.5c-.2,0-.3-.1-.4-.2,0-.1-.2-.2-.3-.4,0-.1,0-.3,0-.5s0-.4,0-.5c0-.2.2-.3.3-.4s.3-.2.5-.3h.6c.3,0,.5,0,.7.1h0c0-.3,0-.4-.2-.5,0,0-.3-.1-.5-.1h-.6c-.2,0-.4.2-.6.3l-.4-.8c.5-.3,1.1-.5,1.7-.5s1,.1,1.4.4c.3.3.5.7.5,1.2v1h.2v1.1h-.6c-.2,0-.4,0-.5-.1,0,0-.2-.2-.2-.4h0c-.2,0-.3.2-.6.3-.2.1-.4.2-.7.2h.2ZM34.1,20.6h.2s.2,0,.2-.1h0v-.5h-.6c0,0-.3,0-.4.1,0,0-.2.2-.2.3,0,0,0,.2,0,.3,0,0,.2.1.3,0h.3ZM37.6,16.4h1.3v3.6c0,.3,0,.4.3.4h.4l.2,1c-.2,0-.4.1-.5.2h-.6c-.3,0-.6,0-.8-.3-.2-.2-.3-.5-.3-.8,0,0,0-4.1,0-4.1Z"/>
          <path id="Path_6608" class="cls-6" d="M16.8,24.1h1.5l-1.8,4h-1.3l-.6-1.5-.6,1.5h-1.3l-1.8-4h1.5l1.1,2.7.3-.9-.8-1.8h1.3l.4,1.2.4-1.2h1.3l-.8,1.8.3.9,1.1-2.7h-.2ZM20.6,28.1c-.3,0-.7,0-1-.2-.3,0-.5-.2-.8-.4-.2-.2-.4-.4-.5-.6s-.2-.5-.2-.8,0-.6.2-.8c.1-.3.3-.5.5-.7s.5-.4.8-.5.7-.2,1-.2.7,0,1,.2c.3,0,.5.3.8.5.2.2.4.4.5.7.1.2.2.5.2.8v.4h-3.1c0,.2.1.4.3.5.2,0,.3.1.5.1h.5c.1,0,.2-.2.3-.3l1.3.3c-.2.3-.5.6-.8.8-.4.2-.9.3-1.4.3h0ZM21.3,25.6c0-.2-.1-.3-.2-.4s-.3-.2-.5-.2-.4,0-.5.2c-.1.1-.2.3-.2.4h1.5,0ZM24.8,28.1c-.2,0-.4,0-.6-.1-.2,0-.3-.1-.5-.3-.1-.1-.2-.2-.3-.4,0-.2-.1-.3-.1-.5s0-.4.1-.6c0-.2.2-.3.4-.4.2-.1.4-.2.6-.3.2,0,.5-.1.8-.1s.6,0,.9.2h0c0-.3,0-.4-.2-.5s-.4-.2-.6-.1c-.2,0-.5,0-.7.1-.2,0-.5.2-.7.3l-.5-.9c.6-.3,1.3-.5,2-.5s1.1.1,1.6.4c.4.3.6.8.6,1.3v1.1h.2v1.2h-.7c-.2,0-.4,0-.6-.1-.1,0-.3-.2-.3-.4h0c-.2,0-.4.3-.7.4-.3.1-.5.2-.8.2h.1ZM25.3,27.1h.3s.2,0,.3-.1c0,0,.1,0,.2-.1h0v-.4h-.6c-.2,0-.3,0-.5.1-.1,0-.2.2-.2.3s0,.2.1.3c.1,0,.2.1.4,0h0ZM28.5,22.5h1.6v3.9c0,.3.1.5.4.5h.4l.2,1.1c-.2,0-.4.1-.6.2h-.7c-.4,0-.7,0-1-.3s-.4-.5-.3-.9v-4.4h0ZM34.5,27.8c-.2,0-.5.2-.7.2h-1.2c-.2,0-.3-.1-.4-.2,0,0-.2-.2-.3-.4,0-.2-.1-.4-.1-.5v-1.8h-.5v-1.1h.5v-1.2h1.6v1.2h.9v1.1h-.9v1.6h.9l.3,1.1h0ZM39.4,28h-1.6v-2.2c0-.2,0-.3,0-.4,0,0-.2-.1-.4-.1h-.2s0,0-.2.1c0,0,0,.1-.2.2,0,0,0,.1-.2.2v2.2h-1.6v-5.5h1.6v2.1c.2-.2.4-.4.6-.5.3-.1.6-.2.8-.2.3,0,.5,0,.7.1.2,0,.3.2.4.4,0,.1.2.3.2.5v3.1h.2Z"/>
        </g>
      </g>
    </g>
  </g>
</svg>