<?xml version="1.0" encoding="UTF-8"?>
<svg xmlns="http://www.w3.org/2000/svg" version="1.1" viewBox="0 0 50 50">
  <defs>
    <style>
      .cls-1, .cls-2 {
        fill: none;
      }

      .cls-3 {
        fill: #ffaf6d;
      }

      .cls-4 {
        fill: #7c4dff;
      }

      .cls-5 {
        fill: #fae872;
      }

      .cls-2 {
        stroke: #d3d3d3;
      }
    </style>
  </defs>
  <!-- Generator: Adobe Illustrator 28.7.6, SVG Export Plug-In . SVG Version: 1.2.0 Build 188)  -->
  <g>
    <g id="Layer_1">
      <g id="Layer_1-2" data-name="Layer_1">
        <g id="Group_3074">
          <g id="Rectangle_206">
            <rect class="cls-1" width="50" height="50" rx="6" ry="6"/>
            <rect class="cls-2" x=".5" y=".5" width="49" height="49" rx="5.5" ry="5.5"/>
          </g>
          <path id="Path_6569" class="cls-4" d="M10.8,24.2c-.3.9-.4,1.8-.5,2.8,0,1.3-2,2-2,2,0,0-1,.7.3,1.7s-.9,1.5-.9,1.5l-3.1.7s-1.5.3,0,1c1.3.4,2.5,1.2,3.3,2.4.5.7.8,1.5,1.1,2.3.3.5.6.9,1,1.3.5.8.8,1.7.9,2.6,0-.9.3-1.8.8-2.5.6-.8,1.1-1.7,1.5-2.6.4-1.1,1.3-2.1,2.3-2.7,1.1-.5,3.3-1.2,1.5-1.7s-4.6-.7-4.4-1.6,2.2-1.3.7-2.1-1.8-1.3-1.9-2.3c0-.9-.2-1.7-.5-2.5v-.3Z"/>
          <path id="Path_6570" class="cls-3" d="M25.5,13.1c0,1.5-.5,2.9-1.3,4.1-1.2,1.5-1.1,1.1,0,2.7,0,0,.7.9-1,2.4s-1.3,1.9-.3,2.8.3,1.3-1.1,2,1.3,2.3,1.3,2.3c0,0,2.4,1.3,1.9,2.3-.5,1-.9,1.4,0,2.8s.7,1.8.7,2.4c.1-1,.4-1.9.7-2.8.5-.8.4-1.8-.3-2.5-.7-.8,1.3-1.7,1.3-1.7,0,0,3.6-2.2,2-2.9s-2.1-1.2-1.2-2.2,1-1,0-2-1.6-2-1.3-3.2c0,0,1.4-.7.1-2.1s-1.3-3.5-1.4-4.4"/>
          <path id="Path_6571" class="cls-5" d="M40,5.5c.3.9,0,1.9-.8,2.5,0,0-2,1.1-.4,2.2s.7,1.8,0,2.2-.4.8.6,1.8-1,2.1-1,2.1c0,0-.5.2-.3,1.6s-1.3,2-1.3,2c0,0-1.9,1.6.8,3.3,0,0,1.1.3.8,1.8s1.6,3.8,1.6,3.8v.9l1.5-2.8c.4-.8.6-1.7.3-2.6,0-.7.6-1.3,1.3-1.6,1.3-.7,1-2.6.5-3-.4-.3-1.6-.5-1.3-2.2.2-.9-.4-1.7-1.3-1.9h0s-1.3-.8.2-1.8,0-1.8,0-1.8c0,0-1-.8,0-1.6s1.6-1.1.2-2.3c-.9-.6-1.3-1.6-1.2-2.6h-.2Z"/>
          <path id="Path_6572" class="cls-5" d="M40.1,33.3c0,.5-.2.9-.3,1.3-.2.3.5,2,.5,2,.3-.6.4-1.3.4-2,0,0-.6-1.3-.6-1.3Z"/>
        </g>
      </g>
    </g>
  </g>
</svg>