<?xml version="1.0" encoding="utf-8"?>
<!-- Generator: Adobe Illustrator 21.1.0, SVG Export Plug-In . SVG Version: 6.00 Build 0)  -->
<svg version="1.1" xmlns="http://www.w3.org/2000/svg" xmlns:xlink="http://www.w3.org/1999/xlink" x="0px" y="0px"
	 viewBox="0 0 100 100" style="enable-background:new 0 0 100 100;" xml:space="preserve">
<style type="text/css">
	.st0{display:none;}
	.st1{fill:#EA902F;}
	.st2{fill:none;stroke:#006684;stroke-width:3;stroke-miterlimit:10;}
	.st3{fill:#006684;stroke:#FFFFFF;stroke-width:2;stroke-miterlimit:10;}
</style>
<g id="Layer_1">
	<g id="Layer_1_1_" class="st0">
		
			<image style="display:inline;overflow:visible;enable-background:new    ;" width="265" height="284" xlink:href="C:\Users\BIZVIZ\Desktop\Untitled-2.png"  transform="matrix(0.3136 0 0 0.3136 6.9363 6.8632)">
		</image>
	</g>
	<rect x="61.4" y="41.5" class="st1" width="7.3" height="26.6"/>
	<rect x="37.9" y="44.6" class="st1" width="7.3" height="23.5"/>
	<rect x="49.2" y="49.4" class="st1" width="7.3" height="18.7"/>
	<rect x="24.9" y="52.2" class="st1" width="7.3" height="15.9"/>
	<polygon class="st1" points="20.5,45.2 23.6,48.6 39.3,33.6 50.7,43.5 68.8,25.1 65.1,22.3 50.7,36.6 40,26.7 	"/>
</g>
<g id="Layer_2_1_">
	<path class="st2" d="M74.3,82.2h-55c-2.5,0-4.5-2-4.5-4.5V17.5c0-2.5,2-4.5,4.5-4.5h55c2.5,0,4.5,2,4.5,4.5v60.2
		C78.8,80.2,76.8,82.2,74.3,82.2z"/>
</g>
<g id="Layer_3">
	<polygon class="st3" points="70.6,56.5 93.1,56.5 93.1,65.1 70.7,65.1 70.7,72 57.9,60.6 70.6,49.3 	"/>
</g>
</svg>
