<?xml version="1.0" encoding="UTF-8"?>
<svg xmlns="http://www.w3.org/2000/svg" version="1.1" viewBox="0 0 50 50">
  <defs>
    <style>
      .cls-1 {
        fill: #ffd3af;
      }

      .cls-2 {
        fill: #fffde2;
      }

      .cls-3 {
        stroke: #fff;
      }

      .cls-3, .cls-4, .cls-5, .cls-6 {
        fill: none;
      }

      .cls-3, .cls-5 {
        stroke-miterlimit: 10;
      }

      .cls-7 {
        fill: #ffaf6d;
      }

      .cls-5 {
        stroke: #e6e7e8;
      }

      .cls-8 {
        fill: #f1f2f2;
      }

      .cls-9 {
        fill: #7c4dff;
      }

      .cls-10 {
        fill: #fae872;
      }

      .cls-6 {
        stroke: #d3d3d3;
      }
    </style>
  </defs>
  <!-- Generator: Adobe Illustrator 28.7.6, SVG Export Plug-In . SVG Version: 1.2.0 Build 188)  -->
  <g>
    <g id="Layer_1">
      <g id="Layer_1-2" data-name="Layer_1">
        <g id="Group_3070">
          <g id="Rectangle_206">
            <rect class="cls-4" width="50" height="50" rx="6" ry="6"/>
            <rect class="cls-6" x=".5" y=".5" width="49" height="49" rx="5.5" ry="5.5"/>
          </g>
          <path id="Path_6550" class="cls-10" d="M41.4,23.9l-6.4.4v.6c0,2.5-1,5-2.7,6.8l4.7,4.3c2.8-3,4.4-7,4.4-11.1v-1.1h0Z"/>
          <path id="Path_6551" class="cls-10" d="M25,35h-.2v6.4h.2c1.7,0,3.4-.3,5-.8l-2-6.1c-1,.3-2,.4-3,.4h0Z"/>
          <path id="Path_6552" class="cls-10" d="M32.4,31.9c-1.2,1.2-2.6,2.2-4.2,2.7l2,6.1c2.7-.9,5.1-2.4,7-4.4l-4.7-4.3h0Z"/>
          <path id="Path_6553" class="cls-2" d="M25,30.3h-.2v4.6h.2c1,0,2-.2,3-.4l-1.4-4.4c-.5.1-1,.2-1.5.2h-.1Z"/>
          <path id="Path_6554" class="cls-2" d="M35,24.4l-4.6.3v.3c0,1.4-.5,2.7-1.5,3.7l3.4,3.1c1.7-1.8,2.7-4.3,2.7-6.8v-.6Z"/>
          <path id="Path_6555" class="cls-9" d="M30.4,24.6l4.6-.3c0-1.8-.7-3.4-1.7-4.9l-3.8,2.6c.5.8.9,1.7.9,2.6Z"/>
          <path id="Path_6556" class="cls-2" d="M28.9,28.7c-.6.6-1.4,1.1-2.2,1.4l1.4,4.4c1.6-.5,3.1-1.4,4.2-2.7,0,0-3.4-3.1-3.4-3.1Z"/>
          <path id="Path_6557" class="cls-8" d="M25,19.6c-3,0-5.3,2.4-5.3,5.4s2.4,5.3,5.4,5.3,5.3-2.4,5.3-5.4-.6-2.8-1.6-3.8-2.4-1.6-3.8-1.6h0ZM25,30.3c-2.9,0-5.3-2.4-5.3-5.3s2.4-5.3,5.3-5.3,5.3,2.4,5.3,5.3h0c0,2.9-2.4,5.3-5.3,5.3Z"/>
          <path id="Path_6558" class="cls-9" d="M24.8,19.6v-4.6c-2.8,0-5.4,1.3-7.2,3.3l3.4,3.1c1-1.1,2.3-1.7,3.8-1.8Z"/>
          <path id="Path_6559" class="cls-9" d="M25,15h-.2v4.6h.2c1.7,0,3.3.8,4.4,2.2l3.8-2.6c-1.9-2.7-4.9-4.3-8.2-4.3h0Z"/>
          <path id="Path_6560" class="cls-9" d="M12.8,14l4.8,4.3c1.8-2.1,4.5-3.3,7.2-3.3v-6.4c-4.6,0-8.9,2-12,5.4Z"/>
          <path id="Path_6561" class="cls-9" d="M25,8.6h-.2v6.4h.2c3.3,0,6.4,1.6,8.2,4.3l5.3-3.6c-3.1-4.5-8.1-7.1-13.6-7.1h.1Z"/>
          <path id="Path_6562" class="cls-9" d="M38.6,15.8l-5.3,3.6c0,.2.2.4.3.5h0c.2.3.3.6.4.9h0c0,.1,0,.2,0,.3h0c0,.2.2.4.2.6h0v.3h0c0,.2,0,.4.2.6h0v.3h0c0,.2,0,.4,0,.6h0v.3h0v.3l6.4-.4c-.2-2.9-1.2-5.7-2.8-8.1h0l.4.2Z"/>
          <path id="Path_6563" class="cls-1" d="M24.8,35v-4.6c-1.7,0-3.3-1-4.2-2.4l-3.8,2.6c1.8,2.7,4.8,4.4,8.1,4.5h-.1Z"/>
          <path id="Path_6564" class="cls-7" d="M16.7,30.5l-5.3,3.6c3,4.5,8,7.2,13.4,7.3v-6.4c-3.3,0-6.3-1.8-8.1-4.5Z"/>
          <path id="Path_6565" class="cls-1" d="M20.5,27.8c-.5-.7-.7-1.6-.8-2.5l-4.6.3c.1,1.7.7,3.3,1.6,4.7l3.8-2.6h0Z"/>
          <path id="Path_6566" class="cls-7" d="M15,25.7l-6.4.4c.2,2.8,1.1,5.5,2.7,7.9l5.3-3.6c-.9-1.4-1.5-3.1-1.6-4.8h0Z"/>
          <path id="Path_6567" class="cls-1" d="M19.7,25c0-1.3.5-2.5,1.3-3.5l-3.4-3.1c-1.6,1.8-2.5,4.2-2.5,6.6v.6l4.6-.3v-.3Z"/>
          <path id="Path_6568" class="cls-7" d="M15,25c0-2.4.9-4.8,2.5-6.6l-4.7-4.3c-2.7,3-4.2,6.9-4.2,10.9v1l6.4-.4v-.6Z"/>
          <circle id="Ellipse_1372" class="cls-3" cx="25" cy="25" r="9.8"/>
          <circle id="Ellipse_1373" class="cls-5" cx="25" cy="25" r="16.4"/>
        </g>
      </g>
    </g>
  </g>
</svg>