<?xml version="1.0" encoding="UTF-8"?>
<svg xmlns="http://www.w3.org/2000/svg" version="1.1" viewBox="0 0 50 50">
  <defs>
    <style>
      .cls-1 {
        stroke: #ececec;
      }

      .cls-1, .cls-2, .cls-3 {
        fill: none;
      }

      .cls-4 {
        fill: #ffaf6d;
      }

      .cls-5 {
        fill: #7c4dff;
      }

      .cls-3 {
        stroke: #7c4dff;
        stroke-miterlimit: 10;
        stroke-width: 1.5px;
      }
    </style>
  </defs>
  <!-- Generator: Adobe Illustrator 28.7.6, SVG Export Plug-In . SVG Version: 1.2.0 Build 188)  -->
  <g>
    <g id="Layer_1">
      <g id="Layer_1-2" data-name="Layer_1">
        <g id="Group_3066">
          <g id="Rectangle_172">
            <rect class="cls-2" width="50" height="50" rx="6" ry="6"/>
            <rect class="cls-1" x=".5" y=".5" width="49" height="49" rx="5.5" ry="5.5"/>
          </g>
          <g id="Layer_1-2">
            <rect id="Rectangle_414" class="cls-4" x="31.3" y="22.9" width="2.9" height="10.6"/>
            <rect id="Rectangle_415" class="cls-4" x="21.9" y="24.1" width="2.9" height="9.4"/>
            <rect id="Rectangle_416" class="cls-4" x="26.4" y="26" width="2.9" height="7.5"/>
            <rect id="Rectangle_417" class="cls-4" x="16.7" y="27.1" width="2.9" height="6.4"/>
            <path id="Path_295" class="cls-4" d="M15,24.3l1.2,1.4,6.3-6,4.6,4,7.2-7.4-1.5-1.1-5.8,5.7-4.3-4-7.8,7.4h0Z"/>
          </g>
          <g id="Layer_2">
            <path id="Path_296" class="cls-3" d="M36.5,39.1H14.5c-1,0-1.8-.8-1.8-1.8h0V13.3c0-1,.8-1.8,1.8-1.8h22c1,0,1.8.8,1.8,1.8h0v24.1c0,1-.8,1.8-1.8,1.8h0Z"/>
          </g>
          <path id="Path_297" class="cls-5" d="M35,28.9h9v3.4h-9v2.8l-5.1-4.6,5.1-4.5v2.9Z"/>
        </g>
      </g>
    </g>
  </g>
</svg>