<?xml version="1.0" encoding="UTF-8"?>
<svg xmlns="http://www.w3.org/2000/svg" version="1.1" viewBox="0 0 50 50">
  <defs>
    <style>
      .cls-1 {
        fill: #fff;
      }

      .cls-2, .cls-3, .cls-4 {
        fill: none;
      }

      .cls-5 {
        fill: #ffaf6d;
      }

      .cls-6 {
        fill: #7c4dff;
      }

      .cls-3 {
        stroke: #fae872;
        stroke-miterlimit: 10;
      }

      .cls-4 {
        stroke: #d3d3d3;
      }
    </style>
  </defs>
  <!-- Generator: Adobe Illustrator 28.7.6, SVG Export Plug-In . SVG Version: 1.2.0 Build 188)  -->
  <g>
    <g id="Layer_1">
      <rect class="cls-2" width="50" height="50" rx="6" ry="6"/>
      <rect class="cls-4" x=".5" y=".5" width="49" height="49" rx="5.5" ry="5.5"/>
      <path id="Path_6537" class="cls-3" d="M13.2,28s7.6-.7,12.8,5.3c3.7,4.3,6,4.5,10.7,5.2"/>
      <path id="Path_6538" class="cls-3" d="M12.7,28s7.5.7,13.5-3.5c5.1-3.4,8.9-2.4,10.3-2.1"/>
      <path id="Path_6539" class="cls-3" d="M14.6,27.9s7.6-1.1,11.1-8.3c2.5-5.1,4.7-5.8,9.2-7.6"/>
      <circle id="Ellipse_1359" class="cls-1" cx="12.7" cy="27.4" r="1.2"/>
      <circle id="Ellipse_1360" class="cls-1" cx="34.3" cy="12.1" r="1.2"/>
      <circle id="Ellipse_1361" class="cls-1" cx="34.9" cy="22.1" r="1.2"/>
      <circle id="Ellipse_1362" class="cls-1" cx="35" cy="37.9" r="1.2"/>
      <path id="Path_6540" class="cls-5" d="M12.7,27.4l3.5,2c1.1-1.9.5-4.4-1.5-5.5-1.9-1.1-4.4-.5-5.5,1.5-.8,1.4-.7,3.3.3,4.6l3.2-2.5h0Z"/>
      <path id="Path_6541" class="cls-6" d="M16.2,29.5l-3.5-2-3.2,2.5c.8,1,1.9,1.5,3.2,1.5s2.8-.8,3.5-2Z"/>
      <path id="Path_6542" class="cls-6" d="M34.3,12.1l3.5,2c1.1-1.9.5-4.4-1.5-5.5s-4.4-.5-5.5,1.5c-.8,1.4-.7,3.3.3,4.6l3.2-2.5h0Z"/>
      <path id="Path_6543" class="cls-5" d="M37.7,14.1l-3.5-2-3.1,2.5c1.4,1.7,3.9,2,5.6.7.4-.3.7-.7,1-1.1h0Z"/>
      <path id="Path_6544" class="cls-5" d="M34.9,22.1l3.5,2c1.1-1.9.5-4.4-1.5-5.5s-4.4-.5-5.5,1.5c-.8,1.4-.7,3.3.3,4.6l3.2-2.5h0Z"/>
      <path id="Path_6545" class="cls-6" d="M38.4,24.2l-3.5-2-3.2,2.5c.8,1,1.9,1.5,3.2,1.5s2.8-.8,3.5-2Z"/>
      <path id="Path_6546" class="cls-6" d="M35,37.9l3.5,2c1.1-1.9.5-4.4-1.5-5.5-1.9-1.1-4.4-.5-5.5,1.5-.8,1.4-.7,3.3.3,4.6l3.2-2.5h0Z"/>
      <path id="Path_6547" class="cls-5" d="M38.4,40l-3.5-2-3.2,2.5c.8,1,1.9,1.5,3.2,1.5s2.8-.8,3.5-2Z"/>
    </g>
  </g>
</svg>