<?xml version="1.0" encoding="UTF-8"?>
<svg xmlns="http://www.w3.org/2000/svg" version="1.1" viewBox="0 0 50 50">
  <defs>
    <style>
      .cls-1 {
        fill: #ffcfa8;
      }

      .cls-2 {
        stroke: #fff;
        stroke-miterlimit: 10;
      }

      .cls-2, .cls-3, .cls-4 {
        fill: none;
      }

      .cls-5 {
        fill: #ffaf6d;
      }

      .cls-6 {
        fill: #f1f2f2;
      }

      .cls-7 {
        fill: #7c4dff;
      }

      .cls-8 {
        fill: #8453ff;
      }

      .cls-9 {
        fill: #fffcdb;
      }

      .cls-10 {
        fill: #fef8b7;
      }

      .cls-4 {
        stroke: #d3d3d3;
      }
    </style>
  </defs>
  <!-- Generator: Adobe Illustrator 28.7.6, SVG Export Plug-In . SVG Version: 1.2.0 Build 188)  -->
  <g>
    <g id="Layer_1">
      <g id="Group_3076">
        <g id="Rectangle_172">
          <rect class="cls-3" width="50" height="50" rx="6" ry="6"/>
          <rect class="cls-4" x=".5" y=".5" width="49" height="49" rx="5.5" ry="5.5"/>
        </g>
        <path id="Path_313" class="cls-10" d="M39.7,25.2l-6.1.4v.6c0,2.4-.9,4.8-2.6,6.5l4.5,4.1c2.7-2.9,4.2-6.7,4.2-10.7,0-.3,0-.7,0-1Z"/>
        <path id="Path_314" class="cls-10" d="M24,35.8h-.2v6.1h.2c1.6,0,3.2-.2,4.8-.7l-1.9-5.8c-.9.3-1.9.4-2.8.4Z"/>
        <path id="Path_315" class="cls-10" d="M31,32.8c-1.1,1.2-2.5,2.1-4.1,2.6l1.9,5.8c2.6-.8,4.9-2.3,6.7-4.2l-4.5-4.1Z"/>
        <path id="Path_316" class="cls-9" d="M24,31.4h-.2v4.4h.2c1,0,1.9-.1,2.8-.4l-1.4-4.2c-.5.1-1,.2-1.5.2Z"/>
        <path id="Path_317" class="cls-9" d="M33.6,25.6l-4.4.3v.3c0,1.3-.5,2.6-1.4,3.5l3.3,3c1.6-1.8,2.6-4.1,2.6-6.5,0-.2,0-.4,0-.6Z"/>
        <path id="Path_318" class="cls-8" d="M29.2,25.8l4.4-.3c-.1-1.7-.7-3.3-1.6-4.7l-3.7,2.5c.5.8.8,1.6.9,2.5Z"/>
        <path id="Path_319" class="cls-9" d="M27.7,29.8c-.6.6-1.3,1.1-2.1,1.3l1.4,4.2c1.5-.5,2.9-1.4,4-2.5l-3.3-3Z"/>
        <path id="Path_320" class="cls-6" d="M24,21.1c-2.8,0-5.1,2.3-5.1,5.1,0,2.8,2.3,5.1,5.1,5.1s5.1-2.3,5.1-5.1c0-1.4-.5-2.7-1.5-3.6-1-1-2.3-1.5-3.6-1.5ZM24,31.3c-2.8,0-5.1-2.3-5.1-5.1s2.3-5.1,5.1-5.1,5.1,2.3,5.1,5.1h0c0,2.8-2.3,5.1-5.1,5.1Z"/>
        <path id="Path_321" class="cls-8" d="M23.8,21.1v-4.4c-2.6,0-5.1,1.2-6.9,3.2l3.3,3c.9-1,2.2-1.7,3.6-1.7Z"/>
        <path id="Path_322" class="cls-8" d="M24,16.7h-.2v4.4h.2c1.7,0,3.2.8,4.2,2.1l3.7-2.5c-1.8-2.6-4.7-4.1-7.9-4.1Z"/>
        <path id="Path_323" class="cls-7" d="M12.4,15.7l4.6,4.1c1.8-2,4.3-3.1,6.9-3.2v-6.1c-4.4,0-8.5,1.9-11.5,5.2Z"/>
        <path id="Path_324" class="cls-7" d="M24,10.5h-.2v6.1h.2c3.1,0,6.1,1.5,7.9,4.1l5.1-3.4c-2.9-4.3-7.8-6.8-13-6.8Z"/>
        <path id="Path_325" class="cls-7" d="M37.1,17.4l-5.1,3.4c.1.2.2.4.3.5h0c.2.3.3.5.4.8h0c0,.1,0,.2.1.3h0c0,.2.2.4.2.6h0s0,.3,0,.3h0c0,.2.1.4.2.6h0c0,.1,0,.2,0,.3h0c0,.2,0,.4.1.6h0c0,.1,0,.2,0,.3h0c0,.1,0,.2,0,.3l6.2-.4c-.2-2.8-1.1-5.4-2.7-7.7Z"/>
        <path id="Path_326" class="cls-1" d="M23.8,35.8v-4.4c-1.6,0-3.2-.9-4.1-2.3l-3.7,2.5c1.7,2.6,4.6,4.2,7.7,4.3Z"/>
        <path id="Path_327" class="cls-5" d="M16,31.5l-5.1,3.4c2.9,4.3,7.7,6.9,12.9,7v-6.1c-3.1,0-6-1.7-7.8-4.3Z"/>
        <path id="Path_328" class="cls-1" d="M19.7,29c-.4-.7-.7-1.5-.8-2.4l-4.4.3c.1,1.6.6,3.2,1.5,4.5l3.7-2.5Z"/>
        <path id="Path_329" class="cls-5" d="M14.5,26.9l-6.1.4c.2,2.7,1.1,5.3,2.5,7.6l5.1-3.4c-.9-1.4-1.4-2.9-1.5-4.5Z"/>
        <path id="Path_330" class="cls-1" d="M18.9,26.2c0-1.2.4-2.4,1.2-3.3l-3.3-3c-1.5,1.7-2.4,4-2.4,6.3,0,.2,0,.4,0,.6l4.4-.3c0,0,0-.2,0-.3Z"/>
        <path id="Path_331" class="cls-5" d="M14.5,26.2c0-2.3.8-4.6,2.4-6.3l-4.5-4.1c-2.6,2.9-4,6.6-4,10.5,0,.4,0,.7,0,1l6.1-.4v-.6Z"/>
        <circle id="Ellipse_61" class="cls-2" cx="24" cy="26.3" r="9.4"/>
      </g>
    </g>
  </g>
</svg>