<svg xmlns="http://www.w3.org/2000/svg" width="50" height="50" viewBox="0 0 50 50">
  <g id="Group_308" data-name="Group 308" transform="translate(-1166.335 -317)">
    <g id="Rectangle_206" data-name="Rectangle 206" transform="translate(1166.335 317)" fill="#fff" stroke="#ececec" stroke-width="1">
      <rect width="50" height="50" rx="6" stroke="none"/>
      <rect x="0.5" y="0.5" width="49" height="49" rx="5.5" fill="none"/>
    </g>
    <path id="Path_332" data-name="Path 332" d="M9.49,50.6a18.88,18.88,0,0,0-.423,3.609A3.04,3.04,0,0,1,7.3,56.746,1.626,1.626,0,0,0,7.566,59c1.155,1.3-.808,1.917-.808,1.917l-2.733.846s-1.347.451-.038,1.3a6.1,6.1,0,0,1,2.887,3.1,19.12,19.12,0,0,1,1,2.988,9.734,9.734,0,0,0,.847,1.692,13.493,13.493,0,0,1,.808,3.383,8.577,8.577,0,0,1,.731-3.27,18.016,18.016,0,0,0,1.347-3.44,7.039,7.039,0,0,1,2.04-3.5c.962-.677,2.925-1.579,1.309-2.255s-4.08-.846-3.926-2.086,1.963-1.692.577-2.763A3.34,3.34,0,0,1,9.952,53.87,13.948,13.948,0,0,0,9.49,50.6Z" transform="translate(1170.233 282.044)" fill="#e17d00"/>
    <path id="Path_333" data-name="Path 333" d="M48.166,25.2a9.556,9.556,0,0,1-1.411,4.623c-1.314,1.7-1.217,1.217-.1,3.017,0,0,.779.973-1.071,2.725s-1.411,2.141-.341,3.115.292,1.411-1.217,2.239c-1.557.827,1.46,2.628,1.46,2.628s2.677,1.411,2.093,2.628-1.022,1.557-.049,3.163.827,2.044.73,2.677a13.946,13.946,0,0,1,.827-3.115,2.232,2.232,0,0,0-.292-2.823c-.827-.925,1.46-1.947,1.46-1.947S54.3,41.7,52.5,40.871s-2.336-1.363-1.314-2.433,1.168-1.071.1-2.287-1.849-2.287-1.46-3.6c0,0,1.606-.827.146-2.336s-1.509-3.893-1.606-4.915" transform="translate(1144.933 304.162)" fill="#039def"/>
    <path id="Path_334" data-name="Path 334" d="M81.871,7.7a2.511,2.511,0,0,1-.909,2.726s-2.2,1.243-.478,2.391.717,1.961.1,2.439-.43.909.622,1.961-1.148,2.3-1.148,2.3-.526.191-.287,1.722-1.435,2.2-1.435,2.2-2.056,1.722.861,3.682c0,0,1.2.335.861,2.008s1.722,4.208,1.722,4.208l.1.956,1.53-3.061a3.593,3.593,0,0,0,.335-2.821,2.33,2.33,0,0,1,1.482-1.769c1.482-.717,1.052-2.917.574-3.3-.478-.335-1.722-.574-1.482-2.391a1.794,1.794,0,0,0-1.435-2.1s-1.387-.861.239-1.961c1.626-1.052-.1-1.961-.1-1.961s-1.052-.909-.048-1.722,1.722-1.243.191-2.582S81.823,8.322,81.871,7.7Z" transform="translate(1122.738 318.174)" fill="#0d78bf"/>
  </g>
</svg>
