<?xml version="1.0" encoding="utf-8"?>
<!-- Generator: Adobe Illustrator 21.1.0, SVG Export Plug-In . SVG Version: 6.00 Build 0)  -->
<svg xmlns="http://www.w3.org/2000/svg" xmlns:xlink="http://www.w3.org/1999/xlink" version="1.1" x="0px" y="0px" viewBox="0 0 100 100" style="enable-background:new 0 0 100 100;" xml:space="preserve">
<style type="text/css">
	.st0{display:none;}
	.st1{fill:#FF8453;}
	.st2{fill:#1C75BC;}
	.st3{fill:#FFC053;}
	.st4{fill:#006684;}
	.st5{fill:#006684;stroke:#FFFFFF;stroke-width:0.25;stroke-miterlimit:10;}
	.st6{fill:#ADADAD;}
	.st7{fill:#69CBE2;}
</style>

<g id="Layer_6">
	<path class="st1" d="M69.6,21.8c0,0-5,0.4-10.6,3.4c3.9,2.9,7,7,8.6,11.7H83c0,0,6.9-0.1,10.3-4.6C93.3,32.3,84.6,20.5,69.6,21.8z"/>
	<path class="st2" d="M85.4,41.1H68.6c0.2,1.3,0.3,2.6,0.3,3.9c0,4.1-1,7.9-2.8,11.3h19.2c1.6,0,2.9-1.3,2.9-2.9V44   C88.3,42.4,87,41.1,85.4,41.1z"/>
	<path class="st3" d="M83.9,60.4H63.5c-2.7,3.4-6.3,6-10.4,7.6c3.6,3.7,9,7.4,16.2,7.5c0,0,14.5,1.8,24.1-10.6   C93.4,65,89.5,60.4,83.9,60.4z"/>
</g>
<g id="Layer_2">
	<path class="st4" d="M52.4,66.2l6.3-6.2l16.6,16.9c1.2,1.2,1.2,3.2,0,4.4l-1.8,1.8c-1.2,1.2-3.2,1.2-4.4,0L52.4,66.2z"/>
	<path class="st5" d="M41,16.1c-15.8,0-28.6,12.8-28.6,28.6S25.2,73.2,41,73.2c15.8,0,28.6-12.8,28.6-28.6S56.8,16.1,41,16.1z    M41,66.8c-12.2,0-22.2-9.9-22.2-22.2S28.8,22.5,41,22.5c12.2,0,22.2,9.9,22.2,22.2S53.3,66.8,41,66.8z"/>
	<rect x="29.1" y="38.9" class="st6" width="4.7" height="1.1"/>
	
	<rect x="29.3" y="49.5" class="st6" width="4.7" height="1.1"/>
	<rect x="30.7" y="39.5" class="st6" width="1.5" height="10.6"/>
</g>
<g id="Layer_7">
	<g>
		<path class="st7" d="M52.8,55h5.5C60,52,61,48.5,61,44.8c0-3.9-1.1-7.5-3-10.6h-5.6c2.6,2.8,4.2,6.5,4.2,10.6    C56.5,48.7,55.1,52.3,52.8,55z"/>
		<path class="st7" d="M29.3,55c-2.4-2.7-3.8-6.3-3.8-10.1c0-4.1,1.6-7.8,4.2-10.6h-5.6c-1.9,3.1-3,6.7-3,10.6c0,3.7,1,7.2,2.8,10.1    H29.3z"/>
	</g>
</g>
</svg>