<?xml version="1.0" encoding="UTF-8"?>
<svg xmlns="http://www.w3.org/2000/svg" version="1.1" viewBox="0 0 50 50">
  <defs>
    <style>
      .cls-1, .cls-2 {
        fill: none;
      }

      .cls-3 {
        fill: #ffaf6d;
      }

      .cls-4 {
        fill: #e17d00;
      }

      .cls-5 {
        fill: #7c4dff;
      }

      .cls-6 {
        fill: #fae872;
      }

      .cls-2 {
        stroke: #d3d3d3;
      }
    </style>
  </defs>
  <!-- Generator: Adobe Illustrator 28.7.6, SVG Export Plug-In . SVG Version: 1.2.0 Build 188)  -->
  <g>
    <g id="Layer_1">
      <g id="Layer_1-2" data-name="Layer_1">
        <g id="Group_3078">
          <g id="Rectangle_172">
            <rect class="cls-1" width="50" height="50" rx="6" ry="6"/>
            <rect class="cls-2" x=".5" y=".5" width="49" height="49" rx="5.5" ry="5.5"/>
          </g>
          <path id="Path_111" class="cls-3" d="M31.4,15.3c-1.5.2-2.9.6-4.3,1.4,1.6,1.2,2.8,2.8,3.4,4.7h6.2s2.8,0,4.1-1.8c-2.3-2.9-5.8-4.4-9.5-4.2h.1Z"/>
          <path id="Path_112" class="cls-4" d="M37.7,23h-6.7c0,.5.1,1,.1,1.6,0,1.6-.4,3.1-1.1,4.5h7.7c.6,0,1.2-.5,1.2-1.2v-3.8c0-.6-.4-1.1-1-1.2h-.2Z"/>
          <path id="Path_113" class="cls-6" d="M37.1,30.8h-8.2c-1.1,1.4-2.5,2.4-4.2,3,1.7,1.8,4,2.9,6.5,3,3.7.3,7.4-1.3,9.7-4.3-1-1.1-2.4-1.7-3.8-1.8h0Z"/>
          <path id="Path_114" class="cls-5" d="M24.5,33.1l2.5-2.5,6.7,6.8c.5.5.5,1.3,0,1.8l-.7.7c-.5.5-1.3.5-1.8,0l-6.7-6.8Z"/>
          <path id="Path_115" class="cls-5" d="M19.9,13c-6.3,0-11.4,5.1-11.4,11.5s5.1,11.4,11.5,11.4,11.4-5.1,11.4-11.5-5.1-11.4-11.5-11.4h0ZM19.9,33.3c-4.9,0-8.9-4-8.9-8.9s4-8.9,8.9-8.9,8.9,4,8.9,8.9h0c0,4.9-4,8.9-8.9,8.9Z"/>
          <rect id="Rectangle_299" class="cls-6" x="15.1" y="22.1" width="1.9" height=".4"/>
          <rect id="Rectangle_300" class="cls-6" x="15.2" y="26.4" width="1.9" height=".4"/>
          <rect id="Rectangle_301" class="cls-6" x="15.8" y="22.4" width=".6" height="4.3"/>
          <g id="Layer_7">
            <g id="Group_156">
              <path id="Path_116" class="cls-3" d="M24.6,28.6h2.2c.7-1.2,1.1-2.7,1.1-4.1s-.4-3-1.2-4.3h-2.2c1.1,1.2,1.7,2.7,1.7,4.3s-.6,2.9-1.5,4.1h-.1Z"/>
              <path id="Path_117" class="cls-3" d="M15.2,28.6c-1-1.1-1.5-2.6-1.5-4.1s.6-3.1,1.7-4.2h-2.2c-.8,1.3-1.2,2.8-1.2,4.3s.4,2.8,1.1,4h2.2-.1Z"/>
            </g>
          </g>
        </g>
      </g>
    </g>
  </g>
</svg>