<?xml version="1.0" encoding="utf-8"?>
<!-- Generator: Adobe Illustrator 21.1.0, SVG Export Plug-In . SVG Version: 6.00 Build 0)  -->
<svg version="1.1" xmlns="http://www.w3.org/2000/svg" xmlns:xlink="http://www.w3.org/1999/xlink" x="0px" y="0px"
	 viewBox="0 0 200 200" style="enable-background:new 0 0 200 200;" xml:space="preserve">
<style type="text/css">
	.st0{fill:none;stroke:#B3B3B3;stroke-width:2;stroke-miterlimit:10;}
	.st1{fill:none;stroke:#026685;stroke-width:10;stroke-miterlimit:10;}
	.st2{fill:#166786;}
	.st3{fill:#727373;}
	.st4{fill:#F7941D;}
</style>
<g id="Layer_1">
</g>
<g id="Layer_9">
	<rect class="st0" width="200" height="200"/>
</g>
<g id="Layer_3">
	<path class="st1" d="M166.5,43c6.6,0,12,5.4,12,12v111c0,6.6-5.4,12-12,12H34c-6.6,0-12-5.4-12-12V55c0-6.6,5.4-12,12-12"/>
</g>
<g id="Layer_5">
	<rect x="62.8" y="38" class="st2" width="75.8" height="9.9"/>
</g>
<g id="Layer_4">
	<rect x="40" y="16.5" class="st3" width="15.8" height="47.5"/>
</g>
<g id="Layer_4_copy">
	<rect x="144.8" y="16.5" class="st3" width="15.8" height="47.5"/>
</g>
<g id="Layer_6">
	<rect x="43" y="86" class="st4" width="30.5" height="30.5"/>
	<rect x="43" y="126" class="st4" width="30.5" height="30.5"/>
</g>
<g id="Layer_6_copy">
	<rect x="85" y="86" class="st4" width="30.5" height="30.5"/>
	<rect x="85" y="126" class="st4" width="30.5" height="30.5"/>
</g>
<g id="Layer_6_copy_3">
	<rect x="126" y="86" class="st4" width="30.5" height="30.5"/>
	<rect x="126" y="126" class="st4" width="30.5" height="30.5"/>
</g>
</svg>
