<?xml version="1.0" encoding="UTF-8"?>
<svg xmlns="http://www.w3.org/2000/svg" version="1.1" viewBox="0 0 50 50">
  <defs>
    <style>
      .cls-1 {
        fill: #f7941d;
      }

      .cls-2, .cls-3, .cls-4 {
        fill: none;
      }

      .cls-5 {
        fill: #7c4dff;
      }

      .cls-3 {
        stroke-width: .5px;
      }

      .cls-3, .cls-4 {
        stroke: #d3d3d3;
      }
    </style>
  </defs>
  <!-- Generator: Adobe Illustrator 28.7.6, SVG Export Plug-In . SVG Version: 1.2.0 Build 188)  -->
  <g>
    <g id="Layer_1">
      <g id="Group_3081">
        <g id="Rectangle_206">
          <rect class="cls-2" width="50" height="50" rx="6" ry="6"/>
          <rect class="cls-4" x=".5" y=".5" width="49" height="49" rx="5.5" ry="5.5"/>
        </g>
        <g id="Layer_3">
          <rect id="Rectangle_14473" class="cls-5" x="5.8" y="16.6" width="6.6" height="27.5"/>
        </g>
        <g id="Layer_3_copy">
          <rect id="Rectangle_14474" class="cls-5" x="16.6" y="6" width="26.9" height="6.6"/>
        </g>
        <g id="Layer_6">
          <rect id="Rectangle_14475" class="cls-5" x="5.9" y="6" width="6.6" height="6.6"/>
        </g>
        <line id="Line_910" class="cls-3" x1="13.8" y1="17.3" x2="44.2" y2="17.3"/>
        <line id="Line_915" class="cls-3" x1="18" y1="15.9" x2="18" y2="44.8"/>
        <line id="Line_916" class="cls-3" x1="25.1" y1="15.9" x2="25.1" y2="44.8"/>
        <line id="Line_917" class="cls-3" x1="31.9" y1="15.9" x2="31.9" y2="44.8"/>
        <line id="Line_918" class="cls-3" x1="40.9" y1="15.9" x2="40.9" y2="44.8"/>
        <line id="Line_911" class="cls-3" x1="13.8" y1="23.8" x2="44.2" y2="23.8"/>
        <line id="Line_912" class="cls-3" x1="13.8" y1="30.4" x2="44.2" y2="30.4"/>
        <line id="Line_913" class="cls-3" x1="13.8" y1="36.9" x2="44.2" y2="36.9"/>
        <line id="Line_914" class="cls-3" x1="13.8" y1="43.4" x2="44.2" y2="43.4"/>
        <path id="Union_18" class="cls-1" d="M19.2,37l5.3-4.5v2.7h10.2v-9.7h-2.5l4-5.3,4.5,5.3h-2.5v13.1h-.1c0,.1-13.5.1-13.5.1v2.3s-5.4-4-5.4-4Z"/>
      </g>
    </g>
  </g>
</svg>