<?xml version="1.0" encoding="UTF-8" standalone="no"?><!-- Generator: Adobe Illustrator 21.1.0, SVG Export Plug-In . SVG Version: 6.00 Build 0)  --><svg   xmlns:dc="http://purl.org/dc/elements/1.1/"   xmlns:cc="http://creativecommons.org/ns#"   xmlns:rdf="http://www.w3.org/1999/02/22-rdf-syntax-ns#"   xmlns:svg="http://www.w3.org/2000/svg"   xmlns="http://www.w3.org/2000/svg"   xmlns:sodipodi="http://sodipodi.sourceforge.net/DTD/sodipodi-0.dtd"   xmlns:inkscape="http://www.inkscape.org/namespaces/inkscape"   version="1.1"   x="0px"   y="0px"   viewBox="0 0 200 200"   style="enable-background:new 0 0 200 200;"   xml:space="preserve"   id="svg2"   inkscape:version="0.91 r13725"   sodipodi:docname="Export To PPT Button1.svg"><metadata     id="metadata57"><rdf:RDF><cc:Work         rdf:about=""><dc:format>image/svg+xml</dc:format><dc:type           rdf:resource="http://purl.org/dc/dcmitype/StillImage" /><dc:title></dc:title></cc:Work></rdf:RDF></metadata><defs     id="defs55" /><sodipodi:namedview     pagecolor="#ffffff"     bordercolor="#666666"     borderopacity="1"     objecttolerance="10"     gridtolerance="10"     guidetolerance="10"     inkscape:pageopacity="0"     inkscape:pageshadow="2"     inkscape:window-width="640"     inkscape:window-height="480"     id="namedview53"     showgrid="false"     inkscape:zoom="1.18"     inkscape:cx="100"     inkscape:cy="100"     inkscape:window-x="0"     inkscape:window-y="0"     inkscape:window-maximized="0"     inkscape:current-layer="svg2" /><style     type="text/css"     id="style4">	.st0{display:none;}	.st1{fill:none;stroke:#B3B4B4;stroke-width:2;stroke-miterlimit:10;}	.st2{display:inline;}	.st3{fill:#026685;}	.st4{font-family:'Arial-BoldMT';}	.st5{font-size:68.4014px;}	.st6{fill:#A3A3A3;}	.st7{fill:#F7941D;}	.st8{fill:#FFFFFF;}	.st9{fill:#F79520;}	.st10{fill:none;stroke:#4BABCE;stroke-width:10;stroke-miterlimit:10;}</style><g     id="Layer_1"     class="st0" /><g     id="Layer_5"><rect       class="st1"       width="200"       height="200"       id="rect8" /></g><g     id="Layer_3"     class="st0"><g       id="g30433"       class="st2"><path         id="path5978"         inkscape:connector-curvature="0"         class="st3"         d="M117.1,49.4c-0.7,0.1-1.2-0.4-1.9-0.2    C102.9,52,95.5,63.4,98.5,74.7c3,11.3,15.4,18.2,27.6,15.4c12.2-2.8,19.7-14.2,16.7-25.5c-0.3-1-1.5-1.3-1.9-2.2l-18.8,5.9    L117.1,49.4L117.1,49.4z" /><path         id="path5962"         inkscape:connector-curvature="0"         inkscape:original-d="M 3.8555046,6.4816511 18.249355,1.6651374 18.348623,30.334863 3.9547725,26.43578 z"         sodipodi:nodetypes="ccccc"         class="st3"         d="    M25,43.6l82-27.5l0.6,163.4l-82-22.2L25,43.6" /><path         id="rect5966"         inkscape:connector-curvature="0"         class="st3"         d="M102.6,29.5v8.9h59.9v119.7h-59.9v8.2H171V29.5    C171,29.5,102.6,29.5,102.6,29.5z" /><path         id="path5973"         inkscape:connector-curvature="0"         class="st3"         d="M119.2,45.3l5,18.9l18.8-5.9    C139.1,49.3,129.7,43.8,119.2,45.3L119.2,45.3z" /><rect         id="rect5982"         x="114.9"         y="108.1"         class="st3"         width="40.3"         height="11.4" /><rect         id="rect5984"         x="114.9"         y="130.7"         class="st3"         width="40.3"         height="11.4" /><text         transform="matrix(1 0 0 1 46.3081 122.3545)"         class="st3 st4 st5"         id="text18">P</text></g></g><g     id="Layer_12"><rect       x="81.3"       y="119.7"       class="st6"       width="60.5"       height="7"       id="rect21" /></g><g     id="Layer_12_copy"><rect       x="81.3"       y="130.7"       class="st6"       width="60.5"       height="7"       id="rect24" /></g><g     id="Layer_12_copy_2"><rect       x="81.3"       y="141.7"       class="st6"       width="60.5"       height="7"       id="rect27" /></g><g     id="Layer_9"><circle       class="st7"       cx="116.5"       cy="82.2"       r="27.8"       id="circle30" /></g><g     id="Layer_14"><polyline       class="st8"       points="100,105.5 100,59.2 103.5,56.9 103.5,107.8 100,105.5  "       id="polyline33" /></g><g     id="Layer_10"><path       class="st8"       d="M116.3,81.6l7.8-26.4c0,0,10.8,2.1,17.4,14.5L116.3,81.6z"       id="path36" /></g><g     id="Layer_10_copy"><path       class="st9"       d="M121.2,76.1l7.8-26.4c0,0,10.8,2.1,17.4,14.5L121.2,76.1z"       id="path39" /></g><g     id="Layer_11" /><g     id="Layer_6"><rect       x="83"       y="38.7"       class="st10"       width="74.3"       height="125.3"       id="rect43" /></g><g     id="Layer_7"><polyline       class="st3"       points="36.3,149.2 36.3,47.2 100,19.9 100,180.1  "       id="polyline46" /><g       id="g48"><path         class="st8"         d="M60.2,107.8v17.3H50V74.9h15.9c11.4,0,17.1,5.3,17.1,16c0,5-1.6,9.1-4.9,12.2c-3.3,3.1-7.6,4.7-13.1,4.7H60.2    z M60.2,83.6v15.6h4c5.4,0,8.1-2.6,8.1-7.9c0-5.2-2.7-7.7-8.1-7.7H60.2z"         id="path50" /></g></g><g     id="Layer_8"     class="st0" /></svg>