<?xml version="1.0" encoding="UTF-8"?>
<svg xmlns="http://www.w3.org/2000/svg" version="1.1" viewBox="0 0 50 50">
  <defs>
    <style>
      .cls-1 {
        fill: #fff;
      }

      .cls-2, .cls-3, .cls-4 {
        fill: none;
      }

      .cls-3 {
        stroke: #7c4dff;
        stroke-miterlimit: 10;
      }

      .cls-5 {
        fill: #ffaf6d;
      }

      .cls-6 {
        fill: #7c4dff;
      }

      .cls-7 {
        fill: #fae872;
      }

      .cls-4 {
        stroke: #d3d3d3;
      }
    </style>
  </defs>
  <!-- Generator: Adobe Illustrator 28.7.6, SVG Export Plug-In . SVG Version: 1.2.0 Build 188)  -->
  <g>
    <g id="Layer_1">
      <g id="Layer_1-2" data-name="Layer_1">
        <g id="Group_3082">
          <g id="Rectangle_172">
            <rect class="cls-2" width="50" height="50" rx="6" ry="6"/>
            <rect class="cls-4" x=".5" y=".5" width="49" height="49" rx="5.5" ry="5.5"/>
          </g>
          <g id="Layer_12">
            <rect id="rect21" class="cls-7" x="21.5" y="29" width="12.4" height="1.4"/>
          </g>
          <g id="Layer_12_copy">
            <rect id="rect24" class="cls-7" x="21.5" y="31.3" width="12.4" height="1.4"/>
          </g>
          <g id="Layer_12_copy_2">
            <rect id="rect27" class="cls-7" x="21.5" y="33.5" width="12.4" height="1.4"/>
          </g>
          <path id="Subtraction_258" class="cls-5" d="M28.7,27c-3.1,0-5.7-2.6-5.7-5.7s2.6-5.7,5.7-5.7,1.5.1,2.2.4l-1.2,4,3.8-1.8c.6.9.9,2,.9,3.1,0,3.1-2.6,5.7-5.7,5.7Z"/>
          <g id="Layer_6">
            <rect id="rect43" class="cls-3" x="21.8" y="12.4" width="15.2" height="25.7"/>
          </g>
          <path id="polyline46" class="cls-6" d="M12.3,35.1V14.2l13-5.6v32.8"/>
          <g id="g48">
            <path id="path50" class="cls-1" d="M17.2,26.6v3.5h-2.1v-10.3h3.3c2.3,0,3.5,1.1,3.5,3.3s-.3,1.8-1,2.5-1.7,1-2.7,1c0,0-1,0-1,0ZM17.2,21.6v3.2h.8c.8.1,1.5-.4,1.7-1.2v-.4c0-1.1-.6-1.6-1.7-1.6h-.8Z"/>
          </g>
          <g id="Layer_10_copy">
            <path id="path39" class="cls-5" d="M30.3,19.5l1.2-4.1c1.2.3,2.2,1.2,2.7,2.3l-3.9,1.9h0Z"/>
          </g>
        </g>
      </g>
    </g>
  </g>
</svg>