<?xml version="1.0" encoding="UTF-8"?>
<svg xmlns="http://www.w3.org/2000/svg" version="1.1" viewBox="0 0 50 50">
  <defs>
    <style>
      .cls-1 {
        fill: #fff;
      }

      .cls-2 {
        stroke: #ececec;
      }

      .cls-2, .cls-3 {
        fill: none;
      }

      .cls-4 {
        fill: #ffaf6d;
      }

      .cls-5 {
        fill: #7c4dff;
      }
    </style>
  </defs>
  <!-- Generator: Adobe Illustrator 28.7.6, SVG Export Plug-In . SVG Version: 1.2.0 Build 188)  -->
  <g>
    <g id="Layer_1">
      <g id="Group_3083">
        <g id="Rectangle_206">
          <rect class="cls-3" width="50" height="50" rx="6" ry="6"/>
          <rect class="cls-2" x=".5" y=".5" width="49" height="49" rx="5.5" ry="5.5"/>
        </g>
        <path id="Path_252" class="cls-4" d="M36.7,14.3H13.4c-.7,0-1.2-.5-1.2-1.2,0,0,0,0,0,0v-2.4h25.6v2.4c0,.6-.5,1.2-1.2,1.2Z"/>
        <path id="Path_253" class="cls-5" d="M13.6,15h23.3l-8.7,14.7v8l-5.2,5.3v-13.3l-9.3-14.6Z"/>
        <circle id="Ellipse_43" class="cls-1" cx="25.9" cy="21.3" r="4.9"/>
        <g id="Layer_3">
          <path id="Path_254" class="cls-4" d="M24.9,22l3.1-3,1.1,1-4.2,4.2-2.3-2.2,1.1-1.2,1.2,1.2Z"/>
        </g>
      </g>
    </g>
  </g>
</svg>