<svg xmlns="http://www.w3.org/2000/svg" width="25" height="25" viewBox="0 0 25 25">
  <g id="Group_3278" data-name="Group 3278" transform="translate(-1165 -266)">
    <g id="Path_7031" data-name="Path 7031" transform="translate(1165 266)" fill="#7c4dff">
      <path d="M 21 24.5 L 4 24.5 C 2.070090055465698 24.5 0.5 22.92991065979004 0.5 21 L 0.5 4 C 0.5 2.070090055465698 2.070090055465698 0.5 4 0.5 L 21 0.5 C 22.92991065979004 0.5 24.5 2.070090055465698 24.5 4 L 24.5 21 C 24.5 22.92991065979004 22.92991065979004 24.5 21 24.5 Z" stroke="none"/>
      <path d="M 4 1 C 2.345790863037109 1 1 2.345790863037109 1 4 L 1 21 C 1 22.65420913696289 2.345790863037109 24 4 24 L 21 24 C 22.65420913696289 24 24 22.65420913696289 24 21 L 24 4 C 24 2.345790863037109 22.65420913696289 1 21 1 L 4 1 M 4 0 L 21 0 C 23.20914077758789 0 25 1.790859222412109 25 4 L 25 21 C 25 23.20914077758789 23.20914077758789 25 21 25 L 4 25 C 1.790859222412109 25 0 23.20914077758789 0 21 L 0 4 C 0 1.790859222412109 1.790859222412109 0 4 0 Z" stroke="none" fill="#ececec"/>
    </g>
    <g id="Layer_14" transform="translate(1172 273.784)">
      <path id="Path_66" data-name="Path 66" d="M36.2,52.67l1.7-1.714h.063l2.567,2.567L46.558,47.5l1.687,1.751-7.719,7.682" transform="translate(-36.2 -47.5)" fill="#fff"/>
    </g>
  </g>
</svg>
