<?xml version="1.0" encoding="UTF-8"?>
<svg xmlns="http://www.w3.org/2000/svg" version="1.1" viewBox="0 0 50 50">
  <defs>
    <style>
      .cls-1 {
        fill: #fff;
      }

      .cls-2, .cls-3 {
        fill: none;
      }

      .cls-4 {
        fill: #ffaf6d;
      }

      .cls-5 {
        fill: #7c4dff;
      }

      .cls-6 {
        fill: #fae872;
      }

      .cls-3 {
        stroke: #d3d3d3;
      }
    </style>
  </defs>
  <!-- Generator: Adobe Illustrator 28.7.6, SVG Export Plug-In . SVG Version: 1.2.0 Build 188)  -->
  <g>
    <g id="Layer_1">
      <g id="Layer_1-2" data-name="Layer_1">
        <g id="Group_3084">
          <g id="Rectangle_6908">
            <rect class="cls-2" width="50" height="50" rx="6" ry="6"/>
            <rect class="cls-3" x=".5" y=".5" width="49" height="49" rx="5.5" ry="5.5"/>
          </g>
          <path id="Path_7141" class="cls-6" d="M36.7,16.6H12.3c-2.2,0-4-1.8-4-4h0c0-2.2,1.8-4,4-4h24.4c2.2,0,4,1.8,4,4h0c0,2.2-1.8,4-4,4Z"/>
          <path id="Union_19" class="cls-1" d="M36.1,13.3l-.8.8-.6-.6.8-.8-.8-.8.6-.6.8.8.8-.8.6.6-.8.8.8.8-.6.6-.8-.8Z"/>
          <path id="Path_7142" class="cls-1" d="M13,13.4v-1.9h1.2v.3h-.9v.5h.8v.3h-.8v.8s-.3,0-.3,0Z"/>
          <path id="Path_7143" class="cls-1" d="M14.4,11.5h.4v.3h-.4v-.3ZM14.4,13.4v-1.3h.3v1.3h-.3Z"/>
          <path id="Path_7144" class="cls-1" d="M15.1,13.4v-1.9h.3v1.9h-.3Z"/>
          <path id="Path_7145" class="cls-1" d="M16.5,13.2v.2h-.2c-.1,0-.3,0-.4-.1,0,0-.1-.2-.1-.4v-.5h-.2v-.2h.2v-.4h.3v.4h.3v.2h-.3v.5c0,.2,0,.3.2.3h.2Z"/>
          <path id="Path_7146" class="cls-1" d="M17.8,12.8h-.9s0,.2.1.3h.3c.1,0,.3,0,.4-.1v.2h-.1c0,.1-.2.1-.3.1-.2,0-.4,0-.5-.2-.1-.1-.2-.3-.2-.5v-.3s.1-.2.2-.2h.3c.2,0,.3,0,.4.2.1.1.2.3.2.5h0c0,.1.1,0,.1,0ZM17.1,12.4v.2h.6v-.2h-.6Z"/>
          <path id="Path_7147" class="cls-1" d="M18.9,12.4h-.2c-.2,0-.3.1-.3.3v.7h-.3v-1.3h.3v.2c0-.2.2-.3.4-.3h.1v.3h0Z"/>
          <path id="Path_7148" class="cls-1" d="M19.3,13.3c-.1,0-.2-.1-.2-.2v-.3c0-.4.3-.7.6-.7h.3s.2,0,.2.1v.2c-.1,0-.2,0-.3-.1h-.2s-.2,0-.3.1c-.1.2-.1.4,0,.6,0,0,.2.1.3.1h.2s.1,0,.2-.1v.2h-.1c0,.1-.2.1-.3.1s-.3,0-.4,0Z"/>
          <path id="Path_7149" class="cls-1" d="M21.4,12.2c0,.1.1.3.1.4v.8h-.3v-1h-.4v.9h-.3v-1.9h.3v.7s.1-.1.2-.2h.2c.1,0,.3,0,.3.1v.2Z"/>
          <path id="Path_7150" class="cls-1" d="M21.9,11.5h.4v.3h-.4v-.3ZM21.9,13.4v-1.3h.3v1.3h-.3Z"/>
          <path id="Path_7151" class="cls-1" d="M23.6,12.2s.2.1.2.2v.7s-.1.2-.2.2h-.5s-.1,0-.2-.2v.7h-.3v-1.7h.3v.2s.1-.1.2-.2h.5ZM23.4,13.1c.1-.2.1-.4,0-.6-.1-.1-.3-.1-.5,0h0c-.1.2-.1.4,0,.6,0,0,.1.1.2.1,0,0,.2,0,.2-.1h0Z"/>
          <path id="Path_7152" class="cls-1" d="M24.3,13.4s-.2,0-.2-.1v-.2c.2.1.4.2.5.2h.2q0-.1-.2-.1h-.2s-.2-.1-.3-.2v-.4s.1-.1.2-.1h.6s.2,0,.2.1v.2c-.2,0-.3-.1-.5-.2h-.2q0,.1.1.1h.2c.1,0,.2.1.3.2v.2c0,.1,0,.2-.2.3-.1,0-.3.1-.4.1h-.3.2Z"/>
          <path id="Path_7153" class="cls-1" d="M27,13.1h.4v.3h-1.1v-.3h.4v-1.2l-.3.2v-.2c-.1,0,.4-.3.4-.3h.2v1.6h0Z"/>
          <path id="Path_7154" class="cls-4" d="M36.7,29.1H12.3c-2.2,0-4-1.8-4-4h0c0-2.2,1.8-4,4-4h24.4c2.2,0,4,1.8,4,4h0c0,2.2-1.8,4-4,4Z"/>
          <path id="Union_20" class="cls-1" d="M36.1,25.8l-.8.8-.6-.6.8-.8-.8-.8.6-.6.8.8.8-.8.6.6-.8.8.8.8-.6.6-.8-.8Z"/>
          <path id="Path_7155" class="cls-1" d="M13,25.9v-1.9h1.2v.3h-.9v.5h.8v.3h-.8v.8s-.3,0-.3,0Z"/>
          <path id="Path_7156" class="cls-1" d="M14.4,24h.4v.3h-.4v-.3ZM14.4,25.9v-1.3h.3v1.3h-.3Z"/>
          <path id="Path_7157" class="cls-1" d="M15.1,25.9v-1.9h.3v1.9h-.3Z"/>
          <path id="Path_7158" class="cls-1" d="M16.5,25.6v.2h-.2c-.1,0-.3,0-.4-.1,0,0-.1-.2-.1-.4v-.5h-.2v-.2h.2v-.4h.3v.4h.3v.2h-.3v.5c0,.2,0,.3.2.3h.2Z"/>
          <path id="Path_7159" class="cls-1" d="M17.8,25.3h-.9s0,.2.1.3h.3c.1,0,.3,0,.4-.1v.2h-.1c0,.1-.2.1-.3.1-.2,0-.4,0-.5-.2-.1-.1-.2-.3-.2-.5v-.3s.1-.2.2-.2h.3c.2,0,.3,0,.4.2.1.1.2.3.2.5h0c0,.1.1,0,.1,0ZM17.1,24.9v.2h.6v-.2h-.6Z"/>
          <path id="Path_7160" class="cls-1" d="M18.9,24.8h-.2c-.2,0-.3.2-.3.3v.7h-.3v-1.3h.3v.2c0-.2.2-.3.4-.3h.1v.3h0Z"/>
          <path id="Path_7161" class="cls-1" d="M19.3,25.8c-.1,0-.2-.1-.2-.2v-.3c0-.4.3-.7.6-.7h.3s.2,0,.2.1v.2c-.1,0-.2,0-.3-.1h-.2s-.2,0-.3.1c-.1.2-.1.4,0,.6,0,0,.2.1.3.1h.2s.1,0,.2-.1v.2h-.1c0,.1-.2.1-.3.1s-.3,0-.4,0Z"/>
          <path id="Path_7162" class="cls-1" d="M21.4,24.7c0,.1.1.3.1.4v.8h-.3v-1h-.4v.9h-.3v-1.9h.3v.7l.2-.2h.2c.1,0,.3,0,.3.1v.2Z"/>
          <path id="Path_7163" class="cls-1" d="M21.9,24h.4v.3h-.4v-.3ZM21.9,25.9v-1.3h.3v1.3h-.3Z"/>
          <path id="Path_7164" class="cls-1" d="M23.6,24.6s.2.1.2.2v.7s-.1.2-.2.2h-.5s-.1,0-.2-.2v.7h-.3v-1.7h.3v.2l.2-.2h.5ZM23.4,25.5c.1-.2.1-.4,0-.6-.1-.1-.3-.1-.5,0h0c-.1.2-.1.4,0,.6.1.1.3.1.5,0h0Z"/>
          <path id="Path_7165" class="cls-1" d="M24.3,25.8s-.2,0-.2-.1v-.2c.2.1.4.2.5.2h.2q0-.1-.2-.1h-.2s-.2-.1-.3-.2v-.4s.1-.1.2-.1h.6s.2,0,.2.1v.2c-.2,0-.3-.1-.5-.2h-.2q0,.1.1.1h.2c.1,0,.2.1.3.2v.2c0,.1,0,.2-.2.3-.1,0-.3.1-.4.1h-.3.2Z"/>
          <path id="Path_7166" class="cls-1" d="M27.4,25.6v.3h-1.2v-.2l.6-.7.2-.2v-.4h-.2c-.2,0-.4,0-.5.2v-.2s0-.1.2-.2h.3c.2,0,.3,0,.4.1.1,0,.2.2.2.4v.3c0,.1-.1.2-.2.3l-.5.5h.9l-.2-.2Z"/>
          <path id="Path_7167" class="cls-5" d="M36.7,41.3H12.3c-2.2,0-4-1.8-4-4h0c0-2.2,1.8-4,4-4h24.4c2.2,0,4,1.8,4,4h0c0,2.2-1.8,4-4,4Z"/>
          <path id="Union_21" class="cls-1" d="M36.1,38l-.8.8-.6-.6.8-.8-.8-.8.6-.6.8.8.8-.8.6.6-.8.8.8.8-.6.6-.8-.8Z"/>
          <path id="Path_7168" class="cls-1" d="M13,38.1v-1.9h1.2v.3h-.9v.5h.8v.3h-.8v.8s-.3,0-.3,0Z"/>
          <path id="Path_7169" class="cls-1" d="M14.4,36.2h.4v.3h-.4v-.3ZM14.4,38.1v-1.3h.3v1.3h-.3Z"/>
          <path id="Path_7170" class="cls-1" d="M15.1,38.1v-1.9h.3v1.9h-.3Z"/>
          <path id="Path_7171" class="cls-1" d="M16.5,37.8v.2h-.2c-.1,0-.3,0-.4,0,0,0-.1-.2-.1-.4v-.6h-.2v-.2h.2v-.4h.3v.4h.3v.2h-.3v.5c0,.2,0,.3.2.3h.2Z"/>
          <path id="Path_7172" class="cls-1" d="M17.8,37.5h-.9s0,.2.1.3h.3c.1,0,.3,0,.4,0v.2h-.1c0,0-.2,0-.3,0-.2,0-.4,0-.5-.2-.1,0-.2-.3-.2-.5v-.3s.1-.2.2-.2h.3c.2,0,.3,0,.4.2.1,0,.2.3.2.5h0c0,0,.1,0,.1,0ZM17.1,37.1v.2h.6v-.2h-.6Z"/>
          <path id="Path_7173" class="cls-1" d="M18.9,37h-.2c-.2,0-.3.2-.3.3v.7h-.3v-1.3h.3v.2c0-.2.2-.3.4-.3h.1v.3h0Z"/>
          <path id="Path_7174" class="cls-1" d="M19.3,38c-.1,0-.2,0-.2-.2v-.6c.1-.2.3-.3.6-.3h.3s.2,0,.2,0v.2c-.1,0-.2,0-.3,0h-.2s-.2,0-.3,0c-.1.2-.1.4,0,.6,0,0,.2,0,.3,0h.2s.1,0,.2,0v.2h-.1c0,0-.2,0-.3,0h-.4Z"/>
          <path id="Path_7175" class="cls-1" d="M21.4,36.9c0,0,.1.3.1.4v.8h-.3v-1h-.4v.9h-.3v-1.9h.3v.7s.1,0,.2-.2h.2c.1,0,.3,0,.3,0v.2Z"/>
          <path id="Path_7176" class="cls-1" d="M21.9,36.2h.4v.3h-.4v-.3ZM21.9,38.1v-1.3h.3v1.3h-.3Z"/>
          <path id="Path_7177" class="cls-1" d="M23.6,36.9s.2,0,.2.2v.7s-.1.2-.2.2h-.5s-.1,0-.2-.2v.7h-.3v-1.7h.3v.2s.1,0,.2-.2h.5ZM23.4,37.8c.1-.2.1-.4,0-.6-.1,0-.3,0-.5,0h0c-.1.2-.1.4,0,.6,0,0,.1,0,.2,0,0,0,.2,0,.2,0h0Z"/>
          <path id="Path_7178" class="cls-1" d="M24.3,38.1s-.2,0-.2,0v-.2c.2,0,.4.2.5.2h.2q0,0-.2,0h-.2s-.2,0-.3-.2v-.4s.1,0,.2,0h.5s.2,0,.2,0v.2c-.2,0-.3,0-.5-.2h-.2q0,0,.1,0h.2c.1,0,.2,0,.3.2v.2c0,0,0,.2-.2.3-.1,0-.3,0-.4,0h-.3.3Z"/>
          <path id="Path_7179" class="cls-1" d="M27.3,37.3v.3c0,0,0,.3-.2.4-.1,0-.3,0-.5,0h-.3c-.1,0-.2,0-.3-.2v-.2c.3,0,.4.2.6.2h.3s.1,0,0-.2v-.2h-.6v-.3h.2c.2,0,.3,0,.3-.3v-.2h-.4s-.2,0-.2.2v-.2s0,0,.2-.2h.3c.2,0,.3,0,.4,0,.1,0,.2.2.2.3v.3s-.1,0-.2.2c.1,0,.2,0,.3.2v-.3Z"/>
        </g>
      </g>
    </g>
  </g>
</svg>