<?xml version="1.0" encoding="UTF-8"?>
<svg xmlns="http://www.w3.org/2000/svg" version="1.1" viewBox="0 0 50 50">
  <defs>
    <style>
      .cls-1 {
        stroke: #7c4dff;
      }

      .cls-1, .cls-2, .cls-3 {
        fill: none;
      }

      .cls-4 {
        fill: #ffaf6d;
      }

      .cls-5 {
        fill: #7c4dff;
      }

      .cls-6 {
        fill: #d3d3d3;
      }

      .cls-7 {
        fill: #fae872;
      }

      .cls-3 {
        stroke: #d3d3d3;
      }
    </style>
  </defs>
  <!-- Generator: Adobe Illustrator 28.7.6, SVG Export Plug-In . SVG Version: 1.2.0 Build 188)  -->
  <g>
    <g id="Layer_1">
      <g id="Layer_1-2" data-name="Layer_1">
        <g id="Group_3085">
          <g id="Rectangle_6908">
            <rect class="cls-2" width="50" height="50" rx="6" ry="6"/>
            <rect class="cls-3" x=".5" y=".5" width="49" height="49" rx="5.5" ry="5.5"/>
          </g>
          <path id="Path_6579" class="cls-5" d="M16.5,14.9c-2.6,2.4-4.1,5.7-4.2,9.3h4.8c.1-2.1,1-4.1,2.5-5.5l-3.2-3.7h.1Z"/>
          <path id="Path_6580" class="cls-4" d="M18.5,13.5l3,3.6c2.4-.9,5-.9,7.3,0l3.2-3.6s-6.6-4.3-13.6,0h.1Z"/>
          <path id="Path_6581" class="cls-7" d="M33.9,14.9l-3.2,3.7s1.8,1.4,2.4,5.6h4.8s.5-4.5-3.9-9.3h0Z"/>
          <path id="Path_6582" class="cls-6" d="M25,21.9l1.2.4c.2,0,.5,0,.6-.3h0l2.6-8.5h0q0-.1-.1-.1h0l-4.6,7.8c-.1.2,0,.5.2.7h0Z"/>
          <circle id="Ellipse_1405" class="cls-6" cx="25" cy="24.2" r="4.2"/>
          <circle class="cls-2" cx="25" cy="25" r="16"/>
          <circle class="cls-1" cx="25" cy="25" r="15.5"/>
        </g>
      </g>
    </g>
  </g>
</svg>