<?xml version="1.0" encoding="UTF-8"?>
<svg xmlns="http://www.w3.org/2000/svg" version="1.1" viewBox="0 0 50 50">
  <defs>
    <style>
      .cls-1 {
        stroke: #ececec;
      }

      .cls-1, .cls-2 {
        fill: none;
      }

      .cls-3 {
        fill: #ffaf6d;
      }

      .cls-4 {
        fill: #7c4dff;
      }

      .cls-5 {
        fill: #fae872;
      }
    </style>
  </defs>
  <!-- Generator: Adobe Illustrator 28.7.6, SVG Export Plug-In . SVG Version: 1.2.0 Build 188)  -->
  <g>
    <g id="Layer_1">
      <g id="Layer_1-2" data-name="Layer_1">
        <g id="Layer_1-2">
          <g id="Layer_1-2-2" data-name="Layer_1-2">
            <g id="Group_3086">
              <g id="Rectangle_206">
                <rect class="cls-2" width="50" height="50" rx="6" ry="6"/>
                <rect class="cls-1" x=".5" y=".5" width="49" height="49" rx="5.5" ry="5.5"/>
              </g>
              <path id="Icon_awesome-user-alt" class="cls-4" d="M17.2,17c2.3,0,4.1-1.8,4.1-4.1s-1.8-4.1-4.1-4.1-4.1,1.8-4.1,4.1,1.8,4.1,4.1,4.1h0ZM20.9,17.9h-1.6c-1.3.6-2.8.6-4.1,0h-1.6c-2,0-3.6,1.6-3.6,3.6v.5c0,.8.6,1.4,1.4,1.4h11.8c.8,0,1.4-.6,1.4-1.4v-.5c0-2-1.6-3.6-3.6-3.6h0Z"/>
              <path id="Polygon_2" class="cls-3" d="M35.2,10l7.5,11h-15l7.5-11Z"/>
              <path id="Icon_awesome-check" class="cls-5" d="M16.9,37.8l-4.7-4.7c-.3-.3-.3-.7,0-1l1-1c.3-.3.7-.3,1,0l3.2,3.2,6.8-6.8c.3-.3.7-.3,1,0l1,1c.3.3.3.7,0,1l-8.4,8.4c-.3.3-.7.3-1,0h0Z"/>
              <path id="Icon_material-attach-money" class="cls-4" d="M35.2,31.7c-1.9-.5-2.5-1-2.5-1.8s.9-1.6,2.3-1.6,2.1.7,2.1,1.8h1.9c0-1.6-1.2-2.9-2.7-3.2v-1.8h-2.5v1.8c-1.6.4-3,1.4-3,3s1.6,2.9,4,3.5c2.1.5,2.5,1.2,2.5,2s-.4,1.5-2.3,1.5-2.4-.8-2.5-1.8h-1.9c.1,1.7,1.4,3,3.1,3.2v1.8h2.5v-1.8c1.6-.3,3-1.3,3-3s-2-3.2-4-3.7h0Z"/>
            </g>
          </g>
        </g>
      </g>
    </g>
  </g>
</svg>