<?xml version="1.0" encoding="UTF-8"?>
<svg xmlns="http://www.w3.org/2000/svg" version="1.1" viewBox="0 0 50 50">
  <defs>
    <style>
      .cls-1 {
        fill: #b7a9da;
      }

      .cls-2, .cls-3 {
        fill: none;
      }

      .cls-4 {
        fill: #ffaf6d;
      }

      .cls-5 {
        fill: #7c4dff;
      }

      .cls-6 {
        fill: #ffd9b9;
      }

      .cls-3 {
        stroke: #d3d3d3;
      }
    </style>
  </defs>
  <!-- Generator: Adobe Illustrator 28.7.6, SVG Export Plug-In . SVG Version: 1.2.0 Build 188)  -->
  <g>
    <g id="Layer_1">
      <g id="Group_3088">
        <g id="Rectangle_302">
          <rect class="cls-2" width="50" height="50" rx="6" ry="6"/>
          <rect class="cls-3" x=".5" y=".5" width="49" height="49" rx="5.5" ry="5.5"/>
        </g>
        <rect id="rect14" class="cls-5" x="6.6" y="27.1" width="3.9" height="13.8"/>
        <rect id="rect17" class="cls-5" x="20" y="20.2" width="3.9" height="20.7"/>
        <rect id="rect20" class="cls-5" x="34.2" y="13.3" width="3.9" height="27.6"/>
        <rect id="rect23" class="cls-1" x="6.6" y="8.7" width="3.9" height="18.4"/>
        <rect id="rect26" class="cls-1" x="20" y="8.7" width="3.9" height="11.5"/>
        <rect id="rect29" class="cls-1" x="34.2" y="8.7" width="3.9" height="4.6"/>
        <rect id="rect32" class="cls-6" x="11.4" y="9" width="3.9" height="9.3"/>
        <rect id="rect35" class="cls-4" x="11.4" y="17.9" width="3.9" height="23"/>
        <rect id="rect38" class="cls-6" x="38.8" y="8.7" width="3.9" height="25.3"/>
        <rect id="rect44" class="cls-6" x="24.6" y="8.7" width="4.7" height="16.6"/>
        <rect id="rect47" class="cls-4" x="38.8" y="34.1" width="3.9" height="6.9"/>
        <rect id="rect50" class="cls-4" x="24.6" y="25.3" width="4.7" height="15.5"/>
        <line id="Line_919" class="cls-3" x1="6.4" y1="44.3" x2="43.6" y2="44.3"/>
      </g>
    </g>
  </g>
</svg>