<?xml version="1.0" encoding="UTF-8"?>
<svg xmlns="http://www.w3.org/2000/svg" version="1.1" viewBox="0 0 50 50">
  <defs>
    <style>
      .cls-1, .cls-2 {
        fill: none;
      }

      .cls-3 {
        fill: #ffaf6d;
      }

      .cls-4 {
        fill: #7c4dff;
      }

      .cls-5 {
        fill: #fae872;
      }

      .cls-2 {
        stroke: #d3d3d3;
      }
    </style>
  </defs>
  <!-- Generator: Adobe Illustrator 28.7.6, SVG Export Plug-In . SVG Version: 1.2.0 Build 188)  -->
  <g>
    <g id="Layer_1">
      <g id="Layer_1-2" data-name="Layer_1">
        <g id="Group_3089">
          <g id="Rectangle_302">
            <rect class="cls-1" width="50" height="50" rx="6" ry="6"/>
            <rect class="cls-2" x=".5" y=".5" width="49" height="49" rx="5.5" ry="5.5"/>
          </g>
          <path id="Path_6583" class="cls-4" d="M31.9,25.8l-3.8,10.5c.3,0,.6,0,1,.2,5.4.8,10.3-2.9,11.1-8.3.8-5.4-2.9-10.3-8.3-11.1-5.4-.8-10.3,2.9-11.1,8.3h0c-.1.9-.1,1.8,0,2.8,0,0,11.1-2.4,11.1-2.4Z"/>
          <path id="Path_6584" class="cls-5" d="M26.2,12.2l-4.1-6.2-3.8,6.2h8-.1Z"/>
          <g id="Group_3040">
            <path id="Path_6585" class="cls-5" d="M22.9,18.5c1.7-1.4,3.8-2.2,6-2.2l-1.9-2.8h-9.5l-3.1,5h8.5Z"/>
            <path id="Path_6586" class="cls-5" d="M13.7,19.7l-3.2,5.2h8.8c.3-1.9,1.1-3.7,2.4-5.2,0,0-8,0-8,0Z"/>
          </g>
          <path id="Path_6587" class="cls-3" d="M29.7,27.3l-14.8,4.6,3.6,2.8,7.7-4.4-6.3,4.7-.9,3.6,2.5-2.2,3.6,2.4,4.5-11.5h0Z"/>
          <path id="Path_6588" class="cls-3" d="M16.9,34.2l-5.2,5.6,6.1-5-.9-.6Z"/>
          <path id="Path_6589" class="cls-3" d="M18.2,38.1l.3,1-4.8,4.6,4.4-5.6h.1Z"/>
          <path id="Path_6590" class="cls-3" d="M23.5,38.6l.8.4-6.2,4.9s5.4-5.3,5.4-5.3Z"/>
        </g>
      </g>
    </g>
  </g>
</svg>