<?xml version="1.0" encoding="UTF-8"?>
<svg xmlns="http://www.w3.org/2000/svg" version="1.1" viewBox="0 0 50 50">
  <defs>
    <style>
      .cls-1, .cls-2 {
        fill: none;
      }

      .cls-3 {
        fill: #ffaf6d;
      }

      .cls-4 {
        fill: #7c4dff;
      }

      .cls-2 {
        stroke: #d3d3d3;
      }
    </style>
  </defs>
  <!-- Generator: Adobe Illustrator 28.7.6, SVG Export Plug-In . SVG Version: 1.2.0 Build 188)  -->
  <g>
    <g id="Layer_1">
      <g id="Group_3090">
        <g id="Rectangle_206">
          <rect class="cls-1" width="50" height="50" rx="6" ry="6"/>
          <rect class="cls-2" x=".5" y=".5" width="49" height="49" rx="5.5" ry="5.5"/>
        </g>
        <g id="Layer_3">
          <rect id="Rectangle_355" class="cls-4" x="11.3" y="14.2" width="7.2" height="3.1"/>
        </g>
        <g id="Layer_3_copy">
          <rect id="Rectangle_356" class="cls-4" x="31.5" y="14.2" width="7.2" height="3.1"/>
        </g>
        <g id="Layer_6">
          <path id="Path_269" class="cls-4" d="M29.3,20.3h-8.7c-.4,0-.8-.3-.8-.8v-6.2c0-.4.3-.8.8-.8h8.7c.4,0,.8.3.8.8v6.2c0,.4-.4.8-.8.8Z"/>
          <path id="Path_270" class="cls-4" d="M19.9,19.7h10l-5,4.9"/>
        </g>
        <g id="Layer_7_copy_2">
          <rect id="Rectangle_357" class="cls-3" x="11.3" y="26.2" width="2.5" height="13.4"/>
        </g>
        <g id="Layer_7_copy_3">
          <rect id="Rectangle_358" class="cls-3" x="23.6" y="26.2" width="2.5" height="13.4"/>
        </g>
        <g id="Layer_7_copy_4">
          <rect id="Rectangle_359" class="cls-3" x="36.2" y="26.2" width="2.5" height="13.4"/>
        </g>
        <g id="Layer_7_copy_5">
          <rect id="Rectangle_360" class="cls-3" x="29.9" y="32.9" width="2.5" height="6.7"/>
        </g>
        <g id="Layer_7_copy_6">
          <rect id="Rectangle_361" class="cls-3" x="17.5" y="33" width="2.5" height="6.7"/>
        </g>
      </g>
    </g>
  </g>
</svg>