<?xml version="1.0" encoding="utf-8"?><!-- Generator: Adobe Illustrator 21.1.0, SVG Export Plug-In . SVG Version: 6.00 Build 0)  --><svg version="1.1" xmlns="http://www.w3.org/2000/svg" xmlns:xlink="http://www.w3.org/1999/xlink" x="0px" y="0px"	 viewBox="0 0 200 200" style="enable-background:new 0 0 200 200;" xml:space="preserve"><style type="text/css">	.st0{display:none;}	.st1{fill:none;stroke:#B3B4B4;stroke-width:2;stroke-miterlimit:10;}	.st2{fill:#848484;}	.st3{fill:#026685;}	.st4{fill:#F7941D;}</style><g id="Layer_1" class="st0"></g><g id="Layer_5">	<rect class="st1" width="200" height="200"/></g><g id="Layer_3">	<rect x="22" y="31.5" class="st2" width="41" height="18"/></g><g id="Layer_3_copy">	<rect x="137.5" y="31.5" class="st2" width="41" height="18"/></g><g id="Layer_6">	<path class="st3" d="M124.6,66H74.9c-2.4,0-4.4-2-4.4-4.4V26.4c0-2.4,2-4.4,4.4-4.4h49.8c2.4,0,4.4,2,4.4,4.4v35.3		C129,64.1,127,66,124.6,66z"/>	<polyline class="st3" points="71.2,63.1 128.4,63.1 99.8,91 	"/></g><g id="Layer_7_copy_2">	<rect x="22" y="100" class="st4" width="14.5" height="76.5"/></g><g id="Layer_7_copy_3">	<rect x="92.5" y="100" class="st4" width="14.5" height="76.5"/></g><g id="Layer_7_copy_4">	<rect x="164" y="100" class="st4" width="14.5" height="76.5"/></g><g id="Layer_7_copy_5">	<rect x="128.3" y="138.3" class="st4" width="14.5" height="38.3"/></g><g id="Layer_7_copy_6">	<rect x="57.3" y="138.8" class="st4" width="14.5" height="38.3"/></g></svg>