<?xml version="1.0" encoding="UTF-8"?>
<svg xmlns="http://www.w3.org/2000/svg" version="1.1" viewBox="0 0 50 50">
  <defs>
    <style>
      .cls-1 {
        fill: #fae872;
        stroke: #fae872;
        stroke-width: 3px;
      }

      .cls-1, .cls-2, .cls-3 {
        stroke-linecap: round;
        stroke-linejoin: round;
      }

      .cls-4, .cls-2, .cls-3, .cls-5 {
        fill: none;
      }

      .cls-2 {
        stroke: #ffaf6d;
      }

      .cls-2, .cls-3 {
        stroke-width: 2px;
      }

      .cls-3 {
        stroke: #7c4dff;
      }

      .cls-5 {
        stroke: #d3d3d3;
      }
    </style>
  </defs>
  <!-- Generator: Adobe Illustrator 28.7.6, SVG Export Plug-In . SVG Version: 1.2.0 Build 188)  -->
  <g>
    <g id="Layer_1">
      <g id="Layer_1-2" data-name="Layer_1">
        <g id="Group_3094">
          <g id="Rectangle_302">
            <rect class="cls-4" width="50" height="50" rx="6" ry="6"/>
            <rect class="cls-5" x=".5" y=".5" width="49" height="49" rx="5.5" ry="5.5"/>
          </g>
          <path id="Path_279" class="cls-2" d="M38.3,30l-7.5-7.5-16.5,16.5"/>
          <path id="Path_290" class="cls-3" d="M14.3,12h21c1.7,0,3,1.3,3,3v21c0,1.7-1.3,3-3,3H14.3c-1.7,0-3-1.3-3-3V15c0-1.7,1.3-3,3-3Z"/>
          <path id="Path_291" class="cls-1" d="M21.8,20.2c0,1.2-1,2.2-2.2,2.2s-2.2-1-2.2-2.2,1-2.2,2.2-2.2,2.2,1,2.2,2.2Z"/>
        </g>
      </g>
    </g>
  </g>
</svg>