<svg xmlns="http://www.w3.org/2000/svg" width="50" height="50" viewBox="0 0 50 50">
  <g id="Group_3284" data-name="Group 3284" transform="translate(-566 -1349)">
    <g id="Rectangle_208" data-name="Rectangle 208" transform="translate(566 1349)" fill="none" stroke="#d3d3d3" stroke-width="1">
      <rect width="50" height="50" rx="6" stroke="none"/>
      <rect x="0.5" y="0.5" width="49" height="49" rx="5.5" fill="none"/>
    </g>
    <path id="Rectangle_14956" data-name="Rectangle 14956" d="M3,1A2,2,0,0,0,1,3V15a2,2,0,0,0,2,2H32a2,2,0,0,0,2-2V3a2,2,0,0,0-2-2H3M3,0H32a3,3,0,0,1,3,3V15a3,3,0,0,1-3,3H3a3,3,0,0,1-3-3V3A3,3,0,0,1,3,0Z" transform="translate(574 1365)" fill="#7c4dff"/>
    <path id="Path_7034" data-name="Path 7034" d="M.738-6.345h.927V0H.738ZM5.4-4.5q1.575,0,1.575,1.773V0H6.066V-2.682a1.255,1.255,0,0,0-.22-.819.852.852,0,0,0-.688-.261,1.175,1.175,0,0,0-.882.342,1.26,1.26,0,0,0-.333.918V0H3.033V-4.392h.891v.7a1.46,1.46,0,0,1,.6-.6A1.822,1.822,0,0,1,5.4-4.5Zm5.175,0a1.824,1.824,0,0,1,1.012.288,1.915,1.915,0,0,1,.693.81A2.785,2.785,0,0,1,12.528-2.2a2.746,2.746,0,0,1-.243,1.188,1.835,1.835,0,0,1-.688.792,1.884,1.884,0,0,1-1.022.279A1.758,1.758,0,0,1,9.7-.148a1.393,1.393,0,0,1-.576-.608V1.62H8.217V-4.392h.909v.72A1.42,1.42,0,0,1,9.7-4.284,1.729,1.729,0,0,1,10.575-4.5ZM10.359-.657a1.113,1.113,0,0,0,.918-.4A1.768,1.768,0,0,0,11.6-2.2a1.825,1.825,0,0,0-.328-1.161,1.1,1.1,0,0,0-.913-.414,1.1,1.1,0,0,0-.913.405,1.822,1.822,0,0,0-.32,1.152,1.822,1.822,0,0,0,.32,1.152A1.1,1.1,0,0,0,10.359-.657Zm7.029-3.735V0h-.882V-.711a1.409,1.409,0,0,1-.572.576,1.678,1.678,0,0,1-.814.2q-1.6,0-1.6-1.764V-4.392h.909V-1.71a1.185,1.185,0,0,0,.216.783.83.83,0,0,0,.666.252,1.109,1.109,0,0,0,.851-.342,1.278,1.278,0,0,0,.319-.909V-4.392ZM20.736-.639a3,3,0,0,0,.405-.027L21.1.027a2.959,2.959,0,0,1-.468.036,1.732,1.732,0,0,1-1.274-.419,1.639,1.639,0,0,1-.418-1.211V-3.69h-.855v-.7h.855V-5.715h.909v1.323h1.206v.7H19.845V-1.6Q19.845-.639,20.736-.639Z" transform="translate(579 1378)" fill="#fae872"/>
    <path id="Line_1002" data-name="Line 1002" d="M.5,25h-1V0h1Z" transform="translate(602.5 1361.5)" fill="#ffaf6d"/>
    <path id="Line_1003" data-name="Line 1003" d="M8,.5H0v-1H8Z" transform="translate(598.5 1361.5)" fill="#ffaf6d"/>
    <path id="Line_1004" data-name="Line 1004" d="M8,.5H0v-1H8Z" transform="translate(598.5 1386.5)" fill="#ffaf6d"/>
  </g>
</svg>
