<?xml version="1.0" encoding="utf-8"?><!-- Generator: Adobe Illustrator 21.1.0, SVG Export Plug-In . SVG Version: 6.00 Build 0)  --><svg version="1.1" xmlns="http://www.w3.org/2000/svg" xmlns:xlink="http://www.w3.org/1999/xlink" x="0px" y="0px"	 viewBox="0 0 200 200" style="enable-background:new 0 0 200 200;" xml:space="preserve"><style type="text/css">	.st0{fill:none;stroke:#B3B4B4;stroke-width:2;stroke-miterlimit:10;}	.st1{fill:none;stroke:#727373;stroke-width:7;stroke-miterlimit:10;}	.st2{fill:#FFFFFF;}	.st3{fill:#026685;}	.st4{font-family:'PalatinoLinotype-Bold';}	.st5{font-size:120px;}	.st6{fill:#F7941D;}</style><g id="Layer_1"></g><g id="Layer_5">	<rect class="st0" width="200" height="200"/></g><g id="Layer_3">	<rect x="31" y="30" class="st1" width="138.7" height="138.7"/></g><g id="Layer_4">	<rect x="51.8" y="26.7" class="st2" width="19.2" height="6.7"/></g><g id="Layer_4_copy">	<rect x="90.9" y="26.7" class="st2" width="19.2" height="6.7"/></g><g id="Layer_4_copy_2">	<rect x="129.1" y="26.7" class="st2" width="19.2" height="6.7"/></g><g id="Layer_4_copy_5">	<rect x="50.5" y="165.3" class="st2" width="19.2" height="6.7"/></g><g id="Layer_4_copy_4">	<rect x="89.3" y="165.2" class="st2" width="20.1" height="7"/></g><g id="Layer_4_copy_3">	<rect x="127.8" y="165.3" class="st2" width="19.2" height="6.7"/></g><g id="Layer_4_copy_8">			<rect x="159.6" y="56" transform="matrix(-1.348541e-10 1 -1 -1.348541e-10 229.1667 -110.1667)" class="st2" width="20.1" height="7"/></g><g id="Layer_4_copy_7">			<rect x="160.1" y="97" transform="matrix(-1.348026e-10 1 -1 -1.348026e-10 269.9925 -69.3409)" class="st2" width="19.2" height="6.7"/></g><g id="Layer_4_copy_6">			<rect x="160.1" y="135.1" transform="matrix(-1.347075e-10 1 -1 -1.347075e-10 308.1571 -31.1762)" class="st2" width="19.2" height="6.7"/></g><g id="Layer_4_copy_11">			<rect x="21.4" y="56.6" transform="matrix(-1.348496e-10 1 -1 -1.348496e-10 90.9494 28.9204)" class="st2" width="19.2" height="6.7"/></g><g id="Layer_4_copy_10">			<rect x="21.4" y="95.7" transform="matrix(-1.348976e-10 1 -1 -1.348976e-10 130.0681 68.0391)" class="st2" width="19.2" height="6.7"/></g><g id="Layer_4_copy_9">			<rect x="21.4" y="133.9" transform="matrix(-1.346605e-10 1 -1 -1.346605e-10 168.2328 106.2038)" class="st2" width="19.2" height="6.7"/></g><g id="Layer_16">	<text transform="matrix(1 0 0 1 61.25 142.5205)" class="st3 st4 st5">T</text></g><g id="Layer_17">	<rect x="22" y="20" class="st6" width="25.3" height="25.3"/>	<rect x="25.7" y="23.5" class="st2" width="18.1" height="18.1"/></g><g id="Layer_21"></g><g id="Layer_17_copy">	<rect x="152.7" y="19.9" class="st6" width="25.3" height="25.3"/>	<rect x="156.3" y="23.4" class="st2" width="18.1" height="18.1"/></g><g id="Layer_21_copy"></g><g id="Layer_17_copy_2">	<rect x="152" y="154.3" class="st6" width="25.3" height="25.3"/>	<rect x="155.7" y="157.8" class="st2" width="18.1" height="18.1"/></g><g id="Layer_21_copy_3"></g><g id="Layer_17_copy_3">	<rect x="20" y="153.3" class="st6" width="25.3" height="25.3"/>	<rect x="23.7" y="156.8" class="st2" width="18.1" height="18.1"/></g><g id="Layer_21_copy_2"></g></svg>