<?xml version="1.0" encoding="UTF-8"?>
<svg xmlns="http://www.w3.org/2000/svg" version="1.1" viewBox="0 0 50 50">
  <defs>
    <style>
      .cls-1, .cls-2 {
        fill: none;
      }

      .cls-3 {
        fill: #ffaf6d;
      }

      .cls-4 {
        fill: #7c4dff;
      }

      .cls-5 {
        fill: #fae872;
      }

      .cls-2 {
        stroke: #d3d3d3;
      }
    </style>
  </defs>
  <!-- Generator: Adobe Illustrator 28.7.6, SVG Export Plug-In . SVG Version: 1.2.0 Build 188)  -->
  <g>
    <g id="Layer_1">
      <g id="Layer_1-2" data-name="Layer_1">
        <g id="Group_3098">
          <g id="Rectangle_172">
            <rect class="cls-1" width="50" height="50" rx="6" ry="6"/>
            <rect class="cls-2" x=".5" y=".5" width="49" height="49" rx="5.5" ry="5.5"/>
          </g>
          <g id="Group_3043">
            <path id="Path_6592" class="cls-4" d="M25.1,13.7c-.2-3.8-3.4-6.9-7.3-6.9v6.9h7.3Z"/>
            <path id="Path_6593" class="cls-4" d="M15.7,15.7v-7.8c-4.5,0-8.2,3.7-8.2,8.2s3.7,8.2,8.2,8.2,8.2-3.7,8.2-8.2h0v-.5h-8.2Z"/>
            <path id="Path_6594" class="cls-5" d="M44.1,31.5l-2.4,2.2-13.9-13.2,2.4-2.2,13.9,13.2Z"/>
            <path id="Path_6595" class="cls-5" d="M30.1,33.8l-2.5-2.2,13.7-13.4,2.5,2.2s-13.7,13.4-13.7,13.4Z"/>
            <g id="Group_3041">
              <path id="Path_6596" class="cls-3" d="M25.5,29.5h0c-.2,1.3-3.9,2.2-8.4,2.2s-8.1-1-8.3-2.2v2.3c0,1.3,3.8,2.4,8.4,2.4s8.4-1.1,8.4-2.4h0c0-.1-.1-2.4-.1-2.4h0Z"/>
              <path id="Path_6597" class="cls-3" d="M25.3,34.3h0c-.2,1.3-3.9,2.2-8.4,2.2s-8.2-1-8.4-2.2v2.3c0,1.3,3.8,2.4,8.4,2.4s8.4-1.1,8.4-2.4h0v-2.3Z"/>
              <path id="Path_6598" class="cls-3" d="M17.2,27.3c-4.6,0-8.3,1.1-8.3,2.3s3.7,2.3,8.3,2.3,8.3-1.1,8.3-2.3-3.7-2.3-8.3-2.3ZM17.2,31.1c-2.7,0-4.9-.6-4.9-1.4s2.2-1.4,4.9-1.4,5,.5,5,1.3-2.2,1.5-5,1.5Z"/>
              <path id="Path_6599" class="cls-3" d="M25.5,38.5h0c-.2,1.3-3.9,2.2-8.3,2.2s-8.2-1-8.4-2.2v2.3c0,1.3,3.8,2.4,8.4,2.4s8.4-1.1,8.4-2.4h0c0,0-.1-2.3-.1-2.3Z"/>
            </g>
            <path id="Path_6600" class="cls-3" d="M26.6,38.5s3.6,6.2,10.1,1.7l1.9,2.3.7-7-7.1-.8,1.9,2.5s-2.3,2.9-7.6,1.3h0Z"/>
            <path id="Path_6601" class="cls-5" d="M38.9,16.7s.4-7.2-7.6-7l-.3-2.9-4.4,5.4,5.4,4.5-.2-3.1s3.5-1.2,7,3.1h0Z"/>
          </g>
        </g>
      </g>
    </g>
  </g>
</svg>