<svg xmlns="http://www.w3.org/2000/svg" width="50" height="50" viewBox="0 0 50 50">
  <g id="Group_3099" data-name="Group 3099" transform="translate(-198 -2959)">
    <g id="Rectangle_206" data-name="Rectangle 206" transform="translate(198 2959)" fill="none" stroke="#d3d3d3" stroke-width="1">
      <rect width="50" height="50" rx="6" stroke="none"/>
      <rect x="0.5" y="0.5" width="49" height="49" rx="5.5" fill="none"/>
    </g>
    <g id="Layer_3" transform="translate(225.353 2971.07)">
      <path id="Path_7" data-name="Path 7" d="M48.4,15.364H61.379L54.866,7.9Z" transform="translate(-48.4 -7.9)" fill="#1ea41b"/>
    </g>
    <path id="Path_64" data-name="Path 64" d="M17.479,47.1H14.341V35.312A10.235,10.235,0,0,1,10.3,37.689V34.836a8.78,8.78,0,0,0,2.662-1.521,6.042,6.042,0,0,0,2-2.615h2.52Z" transform="translate(196.697 2949.533)" fill="#f89406"/>
    <path id="Path_65" data-name="Path 65" d="M34.372,30.7a4.526,4.526,0,0,1,3.708,1.712c1.046,1.331,1.569,3.566,1.569,6.656s-.523,5.325-1.616,6.656a4.355,4.355,0,0,1-3.708,1.664,4.541,4.541,0,0,1-3.851-1.854C29.523,44.294,29,42.107,29,38.969c0-3.09.523-5.277,1.616-6.656A4.741,4.741,0,0,1,34.372,30.7Zm0,2.615a1.534,1.534,0,0,0-1,.38,2.444,2.444,0,0,0-.713,1.331,16.779,16.779,0,0,0-.333,4.089,18.174,18.174,0,0,0,.285,3.946,2.718,2.718,0,0,0,.713,1.426,1.643,1.643,0,0,0,2.044,0,2.316,2.316,0,0,0,.713-1.284,14.7,14.7,0,0,0,.285-4.089,18.174,18.174,0,0,0-.285-3.946,2.718,2.718,0,0,0-.713-1.426,1.368,1.368,0,0,0-1-.43Z" transform="translate(186.888 2949.536)" fill="#f89406"/>
    <text id="_" data-name="%" transform="translate(227.179 2994.115)" fill="#f89406" font-size="10" font-family="Arial-BoldMT, Arial" font-weight="700"><tspan x="0" y="0">%</tspan></text>
  </g>
</svg>
