<?xml version="1.0" encoding="utf-8"?>
<!-- Generator: Adobe Illustrator 23.0.3, SVG Export Plug-In . SVG Version: 6.00 Build 0)  -->
<svg version="1.1" id="Layer_1" xmlns="http://www.w3.org/2000/svg" xmlns:xlink="http://www.w3.org/1999/xlink" x="0px" y="0px"
	 viewBox="0 0 85.3 85.3" style="enable-background:new 0 0 85.3 85.3;" xml:space="preserve">
<style type="text/css">
	.st0{fill:#1EA41B;}
	.st1{fill:#3D3D3C;}
	.st2{font-family:'Arial-BoldMT';}
	.st3{font-size:28.3px;}
	.st4{fill:none;stroke:#e0dfdf;stroke-width:2;stroke-miterlimit:10;}
</style>
<title>KPI chart</title>
<g id="Layer_3">
	<polygon class="st0" points="48.4,23.6 75.7,23.6 62,7.9 	"/>
</g>
<g id="Layer_4">
	<path class="st1" d="M25.4,65.2h-6.6V40.4c-2.4,2.3-5.3,4-8.5,5v-6c2-0.7,3.9-1.8,5.6-3.2c1.9-1.4,3.3-3.3,4.2-5.5h5.3V65.2z"/>
	<path class="st1" d="M40.3,30.7c3-0.1,5.9,1.2,7.8,3.6c2.2,2.8,3.3,7.5,3.3,14s-1.1,11.2-3.4,14c-1.9,2.4-4.8,3.7-7.8,3.5
		c-3.2,0.1-6.2-1.3-8.1-3.9c-2-2.6-3.1-7.2-3.1-13.8c0-6.5,1.1-11.1,3.4-14C34.4,31.8,37.3,30.6,40.3,30.7z M40.3,36.2
		c-0.8,0-1.5,0.3-2.1,0.8c-0.8,0.8-1.3,1.7-1.5,2.8c-0.6,2.8-0.8,5.7-0.7,8.6c-0.1,2.8,0.1,5.6,0.6,8.3c0.2,1.1,0.7,2.2,1.5,3
		c1.2,1,3,1,4.3,0c0.8-0.7,1.3-1.7,1.5-2.7c0.6-2.8,0.8-5.7,0.6-8.6c0.1-2.8-0.1-5.6-0.6-8.3c-0.2-1.1-0.7-2.2-1.5-3
		C41.8,36.5,41.1,36.2,40.3,36.2z"/>
	<text transform="matrix(0.94 0 0 1 52.75 64.9697)" class="st1 st2 st3">%</text>
</g>
<rect class="st4" width="85.3" height="85.3"/>
</svg>
