<?xml version="1.0" encoding="utf-8"?><!-- Generator: Adobe Illustrator 21.1.0, SVG Export Plug-In . SVG Version: 6.00 Build 0)  --><svg version="1.1" xmlns="http://www.w3.org/2000/svg" xmlns:xlink="http://www.w3.org/1999/xlink" x="0px" y="0px"	 viewBox="0 0 200 200" style="enable-background:new 0 0 200 200;" xml:space="preserve"><style type="text/css">	.st0{fill:none;stroke:#B3B4B4;stroke-width:2;stroke-miterlimit:10;}	.st1{fill:#026685;}	.st2{fill:#FFFFFF;}	.st3{fill:#F7941D;}	.st4{fill:#A3A3A3;}	.st5{fill:#76CFEC;}</style><g id="Layer_1"></g><g id="Layer_5">	<rect class="st0" width="200" height="200"/></g><g id="Layer_3">	<path class="st1" d="M172.7,135l-34.2,35.9c-3.6,3.8-9.6,3.9-13.4,0.3L33.3,83.8c-3.8-3.6-3.9-9.6-0.3-13.4l34.2-35.9		c3.6-3.8,9.6-3.9,13.4-0.3l91.8,87.4C176.2,125.1,176.3,131.2,172.7,135z"/></g><g id="Layer_4">	<polygon class="st1" points="77,32.1 31,80.4 26.8,30.4 	"/></g><g id="Layer_6">	<ellipse transform="matrix(0.6895 -0.7243 0.7243 0.6895 -22.3366 52.575)" class="st2" cx="50.2" cy="52.3" rx="12.4" ry="12.4"/></g><g id="Layer_7">	<path class="st2" d="M160.3,132.4L135,159c-2,2.1-5.2,2.1-7.2,0.2L64.4,98.8c-2.1-2-2.1-5.2-0.2-7.2L89.5,65c2-2.1,5.2-2.1,7.2-0.2		l63.4,60.3C162.2,127.1,162.3,130.3,160.3,132.4z"/></g><g id="Layer_8">			<rect x="74.2" y="79.9" transform="matrix(0.6895 -0.7243 0.7243 0.6895 -37.5714 93.5719)" class="st3" width="32.3" height="21.5"/></g><g id="Layer_8_copy">			<rect x="96.6" y="100.8" transform="matrix(0.6895 -0.7243 0.7243 0.6895 -45.7934 116.2627)" class="st4" width="32.3" height="21.5"/></g><g id="Layer_8_copy_2">			<rect x="118.8" y="121.9" transform="matrix(0.6895 -0.7243 0.7243 0.6895 -54.2 138.8849)" class="st5" width="32.3" height="21.5"/></g></svg>