<?xml version="1.0" encoding="UTF-8"?>
<svg xmlns="http://www.w3.org/2000/svg" version="1.1" viewBox="0 0 50 50">
  <defs>
    <style>
      .cls-1, .cls-2 {
        fill: none;
      }

      .cls-3 {
        fill: #ffaf6d;
      }

      .cls-4 {
        fill: #7c4dff;
      }

      .cls-2 {
        stroke: #d3d3d3;
      }
    </style>
  </defs>
  <!-- Generator: Adobe Illustrator 28.7.6, SVG Export Plug-In . SVG Version: 1.2.0 Build 188)  -->
  <g>
    <g id="Layer_1">
      <g id="Group_3101">
        <g id="Rectangle_208">
          <rect class="cls-1" width="50" height="50" rx="6" ry="6"/>
          <rect class="cls-2" x=".5" y=".5" width="49" height="49" rx="5.5" ry="5.5"/>
        </g>
        <path id="Path_10" class="cls-4" d="M11.1,28.8l-2.1-1.7,3.4-7.4,5.5,5.8,4.8-5.1,4.9,2.4,5.1-10.8,5.6,3.1v3l-4.6-2.5-5,10.8-5.4-2.8-5.4,5.7-4.8-5.1-1.9,4.5Z"/>
        <path id="Path_11" class="cls-3" d="M13.2,26.8l-2.6,4.6,2.3,1.3,2.2-4-1.9-1.9Z"/>
        <path id="Path_12" class="cls-3" d="M20.9,20.4l1.8-1.7-2.4-4.2-4.1,7.3,1.7,1.8,2.4-4.1.6.9Z"/>
        <path id="Path_13" class="cls-3" d="M24,26.1l5.4,9,3.5-5.7,3.1,12.2,2.3-.8-4.8-17.9-4.3,7.5-1.1-2.3-4.1-2Z"/>
      </g>
    </g>
  </g>
</svg>