<?xml version="1.0" encoding="utf-8"?><!-- Generator: Adobe Illustrator 21.1.0, SVG Export Plug-In . SVG Version: 6.00 Build 0)  --><svg version="1.1" xmlns="http://www.w3.org/2000/svg" xmlns:xlink="http://www.w3.org/1999/xlink" x="0px" y="0px"	 viewBox="0 0 200 200" style="enable-background:new 0 0 200 200;" xml:space="preserve"><style type="text/css">	.st0{fill:none;stroke:#B3B4B4;stroke-width:2;stroke-miterlimit:10;}	.st1{display:none;}	.st2{display:inline;fill:#026685;}	.st3{display:inline;fill:#51BED1;}	.st4{display:inline;fill:#036785;}	.st5{display:inline;fill:#DC9D27;}	.st6{display:inline;fill:#8FA79C;}	.st7{display:inline;fill:#818282;}	.st8{display:inline;fill:#E4A025;}	.st9{display:inline;fill:#59B6D8;}	.st10{display:inline;fill:#22AB73;}	.st11{display:inline;fill:#478DCB;}	.st12{display:inline;}	.st13{fill:#036785;}	.st14{fill:#47B649;}	.st15{fill:#D7D924;}	.st16{fill:#DD9627;}	.st17{fill:#3C3A3A;}	.st18{fill:#DE6A26;}	.st19{fill:#25A549;}	.st20{fill:#3E3E3D;}	.st21{font-family:'Arial-BoldMT';}	.st22{font-size:81.3464px;}	.st23{fill:#E4A025;}</style><g id="Layer_1"></g><g id="Layer_5">	<rect class="st0" width="200" height="200"/></g><g id="Layer_3" class="st1">	<polyline class="st2" points="22,176.3 177,176.3 177,84.5 120.3,142.9 100,109.8 67,149.9 52.7,128.9 	"/></g><g id="Layer_4" class="st1">	<polyline class="st3" points="177,63.2 123.7,122.8 103.7,83.3 70.7,127.1 55.5,99.1 25,146.5 25.3,118.9 57.3,62 71.8,80 		100.3,31.9 133.9,73.8 177,22.5 	"/></g><g id="Layer_6" class="st1">	<rect x="39" y="27" class="st4" width="131.7" height="35.5"/>	<rect x="39" y="82.8" class="st5" width="94.2" height="35.5"/>	<rect x="39" y="138.9" class="st6" width="59.3" height="35.5"/></g><g id="Layer_7" class="st1">	<rect x="25.7" y="27" class="st7" width="6" height="147.3"/></g><g id="Layer_8" class="st1">	<circle class="st4" cx="75.7" cy="122.5" r="37.7"/>	<circle class="st8" cx="149" cy="94.5" r="28"/>	<circle class="st8" cx="80" cy="49.9" r="16.7"/>	<circle class="st9" cx="161.2" cy="39.8" r="10"/>	<circle class="st4" cx="161.2" cy="147.8" r="12.2"/></g><g id="Layer_9" class="st1">	<rect x="23" y="23.1" class="st7" width="5.5" height="149.9"/></g><g id="Layer_9_copy" class="st1">	<rect x="97.3" y="96" transform="matrix(-1.346054e-10 1 -1 -1.346054e-10 273 73)" class="st7" width="5.5" height="154"/></g><g id="Layer_10" class="st1">	<rect x="136.9" y="32.5" class="st10" width="31.5" height="129"/>	<rect x="87.1" y="69.9" class="st11" width="31.5" height="91.6"/>	<rect x="37.3" y="104.1" class="st4" width="31.5" height="57.4"/></g><g id="Layer_11" class="st1">	<g id="Layer_2" class="st12">		<path class="st13" d="M100,21.4c-43.8,0-79.3,35.5-79.3,79.3S56.3,180,100,180s79.3-35.5,79.3-79.3S143.8,21.4,100,21.4z			 M100,162.3c-34,0-61.6-27.6-61.6-61.6S66,39.1,100,39.1c34,0,61.6,27.6,61.6,61.6c0,0,0,0,0,0C161.7,134.7,134.1,162.3,100,162.3			z"/>		<path class="st13" d="M100,21.4c-43.8,0-79.3,35.5-79.3,79.3S56.3,180,100,180s79.3-35.5,79.3-79.3S143.8,21.4,100,21.4z			 M100,162.3c-34,0-61.6-27.6-61.6-61.6S66,39.1,100,39.1c34,0,61.6,27.6,61.6,61.6c0,0,0,0,0,0C161.7,134.7,134.1,162.3,100,162.3			z"/>		<path class="st14" d="M64.6,62.1C53.8,72.1,47.5,86,47.3,100.7h19.9c1.5-15.5,10.6-23.1,10.6-23.1L64.6,62.1z"/>		<path class="st15" d="M72.8,56.3l12.7,15c9.8-3.9,20.7-3.9,30.5,0l13.3-15C129.3,56.3,101.6,38.5,72.8,56.3z"/>		<path class="st16" d="M136.9,62.1l-13.3,15.4c0,0,7.3,5.7,9.9,23.2h19.8C153.3,100.7,155.2,81.8,136.9,62.1z"/>	</g>	<g id="Layer_3_1_" class="st12">		<path class="st17" d="M99.9,91.1l5.2,1.8c1.1,0.4,2.3-0.2,2.6-1.3c0,0,0,0,0-0.1l11-35.4c0.1-0.2-0.1-0.5-0.3-0.5			c-0.2-0.1-0.4,0-0.5,0.2L98.8,88.1c-0.6,1-0.2,2.3,0.8,2.8C99.6,91,99.8,91,99.9,91.1z"/>		<circle class="st18" cx="100" cy="100.7" r="17.3"/>	</g></g><g id="Layer_12" class="st1">	<g id="Layer_3_2_" class="st12">		<polygon class="st19" points="111.6,57.1 176.2,57.1 143.9,19.8 		"/>	</g>	<g id="Layer_4_1_" class="st12">		<path class="st20" d="M56,173.1H40.4v-71.3c-5.8,6.5-12.7,11.4-20.2,14.4V98.8c4.8-2.1,9.3-5.2,13.3-9.2c4.5-4,7.9-9.5,9.8-15.8			H56V173.1z"/>		<path class="st20" d="M91.5,73.9c7.2-0.4,14,3.4,18.5,10.2c5.3,8.1,7.9,21.5,7.9,40.2s-2.7,32.2-8,40.2			c-4.4,6.8-11.3,10.5-18.4,10.1c-7.5,0.3-14.6-3.9-19.2-11.1c-4.9-7.4-7.3-20.6-7.3-39.5c0-18.6,2.7-32,8-40.2			C77.5,77.2,84.4,73.4,91.5,73.9z M91.5,89.6c-1.8,0-3.6,0.8-5,2.2c-1.8,2.2-3,5-3.5,8c-1.3,8.1-1.9,16.4-1.6,24.7			c-0.3,8,0.2,16,1.4,23.9c0.5,3.2,1.8,6.2,3.6,8.6c2.9,2.9,7.1,2.9,10.1,0c1.8-2.1,3-4.9,3.4-7.8c1.3-8.2,1.8-16.5,1.5-24.8			c0.3-8-0.2-16-1.4-23.9c-0.5-3.2-1.8-6.2-3.6-8.6C95.1,90.4,93.3,89.6,91.5,89.6z"/>		<text transform="matrix(0.775 0 0 1 120.9434 172.375)" class="st20 st21 st22">%</text>	</g></g><g id="Layer_13">	<g id="Layer_3_3_">		<polygon class="st13" points="35.3,111.3 24.3,102.3 42,64 70.4,94.3 95.6,67.9 121.3,80.4 147.9,24.3 177,40.2 177,56 153,43.1 			126.7,99.4 98.4,84.7 70.3,114.4 45.4,87.8 		"/>		<polygon class="st23" points="46.4,101 32.8,124.8 44.6,131.7 56.2,110.8 		"/>		<polygon class="st23" points="86.3,67.7 95.9,58.7 83.4,36.7 61.8,74.9 70.9,84.4 83.3,63 		"/>		<polygon class="st23" points="102.4,97.1 130.3,144.2 148.7,114.4 164.9,177.7 177,173.4 151.9,80.4 129.5,119.3 123.6,107.5 					"/>	</g></g></svg>