<?xml version="1.0" encoding="utf-8"?>
<!-- Generator: Adobe Illustrator 22.1.0, SVG Export Plug-In . SVG Version: 6.00 Build 0)  -->
<svg version="1.1" id="Layer_1" xmlns="http://www.w3.org/2000/svg" xmlns:xlink="http://www.w3.org/1999/xlink" x="0px" y="0px"
	 viewBox="0 0 100 100" style="enable-background:new 0 0 100 100;" xml:space="preserve">
<style type="text/css">
	.st0{fill:none;stroke:#7979E2;stroke-width:4;stroke-miterlimit:10;}
	.st1{fill:none;stroke:#ED1C24;stroke-width:4;stroke-miterlimit:10;}
	.st2{fill:none;stroke:#EDCD32;stroke-width:4;stroke-miterlimit:10;}
	.st3{fill:none;stroke:#4AA2D3;stroke-width:4;stroke-miterlimit:10;}
	.st4{fill:none;stroke:#DD9726;stroke-width:4;stroke-miterlimit:10;}
	.st5{fill:none;stroke:#EAB91F;stroke-width:4;stroke-miterlimit:10;}
	.st6{fill:none;stroke:#1884C6;stroke-width:4;stroke-miterlimit:10;}
	.st7{fill:none;stroke:#8662CC;stroke-width:4;stroke-miterlimit:10;}
	.st8{fill:none;stroke:#1CA2A5;stroke-width:4;stroke-miterlimit:10;}
	.st9{fill:#FFFFFF;stroke:#000000;stroke-width:4;stroke-miterlimit:10;}
</style>
<path class="st0" d="M11,39.6c0-0.1,0-0.1,0.1-0.2c1-3.7,2.6-7.2,4.6-10.5"/>
<path class="st1" d="M9.8,45.5c0-0.4,0.1-0.8,0.2-1.1"/>
<path class="st2" d="M13.1,67.2c-0.3-0.8-0.7-1.5-0.9-2.3c0-0.1-0.1-0.2-0.1-0.3c-1.7-4.6-2.5-9.3-2.5-13.9c0-0.1,0-0.3,0-0.4
	c0-0.6,0-1.2,0-1.8"/>
<path class="st3" d="M29.3,77.4c-3-2.5-5.6-5.5-7.8-8.9c-0.1-0.1-0.1-0.2-0.2-0.3c-0.2-0.3-0.4-0.6-0.5-0.9c0-0.1-0.1-0.1-0.1-0.2"
	/>
<path class="st1" d="M36.7,89.1c-1.4-0.5-2.7-1.1-4-1.7c-0.1,0-0.1-0.1-0.2-0.1c-0.7-0.4-1.5-0.7-2.2-1.1c-0.2-0.1-0.3-0.2-0.5-0.3"
	/>
<path class="st4" d="M38.6,89.7c-0.2-0.1-0.5-0.1-0.7-0.2"/>
<path class="st4" d="M40.6,90.3c-0.2-0.1-0.5-0.1-0.7-0.2"/>
<path class="st0" d="M45.4,91.2c-0.8-0.1-1.7-0.2-2.5-0.4c-0.2,0-0.3-0.1-0.5-0.1"/>
<path class="st4" d="M52.8,84.5c-2.2,0.1-4.5,0.1-6.6-0.2"/>
<path class="st1" d="M60.2,90.3c-0.5,0.1-1,0.2-1.5,0.3c-0.6,0.1-1.2,0.2-1.8,0.3"/>
<path class="st0" d="M77.9,81c-3.7,3.3-8.1,6-13,7.9c-0.1,0-0.2,0.1-0.3,0.1c-0.6,0.2-1.2,0.4-1.8,0.6"/>
<path class="st5" d="M86.7,69.7c-0.1,0.2-0.2,0.4-0.3,0.6c-0.8,1.5-1.7,2.9-2.7,4.3c-0.1,0.1-0.2,0.2-0.3,0.4
	c-0.1,0.1-0.2,0.3-0.3,0.4c-1.3,1.7-2.8,3.4-4.4,4.9"/>
<path class="st1" d="M88.6,65.5c0,0.1-0.1,0.2-0.1,0.3c-0.1,0.2-0.1,0.3-0.2,0.5c-0.3,0.7-0.6,1.3-0.9,2c-0.1,0.1-0.1,0.2-0.2,0.3"
	/>
<path class="st6" d="M89.6,38.4c0.7,2.3,1.2,4.6,1.5,6.9c0,0.2,0,0.3,0.1,0.5c0.2,1.5,0.3,3.1,0.3,4.6c0,0.1,0,0.3,0,0.4
	c0,0.6,0,1.2-0.1,1.8c0,0.2,0,0.4,0,0.6c-0.2,2.8-0.7,5.5-1.4,8.2c0,0.1-0.1,0.2-0.1,0.4"/>
<path class="st1" d="M88.7,35.8c0,0.1,0.1,0.2,0.1,0.3"/>
<path class="st1" d="M83.6,26.4c0.6,0.8,1.1,1.6,1.6,2.4"/>
<path class="st1" d="M79.9,22c0.4,0.4,0.7,0.7,1.1,1.1"/>
<path class="st1" d="M77.3,19.5c0.3,0.2,0.5,0.5,0.8,0.7"/>
<path class="st1" d="M72.6,16c0.2,0.1,0.3,0.2,0.5,0.3c1.2,0.8,2.4,1.7,3.5,2.6"/>
<path class="st7" d="M59.7,10.6c0.5,0.1,0.9,0.2,1.4,0.3c0.1,0,0.2,0,0.3,0.1c0.3,0.1,0.7,0.2,1,0.3c0.8,0.2,1.6,0.5,2.4,0.8
	c1.4,0.5,2.7,1.1,4.1,1.7"/>
<path class="st8" d="M51,9.5c0.1,0,0.2,0,0.3,0c0.3,0,0.5,0,0.8,0c0.1,0,0.2,0,0.4,0c1.7,0.1,3.4,0.3,5.1,0.6"/>
<path class="st1" d="M48.2,9.6c0.4,0,0.8,0,1.2-0.1c0.4,0,0.8,0,1.2,0"/>
<path class="st1" d="M45.7,9.8c0.3,0,0.6-0.1,0.8-0.1"/>
<path class="st6" d="M36.8,11.9c0.6-0.2,1.2-0.4,1.8-0.6c1.9-0.6,3.7-1,5.6-1.3"/>
<path class="st1" d="M35.1,12.6c0.2-0.1,0.5-0.2,0.7-0.3"/>
<path class="st5" d="M17.8,25.8c0.1-0.1,0.2-0.2,0.2-0.3c3.5-4.5,7.9-8.3,13.1-11.1"/>
<path class="st2" d="M86,29.9c0.1,0.2,0.2,0.3,0.3,0.5c0.8,1.3,1.4,2.6,2.1,3.9"/>
<path class="st0" d="M29.2,85.5c-0.7-0.4-1.4-0.9-2.1-1.4c-0.1-0.1-0.3-0.2-0.4-0.3"/>
<path class="st0" d="M45.1,91.1c-0.7-0.1-1.3-0.2-2-0.3c-0.1,0-0.3-0.1-0.4-0.1"/>
<path class="st9" d="M27.1,70.4"/>
</svg>
