<?xml version="1.0" encoding="UTF-8"?>
<svg xmlns="http://www.w3.org/2000/svg" version="1.1" viewBox="0 0 50 50">
  <defs>
    <style>
      .cls-1, .cls-2 {
        fill: none;
      }

      .cls-3 {
        fill: #ffaf6d;
      }

      .cls-4 {
        fill: #7c4dff;
      }

      .cls-5 {
        fill: #fae872;
      }

      .cls-2 {
        stroke: #d3d3d3;
      }
    </style>
  </defs>
  <!-- Generator: Adobe Illustrator 28.7.6, SVG Export Plug-In . SVG Version: 1.2.0 Build 188)  -->
  <g>
    <g id="Layer_1">
      <g id="Layer_1-2" data-name="Layer_1">
        <g id="Group_3104">
          <g id="Rectangle_206">
            <rect class="cls-1" width="50" height="50" rx="6" ry="6"/>
            <rect class="cls-2" x=".5" y=".5" width="49" height="49" rx="5.5" ry="5.5"/>
          </g>
          <g id="Layer_2">
            <g id="g93">
              <path id="polygon95" class="cls-3" d="M28.6,21l-3.1-4.7-3.5,4.9v18.7h6.6v-19h0Z"/>
              <path id="polygon97" class="cls-3" d="M22,18.2l3.3-4.6,3.3,4.6v-5.6h-6.6s0,5.6,0,5.6Z"/>
            </g>
          </g>
          <g id="Layer_3">
            <g id="g106">
              <path id="polygon108" class="cls-4" d="M18.2,26.1l-3,4.3-3.6-2.2v11.7h6.6v-13.9h0Z"/>
              <path id="polygon110" class="cls-4" d="M11.6,26.4l3,1.6,3.6-5.1v-6.9h-6.6v10.4Z"/>
            </g>
          </g>
          <g id="Layer_16">
            <path id="polygon113" class="cls-5" d="M32.2,40.5v-12.8l3.1,4.7,3.1-1.6v9.8h-6.2,0Z"/>
            <path id="polygon115" class="cls-5" d="M32.9,25.6l3.3,4.7,2.3-1.3v-3.4h-5.6Z"/>
          </g>
        </g>
      </g>
    </g>
  </g>
</svg>