<?xml version="1.0" encoding="UTF-8"?>
<svg xmlns="http://www.w3.org/2000/svg" version="1.1" viewBox="0 0 50 50">
  <defs>
    <style>
      .cls-1, .cls-2 {
        fill: none;
      }

      .cls-3 {
        fill: #ffaf6d;
      }

      .cls-4 {
        fill: #7c4dff;
      }

      .cls-5 {
        fill: #d3d3d3;
      }

      .cls-2 {
        stroke: #d3d3d3;
      }
    </style>
  </defs>
  <!-- Generator: Adobe Illustrator 28.7.6, SVG Export Plug-In . SVG Version: 1.2.0 Build 188)  -->
  <g>
    <g id="Layer_1">
      <g id="Group_3105">
        <g id="Rectangle_206">
          <rect class="cls-1" width="50" height="50" rx="6" ry="6"/>
          <rect class="cls-2" x=".5" y=".5" width="49" height="49" rx="5.5" ry="5.5"/>
        </g>
        <path id="_10" class="cls-4" d="M7.1,19.2h4.3v12.4h-2.7v-9.8h-1.6v-2.6ZM19,18.9c1.2,0,2.4.6,3.1,1.7.8,1.5,1.1,3.2,1,4.9.1,1.7-.3,3.3-1.1,4.8-.6,1.1-1.8,1.7-3,1.7-1.2,0-2.3-.6-3-1.6-.9-1.5-1.2-3.3-1.1-5.1,0-1.6.3-3.3,1.1-4.7.6-1.1,1.8-1.7,3-1.7h0ZM17.7,25.3c0,2.6.5,4,1.4,4,.5,0,1-.4,1.1-.9.3-.9.4-1.8.3-2.8,0-1,0-2.1-.3-3.1-.2-.6-.6-1-1.1-1-.9,0-1.4,1.2-1.4,3.7h0Z"/>
        <g id="Layer_6">
          <rect id="Rectangle_1393" class="cls-5" x="28.4" y="5.8" width="2.1" height="38.6"/>
        </g>
        <g id="Layer_7">
          <path id="Path_1609" class="cls-3" d="M34.5,14.9h8.4l-4.2-6.1"/>
        </g>
        <g id="Layer_7_copy">
          <path id="Path_1610" class="cls-3" d="M42.8,35h-8.4l4.2,6.1"/>
        </g>
        <g id="Layer_8">
          <rect id="Rectangle_1394" class="cls-3" x="34.4" y="24.2" width="8.5" height="1.7"/>
        </g>
      </g>
    </g>
  </g>
</svg>