<svg xmlns="http://www.w3.org/2000/svg" width="25" height="25" viewBox="0 0 25 25">
  <g id="Group_3279" data-name="Group 3279" transform="translate(-1252 -266)">
    <g id="Path_7032" data-name="Path 7032" transform="translate(1252 266)" fill="#7c4dff">
      <path d="M 21 24.5 L 4 24.5 C 2.070090055465698 24.5 0.5 22.92991065979004 0.5 21 L 0.5 4 C 0.5 2.070090055465698 2.070090055465698 0.5 4 0.5 L 21 0.5 C 22.92991065979004 0.5 24.5 2.070090055465698 24.5 4 L 24.5 21 C 24.5 22.92991065979004 22.92991065979004 24.5 21 24.5 Z" stroke="none"/>
      <path d="M 4 1 C 2.345790863037109 1 1 2.345790863037109 1 4 L 1 21 C 1 22.65420913696289 2.345790863037109 24 4 24 L 21 24 C 22.65420913696289 24 24 22.65420913696289 24 21 L 24 4 C 24 2.345790863037109 22.65420913696289 1 21 1 L 4 1 M 4 0 L 21 0 C 23.20914077758789 0 25 1.790859222412109 25 4 L 25 21 C 25 23.20914077758789 23.20914077758789 25 21 25 L 4 25 C 1.790859222412109 25 0 23.20914077758789 0 21 L 0 4 C 0 1.790859222412109 1.790859222412109 0 4 0 Z" stroke="none" fill="#ececec"/>
    </g>
    <g id="Group_104" data-name="Group 104" transform="translate(-1.564 177.976)">
      <g id="Layer_3" transform="translate(1260.481 96.01)">
        <path id="Path_67" data-name="Path 67" d="M32.309,43a.859.859,0,0,1,.856.856v7.919a.859.859,0,0,1-.856.856H22.856A.859.859,0,0,1,22,51.775V43.856A.859.859,0,0,1,22.856,43" transform="translate(-22 -43)" fill="none" stroke="#fff" stroke-miterlimit="10" stroke-width="2"/>
      </g>
      <g id="Layer_5" transform="translate(1263.392 95.654)">
        <rect id="Rectangle_96" data-name="Rectangle 96" width="5.408" height="0.706" fill="#fff"/>
      </g>
      <g id="Layer_4" transform="translate(1261.765 94.12)">
        <rect id="Rectangle_97" data-name="Rectangle 97" width="1.127" height="3.389" fill="#fff"/>
      </g>
      <g id="Layer_4_copy" transform="translate(1269.242 94.12)">
        <rect id="Rectangle_98" data-name="Rectangle 98" width="1.127" height="3.389" fill="#fff"/>
      </g>
      <g id="Layer_6" transform="translate(1261.979 99.078)">
        <rect id="Rectangle_99" data-name="Rectangle 99" width="2.176" height="2.176" fill="#fff"/>
        <rect id="Rectangle_100" data-name="Rectangle 100" width="2.176" height="2.176" transform="translate(0 2.854)" fill="#fff"/>
      </g>
      <g id="Layer_6_copy" transform="translate(1264.976 99.078)">
        <rect id="Rectangle_101" data-name="Rectangle 101" width="2.176" height="2.176" fill="#fff"/>
        <rect id="Rectangle_102" data-name="Rectangle 102" width="2.176" height="2.176" transform="translate(0 2.854)" fill="#fff"/>
      </g>
      <g id="Layer_6_copy_3" transform="translate(1267.901 99.078)">
        <rect id="Rectangle_103" data-name="Rectangle 103" width="2.176" height="2.176" fill="#fff"/>
        <rect id="Rectangle_104" data-name="Rectangle 104" width="2.176" height="2.176" transform="translate(0 2.854)" fill="#fff"/>
      </g>
    </g>
  </g>
</svg>
