<?xml version="1.0" encoding="UTF-8"?>
<svg xmlns="http://www.w3.org/2000/svg" version="1.1" viewBox="0 0 50 50">
  <defs>
    <style>
      .cls-1, .cls-2, .cls-3 {
        fill: none;
      }

      .cls-2 {
        stroke-miterlimit: 10;
      }

      .cls-2, .cls-3 {
        stroke: #d3d3d3;
      }

      .cls-4 {
        fill: #7c4dff;
      }

      .cls-5 {
        fill: #fae872;
        stroke: #fae872;
      }

      .cls-6 {
        fill: #ffaf6d;
        stroke: #ffaf6d;
      }
    </style>
  </defs>
  <!-- Generator: Adobe Illustrator 28.7.6, SVG Export Plug-In . SVG Version: 1.2.0 Build 188)  -->
  <g>
    <g id="Layer_1">
      <g id="Layer_1-2">
        <g id="Group_3106">
          <g id="Rectangle_206">
            <rect class="cls-1" width="50" height="50" rx="6" ry="6"/>
            <rect class="cls-3" x=".5" y=".5" width="49" height="49" rx="5.5" ry="5.5"/>
          </g>
          <path id="Path_6616" class="cls-4" d="M11.4,10.3h27.3c.9,0,1.7.8,1.7,1.7v4.4H9.7v-4.4c0-.9.8-1.7,1.7-1.7Z"/>
          <path id="Path_6617" class="cls-4" d="M9.7,18.7v22.7h30.7v-22.7H9.7ZM38.3,39.6H11.7v-18.9h26.7v18.9h-.1Z"/>
          <rect id="Rectangle_14511" class="cls-2" x="13.3" y="22.3" width="6.2" height="4"/>
          <rect id="Rectangle_14512" class="cls-2" x="13.3" y="28" width="6.2" height="4"/>
          <rect id="Rectangle_14513" class="cls-2" x="13.3" y="33.8" width="6.2" height="4"/>
          <rect id="Rectangle_14514" class="cls-2" x="21.8" y="22.3" width="6.2" height="4"/>
          <rect id="Rectangle_14515" class="cls-2" x="21.8" y="28" width="6.2" height="4"/>
          <rect id="Rectangle_14517" class="cls-2" x="30.2" y="22.3" width="6.3" height="4"/>
          <rect id="Rectangle_14518" class="cls-2" x="30.3" y="28" width="6.2" height="4"/>
          <rect id="Rectangle_14521" class="cls-5" x="21.4" y="33.8" width="6.6" height="4"/>
          <rect id="Rectangle_14521-2" class="cls-6" x="30.3" y="33.8" width="6.3" height="4"/>
        </g>
      </g>
    </g>
  </g>
</svg>