<?xml version="1.0" encoding="UTF-8"?>
<svg xmlns="http://www.w3.org/2000/svg" version="1.1" viewBox="0 0 50 50">
  <defs>
    <style>
      .cls-1, .cls-2 {
        fill: none;
      }

      .cls-3 {
        fill: #ffaf6d;
      }

      .cls-4 {
        fill: #7c4dff;
      }

      .cls-5 {
        fill: #fae872;
      }

      .cls-2 {
        stroke: #d3d3d3;
      }
    </style>
  </defs>
  <!-- Generator: Adobe Illustrator 28.7.6, SVG Export Plug-In . SVG Version: 1.2.0 Build 188)  -->
  <g>
    <g id="Layer_1">
      <g id="Layer_1-2" data-name="Layer_1">
        <g id="Group_3108">
          <g id="Group_3107">
            <g id="Rectangle_208">
              <rect class="cls-1" width="50" height="50" rx="6" ry="6"/>
              <rect class="cls-2" x=".5" y=".5" width="49" height="49" rx="5.5" ry="5.5"/>
            </g>
            <path id="path119" class="cls-4" d="M25,25l-3.3-13.4c-7.4,1.8-12,9.3-10.1,16.7s9.3,12,16.7,10.1c5.1-1.2,9-5.2,10.2-10.3l-13.5-3.2h0Z"/>
            <path id="path122" class="cls-5" d="M26.1,23l9.6-6.7c-2.6-3.2-6.6-5.1-10.7-5.1s-1.1,0-1.6.1l2.7,11.7Z"/>
            <path id="path125" class="cls-3" d="M27.7,24l11.1,2.4v-1.4c0-2.7-.8-5.4-2.3-7.6l-8.9,6.6h0Z"/>
          </g>
        </g>
      </g>
    </g>
  </g>
</svg>