<?xml version="1.0" encoding="UTF-8" standalone="no"?>
<!-- Generator: Adobe Illustrator 21.1.0, SVG Export Plug-In . SVG Version: 6.00 Build 0)  -->

<svg
   xmlns:dc="http://purl.org/dc/elements/1.1/"
   xmlns:cc="http://creativecommons.org/ns#"
   xmlns:rdf="http://www.w3.org/1999/02/22-rdf-syntax-ns#"
   xmlns:svg="http://www.w3.org/2000/svg"
   xmlns="http://www.w3.org/2000/svg"
   xmlns:sodipodi="http://sodipodi.sourceforge.net/DTD/sodipodi-0.dtd"
   xmlns:inkscape="http://www.inkscape.org/namespaces/inkscape"
   version="1.1"
   x="0px"
   y="0px"
   viewBox="0 0 200 200"
   style="enable-background:new 0 0 200 200;"
   xml:space="preserve"
   id="svg2"
   inkscape:version="0.91 r13725"
   sodipodi:docname="PieChart.svg"><metadata
     id="metadata131"><rdf:RDF><cc:Work
         rdf:about=""><dc:format>image/svg+xml</dc:format><dc:type
           rdf:resource="http://purl.org/dc/dcmitype/StillImage" /></cc:Work></rdf:RDF></metadata><defs
     id="defs129" /><sodipodi:namedview
     pagecolor="#ffffff"
     bordercolor="#666666"
     borderopacity="1"
     objecttolerance="10"
     gridtolerance="10"
     guidetolerance="10"
     inkscape:pageopacity="0"
     inkscape:pageshadow="2"
     inkscape:window-width="1366"
     inkscape:window-height="705"
     id="namedview127"
     showgrid="false"
     inkscape:zoom="2.36"
     inkscape:cx="81.371616"
     inkscape:cy="106.15082"
     inkscape:window-x="-8"
     inkscape:window-y="-8"
     inkscape:window-maximized="1"
     inkscape:current-layer="Layer_4_2_" /><style
     type="text/css"
     id="style4">
	.st0{fill:none;stroke:#B3B4B4;stroke-width:2;stroke-miterlimit:10;}
	.st1{display:none;}
	.st2{display:inline;fill:#026685;}
	.st3{display:inline;fill:#51BED1;}
	.st4{display:inline;fill:#036785;}
	.st5{display:inline;fill:#DC9D27;}
	.st6{display:inline;fill:#8FA79C;}
	.st7{display:inline;fill:#818282;}
	.st8{display:inline;fill:#E4A025;}
	.st9{display:inline;fill:#59B6D8;}
	.st10{display:inline;fill:#22AB73;}
	.st11{display:inline;fill:#478DCB;}
	.st12{display:inline;}
	.st13{fill:#036785;}
	.st14{fill:#47B649;}
	.st15{fill:#D7D924;}
	.st16{fill:#DD9627;}
	.st17{fill:#3C3A3A;}
	.st18{fill:#DE6A26;}
	.st19{display:inline;fill:none;stroke:#40403F;stroke-width:3;stroke-miterlimit:10;}
	.st20{fill:#25A549;}
	.st21{fill:#026685;}
	.st22{font-family:'Arial-BoldMT';}
	.st23{font-size:74.4333px;}
	.st24{fill:#E4A025;}
	.st25{fill:#F7941D;}
	.st26{display:inline;fill:#58B5D6;}
	.st27{fill:#60BDDD;}
</style><g
     id="Layer_1" /><g
     id="Layer_5"><rect
       class="st0"
       width="200"
       height="200"
       id="rect8" /></g><g
     id="Layer_3"
     class="st1"><polyline
       class="st2"
       points="22,176.3 177,176.3 177,84.5 120.3,142.9 100,109.8 67,149.9 52.7,128.9  "
       id="polyline11" /></g><g
     id="Layer_4"
     class="st1"><polyline
       class="st3"
       points="177,63.2 123.7,122.8 103.7,83.3 70.7,127.1 55.5,99.1 25,146.5 25.3,118.9 57.3,62 71.8,80    100.3,31.9 133.9,73.8 177,22.5  "
       id="polyline14" /></g><g
     id="Layer_6"
     class="st1"><rect
       x="39"
       y="27"
       class="st4"
       width="131.7"
       height="35.5"
       id="rect17" /><rect
       x="39"
       y="82.8"
       class="st5"
       width="94.2"
       height="35.5"
       id="rect19" /><rect
       x="39"
       y="138.9"
       class="st6"
       width="59.3"
       height="35.5"
       id="rect21" /></g><g
     id="Layer_7"
     class="st1"><rect
       x="25.7"
       y="27"
       class="st7"
       width="6"
       height="147.3"
       id="rect24" /></g><g
     id="Layer_8"
     class="st1"><circle
       class="st4"
       cx="75.7"
       cy="122.5"
       r="37.7"
       id="circle27" /><circle
       class="st8"
       cx="149"
       cy="94.5"
       r="28"
       id="circle29" /><circle
       class="st8"
       cx="80"
       cy="49.9"
       r="16.7"
       id="circle31" /><circle
       class="st9"
       cx="161.2"
       cy="39.8"
       r="10"
       id="circle33" /><circle
       class="st4"
       cx="161.2"
       cy="147.8"
       r="12.2"
       id="circle35" /></g><g
     id="Layer_9"
     class="st1"><rect
       x="23"
       y="23.1"
       class="st7"
       width="5.5"
       height="149.9"
       id="rect38" /></g><g
     id="Layer_9_copy"
     class="st1"><rect
       x="97.3"
       y="97"
       transform="matrix(-1.346054e-10 1 -1 -1.346054e-10 274 74)"
       class="st7"
       width="5.5"
       height="154"
       id="rect41" /></g><g
     id="Layer_10"
     class="st1"><rect
       x="136.9"
       y="32.5"
       class="st10"
       width="31.5"
       height="129"
       id="rect44" /><rect
       x="87.1"
       y="69.9"
       class="st11"
       width="31.5"
       height="91.6"
       id="rect46" /><rect
       x="37.3"
       y="104.1"
       class="st4"
       width="31.5"
       height="57.4"
       id="rect48" /></g><g
     id="Layer_11"
     class="st1"><g
       id="Layer_2"
       class="st12"><path
         class="st13"
         d="M100,21.4c-43.8,0-79.3,35.5-79.3,79.3S56.3,180,100,180s79.3-35.5,79.3-79.3S143.8,21.4,100,21.4z     M100,162.3c-34,0-61.6-27.6-61.6-61.6S66,39.1,100,39.1c34,0,61.6,27.6,61.6,61.6c0,0,0,0,0,0C161.7,134.7,134.1,162.3,100,162.3    z"
         id="path52" /><path
         class="st13"
         d="M100,21.4c-43.8,0-79.3,35.5-79.3,79.3S56.3,180,100,180s79.3-35.5,79.3-79.3S143.8,21.4,100,21.4z     M100,162.3c-34,0-61.6-27.6-61.6-61.6S66,39.1,100,39.1c34,0,61.6,27.6,61.6,61.6c0,0,0,0,0,0C161.7,134.7,134.1,162.3,100,162.3    z"
         id="path54" /><path
         class="st14"
         d="M64.6,62.1C53.8,72.1,47.5,86,47.3,100.7h19.9c1.5-15.5,10.6-23.1,10.6-23.1L64.6,62.1z"
         id="path56" /><path
         class="st15"
         d="M72.8,56.3l12.7,15c9.8-3.9,20.7-3.9,30.5,0l13.3-15C129.3,56.3,101.6,38.5,72.8,56.3z"
         id="path58" /><path
         class="st16"
         d="M136.9,62.1l-13.3,15.4c0,0,7.3,5.7,9.9,23.2h19.8C153.3,100.7,155.2,81.8,136.9,62.1z"
         id="path60" /></g><g
       id="Layer_3_1_"
       class="st12"><path
         class="st17"
         d="M99.9,91.1l5.2,1.8c1.1,0.4,2.3-0.2,2.6-1.3c0,0,0,0,0-0.1l11-35.4c0.1-0.2-0.1-0.5-0.3-0.5    c-0.2-0.1-0.4,0-0.5,0.2L98.8,88.1c-0.6,1-0.2,2.3,0.8,2.8C99.6,91,99.8,91,99.9,91.1z"
         id="path63" /><circle
         class="st18"
         cx="100"
         cy="100.7"
         r="17.3"
         id="circle65" /></g></g><g
     id="Layer_14"
     class="st1"><rect
       x="20.2"
       y="19.8"
       class="st19"
       width="160.6"
       height="160.6"
       id="rect68" /></g><g
     id="Layer_12"
     class="st1"><g
       id="Layer_3_2_"
       class="st12"><polygon
         class="st20"
         points="107.6,67.1 172.2,67.1 139.9,29.8   "
         id="polygon72" /></g><g
       id="Layer_4_1_"
       class="st12"><path
         class="st21"
         d="M62.2,168.6H48v-65.3c-5.3,6-11.6,10.5-18.5,13.2v-15.8c4.4-1.9,8.5-4.8,12.1-8.4c4.1-3.7,7.2-8.7,9-14.4    h11.6V168.6z"
         id="path75" /><path
         class="st21"
         d="M94.7,77.9c6.6-0.4,12.8,3.1,16.9,9.4c4.8,7.4,7.3,19.7,7.3,36.8s-2.4,29.4-7.3,36.8    c-4.1,6.2-10.3,9.6-16.9,9.3c-6.9,0.2-13.4-3.5-17.5-10.2c-4.4-6.8-6.7-18.8-6.7-36.2c0-17,2.4-29.3,7.3-36.8    C81.9,80.8,88.2,77.5,94.7,77.9z M94.7,92.2c-1.7,0-3.3,0.7-4.6,2c-1.7,2-2.8,4.5-3.2,7.3c-1.2,7.4-1.7,15-1.5,22.6    c-0.2,7.3,0.2,14.7,1.3,21.9c0.4,3,1.6,5.7,3.3,7.9c2.7,2.6,6.5,2.6,9.2,0c1.6-1.9,2.7-4.5,3.1-7.2c1.2-7.5,1.7-15.1,1.4-22.7    c0.2-7.3-0.2-14.7-1.3-21.9c-0.5-3-1.6-5.7-3.3-7.9C98,93,96.4,92.2,94.7,92.2z"
         id="path77" /><text
         transform="matrix(0.775 0 0 1 121.6387 167.9785)"
         class="st21 st22 st23"
         id="text79">%</text>
</g></g><g
     id="Layer_13"
     class="st1"><g
       id="Layer_3_3_"
       class="st12"><polygon
         class="st13"
         points="35.3,111.3 24.3,102.3 42,64 70.4,94.3 95.6,67.9 121.3,80.4 147.9,24.3 177,40.2 177,56 153,43.1     126.7,99.4 98.4,84.7 70.3,114.4 45.4,87.8   "
         id="polygon83" /><polygon
         class="st24"
         points="46.4,101 32.8,124.8 44.6,131.7 56.2,110.8   "
         id="polygon85" /><polygon
         class="st24"
         points="86.3,67.7 95.9,58.7 83.4,36.7 61.8,74.9 70.9,84.4 83.3,63   "
         id="polygon87" /><polygon
         class="st24"
         points="102.4,97.1 130.3,144.2 148.7,114.4 164.9,177.7 177,173.4 151.9,80.4 129.5,119.3 123.6,107.5       "
         id="polygon89" /></g></g><g
     id="Layer_15"
     class="st1"><g
       id="Layer_2_1_"
       class="st12"><g
         id="g93"><polygon
           class="st25"
           points="104.5,47.6 87.9,71.5 87.9,162.5 119.5,162.5 119.5,70.2    "
           id="polygon95" /><polygon
           class="st25"
           points="103.7,34 119.5,56.5 119.5,29.2 87.9,29.2 87.9,56.5    "
           id="polygon97" /></g><g
         id="g99"><polygon
           class="st25"
           points="157.6,110.8 169.1,104.2 169.1,86.7 140.7,86.7    "
           id="polygon101" /><polygon
           class="st25"
           points="153.3,121 137.4,97.2 137.4,162.5 169.1,162.5 169.1,112.7    "
           id="polygon103" /></g></g><g
       id="Layer_3_4_"
       class="st12"><g
         id="g106"><polygon
           class="st13"
           points="54.9,116.2 37.9,105.7 37.9,162.5 69.5,162.5 69.5,95.1    "
           id="polygon108" /><polygon
           class="st13"
           points="52.2,104.3 69.5,79.7 69.5,46 37.9,46 37.9,96.6    "
           id="polygon110" /></g></g></g><g
     id="Layer_16"
     class="st1"><polygon
       class="st26"
       points="137.4,97.2 153.3,121 169.1,112.7 169.1,162.5 137.4,162.5  "
       id="polygon113" /><polygon
       class="st26"
       points="140.7,86.7 157.6,110.8 169.1,104.2 169.1,86.7  "
       id="polygon115" /></g><g
     id="Layer_17"
     transform="matrix(1.0082554,0,0,1.008251,-0.67936937,-1.1725704)"><g
       id="Layer_2_2_"><path
         class="st13"
         d="M 99.9,100.3 81,23.2 c -42.6,10.4 -68.6,53.4 -58.2,96 10.4,42.6 53.4,68.6 96,58.2 29,-7.1 51.6,-29.9 58.4,-59 L 99.9,100.3 Z"
         id="path119"
         inkscape:connector-curvature="0"
         style="fill:#006488;fill-opacity:1" /></g><g
       id="Layer_3_5_"><path
         class="st25"
         d="M 106.3,88.8 161.4,50.1 C 146.3,31.6 123.7,20.9 99.9,21 c -3.2,0 -6.3,0.2 -9.4,0.6 l 15.8,67.2 z"
         id="path122"
         inkscape:connector-curvature="0"
         style="fill:#f89406;fill-opacity:1" /></g><g
       id="Layer_4_2_"><path
         class="st27"
         d="m 115.1,94.7 63.7,13.9 c 0.3,-2.7 0.4,-5.5 0.4,-8.3 0,-15.5 -4.5,-30.8 -13.1,-43.7 l -51,38.1 z"
         id="path125"
         inkscape:connector-curvature="0"
         style="fill:#86dff9;fill-opacity:1" /></g></g></svg>