<?xml version="1.0" encoding="UTF-8"?>
<svg xmlns="http://www.w3.org/2000/svg" version="1.1" viewBox="0 0 50 50">
  <defs>
    <style>
      .cls-1, .cls-2 {
        fill: none;
      }

      .cls-3 {
        fill: #ffaf6d;
      }

      .cls-4 {
        fill: #fff;
        font-family: MyriadPro-Regular, 'Myriad Pro';
        font-size: 9px;
      }

      .cls-4, .cls-5 {
        isolation: isolate;
      }

      .cls-6 {
        fill: #7c4dff;
      }

      .cls-2 {
        stroke: #d3d3d3;
      }
    </style>
  </defs>
  <!-- Generator: Adobe Illustrator 28.7.6, SVG Export Plug-In . SVG Version: 1.2.0 Build 188)  -->
  <g>
    <g id="Layer_1">
      <g id="Group_3109">
        <g id="Rectangle_172">
          <rect class="cls-1" width="50" height="50" rx="6" ry="6"/>
          <rect class="cls-2" x=".5" y=".5" width="49" height="49" rx="5.5" ry="5.5"/>
        </g>
        <g id="Layer_3">
          <path id="Ellipse_646" class="cls-3" d="M25,9.5c8.6,0,15.5,7,15.5,15.5s-7,15.5-15.5,15.5-15.5-7-15.5-15.5h0c0-8.6,7-15.5,15.5-15.5ZM25,35.4c5.7,0,10.4-4.6,10.4-10.4,0-5.7-4.6-10.4-10.4-10.4-5.7,0-10.4,4.6-10.4,10.4,0,5.7,4.6,10.4,10.4,10.4h0Z"/>
        </g>
        <g id="Layer_3_copy">
          <path id="Path_1609" class="cls-6" d="M25,40.5c-8.6,0-15.5-7-15.5-15.5h5.2c0,5.7,4.6,10.4,10.4,10.4s10.4-4.6,10.4-10.4-4.6-10.4-10.4-10.4v-5.2c8.6,0,15.6,6.8,15.7,15.4,0,8.6-6.8,15.6-15.4,15.7,0,0-.2,0-.2,0Z"/>
        </g>
        <g class="cls-5">
          <text class="cls-4" transform="translate(17.1 27.6)"><tspan x="0" y="0">75%</tspan></text>
        </g>
        <path id="_75_-_Outline" class="cls-1" d="M27.6,22.1c.4,0,.8.2,1.1.5.3.4.4.9.4,1.3,0,.5-.1,1-.4,1.4-.3.3-.7.5-1.1.5-.4,0-.8-.2-1-.5-.3-.4-.5-.9-.4-1.4,0-.5.1-1,.4-1.4.3-.3.7-.5,1.1-.5ZM27.5,25.4c.7,0,1.1-.6,1.1-1.5,0-.4,0-.8-.3-1.1-.2-.2-.5-.4-.8-.3-.7,0-1.1.6-1.1,1.5,0,.9.4,1.4,1.1,1.4ZM30.6,22.1h.9l-3.4,6h-.9l3.4-6ZM30.8,22.5h0l-3,5.2h0l3-5.2ZM17.7,22.2h3.8v.7l-2.4,5.1h-1.2l2.4-4.8h-2.5v-1ZM21.1,22.6h-3v.2h2.6v.3l-2.2,4.6h.3l2.3-4.8v-.2ZM22.6,22.2h3v1h-2.1v1c0,0,0,0,0,0,.4,0,.9.1,1.3.3.6.3.9.9.9,1.6,0,.6-.2,1.1-.6,1.5-.4.4-1,.6-1.6.6-.5,0-1-.1-1.5-.4h-.1c0,0,.3-1,.3-1h.2c.3.3.7.4,1.1.4.3,0,.5,0,.8-.3.2-.2.3-.4.3-.7,0-.8-.7-1-1.4-1-.2,0-.5,0-.7,0h-.3s.4-3,.4-3ZM25.1,22.6h-2.2l-.3,2.2c.2,0,.3,0,.5,0,.5,0,.9.1,1.3.4.3.3.5.6.4,1h0c0,.4-.2.8-.4,1-.3.2-.7.4-1,.4-.4,0-.7,0-1-.2v.2c.3.2.7.2,1.1.2.5,0,.9-.1,1.3-.4.3-.3.5-.8.6-1.2,0-.5-.2-1-.7-1.2h0c-.3-.2-.7-.3-1.1-.3-.1,0-.3,0-.4,0h-.3s.3-1.8.3-1.8h2v-.2ZM27.5,22.5c.3,0,.6.2.7.5.1.3.2.6.2.9,0,.3,0,.7-.2,1-.1.3-.4.5-.7.5-.2,0-.4,0-.5-.2-.3-.3-.4-.8-.4-1.2,0-.9.4-1.4.9-1.4h0ZM27.5,25c.5,0,.5-.7.5-1s0-1-.5-1-.5.5-.5,1h0c0,.3,0,.6.2.9,0,0,.2.1.3.1h0ZM31.1,24.3c.9,0,1.5.7,1.5,1.8s-.8,1.9-1.5,1.9c-.4,0-.8-.2-1-.5-.3-.4-.5-.9-.4-1.3,0-.5.1-1,.4-1.4.3-.3.7-.5,1.1-.5h0ZM31.1,27.7c.7,0,1.1-.6,1.1-1.5,0-.4,0-.8-.3-1.1-.2-.2-.5-.4-.8-.3-.7,0-1.1.6-1.1,1.5,0,.9.4,1.4,1.1,1.4ZM31.1,24.8c.3,0,.6.2.7.5.1.3.2.6.2.9,0,.3,0,.7-.2,1-.1.3-.4.5-.7.5-.2,0-.4,0-.5-.2-.3-.3-.4-.8-.4-1.2,0-.9.4-1.4.9-1.4h0ZM31.1,27.2c.5,0,.5-.7.5-1s0-1-.5-1-.5.5-.5,1h0c0,.3,0,.6.3.9,0,0,.2.1.3.1h0Z"/>
      </g>
    </g>
  </g>
</svg>