<?xml version="1.0" encoding="utf-8"?>
<!-- Generator: Adobe Illustrator 21.1.0, SVG Export Plug-In . SVG Version: 6.00 Build 0)  -->
<svg version="1.1" xmlns="http://www.w3.org/2000/svg" xmlns:xlink="http://www.w3.org/1999/xlink" x="0px" y="0px"
	 viewBox="0 0 200 200" style="enable-background:new 0 0 200 200;" xml:space="preserve">
<style type="text/css">
	.st0{fill:none;stroke:#B3B4B4;stroke-width:2;stroke-miterlimit:10;}
	.st1{fill:#A3A3A3;}
	.st2{fill:#FFFFFF;}
	.st3{fill:#8ED7F1;}
	.st4{fill:#026685;}
	.st5{fill:#F7941D;}
</style>
<g id="Layer_1">
</g>
<g id="Layer_5">
	<rect class="st0" width="200" height="200"/>
</g>
<g id="Layer_3">
	<rect x="23.3" y="96" class="st1" width="143.3" height="9"/>
</g>
<g id="Layer_4">
	<polyline class="st1" points="165,79.3 165,122.7 181.7,101 	"/>
</g>
<g id="Layer_6_copy">
	<circle class="st2" cx="40.2" cy="100.5" r="12.2"/>
</g>
<g id="Layer_6">
	<circle class="st3" cx="40.2" cy="100.5" r="9.6"/>
</g>
<g id="Layer_6_copy_3">
	<circle class="st2" cx="73.7" cy="100.5" r="12.2"/>
</g>
<g id="Layer_6_copy_2">
	<circle class="st3" cx="73.7" cy="100.5" r="9.6"/>
</g>
<g id="Layer_6_copy_5">
	<circle class="st2" cx="107.7" cy="100.5" r="12.2"/>
</g>
<g id="Layer_6_copy_4">
	<circle class="st3" cx="107.7" cy="100.5" r="9.6"/>
</g>
<g id="Layer_6_copy_7">
	<circle class="st2" cx="141.4" cy="100" r="12.2"/>
</g>
<g id="Layer_6_copy_6">
	<circle class="st3" cx="141.4" cy="100" r="9.6"/>
</g>
<g id="Layer_13">
	<ellipse class="st4" cx="40.6" cy="45.1" rx="21.6" ry="24.1"/>
</g>
<g id="Layer_14">
	<path class="st4" d="M19,45.1l43.2-0.8c0,0,2.3,20.9-21.6,39.6C40.6,84,18.5,68.1,19,45.1z"/>
</g>
<g id="Layer_13_copy">
	<ellipse class="st4" cx="141.2" cy="153.8" rx="21.6" ry="24.1"/>
</g>
<g id="Layer_14_copy">
	<path class="st4" d="M162.8,153.8l-43.2,0.8c0,0-2.3-20.9,21.6-39.6C141.2,115,163.3,130.9,162.8,153.8z"/>
</g>
<g id="Layer_13_copy_2">
	<ellipse class="st5" cx="73.7" cy="153.4" rx="21.6" ry="24.1"/>
</g>
<g id="Layer_14_copy_2">
	<path class="st5" d="M95.3,153.4l-43.2,0.8c0,0-2.3-20.9,21.6-39.6C73.7,114.5,95.8,130.4,95.3,153.4z"/>
</g>
<g id="Layer_13_copy_3">
	
		<ellipse transform="matrix(2.990016e-02 -0.9996 0.9996 2.990016e-02 60.9766 152.143)" class="st5" cx="108.9" cy="44.7" rx="24.1" ry="21.6"/>
</g>
<g id="Layer_14_copy_3">
	<path class="st5" d="M87.3,44l43.2,0.5c0,0,1.7,21-22.8,39C107.7,83.5,86.1,66.9,87.3,44z"/>
</g>
</svg>
