<?xml version="1.0" encoding="UTF-8"?>
<svg xmlns="http://www.w3.org/2000/svg" version="1.1" viewBox="0 0 50 50">
  <defs>
    <style>
      .cls-1 {
        fill: #fff;
      }

      .cls-2 {
        stroke: #ececec;
      }

      .cls-2, .cls-3 {
        fill: none;
      }

      .cls-4 {
        fill: #ffaf6d;
      }

      .cls-5 {
        fill: #7c4dff;
      }

      .cls-6 {
        fill: #d3d3d3;
      }
    </style>
  </defs>
  <!-- Generator: Adobe Illustrator 28.7.6, SVG Export Plug-In . SVG Version: 1.2.0 Build 188)  -->
  <g>
    <g id="Layer_1">
      <g id="Group_3110">
        <g id="Rectangle_172">
          <rect class="cls-3" width="50" height="50" rx="6" ry="6"/>
          <rect class="cls-2" x=".5" y=".5" width="49" height="49" rx="5.5" ry="5.5"/>
        </g>
        <path id="Union_22" class="cls-6" d="M37.6,26.1H12.6v-1.6h25v-3l3,3.8-3,3.8v-3.1Z"/>
        <g id="Layer_6_copy">
          <circle id="Ellipse_9" class="cls-1" cx="15.6" cy="25.3" r="2.2"/>
        </g>
        <g id="Layer_6">
          <circle id="Ellipse_10" class="cls-3" cx="15.6" cy="25.3" r="1.7"/>
        </g>
        <g id="Layer_6_copy_3">
          <circle id="Ellipse_11" class="cls-1" cx="21.5" cy="25.3" r="2.2"/>
        </g>
        <g id="Layer_6_copy_2">
          <circle id="Ellipse_12" class="cls-3" cx="21.5" cy="25.3" r="1.7"/>
        </g>
        <g id="Layer_6_copy_5">
          <circle id="Ellipse_13" class="cls-1" cx="27.5" cy="25.3" r="2.2"/>
        </g>
        <g id="Layer_6_copy_4">
          <circle id="Ellipse_14" class="cls-3" cx="27.5" cy="25.3" r="1.7"/>
        </g>
        <g id="Layer_6_copy_7">
          <circle id="Ellipse_15" class="cls-1" cx="33.5" cy="25.2" r="2.2"/>
        </g>
        <g id="Layer_6_copy_6">
          <circle id="Ellipse_16" class="cls-3" cx="33.5" cy="25.2" r="1.7"/>
        </g>
        <g id="Layer_13">
          <ellipse id="Ellipse_17" class="cls-5" cx="15.7" cy="15.5" rx="3.8" ry="4.3"/>
        </g>
        <path id="Path_45" class="cls-5" d="M11.8,15.5h7.6c0-.1.4,3.6-3.8,6.9,0,0-3.9-2.8-3.8-6.9Z"/>
        <path id="Path_99" class="cls-5" d="M33.4,30.4c2.2.1,3.9,2,3.8,4.3.1,2.2-1.6,4.1-3.8,4.3-2.2-.1-3.9-2-3.8-4.3-.1-2.2,1.6-4.1,3.8-4.3Z"/>
        <g id="Layer_14_copy">
          <path id="Path_46" class="cls-5" d="M37.3,34.7h-7.6c0,.1-.4-3.6,3.8-6.9,0,0,3.9,2.8,3.8,6.9Z"/>
        </g>
        <g id="Layer_13_copy_2">
          <ellipse id="Ellipse_19" class="cls-4" cx="21.5" cy="34.6" rx="3.8" ry="4.3"/>
        </g>
        <g id="Layer_14_copy_2">
          <path id="Path_47" class="cls-4" d="M25.3,34.6h-7.6c0,.1-.4-3.6,3.8-6.9,0,0,3.9,2.8,3.8,6.9Z"/>
        </g>
        <g id="Layer_13_copy_3">
          <ellipse id="Ellipse_20" class="cls-4" cx="27.7" cy="15.4" rx="4.3" ry="3.8" transform="translate(11.5 42.7) rotate(-88.3)"/>
        </g>
        <g id="Layer_14_copy_3">
          <path id="Path_48" class="cls-4" d="M23.9,15.3h7.6c0,0,.3,3.8-4,7,0,0-3.8-2.9-3.6-7Z"/>
        </g>
      </g>
    </g>
  </g>
</svg>