<?xml version="1.0" encoding="UTF-8"?>
<svg xmlns="http://www.w3.org/2000/svg" version="1.1" viewBox="0 0 50 50">
  <defs>
    <style>
      .cls-1, .cls-2 {
        fill: none;
      }

      .cls-3 {
        fill: #ffaf6d;
      }

      .cls-4 {
        fill: #7c4dff;
      }

      .cls-2 {
        stroke: #d3d3d3;
      }
    </style>
  </defs>
  <!-- Generator: Adobe Illustrator 28.7.6, SVG Export Plug-In . SVG Version: 1.2.0 Build 188)  -->
  <g>
    <g id="Layer_1">
      <g id="Group_3113">
        <path id="Path_1793" class="cls-1" d="M6,0h38c3.3,0,6,2.7,6,6v38c0,3.3-2.7,6-6,6H6c-3.3,0-6-2.7-6-6V6C0,2.7,2.7,0,6,0"/>
        <rect id="Rectangle_3573" class="cls-2" x=".5" y=".5" width="49" height="49" rx="5.5" ry="5.5"/>
        <path id="Path_1794" class="cls-3" d="M37.7,28.4c-2.7,0-7.9-1.1-14-8.3-3.5-4.1-8.3-6.9-13.6-8v-.4c5.4,1.1,10.2,4,13.8,8.1,8.8,10.3,15.6,8,15.6,8v.4c-.5.2-1.2.2-1.8.2"/>
        <path id="Path_1795" class="cls-3" d="M37.7,31.6c-2.7,0-7.9-1.1-14-8.3-3.5-4.1-8.3-6.9-13.6-8v-.4c5.4,1.1,10.2,4,13.8,8.1,8.8,10.3,15.6,8,15.6,8v.4c-.5.2-1.2.2-1.8.2"/>
        <path id="Path_1796" class="cls-3" d="M37.7,34.9c-2.7,0-7.9-1.1-14-8.3-3.5-4.1-8.3-6.9-13.6-8v-.4c5.4,1.1,10.2,4,13.8,8.1,8.8,10.3,15.6,8,15.6,8v.4c-.5.2-1.2.2-1.8.2"/>
        <path id="Path_1797" class="cls-3" d="M37.7,38.1c-2.7,0-7.9-1.1-14-8.3-3.5-4.1-8.3-6.9-13.6-8v-.4c5.4,1.1,10.2,4,13.8,8.1,8.8,10.3,15.6,8,15.6,8v.4c-.5.2-1.2.2-1.8.2"/>
        <path id="Path_1798" class="cls-4" d="M11.9,28.1c-.6,0-1.3,0-1.9-.2v-.4c.2,0,7,2.3,15.7-8.1,3.6-4.2,8.4-7,13.8-8.2v.4c-5.3,1.1-10,3.9-13.5,8-6.2,7.2-11.4,8.4-14,8.4"/>
        <path id="Path_1799" class="cls-4" d="M11.9,31.4c-.6,0-1.3,0-1.9-.2v-.4c.2,0,7,2.3,15.7-8.1,3.6-4.2,8.4-7,13.8-8.2v.4c-5.3,1.1-10,3.9-13.5,8-6.2,7.2-11.4,8.4-14,8.4"/>
        <path id="Path_1800" class="cls-4" d="M11.9,34.6c-.6,0-1.3,0-1.9-.2v-.4c.2,0,7,2.3,15.7-8.1,3.6-4.2,8.4-7,13.8-8.2v.4c-5.3,1.1-10,3.9-13.5,8-6.2,7.3-11.4,8.4-14,8.4"/>
        <path id="Path_1801" class="cls-4" d="M11.9,37.9c-.6,0-1.3,0-1.9-.2v-.4c.2,0,6.9,2.3,15.7-8.1,3.6-4.2,8.4-7,13.8-8.2v.4c-5.3,1.1-10,3.9-13.5,8-6.2,7.2-11.4,8.4-14,8.4"/>
        <rect id="Rectangle_3574" class="cls-3" x="39.6" y="10.3" width="3.2" height="12.1"/>
        <rect id="Rectangle_3575" class="cls-3" x="7.2" y="10.3" width="3.2" height="12.1"/>
        <rect id="Rectangle_3576" class="cls-4" x="39.6" y="27.3" width="3.2" height="12.3"/>
        <rect id="Rectangle_3577" class="cls-4" x="7.2" y="26.7" width="3.2" height="12.6"/>
        <rect id="Rectangle_3578" class="cls-3" x="7.2" y="9.2" width="35.5" height="1.5"/>
        <rect id="Rectangle_3579" class="cls-4" x="7.2" y="39.2" width="35.5" height="1.5"/>
        <rect id="Rectangle_3580" class="cls-1" width="50" height="50"/>
      </g>
    </g>
  </g>
</svg>