<?xml version="1.0" encoding="utf-8"?>
<!-- Generator: Adobe Illustrator 21.1.0, SVG Export Plug-In . SVG Version: 6.00 Build 0)  -->
<svg version="1.1" xmlns="http://www.w3.org/2000/svg" xmlns:xlink="http://www.w3.org/1999/xlink" x="0px" y="0px"
	 viewBox="0 0 200 200" style="enable-background:new 0 0 200 200;" xml:space="preserve">
<style type="text/css">
	.st0{fill:none;stroke:#B3B4B4;stroke-width:2;stroke-miterlimit:10;}
	.st1{fill:none;stroke:#7F7F7F;stroke-width:6;stroke-miterlimit:10;}
	.st2{fill:#838484;stroke:#7F7F7F;stroke-miterlimit:10;}
	.st3{fill:#515251;}
	.st4{fill:#F7941D;}
	.st5{fill:#026685;}
</style>
<g id="Layer_1">
</g>
<g id="Layer_5">
	<rect class="st0" width="200" height="200"/>
</g>
<g id="Layer_20">
	<rect x="21.5" y="22.3" class="st1" width="157.8" height="157.8"/>
</g>
<g id="Layer_6">
	<rect x="83.3" y="23.3" class="st2" width="2.2" height="156.3"/>
</g>
<g id="Layer_9">
</g>
<g id="Layer_10">
	<rect x="42.8" y="52.5" class="st3" width="3.8" height="102.5"/>
</g>
<g id="Layer_11">
	<rect x="42.8" y="119.9" class="st3" width="19.8" height="3.6"/>
</g>
<g id="Layer_11_copy">
	<rect x="42.8" y="151.4" class="st3" width="19.8" height="3.6"/>
</g>
<g id="Layer_7">
	<rect x="34.5" y="33.5" class="st4" width="21" height="21"/>
</g>
<g id="Layer_7_copy_3">
	<rect x="95" y="38.5" class="st5" width="21" height="21"/>
</g>
<g id="Layer_7_copy_4">
	<rect x="120.8" y="38.5" class="st5" width="21" height="21"/>
</g>
<g id="Layer_7_copy_5">
	<rect x="146.5" y="38.5" class="st5" width="21" height="21"/>
</g>
<g id="Layer_7_copy_8">
	<rect x="95" y="64.2" class="st5" width="21" height="21"/>
</g>
<g id="Layer_7_copy_7">
	<rect x="120.8" y="64.2" class="st5" width="21" height="21"/>
</g>
<g id="Layer_7_copy_6">
	<rect x="146.5" y="64.2" class="st5" width="21" height="21"/>
</g>
<g id="Layer_7_copy_11">
	<rect x="95" y="90" class="st5" width="21" height="21"/>
	<rect x="95.3" y="116.2" class="st5" width="21" height="21"/>
	<rect x="95.3" y="142.2" class="st5" width="21" height="21"/>
</g>
<g id="Layer_7_copy_10">
	<rect x="120.8" y="90" class="st5" width="21" height="21"/>
	<rect x="121" y="116.2" class="st5" width="21" height="21"/>
	<rect x="121" y="142.2" class="st5" width="21" height="21"/>
</g>
<g id="Layer_7_copy_9">
	<rect x="146.5" y="90" class="st5" width="21" height="21"/>
	<rect x="146.8" y="116.2" class="st5" width="21" height="21"/>
	<rect x="146.8" y="142.2" class="st5" width="21" height="21"/>
</g>
<g id="Layer_7_copy">
	<rect x="55.5" y="142.7" class="st4" width="21" height="21"/>
</g>
<g id="Layer_7_copy_2">
	<rect x="55.5" y="111.7" class="st4" width="21" height="21"/>
</g>
</svg>
