<?xml version="1.0" encoding="UTF-8"?>
<svg xmlns="http://www.w3.org/2000/svg" version="1.1" viewBox="0 0 50 50">
  <defs>
    <style>
      .cls-1 {
        fill: #fff;
      }

      .cls-2 {
        stroke: #ececec;
      }

      .cls-2, .cls-3 {
        fill: none;
      }

      .cls-4 {
        fill: #ffaf6d;
      }

      .cls-5 {
        fill: #7c4dff;
      }

      .cls-6 {
        fill: #d3d3d3;
      }

      .cls-7 {
        fill: #fae872;
      }
    </style>
  </defs>
  <!-- Generator: Adobe Illustrator 28.7.6, SVG Export Plug-In . SVG Version: 1.2.0 Build 188)  -->
  <g>
    <g id="Layer_1">
      <g id="Layer_1-2" data-name="Layer_1">
        <g id="Group_3117">
          <g id="Rectangle_302">
            <rect class="cls-3" width="50" height="50" rx="6" ry="6"/>
            <rect class="cls-2" x=".5" y=".5" width="49" height="49" rx="5.5" ry="5.5"/>
          </g>
          <circle id="Ellipse_30" class="cls-5" cx="16.3" cy="16.4" r="7"/>
          <path id="Path_118" class="cls-1" d="M12.8,18.4c2.2,1.1,4.7,1.1,6.9,0,0,0-3.4,5.8-6.9,0Z"/>
          <circle id="Ellipse_31" class="cls-4" cx="33.7" cy="16.4" r="7"/>
          <path id="Path_119" class="cls-1" d="M30.7,20.2s2.9-4.9,5.9,0c0,0-2.4-2.1-5.9,0Z"/>
          <circle id="Ellipse_32" class="cls-7" cx="16.3" cy="33.6" r="7"/>
          <circle id="Ellipse_33" class="cls-6" cx="33.7" cy="33.6" r="7"/>
          <circle id="Ellipse_34" class="cls-1" cx="13.4" cy="14.7" r="1.7"/>
          <circle id="Ellipse_35" class="cls-1" cx="13.4" cy="31.9" r="1.7"/>
          <circle id="Ellipse_36" class="cls-1" cx="30.7" cy="31.9" r="1.7"/>
          <circle id="Ellipse_37" class="cls-1" cx="36.6" cy="31.9" r="1.7"/>
          <ellipse id="Ellipse_38" class="cls-1" cx="33.6" cy="36.9" rx="1.3" ry="1.7"/>
          <circle id="Ellipse_39" class="cls-1" cx="19.1" cy="31.9" r="1.7"/>
          <rect id="Rectangle_304" class="cls-1" x="13.4" y="35.9" width="5.7" height="1.1"/>
          <circle id="Ellipse_40" class="cls-1" cx="19.1" cy="14.7" r="1.7"/>
          <circle id="Ellipse_41" class="cls-1" cx="36.6" cy="14.5" r="1.7"/>
          <circle id="Ellipse_42" class="cls-1" cx="30.5" cy="14.7" r="1.7"/>
        </g>
      </g>
    </g>
  </g>
</svg>