<?xml version="1.0" encoding="utf-8"?><!-- Generator: Adobe Illustrator 21.1.0, SVG Export Plug-In . SVG Version: 6.00 Build 0)  --><svg version="1.1" xmlns="http://www.w3.org/2000/svg" xmlns:xlink="http://www.w3.org/1999/xlink" x="0px" y="0px"	 viewBox="0 0 200 200" style="enable-background:new 0 0 200 200;" xml:space="preserve"><style type="text/css">	.st0{fill:none;stroke:#B3B4B4;stroke-width:2;stroke-miterlimit:10;}	.st1{fill:#026685;}	.st2{fill:#FFFFFF;}	.st3{fill:#F7941D;}	.st4{fill:#54B3D3;}	.st5{fill:#7D7D7D;}</style><g id="Layer_1"></g><g id="Layer_5">	<rect class="st0" width="200" height="200"/></g><g id="Layer_3">	<circle class="st1" cx="55.4" cy="55.3" r="36.1"/>	<path class="st2" d="M37.2,65.7c0,0,16.4,9.5,35.3,0C72.5,65.7,55.2,95.7,37.2,65.7z"/></g><g id="Layer_9"></g><g id="Layer_3_copy">	<circle class="st3" cx="144.4" cy="55.3" r="36.1"/></g><g id="Layer_12">	<path class="st2" d="M129,74.7c0,0,15.1-25.3,30.3,0C159.3,74.7,147.2,63.8,129,74.7z"/></g><g id="Layer_3_copy_2">	<circle class="st4" cx="55.4" cy="143.6" r="36.1"/></g><g id="Layer_13"></g><g id="Layer_3_copy_3">	<circle class="st5" cx="144.4" cy="143.6" r="36.1"/></g><g id="Layer_7">	<circle class="st2" cx="40.5" cy="46.6" r="8.6"/></g><g id="Layer_7_copy_4">	<circle class="st2" cx="40.5" cy="135" r="8.6"/></g><g id="Layer_7_copy_6">	<circle class="st2" cx="129" cy="135" r="8.6"/></g><g id="Layer_7_copy_7">	<circle class="st2" cx="159.3" cy="135" r="8.6"/></g><g id="Layer_19">	<ellipse class="st2" cx="144.1" cy="160.5" rx="6.5" ry="8.8"/></g><g id="Layer_7_copy_5">	<circle class="st2" cx="69.8" cy="135" r="8.6"/></g><g id="Layer_16">	<rect x="40.5" y="155.7" class="st2" width="29.3" height="5.7"/></g><g id="Layer_7_copy">	<circle class="st2" cx="69.8" cy="46.6" r="8.6"/></g><g id="Layer_7_copy_3">	<circle class="st2" cx="159.3" cy="45.6" r="8.6"/></g><g id="Layer_7_copy_2">	<circle class="st2" cx="128.1" cy="46.6" r="8.6"/></g></svg>