<?xml version="1.0" encoding="UTF-8"?>
<svg xmlns="http://www.w3.org/2000/svg" version="1.1" viewBox="0 0 50 50">
  <defs>
    <style>
      .cls-1, .cls-2 {
        fill: none;
      }

      .cls-3 {
        fill: #ffaf6d;
      }

      .cls-4 {
        fill: #7c4dff;
      }

      .cls-2 {
        stroke: #d3d3d3;
      }

      .cls-5 {
        fill: #fae872;
        stroke: #fae872;
        stroke-width: .5px;
      }
    </style>
  </defs>
  <!-- Generator: Adobe Illustrator 28.7.6, SVG Export Plug-In . SVG Version: 1.2.0 Build 188)  -->
  <g>
    <g id="Layer_1">
      <g id="Layer_1-2" data-name="Layer_1">
        <g id="Layer_1-2">
          <g id="Group_3118">
            <g id="Group_3045">
              <g id="Rectangle_172">
                <rect class="cls-1" width="50" height="50" rx="6" ry="6"/>
                <rect class="cls-2" x=".5" y=".5" width="49" height="49" rx="5.5" ry="5.5"/>
              </g>
              <g id="Layer_2">
                <path id="Path_89" class="cls-4" d="M11.9,10.4h25.6c.9,0,1.6.7,1.6,1.6v4.1H10.3v-4.1c0-.9.7-1.6,1.6-1.6Z"/>
                <path id="Path_90" class="cls-4" d="M10.3,18.3v21.3h28.7v-21.3H10.3ZM37.1,37.9H12.2v-17.7h25v17.7h-.1Z"/>
              </g>
              <g id="Layer_19">
                <rect id="Rectangle_125" class="cls-3" x="13.7" y="21.7" width="5.8" height="3.7"/>
                <rect id="Rectangle_126" class="cls-3" x="13.7" y="27" width="5.8" height="3.7"/>
                <rect id="Rectangle_127" class="cls-3" x="13.7" y="32.4" width="5.8" height="3.7"/>
              </g>
              <rect id="Rectangle_128" class="cls-3" x="21.6" y="21.7" width="5.8" height="3.7"/>
              <rect id="Rectangle_214" class="cls-3" x="29.5" y="21.7" width="5.9" height="3.7"/>
              <g id="Layer_24">
                <g id="Layer_2-2">
                  <path id="Path_91" class="cls-5" d="M33.7,32.9h.4l-.5,2.4h-11v-.2l4.1-3.5-4.1-3.8v-.3h10.8l.2,2h-.3c0-.8-.7-1.5-1.5-1.5h-7l3.4,3-3.9,3.2h7.1s2,0,2.3-1.4h0Z"/>
                </g>
              </g>
            </g>
          </g>
        </g>
      </g>
    </g>
  </g>
</svg>