<?xml version="1.0" encoding="UTF-8" standalone="no"?><!-- Generator: Adobe Illustrator 21.1.0, SVG Export Plug-In . SVG Version: 6.00 Build 0)  --><svg   xmlns:dc="http://purl.org/dc/elements/1.1/"   xmlns:cc="http://creativecommons.org/ns#"   xmlns:rdf="http://www.w3.org/1999/02/22-rdf-syntax-ns#"   xmlns:svg="http://www.w3.org/2000/svg"   xmlns="http://www.w3.org/2000/svg"   xmlns:sodipodi="http://sodipodi.sourceforge.net/DTD/sodipodi-0.dtd"   xmlns:inkscape="http://www.inkscape.org/namespaces/inkscape"   version="1.1"   x="0px"   y="0px"   viewBox="0 0 200 200"   style="enable-background:new 0 0 200 200;"   xml:space="preserve"   id="svg2"   inkscape:version="0.91 r13725"   sodipodi:docname="SpiderChart(3).svg"><metadata     id="metadata424"><rdf:RDF><cc:Work         rdf:about=""><dc:format>image/svg+xml</dc:format><dc:type           rdf:resource="http://purl.org/dc/dcmitype/StillImage" /><dc:title></dc:title></cc:Work></rdf:RDF></metadata><defs     id="defs422" /><sodipodi:namedview     pagecolor="#ffffff"     bordercolor="#666666"     borderopacity="1"     objecttolerance="10"     gridtolerance="10"     guidetolerance="10"     inkscape:pageopacity="0"     inkscape:pageshadow="2"     inkscape:window-width="1366"     inkscape:window-height="705"     id="namedview420"     showgrid="false"     inkscape:zoom="1.668772"     inkscape:cx="92.988251"     inkscape:cy="102.23393"     inkscape:window-x="-8"     inkscape:window-y="-8"     inkscape:window-maximized="1"     inkscape:current-layer="svg2" /><style     type="text/css"     id="style4">	.st0{fill:none;stroke:#B3B4B4;stroke-width:2;stroke-miterlimit:10;}	.st1{display:none;}	.st2{display:inline;fill:#026685;}	.st3{display:inline;fill:#51BED1;}	.st4{display:inline;fill:#036785;}	.st5{display:inline;fill:#DC9D27;}	.st6{display:inline;fill:#8FA79C;}	.st7{display:inline;fill:#818282;}	.st8{display:inline;fill:#E4A025;}	.st9{display:inline;fill:#59B6D8;}	.st10{display:inline;fill:#22AB73;}	.st11{display:inline;fill:#478DCB;}	.st12{display:inline;}	.st13{fill:#036785;}	.st14{fill:#47B649;}	.st15{fill:#D7D924;}	.st16{fill:#DD9627;}	.st17{fill:#3C3A3A;}	.st18{fill:#DE6A26;}	.st19{display:inline;fill:none;stroke:#40403F;stroke-width:3;stroke-miterlimit:10;}	.st20{fill:#25A549;}	.st21{fill:#026685;}	.st22{font-family:'Arial-BoldMT';}	.st23{font-size:74.4333px;}	.st24{fill:#E4A025;}	.st25{fill:#F7941D;}	.st26{display:inline;fill:#58B5D6;}	.st27{fill:#60BDDD;}	.st28{fill:#787878;}	.st29{fill:none;stroke:#4B4B4B;stroke-miterlimit:10;}	.st30{display:inline;fill:none;stroke:#424242;stroke-width:2;stroke-miterlimit:10;}	.st31{display:inline;fill:none;stroke:#424242;stroke-miterlimit:10;}	.st32{display:inline;fill:#FFFFFF;}	.st33{display:inline;fill:#F7941D;}	.st34{display:inline;fill:#0EB9C8;}	.st35{display:inline;fill:#E79324;}	.st36{display:inline;fill:#588DCA;}	.st37{display:inline;fill:#47B649;}	.st38{fill:#4F4E4E;}	.st39{fill:#E79324;}	.st40{font-family:'MicrosoftYaHeiUI-Bold';}	.st41{font-size:55px;}	.st42{display:inline;fill:#4CA7BF;stroke:#003B41;stroke-width:3;stroke-miterlimit:10;}	.st43{display:inline;fill:#4B6072;}	.st44{display:inline;fill:#40B649;}	.st45{display:inline;fill:#32394C;}	.st46{display:inline;fill:#CDDE57;}	.st47{display:inline;fill:#9AC3E1;}	.st48{display:inline;fill:#3354A5;}	.st49{fill:none;stroke:#0BAEA8;stroke-width:10;}	.st50{fill:#8ED7F1;}	.st51{fill:none;stroke:#056786;stroke-width:4.5;stroke-miterlimit:10;}	.st52{fill:#FFFFFF;}</style><g     id="Layer_1" /><g     id="Layer_5"><rect       class="st0"       width="200"       height="200"       id="rect8" /></g><g     id="Layer_3"     class="st1"><polyline       class="st2"       points="22,176.3 177,176.3 177,84.5 120.3,142.9 100,109.8 67,149.9 52.7,128.9  "       id="polyline11" /></g><g     id="Layer_4"     class="st1"><polyline       class="st3"       points="177,63.2 123.7,122.8 103.7,83.3 70.7,127.1 55.5,99.1 25,146.5 25.3,118.9 57.3,62 71.8,80    100.3,31.9 133.9,73.8 177,22.5  "       id="polyline14" /></g><g     id="Layer_6"     class="st1"><rect       x="39"       y="27"       class="st4"       width="131.7"       height="35.5"       id="rect17" /><rect       x="39"       y="82.8"       class="st5"       width="94.2"       height="35.5"       id="rect19" /><rect       x="39"       y="138.9"       class="st6"       width="59.3"       height="35.5"       id="rect21" /></g><g     id="Layer_7"     class="st1"><rect       x="25.7"       y="27"       class="st7"       width="6"       height="147.3"       id="rect24" /></g><g     id="Layer_8"     class="st1"><circle       class="st4"       cx="75.7"       cy="122.5"       r="37.7"       id="circle27" /><circle       class="st8"       cx="149"       cy="94.5"       r="28"       id="circle29" /><circle       class="st8"       cx="80"       cy="49.9"       r="16.7"       id="circle31" /><circle       class="st9"       cx="161.2"       cy="39.8"       r="10"       id="circle33" /><circle       class="st4"       cx="161.2"       cy="147.8"       r="12.2"       id="circle35" /></g><g     id="Layer_9"     class="st1"><rect       x="23"       y="23.1"       class="st7"       width="5.5"       height="149.9"       id="rect38" /></g><g     id="Layer_9_copy"     class="st1"><rect       x="97.3"       y="97"       transform="matrix(-1.346054e-10 1 -1 -1.346054e-10 274 74)"       class="st7"       width="5.5"       height="154"       id="rect41" /></g><g     id="Layer_10"     class="st1"><rect       x="136.9"       y="32.5"       class="st10"       width="31.5"       height="129"       id="rect44" /><rect       x="87.1"       y="69.9"       class="st11"       width="31.5"       height="91.6"       id="rect46" /><rect       x="37.3"       y="104.1"       class="st4"       width="31.5"       height="57.4"       id="rect48" /></g><g     id="Layer_11"     class="st1"><g       id="Layer_2"       class="st12"><path         class="st13"         d="M100,21.4c-43.8,0-79.3,35.5-79.3,79.3S56.3,180,100,180s79.3-35.5,79.3-79.3S143.8,21.4,100,21.4z     M100,162.3c-34,0-61.6-27.6-61.6-61.6S66,39.1,100,39.1c34,0,61.6,27.6,61.6,61.6c0,0,0,0,0,0C161.7,134.7,134.1,162.3,100,162.3    z"         id="path52" /><path         class="st13"         d="M100,21.4c-43.8,0-79.3,35.5-79.3,79.3S56.3,180,100,180s79.3-35.5,79.3-79.3S143.8,21.4,100,21.4z     M100,162.3c-34,0-61.6-27.6-61.6-61.6S66,39.1,100,39.1c34,0,61.6,27.6,61.6,61.6c0,0,0,0,0,0C161.7,134.7,134.1,162.3,100,162.3    z"         id="path54" /><path         class="st14"         d="M64.6,62.1C53.8,72.1,47.5,86,47.3,100.7h19.9c1.5-15.5,10.6-23.1,10.6-23.1L64.6,62.1z"         id="path56" /><path         class="st15"         d="M72.8,56.3l12.7,15c9.8-3.9,20.7-3.9,30.5,0l13.3-15C129.3,56.3,101.6,38.5,72.8,56.3z"         id="path58" /><path         class="st16"         d="M136.9,62.1l-13.3,15.4c0,0,7.3,5.7,9.9,23.2h19.8C153.3,100.7,155.2,81.8,136.9,62.1z"         id="path60" /></g><g       id="Layer_3_1_"       class="st12"><path         class="st17"         d="M99.9,91.1l5.2,1.8c1.1,0.4,2.3-0.2,2.6-1.3c0,0,0,0,0-0.1l11-35.4c0.1-0.2-0.1-0.5-0.3-0.5    c-0.2-0.1-0.4,0-0.5,0.2L98.8,88.1c-0.6,1-0.2,2.3,0.8,2.8C99.6,91,99.8,91,99.9,91.1z"         id="path63" /><circle         class="st18"         cx="100"         cy="100.7"         r="17.3"         id="circle65" /></g></g><g     id="Layer_14"     class="st1"><rect       x="20.2"       y="19.8"       class="st19"       width="160.6"       height="160.6"       id="rect68" /></g><g     id="Layer_12"     class="st1"><g       id="Layer_3_2_"       class="st12"><polygon         class="st20"         points="107.6,67.1 172.2,67.1 139.9,29.8   "         id="polygon72" /></g><g       id="Layer_4_1_"       class="st12"><path         class="st21"         d="M62.2,168.6H48v-65.3c-5.3,6-11.6,10.5-18.5,13.2v-15.8c4.4-1.9,8.5-4.8,12.1-8.4c4.1-3.7,7.2-8.7,9-14.4    h11.6V168.6z"         id="path75" /><path         class="st21"         d="M94.7,77.9c6.6-0.4,12.8,3.1,16.9,9.4c4.8,7.4,7.3,19.7,7.3,36.8s-2.4,29.4-7.3,36.8    c-4.1,6.2-10.3,9.6-16.9,9.3c-6.9,0.2-13.4-3.5-17.5-10.2c-4.4-6.8-6.7-18.8-6.7-36.2c0-17,2.4-29.3,7.3-36.8    C81.9,80.8,88.2,77.5,94.7,77.9z M94.7,92.2c-1.7,0-3.3,0.7-4.6,2c-1.7,2-2.8,4.5-3.2,7.3c-1.2,7.4-1.7,15-1.5,22.6    c-0.2,7.3,0.2,14.7,1.3,21.9c0.4,3,1.6,5.7,3.3,7.9c2.7,2.6,6.5,2.6,9.2,0c1.6-1.9,2.7-4.5,3.1-7.2c1.2-7.5,1.7-15.1,1.4-22.7    c0.2-7.3-0.2-14.7-1.3-21.9c-0.5-3-1.6-5.7-3.3-7.9C98,93,96.4,92.2,94.7,92.2z"         id="path77" /><text         transform="matrix(0.775 0 0 1 121.6387 167.9785)"         class="st21 st22 st23"         id="text79">%</text></g></g><g     id="Layer_13"     class="st1"><g       id="Layer_3_3_"       class="st12"><polygon         class="st13"         points="35.3,111.3 24.3,102.3 42,64 70.4,94.3 95.6,67.9 121.3,80.4 147.9,24.3 177,40.2 177,56 153,43.1     126.7,99.4 98.4,84.7 70.3,114.4 45.4,87.8   "         id="polygon83" /><polygon         class="st24"         points="46.4,101 32.8,124.8 44.6,131.7 56.2,110.8   "         id="polygon85" /><polygon         class="st24"         points="86.3,67.7 95.9,58.7 83.4,36.7 61.8,74.9 70.9,84.4 83.3,63   "         id="polygon87" /><polygon         class="st24"         points="102.4,97.1 130.3,144.2 148.7,114.4 164.9,177.7 177,173.4 151.9,80.4 129.5,119.3 123.6,107.5       "         id="polygon89" /></g></g><g     id="Layer_15"     class="st1"><g       id="Layer_2_1_"       class="st12"><g         id="g93"><polygon           class="st25"           points="104.5,47.6 87.9,71.5 87.9,162.5 119.5,162.5 119.5,70.2    "           id="polygon95" /><polygon           class="st25"           points="103.7,34 119.5,56.5 119.5,29.2 87.9,29.2 87.9,56.5    "           id="polygon97" /></g><g         id="g99"><polygon           class="st25"           points="157.6,110.8 169.1,104.2 169.1,86.7 140.7,86.7    "           id="polygon101" /><polygon           class="st25"           points="153.3,121 137.4,97.2 137.4,162.5 169.1,162.5 169.1,112.7    "           id="polygon103" /></g></g><g       id="Layer_3_4_"       class="st12"><g         id="g106"><polygon           class="st13"           points="54.9,116.2 37.9,105.7 37.9,162.5 69.5,162.5 69.5,95.1    "           id="polygon108" /><polygon           class="st13"           points="52.2,104.3 69.5,79.7 69.5,46 37.9,46 37.9,96.6    "           id="polygon110" /></g></g></g><g     id="Layer_16"     class="st1"><polygon       class="st26"       points="137.4,97.2 153.3,121 169.1,112.7 169.1,162.5 137.4,162.5  "       id="polygon113" /><polygon       class="st26"       points="140.7,86.7 157.6,110.8 169.1,104.2 169.1,86.7  "       id="polygon115" /></g><g     id="Layer_17"     class="st1"><g       id="Layer_2_2_"       class="st12"><path         class="st13"         d="M99.9,100.3L81,23.2c-42.6,10.4-68.6,53.4-58.2,96s53.4,68.6,96,58.2c29-7.1,51.6-29.9,58.4-59L99.9,100.3z"         id="path119" /></g><g       id="Layer_3_5_"       class="st12"><path         class="st25"         d="M106.3,88.8l55.1-38.7C146.3,31.6,123.7,20.9,99.9,21c-3.2,0-6.3,0.2-9.4,0.6L106.3,88.8z"         id="path122" /></g><g       id="Layer_4_2_"       class="st12"><path         class="st27"         d="M115.1,94.7l63.7,13.9c0.3-2.7,0.4-5.5,0.4-8.3c0-15.5-4.5-30.8-13.1-43.7L115.1,94.7z"         id="path125" /></g></g><g     id="Layer_18"     class="st1"><g       id="Layer_2_3_"       class="st12"><path         class="st28"         d="M31.5,21.5H169c4.7,0,8.5,3.9,8.5,8.6v22.3l0,0H22.9l0,0V30.1C22.9,25.4,26.8,21.5,31.5,21.5z"         id="path129" /><path         class="st28"         d="M22.9,64v114.5h154.6V64H22.9z M167.3,169.2H33V73.9h134.3V169.2z"         id="path131" /></g><g       id="Layer_3_6_"       class="st12"><rect         x="129.9"         y="141.9"         class="st29"         width="5.5"         height="3.4"         id="rect134" /><rect         x="137.8"         y="141.9"         class="st29"         width="5.5"         height="3.4"         id="rect136" /><rect         x="145.3"         y="141.9"         class="st29"         width="5.5"         height="3.4"         id="rect138" /><rect         x="129.9"         y="147.1"         class="st29"         width="5.5"         height="3.4"         id="rect140" /><rect         x="137.8"         y="147.1"         class="st29"         width="5.5"         height="3.4"         id="rect142" /><rect         x="145.3"         y="147.1"         class="st29"         width="5.5"         height="3.4"         id="rect144" /><rect         x="129.9"         y="152"         class="st29"         width="5.5"         height="3.4"         id="rect146" /><rect         x="137.6"         y="152"         class="st29"         width="6"         height="3.4"         id="rect148" /><rect         x="145.1"         y="152"         class="st29"         width="6"         height="3.4"         id="rect150" /></g></g><g     id="Layer_19"     class="st1"><rect       x="41.3"       y="82.3"       class="st30"       width="31.1"       height="20"       id="rect153" /><rect       x="41.3"       y="111"       class="st30"       width="31.1"       height="20"       id="rect155" /><rect       x="41.3"       y="140"       class="st30"       width="31.1"       height="20"       id="rect157" /></g><g     id="Layer_19_copy"     class="st1"><rect       x="83.9"       y="82.3"       class="st30"       width="31.1"       height="20"       id="rect160" /><rect       x="83.9"       y="111"       class="st30"       width="31.1"       height="20"       id="rect162" /><rect       x="84"       y="140"       class="st31"       width="30.7"       height="20"       id="rect164" /></g><g     id="Layer_19_copy_2"     class="st1"><rect       x="126.3"       y="82.3"       class="st30"       width="31.7"       height="20"       id="rect167" /><rect       x="126.8"       y="111"       class="st30"       width="31.1"       height="20"       id="rect169" /><rect       x="127.3"       y="140"       class="st31"       width="30.7"       height="20"       id="rect171" /></g><g     id="Layer_25"     class="st1"><rect       x="82"       y="107.8"       class="st32"       width="78.3"       height="53.8"       id="rect174" /></g><g     id="Layer_22"     class="st1"><rect       x="126.1"       y="139.1"       class="st2"       width="33.1"       height="21.9"       id="rect177" /></g><g     id="Layer_22_copy"     class="st1"><rect       x="82.9"       y="139.1"       class="st33"       width="33.1"       height="22"       id="rect180" /></g><g     id="Layer_24"     class="st1"><g       id="Layer_2_4_"       class="st12"><path         class="st13"         d="M156.7,144.3h2.3l-3.4,15.7H83.9v-1.5l26.9-22.8l-26.9-24.5v-1.8h70.4l1.1,12.8h-1.9c0,0,0.2-9.7-10.9-9.5    h-44l21.8,19.7l-25.2,20.7h46.3C141.5,153.1,154.3,153.5,156.7,144.3z"         id="path184" /></g></g><g     id="Layer_26"     class="st1"><polyline       class="st4"       points="103.5,111.3 129,134.6 103.5,155.4 91,155.4 117.5,134.7 91,111.3  "       id="polyline187" /><path       class="st4"       d="M106.8,150.5h38.6c0,0,6.4-0.2,11-5.2l-2,10.1l-51.5-0.8L106.8,150.5z"       id="path189" /><path       class="st4"       d="M106,115.7h40.8c0,0,4.9,0,6.5,4.6l-1.1-9h-49.7v2.5L106,115.7z"       id="path191" /></g><g     id="Layer_27"     class="st1"><rect       x="23.5"       y="22"       class="st34"       width="58"       height="45.9"       id="rect194" /><rect       x="92.6"       y="22"       class="st35"       width="35.9"       height="92.7"       id="rect196" /><rect       x="141.9"       y="22"       class="st36"       width="35.6"       height="92.7"       id="rect198" /><rect       x="23.5"       y="78.5"       class="st4"       width="58"       height="99"       id="rect200" /><rect       x="92.6"       y="125.7"       class="st37"       width="84.9"       height="51.8"       id="rect202" /></g><g     id="Layer_28"     class="st1"><g       id="Layer_2_5_"       class="st12"><path         class="st38"         d="M101.6,18c-11.1,0-20.1,9.9-20.2,22.1c0,12.2,19.2,47.9,20.2,47c1-1,20.2-34.8,20.2-47    C121.8,27.9,112.8,18,101.6,18z M101.1,54c-6.9,0-12.6-6.2-12.6-13.8s5.6-13.8,12.6-13.8c6.9,0,12.6,6.2,12.6,13.8    S108.1,54,101.1,54z"         id="path206" /></g><g       id="Layer_3_7_"       class="st12"><path         class="st39"         d="M101.6,157.8c0.1,1.3,0.4,2.5,0.8,3.8c0.3,0,1.2,2.2,1.2,2.2c0.1,0.7,0.3,1.4,0.6,2c0.3,0.4,0.4,1.2,0.7,1.2    c1.1,1,2.7,1.2,4,0.5c0,0,1-1.2,1-1.5c0.3-1,0.9-1.9,1.6-2.6c0.8-0.9,1.6-1.3,1.9-2c0.2-0.5,0.2-1,0-1.4l0.2-1l2-1.1    c0,0-0.4-0.2,0-0.5c0.4-0.3,0.2-0.6,0-1.3c-0.2-0.8-1-1.8-1-2.1s-0.3-0.5,0.1-0.9c0.4-0.4,1.7-0.8,1.7-1.1    c0.1-1.3,0.5-2.5,1.2-3.6c0.7-0.6,2.3-1.6,2.3-1.6s1.2-1,0.8-1.3c-0.6-0.4-1.2-0.6-1.9-0.8l-3.3-1.2l-0.3-1.2l-1.6-2l-0.3-2.2    c0,0-0.8,0.1-0.7-1c0.1-1,0.1-2.3,0.1-2.3l-1-0.9c-0.7-0.1-1.4-0.1-2.1,0c-0.5,0.2-0.6,0.5-1.4,0.7c-0.8,0.2-2,0.4-2,0.4v-1.1    c0,0-1.6-0.5-1.6,0c0,0.5-0.8,0.8-1.1,0.8s-1.7,0.5-1.8-0.1c-0.2-0.8-0.5-1.6-0.9-2.3l-2-0.6h-3.2c-0.4,0.2-0.9,0.4-1.2,0.7    c-0.2,0.3,0.4-0.9-1.3,1.2c-1.3,1.7-2.9,3.2-4.6,4.5c-0.4,0.1-1.3,0.4-1.3,1.2c-0.1,0.7-0.1,1.5,0,2.2c0.4,1.3,0.9,2.7,1.4,3.9    c0,0-1.4-0.2,0.6,0.7c1,0.5,2.1,0.9,3.2,1.2c1.2,0.3,2.4,0.5,3.6,0.6l2.5,0.2l2.3,0.5c0,0,0.8,0.9,0,1.3l-0.8,0.4    c0,0-0.4,1.2,0.1,1.4c0.5,0.3,1.5,0.8,1.5,0.8l0.7,1v1.9c0,0.8,0.6,1.3,0,1.9L101.6,157.8z"         id="path209" /><path         class="st13"         d="M73.3,178.5l-1.1-0.6c0,0-1.9-1.5-1.9-2s-0.8-1-0.8-1.9s0.5-2.8,0.5-3.6c0-1.7,0.2-3.3,0.4-5    c0.3-1.3-0.3-1.9,0.3-3c0.6-1,0-1.2,0.7-1.9c0.5-0.5,0.8-1.1,0.8-1.8c0.1-1,0.4-1.3,0-1.7c-0.4-0.4-2.3,0-2.7-0.5    c-0.4-0.5-1.9-0.9-1.9-3c0-2.1-0.9-2.6-0.9-3.7c0.1-0.8,0.3-1.6,0.8-2.3l1.1-2.2h-2.8c0,0-1.2,0.9-1.3,0c-0.3-0.8-0.8-1.6-1.5-2.2    c0,0-3.9,0.1-4.1-1.2l-0.1-1.3l-3-1.3l-2.6-1.8v-0.6h-2.4l-2-3.3c0,0-2-0.4-2-1.2c0-0.8-0.7-1.8-0.7-2.2c0-0.4-0.8-1.2-0.8-1.8    v-3.7c-0.3-0.3-0.5-0.7-0.5-1.2c-0.1-0.6-0.4-1.1-0.8-1.5h-1.6c0,0-1.9-0.6-1.9-1.2v-2.3l-2.2-1.2l-4.1-0.6h-1    c-0.7,0.2-1.3,0.6-1.8,1.2c-0.9,1-2,1.8-3.2,2.4c-0.4,0.3-3.2,1.3-3.2,1.3l-2.4,0.8l4.5-3.6l-0.9-2c0,0-1.2-2.4-1.3-2.8l-1-2.7    c0.1-0.6,0.3-1.1,0.5-1.7c0.6-0.8,1.4-1.5,2.4-1.8c0.6-0.1,1.2-0.1,1.8,0c0.9,0.1,1.8,0.1,2.7,0c2.8,0.3,5.5,0.8,8.2,1.5h0.8    c2.8,0,5.9-0.1,6.4-0.1c0.5,0,0.9,0.1,1.3,0.2l0.8,0.2l-3.8-2.6c-0.1-0.6-0.1-1.2-0.1-1.8c0-0.9-0.5,0.3,0-0.9s1.1-1.5,1.9-1.5    s1.2,0.5,1.9,0c0.7-0.5,5.3-2.2,6.1-2.7c0.8-0.5,4.9-1.4,5.8-1.8c0.8-0.4,1.6-0.7,2.4-0.9c1.5-0.4,1.3-0.8,3.2-1.3s0.7-1,3.6-1    h3.5l0.8,1.2c-0.7,0.4-1.3,0.9-1.8,1.4c-0.3,0.4-5.3,5-5.3,5s-0.4,0.6,0,0.8s8.2,7.2,8.2,7.2l0.8,0.5c0,0.9-0.4,1.8-1.1,2.4    c-1.1,0.8-3.4-0.1-3.4-0.1h-3.8c0,0-0.3-1.3,0.1-1.8c0.3-0.6,0.6-1.3,0.7-2c0,0-1.6-1-1.9-0.4c-0.3,0.6-1.3-0.3-0.8,1.4    c0.3,1,0.5,2.1,0.5,3.2l-2.8,0.1c0,0-1.5-0.5-1.9,0.4c-0.5,0.8-1.2,1.6-2,2.2c0.5,0.6,1.2,1,2,1.3c0.8,0.1,1.5,0.3,2.2,0.6    c0.4,0.3,0.7-0.1,1.2,1c0.4,0.7,0.9,1.4,1.6,1.8c0,0,0.8,0.3,0.9-0.8c0.1-1,0.4-2.4,0.4-3.1s-0.7-2.2-0.1-2.4    c0.6-0.2,6.6,1.5,6.6,1.5l4.3,5.3v1.3l-3.8,1l-3.1,1.8l0.5,2.4l-1.8,0.1l-1.5,2.4l-1.6,1.7l-0.3,1.4l0.3,2l-2,0.1l-0.7-1.3    l-1.3-1.5l-1.8,0.4l-2.4,1.2l-0.3,1.9l-0.1,1.5l2,1c0,0,0.8-2,1.5-2c0.7,0,1.1,1.9,0.9,2.4c-0.1,0.6-0.2,1.2-0.1,1.8h1.8l0.5,1    c0,0-1.3,0.9-0.4,0.9s3.4,0.6,3.8,0.5c0.4-0.1,0.8-1,1.5-1.3c0.7-0.2,1.8-0.8,2-0.1c0.2,0.5,0.6,0.9,0.9,1.3    c1.1-1.1,3-1.2,4.2-0.2c0.1,0,0.1,0.1,0.2,0.2l-0.4,0.9c0,0-0.1,0.5,0.7,0.8c0.8,0.2,1.6,0.3,2.4,0.4c0,0,0.9,0,0.9,0.5s0,2,0,2    l1.8-0.1l1.5,0.3l2.3,1.7l1,0.6l1.2,0.8l-0.5,1.8l-0.5,2l0.3,2.7l-1.4,0.6L76,169.1c0,0-1.5,0.8-1.6,1.5c-0.1,0.8-0.8,0.6-0.1,0.8    c0.5,0.1,1,0.4,1.3,0.8l-0.4,1.4c0,0-2.2-1.3-2,0.6c0,0.9,0.2,1.9,0.7,2.7l0.7,1.5L73.3,178.5z"         id="path211" /><path         class="st13"         d="M78,105.6l1.6,4.7c0,0-0.7,0.5,0.5,2.2c1.2,1.7-0.4,0.9,1.3,2.4c1,0.9,2.3,1.5,3.7,1.5l1.2-0.8v-1.7    c0,0-1.1-0.8,0-1.2c1.1-0.4,1.6-1,2.8-1.2c0.9-0.1,1.7-0.3,2.4-0.7l2-1l0.9-1.4v-1.5c0,0-3.1-6.7-3.1-7.2    c-0.3-0.9-0.7-1.7-1.2-2.4l-1.1-1.8c0,0,0.8-1.2-0.8-0.8s-4.3,0.8-4.3,0.8H80c0,0-2.4,0.8-3,0.9c-0.5,0.1-3.4,1.3-3.4,1.8    c-0.1,0.9-0.3,1.8-0.6,2.7c-0.3,0.4-1.3,1.5-1.3,1.5s-0.1,0.4,0.5,0.9c0.6,0.4,1.4,0.6,2.2,0.5c0.9,0,1.1-0.4,1.9-0.4    s1.1-0.4,1.6,0C78.4,104,78,105.6,78,105.6z"         id="path213" /><path         class="st20"         d="M122.9,129.3l2.2,0.8v1.5c0,0-2.2,0.9-2.2,1.3s-3.9,1.4-3.9,1.4c-0.1-0.9-0.5-1.7-0.9-2.5    c-0.8-1.2-1.3-0.7-2.4-3.1c-1.1-2.4-1.1-0.6-1.1-1.8v-2c0,0-0.1-0.1,0-1c0.1-0.7,0.1-1.4,0-2c0,0-1.4,0.3-1.3,1s-2.6,0.5-2.6,0.5    l0.5-1.5l-1.8,0.6l-1.5-0.6l-0.8-2.9l-1.8-2.5l-1,1c0,0,0.1,1.3,0.6,1.5c0.4,0.3,0.7,0.6,1.1,0.9c0.1,0.5,0.1,0.9,0,1.4    c-0.1,0.2-1.1,0.1-1.1,0.1c0.1-0.8-0.3-1.5-1-1.9l-1.2-1l-2.6,0.8c-1,0.6-1.9,1.3-2.8,2c0,0.2-1.6,1.4-1.6,1.4s-0.5,0.4-0.5,0.1    c0-0.3-1.1-1.5-0.6-1.9c0.5-0.3-0.7-2-0.1-2c0.6,0,3.4,0.2,3.4,0.2v-1.5l-0.9-1.3l0.5-1.3c0,0,0.3,0.3,1.6,0s2.1-0.1,2.5-0.7    c0.3-1.1,0.3-2.2,0.2-3.3c0,0,0-1.2,0.1-1.1c0.7,0.7,1.4,1.5,2,2.3l2.4-0.1c0,0,1.8-2.3,2.2-2.2c1.2-0.4,2.3-0.9,3.4-1.5h-4.2    l0.4-2.6c1.3-0.6,2.1-1.8,2.4-3.1l1.1-3.7c1.1,0.3,2.2,0.8,3.2,1.3c0.8,0.5,0.9,0.6,1.6,1c0.7,0.4,1.6,1.2,0.9,1.4    c-0.8,0.1-1.5,0.1-2.3,0c0,0-3.4,0.2-3.2,0.8c0.1,0.5,3.1,2.3,3.1,2.3s-0.8,2.6,1.9,0c1.1-1.3,2.5-2.5,3.9-3.4    c1.1-0.4,2.2-0.6,3.4-0.8l0.8-0.6l-2.4-1.9c0,0,0.4-2.7,0.9-2.8c0.5-0.1,5.7-2,5.7-2s1.5,0.4,0.7,0.9c-0.8,0.5-5.1,2.3-5.1,2.3    s-0.7,0.9,0,1.5s0.5,1,1.6,2l1.1,1c0.4-0.3,0.6-0.7,0.7-1.2c0.3-0.9,2-2.2,2-2.2c1.2-0.1,2.4,0,3.5,0.3c0.5,0.4,2.3-0.9,2.3-0.9    s8.1-4.6,9.3-3.9c1.2,0.5,2.6,0.8,3.9,0.9c0,0-2.8,2.3-2.8,2.8c0,0.5-0.9,1.2-0.9,1.2l13.8,1.2c0,0,1.8-3.1,2.6-2.7    c0.6,0.4,1,0.9,1.2,1.5l3.1,0.6c0.7,0.1,3.2,0.5,3.2,0.5s0.9,0.9,1.6,0.9h4.5c0.5,0,1-0.1,1.5-0.3v7.2l-5.8,0.5l0.3,1.8l-2.9,4.7    l-0.4-3.2l1.2-2.3c0,0,0.3-0.5-1.3-0.5c-1.6,0-4.9,0.1-4.9,0.1s-0.4,1-2.4,1.8c-2,0.8-3.9-0.1-2.7,0.9c1.2,1,0.1,0.9,1.2,1    c0.8,0.1,1.5,0.1,2.3,0c0,0-0.1,2,0.3,2.2c0.4,0.1,0.9,1.8,0.3,1.5c-0.8-0.1-1.5-0.1-2.3,0l-0.7,2.6l-2,1.2l-0.1,2.7    c0,0-2.4,1.5-2.4,1.2c-0.4-0.9-0.8-1.7-1.3-2.4c0,0-1.5,0.1-1.3,1c0.1,0.9,0.8,5.5,0.8,5.5l-3.5,1.3l-2.6,2.2    c0.2,0.8,0.5,1.5,0.8,2.2c0.3,0.4,0.1,1.5-0.3,1.5h-2.6l-0.3-1.3c0,0-3-0.4-2.3,0.5c0.8,0.8,1.6,1.5,2.6,2.1l1.5,1.2l-2.3,1l2,2.4    c0,0,0.1,1.4,0.5,1.5l3.6,1.3l-3.8,1.4l-2-2.4l-0.9-1.3l-1.8-2.6l-1.1-1.3l1.8-0.8c0,0-0.5-0.8-0.9-1.4c-0.5-1.1-1-2.2-1.2-3.3    c0-0.4-0.1-1.4-0.1-1.8c-0.3-0.9-0.7-1.8-1.1-2.7l-1.8,1.5l-0.4,2.6l-2.8,1.2l0.5,2.6l-1.6,0.1l-1.8-1.2l-0.8-2.6l-1.8-3.7    l-4.2-1.8l-3.2-0.3v0.8L122.9,129.3z"         id="path215" /><path         class="st20"         d="M161.1,118c0,0-0.2,2-0.2,2c0,0.5-0.1,0.9-0.2,1.3c-0.1,0.3-2,0.9-2.8,1.6c-0.8,0.7-1.9,1.1-2,1.5    c-0.1,0.5-0.7,1.1,0,1.1c0.7-0.1,1.4-0.4,1.9-0.9c0.4-0.2,1-0.8,1.6-0.9s1.5,0.1,1.6-0.3c0.1-0.5,0-0.7,0.2-1.2    c0.1-0.5,0.5-1,1.1-1.2c0.5-0.4,0.9-0.8,1.3-1.3l-1.4-0.6l-0.7-1.2h-0.6"         id="path217" /><path         class="st20"         d="M168,116.7l-1.8,0.7l-0.6,0.2h-1.5c0,0-0.5-0.2,0.2-0.5l1.4-0.5c0-0.3,0.1-0.5,0.3-0.8    c0.4-0.2,0.7-0.3,1.1-0.4c0,0,0.1-0.1,0.3,0c0.2,0.1,0.7,0.1,0.6,0.4"         id="path219" /><path         class="st20"         d="M96.7,109.6c0.3,0.6,0.6,1.1,1,1.5c0.2,0,0.5,0,0.6,0.6s0.8,2.3,0.8,2.3l-1.9-0.6c-0.2-0.4-0.4-0.8-0.6-1.2    c-0.2-0.3-1-1.8-1-1.8L96.7,109.6z"         id="path221" /><path         class="st20"         d="M94.3,112.5c0,0-1.5,1.5-1.2,1.5c0.3,0,0,0.3,0.6,0.4c0.5,0,0.9,0,1.4,0c0,0-0.3,0,0-0.6s0.4-0.1,0.3-0.6    C95.3,112.6,94.3,112.5,94.3,112.5z"         id="path223" /><path         class="st20"         d="M151.5,139.1l-0.3-0.8l-0.9-1l-1.2,0.3l-0.4,1.4l-0.9,1v1.8h0.9c0.2,0,1,0.9,1,0.9l1-0.9    c-0.1-0.4-0.1-0.7,0-1.1c0.3-0.3,0.6-0.6,0.9-0.8L151.5,139.1z"         id="path225" /><path         class="st20"         d="M155.1,140c0,0-1.4-0.5-1.6-0.3s-1.2,0.6-1.1,1.1c0.2,0.4,0.3,0.9,0.3,1.4c0,0.4-0.1,0.8-0.3,1.2l0.9-0.6    c0,0,0-0.4,0.1-0.6c0.2-0.4,0.5-0.8,0.8-1.1C154.6,140.7,154.9,140.4,155.1,140z"         id="path227" /><path         class="st20"         d="M161.5,125.7c-0.4,0.4-0.6,1-0.5,1.5c0.3,0.8-0.1,1,0.5,1.7c0.4,0.4,0.6,0.8,0.7,1.3l0.9-0.4    c0,0,0.8-0.4,0.6-0.7c-0.3-0.4-0.9-1.1-0.9-1.1s-0.6,0-0.5-0.3c0.1-0.3,0.1-0.5,0-0.8L161.5,125.7z"         id="path229" /><path         class="st20"         d="M157.7,141.5l4.2,1.2l3.2,0.6v2.3l-1.6-0.8l-3-0.4c0,0-2.2,0-2.2-0.5s0.2,0.4,0-0.4S157.7,141.5,157.7,141.5    z"         id="path231" /><path         class="st20"         d="M162.3,145.6l-1.4,4.1l-3.2-3.2l-7.4,4.5c0,0-1.8,0.3-1.6,1.5c0.1,1.3,1.6,1.9,2.2,2.6    c0.5,0.6-2.3,0.1-1.2,1.9s2.4,0.6,4.1,0.5l3.1-0.3c0,0-0.9-2.7-0.3-2.2s3.6,4.4,4.9,4.7c0.8,0.2,1.6,0.2,2.4,0    c0.5-0.6,1-1.3,1.4-2c0.1-0.5,2.1-2.4,2.1-3.3c-0.3-1.7-1-3.4-2.1-4.8C164.1,148.4,163.1,147.1,162.3,145.6z"         id="path233" /><path         class="st20"         d="M174.4,156.5l0.8,1.5c0,0-0.3-0.1,0,0.8s-0.8,2.7-0.8,2.7h-1.1c0,0-2.6,1.4-2,2.2c0.5,0.8,0.4,0.9,1.2,1.3    c0.8,0.4,0.3,0.1,1.3,0c1.1-0.1,0.4-0.3,1.4-0.9c0.9-0.5,1.5-1.3,1.7-2.2c0.1-0.6,0.1-1.3,0-1.9c-0.4-1.3-1-2.4-1.8-3.5"         id="path235" /></g></g><g     id="Layer_29"     class="st1"><circle       class="st33"       cx="100.5"       cy="37.5"       r="13.8"       id="circle238" /><rect       x="90"       y="43.3"       class="st33"       width="20"       height="54.8"       id="rect240" /><ellipse       transform="matrix(0.7124 -0.7017 0.7017 0.7124 1.8833 116.2969)"       class="st33"       cx="142.8"       cy="55.9"       rx="13.8"       ry="13.8"       id="ellipse242" /><rect       x="108.9"       y="51.4"       transform="matrix(0.7017 0.7124 -0.7124 0.7017 91.5749 -61.1851)"       class="st33"       width="20"       height="54.8"       id="rect244" /><ellipse       transform="matrix(0.7112 -0.703 0.703 0.7112 -22.1289 56.2206)"       class="st33"       cx="57.4"       cy="55"       rx="13.8"       ry="13.8"       id="ellipse246" /><rect       x="70.3"       y="51.6"       transform="matrix(0.7112 -0.703 0.703 0.7112 -32.3203 79.2806)"       class="st33"       width="20"       height="54.8"       id="rect248" /><ellipse       transform="matrix(1 -1.812152e-03 1.812152e-03 1 -0.1777 7.162043e-02)"       class="st33"       cx="39.4"       cy="98.1"       rx="13.8"       ry="13.8"       id="ellipse250" /><rect       x="63.6"       y="71.1"       transform="matrix(-1.812152e-03 -1 1 -1.812152e-03 -24.7839 172.3029)"       class="st33"       width="20"       height="54.8"       id="rect252" /><circle       class="st33"       cx="160.1"       cy="98.4"       r="13.8"       id="circle254" /><rect       x="117.2"       y="71.3"       transform="matrix(-6.347695e-05 1 -1 -6.347695e-05 225.706 -28.3383)"       class="st33"       width="19.6"       height="54.8"       id="rect256" /></g><g     id="Layer_30"     class="st1"><rect       x="25.6"       y="108"       class="st2"       width="148.3"       height="67.5"       id="rect259" /></g><g     id="Layer_30_copy"     class="st1"><rect       x="24.6"       y="108"       class="st32"       width="149.7"       height="10.5"       id="rect262" /></g><g     id="Layer_32"     class="st1"><text       transform="matrix(1 0 0 1 43.564 167.5)"       class="st32 st40 st41"       id="text265">SVG</text></g><g     id="Layer_33"     class="st1"><rect       x="21.5"       y="21"       class="st42"       width="156.5"       height="156.5"       id="rect268" /></g><g     id="Layer_35"     class="st1"><path       class="st43"       d="M23,105.5L46.3,95c0,0,8.6-6.5,17.2,0l44.2,21l68.3,2.5v18H23V105.5z"       id="path271" /></g><g     id="Layer_36"     class="st1"><polyline       class="st44"       points="23,133 58.8,115.7 95.6,131.7 176.5,61 176.5,135.7 23,137 23,130.5  "       id="polyline274" /></g><g     id="Layer_37"     class="st1"><ellipse       class="st32"       cx="90"       cy="138.4"       rx="50"       ry="1.4"       id="ellipse277" /></g><g     id="Layer_37_copy"     class="st1"><ellipse       class="st32"       cx="89.6"       cy="141.1"       rx="44.7"       ry="1.4"       id="ellipse280" /></g><g     id="Layer_37_copy_2"     class="st1"><ellipse       class="st32"       cx="89.7"       cy="146"       rx="41.6"       ry="1.4"       id="ellipse283" /></g><g     id="Layer_40"     class="st1"><ellipse       class="st32"       cx="90.9"       cy="152.2"       rx="20.4"       ry="1.9"       id="ellipse286" /><ellipse       class="st32"       cx="91.5"       cy="161.8"       rx="8.2"       ry="1.8"       id="ellipse288" /></g><g     id="Layer_34"     class="st1"><circle       class="st32"       cx="94.8"       cy="58.5"       r="28.5"       id="circle291" /></g><g     id="Layer_45"     class="st1"><path       class="st45"       d="M76,176.7c0,0,10.3-17,32.3-16.3c0,0-9.2-28.3,26.9-34.3c0,0,34.4-55,41.8-6.5l0.5,57.2H76z"       id="path294" /></g><g     id="Layer_46"     class="st1"><polygon       class="st46"       points="176.5,61 125.7,105.3 95.6,131.7 124.7,110.7 113.3,125.3 161.8,82.2 156.4,96.3  "       id="polygon297" /></g><g     id="Layer_47"     class="st1"><polygon       class="st46"       points="58.7,115.7 32.5,128.5 55,120.2 50.8,124.8 58.7,120.7 61.8,126.2 61.2,120.2 69.2,125.3 67,122.1    95.6,131.7  "       id="polygon300" /></g><g     id="Layer_48"     class="st1"><path       class="st47"       d="M28.6,103L55,90.3c0,0,2.5-0.4,5,1.8l47,23.6l-29.5-12l4.3,7.3L63.7,98.3l-14.1,9.8l4-10.7L28.6,103z"       id="path303" /></g><g     id="Layer_49"     class="st1"><ellipse       class="st48"       cx="150.9"       cy="43.8"       rx="25.1"       ry="1.6"       id="ellipse306" /><ellipse       class="st48"       cx="152.2"       cy="43.6"       rx="16.2"       ry="7.1"       id="ellipse308" /><ellipse       class="st48"       cx="143.3"       cy="43.6"       rx="19"       ry="2.8"       id="ellipse310" /><ellipse       class="st48"       cx="163"       cy="39.8"       rx="11.1"       ry="5.9"       id="ellipse312" /></g><g     id="Layer_49_copy"     class="st1"><ellipse       class="st48"       cx="39.5"       cy="75"       rx="14.7"       ry="1"       id="ellipse315" /><ellipse       class="st48"       cx="42"       cy="73.6"       rx="7.6"       ry="2.8"       id="ellipse317" /><ellipse       class="st48"       cx="47.3"       cy="76.1"       rx="16.8"       ry="1.7"       id="ellipse319" /><ellipse       class="st48"       cx="51.3"       cy="72.4"       rx="6.8"       ry="3.6"       id="ellipse321" /></g><g     id="Layer_50"     class="st1"><g       id="Layer_6_1_"       class="st12"><path         id="path10"         inkscape:connector-curvature="0"         sodipodi:nodetypes="cccccsccccc"         class="st49"         d="M177.3,91.3l-9.3,16.2    l-16.8-49.9l-34,58.5L99,31.2c0,0-16.1,67.2-16.5,68.4c-0.3,1.2-16.7-51.6-16.7-51.6l-8.8,43.7l-17.4,16.9l-8.5,33.8v0.3" /></g></g><g     id="Layer_51"     class="st1"><path       class="st2"       d="M24,175.6l8.8-47.9l16.9-21.1L62,42.5l16.9,68.7L96.6,23l19,113.6L148.8,59l16.7,66.1l6.9-16l3.6,2.8   l-11.3,24.6l-16.7-63.9L114,150.7L96.6,48.6l-17.2,85.3L62.7,64.8l-8.3,44.6L37.2,131l-8.2,46L24,175.6z"       id="path327" /><path       class="st2"       d="M181,33.7"       id="path329" /></g><g     id="Layer_53"     class="st1"><circle       class="st32"       cx="96.6"       cy="27.9"       r="9.3"       id="circle332" /></g><g     id="Layer_52"     class="st1"><circle       class="st33"       cx="96.6"       cy="27.9"       r="7.5"       id="circle335" /></g><g     id="Layer_53_copy"     class="st1"><circle       class="st32"       cx="115.3"       cy="146.9"       r="9.3"       id="circle338" /><circle       class="st32"       cx="148.5"       cy="58.9"       r="9.3"       id="circle340" /><circle       class="st32"       cx="79"       cy="130.9"       r="9.3"       id="circle342" /><circle       class="st32"       cx="61.8"       cy="44.1"       r="9.3"       id="circle344" /></g><g     id="Layer_52_copy"     class="st1"><circle       class="st33"       cx="115.3"       cy="146.9"       r="7.5"       id="circle347" /><circle       class="st33"       cx="148.5"       cy="58.9"       r="7.5"       id="circle349" /><circle       class="st33"       cx="79"       cy="130.9"       r="7.5"       id="circle351" /><circle       class="st33"       cx="61.8"       cy="44.1"       r="7.5"       id="circle353" /></g><g     id="Layer_61"><path       class="st50"       d="M26.4,91.3c0,0,38.1-31.7,44-63.5c0,0,40,20.8,77.6,9.6c0,0,6.3,53.4,26.8,72.8c0,0-32.7,23.7-43.6,56.7   c0,0-47.1-18.7-74.2-9.3c0,0-6.6-37.2-30.7-64.8"       id="path356" /></g><g     id="Layer_54"><path       class="st21"       d="M50.9,168.6l-0.2-0.1c-1-0.7-1.3-2.1-0.6-3.1l46.6-68.8c0.7-1,2.1-1.3,3.1-0.6l0.2,0.1c1,0.7,1.3,2.1,0.6,3.1   L53.9,168C53.2,169,51.9,169.3,50.9,168.6z"       id="path359" /><path       class="st21"       d="M17.2,88.7l0-0.2c0.1-1.2,1.2-2.1,2.5-1.9l77.9,9.1c1.2,0.1,2.1,1.2,1.9,2.5l0,0.2c-0.1,1.2-1.2,2.1-2.5,1.9   l-77.9-9.1C18,91,17.1,89.9,17.2,88.7z"       id="path361" /><path       class="st21"       d="M67.6,18.9l0.2-0.1c1.1-0.5,2.4,0.1,2.9,1.2l30.1,75.7c0.5,1.1-0.1,2.4-1.2,2.9l-0.2,0.1   c-1.1,0.5-2.4-0.1-2.9-1.2L66.3,21.8C65.9,20.7,66.4,19.4,67.6,18.9z"       id="path363" /><path       class="st21"       d="M155.7,28.3l0.2,0.2c0.9,0.8,1.1,2.2,0.3,3.1l-53.4,66c-0.8,0.9-2.2,1.1-3.1,0.3l-0.2-0.2   c-0.9-0.8-1.1-2.2-0.3-3.1l53.4-66C153.3,27.6,154.7,27.5,155.7,28.3z"       id="path365" /><path       class="st21"       d="M184.1,111.7l0,0.2c-0.2,1.2-1.4,2-2.6,1.8l-79-13.7c-1.2-0.2-2-1.4-1.8-2.6l0-0.2c0.2-1.2,1.4-2,2.6-1.8   l79,13.7C183.5,109.3,184.3,110.5,184.1,111.7z"       id="path367" /></g><g     id="Layer_55"><path       class="st51"       d="M83.8,120.1c0,0,7.6-3,14.6-2c6.9,1,13.2,6,13.2,6"       id="path370" /><path       class="st51"       d="M70.7,94.3c0,0,7,4.4,10.3,10.6c3.3,6.2,3,14.2,3,14.2"       id="path372" /><path       class="st51"       d="M89.1,71.5c0,0-0.5,8.2-4.4,14.1c-3.9,5.9-11.1,9.4-11.1,9.4"       id="path374" /><path       class="st51"       d="M118.3,75.5c0,0-7.4,3.6-14.4,3.1c-7-0.5-13.6-5-13.6-5"       id="path376" /><path       class="st51"       d="M129.3,102.9c0,0-6.7-4.7-9.7-11.1c-3-6.3-2.2-14.4-2.2-14.4"       id="path378" /></g><g     id="Layer_56"><path       class="st51"       d="M72.9,135.3c0,0,12.3-3.6,24.1-2.6c11.4,1,22.4,6.7,22.4,6.7"       id="path381" /><path       class="st51"       d="M52.4,92.4c0,0,9.6,8.4,15.1,18.9c5.3,10.2,6.3,22.5,6.3,22.5"       id="path383" /><path       class="st51"       d="M82.1,54.5c0,0-2.8,12.5-9.5,22.2C66.1,86.2,55.8,93,55.8,93"       id="path385" /><path       class="st51"       d="M129.7,61c0,0-12.3,3.6-24.1,2.6c-11.4-1-22.4-6.6-22.4-6.6"       id="path387" /><path       class="st51"       d="M147.4,105.7c0,0-9.2-8.9-14-19.7c-4.7-10.5-5.1-22.8-5.1-22.8"       id="path389" /></g><g     id="Layer_57"><path       class="st51"       d="M57.1,157.7c0,0,20.1-3.4,38.6-0.4c18.5,3,35.5,12.4,35.5,12.4"       id="path392" /><path       class="st51"       d="M23.3,89.5c0,0,14.5,15,22.9,32.4s10.7,37.2,10.7,37.2"       id="path394" /><path       class="st51"       d="M70.4,27.8c0,0-5.9,20-16.9,35.9S26.4,91.3,26.4,91.3"       id="path396" /><path       class="st51"       d="M149.4,37.2c0,0-20.4,4.4-39.6,2.2S72.6,28.7,72.6,28.7"       id="path398" /><path       class="st51"       d="M175,110.5c0,0-12.7-16.6-19-34.9c-6.3-18.3-6.2-38.2-6.2-38.2"       id="path400" /></g><g     id="Layer_55_copy"><path       class="st51"       d="M111,122.4c0,0,0.8-7.7,4.8-12.8c4-5.1,11.1-7.6,11.1-7.6"       id="path403" /></g><g     id="Layer_56_copy"><path       class="st51"       d="M119.6,141c0,0,3.1-12.4,10-22c6.7-9.3,17.1-15.9,17.1-15.9"       id="path406" /></g><g     id="Layer_57_copy"><path       class="st51"       d="M131.3,169.2c0,0,6.1-19.1,17.2-33.8s27.1-25.1,27.1-25.1"       id="path409" /></g><g     id="Layer_60"><path       class="st21"       d="M135.8,178L135.8,178c-1.2,0.5-2.6,0-3.1-1.2L98,100.3c-0.5-1.2,0-2.6,1.2-3.1l0,0c1.2-0.5,2.6,0,3.1,1.2   l34.7,76.5C137.5,176.1,137,177.5,135.8,178z"       id="path412" /></g><g     id="Layer_62"><circle       class="st52"       cx="99.5"       cy="98.9"       r="12.6"       id="circle415" /></g><g     id="Layer_62_copy"><circle       class="st25"       cx="99.5"       cy="98.9"       r="10.1"       id="circle418" /></g></svg>