<?xml version="1.0" encoding="UTF-8"?>
<svg xmlns="http://www.w3.org/2000/svg" version="1.1" viewBox="0 0 50 50">
  <defs>
    <style>
      .cls-1 {
        fill: #fff;
      }

      .cls-1, .cls-2, .cls-3 {
        stroke: #7c4dff;
      }

      .cls-2 {
        stroke-linecap: round;
      }

      .cls-2, .cls-4, .cls-3, .cls-5 {
        fill: none;
      }

      .cls-3 {
        stroke-miterlimit: 10;
      }

      .cls-6 {
        fill: #fef8b7;
      }

      .cls-7 {
        fill: #fae872;
      }

      .cls-5 {
        stroke: #d3d3d3;
      }
    </style>
  </defs>
  <!-- Generator: Adobe Illustrator 28.7.6, SVG Export Plug-In . SVG Version: 1.2.0 Build 188)  -->
  <g>
    <g id="Layer_1">
      <g id="Layer_1-2" data-name="Layer_1">
        <g id="Rectangle_172">
          <rect class="cls-4" width="50" height="50" rx="6" ry="6"/>
          <rect class="cls-5" x=".5" y=".5" width="49" height="49" rx="5.5" ry="5.5"/>
        </g>
        <path id="path356" class="cls-7" d="M8.5,23.5s9-7.5,10.4-15c0,0,9.4,4.9,18.3,2.3,0,0,1.5,12.6,6.3,17.1,0,0-7.7,5.6-10.3,13.4,0,0-11.1-4.4-17.5-2.2,0,0-1.6-8.8-7.2-15.3"/>
        <path id="path370" class="cls-3" d="M22,30.1c1.1-.4,2.3-.6,3.4-.5,1.1.2,2.2.7,3.1,1.4"/>
        <path id="path372" class="cls-3" d="M18.9,24c1,.6,1.8,1.5,2.4,2.5.5,1,.7,2.2.7,3.3"/>
        <path id="path374" class="cls-3" d="M23.3,18.7c0,1.2-.4,2.3-1,3.3-.7.9-1.6,1.7-2.6,2.2"/>
        <path id="path376" class="cls-3" d="M30.2,19.6c-1.1.5-2.2.7-3.4.7-1.1-.1-2.2-.5-3.2-1.2"/>
        <path id="path378" class="cls-3" d="M32.7,26.1c-.9-.7-1.7-1.6-2.3-2.6-.4-1.1-.6-2.2-.5-3.4"/>
        <path id="path381" class="cls-3" d="M19.5,33.7c1.8-.5,3.8-.7,5.7-.6,1.8.2,3.6.8,5.3,1.6"/>
        <path id="path383" class="cls-3" d="M14.6,23.6c1.4,1.3,2.6,2.8,3.6,4.4.8,1.7,1.3,3.5,1.5,5.3"/>
        <path id="path385" class="cls-3" d="M21.6,14.7c-.4,1.9-1.2,3.6-2.2,5.2-1.1,1.5-2.4,2.8-4,3.8"/>
        <path id="path387" class="cls-3" d="M32.8,16.2c-1.8.5-3.8.7-5.7.6-1.8-.2-3.6-.7-5.3-1.6"/>
        <path id="path389" class="cls-3" d="M37,26.7c-1.4-1.4-2.5-2.9-3.3-4.6-.7-1.7-1.1-3.5-1.2-5.4"/>
        <path id="path392" class="cls-3" d="M15.7,39c3-.5,6.1-.5,9.1,0,2.9.5,5.7,1.5,8.4,2.9"/>
        <path id="path394" class="cls-3" d="M7.8,22.9c2.1,2.3,4,4.8,5.4,7.6,1.3,2.8,2.1,5.7,2.5,8.8"/>
        <path id="path396" class="cls-3" d="M18.9,8.4c-.9,3-2.3,5.8-4,8.5-1.8,2.5-3.9,4.7-6.4,6.5"/>
        <path id="path398" class="cls-3" d="M37.5,10.6c-3.1.6-6.2.8-9.3.5-3-.4-6-1.3-8.8-2.5"/>
        <path id="path400" class="cls-3" d="M43.5,27.8c-1.9-2.5-3.4-5.3-4.5-8.2-.9-2.9-1.4-5.9-1.5-9"/>
        <path id="path403" class="cls-3" d="M28.4,30.6c.1-1.1.5-2.1,1.1-3,.7-.8,1.6-1.4,2.6-1.8"/>
        <path id="path406" class="cls-3" d="M30.5,35c.5-1.8,1.3-3.6,2.4-5.2,1.1-1.5,2.5-2.7,4-3.7"/>
        <path id="path409" class="cls-3" d="M33.2,41.7c1-2.8,2.3-5.5,4.1-8,1.8-2.3,4-4.3,6.4-5.9"/>
        <line id="Line_925" class="cls-2" x1="19.2" y1="8.8" x2="33.2" y2="41.8"/>
        <line id="Line_926" class="cls-2" x1="37.5" y1="10.5" x2="15.5" y2="39.5"/>
        <line id="Line_927" class="cls-2" x1="7.5" y1="23.5" x2="44.5" y2="27.5"/>
        <circle id="circle415" class="cls-1" cx="26.2" cy="25.3" r="3"/>
        <circle id="circle418" class="cls-6" cx="26.2" cy="25.3" r="2.4"/>
      </g>
    </g>
  </g>
</svg>