<svg xmlns="http://www.w3.org/2000/svg" width="50" height="50" viewBox="0 0 50 50">
  <g id="Group_249" data-name="Group 249" transform="translate(-1078 -572)">
    <g id="Rectangle_172" data-name="Rectangle 172" transform="translate(1078 572)" fill="#fff" stroke="#ececec" stroke-width="1">
      <rect width="50" height="50" rx="6" stroke="none"/>
      <rect x="0.5" y="0.5" width="49" height="49" rx="5.5" fill="none"/>
    </g>
    <g id="Layer_51" transform="translate(1089.046 582.653)">
      <path id="path327" d="M35.477,51.828l-.065-.129,3.182-4.611L40.91,33.079l3.182,15.014,3.333-19.276L51,53.644l6.252-16.959L60.4,51.131l1.3-3.5.678.612L60.25,53.622,57.105,39.657,50.7,56.726,47.426,34.412,44.187,53.054l-3.145-15.1L39.479,47.7,36.24,52.42l.061-.063Z" transform="translate(-35.412 -28.818)" fill="#0d78bf" stroke="#0d78bf" stroke-width="0.5"/>
      <path id="path329" d="M195.411,42.224" transform="translate(-167.503 -39.886)" fill="#0d78bf" stroke="#0d78bf" stroke-width="0.5"/>
    </g>
    <g id="Layer_52" transform="translate(1098.599 582.287)">
      <circle id="circle335" cx="2.201" cy="2.201" r="2.201" fill="#00a0f0"/>
    </g>
    <g id="Layer_52-2" data-name="Layer_52" transform="translate(1103 607.073)">
      <circle id="circle335-2" data-name="circle335" cx="2.295" cy="2.295" r="2.295" fill="#00a0f0"/>
    </g>
  </g>
</svg>
