<?xml version="1.0" encoding="UTF-8"?>
<svg xmlns="http://www.w3.org/2000/svg" version="1.1" viewBox="0 0 50 50">
  <defs>
    <style>
      .cls-1, .cls-2 {
        fill: #fff;
      }

      .cls-3 {
        stroke: #ececec;
      }

      .cls-3, .cls-4 {
        fill: none;
      }

      .cls-5 {
        fill: #ffaf6d;
      }

      .cls-6, .cls-2 {
        isolation: isolate;
      }

      .cls-7 {
        fill: #7c4dff;
      }

      .cls-2 {
        font-family: MicrosoftYaHeiUI-Bold, 'Microsoft YaHei UI';
        font-size: 9px;
        font-weight: 700;
      }
    </style>
  </defs>
  <!-- Generator: Adobe Illustrator 28.7.6, SVG Export Plug-In . SVG Version: 1.2.0 Build 188)  -->
  <g>
    <g id="Layer_1">
      <g id="Group_3120">
        <g id="Rectangle_172">
          <rect class="cls-4" width="50" height="50" rx="6" ry="6"/>
          <rect class="cls-3" x=".5" y=".5" width="49" height="49" rx="5.5" ry="5.5"/>
        </g>
        <path id="Union_8" class="cls-5" d="M34.9,25.7H14.5c-.5.4-1.1.7-1.8.7h0c-1.5,0-2.8-1.2-2.8-2.7,0-.7.3-1.4.8-1.9.5-.5,1.2-.8,1.9-.8.8,0,1.5.3,2,.9h5.2s-3.9-4-3.9-4c-.6,0-1.3-.3-1.7-.8-1.1-1.1-1.1-2.8,0-3.9h0c.5-.5,1.2-.8,2-.8.7,0,1.4.3,1.9.8.5.5.8,1.3.8,2l3.8,3.8v-5.6c-.4-.5-.7-1.1-.7-1.8,0-1.5,1.2-2.8,2.7-2.8,1.5,0,2.8,1.2,2.8,2.8,0,.8-.3,1.5-.9,2v5.2l3.8-3.8c0-.7.3-1.3.8-1.7.5-.5,1.2-.8,2-.8.7,0,1.4.3,1.9.8,1.1,1.1,1.1,2.8,0,3.9,0,0,0,0,0,0-.5.5-1.3.8-2,.8l-3.9,3.8h5.4c.5-.5,1.2-.8,2-.8,1.5,0,2.8,1.2,2.8,2.8s-1.2,2.8-2.8,2.8c-.7,0-1.4-.3-1.9-.7h0Z"/>
        <g id="Layer_30">
          <rect id="rect259" class="cls-7" x="9.9" y="25.6" width="29.6" height="13.5"/>
        </g>
        <g id="Layer_30_copy">
          <rect id="rect262" class="cls-1" x="9.7" y="25.6" width="29.9" height="2.1"/>
        </g>
        <g id="Layer_32">
          <g id="text265" class="cls-6">
            <text class="cls-2" transform="translate(15.2 36.7)"><tspan x="0" y="0">SVG</tspan></text>
          </g>
        </g>
      </g>
    </g>
  </g>
</svg>