<?xml version="1.0" encoding="utf-8"?><!-- Generator: Adobe Illustrator 21.1.0, SVG Export Plug-In . SVG Version: 6.00 Build 0)  --><svg version="1.1" xmlns="http://www.w3.org/2000/svg" xmlns:xlink="http://www.w3.org/1999/xlink" x="0px" y="0px"	 viewBox="0 0 200 200" style="enable-background:new 0 0 200 200;" xml:space="preserve"><style type="text/css">	.st0{fill:none;stroke:#B3B4B4;stroke-width:2;stroke-miterlimit:10;}	.st1{fill:#F7941D;}	.st2{fill:#026685;}	.st3{fill:#9A9B9B;}	.st4{fill:#FFFFFF;}	.st5{fill:#5E5F5F;}	.st6{fill:#8ED7F1;}</style><g id="Layer_1"></g><g id="Layer_5">	<rect class="st0" width="200" height="200"/></g><g id="Layer_3_copy_5">	<path class="st1" d="M80.1,89.1L80,89.2c-1.9,2-4.7,1.9-6.5-0.3l-45-57.6c-1.7-2.2-1.6-5.6,0.2-7.7l0.1-0.1c1.9-2,4.7-1.9,6.5,0.3		l45,57.6C82.1,83.6,82,87,80.1,89.1z"/></g><g id="Layer_3_copy_6">	<path class="st1" d="M74.4,90.3l-0.2-0.1c-2.2-1.6-2.6-4.3-0.8-6.1l47.1-45.8c1.8-1.8,5.1-1.9,7.3-0.2l0.2,0.1		c2.2,1.6,2.6,4.3,0.8,6.1L81.7,90C79.9,91.8,76.6,91.9,74.4,90.3z"/></g><g id="Layer_3_copy_4">	<path class="st1" d="M121.4,37.2L121.4,37.2c1.9-2.1,4.4-2.5,5.5-1l31.1,41.6c1.1,1.5,0.5,4.4-1.4,6.5l0,0c-1.9,2.1-4.4,2.5-5.5,1		L120,43.7C118.9,42.2,119.5,39.3,121.4,37.2z"/></g><g id="Layer_3_copy_7">	<path class="st2" d="M112.8,107.1l-0.2-0.3c-1.7-2.2-1.6-5.5,0.2-7.6l56.4-62.3c1.8-2,4.7-1.9,6.4,0.3l0.2,0.3		c1.7,2.2,1.6,5.5-0.2,7.6l-56.4,62.3C117.4,109.4,114.5,109.3,112.8,107.1z"/></g><g id="Layer_3_copy">	<path class="st2" d="M77.5,50.5l0.3-0.3c1.9-1.9,4.7-1.7,6.3,0.5l35.7,48.9c1.6,2.2,1.4,5.6-0.5,7.5l-0.3,0.3		c-1.9,1.9-4.7,1.7-6.3-0.5L77,58C75.4,55.8,75.6,52.4,77.5,50.5z"/></g><g id="Layer_3">	<path class="st2" d="M24.7,114.2l-0.1-0.1c-1.7-2.2-1.6-5.7,0.2-7.7L76.7,49c1.9-2.1,4.8-1.9,6.5,0.3l0.1,0.1		c1.7,2.2,1.6,5.7-0.2,7.7l-51.9,57.4C29.3,116.5,26.4,116.4,24.7,114.2z"/></g><g id="Layer_10">	<path class="st3" d="M169,165.3H28.8c-4.1,0-7.5-3.4-7.5-7.5v-1.7c0-4.1,3.4-7.5,7.5-7.5H169c4.1,0,7.5,3.4,7.5,7.5v1.7		C176.5,162,173.1,165.3,169,165.3z"/></g><g id="Layer_11">	<path class="st4" d="M141.2,186.7H110c-5,0-9-4-9-9v-41c0-5,4-9,9-9h31.2c5,0,9,4,9,9v41C150.2,182.6,146.1,186.7,141.2,186.7z"/></g><g id="Layer_11_copy">	<path class="st5" d="M136,181.7h-20.7c-5,0-9-4-9-9v-32c0-5,4-9,9-9H136c5,0,9,4,9,9v32C145,177.6,141,181.7,136,181.7z"/></g><g id="Layer_13">	<path class="st6" d="M134.3,147.2h-17.2c-1.6,0-2.8-1.3-2.8-2.8v-2c0-1.6,1.3-2.8,2.8-2.8h17.2c1.6,0,2.8,1.3,2.8,2.8v2		C137.1,145.9,135.9,147.2,134.3,147.2z"/></g><g id="Layer_13_copy">	<path class="st6" d="M134.3,160.6h-17.2c-1.6,0-2.8-1.3-2.8-2.8v-2c0-1.6,1.3-2.8,2.8-2.8h17.2c1.6,0,2.8,1.3,2.8,2.8v2		C137.1,159.4,135.9,160.6,134.3,160.6z"/></g><g id="Layer_13_copy_2">	<path class="st6" d="M134.3,174.1h-17.2c-1.6,0-2.8-1.3-2.8-2.8v-2c0-1.6,1.3-2.8,2.8-2.8h17.2c1.6,0,2.8,1.3,2.8,2.8v2		C137.1,172.9,135.9,174.1,134.3,174.1z"/></g></svg>