<?xml version="1.0" encoding="UTF-8"?>
<svg xmlns="http://www.w3.org/2000/svg" version="1.1" viewBox="0 0 50 50">
  <defs>
    <style>
      .cls-1 {
        fill: #fff;
      }

      .cls-2, .cls-3, .cls-4, .cls-5 {
        fill: none;
      }

      .cls-6 {
        fill: #7c4dff;
      }

      .cls-3 {
        stroke: #d3d3d3;
      }

      .cls-4 {
        stroke: #fae872;
      }

      .cls-4, .cls-5 {
        stroke-linecap: round;
        stroke-width: 2.2px;
      }

      .cls-5 {
        stroke: #ffaf6d;
      }
    </style>
  </defs>
  <!-- Generator: Adobe Illustrator 28.7.6, SVG Export Plug-In . SVG Version: 1.2.0 Build 188)  -->
  <g>
    <g id="Layer_1">
      <g id="Layer_1-2" data-name="Layer_1">
        <g id="Group_3123">
          <g id="Rectangle_172">
            <rect class="cls-2" width="50" height="50" rx="6" ry="6"/>
            <rect class="cls-3" x=".5" y=".5" width="49" height="49" rx="5.5" ry="5.5"/>
          </g>
          <g id="Layer_10">
            <path id="Path_126" class="cls-6" d="M37.8,38.3H10.6c-.8,0-1.4-.7-1.5-1.5v-.3c0-.8.7-1.4,1.5-1.5h27.2c.8,0,1.4.7,1.5,1.5v.3c0,.8-.6,1.5-1.5,1.5h0Z"/>
          </g>
          <path id="Path_127" class="cls-1" d="M32.1,42.4h-5.9c-.9,0-1.7-.8-1.7-1.7h0v-8c0-1,.7-1.7,1.7-1.7h5.9c.9,0,1.7.8,1.7,1.7h0v8c0,1-.8,1.7-1.7,1.7Z"/>
          <g id="Layer_11_copy">
            <path id="Path_128" class="cls-6" d="M31.4,41.5h-4c-1,0-1.7-.8-1.7-1.7h0v-6.2c0-1,.8-1.7,1.7-1.7h4c1,0,1.7.8,1.7,1.7h0v6.2c0,1-.8,1.7-1.7,1.7Z"/>
          </g>
          <path id="Path_132" class="cls-5" d="M9.5,28.7l11-12.6,7.1,10.2,11.2-12.5"/>
          <path id="Path_133" class="cls-4" d="M38.2,24.5c-1.7-2.2-9.2-11.1-9.2-11.1l-8.9,9.8-9-12.1"/>
        </g>
      </g>
    </g>
  </g>
</svg>