<?xml version="1.0" encoding="UTF-8"?>
<svg xmlns="http://www.w3.org/2000/svg" version="1.1" viewBox="0 0 50 50">
  <defs>
    <style>
      .cls-1 {
        stroke: #ffaf6d;
        stroke-width: .2px;
      }

      .cls-1, .cls-2, .cls-3 {
        fill: none;
      }

      .cls-1, .cls-4 {
        stroke-miterlimit: 10;
      }

      .cls-5 {
        fill: #ffaf6d;
      }

      .cls-6 {
        fill: #7c4dff;
      }

      .cls-3, .cls-4 {
        stroke: #d3d3d3;
      }

      .cls-4 {
        fill: #fff;
        stroke-width: .5px;
      }
    </style>
  </defs>
  <!-- Generator: Adobe Illustrator 28.7.6, SVG Export Plug-In . SVG Version: 1.2.0 Build 188)  -->
  <g>
    <g id="Layer_1">
      <g id="Group_3125">
        <g id="Rectangle_302">
          <rect class="cls-2" width="50" height="50" rx="6" ry="6"/>
          <rect class="cls-3" x=".5" y=".5" width="49" height="49" rx="5.5" ry="5.5"/>
        </g>
        <rect id="Rectangle_313" class="cls-4" x="20.7" y="9.3" height="33.5"/>
        <rect id="Rectangle_314" class="cls-6" x="9.9" y="15.1" width=".9" height="23.6"/>
        <rect id="Rectangle_315" class="cls-6" x="9.9" y="38.3" width="3.3" height="1"/>
        <rect id="Rectangle_316" class="cls-6" x="9.9" y="31.7" width="3.3" height=".9"/>
        <rect id="Rectangle_317" class="cls-6" x="8.4" y="11.4" width="4.1" height="4.1"/>
        <rect id="Rectangle_318" class="cls-6" x="14" y="30.1" width="4.1" height="4.1"/>
        <rect id="Rectangle_319" class="cls-6" x="14" y="36.7" width="4.1" height="4.1"/>
        <rect id="Rectangle_320" class="cls-1" x="25.2" y="11.4" width="7.6" height="7.6"/>
        <rect id="Rectangle_321" class="cls-5" x="26.6" y="15" width="1.2" height="2.8"/>
        <rect id="Rectangle_322" class="cls-5" x="28.4" y="12.7" width="1.2" height="5.1"/>
        <rect id="Rectangle_323" class="cls-5" x="30.2" y="14.2" width="1.2" height="3.7"/>
        <rect id="Rectangle_324" class="cls-1" x="34" y="11.4" width="7.6" height="7.6"/>
        <rect id="Rectangle_325" class="cls-5" x="35.4" y="15" width="1.2" height="2.8"/>
        <rect id="Rectangle_326" class="cls-5" x="37.2" y="12.7" width="1.2" height="5.1"/>
        <rect id="Rectangle_327" class="cls-5" x="39" y="14.1" width="1.2" height="3.7"/>
        <rect id="Rectangle_328" class="cls-1" x="25.2" y="22.1" width="7.6" height="7.6"/>
        <rect id="Rectangle_329" class="cls-5" x="26.6" y="25.8" width="1.2" height="2.8"/>
        <rect id="Rectangle_330" class="cls-5" x="28.4" y="23.4" width="1.2" height="5.1"/>
        <rect id="Rectangle_331" class="cls-5" x="30.2" y="24.9" width="1.2" height="3.7"/>
        <rect id="Rectangle_332" class="cls-1" x="34" y="22.1" width="7.6" height="7.6"/>
        <rect id="Rectangle_333" class="cls-5" x="35.4" y="25.7" width="1.2" height="2.8"/>
        <rect id="Rectangle_334" class="cls-5" x="37.2" y="23.4" width="1.2" height="5.1"/>
        <rect id="Rectangle_335" class="cls-5" x="39" y="24.9" width="1.2" height="3.7"/>
        <rect id="Rectangle_336" class="cls-1" x="25.2" y="32.6" width="7.6" height="7.6"/>
        <rect id="Rectangle_337" class="cls-5" x="26.6" y="36.3" width="1.2" height="2.8"/>
        <rect id="Rectangle_338" class="cls-5" x="28.4" y="33.9" width="1.2" height="5.1"/>
        <rect id="Rectangle_339" class="cls-5" x="30.2" y="35.4" width="1.2" height="3.7"/>
        <rect id="Rectangle_340" class="cls-1" x="34" y="32.6" width="7.6" height="7.6"/>
        <rect id="Rectangle_341" class="cls-5" x="35.4" y="36.3" width="1.2" height="2.8"/>
        <rect id="Rectangle_342" class="cls-5" x="37.2" y="33.9" width="1.2" height="5.1"/>
        <rect id="Rectangle_343" class="cls-5" x="39" y="35.4" width="1.2" height="3.7"/>
      </g>
    </g>
  </g>
</svg>