<?xml version="1.0" encoding="utf-8"?>
<!-- Generator: Adobe Illustrator 21.1.0, SVG Export Plug-In . SVG Version: 6.00 Build 0)  -->
<svg version="1.1" xmlns="http://www.w3.org/2000/svg" xmlns:xlink="http://www.w3.org/1999/xlink" x="0px" y="0px"
	 viewBox="0 0 200 200" style="enable-background:new 0 0 200 200;" xml:space="preserve">
<style type="text/css">
	.st0{fill:none;stroke:#B3B3B3;stroke-width:2;stroke-miterlimit:10;}
	.st1{fill:#FFFFFF;stroke:#5C5C5C;stroke-width:7;stroke-miterlimit:10;}
	.st2{fill:#444545;}
	.st3{fill:#F7941D;}
	.st4{fill:none;stroke:#606161;stroke-width:3;stroke-miterlimit:10;}
	.st5{fill:#026685;}
</style>
<g id="Layer_1">
</g>
<g id="Layer_9">
	<rect class="st0" width="200" height="200"/>
</g>
<g id="Layer_3">
	<rect x="25" y="23" class="st1" width="152.8" height="152.8"/>
</g>
<g id="Layer_4">
	<rect x="84" y="23" transform="matrix(-1 -1.224647e-16 1.224647e-16 -1 167.99 198.75)" class="st1" width="0" height="152.8"/>
</g>
<g id="Layer_8">
	<rect x="41.3" y="49.7" class="st2" width="4.3" height="108"/>
</g>
<g id="Layer_10">
	<rect x="41.3" y="155.3" class="st2" width="15" height="4.4"/>
</g>
<g id="Layer_10_copy">
	<rect x="41.3" y="125.5" class="st2" width="15" height="4.2"/>
</g>
<g id="Layer_5">
	<rect x="34.3" y="32.7" class="st3" width="18.7" height="18.7"/>
</g>
<g id="Layer_5_copy">
	<rect x="56.3" y="118" class="st3" width="18.7" height="18.7"/>
</g>
<g id="Layer_5_copy_2">
	<rect x="56.3" y="148.3" class="st3" width="18.7" height="18.7"/>
</g>
<g id="Layer_19">
	<g id="Layer_11">
		<rect x="93.5" y="32.7" class="st4" width="34.7" height="34.7"/>
	</g>
	<g id="Layer_12">
		<rect x="100" y="49.3" class="st5" width="5.5" height="12.8"/>
	</g>
	<g id="Layer_12_copy">
		<rect x="108.1" y="38.6" class="st5" width="5.5" height="23.4"/>
	</g>
	<g id="Layer_12_copy_2">
		<rect x="116.3" y="45.3" class="st5" width="5.5" height="16.8"/>
	</g>
	<g id="Layer_11_copy">
		<rect x="133.8" y="32.6" class="st4" width="34.7" height="34.7"/>
	</g>
	<g id="Layer_12_copy_5">
		<rect x="140.3" y="49.2" class="st5" width="5.5" height="12.8"/>
	</g>
	<g id="Layer_12_copy_4">
		<rect x="148.4" y="38.6" class="st5" width="5.5" height="23.4"/>
	</g>
	<g id="Layer_12_copy_3">
		<rect x="156.6" y="45.2" class="st5" width="5.5" height="16.8"/>
	</g>
</g>
<g id="Layer_19_copy">
	<g id="Layer_11_copy_2_1_">
		<rect x="93.5" y="81.7" class="st4" width="34.7" height="34.7"/>
	</g>
	<g id="Layer_12_copy_6_5_">
		<rect x="100" y="98.3" class="st5" width="5.5" height="12.8"/>
	</g>
	<g id="Layer_12_copy_6_4_">
		<rect x="108.1" y="87.6" class="st5" width="5.5" height="23.4"/>
	</g>
	<g id="Layer_12_copy_6_3_">
		<rect x="116.3" y="94.3" class="st5" width="5.5" height="16.8"/>
	</g>
	<g id="Layer_11_copy_2">
		<rect x="133.8" y="81.6" class="st4" width="34.7" height="34.7"/>
	</g>
	<g id="Layer_12_copy_6_2_">
		<rect x="140.3" y="98.2" class="st5" width="5.5" height="12.8"/>
	</g>
	<g id="Layer_12_copy_6_1_">
		<rect x="148.4" y="87.6" class="st5" width="5.5" height="23.4"/>
	</g>
	<g id="Layer_12_copy_6">
		<rect x="156.6" y="94.2" class="st5" width="5.5" height="16.8"/>
	</g>
</g>
<g id="Layer_19_copy_2">
	<g id="Layer_11_copy_3_1_">
		<rect x="93.5" y="129.7" class="st4" width="34.7" height="34.7"/>
	</g>
	<g id="Layer_12_copy_7_5_">
		<rect x="100" y="146.3" class="st5" width="5.5" height="12.8"/>
	</g>
	<g id="Layer_12_copy_7_4_">
		<rect x="108.1" y="135.6" class="st5" width="5.5" height="23.4"/>
	</g>
	<g id="Layer_12_copy_7_3_">
		<rect x="116.3" y="142.3" class="st5" width="5.5" height="16.8"/>
	</g>
	<g id="Layer_11_copy_3">
		<rect x="133.8" y="129.6" class="st4" width="34.7" height="34.7"/>
	</g>
	<g id="Layer_12_copy_7_2_">
		<rect x="140.3" y="146.2" class="st5" width="5.5" height="12.8"/>
	</g>
	<g id="Layer_12_copy_7_1_">
		<rect x="148.4" y="135.6" class="st5" width="5.5" height="23.4"/>
	</g>
	<g id="Layer_12_copy_7">
		<rect x="156.6" y="142.2" class="st5" width="5.5" height="16.8"/>
	</g>
</g>
</svg>
