<?xml version="1.0" encoding="UTF-8"?>
<svg xmlns="http://www.w3.org/2000/svg" version="1.1" viewBox="0 0 50 50">
  <defs>
    <style>
      .cls-1, .cls-2 {
        stroke: #7c4dff;
        stroke-miterlimit: 10;
      }

      .cls-3, .cls-2, .cls-4 {
        fill: none;
      }

      .cls-5 {
        fill: #ffaf6d;
      }

      .cls-4 {
        stroke: #d3d3d3;
      }
    </style>
  </defs>
  <!-- Generator: Adobe Illustrator 28.7.6, SVG Export Plug-In . SVG Version: 1.2.0 Build 188)  -->
  <g>
    <g id="Layer_1">
      <g id="Group_3127">
        <g id="Rectangle_206">
          <rect class="cls-3" width="50" height="50" rx="6" ry="6"/>
          <rect class="cls-4" x=".5" y=".5" width="49" height="49" rx="5.5" ry="5.5"/>
        </g>
        <g id="Group_188">
          <g id="Layer_4">
            <circle id="Ellipse_51" class="cls-2" cx="25" cy="20.8" r="9.2"/>
          </g>
          <g id="Layer_5">
            <path id="Path_285" class="cls-1" d="M25,29.8V12"/>
          </g>
          <g id="Layer_6">
            <path id="Path_286" class="cls-2" d="M24.2,11.6c-5,4.3-5,12.4,0,18.2"/>
          </g>
          <g id="Layer_6_copy_2">
            <path id="Path_287" class="cls-2" d="M25.8,11.5c5,4.2,5,12.5,0,18.4"/>
          </g>
          <g id="Layer_7">
            <line id="Line_27" class="cls-2" x1="15.9" y1="20.6" x2="34" y2="20.6"/>
          </g>
          <g id="Layer_7_copy">
            <line id="Line_28" class="cls-2" x1="17.3" y1="15.5" x2="32.5" y2="15.5"/>
          </g>
        </g>
        <g id="Group_189">
          <path id="Path_292" class="cls-5" d="M15.7,33.5h1.4v3.9c0,.4,0,.8,0,1.2,0,.3.2.5.4.7.3.2.6.3,1,.3.3,0,.7,0,.9-.3.2-.2.3-.4.4-.6,0-.4,0-.8,0-1.2v-4h1.4v3.8c0,.6,0,1.2-.1,1.8,0,.3-.2.6-.4.9-.2.3-.5.5-.8.6-.4.2-.9.2-1.4.2-.5,0-1.1,0-1.6-.2-.3-.1-.6-.3-.8-.6-.2-.2-.3-.5-.4-.8-.1-.6-.2-1.2-.1-1.8v-3.8Z"/>
          <path id="Path_293" class="cls-5" d="M23,40.6v-7.1h3c.6,0,1.1,0,1.7.2.3.1.6.4.8.7.2.3.3.7.3,1.1,0,.5-.2,1-.5,1.3-.4.4-.9.6-1.4.7.3.2.5.4.8.6.3.4.6.8.8,1.2l.9,1.4h-1.7l-1-1.6c-.2-.4-.5-.7-.8-1-.1-.1-.3-.2-.4-.3-.2,0-.5,0-.7,0h-.3v3h-1.4ZM24.4,36.5h1.1c.4,0,.9,0,1.3,0,.2,0,.3-.2.4-.3.1-.2.2-.3.1-.5,0-.2,0-.4-.2-.6-.1-.2-.3-.3-.5-.3-.1,0-.5,0-1.1,0h-1.1v1.8Z"/>
          <path id="Path_294" class="cls-5" d="M30.2,40.6v-7.1h1.4v5.9h3.6v1.2h-5Z"/>
        </g>
        <line class="cls-2" x1="16.9" y1="25.3" x2="33" y2="25.3"/>
      </g>
    </g>
  </g>
</svg>