<?xml version="1.0" encoding="UTF-8"?>
<svg xmlns="http://www.w3.org/2000/svg" version="1.1" viewBox="0 0 50 50">
  <defs>
    <style>
      .cls-1, .cls-2 {
        fill: none;
      }

      .cls-3 {
        fill: #ffaf6d;
      }

      .cls-4 {
        fill: #7c4dff;
      }

      .cls-2 {
        stroke: #d3d3d3;
      }
    </style>
  </defs>
  <!-- Generator: Adobe Illustrator 28.7.6, SVG Export Plug-In . SVG Version: 1.2.0 Build 188)  -->
  <g>
    <g id="Layer_1">
      <g id="Group_3128">
        <g id="Rectangle_302">
          <rect class="cls-1" width="50" height="50" rx="6" ry="6"/>
          <rect class="cls-2" x=".5" y=".5" width="49" height="49" rx="5.5" ry="5.5"/>
        </g>
        <g id="Layer_3">
          <rect id="Rectangle_399" class="cls-4" x="10.4" y="31.4" width="3.1" height="7"/>
        </g>
        <g id="Layer_3_copy">
          <rect id="Rectangle_400" class="cls-4" x="10.4" y="11.6" width="3.1" height="7"/>
        </g>
        <g id="Layer_6">
          <path id="Path_288" class="cls-4" d="M16.3,20.8v8.5c0,.4-.3.7-.8.8h-6c-.4,0-.7-.3-.8-.8v-8.5c0-.4.3-.7.8-.8h6c.4,0,.7.4.7.8Z"/>
          <path id="Path_289" class="cls-4" d="M15.8,29.9v-9.8l4.8,4.9"/>
        </g>
        <g id="Layer_7_copy_2">
          <rect id="Rectangle_401" class="cls-3" x="22.1" y="35.8" width="19" height="2.5"/>
        </g>
        <g id="Layer_7_copy_3">
          <rect id="Rectangle_402" class="cls-3" x="22.1" y="23.8" width="19" height="2.5"/>
        </g>
        <g id="Layer_7_copy_4">
          <rect id="Rectangle_403" class="cls-3" x="22.1" y="11.6" width="19" height="2.5"/>
        </g>
        <g id="Layer_7_copy_5">
          <rect id="Rectangle_404" class="cls-3" x="34.6" y="17.7" width="6.5" height="2.5"/>
        </g>
        <g id="Layer_7_copy_6">
          <rect id="Rectangle_405" class="cls-3" x="34.6" y="29.8" width="6.5" height="2.5"/>
        </g>
      </g>
    </g>
  </g>
</svg>