<?xml version="1.0" encoding="utf-8"?><!-- Generator: Adobe Illustrator 21.1.0, SVG Export Plug-In . SVG Version: 6.00 Build 0)  --><svg version="1.1" id="Layer_1" xmlns="http://www.w3.org/2000/svg" xmlns:xlink="http://www.w3.org/1999/xlink" x="0px" y="0px"	 viewBox="0 0 200 200" style="enable-background:new 0 0 200 200;" xml:space="preserve"><style type="text/css">	.st0{display:none;}	.st1{fill:none;stroke:#B3B4B4;stroke-width:2;stroke-miterlimit:10;}	.st2{fill:#848484;}	.st3{fill:#026685;}	.st4{fill:#F7941D;}</style><g id="Layer_1_1_" class="st0"></g><g id="Layer_5">	<rect class="st1" width="200" height="200"/></g><g id="Layer_3">	<rect x="32.2" y="137.8" class="st2" width="18" height="41"/></g><g id="Layer_3_copy">	<rect x="32.2" y="21.3" class="st2" width="18" height="41"/></g><g id="Layer_6">	<path class="st3" d="M66.7,75.2v49.7c0,2.4-2,4.4-4.4,4.4H27.1c-2.4,0-4.4-2-4.4-4.4V75.1c0-2.4,2-4.4,4.4-4.4h35.3		C64.8,70.8,66.7,72.8,66.7,75.2z"/>	<polyline class="st3" points="63.8,128.6 63.8,71.4 91.7,100 	"/></g><g id="Layer_7_copy_2">	<rect x="100.7" y="163.3" class="st4" width="76.5" height="14.5"/></g><g id="Layer_7_copy_3">	<rect x="100.7" y="92.8" class="st4" width="76.5" height="14.5"/></g><g id="Layer_7_copy_4">	<rect x="100.7" y="21.3" class="st4" width="76.5" height="14.5"/></g><g id="Layer_7_copy_5">	<rect x="139" y="57" class="st4" width="38.3" height="14.5"/></g><g id="Layer_7_copy_6">	<rect x="139.5" y="128" class="st4" width="38.3" height="14.5"/></g></svg>