<?xml version="1.0" encoding="UTF-8"?>
<svg xmlns="http://www.w3.org/2000/svg" version="1.1" viewBox="0 0 50 50">
  <defs>
    <style>
      .cls-1 {
        fill: #b44a26;
      }

      .cls-2 {
        font-family: Tahoma-Bold, Tahoma;
        font-size: 7px;
        font-weight: 700;
      }

      .cls-2, .cls-3 {
        fill: #ffaf6d;
      }

      .cls-2, .cls-4 {
        isolation: isolate;
      }

      .cls-5 {
        fill: #6d5e54;
      }

      .cls-6, .cls-7 {
        fill: none;
      }

      .cls-8 {
        fill: #af3f97;
      }

      .cls-9 {
        fill: #16a14a;
      }

      .cls-10 {
        fill: #7c4dff;
      }

      .cls-11 {
        fill: #f8971f;
      }

      .cls-7 {
        stroke: #d3d3d3;
      }

      .cls-12 {
        fill: #3c4da1;
      }

      .cls-13 {
        fill: #7daebc;
      }

      .cls-14 {
        fill: #204299;
      }
    </style>
  </defs>
  <!-- Generator: Adobe Illustrator 28.7.6, SVG Export Plug-In . SVG Version: 1.2.0 Build 188)  -->
  <g>
    <g id="Layer_1">
      <g id="Group_3130">
        <g id="Group_3047">
          <g id="Rectangle_172">
            <rect class="cls-6" width="50" height="50" rx="6" ry="6"/>
            <rect class="cls-7" x=".5" y=".5" width="49" height="49" rx="5.5" ry="5.5"/>
          </g>
          <path id="text49" class="cls-10" d="M12.9,20.2c0,.8-.2,1.5-.5,2.2-.3.6-.8,1.1-1.3,1.5-.4.3-.9.5-1.5.6-.6,0-1.1.1-1.7.1h-2.7v-8.7h2.7c.6,0,1.1,0,1.7.1.5,0,1,.3,1.5.6.6.4,1,.9,1.4,1.5.3.7.5,1.4.5,2.2ZM10.7,20.2c0-.5,0-1-.3-1.5-.2-.4-.5-.7-.9-1-.3-.2-.6-.3-.9-.3-.3,0-.7,0-1.2,0h0v5.4h0c.5,0,.9,0,1.2,0,.3,0,.7-.1,1-.3.4-.2.6-.5.8-.9.2-.5.3-1,.3-1.5ZM17.7,22.9v-1.4c-.3,0-.6,0-.8,0-.2,0-.4,0-.6.1-.2,0-.3.2-.4.3-.1.1-.2.3-.1.5,0,.2,0,.5.2.6.2.1.5.2.7.2.2,0,.4,0,.5-.1.2,0,.4-.2.5-.3ZM17.7,23.9l-.4.3c-.1.1-.3.2-.4.3-.2,0-.4.2-.5.2-.2,0-.5,0-.7,0-.5,0-1.1-.2-1.4-.6-.4-.4-.6-.9-.6-1.5,0-.4,0-.8.3-1.2.2-.3.5-.6.8-.7.4-.2.9-.3,1.3-.4.5,0,1.1-.1,1.7-.2h0c0-.3-.1-.6-.4-.8-.4-.2-.8-.2-1.2-.2-.3,0-.6,0-.8.1-.3,0-.6.2-.9.3h-.2v-1.6c.2,0,.5-.1,1-.2.5,0,.9-.1,1.4-.1.9,0,1.7.1,2.5.6.5.4.8,1.1.8,1.7v4.5h-2v-.7ZM23.8,24.7c-.6,0-1.3-.1-1.8-.5-.4-.5-.6-1.1-.6-1.7v-3.1h-.8v-1.4h.8v-1.9h2v1.9h2v1.4h-2v2.3c0,.2,0,.4,0,.6,0,.2,0,.3,0,.5,0,.1.2.3.3.3.2,0,.4.1.6.1.1,0,.3,0,.4,0,.1,0,.3,0,.4-.1h.2v1.4c-.2,0-.5.1-.7.1-.3,0-.6,0-.9,0ZM29.8,22.9v-1.4c-.3,0-.6,0-.8,0-.2,0-.4,0-.6.1-.2,0-.3.2-.4.3-.1.1-.2.3-.1.5,0,.2,0,.5.2.6.2.1.5.2.7.2.2,0,.4,0,.5-.1.2,0,.4-.2.5-.3ZM29.8,23.9l-.4.3c-.1.1-.3.2-.4.3-.2,0-.4.2-.5.2-.2,0-.5,0-.7,0-.5,0-1.1-.2-1.4-.6-.4-.4-.6-.9-.6-1.5,0-.4,0-.8.3-1.2.2-.3.5-.6.8-.7.4-.2.9-.3,1.3-.4.5,0,1.1-.1,1.7-.2h0c0-.3-.1-.6-.4-.8-.4-.2-.8-.2-1.2-.2-.3,0-.6,0-.8.1-.3,0-.6.2-.9.3h-.2v-1.6c.2,0,.5-.1,1-.2.5,0,.9-.1,1.4-.1.9,0,1.7.1,2.5.6.5.4.8,1.1.8,1.7v4.5h-2v-.7Z"/>
          <g id="Layer_4">
            <g id="text52" class="cls-4">
              <text class="cls-2" transform="translate(4.8 31.2)"><tspan x="0" y="0">Analysis</tspan></text>
            </g>
          </g>
          <path id="text14" class="cls-14" d="M30.9,9.9h.4c0,0,0,.2.2.3.1.1.3.2.5.1.2,0,.3,0,.5-.1,0,0,.1-.2.1-.3,0,0,0-.2-.1-.2-.1,0-.3-.1-.5-.1-.2,0-.5-.1-.7-.2-.1,0-.2-.1-.3-.2,0-.1-.1-.2,0-.4,0-.1,0-.2,0-.3,0,0,.1-.2.2-.2,0,0,.2-.1.3-.1.1,0,.3,0,.4,0,.2,0,.4,0,.5,0,.1,0,.3.1.3.2,0,.1.1.3.2.4h-.4c0,0,0-.2-.2-.3-.1,0-.3-.1-.4-.1-.2,0-.3,0-.4.1,0,0-.1.1-.1.2,0,0,0,.1,0,.2,0,0,.1,0,.2.1,0,0,.2,0,.4.1.2,0,.4.1.7.2.1,0,.2.1.3.2,0,.1.1.2.1.4,0,.1,0,.3-.1.4,0,.1-.2.2-.4.3-.2,0-.4.1-.6.1-.3,0-.6,0-.8-.2-.2-.2-.3-.4-.3-.6ZM33.4,9.3c0-.4.1-.8.4-1.1.2-.2.5-.3.8-.3.3,0,.7.1.9.4.2.3.4.6.3,1,0,.3,0,.5-.2.8,0,.2-.3.3-.4.5-.2.1-.4.2-.6.2-.3,0-.7-.1-.9-.4-.2-.3-.4-.6-.3-1h0ZM33.9,9.3c0,.3,0,.5.2.8.3.3.7.3,1,0,0,0,0,0,0,0,.2-.2.2-.5.2-.8,0-.3,0-.5-.2-.7-.3-.3-.7-.3-1,0,0,0,0,0,0,0-.2.2-.2.5-.2.8h0ZM38.1,9.7h.4c0,.3-.2.6-.4.8-.2.2-.5.3-.7.3-.3,0-.6-.1-.9-.4-.2-.3-.4-.6-.3-1,0-.3,0-.5.1-.7,0-.2.2-.4.4-.5.2-.1.4-.2.6-.2.3,0,.5,0,.7.2.2.2.3.4.3.6h-.4c0,0-.1-.2-.2-.3-.1,0-.2-.1-.4-.1-.2,0-.4,0-.5.2-.2.2-.2.5-.2.8,0,.3,0,.5.2.8.1.2.3.2.5.2.2,0,.3,0,.4-.2.1-.1.2-.3.2-.5h0ZM38.9,7.5v-.5h.4v.5h-.4ZM38.9,10.6v-2.6h.4v2.6h-.4ZM41.8,10.3c-.1.1-.3.2-.5.3-.2,0-.3,0-.5,0-.2,0-.5,0-.7-.2-.2-.1-.2-.3-.2-.5,0-.1,0-.2,0-.4,0-.1.1-.2.2-.3,0,0,.2-.1.3-.1.1,0,.3,0,.4,0,.3,0,.5,0,.8-.2h0c0-.3,0-.4-.1-.5-.1-.1-.3-.2-.5-.2-.2,0-.3,0-.5.1-.1.1-.2.2-.2.4h-.4c0-.2,0-.4.2-.5.1-.1.2-.2.4-.3.2,0,.4,0,.6,0,.2,0,.4,0,.5,0,.1,0,.2.1.3.2,0,0,.1.2.1.3,0,.1,0,.3,0,.4v.6c0,.3,0,.5,0,.8,0,.1,0,.2.1.3h-.5c0-.1,0-.2,0-.3h0ZM41.7,9.3c-.2,0-.5.1-.7.2-.1,0-.3,0-.4,0,0,0-.1,0-.2.1-.1.2,0,.4,0,.5.1,0,.3.1.4.1.2,0,.3,0,.5-.1.1,0,.2-.2.3-.3,0-.1,0-.3,0-.4v-.2ZM42.9,10.6v-3.6h.4v3.6h-.4Z"/>
          <path id="text22" class="cls-3" d="M44.6,17.8h.9s0,.9,0,.9h-.9s0-.9,0-.9ZM44.1,18.8h-3.5c-.3,0-.7,0-1,0-.2,0-.3-.2-.5-.3-.1-.2-.2-.4-.2-.7,0-.1,0-.2,0-.3,0-.1,0-.2,0-.4l.8.2s0,0,0,.1c0,0,0,0,0,.1,0,0,0,.2,0,.2,0,0,0,.1.2.1.2,0,.4,0,.5,0h3.5s0,.9,0,.9ZM42.4,19.6c.3,0,.6,0,.9.2.3.1.5.4.7.7.2.3.2.6.2,1,0,.5-.2,1-.5,1.4-.4.4-.8.6-1.3.5-.5,0-1-.2-1.4-.5-.4-.3-.6-.8-.6-1.3,0-.3,0-.7.2-1,.1-.3.4-.5.7-.7.3-.2.7-.3,1.1-.2h0ZM42.3,20.5c-.3,0-.6,0-.8.3-.3.3-.4.8,0,1.2,0,0,0,0,0,0,.2.2.5.3.8.2.3,0,.6,0,.8-.3.3-.3.4-.8,0-1.2,0,0,0,0,0,0-.2-.2-.5-.3-.8-.2h0ZM40.6,26.5h.5c-.2-.1-.4-.3-.5-.5-.1-.2-.2-.4-.2-.7,0-.2,0-.5.2-.7,0-.2.3-.3.4-.4.3-.1.5-.1.8-.1h2.3s0,.9,0,.9h-1.7c-.3,0-.6,0-.9,0-.1,0-.2.1-.3.2,0,.1-.1.2,0,.4,0,.2,0,.3.1.4,0,.1.2.2.3.3.3,0,.7,0,1,0h1.5s0,.9,0,.9h-3.6s0-.8,0-.8ZM40.6,29.3v-1s3.6,0,3.6,0v.9s-.5,0-.5,0c.2.1.4.2.5.4,0,.1.1.3.1.4,0,.2,0,.4-.2.6l-.8-.3c0-.1.1-.3.2-.5,0-.1,0-.2-.1-.3-.1-.1-.2-.2-.4-.2-.4,0-.8,0-1.2,0h-1.1ZM40.7,34.4v-1s1.8,0,1.8,0c.3,0,.5,0,.8,0,.1,0,.2-.1.3-.2,0,0,0-.2,0-.3,0-.2,0-.3-.1-.4,0-.1-.2-.2-.4-.3-.3,0-.6,0-.8,0h-1.6s0-.9,0-.9h3.6s0,.8,0,.8h-.5c.6.4.8,1.1.5,1.8,0,.2-.2.3-.3.4-.1,0-.3.2-.4.2-.2,0-.4,0-.6,0h-2.3ZM43.2,36v-.9c.5,0,.7.2.9.5.2.3.3.7.3,1.1,0,.3,0,.7-.1,1,0,.2-.2.3-.4.4-.3.1-.6.2-.9.1h-1.1c-.2,0-.5,0-.7,0-.2,0-.3,0-.5.2v-.9c0,0,.1,0,.3,0,0,0,0,0,.1,0-.2-.1-.3-.3-.4-.5,0-.2-.1-.4-.1-.6,0-.3,0-.6.3-.9.2-.2.5-.3.8-.3.2,0,.4,0,.5.1.2,0,.3.2.4.4.1.2.2.5.2.8,0,.3.1.6.2.9h0c.1,0,.3,0,.4-.1,0-.2.1-.3.1-.5,0-.1,0-.3-.1-.4,0-.1-.2-.2-.4-.2h0ZM42.5,37.3c0-.2-.1-.4-.2-.6,0-.2,0-.4-.2-.5,0-.1-.2-.2-.3-.2-.1,0-.3,0-.3.2,0,.1-.1.2-.1.4,0,.2,0,.4.2.5,0,.1.2.2.3.2.2,0,.3,0,.5,0h.2ZM40.7,39.2h5c0,0,0,.9,0,.9h-5c0,0,0-.9,0-.9Z"/>
          <path id="text24" class="cls-12" d="M7.8,6.6h3s0,.3,0,.3h-1.1c.2.2.3.4.3.7,0,.1,0,.3,0,.4,0,.1-.1.2-.3.3-.2,0-.3,0-.5,0h-1.4s0-.4,0-.4h1.4c.1,0,.3,0,.4-.1,0,0,.1-.2.1-.3,0-.1,0-.2,0-.3,0,0-.1-.2-.2-.2-.1,0-.3,0-.4,0h-1.2s0-.4,0-.4ZM8.9,8.8c.3,0,.7,0,.9.3.2.2.3.4.2.7,0,.3,0,.5-.3.7-.2.2-.5.3-.8.3-.2,0-.5,0-.7-.1-.2,0-.3-.2-.4-.4,0-.2-.1-.3-.1-.5,0-.3,0-.5.3-.7.2-.2.5-.3.8-.3ZM8.9,9.2c-.2,0-.4,0-.6.2-.3.2-.3.6,0,.9,0,0,0,0,0,0,.2.1.4.2.6.2.2,0,.4,0,.6-.2.3-.2.3-.6,0-.9,0,0,0,0,0,0-.2-.1-.4-.2-.6-.2h0ZM8.5,11.1v.4c0,0-.2,0-.3.2,0,.1-.1.3-.1.4,0,.1,0,.3.1.4,0,0,.1.1.2.1,0,0,.2,0,.2-.1,0-.1,0-.2.1-.4,0-.2,0-.4.2-.6,0-.2.3-.3.5-.3,0,0,.2,0,.3,0,0,0,.2.1.2.2,0,0,0,.2.1.2,0,.1,0,.2,0,.3,0,.2,0,.3,0,.5,0,.1-.1.2-.2.3-.1,0-.2.1-.3.1v-.4s.1,0,.2-.1c0,0,0-.2,0-.3,0-.1,0-.3,0-.4,0,0-.1-.1-.2-.1,0,0,0,0-.1,0,0,0,0,0,0,.1,0,0,0,.1,0,.3,0,.2,0,.4-.2.5,0,0-.1.2-.2.2,0,0-.2,0-.3,0-.1,0-.2,0-.3-.1-.1,0-.2-.2-.3-.3,0-.1,0-.3,0-.5,0-.2,0-.5.2-.7.1-.2.3-.3.5-.3ZM8.2,14.2h-.3s0-.1,0-.2c0-.1,0-.2,0-.3,0,0,0-.1.2-.2.1,0,.3,0,.4,0h1.3s0-.3,0-.3h.3s0,.3,0,.3h.5s.2.4.2.4h-.8s0,.4,0,.4h-.3s0-.4,0-.4h-1.3c0,0-.1,0-.2,0,0,0,0,0,0,0,0,0,0,0,0,.1,0,0,0,.1,0,.2Z"/>
          <path id="text28" class="cls-9" d="M10.5,34.5v-.6h.5v.6h-.5ZM10.5,38.1v-3.1h.5v3.1h-.5ZM11.8,38.1v-3.1h.5v.4c.2-.3.6-.5,1-.5.2,0,.3,0,.5,0,.1,0,.3.1.3.3,0,.1.1.2.2.4,0,.2,0,.3,0,.5v1.9h-.5v-1.9c0-.2,0-.3,0-.5,0-.1-.1-.2-.2-.3-.1,0-.2,0-.4,0-.2,0-.4,0-.6.2-.2.2-.3.5-.2.8v1.7h-.5ZM15.2,38.1v-2.7h-.5v-.4h.5v-.3c0-.2,0-.3,0-.5,0-.1.1-.3.3-.3.2,0,.3-.1.5-.1.2,0,.3,0,.5,0v.4c-.2,0-.3,0-.4,0-.1,0-.2,0-.3.1,0,.1-.1.2,0,.4v.3h.6v.4h-.6v2.7h-.5ZM16.6,36.6c0-.5.1-.9.5-1.3.3-.2.6-.4,1-.3.4,0,.8.1,1,.4.3.3.4.7.4,1.1,0,.3,0,.6-.2.9-.1.2-.3.4-.5.5-.2.1-.5.2-.7.2-.4,0-.8-.1-1-.4-.3-.3-.4-.8-.4-1.2ZM17.1,36.6c0,.3,0,.6.3.9.3.4.9.4,1.2,0,0,0,0,0,0,0,.2-.3.3-.6.3-.9,0-.3,0-.6-.3-.9-.3-.4-.9-.4-1.2,0,0,0,0,0,0,0-.2.3-.3.6-.3.9ZM20,38.1v-3.1h.5v.5c0-.2.2-.3.3-.4,0,0,.2-.1.3,0,.2,0,.4,0,.5.2l-.2.5c-.1,0-.2-.1-.4-.1-.1,0-.2,0-.3,0,0,0-.2.2-.2.3,0,.2,0,.4,0,.6v1.6h-.5ZM22,38.1v-3.1h.5v.4c0-.2.2-.3.4-.4.2,0,.4-.1.5-.1.2,0,.4,0,.6.1.1,0,.3.2.3.4.2-.3.6-.5.9-.5.3,0,.5,0,.7.3.2.2.3.5.2.8v2.1h-.5v-1.9c0-.2,0-.3,0-.4,0,0,0-.2-.2-.2,0,0-.2,0-.3,0-.2,0-.4,0-.5.2-.2.2-.2.4-.2.7v1.8h-.5v-2c0-.2,0-.4-.1-.5-.1-.1-.3-.2-.4-.2-.1,0-.3,0-.4.1-.1,0-.2.2-.3.3,0,.2,0,.4,0,.6v1.6h-.5ZM29,37.7c-.2.1-.4.3-.6.3-.2,0-.4.1-.6,0-.3,0-.6,0-.8-.2-.2-.2-.3-.4-.3-.6,0-.1,0-.3.1-.4,0-.1.2-.2.3-.3.1,0,.2-.1.4-.2.2,0,.3,0,.5,0,.3,0,.6,0,.9-.2h0c0-.3,0-.5-.1-.6-.2-.1-.4-.2-.6-.2-.2,0-.4,0-.5.1-.1.1-.2.3-.3.5h-.5c0-.3.1-.4.2-.6.1-.1.3-.3.5-.3.2,0,.5-.1.7-.1.2,0,.4,0,.6,0,.1,0,.3.1.4.2,0,.1.1.2.2.4,0,.2,0,.3,0,.5v.7c0,.3,0,.6,0,.9,0,.1,0,.3.1.4h-.5c0-.1,0-.2-.1-.4ZM28.9,36.6c-.3,0-.6.2-.9.2-.2,0-.3,0-.5.1,0,0-.2,0-.2.2-.1.2,0,.4,0,.6.1.1.3.2.5.1.2,0,.4,0,.5-.1.1,0,.3-.2.3-.4,0-.2,0-.3,0-.5v-.2ZM31.4,37.7v.5c0,0-.2,0-.3,0-.2,0-.3,0-.4,0,0,0-.2-.1-.2-.2,0-.2,0-.4,0-.6v-1.8h-.4v-.4h.4v-.8l.5-.3v1.1h.5v.4h-.5v1.8c0,0,0,.2,0,.3,0,0,0,0,0,0,0,0,.1,0,.2,0,0,0,.2,0,.2,0h0ZM31.9,34.5v-.6h.5v.6h-.5ZM31.9,38.1v-3.1h.5v3.1h-.5ZM33,36.6c0-.5.1-.9.5-1.3.3-.2.6-.4,1-.3.4,0,.8.1,1,.4.3.3.4.7.4,1.1,0,.3,0,.6-.2.9-.1.2-.3.4-.5.5-.2.1-.5.2-.7.2-.4,0-.8-.1-1-.4-.3-.3-.4-.8-.4-1.2h0ZM33.6,36.6c0,.3,0,.6.3.9.3.4.9.4,1.2,0,0,0,0,0,0,0,.2-.3.3-.6.3-.9,0-.3,0-.6-.3-.9-.3-.4-.9-.4-1.2,0,0,0,0,0,0,0-.2.3-.3.6-.3.9h0ZM36.5,38.1v-3.1h.5v.4c.2-.3.6-.5,1-.5.2,0,.3,0,.5,0,.1,0,.3.1.3.3,0,.1.1.2.2.4,0,.2,0,.3,0,.5v1.9h-.5v-1.9c0-.2,0-.3,0-.5,0-.1-.1-.2-.2-.3-.1,0-.2,0-.4,0-.2,0-.4,0-.6.2-.2.2-.3.5-.2.8v1.7h-.5Z"/>
          <path id="text30" class="cls-13" d="M12.2,9.9h.4c0,0,0,.2.2.3.1,0,.3.1.5.1.2,0,.3,0,.4-.1,0,0,.1-.2.1-.3,0,0,0-.2-.1-.2-.1,0-.3-.1-.4-.1-.2,0-.4-.1-.7-.2-.1,0-.2-.1-.3-.2,0-.1,0-.2,0-.3,0-.1,0-.2,0-.3,0,0,.1-.2.2-.2,0,0,.2,0,.3-.1.1,0,.2,0,.4,0,.2,0,.4,0,.5,0,.1,0,.2.1.3.2,0,.1.1.2.2.4h-.4c0,0,0-.2-.2-.2-.1,0-.2-.1-.4-.1-.1,0-.3,0-.4.1,0,0-.1.1-.1.2,0,0,0,.1,0,.2,0,0,0,0,.2.1,0,0,.2,0,.4.1.2,0,.4.1.6.2.1,0,.2.1.3.2,0,.1.1.2.1.4,0,.1,0,.3-.1.4,0,.1-.2.2-.4.3-.2,0-.4.1-.5.1-.3,0-.5,0-.8-.2-.2-.2-.3-.4-.3-.6ZM16.4,9.7h.4c0,.3-.2.6-.4.7-.2.2-.4.3-.7.2-.3,0-.6-.1-.8-.3-.2-.3-.3-.6-.3-1,0-.2,0-.5.1-.7,0-.2.2-.4.4-.5.2-.1.4-.2.6-.2.2,0,.5,0,.7.2.2.1.3.4.3.6h-.4c0,0-.1-.2-.2-.3-.1,0-.2-.1-.4-.1-.2,0-.4,0-.5.2-.2.2-.2.5-.2.7,0,.3,0,.5.2.7.1.2.3.2.5.2.2,0,.3,0,.4-.2.1-.1.2-.3.2-.5ZM17.2,7.7v-.5h.4v.5h-.4ZM17.2,10.7v-2.5h.4v2.5h-.4ZM20,9.8h.4c0,.3-.2.5-.4.7-.2.1-.5.2-.7.2-.3,0-.6-.1-.9-.3-.2-.3-.3-.6-.3-1,0-.4,0-.7.3-1,.2-.2.5-.4.9-.4.3,0,.6.1.8.3.2.3.3.6.3,1h0c0,.1-1.9.1-1.9.1,0,.2,0,.5.2.6.1.1.3.2.5.2.1,0,.3,0,.4-.1.1-.1.2-.2.3-.4ZM18.6,9.1h1.4c0-.2,0-.3-.2-.5-.1-.2-.3-.3-.5-.2-.2,0-.4,0-.5.2-.1.1-.2.3-.2.5ZM21,10.7v-2.5h.4v.4c.2-.3.5-.4.8-.4.1,0,.3,0,.4,0,.1,0,.2.1.3.2,0,0,.1.2.1.3,0,.1,0,.3,0,.4v1.6h-.4v-1.5c0-.1,0-.3,0-.4,0,0,0-.2-.2-.2,0,0-.2,0-.3,0-.2,0-.3,0-.5.2-.2.2-.2.4-.2.7v1.4h-.4ZM25.4,9.7h.4c0,.3-.2.6-.4.7-.2.2-.4.3-.7.2-.3,0-.6-.1-.8-.3-.2-.3-.3-.6-.3-1,0-.2,0-.5.1-.7,0-.2.2-.4.4-.5.2-.1.4-.2.6-.2.2,0,.5,0,.7.2.2.1.3.4.3.6h-.4c0,0-.1-.2-.2-.3-.1,0-.2-.1-.4-.1-.2,0-.4,0-.5.2-.2.2-.2.5-.2.7,0,.3,0,.5.2.7.1.2.3.2.5.2.2,0,.3,0,.4-.2.1-.1.2-.3.2-.5ZM27.9,9.8h.4c0,.3-.2.5-.4.7-.2.1-.5.2-.7.2-.3,0-.6-.1-.9-.3-.2-.3-.3-.6-.3-1,0-.4,0-.7.3-1,.2-.2.5-.4.9-.4.3,0,.6.1.8.3.2.3.3.6.3,1h0c0,.1-1.9.1-1.9.1,0,.2,0,.5.2.6.1.1.3.2.5.2.1,0,.3,0,.4-.1.1-.1.2-.2.3-.4ZM26.5,9.1h1.4c0-.2,0-.3-.2-.5-.1-.2-.3-.3-.5-.2-.2,0-.4,0-.5.2-.1.1-.2.3-.2.5Z"/>
          <path id="text32" class="cls-5" d="M31.4,14.1v-1.6h.2v.2c0,0,.1-.1.2-.2,0,0,.2,0,.3,0,.1,0,.2,0,.3,0,0,0,.1.1.2.2.1-.2.3-.3.5-.3.1,0,.3,0,.4.1,0,.1.1.3.1.4v1.1h-.3v-1c0,0,0-.2,0-.2,0,0,0,0-.1-.1,0,0-.1,0-.2,0-.1,0-.2,0-.3.1,0,.1-.1.2-.1.4v.9h-.3v-1c0,0,0-.2,0-.3,0,0-.1,0-.2,0,0,0-.1,0-.2,0,0,0-.1.1-.1.2,0,.1,0,.2,0,.3v.8h-.3ZM35,13.6h.3c0,.2-.1.3-.2.4-.1,0-.3.1-.5.1-.2,0-.4,0-.6-.2-.1-.2-.2-.4-.2-.6,0-.2,0-.5.2-.6.1-.1.3-.2.5-.2.2,0,.4,0,.5.2.1.2.2.4.2.6h0c0,0-1.2,0-1.2,0,0,.1,0,.3.2.4,0,0,.2.1.3.1,0,0,.2,0,.3,0,0,0,.1-.2.2-.3ZM34.1,13.2h.9c0-.1,0-.2,0-.3,0-.1-.2-.2-.3-.2-.1,0-.2,0-.3.1,0,0-.1.2-.1.3ZM36.7,13.9c0,0-.2.1-.3.2,0,0-.2,0-.3,0-.1,0-.3,0-.4-.1,0,0-.1-.2-.1-.3,0,0,0-.1,0-.2,0,0,0-.1.1-.2,0,0,.1,0,.2,0,0,0,.2,0,.2,0,.2,0,.3,0,.5,0h0c0-.2,0-.2,0-.3,0,0-.2-.1-.3,0,0,0-.2,0-.3,0,0,0-.1.1-.1.2h-.3c0-.1,0-.2.1-.3,0,0,.1-.1.2-.2.1,0,.2,0,.4,0,.1,0,.2,0,.3,0,0,0,.1,0,.2.1,0,0,0,.1,0,.2,0,0,0,.2,0,.3v.4c0,.2,0,.3,0,.5,0,0,0,.1,0,.2h-.3c0,0,0-.1,0-.2ZM36.7,13.3c-.1,0-.3,0-.4.1,0,0-.2,0-.2,0,0,0,0,0-.1,0,0,0,0,0,0,.1,0,0,0,.1,0,.2,0,0,.2,0,.2,0,0,0,.2,0,.3,0,0,0,.1-.1.2-.2,0,0,0-.2,0-.3h0ZM37.3,13.7h.3c0,0,0,.1.1.2,0,0,.2,0,.3,0,0,0,.2,0,.3,0,0,0,0-.1,0-.2,0,0,0-.1,0-.1,0,0-.2,0-.3,0-.1,0-.3,0-.4-.1,0,0-.1,0-.2-.2,0,0,0-.1,0-.2,0,0,0-.1,0-.2,0,0,0-.1.1-.1,0,0,.1,0,.2,0,0,0,.2,0,.2,0,.1,0,.2,0,.3,0,0,0,.2,0,.2.1,0,0,0,.2,0,.2h-.3s0-.1-.1-.2c0,0-.2,0-.2,0,0,0-.2,0-.3,0,0,0,0,0,0,.1,0,0,0,0,0,.1,0,0,0,0,0,0,0,0,.1,0,.2,0,.1,0,.3,0,.4.1,0,0,.1,0,.2.1,0,0,0,.2,0,.2,0,0,0,.2,0,.3,0,0-.1.1-.2.2-.1,0-.2,0-.3,0-.2,0-.3,0-.5-.1-.1,0-.2-.2-.2-.4ZM40,14.1v-.2c-.1.2-.3.3-.5.3,0,0-.2,0-.3,0,0,0-.1,0-.2-.1,0,0,0-.1,0-.2,0,0,0-.2,0-.3v-1h.3v.9c0,0,0,.2,0,.3,0,0,0,.1.1.2,0,0,.1,0,.2,0,0,0,.2,0,.2,0,0,0,.1,0,.2-.2,0-.1,0-.2,0-.3v-.9h.3v1.6h-.2ZM40.6,14.1v-1.6h.2v.2c0,0,0-.2.2-.2,0,0,.1,0,.2,0,0,0,.2,0,.3,0v.3c-.2,0-.2,0-.3,0,0,0-.1,0-.2,0,0,0,0,0-.1.1,0,.1,0,.2,0,.3v.8h-.3ZM42.8,13.6h.3c0,.2-.1.3-.2.4-.1,0-.3.1-.5.1-.2,0-.4,0-.6-.2-.1-.2-.2-.4-.2-.6,0-.2,0-.5.2-.6.1-.1.3-.2.5-.2.2,0,.4,0,.5.2.1.2.2.4.2.6h0c0,0-1.2,0-1.2,0,0,.1,0,.3.1.4,0,0,.2.1.3.1,0,0,.2,0,.3,0,0,0,.1-.2.2-.3ZM41.9,13.2h.9c0-.1,0-.2-.1-.3,0-.1-.2-.2-.3-.2-.1,0-.2,0-.3.1,0,0-.1.2-.1.3ZM43.3,13.7h.3c0,0,0,.1.1.2,0,0,.2,0,.3,0,0,0,.2,0,.3,0,0,0,0-.1,0-.2,0,0,0-.1,0-.1,0,0-.2,0-.3,0-.1,0-.3,0-.4-.1,0,0-.1,0-.2-.2,0,0,0-.1,0-.2,0,0,0-.1,0-.2,0,0,0-.1.1-.2,0,0,.1,0,.2,0,0,0,.2,0,.2,0,.1,0,.2,0,.3,0,0,0,.2,0,.2.1,0,0,0,.2,0,.2h-.3s0-.1-.1-.2c0,0-.2,0-.2,0,0,0-.2,0-.3,0,0,0,0,0,0,.1,0,0,0,0,0,.1,0,0,0,0,.1,0,0,0,.1,0,.2,0,.1,0,.3,0,.4.1,0,0,.1,0,.2.1,0,0,0,.2,0,.2,0,0,0,.2,0,.3,0,0-.1.1-.2.2-.1,0-.2,0-.3,0-.2,0-.3,0-.5-.1-.1-.1-.2-.2-.2-.4Z"/>
          <path id="text32-2" class="cls-5" d="M9.3,42.9v-2.6h.4v.4c0-.1.2-.2.3-.3.1,0,.3-.1.5-.1.2,0,.3,0,.5.1.1,0,.2.2.3.3.2-.3.5-.5.8-.5.2,0,.4,0,.6.2.2.2.2.4.2.7v1.8h-.4v-1.6c0-.1,0-.3,0-.4,0,0,0-.1-.2-.2,0,0-.2,0-.3,0-.2,0-.3,0-.5.2-.1.2-.2.4-.2.6v1.5h-.4v-1.7c0-.2,0-.3-.1-.4,0-.1-.2-.2-.4-.1-.1,0-.2,0-.3.1-.1,0-.2.2-.2.3,0,.2,0,.4,0,.5v1.4h-.4ZM15.3,42h.5c0,.3-.2.5-.4.7-.2.2-.5.2-.7.2-.3,0-.7-.1-.9-.4-.2-.3-.4-.6-.3-1,0-.4,0-.7.3-1,.2-.2.5-.4.9-.4.3,0,.6.1.9.4.2.3.4.6.3,1h0c0,.1-1.9.1-1.9.1,0,.2,0,.5.2.7.1.2.3.2.5.2.1,0,.3,0,.4-.1.1-.1.2-.2.3-.4ZM13.8,41.3h1.5c0-.2,0-.3-.2-.5-.1-.2-.3-.3-.5-.3-.2,0-.4,0-.5.2-.1.1-.2.3-.2.6ZM18,42.6c-.1.1-.3.2-.5.3-.2,0-.3,0-.5,0-.2,0-.5,0-.7-.2-.2-.1-.2-.3-.2-.5,0-.1,0-.2,0-.4,0-.1.1-.2.2-.3,0,0,.2-.1.3-.1.1,0,.3,0,.4,0,.3,0,.5,0,.8-.2h0c0-.3,0-.4-.1-.5-.1-.1-.3-.2-.5-.1-.2,0-.3,0-.5.1-.1.1-.2.2-.2.4h-.4c0-.2,0-.4.2-.5.1-.1.2-.2.4-.3.2,0,.4,0,.6,0,.2,0,.4,0,.5,0,.1,0,.2.1.3.2,0,0,.1.2.1.3,0,.1,0,.3,0,.4v.6c0,.3,0,.5,0,.8,0,.1,0,.2.1.3h-.5c0-.1,0-.2,0-.3ZM17.9,41.6c-.2,0-.5.1-.7.2-.1,0-.3,0-.4,0,0,0-.1,0-.2.1,0,0,0,.1,0,.2,0,.1,0,.2.1.3.1,0,.3.1.4.1.2,0,.3,0,.5-.1.1,0,.2-.2.3-.3,0-.1,0-.3,0-.4v-.2ZM18.9,42.1h.4c0,0,0,.2.2.3.1.1.3.2.5.1.2,0,.3,0,.5-.1,0,0,.1-.2.1-.3,0,0,0-.2-.1-.2-.1,0-.3-.1-.5-.1-.2,0-.5-.1-.7-.2-.1,0-.2-.1-.3-.2,0-.1-.1-.2-.1-.3,0-.1,0-.2,0-.3,0,0,.1-.2.2-.2,0,0,.2-.1.3-.1.1,0,.3,0,.4,0,.2,0,.4,0,.5,0,.1,0,.3.1.3.2,0,.1.1.3.2.4h-.4c0,0,0-.2-.2-.3-.1,0-.3-.1-.4-.1-.2,0-.3,0-.4.1,0,0-.1.1-.1.2,0,0,0,.1,0,.2,0,0,.1,0,.2.1,0,0,.2,0,.4.1.2,0,.4.1.7.2.1,0,.2.1.3.2,0,.1.1.2.1.4,0,.1,0,.3-.1.4,0,.1-.2.2-.4.3-.2,0-.4.1-.6.1-.3,0-.5,0-.8-.2-.2-.2-.3-.4-.3-.6h0ZM23.3,42.9v-.4c-.2.3-.5.4-.8.4-.1,0-.3,0-.4,0-.1,0-.2-.1-.3-.2,0,0-.1-.2-.1-.3,0-.1,0-.3,0-.4v-1.6h.4v1.4c0,.2,0,.3,0,.5,0,.1,0,.2.2.3,0,0,.2.1.3.1.1,0,.3,0,.4-.1.1,0,.2-.2.2-.3,0-.2,0-.3,0-.5v-1.4h.4v2.6h-.4ZM24.4,42.9v-2.6h.4v.4c0-.1.2-.3.3-.4,0,0,.2,0,.3,0,.2,0,.3,0,.5.1l-.2.4c0,0-.2,0-.3-.1,0,0-.2,0-.3,0,0,0-.1.1-.2.2,0,.2,0,.3,0,.5v1.4h-.4ZM27.9,42h.5c0,.3-.2.5-.4.7-.2.2-.5.2-.7.2-.3,0-.7-.1-.9-.4-.2-.3-.4-.6-.3-1,0-.4,0-.7.3-1,.2-.2.5-.4.9-.4.3,0,.6.1.9.4.2.3.4.6.3,1h0c0,.1-1.9.1-1.9.1,0,.2,0,.5.2.7.1.2.3.2.5.2.1,0,.3,0,.4-.1.1-.1.2-.2.3-.4ZM26.4,41.3h1.5c0-.2,0-.3-.2-.5-.1-.2-.3-.3-.5-.3-.2,0-.4,0-.5.2-.1.1-.2.3-.2.6ZM28.7,42.1h.4c0,0,0,.2.2.3.1.1.3.2.5.1.2,0,.3,0,.5-.1,0,0,.1-.2.1-.3,0,0,0-.2-.1-.2-.1,0-.3-.1-.5-.1-.2,0-.5-.1-.7-.2-.1,0-.2-.1-.3-.2,0-.1-.1-.2-.1-.3,0-.1,0-.2,0-.3,0,0,.1-.2.2-.2,0,0,.2-.1.3-.1.1,0,.3,0,.4,0,.2,0,.4,0,.5,0,.1,0,.3.1.3.2,0,.1.1.3.2.4h-.4c0,0,0-.2-.2-.3-.1,0-.3-.1-.4-.1-.2,0-.3,0-.4.1,0,0-.1.1-.1.2,0,0,0,.1,0,.2,0,0,.1,0,.2.1,0,0,.2,0,.4.1.2,0,.4.1.7.2.1,0,.2.1.3.2,0,.1.1.2.1.4,0,.1,0,.3-.1.4,0,.1-.2.2-.4.3-.2,0-.4.1-.5.1-.3,0-.5,0-.8-.2-.2-.2-.3-.4-.3-.6h0Z"/>
          <path id="text34" class="cls-8" d="M14.5,13.7c0,0-.1,0-.2.1,0,0-.1,0-.2,0,0,0-.2,0-.3,0,0,0-.1-.1-.1-.2,0,0,0-.1,0-.2,0,0,0,0,0-.1,0,0,0,0,.1,0,0,0,.1,0,.2,0,.1,0,.2,0,.3,0,0,0,0,0,0,0,0,0,0-.1,0-.2,0,0-.1,0-.2,0,0,0-.1,0-.2,0,0,0,0,0,0,.2h-.2c0,0,0-.2,0-.2,0,0,0,0,.2-.1,0,0,.2,0,.2,0,0,0,.2,0,.2,0,0,0,0,0,.1,0,0,0,0,0,0,.1,0,0,0,.1,0,.2v.2c0,.1,0,.2,0,.3,0,0,0,0,0,.1h-.2s0,0,0-.1ZM14.4,13.3c0,0-.2,0-.3,0,0,0-.1,0-.2,0,0,0,0,0,0,0,0,0,0,0,0,0,0,0,0,0,0,.1,0,0,.1,0,.2,0,0,0,.1,0,.2,0,0,0,0,0,.1-.1,0,0,0-.1,0-.2h0ZM14.9,13.9h.2c0,0,0,.1,0,.1,0,0,.1,0,.2,0,0,0,.1,0,.2,0,0,0,0,0,0-.1,0,0,0-.2,0-.2,0,0-.2.1-.3.1-.1,0-.3,0-.3-.2,0-.1-.1-.2-.1-.4,0,0,0-.2,0-.3,0,0,0-.2.2-.2,0,0,.2,0,.2,0,.1,0,.2,0,.3.2h0c0-.1.2-.1.2-.1v.9c0,.1,0,.2,0,.4,0,0,0,.1-.2.2,0,0-.2,0-.3,0-.1,0-.2,0-.3,0,0,0-.1-.2-.1-.3ZM15,13.2c0,.1,0,.2,0,.3,0,0,.1.1.2.1,0,0,.2,0,.2-.1,0,0,0-.2,0-.3,0-.1,0-.2,0-.3,0,0-.1-.1-.2,0,0,0-.2,0-.2,0,0,0,0,.2,0,.3ZM16.8,13.4h.2c0,.1,0,.2-.2.3,0,0-.2,0-.3,0-.1,0-.3,0-.4-.1,0-.1-.1-.3-.1-.4,0-.2,0-.3.1-.4,0-.1.2-.2.4-.2.1,0,.3,0,.4.2,0,.1.1.3.1.4h0s-.8,0-.8,0c0,.1,0,.2,0,.3,0,0,.1,0,.2,0,0,0,.1,0,.2,0,0,0,0-.1.1-.2ZM16.2,13.1h.6c0,0,0-.1,0-.2,0,0-.1-.1-.2-.1,0,0-.2,0-.2,0,0,0,0,.1,0,.2h0ZM17.2,13.8v-1.1h.2v.2c0-.1.2-.2.3-.2,0,0,.1,0,.2,0,0,0,0,0,.1,0,0,0,0,0,0,.1,0,0,0,.1,0,.2v.7h-.2v-.7c0,0,0-.1,0-.2,0,0,0,0,0,0,0,0,0,0-.1,0,0,0-.1,0-.2,0,0,0,0,.2,0,.3v.6h-.2ZM18.8,13.6v.2s0,0-.1,0c0,0-.1,0-.2,0,0,0,0,0,0,0,0,0,0-.1,0-.2v-.6h-.1c0-.1.1-.1.1-.1v-.3h.2c0-.1,0,.3,0,.3h.2c0,.1-.2.1-.2.1v.6s0,0,0,0c0,0,0,0,0,0,0,0,0,0,0,0,0,0,0,0,0,0ZM18.9,13.5h.2s0,0,0,.1c0,0,.1,0,.2,0,0,0,.1,0,.2,0,0,0,0,0,0-.1,0,0,0,0,0-.1,0,0-.1,0-.2,0,0,0-.2,0-.3,0,0,0,0,0-.1,0,0,0,0,0,0-.1,0,0,0,0,0-.1,0,0,0,0,0-.1,0,0,0,0,.1,0,0,0,.1,0,.2,0,0,0,.2,0,.2,0,0,0,.1,0,.1.1,0,0,0,.1,0,.2h-.2s0,0,0-.1c0,0-.1,0-.2,0,0,0-.1,0-.2,0,0,0,0,0,0,.1,0,0,0,0,0,0,0,0,0,0,0,0,0,0,0,0,.2,0,0,0,.2,0,.3,0,0,0,0,0,.1,0,0,0,0,.1,0,.2,0,0,0,.1,0,.2,0,0,0,0-.2.1,0,0-.1,0-.2,0-.1,0-.2,0-.3,0,0,0-.1-.2-.1-.3Z"/>
          <path id="text40" class="cls-11" d="M22.7,13.8c0,0-.2.1-.3.2-.1,0-.2,0-.3,0-.2,0-.3,0-.4-.1,0,0-.2-.2-.2-.3,0,0,0-.2,0-.2,0,0,0-.1.1-.2,0,0,.1,0,.2,0,0,0,.2,0,.3,0,.2,0,.3,0,.5,0h0c0-.2,0-.3,0-.3,0,0-.2-.1-.3-.1-.1,0-.2,0-.3,0,0,0-.1.2-.1.3h-.3c0-.1,0-.2.1-.3,0,0,.2-.1.3-.2.1,0,.3,0,.4,0,.1,0,.2,0,.4,0,0,0,.1,0,.2.1,0,0,0,.1,0,.2,0,0,0,.2,0,.3v.4c0,.2,0,.3,0,.5,0,0,0,.1,0,.2h-.3c0,0,0-.1,0-.2ZM22.7,13.1c-.2,0-.3,0-.5.1,0,0-.2,0-.2,0,0,0,0,0-.1,0,0,0,0,0,0,.1,0,0,0,.1,0,.2,0,0,.2,0,.3,0,.1,0,.2,0,.3,0,0,0,.1-.1.2-.2,0,0,0-.2,0-.3h0ZM24.5,13.4h.3c0,.2-.1.4-.2.5-.1.1-.3.2-.5.2-.2,0-.4,0-.6-.2-.2-.2-.2-.4-.2-.6,0-.2,0-.3,0-.5,0-.1.2-.2.3-.3.1,0,.3-.1.4-.1.2,0,.3,0,.5.1.1.1.2.2.2.4h-.3c0,0,0-.2-.1-.2,0,0-.2,0-.2,0-.1,0-.3,0-.4.2-.1.1-.1.3-.1.5,0,.2,0,.3.1.5,0,.1.2.2.3.2.1,0,.2,0,.3,0,0,0,.1-.2.1-.3ZM25.7,13.7v.3s-.1,0-.2,0c0,0-.2,0-.2,0,0,0,0,0-.1-.1,0-.1,0-.2,0-.3v-1h-.2v-.2h.2v-.4l.3-.2v.6h.3v.2h-.3v1c0,0,0,.1,0,.2,0,0,0,0,0,0,0,0,0,0,0,0,0,0,0,0,.1,0ZM26,12v-.3h.3v.3h-.3ZM26,14v-1.7h.3v1.7h-.3ZM26.6,13.1c0-.3,0-.5.3-.7.1-.1.3-.2.5-.2.2,0,.4,0,.6.2.2.2.2.4.2.6,0,.2,0,.4,0,.5,0,.1-.2.2-.3.3-.1,0-.3.1-.4.1-.2,0-.4,0-.6-.2-.2-.2-.2-.4-.2-.7ZM26.9,13.1c0,.2,0,.3.1.5,0,.1.2.2.4.2.1,0,.3,0,.4-.2.1-.1.2-.3.1-.5,0-.2,0-.3-.1-.5,0-.1-.2-.2-.4-.2-.1,0-.3,0-.4.2-.1.1-.2.3-.1.5ZM28.5,14v-1.7h.3v.2c.1-.2.3-.3.5-.3,0,0,.2,0,.3,0,0,0,.1,0,.2.1,0,0,0,.1,0,.2,0,0,0,.2,0,.3v1h-.3v-1c0,0,0-.2,0-.3,0,0,0-.1-.1-.1,0,0-.1,0-.2,0-.1,0-.2,0-.3.1-.1.1-.2.3-.1.4v.9h-.3Z"/>
          <path id="text40-2" class="cls-11" d="M32.6,42.1c0,0-.2.1-.3.2-.1,0-.2,0-.3,0-.2,0-.3,0-.4-.1,0,0-.2-.2-.2-.3,0,0,0-.2,0-.2,0,0,0-.1.1-.2,0,0,.1,0,.2,0,0,0,.2,0,.3,0,.2,0,.3,0,.5,0h0c0-.2,0-.3,0-.3,0,0-.2-.1-.3-.1-.1,0-.2,0-.3,0,0,0-.1.2-.1.3h-.3c0-.1,0-.2.1-.3,0,0,.2-.1.3-.2.1,0,.3,0,.4,0,.1,0,.2,0,.4,0,0,0,.1,0,.2.1,0,0,0,.1,0,.2,0,0,0,.2,0,.3v.4c0,.2,0,.3,0,.5,0,0,0,.1,0,.2h-.3c0,0,0-.1,0-.2ZM32.5,41.5c-.2,0-.3,0-.5.1,0,0-.2,0-.2,0,0,0,0,0-.1,0,0,0,0,0,0,.1,0,0,0,.1,0,.2,0,0,.2,0,.3,0,.1,0,.2,0,.3,0,0,0,.1-.1.2-.2,0,0,0-.2,0-.3h0ZM34.4,41.7h.3c0,.2-.1.4-.2.5-.1.1-.3.2-.5.2-.2,0-.4,0-.6-.2-.2-.2-.2-.4-.2-.6,0-.2,0-.3,0-.5,0-.1.2-.2.3-.3.1,0,.3-.1.4-.1.2,0,.3,0,.5.1.1.1.2.2.2.4h-.3c0,0,0-.2-.1-.2,0,0-.2,0-.2,0-.1,0-.3,0-.4.2-.1.1-.1.3-.1.5,0,.2,0,.3.1.5,0,.1.2.2.3.2.1,0,.2,0,.3,0,0,0,.1-.2.1-.3ZM35.5,42.1v.3s-.1,0-.2,0c0,0-.2,0-.2,0,0,0,0,0-.1-.1,0-.1,0-.2,0-.3v-1h-.2v-.2h.2v-.4l.3-.2v.6h.3v.2h-.3v1c0,0,0,.1,0,.2,0,0,0,0,0,0,0,0,0,0,0,0,0,0,0,0,.1,0ZM35.8,40.3v-.3h.3v.3h-.3ZM35.8,42.3v-1.7h.3v1.7h-.3ZM36.4,41.5c0-.3,0-.5.3-.7.1-.1.3-.2.5-.2.2,0,.4,0,.6.2.2.2.2.4.2.6,0,.2,0,.4,0,.5,0,.1-.2.2-.3.3-.1,0-.3.1-.4.1-.2,0-.4,0-.6-.2-.2-.2-.2-.4-.2-.7ZM36.7,41.5c0,.2,0,.3.1.5,0,.1.2.2.4.2.1,0,.3,0,.4-.2.1-.1.2-.3.1-.5,0-.2,0-.3-.1-.5,0-.1-.2-.2-.4-.2-.1,0-.3,0-.4.2-.1.1-.2.3-.1.5ZM38.3,42.3v-1.7h.3v.2c.1-.2.3-.3.5-.3,0,0,.2,0,.3,0,0,0,.1,0,.2.1,0,0,0,.1,0,.2,0,0,0,.2,0,.3v1h-.3v-1c0,0,0-.2,0-.3,0,0,0-.1-.1-.1,0,0-.1,0-.2,0-.1,0-.2,0-.3.1-.1.1-.2.3-.1.4v.9h-.3Z"/>
          <path id="text42" class="cls-1" d="M5.8,33.4l1.6-.6v.3s-1,.4-1,.4c-.1,0-.2,0-.3.1,0,0,.2,0,.3,0l1,.4v.3s-1.6-.6-1.6-.6v-.3ZM6.1,35.6c0,0-.1-.2-.2-.3,0,0,0-.2,0-.3,0-.1,0-.3.1-.4,0,0,.2-.2.3-.1,0,0,.2,0,.2,0,0,0,.1,0,.2.1,0,0,0,.1,0,.2,0,0,0,.2,0,.2,0,.2,0,.3.1.5h0c0,0,.2,0,.2,0,0,0,0-.2,0-.3,0-.1,0-.2,0-.3,0,0-.2-.1-.2-.1v-.3c.1,0,.2,0,.3.1,0,0,.1.1.2.2,0,.1,0,.2,0,.4,0,.1,0,.2,0,.3,0,0,0,.1-.1.2,0,0-.1,0-.2,0,0,0-.2,0-.3,0h-.4c-.2,0-.3,0-.5,0,0,0-.1,0-.2,0v-.3c0,0,.1,0,.2,0h0ZM6.7,35.5c0-.1,0-.3-.1-.5,0,0,0-.2,0-.2,0,0,0,0,0-.1-.1,0-.2,0-.3,0,0,0,0,.2,0,.2,0,0,0,.2,0,.3,0,0,.1.1.2.2,0,0,.2,0,.3,0h0ZM5.9,36.2h2.3s0,.3,0,.3h-2.3s0-.3,0-.3ZM5.9,38h.2c-.2-.1-.3-.3-.3-.5,0,0,0-.2,0-.3,0,0,0-.1.1-.2,0,0,.1,0,.2,0,0,0,.2,0,.3,0h1s0,.3,0,.3h-.9c0,0-.2,0-.3,0,0,0-.1,0-.2.1,0,0,0,.1,0,.2,0,0,0,.2,0,.2,0,0,.1.1.2.2.1,0,.2,0,.3,0h.9s0,.3,0,.3h-1.6s0-.2,0-.2ZM6.4,39.8v.3c-.2,0-.3-.1-.4-.2,0-.1-.1-.3-.1-.5,0-.2,0-.4.2-.6.2-.2.4-.2.6-.2.2,0,.5,0,.6.2.2.1.2.3.2.5,0,.2,0,.4-.2.5-.2.1-.4.2-.6.2,0,0,0,0,0,0v-1.2c-.2,0-.3,0-.4.2,0,0-.1.2-.1.3,0,0,0,.2,0,.3,0,0,.2.1.3.2h0ZM6.9,38.9v.9c.1,0,.2,0,.3-.1.1,0,.2-.2.2-.3,0-.1,0-.2-.1-.3,0,0-.2-.1-.3-.1h0ZM6.4,40.4v.3c0,0-.1,0-.2.1,0,0,0,.2,0,.3,0,.1,0,.2,0,.3,0,0,.1,0,.2,0,0,0,.1,0,.1,0,0,0,0-.2,0-.3,0-.1,0-.3.1-.4,0-.1.2-.2.4-.2,0,0,.1,0,.2,0,0,0,.1,0,.2.1,0,0,0,.1,0,.2,0,0,0,.2,0,.2,0,.1,0,.2,0,.3,0,0,0,.2-.1.2,0,0-.2,0-.3.1v-.3s.1,0,.2-.1c0,0,0-.2,0-.3,0,0,0-.2,0-.3,0,0,0,0-.1,0,0,0,0,0,0,0,0,0,0,0,0,.1,0,0,0,.1,0,.2,0,.1,0,.3-.1.4,0,0,0,.1-.1.2,0,0-.2,0-.2,0,0,0-.2,0-.3,0,0,0-.2-.1-.2-.2,0-.1,0-.2,0-.3,0-.2,0-.3.1-.5,0-.1.2-.2.4-.2Z"/>
          <path id="text42-2" class="cls-1" d="M34.8,18.1l2.9-1.1v.5s-1.7.6-1.7.6c-.2,0-.4.1-.6.2.2,0,.3.1.6.2l1.8.6v.5s-2.9-1.1-2.9-1.1v-.5ZM35.2,22.1c-.1-.2-.3-.3-.3-.5,0-.2-.1-.4-.1-.5,0-.3,0-.5.2-.7.2-.2.4-.3.6-.3.1,0,.3,0,.4,0,.1,0,.2.1.3.3,0,.1.1.2.2.4,0,.1,0,.3,0,.4,0,.3,0,.6.2.9h.1c.2,0,.3,0,.4-.1.1-.2.2-.4.2-.6,0-.2,0-.4-.1-.5-.1-.1-.3-.2-.4-.2v-.5c.2,0,.4.1.6.2.1.1.2.3.3.4,0,.2.1.4.1.7,0,.2,0,.4,0,.6,0,.1-.1.3-.2.3,0,0-.2.1-.3.2-.2,0-.3,0-.5,0h-.7c-.3,0-.6,0-.9,0-.1,0-.2,0-.3.1v-.5c.1,0,.2,0,.4-.1ZM36.3,22c0-.3-.2-.5-.2-.8,0-.1,0-.3-.1-.4,0,0,0-.2-.2-.2-.2-.1-.4,0-.6,0,0,.1-.1.3-.1.4,0,.2,0,.4.1.5,0,.1.2.3.3.3.2,0,.3,0,.5,0h.2ZM34.9,23.3h4s0,.5,0,.5h-4s0-.5,0-.5ZM34.9,26.5h.4c-.3-.2-.5-.6-.5-.9,0-.2,0-.3,0-.5,0-.1.1-.2.2-.3.1,0,.2-.1.4-.2.2,0,.3,0,.5,0h1.8s0,.5,0,.5h-1.6c-.2,0-.4,0-.5,0-.1,0-.2.1-.3.2,0,.1-.1.2-.1.4,0,.1,0,.3.1.4,0,.1.2.2.3.3.2,0,.4,0,.6,0h1.6s0,.5,0,.5h-2.9s0-.4,0-.4ZM35.9,29.7v.5c-.3,0-.6-.2-.8-.4-.2-.2-.3-.5-.3-.8,0-.4.1-.8.4-1,.3-.3.7-.4,1.1-.4.4,0,.8.1,1.2.4.3.3.4.6.4,1,0,.4-.1.7-.4,1-.3.3-.7.4-1.1.4h-.1s0-2.2,0-2.2c-.3,0-.5.1-.7.3-.2.2-.3.4-.2.6,0,.2,0,.3.1.5.1.1.3.2.5.3ZM36.6,28v1.6c.2,0,.4,0,.6-.2.2-.2.3-.4.3-.6,0-.2,0-.4-.2-.6-.2-.2-.4-.2-.6-.2ZM35.8,30.6v.5c0,0-.3.1-.4.2-.1.2-.2.3-.2.5,0,.2,0,.4.1.5,0,.1.2.2.3.2.1,0,.2,0,.3-.1,0-.2.1-.3.2-.5,0-.3.1-.5.2-.8.1-.3.4-.4.7-.4.1,0,.3,0,.4,0,.1,0,.2.1.3.2,0,0,.1.2.1.3,0,.1,0,.3,0,.4,0,.2,0,.4,0,.6,0,.2-.1.3-.3.4-.1,0-.3.2-.5.2v-.5c0,0,.2,0,.3-.2,0-.1.1-.3.1-.4,0-.2,0-.3-.1-.5,0,0-.2-.1-.3-.1,0,0-.1,0-.2,0,0,0-.1.1-.1.2,0,0,0,.2-.1.4,0,.2-.1.5-.2.7,0,.1-.1.2-.3.3-.1,0-.3.1-.4.1-.2,0-.3,0-.5-.1-.2-.1-.3-.2-.3-.4,0-.2-.1-.4-.1-.6,0-.3,0-.6.2-.9.2-.2.4-.4.7-.4h0Z"/>
        </g>
      </g>
    </g>
  </g>
</svg>