<?xml version="1.0" encoding="utf-8"?>
<!-- Generator: Adobe Illustrator 21.1.0, SVG Export Plug-In . SVG Version: 6.00 Build 0)  -->
<svg version="1.1" xmlns="http://www.w3.org/2000/svg" xmlns:xlink="http://www.w3.org/1999/xlink" x="0px" y="0px"
	 viewBox="0 0 200 200" style="enable-background:new 0 0 200 200;" xml:space="preserve">
<style type="text/css">
	.st0{fill:none;stroke:#B3B4B4;stroke-width:2;stroke-miterlimit:10;}
	.st1{display:none;}
	.st2{display:inline;fill:#026685;}
	.st3{display:inline;fill:#51BED1;}
	.st4{display:inline;fill:#036785;}
	.st5{display:inline;fill:#DC9D27;}
	.st6{display:inline;fill:#8FA79C;}
	.st7{display:inline;fill:#818282;}
	.st8{display:inline;fill:#E4A025;}
	.st9{display:inline;fill:#59B6D8;}
	.st10{display:inline;fill:#22AB73;}
	.st11{display:inline;fill:#478DCB;}
	.st12{display:inline;}
	.st13{fill:#036785;}
	.st14{fill:#47B649;}
	.st15{fill:#D7D924;}
	.st16{fill:#DD9627;}
	.st17{fill:#3C3A3A;}
	.st18{fill:#DE6A26;}
	.st19{display:inline;fill:none;stroke:#40403F;stroke-width:3;stroke-miterlimit:10;}
	.st20{fill:#25A549;}
	.st21{fill:#026685;}
	.st22{font-family:'Arial-BoldMT';}
	.st23{font-size:74.4333px;}
	.st24{fill:#E4A025;}
	.st25{fill:#F7941D;}
	.st26{display:inline;fill:#58B5D6;}
	.st27{fill:#60BDDD;}
	.st28{fill:#787878;}
	.st29{fill:none;stroke:#4B4B4B;stroke-miterlimit:10;}
	.st30{display:inline;fill:none;stroke:#424242;stroke-width:2;stroke-miterlimit:10;}
	.st31{display:inline;fill:none;stroke:#424242;stroke-miterlimit:10;}
	.st32{display:inline;fill:#FFFFFF;}
	.st33{display:inline;fill:#F7941D;}
	.st34{display:inline;fill:#0EB9C8;}
	.st35{display:inline;fill:#E79324;}
	.st36{display:inline;fill:#588DCA;}
	.st37{display:inline;fill:#47B649;}
	.st38{fill:#4F4E4E;}
	.st39{fill:#E79324;}
</style>
<g id="Layer_1">
</g>
<g id="Layer_5">
	<rect class="st0" width="200" height="200"/>
</g>
<g id="Layer_3" class="st1">
	<polyline class="st2" points="22,176.3 177,176.3 177,84.5 120.3,142.9 100,109.8 67,149.9 52.7,128.9 	"/>
</g>
<g id="Layer_4" class="st1">
	<polyline class="st3" points="177,63.2 123.7,122.8 103.7,83.3 70.7,127.1 55.5,99.1 25,146.5 25.3,118.9 57.3,62 71.8,80 
		100.3,31.9 133.9,73.8 177,22.5 	"/>
</g>
<g id="Layer_6" class="st1">
	<rect x="39" y="27" class="st4" width="131.7" height="35.5"/>
	<rect x="39" y="82.8" class="st5" width="94.2" height="35.5"/>
	<rect x="39" y="138.9" class="st6" width="59.3" height="35.5"/>
</g>
<g id="Layer_7" class="st1">
	<rect x="25.7" y="27" class="st7" width="6" height="147.3"/>
</g>
<g id="Layer_8" class="st1">
	<circle class="st4" cx="75.7" cy="122.5" r="37.7"/>
	<circle class="st8" cx="149" cy="94.5" r="28"/>
	<circle class="st8" cx="80" cy="49.9" r="16.7"/>
	<circle class="st9" cx="161.2" cy="39.8" r="10"/>
	<circle class="st4" cx="161.2" cy="147.8" r="12.2"/>
</g>
<g id="Layer_9" class="st1">
	<rect x="23" y="23.1" class="st7" width="5.5" height="149.9"/>
</g>
<g id="Layer_9_copy" class="st1">
	<rect x="97.3" y="97" transform="matrix(-1.346054e-10 1 -1 -1.346054e-10 274 74)" class="st7" width="5.5" height="154"/>
</g>
<g id="Layer_10" class="st1">
	<rect x="136.9" y="32.5" class="st10" width="31.5" height="129"/>
	<rect x="87.1" y="69.9" class="st11" width="31.5" height="91.6"/>
	<rect x="37.3" y="104.1" class="st4" width="31.5" height="57.4"/>
</g>
<g id="Layer_11" class="st1">
	<g id="Layer_2" class="st12">
		<path class="st13" d="M100,21.4c-43.8,0-79.3,35.5-79.3,79.3S56.3,180,100,180s79.3-35.5,79.3-79.3S143.8,21.4,100,21.4z
			 M100,162.3c-34,0-61.6-27.6-61.6-61.6S66,39.1,100,39.1c34,0,61.6,27.6,61.6,61.6c0,0,0,0,0,0C161.7,134.7,134.1,162.3,100,162.3
			z"/>
		<path class="st13" d="M100,21.4c-43.8,0-79.3,35.5-79.3,79.3S56.3,180,100,180s79.3-35.5,79.3-79.3S143.8,21.4,100,21.4z
			 M100,162.3c-34,0-61.6-27.6-61.6-61.6S66,39.1,100,39.1c34,0,61.6,27.6,61.6,61.6c0,0,0,0,0,0C161.7,134.7,134.1,162.3,100,162.3
			z"/>
		<path class="st14" d="M64.6,62.1C53.8,72.1,47.5,86,47.3,100.7h19.9c1.5-15.5,10.6-23.1,10.6-23.1L64.6,62.1z"/>
		<path class="st15" d="M72.8,56.3l12.7,15c9.8-3.9,20.7-3.9,30.5,0l13.3-15C129.3,56.3,101.6,38.5,72.8,56.3z"/>
		<path class="st16" d="M136.9,62.1l-13.3,15.4c0,0,7.3,5.7,9.9,23.2h19.8C153.3,100.7,155.2,81.8,136.9,62.1z"/>
	</g>
	<g id="Layer_3_1_" class="st12">
		<path class="st17" d="M99.9,91.1l5.2,1.8c1.1,0.4,2.3-0.2,2.6-1.3c0,0,0,0,0-0.1l11-35.4c0.1-0.2-0.1-0.5-0.3-0.5
			c-0.2-0.1-0.4,0-0.5,0.2L98.8,88.1c-0.6,1-0.2,2.3,0.8,2.8C99.6,91,99.8,91,99.9,91.1z"/>
		<circle class="st18" cx="100" cy="100.7" r="17.3"/>
	</g>
</g>
<g id="Layer_14" class="st1">
	<rect x="20.2" y="19.8" class="st19" width="160.6" height="160.6"/>
</g>
<g id="Layer_12" class="st1">
	<g id="Layer_3_2_" class="st12">
		<polygon class="st20" points="107.6,67.1 172.2,67.1 139.9,29.8 		"/>
	</g>
	<g id="Layer_4_1_" class="st12">
		<path class="st21" d="M62.2,168.6H48v-65.3c-5.3,6-11.6,10.5-18.5,13.2v-15.8c4.4-1.9,8.5-4.8,12.1-8.4c4.1-3.7,7.2-8.7,9-14.4
			h11.6V168.6z"/>
		<path class="st21" d="M94.7,77.9c6.6-0.4,12.8,3.1,16.9,9.4c4.8,7.4,7.3,19.7,7.3,36.8s-2.4,29.4-7.3,36.8
			c-4.1,6.2-10.3,9.6-16.9,9.3c-6.9,0.2-13.4-3.5-17.5-10.2c-4.4-6.8-6.7-18.8-6.7-36.2c0-17,2.4-29.3,7.3-36.8
			C81.9,80.8,88.2,77.5,94.7,77.9z M94.7,92.2c-1.7,0-3.3,0.7-4.6,2c-1.7,2-2.8,4.5-3.2,7.3c-1.2,7.4-1.7,15-1.5,22.6
			c-0.2,7.3,0.2,14.7,1.3,21.9c0.4,3,1.6,5.7,3.3,7.9c2.7,2.6,6.5,2.6,9.2,0c1.6-1.9,2.7-4.5,3.1-7.2c1.2-7.5,1.7-15.1,1.4-22.7
			c0.2-7.3-0.2-14.7-1.3-21.9c-0.5-3-1.6-5.7-3.3-7.9C98,93,96.4,92.2,94.7,92.2z"/>
		<text transform="matrix(0.775 0 0 1 121.6387 167.9785)" class="st21 st22 st23">%</text>
	</g>
</g>
<g id="Layer_13" class="st1">
	<g id="Layer_3_3_" class="st12">
		<polygon class="st13" points="35.3,111.3 24.3,102.3 42,64 70.4,94.3 95.6,67.9 121.3,80.4 147.9,24.3 177,40.2 177,56 153,43.1 
			126.7,99.4 98.4,84.7 70.3,114.4 45.4,87.8 		"/>
		<polygon class="st24" points="46.4,101 32.8,124.8 44.6,131.7 56.2,110.8 		"/>
		<polygon class="st24" points="86.3,67.7 95.9,58.7 83.4,36.7 61.8,74.9 70.9,84.4 83.3,63 		"/>
		<polygon class="st24" points="102.4,97.1 130.3,144.2 148.7,114.4 164.9,177.7 177,173.4 151.9,80.4 129.5,119.3 123.6,107.5 		
			"/>
	</g>
</g>
<g id="Layer_15" class="st1">
	<g id="Layer_2_1_" class="st12">
		<g>
			<polygon class="st25" points="104.5,47.6 87.9,71.5 87.9,162.5 119.5,162.5 119.5,70.2 			"/>
			<polygon class="st25" points="103.7,34 119.5,56.5 119.5,29.2 87.9,29.2 87.9,56.5 			"/>
		</g>
		<g>
			<polygon class="st25" points="157.6,110.8 169.1,104.2 169.1,86.7 140.7,86.7 			"/>
			<polygon class="st25" points="153.3,121 137.4,97.2 137.4,162.5 169.1,162.5 169.1,112.7 			"/>
		</g>
	</g>
	<g id="Layer_3_4_" class="st12">
		<g>
			<polygon class="st13" points="54.9,116.2 37.9,105.7 37.9,162.5 69.5,162.5 69.5,95.1 			"/>
			<polygon class="st13" points="52.2,104.3 69.5,79.7 69.5,46 37.9,46 37.9,96.6 			"/>
		</g>
	</g>
</g>
<g id="Layer_16" class="st1">
	<polygon class="st26" points="137.4,97.2 153.3,121 169.1,112.7 169.1,162.5 137.4,162.5 	"/>
	<polygon class="st26" points="140.7,86.7 157.6,110.8 169.1,104.2 169.1,86.7 	"/>
</g>
<g id="Layer_17" class="st1">
	<g id="Layer_2_2_" class="st12">
		<path class="st13" d="M99.9,100.3L81,23.2c-42.6,10.4-68.6,53.4-58.2,96s53.4,68.6,96,58.2c29-7.1,51.6-29.9,58.4-59L99.9,100.3z"
			/>
	</g>
	<g id="Layer_3_5_" class="st12">
		<path class="st25" d="M106.3,88.8l55.1-38.7C146.3,31.6,123.7,20.9,99.9,21c-3.2,0-6.3,0.2-9.4,0.6L106.3,88.8z"/>
	</g>
	<g id="Layer_4_2_" class="st12">
		<path class="st27" d="M115.1,94.7l63.7,13.9c0.3-2.7,0.4-5.5,0.4-8.3c0-15.5-4.5-30.8-13.1-43.7L115.1,94.7z"/>
	</g>
</g>
<g id="Layer_18" class="st1">
	<g id="Layer_2_3_" class="st12">
		<path class="st28" d="M31.5,21.5H169c4.7,0,8.5,3.9,8.5,8.6v22.3l0,0H22.9l0,0V30.1C22.9,25.4,26.8,21.5,31.5,21.5z"/>
		<path class="st28" d="M22.9,64v114.5h154.6V64H22.9z M167.3,169.2H33V73.9h134.3V169.2z"/>
	</g>
	<g id="Layer_3_6_" class="st12">
		<rect x="129.9" y="141.9" class="st29" width="5.5" height="3.4"/>
		<rect x="137.8" y="141.9" class="st29" width="5.5" height="3.4"/>
		<rect x="145.3" y="141.9" class="st29" width="5.5" height="3.4"/>
		<rect x="129.9" y="147.1" class="st29" width="5.5" height="3.4"/>
		<rect x="137.8" y="147.1" class="st29" width="5.5" height="3.4"/>
		<rect x="145.3" y="147.1" class="st29" width="5.5" height="3.4"/>
		<rect x="129.9" y="152" class="st29" width="5.5" height="3.4"/>
		<rect x="137.6" y="152" class="st29" width="6" height="3.4"/>
		<rect x="145.1" y="152" class="st29" width="6" height="3.4"/>
	</g>
</g>
<g id="Layer_19" class="st1">
	<rect x="41.3" y="82.3" class="st30" width="31.1" height="20"/>
	<rect x="41.3" y="111" class="st30" width="31.1" height="20"/>
	<rect x="41.3" y="140" class="st30" width="31.1" height="20"/>
</g>
<g id="Layer_19_copy" class="st1">
	<rect x="83.9" y="82.3" class="st30" width="31.1" height="20"/>
	<rect x="83.9" y="111" class="st30" width="31.1" height="20"/>
	<rect x="84" y="140" class="st31" width="30.7" height="20"/>
</g>
<g id="Layer_19_copy_2" class="st1">
	<rect x="126.3" y="82.3" class="st30" width="31.7" height="20"/>
	<rect x="126.8" y="111" class="st30" width="31.1" height="20"/>
	<rect x="127.3" y="140" class="st31" width="30.7" height="20"/>
</g>
<g id="Layer_25" class="st1">
	<rect x="82" y="107.8" class="st32" width="78.3" height="53.8"/>
</g>
<g id="Layer_22" class="st1">
	<rect x="126.1" y="139.1" class="st2" width="33.1" height="21.9"/>
</g>
<g id="Layer_22_copy" class="st1">
	<rect x="82.9" y="139.1" class="st33" width="33.1" height="22"/>
</g>
<g id="Layer_24" class="st1">
	<g id="Layer_2_4_" class="st12">
		<path class="st13" d="M156.7,144.3h2.3l-3.4,15.7H83.9v-1.5l26.9-22.8l-26.9-24.5v-1.8h70.4l1.1,12.8h-1.9c0,0,0.2-9.7-10.9-9.5
			h-44l21.8,19.7l-25.2,20.7h46.3C141.5,153.1,154.3,153.5,156.7,144.3z"/>
	</g>
</g>
<g id="Layer_26" class="st1">
	<polyline class="st4" points="103.5,111.3 129,134.6 103.5,155.4 91,155.4 117.5,134.7 91,111.3 	"/>
	<path class="st4" d="M106.8,150.5h38.6c0,0,6.4-0.2,11-5.2l-2,10.1l-51.5-0.8L106.8,150.5z"/>
	<path class="st4" d="M106,115.7h40.8c0,0,4.9,0,6.5,4.6l-1.1-9h-49.7v2.5L106,115.7z"/>
</g>
<g id="Layer_27" class="st1">
	<rect x="23.5" y="22" class="st34" width="58" height="45.9"/>
	<rect x="92.6" y="22" class="st35" width="35.9" height="92.7"/>
	<rect x="141.9" y="22" class="st36" width="35.6" height="92.7"/>
	<rect x="23.5" y="78.5" class="st4" width="58" height="99"/>
	<rect x="92.6" y="125.7" class="st37" width="84.9" height="51.8"/>
</g>
<g id="Layer_28">
	<g id="Layer_2_5_">
		<path class="st38" d="M101.6,18c-11.1,0-20.1,9.9-20.2,22.1c0,12.2,19.2,47.9,20.2,47c1-1,20.2-34.8,20.2-47
			C121.8,27.9,112.8,18,101.6,18z M101.1,54c-6.9,0-12.6-6.2-12.6-13.8s5.6-13.8,12.6-13.8c6.9,0,12.6,6.2,12.6,13.8
			S108.1,54,101.1,54z"/>
	</g>
	<g id="Layer_3_7_">
		<path class="st39" d="M101.6,157.8c0.1,1.3,0.4,2.5,0.8,3.8c0.3,0,1.2,2.2,1.2,2.2c0.1,0.7,0.3,1.4,0.6,2c0.3,0.4,0.4,1.2,0.7,1.2
			c1.1,1,2.7,1.2,4,0.5c0,0,1-1.2,1-1.5c0.3-1,0.9-1.9,1.6-2.6c0.8-0.9,1.6-1.3,1.9-2c0.2-0.5,0.2-1,0-1.4l0.2-1l2-1.1
			c0,0-0.4-0.2,0-0.5c0.4-0.3,0.2-0.6,0-1.3c-0.2-0.8-1-1.8-1-2.1s-0.3-0.5,0.1-0.9c0.4-0.4,1.7-0.8,1.7-1.1
			c0.1-1.3,0.5-2.5,1.2-3.6c0.7-0.6,2.3-1.6,2.3-1.6s1.2-1,0.8-1.3c-0.6-0.4-1.2-0.6-1.9-0.8l-3.3-1.2l-0.3-1.2l-1.6-2l-0.3-2.2
			c0,0-0.8,0.1-0.7-1c0.1-1,0.1-2.3,0.1-2.3l-1-0.9c-0.7-0.1-1.4-0.1-2.1,0c-0.5,0.2-0.6,0.5-1.4,0.7c-0.8,0.2-2,0.4-2,0.4v-1.1
			c0,0-1.6-0.5-1.6,0c0,0.5-0.8,0.8-1.1,0.8s-1.7,0.5-1.8-0.1c-0.2-0.8-0.5-1.6-0.9-2.3l-2-0.6h-3.2c-0.4,0.2-0.9,0.4-1.2,0.7
			c-0.2,0.3,0.4-0.9-1.3,1.2c-1.3,1.7-2.9,3.2-4.6,4.5c-0.4,0.1-1.3,0.4-1.3,1.2c-0.1,0.7-0.1,1.5,0,2.2c0.4,1.3,0.9,2.7,1.4,3.9
			c0,0-1.4-0.2,0.6,0.7c1,0.5,2.1,0.9,3.2,1.2c1.2,0.3,2.4,0.5,3.6,0.6l2.5,0.2l2.3,0.5c0,0,0.8,0.9,0,1.3l-0.8,0.4
			c0,0-0.4,1.2,0.1,1.4c0.5,0.3,1.5,0.8,1.5,0.8l0.7,1v1.9c0,0.8,0.6,1.3,0,1.9L101.6,157.8z"/>
		<path class="st13" d="M73.3,178.5l-1.1-0.6c0,0-1.9-1.5-1.9-2s-0.8-1-0.8-1.9s0.5-2.8,0.5-3.6c0-1.7,0.2-3.3,0.4-5
			c0.3-1.3-0.3-1.9,0.3-3c0.6-1,0-1.2,0.7-1.9c0.5-0.5,0.8-1.1,0.8-1.8c0.1-1,0.4-1.3,0-1.7c-0.4-0.4-2.3,0-2.7-0.5
			c-0.4-0.5-1.9-0.9-1.9-3c0-2.1-0.9-2.6-0.9-3.7c0.1-0.8,0.3-1.6,0.8-2.3l1.1-2.2h-2.8c0,0-1.2,0.9-1.3,0c-0.3-0.8-0.8-1.6-1.5-2.2
			c0,0-3.9,0.1-4.1-1.2l-0.1-1.3l-3-1.3l-2.6-1.8v-0.6h-2.4l-2-3.3c0,0-2-0.4-2-1.2c0-0.8-0.7-1.8-0.7-2.2c0-0.4-0.8-1.2-0.8-1.8
			v-3.7c-0.3-0.3-0.5-0.7-0.5-1.2c-0.1-0.6-0.4-1.1-0.8-1.5h-1.6c0,0-1.9-0.6-1.9-1.2v-2.3l-2.2-1.2l-4.1-0.6h-1
			c-0.7,0.2-1.3,0.6-1.8,1.2c-0.9,1-2,1.8-3.2,2.4c-0.4,0.3-3.2,1.3-3.2,1.3l-2.4,0.8l4.5-3.6l-0.9-2c0,0-1.2-2.4-1.3-2.8l-1-2.7
			c0.1-0.6,0.3-1.1,0.5-1.7c0.6-0.8,1.4-1.5,2.4-1.8c0.6-0.1,1.2-0.1,1.8,0c0.9,0.1,1.8,0.1,2.7,0c2.8,0.3,5.5,0.8,8.2,1.5h0.8
			c2.8,0,5.9-0.1,6.4-0.1c0.5,0,0.9,0.1,1.3,0.2l0.8,0.2l-3.8-2.6c-0.1-0.6-0.1-1.2-0.1-1.8c0-0.9-0.5,0.3,0-0.9s1.1-1.5,1.9-1.5
			s1.2,0.5,1.9,0c0.7-0.5,5.3-2.2,6.1-2.7c0.8-0.5,4.9-1.4,5.8-1.8c0.8-0.4,1.6-0.7,2.4-0.9c1.5-0.4,1.3-0.8,3.2-1.3s0.7-1,3.6-1
			h3.5l0.8,1.2c-0.7,0.4-1.3,0.9-1.8,1.4c-0.3,0.4-5.3,5-5.3,5s-0.4,0.6,0,0.8s8.2,7.2,8.2,7.2l0.8,0.5c0,0.9-0.4,1.8-1.1,2.4
			c-1.1,0.8-3.4-0.1-3.4-0.1h-3.8c0,0-0.3-1.3,0.1-1.8c0.3-0.6,0.6-1.3,0.7-2c0,0-1.6-1-1.9-0.4c-0.3,0.6-1.3-0.3-0.8,1.4
			c0.3,1,0.5,2.1,0.5,3.2l-2.8,0.1c0,0-1.5-0.5-1.9,0.4c-0.5,0.8-1.2,1.6-2,2.2c0.5,0.6,1.2,1,2,1.3c0.8,0.1,1.5,0.3,2.2,0.6
			c0.4,0.3,0.7-0.1,1.2,1c0.4,0.7,0.9,1.4,1.6,1.8c0,0,0.8,0.3,0.9-0.8c0.1-1,0.4-2.4,0.4-3.1s-0.7-2.2-0.1-2.4
			c0.6-0.2,6.6,1.5,6.6,1.5l4.3,5.3v1.3l-3.8,1l-3.1,1.8l0.5,2.4l-1.8,0.1l-1.5,2.4l-1.6,1.7l-0.3,1.4l0.3,2l-2,0.1l-0.7-1.3
			l-1.3-1.5l-1.8,0.4l-2.4,1.2l-0.3,1.9l-0.1,1.5l2,1c0,0,0.8-2,1.5-2c0.7,0,1.1,1.9,0.9,2.4c-0.1,0.6-0.2,1.2-0.1,1.8h1.8l0.5,1
			c0,0-1.3,0.9-0.4,0.9s3.4,0.6,3.8,0.5c0.4-0.1,0.8-1,1.5-1.3c0.7-0.2,1.8-0.8,2-0.1c0.2,0.5,0.6,0.9,0.9,1.3
			c1.1-1.1,3-1.2,4.2-0.2c0.1,0,0.1,0.1,0.2,0.2l-0.4,0.9c0,0-0.1,0.5,0.7,0.8c0.8,0.2,1.6,0.3,2.4,0.4c0,0,0.9,0,0.9,0.5s0,2,0,2
			l1.8-0.1l1.5,0.3l2.3,1.7l1,0.6l1.2,0.8l-0.5,1.8l-0.5,2l0.3,2.7l-1.4,0.6L76,169.1c0,0-1.5,0.8-1.6,1.5c-0.1,0.8-0.8,0.6-0.1,0.8
			c0.5,0.1,1,0.4,1.3,0.8l-0.4,1.4c0,0-2.2-1.3-2,0.6c0,0.9,0.2,1.9,0.7,2.7l0.7,1.5L73.3,178.5z"/>
		<path class="st13" d="M78,105.6l1.6,4.7c0,0-0.7,0.5,0.5,2.2c1.2,1.7-0.4,0.9,1.3,2.4c1,0.9,2.3,1.5,3.7,1.5l1.2-0.8v-1.7
			c0,0-1.1-0.8,0-1.2c1.1-0.4,1.6-1,2.8-1.2c0.9-0.1,1.7-0.3,2.4-0.7l2-1l0.9-1.4v-1.5c0,0-3.1-6.7-3.1-7.2
			c-0.3-0.9-0.7-1.7-1.2-2.4l-1.1-1.8c0,0,0.8-1.2-0.8-0.8s-4.3,0.8-4.3,0.8H80c0,0-2.4,0.8-3,0.9c-0.5,0.1-3.4,1.3-3.4,1.8
			c-0.1,0.9-0.3,1.8-0.6,2.7c-0.3,0.4-1.3,1.5-1.3,1.5s-0.1,0.4,0.5,0.9c0.6,0.4,1.4,0.6,2.2,0.5c0.9,0,1.1-0.4,1.9-0.4
			s1.1-0.4,1.6,0C78.4,104,78,105.6,78,105.6z"/>
		<path class="st20" d="M122.9,129.3l2.2,0.8v1.5c0,0-2.2,0.9-2.2,1.3s-3.9,1.4-3.9,1.4c-0.1-0.9-0.5-1.7-0.9-2.5
			c-0.8-1.2-1.3-0.7-2.4-3.1c-1.1-2.4-1.1-0.6-1.1-1.8v-2c0,0-0.1-0.1,0-1c0.1-0.7,0.1-1.4,0-2c0,0-1.4,0.3-1.3,1s-2.6,0.5-2.6,0.5
			l0.5-1.5l-1.8,0.6l-1.5-0.6l-0.8-2.9l-1.8-2.5l-1,1c0,0,0.1,1.3,0.6,1.5c0.4,0.3,0.7,0.6,1.1,0.9c0.1,0.5,0.1,0.9,0,1.4
			c-0.1,0.2-1.1,0.1-1.1,0.1c0.1-0.8-0.3-1.5-1-1.9l-1.2-1l-2.6,0.8c-1,0.6-1.9,1.3-2.8,2c0,0.2-1.6,1.4-1.6,1.4s-0.5,0.4-0.5,0.1
			c0-0.3-1.1-1.5-0.6-1.9c0.5-0.3-0.7-2-0.1-2c0.6,0,3.4,0.2,3.4,0.2v-1.5l-0.9-1.3l0.5-1.3c0,0,0.3,0.3,1.6,0s2.1-0.1,2.5-0.7
			c0.3-1.1,0.3-2.2,0.2-3.3c0,0,0-1.2,0.1-1.1c0.7,0.7,1.4,1.5,2,2.3l2.4-0.1c0,0,1.8-2.3,2.2-2.2c1.2-0.4,2.3-0.9,3.4-1.5h-4.2
			l0.4-2.6c1.3-0.6,2.1-1.8,2.4-3.1l1.1-3.7c1.1,0.3,2.2,0.8,3.2,1.3c0.8,0.5,0.9,0.6,1.6,1c0.7,0.4,1.6,1.2,0.9,1.4
			c-0.8,0.1-1.5,0.1-2.3,0c0,0-3.4,0.2-3.2,0.8c0.1,0.5,3.1,2.3,3.1,2.3s-0.8,2.6,1.9,0c1.1-1.3,2.5-2.5,3.9-3.4
			c1.1-0.4,2.2-0.6,3.4-0.8l0.8-0.6l-2.4-1.9c0,0,0.4-2.7,0.9-2.8c0.5-0.1,5.7-2,5.7-2s1.5,0.4,0.7,0.9c-0.8,0.5-5.1,2.3-5.1,2.3
			s-0.7,0.9,0,1.5s0.5,1,1.6,2l1.1,1c0.4-0.3,0.6-0.7,0.7-1.2c0.3-0.9,2-2.2,2-2.2c1.2-0.1,2.4,0,3.5,0.3c0.5,0.4,2.3-0.9,2.3-0.9
			s8.1-4.6,9.3-3.9c1.2,0.5,2.6,0.8,3.9,0.9c0,0-2.8,2.3-2.8,2.8c0,0.5-0.9,1.2-0.9,1.2l13.8,1.2c0,0,1.8-3.1,2.6-2.7
			c0.6,0.4,1,0.9,1.2,1.5l3.1,0.6c0.7,0.1,3.2,0.5,3.2,0.5s0.9,0.9,1.6,0.9h4.5c0.5,0,1-0.1,1.5-0.3v7.2l-5.8,0.5l0.3,1.8l-2.9,4.7
			l-0.4-3.2l1.2-2.3c0,0,0.3-0.5-1.3-0.5c-1.6,0-4.9,0.1-4.9,0.1s-0.4,1-2.4,1.8c-2,0.8-3.9-0.1-2.7,0.9c1.2,1,0.1,0.9,1.2,1
			c0.8,0.1,1.5,0.1,2.3,0c0,0-0.1,2,0.3,2.2c0.4,0.1,0.9,1.8,0.3,1.5c-0.8-0.1-1.5-0.1-2.3,0l-0.7,2.6l-2,1.2l-0.1,2.7
			c0,0-2.4,1.5-2.4,1.2c-0.4-0.9-0.8-1.7-1.3-2.4c0,0-1.5,0.1-1.3,1c0.1,0.9,0.8,5.5,0.8,5.5l-3.5,1.3l-2.6,2.2
			c0.2,0.8,0.5,1.5,0.8,2.2c0.3,0.4,0.1,1.5-0.3,1.5h-2.6l-0.3-1.3c0,0-3-0.4-2.3,0.5c0.8,0.8,1.6,1.5,2.6,2.1l1.5,1.2l-2.3,1l2,2.4
			c0,0,0.1,1.4,0.5,1.5l3.6,1.3l-3.8,1.4l-2-2.4l-0.9-1.3l-1.8-2.6l-1.1-1.3l1.8-0.8c0,0-0.5-0.8-0.9-1.4c-0.5-1.1-1-2.2-1.2-3.3
			c0-0.4-0.1-1.4-0.1-1.8c-0.3-0.9-0.7-1.8-1.1-2.7l-1.8,1.5l-0.4,2.6l-2.8,1.2l0.5,2.6l-1.6,0.1l-1.8-1.2l-0.8-2.6l-1.8-3.7
			l-4.2-1.8l-3.2-0.3v0.8L122.9,129.3z"/>
		<path class="st20" d="M161.1,118c0,0-0.2,2-0.2,2c0,0.5-0.1,0.9-0.2,1.3c-0.1,0.3-2,0.9-2.8,1.6c-0.8,0.7-1.9,1.1-2,1.5
			c-0.1,0.5-0.7,1.1,0,1.1c0.7-0.1,1.4-0.4,1.9-0.9c0.4-0.2,1-0.8,1.6-0.9s1.5,0.1,1.6-0.3c0.1-0.5,0-0.7,0.2-1.2
			c0.1-0.5,0.5-1,1.1-1.2c0.5-0.4,0.9-0.8,1.3-1.3l-1.4-0.6l-0.7-1.2h-0.6"/>
		<path class="st20" d="M168,116.7l-1.8,0.7l-0.6,0.2h-1.5c0,0-0.5-0.2,0.2-0.5l1.4-0.5c0-0.3,0.1-0.5,0.3-0.8
			c0.4-0.2,0.7-0.3,1.1-0.4c0,0,0.1-0.1,0.3,0c0.2,0.1,0.7,0.1,0.6,0.4"/>
		<path class="st20" d="M96.7,109.6c0.3,0.6,0.6,1.1,1,1.5c0.2,0,0.5,0,0.6,0.6s0.8,2.3,0.8,2.3l-1.9-0.6c-0.2-0.4-0.4-0.8-0.6-1.2
			c-0.2-0.3-1-1.8-1-1.8L96.7,109.6z"/>
		<path class="st20" d="M94.3,112.5c0,0-1.5,1.5-1.2,1.5c0.3,0,0,0.3,0.6,0.4c0.5,0,0.9,0,1.4,0c0,0-0.3,0,0-0.6s0.4-0.1,0.3-0.6
			C95.3,112.6,94.3,112.5,94.3,112.5z"/>
		<path class="st20" d="M151.5,139.1l-0.3-0.8l-0.9-1l-1.2,0.3l-0.4,1.4l-0.9,1v1.8h0.9c0.2,0,1,0.9,1,0.9l1-0.9
			c-0.1-0.4-0.1-0.7,0-1.1c0.3-0.3,0.6-0.6,0.9-0.8L151.5,139.1z"/>
		<path class="st20" d="M155.1,140c0,0-1.4-0.5-1.6-0.3s-1.2,0.6-1.1,1.1c0.2,0.4,0.3,0.9,0.3,1.4c0,0.4-0.1,0.8-0.3,1.2l0.9-0.6
			c0,0,0-0.4,0.1-0.6c0.2-0.4,0.5-0.8,0.8-1.1C154.6,140.7,154.9,140.4,155.1,140z"/>
		<path class="st20" d="M161.5,125.7c-0.4,0.4-0.6,1-0.5,1.5c0.3,0.8-0.1,1,0.5,1.7c0.4,0.4,0.6,0.8,0.7,1.3l0.9-0.4
			c0,0,0.8-0.4,0.6-0.7c-0.3-0.4-0.9-1.1-0.9-1.1s-0.6,0-0.5-0.3c0.1-0.3,0.1-0.5,0-0.8L161.5,125.7z"/>
		<path class="st20" d="M157.7,141.5l4.2,1.2l3.2,0.6v2.3l-1.6-0.8l-3-0.4c0,0-2.2,0-2.2-0.5s0.2,0.4,0-0.4S157.7,141.5,157.7,141.5
			z"/>
		<path class="st20" d="M162.3,145.6l-1.4,4.1l-3.2-3.2l-7.4,4.5c0,0-1.8,0.3-1.6,1.5c0.1,1.3,1.6,1.9,2.2,2.6
			c0.5,0.6-2.3,0.1-1.2,1.9s2.4,0.6,4.1,0.5l3.1-0.3c0,0-0.9-2.7-0.3-2.2s3.6,4.4,4.9,4.7c0.8,0.2,1.6,0.2,2.4,0
			c0.5-0.6,1-1.3,1.4-2c0.1-0.5,2.1-2.4,2.1-3.3c-0.3-1.7-1-3.4-2.1-4.8C164.1,148.4,163.1,147.1,162.3,145.6z"/>
		<path class="st20" d="M174.4,156.5l0.8,1.5c0,0-0.3-0.1,0,0.8s-0.8,2.7-0.8,2.7h-1.1c0,0-2.6,1.4-2,2.2c0.5,0.8,0.4,0.9,1.2,1.3
			c0.8,0.4,0.3,0.1,1.3,0c1.1-0.1,0.4-0.3,1.4-0.9c0.9-0.5,1.5-1.3,1.7-2.2c0.1-0.6,0.1-1.3,0-1.9c-0.4-1.3-1-2.4-1.8-3.5"/>
	</g>
</g>
</svg>
