<svg xmlns="http://www.w3.org/2000/svg" width="50" height="50" viewBox="0 0 50 50">
  <g id="Group_3281" data-name="Group 3281" transform="translate(-284 -1247)">
    <g id="Rectangle_208" data-name="Rectangle 208" transform="translate(284 1247)" fill="none" stroke="#d3d3d3" stroke-width="1">
      <rect width="50" height="50" rx="6" stroke="none"/>
      <rect x="0.5" y="0.5" width="49" height="49" rx="5.5" fill="none"/>
    </g>
    <g id="Group_3131" data-name="Group 3131" transform="translate(125 -2062)">
      <path id="Path_50" data-name="Path 50" d="M89.983,136.853a3.388,3.388,0,0,0,.158.751c.059,0,.237.434.237.434a1.31,1.31,0,0,0,.119.395c.059.079.079.237.139.237a.688.688,0,0,0,.79.1s.2-.237.2-.3a1.251,1.251,0,0,1,.318-.514c.158-.178.318-.256.375-.395a.337.337,0,0,0,0-.276l.039-.2.395-.217s-.079-.039,0-.1.039-.119,0-.256c-.039-.158-.2-.356-.2-.415s-.059-.1.02-.178.336-.158.336-.217a1.522,1.522,0,0,1,.237-.71,5.232,5.232,0,0,1,.454-.318s.237-.2.158-.256a1.26,1.26,0,0,0-.375-.158l-.651-.237-.059-.237-.318-.395-.059-.434s-.158.02-.139-.2c.02-.2.02-.454.02-.454l-.2-.178a1.458,1.458,0,0,0-.415,0c-.1.039-.119.1-.276.138s-.395.079-.395.079v-.217s-.318-.1-.318,0-.158.158-.217.158-.336.1-.356-.02a1.811,1.811,0,0,0-.178-.454l-.4-.118h-.635a.933.933,0,0,0-.237.139c-.039.059.079-.178-.256.237a4.839,4.839,0,0,1-.908.888c-.079.02-.256.079-.256.237a1.6,1.6,0,0,0,0,.434c.079.256.178.529.276.77,0,0-.276-.039.119.138a3.463,3.463,0,0,0,.635.237,4.447,4.447,0,0,0,.71.119l.493.039.454.1s.158.178,0,.256l-.158.079s-.079.237.02.276c.1.059.3.158.3.158l.139.2v.375c0,.158.119.256,0,.375Z" transform="translate(89.86 3211.739)" fill="#ffaf6d"/>
      <path id="Path_51" data-name="Path 51" d="M32.61,111.564l-.217-.119s-.375-.3-.375-.395-.158-.2-.158-.375.1-.553.1-.71a8.314,8.314,0,0,1,.079-.987c.059-.256-.059-.375.059-.592.119-.2,0-.237.139-.375a.494.494,0,0,0,.158-.356c.02-.2.079-.256,0-.336s-.454,0-.529-.1-.375-.178-.375-.592-.178-.513-.178-.731a.966.966,0,0,1,.158-.454l.217-.434h-.553s-.237.178-.256,0a1.068,1.068,0,0,0-.3-.434s-.77.02-.809-.237l-.02-.256-.592-.256-.514-.356v-.119h-.474l-.395-.651s-.395-.079-.395-.237-.139-.356-.139-.434-.158-.237-.158-.356v-.731a.327.327,0,0,1-.1-.237.543.543,0,0,0-.158-.3h-.318s-.375-.119-.375-.237V99.72l-.434-.237-.809-.119h-.2a.711.711,0,0,0-.356.237,2.124,2.124,0,0,1-.635.474,6.1,6.1,0,0,1-.635.256l-.474.158.888-.71-.178-.395s-.237-.474-.256-.553l-.2-.529a2.158,2.158,0,0,1,.1-.336.953.953,0,0,1,.474-.356,1.074,1.074,0,0,1,.356,0,2.4,2.4,0,0,0,.529,0,11.133,11.133,0,0,1,1.619.3h.163c.553,0,1.165-.02,1.263-.02a1,1,0,0,1,.256.039l.158.039-.751-.514A2.146,2.146,0,0,1,27,97.1c0-.178-.1.059,0-.178s.217-.3.375-.3.237.1.375,0,1.046-.434,1.2-.529.968-.276,1.145-.356a2.315,2.315,0,0,1,.474-.178c.3-.079.256-.158.635-.256s.139-.2.71-.2h.691l.158.237a1.7,1.7,0,0,0-.356.276c-.059.079-1.046.987-1.046.987s-.079.119,0,.158,1.619,1.422,1.619,1.422l.158.1a.635.635,0,0,1-.217.473c-.217.158-.671-.02-.671-.02H31.5s-.059-.256.02-.356a1.34,1.34,0,0,0,.139-.395s-.318-.2-.375-.079-.256-.059-.158.276a2.223,2.223,0,0,1,.1.635l-.553.02s-.3-.1-.375.079a1.645,1.645,0,0,1-.395.434.917.917,0,0,0,.395.256,1.569,1.569,0,0,1,.434.119c.079.059.139-.02.237.2a.917.917,0,0,0,.318.356s.158.059.178-.158c.02-.2.079-.474.079-.612s-.139-.434-.02-.474a9.174,9.174,0,0,1,1.3.3l.847,1.046v.256l-.751.2-.612.356.1.474-.356.02-.3.473-.318.336-.059.276.059.395-.395.02-.139-.256-.256-.3-.356.079-.474.237-.059.375-.02.3.395.2s.158-.395.3-.395.217.375.178.474a1.079,1.079,0,0,0-.02.356h.356l.1.2s-.256.178-.079.178.671.119.751.1.158-.2.3-.256c.139-.039.356-.158.395-.02a1.187,1.187,0,0,0,.178.256.635.635,0,0,1,.829-.039c.02,0,.02.02.039.039l-.079.178s-.02.1.139.158a3.949,3.949,0,0,0,.474.079s.178,0,.178.1v.395l.356-.02.3.059.454.336.2.119.237.158-.1.356-.1.395.059.529-.276.119-2.151,2.05s-.3.158-.318.3c-.02.158-.158.119-.02.158a.439.439,0,0,1,.256.158l-.079.276s-.434-.256-.395.119a1.025,1.025,0,0,0,.139.529l.139.3Z" transform="translate(141.647 3241.114)" fill="#ffaf6d"/>
      <path id="Path_52" data-name="Path 52" d="M72.939,96.786l.318.927s-.139.1.1.434-.079.178.256.474a1.1,1.1,0,0,0,.731.3l.237-.158v-.336s-.217-.158,0-.237a2.744,2.744,0,0,1,.553-.237,1.207,1.207,0,0,0,.474-.139l.395-.2.178-.276v-.3s-.612-1.322-.612-1.422a1.775,1.775,0,0,0-.237-.474l-.217-.356s.158-.237-.158-.158-.847.158-.847.158h-.77s-.474.158-.592.178c-.1.02-.671.256-.671.356a2.587,2.587,0,0,1-.119.529c-.059.079-.256.3-.256.3s-.02.079.1.178a.649.649,0,0,0,.434.1c.178,0,.217-.079.375-.079s.217-.079.318,0C73.017,96.471,72.939,96.786,72.939,96.786Z" transform="translate(102.246 3241.5)" fill="#ffaf6d"/>
      <path id="Path_53" data-name="Path 53" d="M101.05,102.321l.517.188v.353s-.517.212-.517.305-.917.329-.917.329a1.767,1.767,0,0,0-.212-.588c-.188-.283-.305-.165-.565-.729s-.259-.141-.259-.424v-.471s-.024-.024,0-.235a1.575,1.575,0,0,0,0-.471s-.329.071-.305.235-.612.117-.612.117l.117-.353-.424.141-.353-.141-.188-.683-.424-.588-.235.235s.024.305.141.353c.095.071.165.141.259.212a.777.777,0,0,1,0,.329c-.024.047-.259.024-.259.024a.444.444,0,0,0-.235-.447L96.3,99.78l-.612.188a6.662,6.662,0,0,0-.659.471c0,.047-.378.329-.378.329s-.117.095-.117.024-.259-.353-.141-.447c.117-.071-.165-.471-.024-.471s.8.047.8.047v-.353l-.212-.305.117-.305s.071.071.379,0,.495-.024.588-.165a2.164,2.164,0,0,0,.047-.776s0-.283.024-.259a5.173,5.173,0,0,1,.471.541l.565-.024s.424-.541.517-.517a4.856,4.856,0,0,0,.8-.353h-.988l.095-.612a1.042,1.042,0,0,0,.565-.729l.259-.871a4.207,4.207,0,0,1,.757.305c.188.117.212.141.379.235s.379.283.212.329a2.082,2.082,0,0,1-.541,0s-.8.047-.757.188c.024.117.729.541.729.541s-.188.612.447,0a4.232,4.232,0,0,1,.917-.8,4.407,4.407,0,0,1,.8-.188l.188-.141-.565-.447s.095-.631.212-.659,1.341-.471,1.341-.471.353.095.165.212-1.2.541-1.2.541-.165.212,0,.353.117.235.379.471l.259.235a.437.437,0,0,0,.165-.283c.071-.212.471-.517.471-.517a2.4,2.4,0,0,1,.824.071c.117.095.541-.212.541-.212s1.905-1.083,2.188-.917a3.066,3.066,0,0,0,.917.212s-.659.541-.659.659-.212.283-.212.283l3.246.283s.424-.729.612-.631a.68.68,0,0,1,.283.353l.729.141c.165.024.757.117.757.117s.212.212.378.212h1.059a.943.943,0,0,0,.353-.071v1.694l-1.364.117.071.424-.683,1.105-.095-.757.283-.541s.071-.117-.305-.117-1.153.024-1.153.024-.095.235-.565.424-.917-.024-.631.212.024.212.283.235a2.085,2.085,0,0,0,.541,0s-.024.471.071.517c.095.024.212.424.071.353a2.084,2.084,0,0,0-.541,0l-.165.612-.471.283-.024.631s-.565.353-.565.283a3.194,3.194,0,0,0-.305-.565s-.353.024-.305.235c.024.212.188,1.294.188,1.294l-.824.305-.612.517a3.351,3.351,0,0,0,.188.517c.071.095.024.353-.071.353h-.627l-.071-.305s-.705-.095-.541.117a3.127,3.127,0,0,0,.612.495l.353.283-.541.235.471.565s.024.329.117.353l.847.305-.895.329-.471-.565-.212-.305-.424-.612-.259-.305.424-.188s-.117-.188-.212-.329a3.439,3.439,0,0,1-.283-.776c0-.095-.024-.329-.024-.424a6.76,6.76,0,0,0-.259-.631l-.424.353-.095.612-.659.283.117.612-.378.024-.424-.283-.188-.612-.424-.871-.988-.424-.757-.071v.188Z" transform="translate(89.38 3240.185)" fill="#fef8b7"/>
      <path id="Path_54" data-name="Path 54" d="M156.87,117.924l-.047.471a1.192,1.192,0,0,1-.047.305c-.024.071-.471.212-.659.379s-.447.259-.471.353c-.024.117-.165.259,0,.259a.8.8,0,0,0,.447-.212c.095-.047.235-.188.378-.212s.353.024.379-.071a1.181,1.181,0,0,1,.047-.283.389.389,0,0,1,.259-.283,1.881,1.881,0,0,0,.305-.305l-.329-.141-.165-.283h-.141" transform="translate(42.551 3221.93)" fill="#fef8b7"/>
      <path id="Path_55" data-name="Path 55" d="M164.885,115.672l-.424.165-.141.047h-.353s-.117-.047.047-.117l.329-.117a.313.313,0,0,1,.071-.188,1.145,1.145,0,0,1,.259-.095s.024-.024.071,0,.165.024.141.095" transform="translate(36.154 3223.876)" fill="#fef8b7"/>
      <path id="Path_56" data-name="Path 56" d="M95.859,109.6a1.317,1.317,0,0,0,.235.353c.047,0,.117,0,.141.141a4.376,4.376,0,0,0,.188.541l-.447-.141-.141-.283c-.047-.071-.235-.424-.235-.424Z" transform="translate(88.408 3228.277)" fill="#fef8b7"/>
      <path id="Path_57" data-name="Path 57" d="M93.352,112.5s-.353.353-.283.353,0,.071.141.095h.329s-.071,0,0-.141.095-.024.071-.141C93.587,112.524,93.352,112.5,93.352,112.5Z" transform="translate(90.35 3226.06)" fill="#fef8b7"/>
      <path id="Path_58" data-name="Path 58" d="M148.671,137.724l-.071-.188-.212-.235-.283.071-.095.329-.212.235v.424h.212c.047,0,.235.212.235.212l.235-.212a.483.483,0,0,1,0-.259,1.525,1.525,0,0,1,.212-.188Z" transform="translate(48.488 3207.094)" fill="#fef8b7"/>
      <path id="Path_59" data-name="Path 59" d="M153.033,139.735s-.329-.117-.379-.071-.283.141-.259.259a.757.757,0,0,1,.071.329.631.631,0,0,1-.071.283l.212-.141a.414.414,0,0,1,.024-.141,1.044,1.044,0,0,1,.188-.259,1.028,1.028,0,0,0,.213-.259Z" transform="translate(44.976 3205.294)" fill="#fef8b7"/>
      <path id="Path_60" data-name="Path 60" d="M161.1,125.7a.41.41,0,0,0-.117.353c.071.188-.024.235.117.4a.563.563,0,0,1,.165.305l.212-.095s.188-.095.141-.165c-.071-.095-.212-.259-.212-.259s-.141,0-.117-.071a.26.26,0,0,0,0-.188Z" transform="translate(38.413 3215.965)" fill="#fef8b7"/>
      <path id="Path_61" data-name="Path 61" d="M157.7,141.5l.988.283.757.141v.541l-.378-.188-.705-.095s-.517,0-.517-.117.047.095,0-.095S157.7,141.5,157.7,141.5Z" transform="translate(40.917 3203.882)" fill="#fef8b7"/>
      <path id="Path_62" data-name="Path 62" d="M151.889,145.6l-.329.965-.757-.757-1.741,1.059s-.424.071-.378.353c.024.305.378.447.517.612.117.141-.541.024-.283.447s.564.141.964.117l.729-.071s-.212-.631-.071-.517.847,1.035,1.153,1.105a1.148,1.148,0,0,0,.565,0,3.361,3.361,0,0,0,.329-.471c.024-.117.495-.564.495-.776a2.56,2.56,0,0,0-.495-1.136,3.943,3.943,0,0,1-.7-.931Z" transform="translate(47.811 3200.747)" fill="#fef8b7"/>
      <path id="Path_63" data-name="Path 63" d="M171.954,156.5l.188.353s-.071-.024,0,.188-.188.631-.188.631H171.7s-.612.329-.471.517c.117.188.095.212.283.305s.071.024.305,0c.259-.024.095-.071.329-.212a.794.794,0,0,0,.4-.517,1.421,1.421,0,0,0,0-.447,2.736,2.736,0,0,0-.424-.824" transform="translate(30.585 3192.409)" fill="#fef8b7"/>
      <path id="Icon_material-location-on" data-name="Icon material-location-on" d="M15.2,3a7.7,7.7,0,0,0-7.7,7.7c0,5.777,7.7,14.3,7.7,14.3s7.7-8.528,7.7-14.3A7.7,7.7,0,0,0,15.2,3Zm0,10.453A2.751,2.751,0,1,1,17.953,10.7,2.752,2.752,0,0,1,15.2,13.453Z" transform="translate(168.798 3310.346)" fill="#5925dc"/>
    </g>
  </g>
</svg>
