<svg width="50" height="50" viewBox="0 0 20 21" fill="none" xmlns="http://www.w3.org/2000/svg">
			  <g clip-path="url(#clip0_1712_7508)">
			  <path d="M11.7321 18.593H3.495C3.06533 18.5925 2.65345 18.4216 2.34973 18.1177C2.04601 17.8138 1.87526 17.4018 1.875 16.9722V15.572C1.87685 14.3695 2.35533 13.2169 3.20557 12.3665C4.0558 11.516 5.20847 11.0373 6.41101 11.0352H6.97595C7.74716 11.3923 8.58714 11.5766 9.43701 11.5752C10.2866 11.5766 11.1261 11.3922 11.897 11.0352H12.4611C13.1101 11.0339 13.7518 11.173 14.342 11.4431C13.3143 11.5979 12.3768 12.1178 11.7012 12.9075C11.0255 13.6972 10.6569 14.7039 10.663 15.7432C10.6626 16.7921 11.0416 17.8058 11.73 18.5972L11.7321 18.593ZM9.43201 9.95117C8.28641 9.94958 7.18817 9.4936 6.3783 8.68335C5.56843 7.8731 5.11312 6.77474 5.11206 5.62915C5.11338 4.48356 5.56897 3.38525 6.37903 2.5752C7.18909 1.76514 8.28739 1.30943 9.43298 1.30811C10.5786 1.30943 11.6769 1.76514 12.4869 2.5752C13.297 3.38525 13.7527 4.48356 13.754 5.62915C13.7532 6.7744 13.2983 7.87249 12.489 8.68286C11.6798 9.49324 10.5823 9.94977 9.43701 9.95215L9.43201 9.95117Z" stroke="#616161" stroke-width="0.5"/>
			  <path d="M17.6433 15.7362C17.6433 15.5724 17.6931 15.4124 17.7859 15.2775C17.8787 15.1425 18.0103 15.0388 18.1633 14.9802C18.084 14.6492 17.9527 14.333 17.7743 14.0432C17.6702 14.0889 17.5579 14.1127 17.4443 14.1132C17.3092 14.1134 17.1763 14.0798 17.0576 14.0155C16.9388 13.9512 16.8381 13.8582 16.7645 13.7449C16.6909 13.6317 16.6469 13.5018 16.6364 13.3672C16.6258 13.2326 16.6492 13.0975 16.7043 12.9742C16.4151 12.7962 16.0995 12.6652 15.7693 12.5862C15.7107 12.7393 15.607 12.8711 15.4719 12.964C15.3368 13.0569 15.1767 13.1067 15.0128 13.1067C14.8488 13.1067 14.6887 13.0569 14.5536 12.964C14.4186 12.8711 14.3149 12.7393 14.2563 12.5862C13.9253 12.6655 13.6091 12.7968 13.3193 12.9752C13.3744 13.0985 13.3977 13.2336 13.3872 13.3682C13.3767 13.5028 13.3326 13.6327 13.259 13.7459C13.1855 13.8592 13.0847 13.9522 12.966 14.0165C12.8473 14.0808 12.7143 14.1144 12.5793 14.1142C12.4659 14.1147 12.3537 14.0908 12.2503 14.0442C12.0734 14.3349 11.9428 14.6513 11.8633 14.9822C12.0164 15.0408 12.1482 15.1445 12.2411 15.2795C12.334 15.4146 12.3838 15.5747 12.3838 15.7387C12.3838 15.9026 12.334 16.0627 12.2411 16.1978C12.1482 16.3329 12.0164 16.4366 11.8633 16.4952C11.9426 16.8261 12.0738 17.1424 12.2523 17.4322C12.4017 17.3657 12.5678 17.3461 12.7287 17.3759C12.8895 17.4057 13.0375 17.4836 13.1532 17.5993C13.2689 17.7149 13.3467 17.863 13.3766 18.0238C13.4064 18.1846 13.3868 18.3507 13.3203 18.5002C13.6103 18.6782 13.9265 18.8095 14.2573 18.8892C14.3158 18.7365 14.4192 18.6052 14.5539 18.5125C14.6886 18.4199 14.8483 18.3703 15.0118 18.3703C15.1753 18.3703 15.3349 18.4199 15.4696 18.5125C15.6043 18.6052 15.7078 18.7365 15.7663 18.8892C16.0972 18.8099 16.4135 18.6786 16.7033 18.5002C16.6374 18.3507 16.6182 18.1849 16.6482 18.0243C16.6783 17.8638 16.7561 17.716 16.8716 17.6005C16.9871 17.485 17.1348 17.4072 17.2954 17.3771C17.4559 17.3471 17.6218 17.3663 17.7713 17.4322C17.9496 17.1423 18.0809 16.8261 18.1603 16.4952C18.0077 16.4356 17.8766 16.3314 17.7842 16.1962C17.6918 16.0609 17.6423 15.901 17.6423 15.7372M15.0273 17.0482C14.7678 17.0482 14.5141 16.9712 14.2984 16.8271C14.0826 16.6829 13.9145 16.478 13.8152 16.2383C13.7159 15.9985 13.6899 15.7347 13.7405 15.4802C13.7911 15.2257 13.9161 14.9919 14.0995 14.8085C14.283 14.625 14.5168 14.5 14.7713 14.4494C15.0258 14.3988 15.2896 14.4247 15.5294 14.5241C15.7691 14.6234 15.974 14.7915 16.1182 15.0073C16.2623 15.223 16.3393 15.4767 16.3393 15.7362C16.339 16.0841 16.2007 16.4176 15.9547 16.6636C15.7087 16.9096 15.3752 17.0479 15.0273 17.0482Z" stroke="#616161" stroke-width="0.5"/>
			  </g>
			  <defs>
			  <clipPath id="clip0_1712_7508">
			  <rect width="20" height="20" fill="white" transform="translate(0 0.0861816)"/>
			  </clipPath>
			  </defs>
			  </svg>