<svg width="50" height="50" viewBox="0 0 20 21" fill="none" xmlns="http://www.w3.org/2000/svg">
			<g id="Group 5841">
			<g id="Group 5842">
			<path id="Path 5691" d="M11.9881 16.6416H10.7142V14.0792L9.28336 14.0791V16.6415L8.01877 16.6416C7.94591 16.6424 7.87395 16.658 7.80726 16.6873C7.74057 16.7167 7.68052 16.7593 7.63074 16.8125C7.52644 16.9224 7.46874 17.0685 7.46968 17.22V19.5079C7.46905 19.6598 7.52669 19.8061 7.63074 19.9167C7.68058 19.9697 7.74068 20.0121 7.80737 20.0413C7.87407 20.0704 7.94599 20.0857 8.01877 20.0863H11.982C12.0548 20.0857 12.1267 20.0704 12.1934 20.0413C12.2601 20.0121 12.3202 19.9697 12.37 19.9167C12.4741 19.8061 12.5317 19.6598 12.5311 19.5079V17.22C12.5321 17.0685 12.4743 16.9224 12.37 16.8125C12.321 16.76 12.2619 16.7178 12.1963 16.6885C12.1307 16.6592 12.06 16.6432 11.9881 16.6416Z" stroke="#616161" stroke-width="0.5"/>
			<path id="Path 5692" d="M0.699487 18.3937C0.69788 18.6313 0.784885 18.861 0.943525 19.0379C1.01687 19.1207 1.10682 19.1872 1.2075 19.233C1.30819 19.2789 1.41739 19.303 1.52801 19.3039H6.63338V17.4846H1.52801C1.41722 17.4856 1.30786 17.5097 1.20698 17.5556C1.1061 17.6014 1.01595 17.6678 0.942315 17.7506C0.783878 17.9277 0.696886 18.1573 0.698258 18.3949" fill="#616161"/>
			<path id="Path 5693" d="M19.3005 18.3954C19.3021 18.1578 19.2151 17.9281 19.0565 17.7511C18.9831 17.6683 18.8932 17.6018 18.7925 17.556C18.6918 17.5102 18.5826 17.486 18.472 17.4851H13.3666V19.3044H18.472C18.5828 19.3035 18.6921 19.2793 18.793 19.2335C18.8939 19.1877 18.9841 19.1212 19.0577 19.0385C19.2161 18.8614 19.3031 18.6318 19.3017 18.3942" fill="#616161"/>
			<path id="database-svgrepo-com" d="M16.2606 2.74597C15.9726 1.67707 13.8238 0.625244 10.0656 0.625244C6.30735 0.625244 4.15856 1.67707 3.87059 2.74597C3.8478 2.78269 3.83517 2.82479 3.83398 2.86799V12.0952C3.83418 12.1345 3.84425 12.1731 3.86327 12.2075C4.15734 13.4277 6.79177 14.338 10.0656 14.338C13.3394 14.338 15.9617 13.4314 16.2655 12.2148C16.2866 12.1776 16.2975 12.1355 16.2972 12.0928V2.86921C16.2962 2.8256 16.2836 2.78304 16.2606 2.74597ZM15.7786 9.09106C15.7712 9.12188 15.7614 9.15207 15.7493 9.18136C15.739 9.20683 15.7272 9.23168 15.714 9.25579C15.6968 9.28749 15.6777 9.31806 15.6566 9.34731C15.6407 9.37049 15.6212 9.39368 15.6017 9.41686C15.5822 9.44004 15.5443 9.48275 15.5114 9.51448C15.4785 9.5462 15.4687 9.55352 15.4467 9.57305C15.4052 9.60843 15.3638 9.64382 15.3162 9.67921L15.2527 9.72435C15.1966 9.7634 15.138 9.80245 15.0733 9.84027L15.0209 9.87078C14.9464 9.91227 14.8696 9.95375 14.7854 9.9928L14.7524 10.0074C14.6585 10.0514 14.5609 10.0953 14.4571 10.1368H14.4486C13.7601 10.3977 13.0441 10.579 12.3144 10.6773H12.3022C12.1395 10.7017 11.9712 10.7233 11.7971 10.742L11.7104 10.7506C11.5591 10.7664 11.4066 10.7811 11.2504 10.792C11.1784 10.792 11.1028 10.7994 11.0308 10.8042C10.9088 10.8116 10.7953 10.8189 10.6745 10.8238C10.4768 10.8299 10.2743 10.8335 10.0644 10.8335C9.8545 10.8335 9.65683 10.8335 9.45427 10.8225C9.33225 10.8225 9.21023 10.8103 9.09797 10.803C9.02476 10.803 8.94911 10.7957 8.87833 10.7908C8.72093 10.7798 8.5684 10.7652 8.41831 10.7493L8.33656 10.753C8.1641 10.7343 7.99572 10.7127 7.83139 10.6883H7.81919C7.08934 10.5885 6.37331 10.4055 5.68504 10.1429H5.6765C5.57156 10.1014 5.47395 10.0575 5.38121 10.0135L5.34705 9.99768C5.26285 9.95741 5.18598 9.91593 5.11154 9.87566L5.05419 9.84393C4.98952 9.80611 4.93217 9.76706 4.87482 9.72801L4.81015 9.68409C4.76745 9.6548 4.72474 9.61331 4.68813 9.57793C4.66617 9.5584 4.64298 9.53888 4.62346 9.51936C4.59172 9.48838 4.56158 9.4558 4.53316 9.42174C4.51364 9.39856 4.49534 9.37537 4.47826 9.35219C4.45738 9.32282 4.43823 9.29226 4.42091 9.26067C4.40779 9.23651 4.39598 9.21166 4.38552 9.18624C4.37343 9.15695 4.36364 9.12676 4.35623 9.09594C4.34507 9.05615 4.33852 9.01521 4.33671 8.97392C4.33691 8.94571 4.33936 8.91756 4.34403 8.88973C4.35018 8.85265 4.34767 8.81465 4.33671 8.77869V6.93007L4.3599 6.94959C4.4148 6.99718 4.46971 7.04477 4.53194 7.09114C6.20883 8.05559 8.13638 8.49508 10.0656 8.35284C11.9913 8.49393 13.9154 8.05763 15.5919 7.09968C15.664 7.04684 15.7333 6.99022 15.7994 6.93007V8.77991C15.7884 8.81587 15.7859 8.85387 15.792 8.89095C15.7968 8.91876 15.7993 8.94692 15.7994 8.97514C15.7971 9.01607 15.7901 9.0566 15.7786 9.09594V9.09106ZM15.7981 3.93323V5.78917C15.7872 5.82513 15.7847 5.86313 15.7908 5.90021C15.7956 5.92802 15.7981 5.95619 15.7981 5.98441C15.7963 6.0257 15.7898 6.06664 15.7786 6.10643C15.7712 6.13724 15.7614 6.16743 15.7493 6.19672C15.739 6.22219 15.7272 6.24705 15.714 6.27116C15.6968 6.30285 15.6777 6.33342 15.6566 6.36267C15.6407 6.38586 15.6212 6.40904 15.6017 6.43223C15.5822 6.45541 15.5443 6.49812 15.5114 6.52984C15.4785 6.56157 15.4687 6.56889 15.4467 6.58841C15.4052 6.6238 15.3638 6.65918 15.3162 6.69457L15.2527 6.73972C15.1966 6.77877 15.138 6.81781 15.0733 6.85564L15.0209 6.88614C14.9464 6.92763 14.8696 6.96912 14.7854 7.00816L14.7524 7.02281C14.6585 7.06674 14.5609 7.11066 14.4571 7.15215H14.4486C13.7597 7.41656 13.0429 7.6012 12.312 7.70247H12.2998C12.1371 7.72687 11.9687 7.74843 11.7946 7.76714L11.708 7.77568C11.5567 7.79154 11.4042 7.80618 11.248 7.81716C11.176 7.81716 11.1003 7.82449 11.0283 7.82937C10.9063 7.83669 10.7928 7.84401 10.672 7.84889C10.4744 7.85499 10.2718 7.85865 10.0619 7.85865C9.85206 7.85865 9.65439 7.85865 9.45183 7.84767C9.32981 7.84767 9.20779 7.83547 9.09553 7.82815C9.02232 7.82815 8.94667 7.82083 8.87589 7.81594C8.71849 7.80496 8.56596 7.79032 8.41587 7.77446L8.33656 7.76225C8.1641 7.74355 7.99572 7.72199 7.83139 7.69758H7.81919C7.08954 7.59929 6.37351 7.41793 5.68504 7.15703H5.6765C5.57156 7.11554 5.47395 7.07162 5.38121 7.02769L5.34705 7.00694C5.26285 6.96668 5.18598 6.92519 5.11154 6.88492L5.05419 6.84832C4.98952 6.81049 4.93217 6.77144 4.87482 6.7324L4.81015 6.69335C4.76256 6.65796 4.71986 6.62258 4.67959 6.58719C4.65763 6.56767 4.63444 6.54815 4.61492 6.52862C4.58318 6.49764 4.55304 6.46506 4.52462 6.43101C4.5051 6.40782 4.4868 6.38464 4.46971 6.36145C4.44884 6.33209 4.42969 6.30153 4.41236 6.26994C4.39925 6.24578 4.38744 6.22093 4.37698 6.1955C4.36489 6.16621 4.35509 6.13602 4.34769 6.10521C4.33653 6.06542 4.32998 6.02448 4.32817 5.98319C4.32837 5.95497 4.33082 5.92682 4.33549 5.89899C4.34163 5.86191 4.33913 5.82391 4.32817 5.78795V3.93812C4.35867 3.96496 4.39162 3.9918 4.42457 4.01865L4.47826 4.0638C4.55269 4.12237 4.63322 4.18582 4.7223 4.23707L4.77965 4.27245C4.85286 4.31801 4.93014 4.36275 5.01149 4.40668L5.103 4.45426C5.19411 4.50063 5.2897 4.54578 5.38975 4.58971L5.43734 4.61167C5.55936 4.6617 5.68138 4.70807 5.8034 4.75444L5.91322 4.79104C6.01572 4.82602 6.12188 4.85937 6.2317 4.8911L6.35372 4.92527C6.50014 4.96553 6.65023 5.00458 6.80764 5.03997L6.88451 5.05339C7.02361 5.08389 7.16882 5.11196 7.31647 5.1388L7.46899 5.16443C7.61054 5.1872 7.75574 5.20835 7.90461 5.22788L8.01809 5.24374C8.20356 5.2657 8.39513 5.28523 8.59281 5.30231L8.74167 5.31329C8.89948 5.32468 9.06218 5.33404 9.22975 5.34136L9.41157 5.34868C9.62632 5.356 9.84474 5.36088 10.0717 5.36088C10.2987 5.36088 10.5171 5.36088 10.7318 5.34868L10.9112 5.34136C11.0739 5.33404 11.2366 5.32468 11.3993 5.31329L11.5482 5.30231C11.7458 5.28645 11.9374 5.26692 12.1229 5.24374L12.2364 5.22788C12.386 5.20835 12.5312 5.1872 12.672 5.16443L12.8172 5.14002C12.966 5.11318 13.11 5.08511 13.2491 5.05461L13.3162 5.04119C13.4749 5.0058 13.625 4.96675 13.7702 4.92649L13.8922 4.89232C14.002 4.85978 14.1082 4.82643 14.2107 4.79226L14.3205 4.75566C14.4498 4.70929 14.5743 4.66292 14.6865 4.61289L14.7341 4.59093C14.8342 4.547 14.9298 4.50185 15.0209 4.45548L15.1124 4.4079C15.1937 4.36397 15.271 4.31923 15.3442 4.27367L15.4016 4.23829C15.4894 4.18216 15.57 4.12359 15.6456 4.06502L15.6993 4.01987C15.7347 3.99303 15.7689 3.96618 15.7981 3.93812V3.93323ZM10.0656 1.12431C13.4444 1.12431 15.8006 2.10902 15.8006 2.99367C15.8006 3.87833 13.4468 4.86304 10.0656 4.86304C6.6844 4.86304 4.33061 3.87833 4.33061 2.99367C4.33061 2.10902 6.68684 1.12431 10.0656 1.12431ZM15.8006 12.0183C15.797 12.0295 15.7941 12.0409 15.792 12.0525C15.6505 12.9152 13.3162 13.8377 10.0668 13.8377C6.8174 13.8377 4.48192 12.9128 4.34037 12.0513C4.33821 12.0401 4.33536 12.0291 4.33183 12.0183V9.92081L4.35501 9.94033C4.40992 9.98792 4.46483 10.0355 4.52706 10.0819C6.20536 11.0473 8.13475 11.4868 10.0656 11.3436C11.9913 11.4847 13.9154 11.0484 15.5919 10.0904C15.664 10.0376 15.7333 9.98096 15.7994 9.92081L15.8006 12.0183Z" fill="#616161" stroke="#616161" stroke-width="0.25"/>
			</g>
			</g>
			</svg>