<svg xmlns="http://www.w3.org/2000/svg" width="50" height="50" viewBox="0 0 20 21" fill="none">
			  <path d="M13.396 13.6007L14.71 7.12613C14.71 7.12613 18.8714 7.46773 19.333 11.3904L13.396 13.6007Z" stroke="#616161" stroke-width="0.6"/>
			  <path d="M11.8435 14.8814L11.7362 15.4109L12.2424 15.2222L17.4303 13.2878C17.6236 14.1594 17.5695 15.07 17.2708 15.9159C16.9361 16.8636 16.3115 17.6818 15.4855 18.2544C14.6596 18.8269 13.6742 19.1248 12.6694 19.1058C11.6645 19.0867 10.6912 18.7516 9.88759 18.148C9.08397 17.5444 8.49086 16.7031 8.19246 15.7434C7.89406 14.7837 7.90552 13.7544 8.22522 12.8015C8.54492 11.8487 9.15661 11.0208 9.97347 10.4353C10.7903 9.84975 11.7709 9.53639 12.7759 9.53968H12.7769C12.827 9.53968 12.8769 9.54045 12.9266 9.54197L11.8435 14.8814Z" stroke="#616161" stroke-width="0.6"/>
			  <path d="M8.73984 9.75733H3.62744L5.47471 6.74493H11.1718L12.2898 8.43157C10.9945 8.4794 9.74938 8.94441 8.73984 9.75733Z" stroke="#616161" stroke-width="0.6"/>
			  <path d="M3.15403 10.8868L1.25 13.9859H6.54123C6.70084 12.8374 7.19125 11.7602 7.95265 10.8857L3.15403 10.8868Z" stroke="#616161" stroke-width="0.6"/>
			  <path d="M10.6033 5.508H5.99854L8.21205 1.90662L10.6033 5.508Z" stroke="#616161" stroke-width="0.6"/>
			</svg>