<svg xmlns="http://www.w3.org/2000/svg" width="50" height="50" viewBox="0 0 20 20" fill="none">
			  <g clip-path="url(#clip0_180_7940)">
			    <path d="M12.1651 2.51516C12.3152 2.51637 12.4623 2.47297 12.5877 2.39047C12.713 2.30796 12.811 2.19007 12.8693 2.05175C12.9276 1.91342 12.9435 1.76091 12.9149 1.61355C12.8864 1.46619 12.8147 1.33063 12.709 1.22407C12.6033 1.11751 12.4683 1.04474 12.3212 1.01501C12.1741 0.98528 12.0215 0.999922 11.8827 1.05708C11.7439 1.11424 11.6253 1.21133 11.5417 1.33604C11.4582 1.46076 11.4136 1.60747 11.4136 1.75757C11.4132 1.85666 11.4323 1.95485 11.4699 2.04655C11.5074 2.13825 11.5626 2.22166 11.6324 2.29201C11.7022 2.36235 11.7851 2.41827 11.8765 2.45656C11.9679 2.49485 12.066 2.51476 12.1651 2.51516Z" fill="#616161"/>
			    <path d="M10.8605 6.12494C10.9711 6.12595 11.0795 6.09409 11.1719 6.03339C11.2644 5.97269 11.3366 5.8859 11.3797 5.78402C11.4227 5.68215 11.4345 5.5698 11.4135 5.46122C11.3926 5.35265 11.3398 5.25274 11.262 5.17419C11.1842 5.09564 11.0847 5.04199 10.9764 5.02004C10.868 4.9981 10.7555 5.00885 10.6532 5.05093C10.551 5.09301 10.4636 5.16452 10.402 5.25639C10.3405 5.34826 10.3076 5.45635 10.3076 5.56693C10.3071 5.71421 10.365 5.85569 10.4687 5.96031C10.5723 6.06492 10.7132 6.12413 10.8605 6.12494Z" fill="#616161"/>
			    <path d="M13.5661 5.24693C13.7715 5.24874 13.9728 5.1895 14.1444 5.0767C14.3161 4.96391 14.4504 4.80266 14.5303 4.61341C14.6101 4.42416 14.6319 4.21546 14.593 4.01378C14.554 3.8121 14.456 3.62653 14.3114 3.48064C14.1668 3.33475 13.9822 3.23511 13.7808 3.19437C13.5795 3.15362 13.3706 3.17361 13.1807 3.25179C12.9907 3.32997 12.8283 3.46282 12.714 3.63348C12.5997 3.80414 12.5386 4.00492 12.5386 4.21033C12.5375 4.484 12.6451 4.7469 12.8378 4.94127C13.0304 5.13564 13.2924 5.24558 13.5661 5.24693Z" fill="#616161"/>
			    <path d="M5.13705 12.7242C5.91196 12.7242 6.54022 10.8129 6.54022 8.45663C6.54022 6.10035 5.91196 4.18906 5.13705 4.18906C4.36215 4.18906 3.73389 6.09933 3.73389 8.45663C3.73389 10.8139 4.36215 12.7242 5.13705 12.7242Z" stroke="#616161" stroke-width="0.5" stroke-miterlimit="10"/>
			    <path d="M5.82523 9.50437C7.82003 8.28244 9.11119 6.74282 8.70795 6.07483C8.30472 5.40685 6.36595 5.85896 4.36607 7.08496C2.36619 8.31095 1.08008 9.84651 1.4823 10.5145C1.88451 11.1825 3.82942 10.7304 5.82523 9.50437Z" stroke="#616161" stroke-width="0.5" stroke-miterlimit="10"/>
			    <path d="M8.79868 10.4394C9.18664 9.76229 7.85983 8.25729 5.83653 7.07915C3.81323 5.90101 1.86017 5.49472 1.47221 6.17187C1.08425 6.84902 2.41002 8.35402 4.43231 9.53216C6.45459 10.7103 8.41071 11.1125 8.79868 10.4394Z" stroke="#616161" stroke-width="0.5" stroke-miterlimit="10"/>
			    <path d="M5.19706 8.8568C5.29591 8.8576 5.39278 8.82902 5.47537 8.77469C5.55796 8.72036 5.6225 8.64272 5.66089 8.55162C5.69928 8.46052 5.70976 8.36008 5.69097 8.26302C5.67218 8.16597 5.62497 8.07668 5.55536 8.00649C5.48574 7.93631 5.39688 7.88838 5.29998 7.8688C5.20308 7.84921 5.10252 7.85885 5.01111 7.89649C4.9197 7.93413 4.84157 7.99808 4.78656 8.08022C4.73155 8.16236 4.70216 8.25898 4.70216 8.35784C4.70176 8.42313 4.71427 8.48786 4.73895 8.54832C4.76363 8.60877 4.79999 8.66375 4.84597 8.71011C4.89195 8.75647 4.94663 8.79329 5.00688 8.81846C5.06713 8.84364 5.13177 8.85666 5.19706 8.8568Z" fill="#616161"/>
			    <path d="M10.7712 6.91721V9.33051L6.58105 16.5694L8.24084 19H16.8961L18.4968 16.4095L14.3219 9.28977V6.91721H10.7712Z" stroke="#616161" stroke-width="0.5" stroke-miterlimit="10"/>
			    <path d="M12.606 10.6278H15.3553L15.8502 11.5046H13.0551L12.606 10.6278Z" fill="#616161"/>
			    <path d="M13.79 12.7812H16.518L17.0128 13.6579H14.2442L13.79 12.7812Z" fill="#616161"/>
			    <path d="M17.1321 18.9207L10.7475 18.8809L9.24658 16.1316L10.1956 14.2987H17.3103L17.797 15.1367H15.176L15.6302 16.0135H18.3072L18.5954 16.5082L17.1341 18.9217L17.1321 18.9207Z" fill="#616161"/>
			  </g>
			  <defs>
			    <clipPath id="clip0_180_7940">
			      <rect width="20" height="20" fill="transparent"/>
			    </clipPath>
			  </defs>
			</svg>