<svg xmlns="http://www.w3.org/2000/svg" width="50" height="50" viewBox="0 0 20 21" fill="none">
			  <path d="M19.148 15.6465V2.62742C19.1543 2.50609 19.1367 2.38469 19.096 2.27019C19.0554 2.15568 18.9925 2.05033 18.9111 1.96015C18.8297 1.86997 18.7313 1.79673 18.6215 1.74464C18.5117 1.69256 18.3928 1.66265 18.2714 1.65662H5.65187C5.40613 1.66883 5.1752 1.77778 5.00951 1.95967C4.84381 2.14156 4.7568 2.38161 4.76748 2.62742V18.6858C4.7568 18.9316 4.84381 19.1717 5.00951 19.3536C5.1752 19.5355 5.40613 19.6444 5.65187 19.6566H16.0301L19.148 15.6465Z" stroke="#616161" stroke-width="0.6"/>
			  <path d="M18.634 15.0517L16.0369 15.1639C15.7769 15.1767 15.5325 15.2921 15.3574 15.4849C15.1824 15.6776 15.0909 15.9319 15.1031 16.192L15.5667 19.174" fill="#616161"/>
			  <path d="M1 16.0844L1.97195 17.5434L2.79125 16.0608L1 16.0844Z" fill="#616161"/>
			  <path d="M6.55796 2.48444H16.2875C16.5554 2.48444 16.8123 2.59083 17.0017 2.78026C17.1912 2.96969 17.2976 3.22664 17.2976 3.49453V3.7347C17.2976 4.00259 17.1912 4.25954 17.0017 4.44897C16.8123 4.6384 16.5554 4.74479 16.2875 4.74479H6.55796C6.29007 4.74479 6.03314 4.6384 5.84371 4.44897C5.65428 4.25954 5.54785 4.00259 5.54785 3.7347V3.49453C5.54785 3.22664 5.65428 2.96969 5.84371 2.78026C6.03314 2.59083 6.29007 2.48444 6.55796 2.48444Z" stroke="#616161" stroke-width="0.45"/>
			  <path d="M6.59124 5.42987H16.1311C16.3899 5.43313 16.6368 5.539 16.8175 5.72419C16.9983 5.90938 17.0982 6.15875 17.0952 6.41753V6.60947C17.0982 6.86825 16.9983 7.11762 16.8175 7.30281C16.6368 7.48801 16.3899 7.59388 16.1311 7.59713H6.59124C6.46301 7.59567 6.33633 7.56896 6.21842 7.51853C6.10051 7.4681 5.9937 7.39491 5.90407 7.30319C5.81444 7.21148 5.74376 7.10301 5.69605 6.98397C5.64835 6.86494 5.62456 6.7377 5.62604 6.60947V6.41753C5.62456 6.2893 5.64835 6.16206 5.69605 6.04303C5.74376 5.924 5.81444 5.81553 5.90407 5.72381C5.9937 5.6321 6.10051 5.55891 6.21842 5.50848C6.33633 5.45805 6.46301 5.43134 6.59124 5.42987Z" stroke="#616161" stroke-width="0.45"/>
			  <path d="M15.2637 3.35565H16.386L15.8248 4.18507L15.2637 3.35565Z" fill="#616161"/>
			  <path d="M15.2681 6.25604H16.3904L15.8292 7.08433L15.2681 6.25604Z" fill="#616161"/>
			  <path d="M14.092 14.699H8.61279V16.8663H14.092V14.699Z" stroke="#616161" stroke-width="0.5"/>
			  <path d="M6.24713 9.02132C6.36771 9.02309 6.48506 9.06045 6.58446 9.12873C6.68386 9.19701 6.76087 9.29315 6.80579 9.40507C6.85072 9.51698 6.86155 9.63969 6.83694 9.75775C6.81234 9.8758 6.7534 9.98393 6.66751 10.0686C6.58161 10.1532 6.47261 10.2106 6.35421 10.2335C6.23581 10.2564 6.11329 10.2437 6.00204 10.1972C5.8908 10.1506 5.79578 10.0723 5.72896 9.97188C5.66214 9.8715 5.62648 9.7536 5.62646 9.63301C5.62705 9.55209 5.64358 9.47206 5.67508 9.39753C5.70659 9.323 5.75249 9.2554 5.81012 9.1986C5.86775 9.1418 5.936 9.09691 6.01098 9.06649C6.08597 9.03608 6.16621 9.02073 6.24713 9.02132Z" fill="#616161"/>
			  <path d="M6.24713 11.2054C6.36771 11.2072 6.48506 11.2445 6.58446 11.3128C6.68386 11.3811 6.76087 11.4772 6.80579 11.5891C6.85072 11.7011 6.86155 11.8237 6.83694 11.9418C6.81234 12.0599 6.7534 12.168 6.66751 12.2527C6.58161 12.3373 6.47261 12.3947 6.35421 12.4175C6.23581 12.4404 6.11329 12.4278 6.00204 12.3813C5.8908 12.3347 5.79578 12.2563 5.72896 12.1559C5.66214 12.0555 5.62648 11.9376 5.62646 11.8171C5.62705 11.7361 5.64358 11.6561 5.67508 11.5816C5.70659 11.5071 5.75249 11.4395 5.81012 11.3827C5.86775 11.3259 5.936 11.281 6.01098 11.2506C6.08597 11.2202 6.16621 11.2048 6.24713 11.2054Z" fill="#616161"/>
			  <path d="M2.69045 6.25H1.1001V15.5306H2.69045V6.25Z" fill="#616161"/>
			  <path d="M2.69045 4.9234H1.1001V5.98401H2.69045V4.9234Z" fill="#616161"/>
			  <path d="M7.64648 9.54755H16.9518" stroke="#616161" stroke-width="0.5"/>
			  <path d="M7.64648 11.7921H16.9518" stroke="#616161" stroke-width="0.5"/>
			</svg>