<svg xmlns="http://www.w3.org/2000/svg" width="50px" height="50px" viewBox="0 0 20 20" fill="none">
  <path d="M18.4208 9.45657L15.736 6.77172V3.66953C15.736 3.4002 15.629 3.14189 15.4385 2.95144C15.2481 2.76099 14.9898 2.654 14.7205 2.654C14.4511 2.654 14.1928 2.76099 14.0024 2.95144C13.8119 3.14189 13.7049 3.4002 13.7049 3.66953V4.74064L11.7054 2.74117C11.2082 2.26549 10.5466 2 9.85852 2C9.1704 2 8.50882 2.26549 8.01159 2.74117L1.29727 9.45657C1.10683 9.64716 0.999898 9.90559 1 10.175C1.0001 10.4445 1.10723 10.7028 1.29782 10.8933C1.48841 11.0837 1.74684 11.1906 2.01627 11.1905C2.2857 11.1904 2.54406 11.0833 2.7345 10.8927L9.44772 4.17839C9.5589 4.07373 9.70583 4.01545 9.85852 4.01545C10.0112 4.01545 10.1581 4.07373 10.2693 4.17839L16.9836 10.8938C17.0779 10.9882 17.1899 11.063 17.3131 11.1141C17.4363 11.1652 17.5684 11.1916 17.7018 11.1916C17.8353 11.1917 17.9674 11.1654 18.0906 11.1144C18.2139 11.0634 18.3259 10.9886 18.4203 10.8943C18.5147 10.8 18.5895 10.6881 18.6406 10.5648C18.6917 10.4416 18.7181 10.3095 18.7181 10.1761C18.7182 10.0427 18.6919 9.91059 18.6409 9.78732C18.5899 9.66405 18.5151 9.55094 18.4208 9.45657Z" stroke="#525252" stroke-width="0.8"></path>
  <path d="M10.2138 6.10666C10.1676 6.0603 10.1126 6.02352 10.0522 5.99843C9.99168 5.97333 9.92683 5.96042 9.86135 5.96042C9.79586 5.96042 9.73102 5.97333 9.67053 5.99843C9.61005 6.02352 9.5551 6.0603 9.50885 6.10666L3.60304 12.0103C3.50958 12.104 3.45707 12.2309 3.45703 12.3633V16.6696C3.45703 16.9098 3.50435 17.1477 3.59629 17.3697C3.68824 17.5916 3.82299 17.7933 3.99288 17.9632C4.16276 18.1331 4.36444 18.2678 4.58641 18.3598C4.80837 18.4517 5.04627 18.499 5.28652 18.499H8.21001V13.9716H11.5116V18.5001H14.4318C14.6721 18.5001 14.91 18.4528 15.1319 18.3609C15.3539 18.2689 15.5556 18.1342 15.7255 17.9643C15.8953 17.7944 16.0301 17.5927 16.122 17.3708C16.214 17.1488 16.2613 16.9109 16.2613 16.6706V12.3644C16.2614 12.2989 16.2486 12.2339 16.2235 12.1733C16.1984 12.1127 16.1617 12.0577 16.1153 12.0114L10.2138 6.10666Z" stroke="#525252" stroke-width="0.8"></path>
</svg>