<svg width="50" height="50" viewBox="0 0 20 20" fill="none" xmlns="http://www.w3.org/2000/svg">
			<g id="Group 3091">
			<path id="Line 543" d="M5.50977 10.1838H7.73552" stroke="#616161" stroke-width="0.75" stroke-linecap="round" stroke-linejoin="round"/>
			<path id="Line 900" d="M14.4131 10.1838H17.0439" stroke="#616161" stroke-width="0.75" stroke-linecap="round" stroke-linejoin="round"/>
			<path id="Path 3807" d="M17.0439 7.90967V12.3005L19.0583 9.91234L17.0439 7.90967Z" stroke="#616161" stroke-width="0.75" stroke-linecap="round"/>
			<path id="Path 3808" d="M8.8484 7.90974C8.61505 7.89599 8.38648 7.81996 8.17724 7.68642C7.96799 7.55289 7.78266 7.36479 7.63303 7.13413C7.4834 6.90347 7.37275 6.63527 7.30813 6.34663C7.2435 6.05798 7.22631 5.75521 7.25766 5.45755C7.28471 5.16199 7.25672 4.8624 7.17601 4.58348C7.0953 4.30456 6.96417 4.05428 6.79345 3.85335C6.62272 3.65241 6.41729 3.50653 6.19409 3.42777C5.9709 3.349 5.73634 3.33962 5.50977 3.40035" stroke="#616161" stroke-width="0.75" stroke-linecap="round" stroke-linejoin="round"/>
			<path id="Path 3809" d="M8.5393 12.86C8.5393 12.86 6.96013 12.8099 6.94455 14.8058C6.92897 16.8016 5.31641 16.4627 5.31641 16.4627" stroke="#616161" stroke-width="0.75" stroke-linecap="round" stroke-linejoin="round"/>
			<path id="Path 3810" d="M3.18753 1.08618C3.60859 1.08618 4.0202 1.2138 4.37031 1.45284C4.72041 1.69189 4.99328 2.03165 5.15441 2.42917C5.31555 2.8267 5.35771 3.26412 5.27556 3.68613C5.19342 4.10814 4.99065 4.49578 4.69292 4.80003C4.39518 5.10428 4.01584 5.31146 3.60287 5.3954C3.18989 5.47935 2.76183 5.43627 2.37282 5.27161C1.98381 5.10695 1.65131 4.82809 1.41738 4.47033C1.18345 4.11257 1.05859 3.69196 1.05859 3.26168C1.05859 2.97599 1.11366 2.69312 1.22065 2.42917C1.32764 2.16523 1.48446 1.92539 1.68215 1.72337C1.87984 1.52136 2.11453 1.36113 2.37282 1.2518C2.63112 1.14247 2.90795 1.08618 3.18753 1.08618Z" stroke="#616161" stroke-width="0.75"/>
			<path id="Path 3811" d="M3.18753 7.90967C3.60859 7.90967 4.0202 8.03725 4.37031 8.2763C4.72041 8.51534 4.99328 8.85514 5.15441 9.25266C5.31555 9.65018 5.35771 10.0876 5.27556 10.5096C5.19342 10.9316 4.99065 11.3192 4.69292 11.6235C4.39518 11.9277 4.01584 12.1349 3.60287 12.2189C3.18989 12.3028 2.76183 12.2598 2.37282 12.0951C1.98381 11.9304 1.65131 11.6516 1.41738 11.2938C1.18345 10.9361 1.05859 10.5154 1.05859 10.0852C1.05859 9.50819 1.28289 8.95484 1.68215 8.54686C2.0814 8.13887 2.6229 7.90967 3.18753 7.90967Z" stroke="#616161" stroke-width="0.75"/>
			<path id="Path 3812" d="M3.18753 14.7327C3.60886 14.7324 4.0208 14.8599 4.37123 15.0989C4.72166 15.338 4.99485 15.6778 5.15624 16.0756C5.31763 16.4733 5.35996 16.911 5.2779 17.3333C5.19584 17.7556 4.99306 18.1435 4.69521 18.448C4.39736 18.7526 4.01782 18.96 3.60461 19.0441C3.19139 19.1282 2.76305 19.0851 2.37377 18.9204C1.98449 18.7557 1.65175 18.4767 1.41765 18.1187C1.18355 17.7608 1.05859 17.3399 1.05859 16.9093C1.05859 16.3322 1.28286 15.7788 1.68208 15.3706C2.0813 14.9625 2.6228 14.733 3.18753 14.7327Z" stroke="#616161" stroke-width="0.75"/>
			<g id="Group 3045">
			<path id="Icon ionic-ios-settings" d="M14.5303 10.2976C14.5304 10.0847 14.5936 9.87686 14.7116 9.70142C14.8296 9.52597 14.9969 9.39119 15.1914 9.31485C15.0907 8.88515 14.9238 8.47452 14.697 8.09828C14.5649 8.15808 14.4221 8.18924 14.2777 8.18979C14.1058 8.19014 13.9366 8.14649 13.7855 8.06284C13.6344 7.97919 13.5062 7.85819 13.4127 7.71091C13.3191 7.56362 13.2632 7.39474 13.25 7.21968C13.2367 7.04462 13.2667 6.86896 13.337 6.70875C12.9688 6.47686 12.5669 6.30635 12.1462 6.20361C12.0715 6.40224 11.9396 6.57307 11.7679 6.69356C11.5962 6.81405 11.3928 6.87854 11.1846 6.87854C10.9763 6.87854 10.7729 6.81405 10.6012 6.69356C10.4295 6.57307 10.2976 6.40224 10.2229 6.20361C9.80232 6.30655 9.4004 6.47706 9.03214 6.70875C9.10246 6.86896 9.13237 7.04462 9.11914 7.21968C9.10592 7.39474 9.04997 7.56362 8.95642 7.71091C8.86287 7.85819 8.7347 7.97919 8.5836 8.06284C8.4325 8.14649 8.2633 8.19014 8.09145 8.18979C7.94687 8.19029 7.80386 8.15908 7.6721 8.09828C7.44676 8.47609 7.28031 8.88741 7.17871 9.31749C7.37291 9.39406 7.53987 9.5289 7.65762 9.70427C7.77538 9.87964 7.8384 10.0873 7.8384 10.3C7.8384 10.5127 7.77538 10.7204 7.65762 10.8957C7.53987 11.0711 7.37291 11.2059 7.17871 11.2825C7.27947 11.7122 7.44635 12.1228 7.67313 12.4991C7.86316 12.413 8.07423 12.3878 8.27858 12.4267C8.48292 12.4655 8.67095 12.5667 8.81792 12.7169C8.9649 12.867 9.06393 13.0591 9.10198 13.2679C9.14004 13.4767 9.11533 13.6923 9.03111 13.8865C9.39954 14.1178 9.80141 14.2883 10.2219 14.3916C10.2965 14.1935 10.4281 14.0231 10.5994 13.9029C10.7707 13.7827 10.9737 13.7184 11.1815 13.7184C11.3893 13.7184 11.5922 13.7827 11.7635 13.9029C11.9348 14.0231 12.0664 14.1935 12.141 14.3916C12.5616 14.2887 12.9635 14.1182 13.3318 13.8865C13.2477 13.692 13.2232 13.476 13.2616 13.267C13.3 13.058 13.3994 12.8658 13.5468 12.7157C13.6942 12.5656 13.8826 12.4646 14.0873 12.426C14.292 12.3874 14.5033 12.4131 14.6934 12.4996C14.9198 12.1232 15.0867 11.7126 15.1878 11.283C14.9939 11.2054 14.8275 11.0698 14.7102 10.894C14.5929 10.7182 14.5302 10.5104 14.5303 10.2976ZM11.2045 12.0008C10.8744 12.0008 10.5517 11.9008 10.2772 11.7134C10.0027 11.526 9.78875 11.2597 9.66242 10.9481C9.53609 10.6365 9.50303 10.2936 9.56744 9.96282C9.63184 9.63202 9.79081 9.32816 10.0242 9.08967C10.2577 8.85118 10.5551 8.68876 10.8789 8.62296C11.2026 8.55716 11.5382 8.59094 11.8432 8.72001C12.1482 8.84908 12.4089 9.06765 12.5923 9.34809C12.7757 9.62852 12.8736 9.95823 12.8736 10.2955C12.8737 10.5196 12.8305 10.7414 12.7466 10.9484C12.6627 11.1554 12.5396 11.3435 12.3845 11.5019C12.2294 11.6602 12.0453 11.7858 11.8426 11.8714C11.6399 11.9571 11.4228 12.001 11.2035 12.0008H11.2045Z" stroke="#616161" stroke-width="0.75"/>
			</g>
			</g>
			</svg>