<svg xmlns="http://www.w3.org/2000/svg" width="50" height="50" viewBox="0 0 20 21" fill="none">
			  <g clip-path="url(#clip0_180_7976)">
			    <path d="M10.6723 15.9892C11.0353 15.9892 11.3902 15.8815 11.6921 15.6798C11.9939 15.4781 12.2292 15.1915 12.3681 14.8561C12.5071 14.5207 12.5434 14.1516 12.4726 13.7955C12.4018 13.4395 12.2269 13.1124 11.9702 12.8557C11.7135 12.599 11.3865 12.4242 11.0304 12.3534C10.6743 12.2825 10.3053 12.3189 9.96989 12.4578C9.6345 12.5967 9.34782 12.832 9.14613 13.1339C8.94444 13.4357 8.83678 13.7906 8.83678 14.1536C8.83678 14.6404 9.03018 15.1073 9.37441 15.4515C9.71863 15.7958 10.1855 15.9892 10.6723 15.9892ZM11.9569 16.4478H11.718C11.3903 16.5988 11.0337 16.6769 10.6728 16.6769C10.312 16.6769 9.95544 16.5988 9.62769 16.4478H9.38777C8.87674 16.4478 8.38664 16.6508 8.02529 17.0121C7.66394 17.3735 7.46094 17.8636 7.46094 18.3746V18.9712C7.46094 19.1537 7.53341 19.3287 7.66242 19.4577C7.79143 19.5867 7.96641 19.6592 8.14886 19.6592H13.1958C13.3782 19.6592 13.5532 19.5867 13.6822 19.4577C13.8112 19.3287 13.8837 19.1537 13.8837 18.9712V18.3746C13.8834 17.8637 13.6803 17.3737 13.319 17.0124C12.9577 16.6511 12.4678 16.4481 11.9569 16.4478Z" fill="#616161"/>
			    <path d="M16.9974 2.15891H3.82063C3.60299 2.15891 3.39426 2.24538 3.24036 2.39927C3.08646 2.55317 3 2.76189 3 2.97953V9.11991C3 9.33755 3.08646 9.54629 3.24036 9.70019C3.39426 9.85408 3.60299 9.94055 3.82063 9.94055H8.43016C8.59537 9.94057 8.75671 9.99053 8.89302 10.0839L10.7477 11.3493L12.3528 10.1115C12.4964 10.0008 12.6726 9.94068 12.8539 9.94055H16.9942C17.2118 9.94055 17.4206 9.85408 17.5745 9.70019C17.7284 9.54629 17.8148 9.33755 17.8148 9.11991V2.9806C17.8148 2.76296 17.7284 2.55422 17.5745 2.40033C17.4206 2.24643 17.2118 2.15997 16.9942 2.15997" stroke="#616161" stroke-width="0.5"/>
			    <path d="M11.8398 4.45009H15.3283" stroke="#616161" stroke-width="0.5" stroke-miterlimit="10" stroke-linecap="round"/>
			    <path d="M11.8398 6.00934H14.3293" stroke="#616161" stroke-width="0.5" stroke-miterlimit="10" stroke-linecap="round"/>
			    <path d="M11.9429 7.5691H13.5841" stroke="#616161" stroke-width="0.5" stroke-miterlimit="10" stroke-linecap="round"/>
			    <path d="M5.36963 7.32278L6.94294 4.80569L8.4483 7.13169L10.0758 4.80569" stroke="#616161" stroke-width="0.4" stroke-miterlimit="10"/>
			    <path d="M5.50654 6.63915C5.63387 6.63894 5.7584 6.67653 5.86436 6.74714C5.97032 6.81775 6.05294 6.9182 6.10176 7.0358C6.15059 7.1534 6.16341 7.28283 6.13862 7.40773C6.11383 7.53262 6.05254 7.64736 5.96251 7.73739C5.87247 7.82743 5.75774 7.88872 5.63284 7.91351C5.50795 7.9383 5.37851 7.92548 5.26091 7.87666C5.14332 7.82783 5.04285 7.7452 4.97224 7.63924C4.90163 7.53328 4.86405 7.40876 4.86426 7.28143C4.86426 7.11108 4.93193 6.94772 5.05238 6.82727C5.17283 6.70682 5.3362 6.63915 5.50654 6.63915Z" fill="#616161"/>
			    <path d="M6.87469 4.21735C7.00203 4.21714 7.12656 4.25472 7.23252 4.32533C7.33848 4.39594 7.42109 4.4964 7.46992 4.61399C7.51874 4.73159 7.53158 4.86103 7.50679 4.98592C7.482 5.11082 7.42071 5.22555 7.33067 5.31559C7.24063 5.40562 7.1259 5.46691 7.00101 5.4917C6.87611 5.51649 6.74668 5.50367 6.62908 5.45485C6.51148 5.40602 6.41102 5.3234 6.3404 5.21744C6.26979 5.11148 6.23221 4.98695 6.23242 4.85962C6.23242 4.77527 6.24903 4.69176 6.28131 4.61383C6.31359 4.53591 6.3609 4.46511 6.42054 4.40547C6.48018 4.34582 6.55098 4.29851 6.62891 4.26624C6.70683 4.23396 6.79035 4.21735 6.87469 4.21735Z" fill="#616161"/>
			    <path d="M8.54364 6.54377C8.67097 6.54356 8.7955 6.58114 8.90146 6.65175C9.00742 6.72236 9.09003 6.82284 9.13885 6.94043C9.18768 7.05803 9.20051 7.18747 9.17572 7.31236C9.15093 7.43726 9.08964 7.55199 8.99961 7.64203C8.90957 7.73206 8.79484 7.79335 8.66994 7.81814C8.54505 7.84293 8.41561 7.8301 8.29802 7.78127C8.18042 7.73245 8.07994 7.64984 8.00933 7.54388C7.93872 7.43792 7.90116 7.31339 7.90137 7.18606C7.90137 7.01572 7.96904 6.85234 8.08949 6.73189C8.20994 6.61144 8.3733 6.54377 8.54364 6.54377Z" fill="#616161"/>
			    <path d="M10.1296 4.09449C10.2569 4.09428 10.3815 4.13186 10.4874 4.20247C10.5934 4.27308 10.676 4.37356 10.7248 4.49115C10.7736 4.60875 10.7865 4.73819 10.7617 4.86308C10.7369 4.98798 10.6756 5.10271 10.5856 5.19275C10.4955 5.28278 10.3808 5.34407 10.2559 5.36886C10.131 5.39365 10.0016 5.38082 9.88397 5.33199C9.76637 5.28317 9.6659 5.20054 9.59529 5.09458C9.52468 4.98862 9.4871 4.86409 9.48731 4.73676C9.48731 4.56642 9.55497 4.40306 9.67542 4.28261C9.79587 4.16216 9.95925 4.09449 10.1296 4.09449Z" fill="#616161"/>
			  </g>
			  <defs>
			    <clipPath id="clip0_180_7976">
			      <rect width="20" height="20" fill="transparent" transform="translate(0 0.656616)"/>
			    </clipPath>
			  </defs>
			</svg>