<svg width="50" height="50" viewBox="0 0 20 21" fill="none" xmlns="http://www.w3.org/2000/svg">
			  <g clip-path="url(#clip0_1712_7479)">
			  <path d="M9.9917 18.7062C8.71946 18.7081 7.4628 18.4263 6.31315 17.8814C5.1635 17.3365 4.14977 16.5422 3.3457 15.5562C3.62513 15.0337 4.04138 14.5969 4.54991 14.2927C5.05845 13.9885 5.64013 13.8283 6.2327 13.8292H7.6387C8.2224 14.097 8.85702 14.2356 9.4992 14.2356C10.1414 14.2356 10.776 14.097 11.3597 13.8292H12.7657C13.4957 13.8276 14.2052 14.0707 14.7807 14.5198C15.3563 14.9688 15.7647 15.5978 15.9407 16.3062C14.3441 17.8477 12.211 18.7082 9.9917 18.7062ZM5.8247 9.36224C5.82074 8.63451 6.03293 7.92199 6.43438 7.31499C6.83582 6.70799 7.40844 6.23385 8.07966 5.95266C8.75088 5.67147 9.49047 5.59589 10.2047 5.7355C10.9189 5.87512 11.5756 6.22364 12.0915 6.73689C12.6074 7.25015 12.9594 7.90502 13.1027 8.61851C13.246 9.33199 13.1743 10.072 12.8965 10.7446C12.6188 11.4173 12.1477 11.9924 11.5428 12.397C10.9379 12.8015 10.2264 13.0174 9.4987 13.0172C8.52694 13.0194 7.59409 12.6356 6.90516 11.9502C6.21624 11.2649 5.82762 10.334 5.8247 9.36224Z" stroke="#616161" stroke-width="0.5"/>
			  <path d="M9.8623 19.0552C7.58633 19.0525 5.40431 18.1473 3.79504 16.5378C2.18578 14.9284 1.2807 12.7462 1.27832 10.4702C1.28097 8.19441 2.18617 6.01256 3.79541 4.40332C5.40465 2.79408 7.5865 1.88888 9.8623 1.88623C11.4738 1.88485 13.053 2.33832 14.4183 3.19434L13.8033 3.41431C12.5988 2.74033 11.2416 2.38632 9.86133 2.38623C7.71788 2.38835 5.66284 3.24079 4.14709 4.75635C2.63135 6.27191 1.77875 8.32677 1.77637 10.4702C1.77875 12.6138 2.63126 14.6689 4.14697 16.1846C5.66269 17.7003 7.71778 18.5528 9.86133 18.5552C12.0049 18.5528 14.06 17.7003 15.5757 16.1846C17.0914 14.6689 17.9439 12.6138 17.9463 10.4702C17.9467 9.7389 17.8478 9.01086 17.6523 8.30616C17.7534 8.19957 17.8476 8.08678 17.9343 7.96827C17.9693 7.92326 18.0033 7.87726 18.0343 7.83326C18.3087 8.68532 18.4481 9.57505 18.4473 10.4702C18.4433 12.7459 17.5376 14.9272 15.9285 16.5364C14.3193 18.1455 12.138 19.0512 9.8623 19.0552Z" fill="#616161"/>
			  <path d="M15.6452 7.38718H16.2382V5.68718H15.6452V7.38718ZM15.9452 5.12118C15.9841 5.12214 16.0227 5.11538 16.0589 5.10131C16.0951 5.08723 16.1282 5.06612 16.1562 5.03918C16.1827 5.01304 16.2037 4.9819 16.2181 4.94757C16.2324 4.91324 16.2398 4.8764 16.2398 4.83918C16.2398 4.80197 16.2324 4.76513 16.2181 4.7308C16.2037 4.69646 16.1827 4.66532 16.1562 4.63918C16.0985 4.58655 16.0233 4.55737 15.9452 4.55737C15.8671 4.55737 15.7919 4.58655 15.7342 4.63918C15.7077 4.66532 15.6867 4.69646 15.6723 4.7308C15.658 4.76513 15.6506 4.80197 15.6506 4.83918C15.6506 4.8764 15.658 4.91324 15.6723 4.94757C15.6867 4.9819 15.7077 5.01304 15.7342 5.03918C15.7623 5.06585 15.7954 5.08666 15.8317 5.10039C15.8679 5.11412 15.9065 5.12051 15.9452 5.11918V5.12118ZM15.9452 8.80318C15.2624 8.64017 14.6598 8.23964 14.2452 7.67318C13.809 7.11507 13.573 6.42654 13.5752 5.71818V3.98818L15.9452 3.13818L18.3152 3.98818V5.71618C18.3181 6.42557 18.0821 7.11526 17.6452 7.67418C17.2307 8.24052 16.628 8.64075 15.9452 8.80318Z" fill="#616161"/>
			  </g>
			  <defs>
			  <clipPath id="clip0_1712_7479">
			  <rect width="20" height="20" fill="white" transform="translate(0 0.0861816)"/>
			  </clipPath>
			  </defs>
			  </svg>