<svg xmlns="http://www.w3.org/2000/svg" width="50" height="50" viewBox="0 0 20 21" fill="none">
			  <path d="M3.5309 3.52606C3.16728 3.52606 2.81859 3.67042 2.56135 3.9273C2.56131 3.92734 2.56128 3.92738 2.56124 3.92741C2.30394 4.18442 2.1593 4.53293 2.15888 4.89652V4.89699H2L3.5309 3.52606ZM2.4 18.1259C2.4 18.1259 2.4 18.1258 2.4 18.1258L3.5309 19.2566C3.53084 19.2566 3.53077 19.2566 3.53071 19.2566C3.23098 19.256 2.94384 19.1367 2.73194 18.9248C2.52 18.7129 2.40064 18.4256 2.4 18.1259ZM2.4 4.89699C2.4 4.89692 2.4 4.89686 2.4 4.8968C2.40064 4.59722 2.51992 4.31002 2.73173 4.0981C2.7318 4.09803 2.73187 4.09796 2.73194 4.09789C2.94389 3.88595 3.2311 3.76668 3.5309 3.76609L2.4 4.89699Z" stroke="#616161" stroke-width="0.8"/>
			  <path d="M11.067 11.8695L10.6963 13.676L12.4109 13.1888L11.067 11.8695Z" stroke="#616161" stroke-width="0.5" stroke-linecap="round"/>
			  <path d="M11.5532 11.0975L13.2902 12.7774L17.0129 9.0547L15.3073 7.37479L11.5532 11.0975Z" stroke="#616161" stroke-width="0.5"/>
			  <path d="M15.9277 6.82294L17.7275 8.52971L18.0993 8.09517L16.3936 6.38953L15.9277 6.82294Z" fill="#616161" stroke="#616161" stroke-width="0.5"/>
			  <path d="M10.1821 2.56937V2.53465C10.1821 2.04299 9.40711 1.65662 8.42716 1.65662C7.44722 1.65662 6.66998 2.04411 6.66998 2.53465V2.56937H6.3183C6.22523 2.56967 6.13608 2.60684 6.07038 2.67276C6.00467 2.73868 5.96777 2.82796 5.96777 2.92103V4.71294H10.7779V2.92103C10.7776 2.82785 10.7405 2.73858 10.6746 2.67269C10.6087 2.60681 10.5194 2.56967 10.4262 2.56937H10.1821Z" stroke="#616161" stroke-width="0.5"/>
			  <path d="M8.3894 2.55925C8.50746 2.55925 8.62288 2.59424 8.72104 2.65984C8.81921 2.72543 8.89571 2.81865 8.94089 2.92772C8.98607 3.0368 8.9979 3.15682 8.97487 3.27261C8.95183 3.3884 8.89498 3.49478 8.81149 3.57826C8.72801 3.66175 8.62165 3.7186 8.50586 3.74163C8.39007 3.76467 8.27004 3.75284 8.16097 3.70766C8.0519 3.66248 7.95866 3.58596 7.89307 3.4878C7.82747 3.38963 7.79248 3.27423 7.79248 3.15617C7.79248 2.99785 7.85535 2.84602 7.9673 2.73407C8.07925 2.62212 8.23108 2.55925 8.3894 2.55925Z" stroke="#616161" stroke-width="0.5"/>
			  <path d="M8.48003 6.92395H5.68018V9.7238H8.48003V6.92395Z" stroke="#616161" stroke-width="0.5"/>
			  <path d="M8.76022 10.4527H5.40039V13.8125H8.76022V10.4527Z" fill="#616161"/>
			  <path d="M8.48003 10.7328H5.68018V13.5327H8.48003V10.7328Z" stroke="#616161" stroke-width="0.5"/>
			  <path d="M8.48003 14.7634H5.68018V17.5633H8.48003V14.7634Z" stroke="#616161" stroke-width="0.5"/>
			  <path d="M6.69508 13.1217L6.14277 12.4406C6.11827 12.4123 6.09986 12.3792 6.08836 12.3436C6.07685 12.3079 6.07247 12.2704 6.07578 12.2331C6.07908 12.1958 6.0899 12.1593 6.1075 12.1262C6.12509 12.0931 6.14921 12.064 6.17831 12.0403C6.20741 12.0167 6.24101 11.9991 6.27702 11.9887C6.31303 11.9782 6.35081 11.9752 6.38803 11.9796C6.42525 11.9841 6.46102 11.996 6.49357 12.0146C6.52612 12.0332 6.55478 12.0581 6.57751 12.0879L6.77219 12.3274L7.67613 11.575C7.73338 11.5295 7.80602 11.5084 7.87873 11.5159C7.95144 11.5234 8.01841 11.559 8.06521 11.6152C8.112 11.6713 8.13493 11.7435 8.12919 11.8164C8.12344 11.8893 8.08932 11.9569 8.03431 12.0051L6.69508 13.1217Z" fill="transparent"/>
			</svg>