<!-- Generator: Adobe Illustrator 16.0.0, SVG Export Plug-In . SVG Version: 6.00 Build 0)  -->

<svg id="Capa_1" xmlns:inkscape="http://www.inkscape.org/namespaces/inkscape" xmlns:rdf="http://www.w3.org/1999/02/22-rdf-syntax-ns#" style="enable-background:new 0 0 100 100;" xmlns="http://www.w3.org/2000/svg" inkscape:version="0.48.5 r10040" xml:space="preserve" viewBox="0 0 100 100" height="100%" width="100%" version="1.1" y="0px" x="0px" xmlns:cc="http://creativecommons.org/ns#" xmlns:dc="http://purl.org/dc/elements/1.1/" sodipodi:docname="appearance.svg" xmlns:sodipodi="http://sodipodi.sourceforge.net/DTD/sodipodi-0.dtd"><metadata id="metadata4386"><rdf:RDF><cc:Work rdf:about=""><dc:format>image/svg+xml</dc:format><dc:type rdf:resource="http://purl.org/dc/dcmitype/StillImage"/><dc:title/></cc:Work></rdf:RDF></metadata><defs id="defs4384">
</defs><sodipodi:namedview id="namedview4382" bordercolor="#666666" inkscape:pageshadow="2" guidetolerance="10" pagecolor="#ffffff" gridtolerance="10" inkscape:zoom="3.3402581" inkscape:window-maximized="1" objecttolerance="10" inkscape:window-height="706" showgrid="false" borderopacity="1" inkscape:current-layer="g4344" inkscape:cx="69.542122" inkscape:cy="54.849707" inkscape:window-y="-8" inkscape:window-x="-8" inkscape:window-width="1366" inkscape:pageopacity="0"/>
<path id="path4342" inkscape:connector-curvature="0" d="m62.924,94.729c-1.732-1.274-1.918-3.188-1.918-3.188l-0.65-4.155h-20.714l-0.652,4.152s-0.181,1.916-1.914,3.19c-1.732,1.274-3.099,2.368-1.732,2.554,1.317,0.178,13.74,0.016,14.656,0,0.918,0.016,13.338,0.178,14.654,0,1.366-0.184-0.002-1.276-1.73-2.553z" fill="#fd940b"/><g id="g4344" fill="#006684">
		<path id="path4346" inkscape:connector-curvature="0" fill="#006684" d="m26.666,61.538c5.534-0.043,6.223-1.377,8.027-6.933,3.327-8.768,18.309,2.296,9.024,6.136-9.285,3.842-22.585,0.84-17.051,0.797z"/>
		<path id="path4348" sodipodi:nodetypes="ccccccc" inkscape:connector-curvature="0" fill="#fd940b" d="M83.41,3.756c-2.688-2.164-7.135-1.098-9.938,2.38l-28.39,40.336c-2.803,3.477-2.789,2.813-0.104,4.975,2.685,2.164,2.038,2.319,4.841-1.158l33.376-36.317c2.803-3.48,2.901-8.053,0.215-10.216z"/>
	</g><path id="path4350"  fill="#006684" inkscape:connector-curvature="0" d="M96,17.386h-12.484l-5.515,6h16v48h-88v-48h51.19l4.227-6h-57.418c-2.209,0-4,1.791-4,4v58c0,2.209,1.791,4,4,4h92c2.209,0,4-1.791,4-4v-58c0-2.209-1.791-4-4-4z"/>
</svg>