<!-- Generator: Adobe Illustrator 16.0.0, SVG Export Plug-In . SVG Version: 6.00 Build 0)  -->

<svg id="Capa_1" xmlns:inkscape="http://www.inkscape.org/namespaces/inkscape" xmlns:rdf="http://www.w3.org/1999/02/22-rdf-syntax-ns#" style="enable-background:new 0 0 121.946 121.946;" xmlns="http://www.w3.org/2000/svg" inkscape:version="0.48.5 r10040" xml:space="preserve" height="20px" viewBox="0 0 121.946 121.946" width="20px" version="1.1" y="0px" x="0px" xmlns:cc="http://creativecommons.org/ns#" xmlns:dc="http://purl.org/dc/elements/1.1/" sodipodi:docname="dataSettings.svg" xmlns:sodipodi="http://sodipodi.sourceforge.net/DTD/sodipodi-0.dtd"><metadata id="metadata7594"><rdf:RDF><cc:Work rdf:about=""><dc:format>image/svg+xml</dc:format><dc:type rdf:resource="http://purl.org/dc/dcmitype/StillImage"/><dc:title/></cc:Work></rdf:RDF></metadata><defs id="defs7592">
	</defs><sodipodi:namedview id="namedview7590" bordercolor="#666666" inkscape:pageshadow="2" guidetolerance="10" pagecolor="#ffffff" gridtolerance="10" inkscape:zoom="11.8" inkscape:window-maximized="1" objecttolerance="10" inkscape:window-height="706" showgrid="false" borderopacity="1" inkscape:current-layer="g7550" inkscape:cx="10" inkscape:cy="10.686298" inkscape:window-y="-8" inkscape:window-x="-8" inkscape:window-width="1366" inkscape:pageopacity="0"/>
<g id="g7550">
	<path id="path7554" inkscape:connector-curvature="0" fill="#1f4e82" d="m50.077,98.919-2.78-1.024c0.219-2.027,0.147-4.093-0.234-6.146l2.684-1.237c1.677-0.771,2.412-2.765,1.639-4.441l-1.567-3.4c-0.772-1.676-2.763-2.413-4.437-1.641l-2.688,1.239c-1.313-1.627-2.837-3.023-4.519-4.176l1.026-2.775c0.638-1.731-0.25-3.661-1.98-4.301l-3.515-1.298c-1.677-0.617-3.68,0.305-4.298,1.979l-1.025,2.778c-2.025-0.216-4.091-0.146-6.146,0.233l-1.237-2.685c-0.772-1.676-2.765-2.412-4.439-1.641l-3.403,1.565c-1.676,0.773-2.41,2.768-1.64,4.441l1.237,2.684c-1.624,1.315-3.023,2.839-4.174,4.523l-2.774-1.026c-1.675-0.624-3.681,0.3-4.302,1.979l-1.297,3.515c-0.309,0.84-0.273,1.749,0.1,2.561,0.376,0.812,1.044,1.43,1.88,1.735l2.78,1.028c-0.22,2.024-0.148,4.094,0.234,6.146l-2.687,1.237c-1.676,0.771-2.41,2.763-1.639,4.438l1.568,3.404c0.772,1.675,2.763,2.411,4.438,1.638l2.687-1.235c1.313,1.626,2.836,3.021,4.52,4.174l-1.026,2.777c-0.312,0.838-0.276,1.745,0.1,2.559,0.371,0.812,1.041,1.432,1.879,1.743l3.515,1.296c0.836,0.31,1.747,0.273,2.559-0.099,0.813-0.375,1.43-1.043,1.738-1.882l1.027-2.779c2.025,0.22,4.093,0.147,6.147-0.231l1.235,2.685c0.772,1.674,2.766,2.41,4.44,1.638l3.402-1.566c1.678-0.771,2.413-2.763,1.639-4.439l-1.237-2.685c1.626-1.314,3.024-2.838,4.173-4.52l2.778,1.027c0.841,0.311,1.75,0.272,2.563-0.103,0.81-0.374,1.426-1.042,1.736-1.879l1.297-3.515c0.641-1.729-0.247-3.657-1.977-4.298zm-18.408,8.743c-1.754,0.809-3.615,1.216-5.533,1.216-5.152,0-9.872-3.022-12.025-7.697-3.052-6.631-0.144-14.507,6.483-17.559,1.753-0.809,3.614-1.217,5.529-1.217,5.151,0,9.875,3.021,12.029,7.697,3.052,6.631,0.143,14.507-6.483,17.56z"/><path id="path7556" inkscape:connector-curvature="0" fill="#e18c14" d="m83.179,108.5-1.547-0.569c0.123-1.129,0.082-2.28-0.131-3.423l1.494-0.689c0.935-0.428,1.344-1.538,0.913-2.473l-0.872-1.894c-0.432-0.935-1.539-1.346-2.471-0.914l-1.497,0.689c-0.73-0.905-1.58-1.685-2.515-2.325l0.57-1.546c0.355-0.964-0.14-2.037-1.103-2.396l-1.958-0.722c-0.934-0.346-2.048,0.168-2.394,1.102l-0.571,1.548c-1.126-0.121-2.278-0.081-3.421,0.13l-0.688-1.497c-0.432-0.934-1.541-1.345-2.474-0.914l-1.895,0.873c-0.934,0.432-1.342,1.54-0.913,2.473l0.689,1.495c-0.905,0.732-1.684,1.581-2.326,2.519l-1.544-0.57c-0.931-0.347-2.049,0.165-2.394,1.101l-0.724,1.958c-0.171,0.468-0.15,0.975,0.055,1.427,0.21,0.45,0.583,0.795,1.049,0.966l1.547,0.572c-0.123,1.129-0.083,2.278,0.13,3.423l-1.495,0.688c-0.934,0.431-1.343,1.538-0.913,2.472l0.874,1.896c0.429,0.932,1.538,1.343,2.471,0.913l1.495-0.688c0.731,0.905,1.581,1.683,2.519,2.323l-0.571,1.545c-0.174,0.468-0.154,0.975,0.055,1.427,0.208,0.451,0.579,0.797,1.048,0.971l1.956,0.722c0.467,0.172,0.972,0.152,1.425-0.056s0.797-0.58,0.968-1.046l0.571-1.55c1.129,0.123,2.278,0.084,3.423-0.129l0.688,1.495c0.43,0.932,1.539,1.343,2.471,0.911l1.896-0.872c0.934-0.432,1.342-1.538,0.912-2.472l-0.688-1.496c0.904-0.731,1.684-1.578,2.323-2.516l1.547,0.57c0.468,0.175,0.975,0.152,1.428-0.056,0.449-0.207,0.795-0.581,0.967-1.047l0.722-1.957c0.356-0.964-0.139-2.04-1.101-2.396zm-10.25,4.87c-0.977,0.448-2.012,0.677-3.08,0.677-2.868,0-5.497-1.684-6.696-4.287-1.7-3.69-0.082-8.077,3.61-9.775,0.976-0.45,2.012-0.677,3.079-0.677,2.867,0,5.496,1.682,6.696,4.285,1.698,3.691,0.08,8.075-3.609,9.777z"/><path id="path7558" inkscape:connector-curvature="0" fill="#0daea7" d="m118.27,49.597-4.673-1.725c0.369-3.407,0.248-6.882-0.393-10.337l4.514-2.077c2.816-1.294,4.052-4.647,2.754-7.468l-2.634-5.718c-1.298-2.819-4.646-4.059-7.461-2.759l-4.519,2.084c-2.208-2.735-4.771-5.082-7.596-7.02l1.72-4.668c1.076-2.911-0.418-6.155-3.328-7.229l-5.909-2.186c-2.818-1.036-6.186,0.515-7.228,3.33l-1.724,4.673c-3.405-0.366-6.881-0.245-10.333,0.391l-2.08-4.51c-1.298-2.819-4.646-4.056-7.465-2.758l-5.72,2.634c-2.818,1.299-4.055,4.65-2.759,7.466l2.083,4.513c-2.731,2.211-5.083,4.773-7.02,7.603l-4.665-1.724c-2.815-1.049-6.188,0.504-7.23,3.324l-2.181,5.912c-0.521,1.41-0.46,2.938,0.166,4.304,0.634,1.364,1.758,2.403,3.163,2.917l4.673,1.73c-0.371,3.403-0.25,6.882,0.392,10.335l-4.514,2.078c-2.819,1.299-4.053,4.645-2.756,7.461l2.635,5.724c1.298,2.813,4.646,4.054,7.463,2.755l4.515-2.08c2.208,2.735,4.771,5.083,7.602,7.019l-1.726,4.669c-0.524,1.407-0.463,2.936,0.167,4.303,0.626,1.364,1.751,2.406,3.159,2.929l5.909,2.179c1.409,0.521,2.938,0.461,4.303-0.164,1.367-0.63,2.404-1.754,2.922-3.163l1.729-4.675c3.404,0.371,6.879,0.25,10.336-0.389l2.076,4.512c1.298,2.814,4.648,4.056,7.466,2.755l5.72-2.634c2.821-1.3,4.054-4.646,2.755-7.464l-2.079-4.513c2.732-2.213,5.084-4.771,7.017-7.601l4.672,1.729c1.411,0.521,2.94,0.459,4.307-0.171,1.362-0.628,2.398-1.753,2.919-3.159l2.184-5.911c1.071-2.909-0.422-6.153-3.331-7.226zm-26.278,16.422c-2.95,1.357-6.078,2.046-9.301,2.046-8.663,0-16.597-5.082-20.22-12.945-5.132-11.146-0.242-24.388,10.899-29.519,2.947-1.359,6.077-2.045,9.297-2.045,8.662,0,16.601,5.079,20.224,12.94,5.13,11.149,0.242,24.392-10.899,29.523z"/>
<path id="path21302" sodipodi:rx="4.4491525" sodipodi:ry="4.0254235" sodipodi:type="arc" d="m17.966,7.7542a4.4492,4.0254,0,1,1,-8.8983,0,4.4492,4.0254,0,1,1,8.8983,0z" fill-rule="evenodd" transform="matrix(6.1669835,0,0,6.8161399,-5.2823591,-8.4676906)" sodipodi:cy="7.7542372" sodipodi:cx="13.516949" fill="#FFF"/></g>
</svg>

