<svg xmlns="http://www.w3.org/2000/svg" width="26.269" height="23.425" viewBox="0 0 26.269 23.425">
  <g id="fx" transform="translate(0.611 -0.045)">
    <path id="path9883" d="M10.455,7.794l-1.5,5.917a29.007,29.007,0,0,1-2.049,6.071A7.506,7.506,0,0,1,4.57,22.567a5.355,5.355,0,0,1-3.068.9,2.523,2.523,0,0,1-1.6-.416,1.234,1.234,0,0,1-.512-.98,1.19,1.19,0,0,1,.423-.909,1.593,1.593,0,0,1,1.114-.384,1.227,1.227,0,0,1,.884.295.987.987,0,0,1,.307.743.847.847,0,0,1-.192.609q-.192.2-.192.263l.064.09a.271.271,0,0,0,.179.064.939.939,0,0,0,.653-.243,3.713,3.713,0,0,0,1.012-1.46q.231-.589.884-3.112L7.137,7.794H5.357L5.78,6.3a2.791,2.791,0,0,0,1.4-.244A2.978,2.978,0,0,0,8.1,4.9a10.931,10.931,0,0,1,2.971-3.727A5.818,5.818,0,0,1,14.553.045,2.739,2.739,0,0,1,16.34.519a1.538,1.538,0,0,1,.557,1.23,1.469,1.469,0,0,1-.372,1.057A1.221,1.221,0,0,1,15.6,3.2a1.171,1.171,0,0,1-.845-.32,1.028,1.028,0,0,1-.333-.769,1.347,1.347,0,0,1,.211-.679,1.286,1.286,0,0,0,.211-.487.3.3,0,0,0-.1-.23.352.352,0,0,0-.25-.09,2.157,2.157,0,0,0-1.55.935,11.391,11.391,0,0,0-2.1,4.739h1.857l-.448,1.5h-1.8Z" transform="translate(0 0)" fill="#0d78bf"/>
    <path id="path9885" d="M28.638,14.29l4.47-.769a12.833,12.833,0,0,1,1.716,4.2,31.152,31.152,0,0,1,1.9-2.6,5.809,5.809,0,0,1,1.415-1.3,2.461,2.461,0,0,1,1.185-.3,1.451,1.451,0,0,1,1.082.384,1.417,1.417,0,0,1,.378,1.037,1.388,1.388,0,0,1-.378,1.005,1.256,1.256,0,0,1-.941.391,3.566,3.566,0,0,1-.941-.147,3.348,3.348,0,0,0-.737-.147,1.63,1.63,0,0,0-1.025.384,8.172,8.172,0,0,0-1.639,2.241,18.044,18.044,0,0,0,1.742,4.688,1.041,1.041,0,0,0,.781.5,1,1,0,0,0,.576-.167,6.7,6.7,0,0,0,1.14-1.345l.461.269a8.558,8.558,0,0,1-2.2,2.561A2.8,2.8,0,0,1,36,25.752a2.4,2.4,0,0,1-1.364-.365,3.079,3.079,0,0,1-.967-1.191,18.732,18.732,0,0,1-1-2.645q-1.5,1.908-2.35,2.786a5.581,5.581,0,0,1-1.415,1.146,2.762,2.762,0,0,1-1.2.269,1.442,1.442,0,0,1-1.057-.384,1.339,1.339,0,0,1-.391-1,1.447,1.447,0,0,1,1.5-1.5,1.865,1.865,0,0,1,.781.205,2.541,2.541,0,0,0,.922.307,1.414,1.414,0,0,0,.666-.154A3.869,3.869,0,0,0,31.1,22.4q.359-.4,1.319-1.691-1.23-4.559-1.921-5.456a1.328,1.328,0,0,0-1.1-.576,4.336,4.336,0,0,0-.845.1l.09-.487Z" transform="translate(-15.121 -7.585)" fill="#0d78bf"/>
  </g>
</svg>
