<svg xmlns="http://www.w3.org/2000/svg" width="25.227" height="22.699" viewBox="0 0 25.227 22.699">
  <g id="appearance" transform="translate(0 -2.636)">
    <path id="path4342" d="M40.662,88.919a1.022,1.022,0,0,1-.4-.666l-.136-.868H35.8l-.136.867a1.019,1.019,0,0,1-.4.666c-.362.266-.647.494-.362.533s2.869,0,3.06,0,2.785.037,3.06,0S41.022,89.186,40.662,88.919Z" transform="translate(-25.35 -64.135)" fill="#0d78bf"/>
    <g id="g4344" transform="translate(9.642 2.636)">
      <path id="path4346" d="M25.634,53.444c1.155-.009,1.3-.288,1.676-1.448.695-1.831,3.823.479,1.884,1.281S24.479,53.453,25.634,53.444Z" transform="translate(-25.362 -41.145)" fill="#0d78bf"/>
      <path id="path4348" d="M51.415,2.87a1.534,1.534,0,0,0-2.075.5l-5.928,8.422c-.585.726-.582.587-.022,1.039s.426.484,1.011-.242L51.37,5a1.534,1.534,0,0,0,.045-2.133Z" transform="translate(-39.295 -2.636)" fill="#0d78bf"/>
    </g>
    <path id="path4350" d="M24.217,17.386H21.068L19.677,18.9h4.036V31.05H1.514V18.9H14.427l1.066-1.518H1.009A1.011,1.011,0,0,0,0,18.4V33.074a1.011,1.011,0,0,0,1.009,1.012H24.217a1.011,1.011,0,0,0,1.009-1.012V18.4A1.011,1.011,0,0,0,24.217,17.386Z" transform="translate(0 -11.67)" fill="#0d78bf"/>
  </g>
</svg>
